{
  "title": "Fly Me to the Moon",
  "composer": "Bart Howard",
  "key": "C major",
  "tempo": 200,
  "timeSig": "4/4",
  "beatsPerMeasure": 4,
  "measures": [
    {
      "_": "Empty (rests)",
      "number": 0,
      "notes": []
    },
    {
      "_": "Empty (rests)",
      "number": 1,
      "notes": []
    },
    {
      "_": "Treble: 0 notes, Bass: 6 notes",
      "number": 2,
      "notes": [
        {
          "midi": 38,
          "beat": 0,
          "dur": 0.02,
          "vel": 119,
          "clef": "bass",
          "pitch": "D2"
        },
        {
          "midi": 38,
          "beat": 1,
          "dur": 0.02,
          "vel": 115,
          "clef": "bass",
          "pitch": "D2"
        },
        {
          "midi": 38,
          "beat": 1.65,
          "dur": 0.02,
          "vel": 43,
          "clef": "bass",
          "pitch": "D2"
        },
        {
          "midi": 38,
          "beat": 2,
          "dur": 0.02,
          "vel": 121,
          "clef": "bass",
          "pitch": "D2"
        },
        {
          "midi": 38,
          "beat": 3,
          "dur": 0.02,
          "vel": 119,
          "clef": "bass",
          "pitch": "D2"
        },
        {
          "midi": 38,
          "beat": 3.65,
          "dur": 0.02,
          "vel": 44,
          "clef": "bass",
          "pitch": "D2"
        }
      ]
    },
    {
      "_": "Treble: 0 notes, Bass: 6 notes",
      "number": 3,
      "notes": [
        {
          "midi": 38,
          "beat": 0,
          "dur": 0.02,
          "vel": 117,
          "clef": "bass",
          "pitch": "D2"
        },
        {
          "midi": 38,
          "beat": 1,
          "dur": 0.02,
          "vel": 120,
          "clef": "bass",
          "pitch": "D2"
        },
        {
          "midi": 38,
          "beat": 1.65,
          "dur": 0.02,
          "vel": 43,
          "clef": "bass",
          "pitch": "D2"
        },
        {
          "midi": 38,
          "beat": 2,
          "dur": 0.02,
          "vel": 115,
          "clef": "bass",
          "pitch": "D2"
        },
        {
          "midi": 38,
          "beat": 3,
          "dur": 0.02,
          "vel": 119,
          "clef": "bass",
          "pitch": "D2"
        },
        {
          "midi": 38,
          "beat": 3.65,
          "dur": 0.02,
          "vel": 45,
          "clef": "bass",
          "pitch": "D2"
        }
      ]
    },
    {
      "_": "Treble: 0 notes, Bass: 6 notes",
      "number": 4,
      "notes": [
        {
          "midi": 38,
          "beat": 0,
          "dur": 0.02,
          "vel": 116,
          "clef": "bass",
          "pitch": "D2"
        },
        {
          "midi": 38,
          "beat": 1,
          "dur": 0.02,
          "vel": 117,
          "clef": "bass",
          "pitch": "D2"
        },
        {
          "midi": 38,
          "beat": 1.65,
          "dur": 0.02,
          "vel": 40,
          "clef": "bass",
          "pitch": "D2"
        },
        {
          "midi": 38,
          "beat": 2,
          "dur": 0.02,
          "vel": 119,
          "clef": "bass",
          "pitch": "D2"
        },
        {
          "midi": 38,
          "beat": 3,
          "dur": 0.02,
          "vel": 113,
          "clef": "bass",
          "pitch": "D2"
        },
        {
          "midi": 38,
          "beat": 3.65,
          "dur": 0.02,
          "vel": 41,
          "clef": "bass",
          "pitch": "D2"
        }
      ]
    },
    {
      "_": "Treble: 2 notes, Bass: 7 notes",
      "number": 5,
      "notes": [
        {
          "midi": 38,
          "beat": 0,
          "dur": 0.02,
          "vel": 116,
          "clef": "bass",
          "pitch": "D2"
        },
        {
          "midi": 38,
          "beat": 0.65,
          "dur": 0.02,
          "vel": 78,
          "clef": "bass",
          "pitch": "D2"
        },
        {
          "midi": 38,
          "beat": 1,
          "dur": 0.02,
          "vel": 112,
          "clef": "bass",
          "pitch": "D2"
        },
        {
          "midi": 38,
          "beat": 1.65,
          "dur": 0.02,
          "vel": 44,
          "clef": "bass",
          "pitch": "D2"
        },
        {
          "midi": 38,
          "beat": 2,
          "dur": 0.02,
          "vel": 121,
          "clef": "bass",
          "pitch": "D2"
        },
        {
          "midi": 76,
          "beat": 2,
          "dur": 2,
          "vel": 96,
          "clef": "treble",
          "pitch": "E5"
        },
        {
          "midi": 88,
          "beat": 2.67,
          "dur": 1.33,
          "vel": 102,
          "clef": "treble",
          "pitch": "E6"
        },
        {
          "midi": 38,
          "beat": 3,
          "dur": 0.02,
          "vel": 118,
          "clef": "bass",
          "pitch": "D2"
        },
        {
          "midi": 52,
          "beat": 3.96,
          "dur": 0.04,
          "vel": 60,
          "clef": "bass",
          "pitch": "E3"
        }
      ]
    },
    {
      "_": "Treble: 9 notes, Bass: 23 notes",
      "number": 6,
      "notes": [
        {
          "midi": 38,
          "beat": 0,
          "dur": 0.02,
          "vel": 116,
          "clef": "bass",
          "pitch": "D2"
        },
        {
          "midi": 45,
          "beat": 0,
          "dur": 1.67,
          "vel": 83,
          "clef": "bass",
          "pitch": "A2"
        },
        {
          "midi": 72,
          "beat": 0,
          "dur": 1.15,
          "vel": 117,
          "clef": "treble",
          "pitch": "C5"
        },
        {
          "midi": 60,
          "beat": 0.01,
          "dur": 0.95,
          "vel": 57,
          "clef": "treble",
          "pitch": "C4"
        },
        {
          "midi": 45,
          "beat": 0.02,
          "dur": 0.95,
          "vel": 55,
          "clef": "bass",
          "pitch": "A2"
        },
        {
          "midi": 55,
          "beat": 0.02,
          "dur": 0.95,
          "vel": 54,
          "clef": "bass",
          "pitch": "G3"
        },
        {
          "midi": 52,
          "beat": 0.97,
          "dur": 0.95,
          "vel": 51,
          "clef": "bass",
          "pitch": "E3"
        },
        {
          "midi": 55,
          "beat": 0.98,
          "dur": 0.95,
          "vel": 59,
          "clef": "bass",
          "pitch": "G3"
        },
        {
          "midi": 38,
          "beat": 1,
          "dur": 0.02,
          "vel": 120,
          "clef": "bass",
          "pitch": "D2"
        },
        {
          "midi": 44,
          "beat": 1,
          "dur": 0.02,
          "vel": 67,
          "clef": "bass",
          "acc": "#",
          "pitch": "G#2"
        },
        {
          "midi": 47,
          "beat": 1,
          "dur": 1.67,
          "vel": 78,
          "clef": "bass",
          "pitch": "B2"
        },
        {
          "midi": 71,
          "beat": 1,
          "dur": 1.15,
          "vel": 118,
          "clef": "treble",
          "pitch": "B4"
        },
        {
          "midi": 60,
          "beat": 1.01,
          "dur": 0.95,
          "vel": 58,
          "clef": "treble",
          "pitch": "C4"
        },
        {
          "midi": 45,
          "beat": 1.02,
          "dur": 0.95,
          "vel": 54,
          "clef": "bass",
          "pitch": "A2"
        },
        {
          "midi": 38,
          "beat": 1.65,
          "dur": 0.02,
          "vel": 44,
          "clef": "bass",
          "pitch": "D2"
        },
        {
          "midi": 60,
          "beat": 1.96,
          "dur": 0.95,
          "vel": 58,
          "clef": "treble",
          "pitch": "C4"
        },
        {
          "midi": 45,
          "beat": 1.97,
          "dur": 0.95,
          "vel": 57,
          "clef": "bass",
          "pitch": "A2"
        },
        {
          "midi": 55,
          "beat": 1.99,
          "dur": 0.95,
          "vel": 58,
          "clef": "bass",
          "pitch": "G3"
        },
        {
          "midi": 38,
          "beat": 2,
          "dur": 0.02,
          "vel": 117,
          "clef": "bass",
          "pitch": "D2"
        },
        {
          "midi": 48,
          "beat": 2,
          "dur": 1.67,
          "vel": 80,
          "clef": "bass",
          "pitch": "C3"
        },
        {
          "midi": 52,
          "beat": 2,
          "dur": 0.95,
          "vel": 54,
          "clef": "bass",
          "pitch": "E3"
        },
        {
          "midi": 69,
          "beat": 2,
          "dur": 1.15,
          "vel": 117,
          "clef": "treble",
          "pitch": "A4"
        },
        {
          "midi": 52,
          "beat": 2.97,
          "dur": 0.95,
          "vel": 59,
          "clef": "bass",
          "pitch": "E3"
        },
        {
          "midi": 60,
          "beat": 2.99,
          "dur": 0.95,
          "vel": 52,
          "clef": "treble",
          "pitch": "C4"
        },
        {
          "midi": 38,
          "beat": 3,
          "dur": 0.02,
          "vel": 117,
          "clef": "bass",
          "pitch": "D2"
        },
        {
          "midi": 44,
          "beat": 3,
          "dur": 0.02,
          "vel": 69,
          "clef": "bass",
          "acc": "#",
          "pitch": "G#2"
        },
        {
          "midi": 49,
          "beat": 3,
          "dur": 1,
          "vel": 83,
          "clef": "bass",
          "acc": "#",
          "pitch": "C#3"
        },
        {
          "midi": 55,
          "beat": 3,
          "dur": 0.95,
          "vel": 59,
          "clef": "bass",
          "pitch": "G3"
        },
        {
          "midi": 67,
          "beat": 3,
          "dur": 1,
          "vel": 121,
          "clef": "treble",
          "pitch": "G4"
        },
        {
          "midi": 45,
          "beat": 3.02,
          "dur": 0.95,
          "vel": 54,
          "clef": "bass",
          "pitch": "A2"
        },
        {
          "midi": 38,
          "beat": 3.65,
          "dur": 0.02,
          "vel": 42,
          "clef": "bass",
          "pitch": "D2"
        },
        {
          "midi": 65,
          "beat": 3.67,
          "dur": 0.33,
          "vel": 115,
          "clef": "treble",
          "pitch": "F4"
        }
      ]
    },
    {
      "_": "Treble: 12 notes, Bass: 25 notes",
      "number": 7,
      "notes": [
        {
          "midi": 38,
          "beat": 0,
          "dur": 0.02,
          "vel": 118,
          "clef": "bass",
          "pitch": "D2"
        },
        {
          "midi": 50,
          "beat": 0,
          "dur": 1.67,
          "vel": 84,
          "clef": "bass",
          "pitch": "D3"
        },
        {
          "midi": 50,
          "beat": 0,
          "dur": 0.95,
          "vel": 60,
          "clef": "bass",
          "pitch": "D3"
        },
        {
          "midi": 53,
          "beat": 0.01,
          "dur": 0.95,
          "vel": 55,
          "clef": "bass",
          "pitch": "F3"
        },
        {
          "midi": 60,
          "beat": 0.01,
          "dur": 0.95,
          "vel": 54,
          "clef": "treble",
          "pitch": "C4"
        },
        {
          "midi": 45,
          "beat": 0.02,
          "dur": 0.95,
          "vel": 59,
          "clef": "bass",
          "pitch": "A2"
        },
        {
          "midi": 86,
          "beat": 0.69,
          "dur": 0.36,
          "vel": 84,
          "clef": "treble",
          "pitch": "D6"
        },
        {
          "midi": 53,
          "beat": 0.96,
          "dur": 0.95,
          "vel": 55,
          "clef": "bass",
          "pitch": "F3"
        },
        {
          "midi": 60,
          "beat": 0.97,
          "dur": 0.95,
          "vel": 58,
          "clef": "treble",
          "pitch": "C4"
        },
        {
          "midi": 45,
          "beat": 0.98,
          "dur": 0.95,
          "vel": 54,
          "clef": "bass",
          "pitch": "A2"
        },
        {
          "midi": 38,
          "beat": 1,
          "dur": 1.67,
          "vel": 76,
          "clef": "bass",
          "pitch": "D2"
        },
        {
          "midi": 38,
          "beat": 1,
          "dur": 0.02,
          "vel": 119,
          "clef": "bass",
          "pitch": "D2"
        },
        {
          "midi": 44,
          "beat": 1,
          "dur": 0.02,
          "vel": 68,
          "clef": "bass",
          "acc": "#",
          "pitch": "G#2"
        },
        {
          "midi": 89,
          "beat": 1,
          "dur": 0.5,
          "vel": 83,
          "clef": "treble",
          "pitch": "F6"
        },
        {
          "midi": 50,
          "beat": 1.02,
          "dur": 0.95,
          "vel": 57,
          "clef": "bass",
          "pitch": "D3"
        },
        {
          "midi": 93,
          "beat": 1.33,
          "dur": 0.38,
          "vel": 79,
          "clef": "treble",
          "pitch": "A6"
        },
        {
          "midi": 38,
          "beat": 1.65,
          "dur": 0.02,
          "vel": 40,
          "clef": "bass",
          "pitch": "D2"
        },
        {
          "midi": 96,
          "beat": 1.67,
          "dur": 0.38,
          "vel": 85,
          "clef": "treble",
          "pitch": "C7"
        },
        {
          "midi": 53,
          "beat": 1.95,
          "dur": 0.95,
          "vel": 53,
          "clef": "bass",
          "pitch": "F3"
        },
        {
          "midi": 60,
          "beat": 1.95,
          "dur": 0.95,
          "vel": 51,
          "clef": "treble",
          "pitch": "C4"
        },
        {
          "midi": 50,
          "beat": 1.96,
          "dur": 0.95,
          "vel": 52,
          "clef": "bass",
          "pitch": "D3"
        },
        {
          "midi": 38,
          "beat": 2,
          "dur": 0.02,
          "vel": 117,
          "clef": "bass",
          "pitch": "D2"
        },
        {
          "midi": 40,
          "beat": 2,
          "dur": 1.67,
          "vel": 85,
          "clef": "bass",
          "pitch": "E2"
        },
        {
          "midi": 72,
          "beat": 2,
          "dur": 1.15,
          "vel": 116,
          "clef": "treble",
          "pitch": "C5"
        },
        {
          "midi": 95,
          "beat": 2,
          "dur": 0.7,
          "vel": 86,
          "clef": "treble",
          "pitch": "B6"
        },
        {
          "midi": 45,
          "beat": 2.02,
          "dur": 0.95,
          "vel": 54,
          "clef": "bass",
          "pitch": "A2"
        },
        {
          "midi": 72,
          "beat": 2.67,
          "dur": 1.33,
          "vel": 113,
          "clef": "treble",
          "pitch": "C5"
        },
        {
          "midi": 103,
          "beat": 2.67,
          "dur": 0.43,
          "vel": 87,
          "clef": "treble",
          "pitch": "G7"
        },
        {
          "midi": 60,
          "beat": 2.97,
          "dur": 0.95,
          "vel": 60,
          "clef": "treble",
          "pitch": "C4"
        },
        {
          "midi": 53,
          "beat": 2.98,
          "dur": 0.95,
          "vel": 60,
          "clef": "bass",
          "pitch": "F3"
        },
        {
          "midi": 38,
          "beat": 3,
          "dur": 0.02,
          "vel": 120,
          "clef": "bass",
          "pitch": "D2"
        },
        {
          "midi": 42,
          "beat": 3,
          "dur": 1,
          "vel": 79,
          "clef": "bass",
          "acc": "#",
          "pitch": "F#2"
        },
        {
          "midi": 44,
          "beat": 3,
          "dur": 0.02,
          "vel": 75,
          "clef": "bass",
          "acc": "#",
          "pitch": "G#2"
        },
        {
          "midi": 45,
          "beat": 3.02,
          "dur": 0.95,
          "vel": 55,
          "clef": "bass",
          "pitch": "A2"
        },
        {
          "midi": 50,
          "beat": 3.02,
          "dur": 0.95,
          "vel": 59,
          "clef": "bass",
          "pitch": "D3"
        },
        {
          "midi": 38,
          "beat": 3.65,
          "dur": 0.02,
          "vel": 41,
          "clef": "bass",
          "pitch": "D2"
        },
        {
          "midi": 43,
          "beat": 3.96,
          "dur": 0.04,
          "vel": 53,
          "clef": "bass",
          "pitch": "G2"
        }
      ]
    },
    {
      "_": "Treble: 4 notes, Bass: 28 notes",
      "number": 8,
      "notes": [
        {
          "midi": 38,
          "beat": 0,
          "dur": 0.02,
          "vel": 112,
          "clef": "bass",
          "pitch": "D2"
        },
        {
          "midi": 43,
          "beat": 0,
          "dur": 1.67,
          "vel": 81,
          "clef": "bass",
          "pitch": "G2"
        },
        {
          "midi": 50,
          "beat": 0,
          "dur": 0.95,
          "vel": 56,
          "clef": "bass",
          "pitch": "D3"
        },
        {
          "midi": 59,
          "beat": 0,
          "dur": 0.95,
          "vel": 60,
          "clef": "bass",
          "pitch": "B3"
        },
        {
          "midi": 71,
          "beat": 0,
          "dur": 3.45,
          "vel": 118,
          "clef": "treble",
          "pitch": "B4"
        },
        {
          "midi": 53,
          "beat": 0.01,
          "dur": 0.95,
          "vel": 56,
          "clef": "bass",
          "pitch": "F3"
        },
        {
          "midi": 53,
          "beat": 0.97,
          "dur": 0.95,
          "vel": 53,
          "clef": "bass",
          "pitch": "F3"
        },
        {
          "midi": 59,
          "beat": 0.98,
          "dur": 0.95,
          "vel": 59,
          "clef": "bass",
          "pitch": "B3"
        },
        {
          "midi": 38,
          "beat": 1,
          "dur": 0.02,
          "vel": 117,
          "clef": "bass",
          "pitch": "D2"
        },
        {
          "midi": 44,
          "beat": 1,
          "dur": 0.02,
          "vel": 68,
          "clef": "bass",
          "acc": "#",
          "pitch": "G#2"
        },
        {
          "midi": 45,
          "beat": 1,
          "dur": 1.67,
          "vel": 79,
          "clef": "bass",
          "pitch": "A2"
        },
        {
          "midi": 50,
          "beat": 1.02,
          "dur": 0.95,
          "vel": 57,
          "clef": "bass",
          "pitch": "D3"
        },
        {
          "midi": 43,
          "beat": 1.02,
          "dur": 0.95,
          "vel": 58,
          "clef": "bass",
          "pitch": "G2"
        },
        {
          "midi": 38,
          "beat": 1.65,
          "dur": 0.02,
          "vel": 37,
          "clef": "bass",
          "pitch": "D2"
        },
        {
          "midi": 38,
          "beat": 2,
          "dur": 0.02,
          "vel": 112,
          "clef": "bass",
          "pitch": "D2"
        },
        {
          "midi": 47,
          "beat": 2,
          "dur": 1.67,
          "vel": 82,
          "clef": "bass",
          "pitch": "B2"
        },
        {
          "midi": 59,
          "beat": 2,
          "dur": 0.95,
          "vel": 51,
          "clef": "bass",
          "pitch": "B3"
        },
        {
          "midi": 53,
          "beat": 2.01,
          "dur": 0.95,
          "vel": 57,
          "clef": "bass",
          "pitch": "F3"
        },
        {
          "midi": 43,
          "beat": 2.02,
          "dur": 0.95,
          "vel": 57,
          "clef": "bass",
          "pitch": "G2"
        },
        {
          "midi": 50,
          "beat": 2.02,
          "dur": 0.95,
          "vel": 55,
          "clef": "bass",
          "pitch": "D3"
        },
        {
          "midi": 69,
          "beat": 2.67,
          "dur": 0.57,
          "vel": 120,
          "clef": "treble",
          "pitch": "A4"
        },
        {
          "midi": 43,
          "beat": 2.97,
          "dur": 0.95,
          "vel": 56,
          "clef": "bass",
          "pitch": "G2"
        },
        {
          "midi": 50,
          "beat": 2.98,
          "dur": 0.95,
          "vel": 53,
          "clef": "bass",
          "pitch": "D3"
        },
        {
          "midi": 59,
          "beat": 2.98,
          "dur": 0.95,
          "vel": 53,
          "clef": "bass",
          "pitch": "B3"
        },
        {
          "midi": 38,
          "beat": 3,
          "dur": 0.02,
          "vel": 116,
          "clef": "bass",
          "pitch": "D2"
        },
        {
          "midi": 44,
          "beat": 3,
          "dur": 0.02,
          "vel": 67,
          "clef": "bass",
          "acc": "#",
          "pitch": "G#2"
        },
        {
          "midi": 50,
          "beat": 3,
          "dur": 1,
          "vel": 79,
          "clef": "bass",
          "pitch": "D3"
        },
        {
          "midi": 62,
          "beat": 3,
          "dur": 1,
          "vel": 115,
          "clef": "treble",
          "pitch": "D4"
        },
        {
          "midi": 53,
          "beat": 3.01,
          "dur": 0.95,
          "vel": 56,
          "clef": "bass",
          "pitch": "F3"
        },
        {
          "midi": 38,
          "beat": 3.65,
          "dur": 0.02,
          "vel": 44,
          "clef": "bass",
          "pitch": "D2"
        },
        {
          "midi": 64,
          "beat": 3.67,
          "dur": 0.33,
          "vel": 117,
          "clef": "treble",
          "pitch": "E4"
        },
        {
          "midi": 55,
          "beat": 3.97,
          "dur": 0.03,
          "vel": 55,
          "clef": "bass",
          "pitch": "G3"
        }
      ]
    },
    {
      "_": "Treble: 10 notes, Bass: 25 notes",
      "number": 9,
      "notes": [
        {
          "midi": 38,
          "beat": 0,
          "dur": 0.02,
          "vel": 114,
          "clef": "bass",
          "pitch": "D2"
        },
        {
          "midi": 48,
          "beat": 0,
          "dur": 1.67,
          "vel": 85,
          "clef": "bass",
          "pitch": "C3"
        },
        {
          "midi": 52,
          "beat": 0.01,
          "dur": 0.95,
          "vel": 51,
          "clef": "bass",
          "pitch": "E3"
        },
        {
          "midi": 60,
          "beat": 0.01,
          "dur": 0.95,
          "vel": 58,
          "clef": "treble",
          "pitch": "C4"
        },
        {
          "midi": 45,
          "beat": 0.02,
          "dur": 0.95,
          "vel": 57,
          "clef": "bass",
          "pitch": "A2"
        },
        {
          "midi": 90,
          "beat": 0.71,
          "dur": 0.42,
          "vel": 83,
          "clef": "treble",
          "acc": "#",
          "pitch": "F#6"
        },
        {
          "midi": 52,
          "beat": 0.98,
          "dur": 0.95,
          "vel": 58,
          "clef": "bass",
          "pitch": "E3"
        },
        {
          "midi": 55,
          "beat": 0.98,
          "dur": 0.95,
          "vel": 53,
          "clef": "bass",
          "pitch": "G3"
        },
        {
          "midi": 60,
          "beat": 0.99,
          "dur": 0.95,
          "vel": 52,
          "clef": "treble",
          "pitch": "C4"
        },
        {
          "midi": 36,
          "beat": 1,
          "dur": 1.67,
          "vel": 77,
          "clef": "bass",
          "pitch": "C2"
        },
        {
          "midi": 38,
          "beat": 1,
          "dur": 0.02,
          "vel": 118,
          "clef": "bass",
          "pitch": "D2"
        },
        {
          "midi": 44,
          "beat": 1,
          "dur": 0.02,
          "vel": 74,
          "clef": "bass",
          "acc": "#",
          "pitch": "G#2"
        },
        {
          "midi": 91,
          "beat": 1,
          "dur": 0.36,
          "vel": 86,
          "clef": "treble",
          "pitch": "G6"
        },
        {
          "midi": 45,
          "beat": 1.02,
          "dur": 0.95,
          "vel": 54,
          "clef": "bass",
          "pitch": "A2"
        },
        {
          "midi": 96,
          "beat": 1.33,
          "dur": 0.36,
          "vel": 87,
          "clef": "treble",
          "pitch": "C7"
        },
        {
          "midi": 38,
          "beat": 1.65,
          "dur": 0.02,
          "vel": 38,
          "clef": "bass",
          "pitch": "D2"
        },
        {
          "midi": 98,
          "beat": 1.67,
          "dur": 0.36,
          "vel": 84,
          "clef": "treble",
          "pitch": "D7"
        },
        {
          "midi": 58,
          "beat": 1.96,
          "dur": 0.95,
          "vel": 53,
          "clef": "bass",
          "acc": "#",
          "pitch": "A#3"
        },
        {
          "midi": 48,
          "beat": 1.98,
          "dur": 0.95,
          "vel": 55,
          "clef": "bass",
          "pitch": "C3"
        },
        {
          "midi": 52,
          "beat": 1.98,
          "dur": 0.95,
          "vel": 57,
          "clef": "bass",
          "pitch": "E3"
        },
        {
          "midi": 43,
          "beat": 1.98,
          "dur": 0.95,
          "vel": 53,
          "clef": "bass",
          "pitch": "G2"
        },
        {
          "midi": 38,
          "beat": 2,
          "dur": 0.02,
          "vel": 112,
          "clef": "bass",
          "pitch": "D2"
        },
        {
          "midi": 43,
          "beat": 2,
          "dur": 1.67,
          "vel": 81,
          "clef": "bass",
          "pitch": "G2"
        },
        {
          "midi": 103,
          "beat": 2,
          "dur": 0.7,
          "vel": 82,
          "clef": "treble",
          "pitch": "G7"
        },
        {
          "midi": 101,
          "beat": 2.61,
          "dur": 0.52,
          "vel": 84,
          "clef": "treble",
          "pitch": "F7"
        },
        {
          "midi": 38,
          "beat": 3,
          "dur": 0.02,
          "vel": 119,
          "clef": "bass",
          "pitch": "D2"
        },
        {
          "midi": 42,
          "beat": 3,
          "dur": 1,
          "vel": 78,
          "clef": "bass",
          "acc": "#",
          "pitch": "F#2"
        },
        {
          "midi": 43,
          "beat": 3,
          "dur": 0.95,
          "vel": 55,
          "clef": "bass",
          "pitch": "G2"
        },
        {
          "midi": 44,
          "beat": 3,
          "dur": 0.02,
          "vel": 75,
          "clef": "bass",
          "acc": "#",
          "pitch": "G#2"
        },
        {
          "midi": 100,
          "beat": 3,
          "dur": 0.52,
          "vel": 86,
          "clef": "treble",
          "pitch": "E7"
        },
        {
          "midi": 48,
          "beat": 3.01,
          "dur": 0.95,
          "vel": 51,
          "clef": "bass",
          "pitch": "C3"
        },
        {
          "midi": 52,
          "beat": 3.02,
          "dur": 0.95,
          "vel": 55,
          "clef": "bass",
          "pitch": "E3"
        },
        {
          "midi": 58,
          "beat": 3.02,
          "dur": 0.95,
          "vel": 57,
          "clef": "bass",
          "acc": "#",
          "pitch": "A#3"
        },
        {
          "midi": 97,
          "beat": 3.61,
          "dur": 0.39,
          "vel": 81,
          "clef": "treble",
          "acc": "#",
          "pitch": "C#7"
        },
        {
          "midi": 38,
          "beat": 3.65,
          "dur": 0.02,
          "vel": 36,
          "clef": "bass",
          "pitch": "D2"
        }
      ]
    },
    {
      "_": "Treble: 9 notes, Bass: 25 notes",
      "number": 10,
      "notes": [
        {
          "midi": 60,
          "beat": -0.01,
          "dur": 0.95,
          "vel": 51,
          "clef": "treble",
          "pitch": "C4"
        },
        {
          "midi": 38,
          "beat": 0,
          "dur": 0.02,
          "vel": 116,
          "clef": "bass",
          "pitch": "D2"
        },
        {
          "midi": 41,
          "beat": 0,
          "dur": 1.67,
          "vel": 83,
          "clef": "bass",
          "pitch": "F2"
        },
        {
          "midi": 69,
          "beat": 0,
          "dur": 1.15,
          "vel": 115,
          "clef": "treble",
          "pitch": "A4"
        },
        {
          "midi": 53,
          "beat": 0.01,
          "dur": 0.95,
          "vel": 55,
          "clef": "bass",
          "pitch": "F3"
        },
        {
          "midi": 45,
          "beat": 0.01,
          "dur": 0.95,
          "vel": 51,
          "clef": "bass",
          "pitch": "A2"
        },
        {
          "midi": 52,
          "beat": 0.02,
          "dur": 0.95,
          "vel": 58,
          "clef": "bass",
          "pitch": "E3"
        },
        {
          "midi": 53,
          "beat": 0.96,
          "dur": 0.95,
          "vel": 56,
          "clef": "bass",
          "pitch": "F3"
        },
        {
          "midi": 60,
          "beat": 0.97,
          "dur": 0.95,
          "vel": 52,
          "clef": "treble",
          "pitch": "C4"
        },
        {
          "midi": 38,
          "beat": 1,
          "dur": 0.02,
          "vel": 120,
          "clef": "bass",
          "pitch": "D2"
        },
        {
          "midi": 43,
          "beat": 1,
          "dur": 1.67,
          "vel": 76,
          "clef": "bass",
          "pitch": "G2"
        },
        {
          "midi": 44,
          "beat": 1,
          "dur": 0.02,
          "vel": 75,
          "clef": "bass",
          "acc": "#",
          "pitch": "G#2"
        },
        {
          "midi": 45,
          "beat": 1,
          "dur": 0.95,
          "vel": 52,
          "clef": "bass",
          "pitch": "A2"
        },
        {
          "midi": 67,
          "beat": 1,
          "dur": 1.15,
          "vel": 121,
          "clef": "treble",
          "pitch": "G4"
        },
        {
          "midi": 52,
          "beat": 1.02,
          "dur": 0.95,
          "vel": 57,
          "clef": "bass",
          "pitch": "E3"
        },
        {
          "midi": 38,
          "beat": 1.65,
          "dur": 0.02,
          "vel": 40,
          "clef": "bass",
          "pitch": "D2"
        },
        {
          "midi": 53,
          "beat": 1.96,
          "dur": 0.95,
          "vel": 59,
          "clef": "bass",
          "pitch": "F3"
        },
        {
          "midi": 52,
          "beat": 1.97,
          "dur": 0.95,
          "vel": 51,
          "clef": "bass",
          "pitch": "E3"
        },
        {
          "midi": 60,
          "beat": 1.98,
          "dur": 0.95,
          "vel": 54,
          "clef": "treble",
          "pitch": "C4"
        },
        {
          "midi": 45,
          "beat": 1.99,
          "dur": 0.95,
          "vel": 60,
          "clef": "bass",
          "pitch": "A2"
        },
        {
          "midi": 38,
          "beat": 2,
          "dur": 0.02,
          "vel": 119,
          "clef": "bass",
          "pitch": "D2"
        },
        {
          "midi": 45,
          "beat": 2,
          "dur": 1.67,
          "vel": 83,
          "clef": "bass",
          "pitch": "A2"
        },
        {
          "midi": 65,
          "beat": 2,
          "dur": 1.15,
          "vel": 119,
          "clef": "treble",
          "pitch": "F4"
        },
        {
          "midi": 45,
          "beat": 2.98,
          "dur": 0.95,
          "vel": 55,
          "clef": "bass",
          "pitch": "A2"
        },
        {
          "midi": 53,
          "beat": 2.99,
          "dur": 0.95,
          "vel": 51,
          "clef": "bass",
          "pitch": "F3"
        },
        {
          "midi": 38,
          "beat": 3,
          "dur": 0.02,
          "vel": 115,
          "clef": "bass",
          "pitch": "D2"
        },
        {
          "midi": 44,
          "beat": 3,
          "dur": 0.02,
          "vel": 71,
          "clef": "bass",
          "acc": "#",
          "pitch": "G#2"
        },
        {
          "midi": 48,
          "beat": 3,
          "dur": 1,
          "vel": 79,
          "clef": "bass",
          "pitch": "C3"
        },
        {
          "midi": 64,
          "beat": 3,
          "dur": 1,
          "vel": 121,
          "clef": "treble",
          "pitch": "E4"
        },
        {
          "midi": 60,
          "beat": 3.01,
          "dur": 0.95,
          "vel": 56,
          "clef": "treble",
          "pitch": "C4"
        },
        {
          "midi": 52,
          "beat": 3.02,
          "dur": 0.95,
          "vel": 56,
          "clef": "bass",
          "pitch": "E3"
        },
        {
          "midi": 38,
          "beat": 3.65,
          "dur": 0.02,
          "vel": 39,
          "clef": "bass",
          "pitch": "D2"
        },
        {
          "midi": 62,
          "beat": 3.67,
          "dur": 0.33,
          "vel": 119,
          "clef": "treble",
          "pitch": "D4"
        },
        {
          "midi": 53,
          "beat": 3.96,
          "dur": 0.04,
          "vel": 54,
          "clef": "bass",
          "pitch": "F3"
        }
      ]
    },
    {
      "_": "Treble: 7 notes, Bass: 25 notes",
      "number": 11,
      "notes": [
        {
          "midi": 47,
          "beat": -0.01,
          "dur": 0.95,
          "vel": 60,
          "clef": "bass",
          "pitch": "B2"
        },
        {
          "midi": 38,
          "beat": 0,
          "dur": 0.02,
          "vel": 120,
          "clef": "bass",
          "pitch": "D2"
        },
        {
          "midi": 47,
          "beat": 0,
          "dur": 1.67,
          "vel": 79,
          "clef": "bass",
          "pitch": "B2"
        },
        {
          "midi": 62,
          "beat": 0.02,
          "dur": 0.95,
          "vel": 54,
          "clef": "treble",
          "pitch": "D4"
        },
        {
          "midi": 57,
          "beat": 0.03,
          "dur": 0.95,
          "vel": 54,
          "clef": "bass",
          "pitch": "A3"
        },
        {
          "midi": 64,
          "beat": 0.67,
          "dur": 1.15,
          "vel": 119,
          "clef": "treble",
          "pitch": "E4"
        },
        {
          "midi": 47,
          "beat": 0.98,
          "dur": 0.95,
          "vel": 54,
          "clef": "bass",
          "pitch": "B2"
        },
        {
          "midi": 62,
          "beat": 0.98,
          "dur": 0.95,
          "vel": 53,
          "clef": "treble",
          "pitch": "D4"
        },
        {
          "midi": 38,
          "beat": 1,
          "dur": 0.02,
          "vel": 121,
          "clef": "bass",
          "pitch": "D2"
        },
        {
          "midi": 44,
          "beat": 1,
          "dur": 0.02,
          "vel": 68,
          "clef": "bass",
          "acc": "#",
          "pitch": "G#2"
        },
        {
          "midi": 46,
          "beat": 1,
          "dur": 1.67,
          "vel": 79,
          "clef": "bass",
          "acc": "#",
          "pitch": "A#2"
        },
        {
          "midi": 53,
          "beat": 1.01,
          "dur": 0.95,
          "vel": 55,
          "clef": "bass",
          "pitch": "F3"
        },
        {
          "midi": 57,
          "beat": 1.01,
          "dur": 0.95,
          "vel": 52,
          "clef": "bass",
          "pitch": "A3"
        },
        {
          "midi": 38,
          "beat": 1.65,
          "dur": 0.02,
          "vel": 45,
          "clef": "bass",
          "pitch": "D2"
        },
        {
          "midi": 65,
          "beat": 1.67,
          "dur": 1.15,
          "vel": 113,
          "clef": "treble",
          "pitch": "F4"
        },
        {
          "midi": 53,
          "beat": 1.98,
          "dur": 0.95,
          "vel": 52,
          "clef": "bass",
          "pitch": "F3"
        },
        {
          "midi": 57,
          "beat": 1.99,
          "dur": 0.95,
          "vel": 51,
          "clef": "bass",
          "pitch": "A3"
        },
        {
          "midi": 38,
          "beat": 2,
          "dur": 0.02,
          "vel": 114,
          "clef": "bass",
          "pitch": "D2"
        },
        {
          "midi": 45,
          "beat": 2,
          "dur": 1.67,
          "vel": 81,
          "clef": "bass",
          "pitch": "A2"
        },
        {
          "midi": 47,
          "beat": 2,
          "dur": 0.95,
          "vel": 60,
          "clef": "bass",
          "pitch": "B2"
        },
        {
          "midi": 62,
          "beat": 2.02,
          "dur": 0.95,
          "vel": 59,
          "clef": "treble",
          "pitch": "D4"
        },
        {
          "midi": 69,
          "beat": 2.67,
          "dur": 1.33,
          "vel": 119,
          "clef": "treble",
          "pitch": "A4"
        },
        {
          "midi": 53,
          "beat": 2.98,
          "dur": 0.95,
          "vel": 60,
          "clef": "bass",
          "pitch": "F3"
        },
        {
          "midi": 38,
          "beat": 3,
          "dur": 0.02,
          "vel": 121,
          "clef": "bass",
          "pitch": "D2"
        },
        {
          "midi": 41,
          "beat": 3,
          "dur": 1,
          "vel": 79,
          "clef": "bass",
          "pitch": "F2"
        },
        {
          "midi": 44,
          "beat": 3,
          "dur": 0.02,
          "vel": 74,
          "clef": "bass",
          "acc": "#",
          "pitch": "G#2"
        },
        {
          "midi": 57,
          "beat": 3.01,
          "dur": 0.95,
          "vel": 60,
          "clef": "bass",
          "pitch": "A3"
        },
        {
          "midi": 47,
          "beat": 3.02,
          "dur": 0.95,
          "vel": 57,
          "clef": "bass",
          "pitch": "B2"
        },
        {
          "midi": 62,
          "beat": 3.02,
          "dur": 0.95,
          "vel": 58,
          "clef": "treble",
          "pitch": "D4"
        },
        {
          "midi": 38,
          "beat": 3.65,
          "dur": 0.02,
          "vel": 43,
          "clef": "bass",
          "pitch": "D2"
        },
        {
          "midi": 47,
          "beat": 3.94,
          "dur": 0.06,
          "vel": 53,
          "clef": "bass",
          "pitch": "B2"
        },
        {
          "midi": 53,
          "beat": 3.96,
          "dur": 0.04,
          "vel": 59,
          "clef": "bass",
          "pitch": "F3"
        }
      ]
    },
    {
      "_": "Treble: 9 notes, Bass: 22 notes",
      "number": 12,
      "notes": [
        {
          "midi": 38,
          "beat": 0,
          "dur": 0.02,
          "vel": 114,
          "clef": "bass",
          "pitch": "D2"
        },
        {
          "midi": 40,
          "beat": 0,
          "dur": 1.67,
          "vel": 77,
          "clef": "bass",
          "pitch": "E2"
        },
        {
          "midi": 56,
          "beat": 0,
          "dur": 0.95,
          "vel": 60,
          "clef": "bass",
          "acc": "#",
          "pitch": "G#3"
        },
        {
          "midi": 62,
          "beat": 0.02,
          "dur": 0.95,
          "vel": 58,
          "clef": "treble",
          "pitch": "D4"
        },
        {
          "midi": 53,
          "beat": 0.94,
          "dur": 0.95,
          "vel": 53,
          "clef": "bass",
          "pitch": "F3"
        },
        {
          "midi": 47,
          "beat": 0.98,
          "dur": 0.95,
          "vel": 59,
          "clef": "bass",
          "pitch": "B2"
        },
        {
          "midi": 38,
          "beat": 1,
          "dur": 0.02,
          "vel": 116,
          "clef": "bass",
          "pitch": "D2"
        },
        {
          "midi": 40,
          "beat": 1,
          "dur": 1.67,
          "vel": 78,
          "clef": "bass",
          "pitch": "E2"
        },
        {
          "midi": 44,
          "beat": 1,
          "dur": 0.02,
          "vel": 67,
          "clef": "bass",
          "acc": "#",
          "pitch": "G#2"
        },
        {
          "midi": 56,
          "beat": 1,
          "dur": 0.95,
          "vel": 56,
          "clef": "bass",
          "acc": "#",
          "pitch": "G#3"
        },
        {
          "midi": 62,
          "beat": 1.02,
          "dur": 0.95,
          "vel": 56,
          "clef": "treble",
          "pitch": "D4"
        },
        {
          "midi": 38,
          "beat": 1.65,
          "dur": 0.02,
          "vel": 42,
          "clef": "bass",
          "pitch": "D2"
        },
        {
          "midi": 62,
          "beat": 1.97,
          "dur": 0.95,
          "vel": 51,
          "clef": "treble",
          "pitch": "D4"
        },
        {
          "midi": 56,
          "beat": 1.97,
          "dur": 0.95,
          "vel": 55,
          "clef": "bass",
          "acc": "#",
          "pitch": "G#3"
        },
        {
          "midi": 53,
          "beat": 1.98,
          "dur": 0.95,
          "vel": 58,
          "clef": "bass",
          "pitch": "F3"
        },
        {
          "midi": 38,
          "beat": 2,
          "dur": 0.02,
          "vel": 113,
          "clef": "bass",
          "pitch": "D2"
        },
        {
          "midi": 42,
          "beat": 2,
          "dur": 1.67,
          "vel": 78,
          "clef": "bass",
          "acc": "#",
          "pitch": "F#2"
        },
        {
          "midi": 68,
          "beat": 2,
          "dur": 1.15,
          "vel": 121,
          "clef": "treble",
          "acc": "#",
          "pitch": "G#4"
        },
        {
          "midi": 47,
          "beat": 2.02,
          "dur": 0.95,
          "vel": 58,
          "clef": "bass",
          "pitch": "B2"
        },
        {
          "midi": 65,
          "beat": 2.67,
          "dur": 0.57,
          "vel": 121,
          "clef": "treble",
          "pitch": "F4"
        },
        {
          "midi": 53,
          "beat": 2.94,
          "dur": 0.95,
          "vel": 52,
          "clef": "bass",
          "pitch": "F3"
        },
        {
          "midi": 56,
          "beat": 2.96,
          "dur": 0.95,
          "vel": 51,
          "clef": "bass",
          "acc": "#",
          "pitch": "G#3"
        },
        {
          "midi": 38,
          "beat": 3,
          "dur": 0.02,
          "vel": 119,
          "clef": "bass",
          "pitch": "D2"
        },
        {
          "midi": 44,
          "beat": 3,
          "dur": 1,
          "vel": 83,
          "clef": "bass",
          "acc": "#",
          "pitch": "G#2"
        },
        {
          "midi": 44,
          "beat": 3,
          "dur": 0.02,
          "vel": 73,
          "clef": "bass",
          "acc": "#",
          "pitch": "G#2"
        },
        {
          "midi": 64,
          "beat": 3,
          "dur": 1,
          "vel": 115,
          "clef": "treble",
          "pitch": "E4"
        },
        {
          "midi": 62,
          "beat": 3.02,
          "dur": 0.95,
          "vel": 56,
          "clef": "treble",
          "pitch": "D4"
        },
        {
          "midi": 47,
          "beat": 3.02,
          "dur": 0.95,
          "vel": 59,
          "clef": "bass",
          "pitch": "B2"
        },
        {
          "midi": 38,
          "beat": 3.65,
          "dur": 0.02,
          "vel": 37,
          "clef": "bass",
          "pitch": "D2"
        },
        {
          "midi": 62,
          "beat": 3.67,
          "dur": 0.33,
          "vel": 116,
          "clef": "treble",
          "pitch": "D4"
        },
        {
          "midi": 60,
          "beat": 3.95,
          "dur": 0.05,
          "vel": 53,
          "clef": "treble",
          "pitch": "C4"
        }
      ]
    },
    {
      "_": "Treble: 6 notes, Bass: 26 notes",
      "number": 13,
      "notes": [
        {
          "midi": 38,
          "beat": 0,
          "dur": 0.02,
          "vel": 119,
          "clef": "bass",
          "pitch": "D2"
        },
        {
          "midi": 45,
          "beat": 0,
          "dur": 1.67,
          "vel": 79,
          "clef": "bass",
          "pitch": "A2"
        },
        {
          "midi": 52,
          "beat": 0,
          "dur": 0.95,
          "vel": 60,
          "clef": "bass",
          "pitch": "E3"
        },
        {
          "midi": 60,
          "beat": 0,
          "dur": 3.45,
          "vel": 120,
          "clef": "treble",
          "pitch": "C4"
        },
        {
          "midi": 45,
          "beat": 0.02,
          "dur": 0.95,
          "vel": 54,
          "clef": "bass",
          "pitch": "A2"
        },
        {
          "midi": 55,
          "beat": 0.02,
          "dur": 0.95,
          "vel": 58,
          "clef": "bass",
          "pitch": "G3"
        },
        {
          "midi": 33,
          "beat": 1,
          "dur": 1.67,
          "vel": 77,
          "clef": "bass",
          "pitch": "A1"
        },
        {
          "midi": 38,
          "beat": 1,
          "dur": 0.02,
          "vel": 115,
          "clef": "bass",
          "pitch": "D2"
        },
        {
          "midi": 44,
          "beat": 1,
          "dur": 0.02,
          "vel": 73,
          "clef": "bass",
          "acc": "#",
          "pitch": "G#2"
        },
        {
          "midi": 52,
          "beat": 1,
          "dur": 0.95,
          "vel": 52,
          "clef": "bass",
          "pitch": "E3"
        },
        {
          "midi": 60,
          "beat": 1.01,
          "dur": 0.95,
          "vel": 58,
          "clef": "treble",
          "pitch": "C4"
        },
        {
          "midi": 45,
          "beat": 1.02,
          "dur": 0.95,
          "vel": 54,
          "clef": "bass",
          "pitch": "A2"
        },
        {
          "midi": 55,
          "beat": 1.02,
          "dur": 0.95,
          "vel": 57,
          "clef": "bass",
          "pitch": "G3"
        },
        {
          "midi": 38,
          "beat": 1.65,
          "dur": 0.02,
          "vel": 36,
          "clef": "bass",
          "pitch": "D2"
        },
        {
          "midi": 46,
          "beat": 1.98,
          "dur": 0.95,
          "vel": 54,
          "clef": "bass",
          "acc": "#",
          "pitch": "A#2"
        },
        {
          "midi": 55,
          "beat": 1.98,
          "dur": 0.95,
          "vel": 53,
          "clef": "bass",
          "pitch": "G3"
        },
        {
          "midi": 37,
          "beat": 2,
          "dur": 1.67,
          "vel": 77,
          "clef": "bass",
          "acc": "#",
          "pitch": "C#2"
        },
        {
          "midi": 38,
          "beat": 2,
          "dur": 0.02,
          "vel": 118,
          "clef": "bass",
          "pitch": "D2"
        },
        {
          "midi": 61,
          "beat": 2,
          "dur": 0.95,
          "vel": 54,
          "clef": "treble",
          "acc": "#",
          "pitch": "C#4"
        },
        {
          "midi": 52,
          "beat": 2.02,
          "dur": 0.95,
          "vel": 54,
          "clef": "bass",
          "pitch": "E3"
        },
        {
          "midi": 46,
          "beat": 2.97,
          "dur": 0.95,
          "vel": 51,
          "clef": "bass",
          "acc": "#",
          "pitch": "A#2"
        },
        {
          "midi": 55,
          "beat": 2.99,
          "dur": 0.95,
          "vel": 52,
          "clef": "bass",
          "pitch": "G3"
        },
        {
          "midi": 37,
          "beat": 3,
          "dur": 1,
          "vel": 81,
          "clef": "bass",
          "acc": "#",
          "pitch": "C#2"
        },
        {
          "midi": 38,
          "beat": 3,
          "dur": 0.02,
          "vel": 115,
          "clef": "bass",
          "pitch": "D2"
        },
        {
          "midi": 44,
          "beat": 3,
          "dur": 0.02,
          "vel": 75,
          "clef": "bass",
          "acc": "#",
          "pitch": "G#2"
        },
        {
          "midi": 52,
          "beat": 3,
          "dur": 0.95,
          "vel": 52,
          "clef": "bass",
          "pitch": "E3"
        },
        {
          "midi": 61,
          "beat": 3.01,
          "dur": 0.95,
          "vel": 51,
          "clef": "treble",
          "acc": "#",
          "pitch": "C#4"
        },
        {
          "midi": 38,
          "beat": 3.65,
          "dur": 0.02,
          "vel": 44,
          "clef": "bass",
          "pitch": "D2"
        },
        {
          "midi": 61,
          "beat": 3.67,
          "dur": 0.33,
          "vel": 120,
          "clef": "treble",
          "acc": "#",
          "pitch": "C#4"
        },
        {
          "midi": 62,
          "beat": 3.94,
          "dur": 0.06,
          "vel": 53,
          "clef": "treble",
          "pitch": "D4"
        },
        {
          "midi": 53,
          "beat": 3.96,
          "dur": 0.04,
          "vel": 58,
          "clef": "bass",
          "pitch": "F3"
        },
        {
          "midi": 57,
          "beat": 3.97,
          "dur": 0.03,
          "vel": 51,
          "clef": "bass",
          "pitch": "A3"
        }
      ]
    },
    {
      "_": "Treble: 13 notes, Bass: 24 notes",
      "number": 14,
      "notes": [
        {
          "midi": 38,
          "beat": 0,
          "dur": 1.67,
          "vel": 83,
          "clef": "bass",
          "pitch": "D2"
        },
        {
          "midi": 38,
          "beat": 0,
          "dur": 0.02,
          "vel": 120,
          "clef": "bass",
          "pitch": "D2"
        },
        {
          "midi": 62,
          "beat": 0,
          "dur": 0.57,
          "vel": 120,
          "clef": "treble",
          "pitch": "D4"
        },
        {
          "midi": 48,
          "beat": 0.02,
          "dur": 0.95,
          "vel": 58,
          "clef": "bass",
          "pitch": "C3"
        },
        {
          "midi": 69,
          "beat": 0.33,
          "dur": 0.57,
          "vel": 119,
          "clef": "treble",
          "pitch": "A4"
        },
        {
          "midi": 62,
          "beat": 0.94,
          "dur": 0.95,
          "vel": 53,
          "clef": "treble",
          "pitch": "D4"
        },
        {
          "midi": 53,
          "beat": 0.95,
          "dur": 0.95,
          "vel": 53,
          "clef": "bass",
          "pitch": "F3"
        },
        {
          "midi": 38,
          "beat": 1,
          "dur": 0.02,
          "vel": 119,
          "clef": "bass",
          "pitch": "D2"
        },
        {
          "midi": 40,
          "beat": 1,
          "dur": 1.67,
          "vel": 77,
          "clef": "bass",
          "pitch": "E2"
        },
        {
          "midi": 44,
          "beat": 1,
          "dur": 0.02,
          "vel": 71,
          "clef": "bass",
          "acc": "#",
          "pitch": "G#2"
        },
        {
          "midi": 69,
          "beat": 1,
          "dur": 3,
          "vel": 113,
          "clef": "treble",
          "pitch": "A4"
        },
        {
          "midi": 57,
          "beat": 1.01,
          "dur": 0.95,
          "vel": 60,
          "clef": "bass",
          "pitch": "A3"
        },
        {
          "midi": 48,
          "beat": 1.02,
          "dur": 0.95,
          "vel": 54,
          "clef": "bass",
          "pitch": "C3"
        },
        {
          "midi": 38,
          "beat": 1.65,
          "dur": 0.02,
          "vel": 45,
          "clef": "bass",
          "pitch": "D2"
        },
        {
          "midi": 96,
          "beat": 1.67,
          "dur": 0.27,
          "vel": 80,
          "clef": "treble",
          "pitch": "C7"
        },
        {
          "midi": 94,
          "beat": 1.83,
          "dur": 0.27,
          "vel": 80,
          "clef": "treble",
          "acc": "#",
          "pitch": "A#6"
        },
        {
          "midi": 53,
          "beat": 1.98,
          "dur": 0.95,
          "vel": 54,
          "clef": "bass",
          "pitch": "F3"
        },
        {
          "midi": 62,
          "beat": 1.98,
          "dur": 0.95,
          "vel": 52,
          "clef": "treble",
          "pitch": "D4"
        },
        {
          "midi": 38,
          "beat": 2,
          "dur": 0.02,
          "vel": 117,
          "clef": "bass",
          "pitch": "D2"
        },
        {
          "midi": 41,
          "beat": 2,
          "dur": 1.67,
          "vel": 85,
          "clef": "bass",
          "pitch": "F2"
        },
        {
          "midi": 48,
          "beat": 2,
          "dur": 0.95,
          "vel": 58,
          "clef": "bass",
          "pitch": "C3"
        },
        {
          "midi": 93,
          "beat": 2,
          "dur": 1.13,
          "vel": 87,
          "clef": "treble",
          "pitch": "A6"
        },
        {
          "midi": 57,
          "beat": 2.03,
          "dur": 0.95,
          "vel": 57,
          "clef": "bass",
          "pitch": "A3"
        },
        {
          "midi": 87,
          "beat": 2.67,
          "dur": 0.57,
          "vel": 88,
          "clef": "treble",
          "acc": "#",
          "pitch": "D#6"
        },
        {
          "midi": 53,
          "beat": 2.97,
          "dur": 0.95,
          "vel": 53,
          "clef": "bass",
          "pitch": "F3"
        },
        {
          "midi": 38,
          "beat": 3,
          "dur": 0.02,
          "vel": 114,
          "clef": "bass",
          "pitch": "D2"
        },
        {
          "midi": 42,
          "beat": 3,
          "dur": 1,
          "vel": 82,
          "clef": "bass",
          "acc": "#",
          "pitch": "F#2"
        },
        {
          "midi": 44,
          "beat": 3,
          "dur": 0.02,
          "vel": 70,
          "clef": "bass",
          "acc": "#",
          "pitch": "G#2"
        },
        {
          "midi": 88,
          "beat": 3,
          "dur": 1,
          "vel": 88,
          "clef": "treble",
          "pitch": "E6"
        },
        {
          "midi": 48,
          "beat": 3.02,
          "dur": 0.95,
          "vel": 54,
          "clef": "bass",
          "pitch": "C3"
        },
        {
          "midi": 62,
          "beat": 3.02,
          "dur": 0.95,
          "vel": 56,
          "clef": "treble",
          "pitch": "D4"
        },
        {
          "midi": 57,
          "beat": 3.03,
          "dur": 0.95,
          "vel": 57,
          "clef": "bass",
          "pitch": "A3"
        },
        {
          "midi": 38,
          "beat": 3.65,
          "dur": 0.02,
          "vel": 42,
          "clef": "bass",
          "pitch": "D2"
        },
        {
          "midi": 91,
          "beat": 3.71,
          "dur": 0.29,
          "vel": 85,
          "clef": "treble",
          "pitch": "G6"
        },
        {
          "midi": 53,
          "beat": 3.92,
          "dur": 0.08,
          "vel": 53,
          "clef": "bass",
          "pitch": "F3"
        },
        {
          "midi": 62,
          "beat": 3.96,
          "dur": 0.04,
          "vel": 60,
          "clef": "treble",
          "pitch": "D4"
        },
        {
          "midi": 57,
          "beat": 3.99,
          "dur": 0.01,
          "vel": 53,
          "clef": "bass",
          "pitch": "A3"
        }
      ]
    },
    {
      "_": "Treble: 6 notes, Bass: 24 notes",
      "number": 15,
      "notes": [
        {
          "midi": 38,
          "beat": 0,
          "dur": 0.02,
          "vel": 114,
          "clef": "bass",
          "pitch": "D2"
        },
        {
          "midi": 43,
          "beat": 0,
          "dur": 1.67,
          "vel": 83,
          "clef": "bass",
          "pitch": "G2"
        },
        {
          "midi": 47,
          "beat": 0.01,
          "dur": 0.95,
          "vel": 51,
          "clef": "bass",
          "pitch": "B2"
        },
        {
          "midi": 47,
          "beat": 0.98,
          "dur": 0.95,
          "vel": 57,
          "clef": "bass",
          "pitch": "B2"
        },
        {
          "midi": 31,
          "beat": 1,
          "dur": 1.67,
          "vel": 83,
          "clef": "bass",
          "pitch": "G1"
        },
        {
          "midi": 38,
          "beat": 1,
          "dur": 0.02,
          "vel": 114,
          "clef": "bass",
          "pitch": "D2"
        },
        {
          "midi": 44,
          "beat": 1,
          "dur": 0.02,
          "vel": 68,
          "clef": "bass",
          "acc": "#",
          "pitch": "G#2"
        },
        {
          "midi": 62,
          "beat": 1,
          "dur": 0.95,
          "vel": 55,
          "clef": "treble",
          "pitch": "D4"
        },
        {
          "midi": 53,
          "beat": 1.01,
          "dur": 0.95,
          "vel": 55,
          "clef": "bass",
          "pitch": "F3"
        },
        {
          "midi": 57,
          "beat": 1.03,
          "dur": 0.95,
          "vel": 55,
          "clef": "bass",
          "pitch": "A3"
        },
        {
          "midi": 38,
          "beat": 1.65,
          "dur": 0.02,
          "vel": 44,
          "clef": "bass",
          "pitch": "D2"
        },
        {
          "midi": 72,
          "beat": 1.67,
          "dur": 2.3,
          "vel": 115,
          "clef": "treble",
          "pitch": "C5"
        },
        {
          "midi": 62,
          "beat": 1.96,
          "dur": 0.95,
          "vel": 60,
          "clef": "treble",
          "pitch": "D4"
        },
        {
          "midi": 53,
          "beat": 1.98,
          "dur": 0.95,
          "vel": 60,
          "clef": "bass",
          "pitch": "F3"
        },
        {
          "midi": 33,
          "beat": 2,
          "dur": 1.67,
          "vel": 85,
          "clef": "bass",
          "pitch": "A1"
        },
        {
          "midi": 38,
          "beat": 2,
          "dur": 0.02,
          "vel": 115,
          "clef": "bass",
          "pitch": "D2"
        },
        {
          "midi": 47,
          "beat": 2,
          "dur": 0.95,
          "vel": 52,
          "clef": "bass",
          "pitch": "B2"
        },
        {
          "midi": 57,
          "beat": 2.02,
          "dur": 0.95,
          "vel": 54,
          "clef": "bass",
          "pitch": "A3"
        },
        {
          "midi": 57,
          "beat": 2.95,
          "dur": 0.95,
          "vel": 53,
          "clef": "bass",
          "pitch": "A3"
        },
        {
          "midi": 47,
          "beat": 2.98,
          "dur": 0.95,
          "vel": 54,
          "clef": "bass",
          "pitch": "B2"
        },
        {
          "midi": 62,
          "beat": 2.98,
          "dur": 0.95,
          "vel": 58,
          "clef": "treble",
          "pitch": "D4"
        },
        {
          "midi": 35,
          "beat": 3,
          "dur": 1,
          "vel": 80,
          "clef": "bass",
          "pitch": "B1"
        },
        {
          "midi": 38,
          "beat": 3,
          "dur": 0.02,
          "vel": 120,
          "clef": "bass",
          "pitch": "D2"
        },
        {
          "midi": 44,
          "beat": 3,
          "dur": 0.02,
          "vel": 72,
          "clef": "bass",
          "acc": "#",
          "pitch": "G#2"
        },
        {
          "midi": 71,
          "beat": 3,
          "dur": 1,
          "vel": 113,
          "clef": "treble",
          "pitch": "B4"
        },
        {
          "midi": 53,
          "beat": 3.01,
          "dur": 0.95,
          "vel": 59,
          "clef": "bass",
          "pitch": "F3"
        },
        {
          "midi": 38,
          "beat": 3.65,
          "dur": 0.02,
          "vel": 40,
          "clef": "bass",
          "pitch": "D2"
        },
        {
          "midi": 67,
          "beat": 3.67,
          "dur": 0.33,
          "vel": 112,
          "clef": "treble",
          "pitch": "G4"
        },
        {
          "midi": 47,
          "beat": 3.94,
          "dur": 0.06,
          "vel": 53,
          "clef": "bass",
          "pitch": "B2"
        },
        {
          "midi": 55,
          "beat": 3.98,
          "dur": 0.02,
          "vel": 53,
          "clef": "bass",
          "pitch": "G3"
        }
      ]
    },
    {
      "_": "Treble: 10 notes, Bass: 25 notes",
      "number": 16,
      "notes": [
        {
          "midi": 36,
          "beat": 0,
          "dur": 1.67,
          "vel": 82,
          "clef": "bass",
          "pitch": "C2"
        },
        {
          "midi": 38,
          "beat": 0,
          "dur": 0.02,
          "vel": 115,
          "clef": "bass",
          "pitch": "D2"
        },
        {
          "midi": 62,
          "beat": 0,
          "dur": 0.95,
          "vel": 60,
          "clef": "treble",
          "pitch": "D4"
        },
        {
          "midi": 52,
          "beat": 0,
          "dur": 0.95,
          "vel": 51,
          "clef": "bass",
          "pitch": "E3"
        },
        {
          "midi": 55,
          "beat": 0.96,
          "dur": 0.95,
          "vel": 60,
          "clef": "bass",
          "pitch": "G3"
        },
        {
          "midi": 47,
          "beat": 0.98,
          "dur": 0.95,
          "vel": 55,
          "clef": "bass",
          "pitch": "B2"
        },
        {
          "midi": 62,
          "beat": 0.98,
          "dur": 0.95,
          "vel": 57,
          "clef": "treble",
          "pitch": "D4"
        },
        {
          "midi": 52,
          "beat": 0.98,
          "dur": 0.95,
          "vel": 53,
          "clef": "bass",
          "pitch": "E3"
        },
        {
          "midi": 36,
          "beat": 1,
          "dur": 1.09,
          "vel": 83,
          "clef": "bass",
          "pitch": "C2"
        },
        {
          "midi": 38,
          "beat": 1,
          "dur": 0.02,
          "vel": 113,
          "clef": "bass",
          "pitch": "D2"
        },
        {
          "midi": 44,
          "beat": 1,
          "dur": 0.02,
          "vel": 72,
          "clef": "bass",
          "acc": "#",
          "pitch": "G#2"
        },
        {
          "midi": 38,
          "beat": 1.65,
          "dur": 0.02,
          "vel": 43,
          "clef": "bass",
          "pitch": "D2"
        },
        {
          "midi": 36,
          "beat": 1.67,
          "dur": 0.52,
          "vel": 76,
          "clef": "bass",
          "pitch": "C2"
        },
        {
          "midi": 88,
          "beat": 1.71,
          "dur": 0.36,
          "vel": 80,
          "clef": "treble",
          "pitch": "E6"
        },
        {
          "midi": 55,
          "beat": 1.98,
          "dur": 0.95,
          "vel": 59,
          "clef": "bass",
          "pitch": "G3"
        },
        {
          "midi": 91,
          "beat": 1.99,
          "dur": 0.52,
          "vel": 83,
          "clef": "treble",
          "pitch": "G6"
        },
        {
          "midi": 52,
          "beat": 1.99,
          "dur": 0.95,
          "vel": 52,
          "clef": "bass",
          "pitch": "E3"
        },
        {
          "midi": 38,
          "beat": 2,
          "dur": 0.02,
          "vel": 112,
          "clef": "bass",
          "pitch": "D2"
        },
        {
          "midi": 41,
          "beat": 2,
          "dur": 1.67,
          "vel": 80,
          "clef": "bass",
          "pitch": "F2"
        },
        {
          "midi": 60,
          "beat": 2.01,
          "dur": 0.95,
          "vel": 56,
          "clef": "treble",
          "pitch": "C4"
        },
        {
          "midi": 45,
          "beat": 2.02,
          "dur": 0.95,
          "vel": 59,
          "clef": "bass",
          "pitch": "A2"
        },
        {
          "midi": 95,
          "beat": 2.69,
          "dur": 0.45,
          "vel": 81,
          "clef": "treble",
          "pitch": "B6"
        },
        {
          "midi": 91,
          "beat": 2.98,
          "dur": 1.02,
          "vel": 85,
          "clef": "treble",
          "pitch": "G6"
        },
        {
          "midi": 38,
          "beat": 3,
          "dur": 0.02,
          "vel": 117,
          "clef": "bass",
          "pitch": "D2"
        },
        {
          "midi": 41,
          "beat": 3,
          "dur": 1,
          "vel": 82,
          "clef": "bass",
          "pitch": "F2"
        },
        {
          "midi": 44,
          "beat": 3,
          "dur": 0.02,
          "vel": 69,
          "clef": "bass",
          "acc": "#",
          "pitch": "G#2"
        },
        {
          "midi": 52,
          "beat": 3,
          "dur": 0.95,
          "vel": 56,
          "clef": "bass",
          "pitch": "E3"
        },
        {
          "midi": 55,
          "beat": 3,
          "dur": 0.95,
          "vel": 55,
          "clef": "bass",
          "pitch": "G3"
        },
        {
          "midi": 60,
          "beat": 3.01,
          "dur": 0.95,
          "vel": 59,
          "clef": "treble",
          "pitch": "C4"
        },
        {
          "midi": 45,
          "beat": 3.02,
          "dur": 0.95,
          "vel": 54,
          "clef": "bass",
          "pitch": "A2"
        },
        {
          "midi": 38,
          "beat": 3.65,
          "dur": 0.02,
          "vel": 39,
          "clef": "bass",
          "pitch": "D2"
        },
        {
          "midi": 88,
          "beat": 3.71,
          "dur": 0.29,
          "vel": 81,
          "clef": "treble",
          "pitch": "E6"
        },
        {
          "midi": 94,
          "beat": 3.96,
          "dur": 0.04,
          "vel": 88,
          "clef": "treble",
          "acc": "#",
          "pitch": "A#6"
        },
        {
          "midi": 59,
          "beat": 3.97,
          "dur": 0.03,
          "vel": 51,
          "clef": "bass",
          "pitch": "B3"
        },
        {
          "midi": 52,
          "beat": 3.98,
          "dur": 0.02,
          "vel": 54,
          "clef": "bass",
          "pitch": "E3"
        }
      ]
    },
    {
      "_": "Treble: 10 notes, Bass: 27 notes",
      "number": 17,
      "notes": [
        {
          "midi": 38,
          "beat": 0,
          "dur": 0.02,
          "vel": 116,
          "clef": "bass",
          "pitch": "D2"
        },
        {
          "midi": 40,
          "beat": 0,
          "dur": 1.67,
          "vel": 84,
          "clef": "bass",
          "pitch": "E2"
        },
        {
          "midi": 43,
          "beat": 0.02,
          "dur": 0.95,
          "vel": 57,
          "clef": "bass",
          "pitch": "G2"
        },
        {
          "midi": 47,
          "beat": 0.02,
          "dur": 0.95,
          "vel": 59,
          "clef": "bass",
          "pitch": "B2"
        },
        {
          "midi": 95,
          "beat": 0.05,
          "dur": 1.18,
          "vel": 86,
          "clef": "treble",
          "pitch": "B6"
        },
        {
          "midi": 94,
          "beat": 0.96,
          "dur": 0.13,
          "vel": 83,
          "clef": "treble",
          "acc": "#",
          "pitch": "A#6"
        },
        {
          "midi": 59,
          "beat": 0.97,
          "dur": 0.95,
          "vel": 56,
          "clef": "bass",
          "pitch": "B3"
        },
        {
          "midi": 43,
          "beat": 0.98,
          "dur": 0.95,
          "vel": 56,
          "clef": "bass",
          "pitch": "G2"
        },
        {
          "midi": 47,
          "beat": 0.98,
          "dur": 0.95,
          "vel": 57,
          "clef": "bass",
          "pitch": "B2"
        },
        {
          "midi": 28,
          "beat": 1,
          "dur": 1.67,
          "vel": 82,
          "clef": "bass",
          "pitch": "E1"
        },
        {
          "midi": 38,
          "beat": 1,
          "dur": 0.02,
          "vel": 116,
          "clef": "bass",
          "pitch": "D2"
        },
        {
          "midi": 44,
          "beat": 1,
          "dur": 0.02,
          "vel": 73,
          "clef": "bass",
          "acc": "#",
          "pitch": "G#2"
        },
        {
          "midi": 52,
          "beat": 1,
          "dur": 0.95,
          "vel": 60,
          "clef": "bass",
          "pitch": "E3"
        },
        {
          "midi": 95,
          "beat": 1.05,
          "dur": 1.18,
          "vel": 81,
          "clef": "treble",
          "pitch": "B6"
        },
        {
          "midi": 38,
          "beat": 1.65,
          "dur": 0.02,
          "vel": 40,
          "clef": "bass",
          "pitch": "D2"
        },
        {
          "midi": 61,
          "beat": 1.97,
          "dur": 0.95,
          "vel": 51,
          "clef": "treble",
          "acc": "#",
          "pitch": "C#4"
        },
        {
          "midi": 52,
          "beat": 1.98,
          "dur": 0.95,
          "vel": 53,
          "clef": "bass",
          "pitch": "E3"
        },
        {
          "midi": 46,
          "beat": 1.99,
          "dur": 0.95,
          "vel": 60,
          "clef": "bass",
          "acc": "#",
          "pitch": "A#2"
        },
        {
          "midi": 33,
          "beat": 2,
          "dur": 1.67,
          "vel": 76,
          "clef": "bass",
          "pitch": "A1"
        },
        {
          "midi": 38,
          "beat": 2,
          "dur": 0.02,
          "vel": 115,
          "clef": "bass",
          "pitch": "D2"
        },
        {
          "midi": 95,
          "beat": 2,
          "dur": 0.36,
          "vel": 84,
          "clef": "treble",
          "pitch": "B6"
        },
        {
          "midi": 55,
          "beat": 2.01,
          "dur": 0.95,
          "vel": 51,
          "clef": "bass",
          "pitch": "G3"
        },
        {
          "midi": 93,
          "beat": 2.25,
          "dur": 1.22,
          "vel": 80,
          "clef": "treble",
          "pitch": "A6"
        },
        {
          "midi": 46,
          "beat": 2.96,
          "dur": 0.95,
          "vel": 53,
          "clef": "bass",
          "acc": "#",
          "pitch": "A#2"
        },
        {
          "midi": 61,
          "beat": 2.98,
          "dur": 0.95,
          "vel": 55,
          "clef": "treble",
          "acc": "#",
          "pitch": "C#4"
        },
        {
          "midi": 33,
          "beat": 3,
          "dur": 1,
          "vel": 77,
          "clef": "bass",
          "pitch": "A1"
        },
        {
          "midi": 38,
          "beat": 3,
          "dur": 0.02,
          "vel": 121,
          "clef": "bass",
          "pitch": "D2"
        },
        {
          "midi": 44,
          "beat": 3,
          "dur": 0.02,
          "vel": 74,
          "clef": "bass",
          "acc": "#",
          "pitch": "G#2"
        },
        {
          "midi": 52,
          "beat": 3,
          "dur": 0.95,
          "vel": 54,
          "clef": "bass",
          "pitch": "E3"
        },
        {
          "midi": 91,
          "beat": 3,
          "dur": 1,
          "vel": 86,
          "clef": "treble",
          "pitch": "G6"
        },
        {
          "midi": 55,
          "beat": 3.02,
          "dur": 0.95,
          "vel": 59,
          "clef": "bass",
          "pitch": "G3"
        },
        {
          "midi": 38,
          "beat": 3.65,
          "dur": 0.02,
          "vel": 36,
          "clef": "bass",
          "pitch": "D2"
        },
        {
          "midi": 59,
          "beat": 3.67,
          "dur": 0.33,
          "vel": 113,
          "clef": "bass",
          "pitch": "B3"
        },
        {
          "midi": 93,
          "beat": 3.67,
          "dur": 0.33,
          "vel": 80,
          "clef": "treble",
          "pitch": "A6"
        },
        {
          "midi": 48,
          "beat": 3.97,
          "dur": 0.03,
          "vel": 56,
          "clef": "bass",
          "pitch": "C3"
        },
        {
          "midi": 62,
          "beat": 3.98,
          "dur": 0.02,
          "vel": 53,
          "clef": "treble",
          "pitch": "D4"
        },
        {
          "midi": 57,
          "beat": 3.99,
          "dur": 0.01,
          "vel": 53,
          "clef": "bass",
          "pitch": "A3"
        }
      ]
    },
    {
      "_": "Treble: 11 notes, Bass: 30 notes",
      "number": 18,
      "notes": [
        {
          "midi": 53,
          "beat": -0.01,
          "dur": 0.95,
          "vel": 51,
          "clef": "bass",
          "pitch": "F3"
        },
        {
          "midi": 38,
          "beat": 0,
          "dur": 1.67,
          "vel": 83,
          "clef": "bass",
          "pitch": "D2"
        },
        {
          "midi": 38,
          "beat": 0,
          "dur": 0.02,
          "vel": 118,
          "clef": "bass",
          "pitch": "D2"
        },
        {
          "midi": 60,
          "beat": 0,
          "dur": 0.57,
          "vel": 117,
          "clef": "treble",
          "pitch": "C4"
        },
        {
          "midi": 65,
          "beat": 0.33,
          "dur": 0.57,
          "vel": 118,
          "clef": "treble",
          "pitch": "F4"
        },
        {
          "midi": 34,
          "beat": 0.67,
          "dur": 0.53,
          "vel": 85,
          "clef": "bass",
          "acc": "#",
          "pitch": "A#1"
        },
        {
          "midi": 62,
          "beat": 0.97,
          "dur": 0.95,
          "vel": 51,
          "clef": "treble",
          "pitch": "D4"
        },
        {
          "midi": 53,
          "beat": 0.98,
          "dur": 0.95,
          "vel": 60,
          "clef": "bass",
          "pitch": "F3"
        },
        {
          "midi": 36,
          "beat": 1,
          "dur": 1.67,
          "vel": 82,
          "clef": "bass",
          "pitch": "C2"
        },
        {
          "midi": 36,
          "beat": 1,
          "dur": 0.53,
          "vel": 89,
          "clef": "bass",
          "pitch": "C2"
        },
        {
          "midi": 38,
          "beat": 1,
          "dur": 0.02,
          "vel": 115,
          "clef": "bass",
          "pitch": "D2"
        },
        {
          "midi": 44,
          "beat": 1,
          "dur": 0.02,
          "vel": 72,
          "clef": "bass",
          "acc": "#",
          "pitch": "G#2"
        },
        {
          "midi": 48,
          "beat": 1,
          "dur": 0.95,
          "vel": 60,
          "clef": "bass",
          "pitch": "C3"
        },
        {
          "midi": 65,
          "beat": 1,
          "dur": 3,
          "vel": 114,
          "clef": "treble",
          "pitch": "F4"
        },
        {
          "midi": 57,
          "beat": 1.01,
          "dur": 0.95,
          "vel": 60,
          "clef": "bass",
          "pitch": "A3"
        },
        {
          "midi": 38,
          "beat": 1.65,
          "dur": 0.02,
          "vel": 43,
          "clef": "bass",
          "pitch": "D2"
        },
        {
          "midi": 52,
          "beat": 1.67,
          "dur": 0.53,
          "vel": 61,
          "clef": "bass",
          "pitch": "E3"
        },
        {
          "midi": 52,
          "beat": 1.7,
          "dur": 0.54,
          "vel": 110,
          "clef": "bass",
          "pitch": "E3"
        },
        {
          "midi": 48,
          "beat": 1.99,
          "dur": 0.95,
          "vel": 51,
          "clef": "bass",
          "pitch": "C3"
        },
        {
          "midi": 57,
          "beat": 1.99,
          "dur": 0.95,
          "vel": 53,
          "clef": "bass",
          "pitch": "A3"
        },
        {
          "midi": 35,
          "beat": 2,
          "dur": 1.67,
          "vel": 76,
          "clef": "bass",
          "pitch": "B1"
        },
        {
          "midi": 38,
          "beat": 2,
          "dur": 0.02,
          "vel": 116,
          "clef": "bass",
          "pitch": "D2"
        },
        {
          "midi": 53,
          "beat": 2,
          "dur": 0.95,
          "vel": 55,
          "clef": "bass",
          "pitch": "F3"
        },
        {
          "midi": 53,
          "beat": 2,
          "dur": 0.54,
          "vel": 115,
          "clef": "bass",
          "pitch": "F3"
        },
        {
          "midi": 53,
          "beat": 2,
          "dur": 0.53,
          "vel": 61,
          "clef": "bass",
          "pitch": "F3"
        },
        {
          "midi": 62,
          "beat": 2.02,
          "dur": 0.95,
          "vel": 58,
          "clef": "treble",
          "pitch": "D4"
        },
        {
          "midi": 59,
          "beat": 2.68,
          "dur": 0.53,
          "vel": 97,
          "clef": "bass",
          "pitch": "B3"
        },
        {
          "midi": 64,
          "beat": 2.7,
          "dur": 0.54,
          "vel": 82,
          "clef": "treble",
          "pitch": "E4"
        },
        {
          "midi": 53,
          "beat": 2.92,
          "dur": 0.95,
          "vel": 53,
          "clef": "bass",
          "pitch": "F3"
        },
        {
          "midi": 62,
          "beat": 2.98,
          "dur": 0.95,
          "vel": 54,
          "clef": "treble",
          "pitch": "D4"
        },
        {
          "midi": 33,
          "beat": 3,
          "dur": 1,
          "vel": 80,
          "clef": "bass",
          "pitch": "A1"
        },
        {
          "midi": 38,
          "beat": 3,
          "dur": 0.02,
          "vel": 114,
          "clef": "bass",
          "pitch": "D2"
        },
        {
          "midi": 44,
          "beat": 3,
          "dur": 0.02,
          "vel": 74,
          "clef": "bass",
          "acc": "#",
          "pitch": "G#2"
        },
        {
          "midi": 60,
          "beat": 3,
          "dur": 0.53,
          "vel": 99,
          "clef": "treble",
          "pitch": "C4"
        },
        {
          "midi": 48,
          "beat": 3.02,
          "dur": 0.95,
          "vel": 58,
          "clef": "bass",
          "pitch": "C3"
        },
        {
          "midi": 65,
          "beat": 3.02,
          "dur": 0.54,
          "vel": 80,
          "clef": "treble",
          "pitch": "F4"
        },
        {
          "midi": 57,
          "beat": 3.03,
          "dur": 0.95,
          "vel": 55,
          "clef": "bass",
          "pitch": "A3"
        },
        {
          "midi": 38,
          "beat": 3.65,
          "dur": 0.02,
          "vel": 39,
          "clef": "bass",
          "pitch": "D2"
        },
        {
          "midi": 65,
          "beat": 3.68,
          "dur": 0.32,
          "vel": 95,
          "clef": "treble",
          "pitch": "F4"
        },
        {
          "midi": 53,
          "beat": 3.96,
          "dur": 0.04,
          "vel": 59,
          "clef": "bass",
          "pitch": "F3"
        },
        {
          "midi": 60,
          "beat": 3.99,
          "dur": 0.01,
          "vel": 60,
          "clef": "treble",
          "pitch": "C4"
        }
      ]
    },
    {
      "_": "Treble: 7 notes, Bass: 26 notes",
      "number": 19,
      "notes": [
        {
          "midi": 38,
          "beat": 0,
          "dur": 1.67,
          "vel": 77,
          "clef": "bass",
          "pitch": "D2"
        },
        {
          "midi": 38,
          "beat": 0,
          "dur": 0.02,
          "vel": 112,
          "clef": "bass",
          "pitch": "D2"
        },
        {
          "midi": 65,
          "beat": 0,
          "dur": 0.53,
          "vel": 97,
          "clef": "treble",
          "pitch": "F4"
        },
        {
          "midi": 50,
          "beat": 0.02,
          "dur": 0.95,
          "vel": 56,
          "clef": "bass",
          "pitch": "D3"
        },
        {
          "midi": 45,
          "beat": 0.02,
          "dur": 0.95,
          "vel": 55,
          "clef": "bass",
          "pitch": "A2"
        },
        {
          "midi": 53,
          "beat": 0.95,
          "dur": 0.95,
          "vel": 51,
          "clef": "bass",
          "pitch": "F3"
        },
        {
          "midi": 45,
          "beat": 0.96,
          "dur": 0.95,
          "vel": 60,
          "clef": "bass",
          "pitch": "A2"
        },
        {
          "midi": 60,
          "beat": 0.97,
          "dur": 0.95,
          "vel": 55,
          "clef": "treble",
          "pitch": "C4"
        },
        {
          "midi": 38,
          "beat": 1,
          "dur": 1.67,
          "vel": 80,
          "clef": "bass",
          "pitch": "D2"
        },
        {
          "midi": 38,
          "beat": 1,
          "dur": 0.02,
          "vel": 113,
          "clef": "bass",
          "pitch": "D2"
        },
        {
          "midi": 44,
          "beat": 1,
          "dur": 0.02,
          "vel": 72,
          "clef": "bass",
          "acc": "#",
          "pitch": "G#2"
        },
        {
          "midi": 50,
          "beat": 1.02,
          "dur": 0.95,
          "vel": 56,
          "clef": "bass",
          "pitch": "D3"
        },
        {
          "midi": 38,
          "beat": 1.65,
          "dur": 0.02,
          "vel": 40,
          "clef": "bass",
          "pitch": "D2"
        },
        {
          "midi": 69,
          "beat": 1.67,
          "dur": 1.15,
          "vel": 112,
          "clef": "treble",
          "pitch": "A4"
        },
        {
          "midi": 60,
          "beat": 1.95,
          "dur": 0.95,
          "vel": 60,
          "clef": "treble",
          "pitch": "C4"
        },
        {
          "midi": 50,
          "beat": 1.98,
          "dur": 0.95,
          "vel": 57,
          "clef": "bass",
          "pitch": "D3"
        },
        {
          "midi": 38,
          "beat": 2,
          "dur": 0.02,
          "vel": 115,
          "clef": "bass",
          "pitch": "D2"
        },
        {
          "midi": 45,
          "beat": 2,
          "dur": 1.67,
          "vel": 85,
          "clef": "bass",
          "pitch": "A2"
        },
        {
          "midi": 53,
          "beat": 2.01,
          "dur": 0.95,
          "vel": 56,
          "clef": "bass",
          "pitch": "F3"
        },
        {
          "midi": 45,
          "beat": 2.02,
          "dur": 0.95,
          "vel": 56,
          "clef": "bass",
          "pitch": "A2"
        },
        {
          "midi": 67,
          "beat": 2.67,
          "dur": 1.15,
          "vel": 121,
          "clef": "treble",
          "pitch": "G4"
        },
        {
          "midi": 44,
          "beat": 2.97,
          "dur": 0.95,
          "vel": 51,
          "clef": "bass",
          "acc": "#",
          "pitch": "G#2"
        },
        {
          "midi": 53,
          "beat": 2.98,
          "dur": 0.95,
          "vel": 52,
          "clef": "bass",
          "pitch": "F3"
        },
        {
          "midi": 38,
          "beat": 3,
          "dur": 0.02,
          "vel": 121,
          "clef": "bass",
          "pitch": "D2"
        },
        {
          "midi": 43,
          "beat": 3,
          "dur": 1,
          "vel": 80,
          "clef": "bass",
          "pitch": "G2"
        },
        {
          "midi": 44,
          "beat": 3,
          "dur": 0.02,
          "vel": 70,
          "clef": "bass",
          "acc": "#",
          "pitch": "G#2"
        },
        {
          "midi": 50,
          "beat": 3.02,
          "dur": 0.95,
          "vel": 58,
          "clef": "bass",
          "pitch": "D3"
        },
        {
          "midi": 59,
          "beat": 3.02,
          "dur": 0.95,
          "vel": 55,
          "clef": "bass",
          "pitch": "B3"
        },
        {
          "midi": 38,
          "beat": 3.65,
          "dur": 0.02,
          "vel": 39,
          "clef": "bass",
          "pitch": "D2"
        },
        {
          "midi": 65,
          "beat": 3.67,
          "dur": 0.33,
          "vel": 114,
          "clef": "treble",
          "pitch": "F4"
        },
        {
          "midi": 53,
          "beat": 3.96,
          "dur": 0.04,
          "vel": 57,
          "clef": "bass",
          "pitch": "F3"
        },
        {
          "midi": 50,
          "beat": 3.97,
          "dur": 0.03,
          "vel": 51,
          "clef": "bass",
          "pitch": "D3"
        },
        {
          "midi": 60,
          "beat": 3.97,
          "dur": 0.03,
          "vel": 54,
          "clef": "treble",
          "pitch": "C4"
        }
      ]
    },
    {
      "_": "Treble: 4 notes, Bass: 22 notes",
      "number": 20,
      "notes": [
        {
          "midi": 36,
          "beat": 0,
          "dur": 1.67,
          "vel": 85,
          "clef": "bass",
          "pitch": "C2"
        },
        {
          "midi": 38,
          "beat": 0,
          "dur": 0.02,
          "vel": 115,
          "clef": "bass",
          "pitch": "D2"
        },
        {
          "midi": 44,
          "beat": 0.02,
          "dur": 0.95,
          "vel": 55,
          "clef": "bass",
          "acc": "#",
          "pitch": "G#2"
        },
        {
          "midi": 53,
          "beat": 0.99,
          "dur": 0.95,
          "vel": 51,
          "clef": "bass",
          "pitch": "F3"
        },
        {
          "midi": 38,
          "beat": 1,
          "dur": 0.02,
          "vel": 114,
          "clef": "bass",
          "pitch": "D2"
        },
        {
          "midi": 40,
          "beat": 1,
          "dur": 1.67,
          "vel": 85,
          "clef": "bass",
          "pitch": "E2"
        },
        {
          "midi": 44,
          "beat": 1,
          "dur": 0.95,
          "vel": 55,
          "clef": "bass",
          "acc": "#",
          "pitch": "G#2"
        },
        {
          "midi": 44,
          "beat": 1,
          "dur": 0.02,
          "vel": 70,
          "clef": "bass",
          "acc": "#",
          "pitch": "G#2"
        },
        {
          "midi": 60,
          "beat": 1.01,
          "dur": 0.95,
          "vel": 56,
          "clef": "treble",
          "pitch": "C4"
        },
        {
          "midi": 50,
          "beat": 1.02,
          "dur": 0.95,
          "vel": 56,
          "clef": "bass",
          "pitch": "D3"
        },
        {
          "midi": 38,
          "beat": 1.65,
          "dur": 0.02,
          "vel": 44,
          "clef": "bass",
          "pitch": "D2"
        },
        {
          "midi": 64,
          "beat": 1.67,
          "dur": 2.33,
          "vel": 120,
          "clef": "treble",
          "pitch": "E4"
        },
        {
          "midi": 52,
          "beat": 1.98,
          "dur": 0.95,
          "vel": 60,
          "clef": "bass",
          "pitch": "E3"
        },
        {
          "midi": 60,
          "beat": 1.99,
          "dur": 0.95,
          "vel": 52,
          "clef": "treble",
          "pitch": "C4"
        },
        {
          "midi": 38,
          "beat": 2,
          "dur": 0.02,
          "vel": 115,
          "clef": "bass",
          "pitch": "D2"
        },
        {
          "midi": 43,
          "beat": 2,
          "dur": 1.67,
          "vel": 80,
          "clef": "bass",
          "pitch": "G2"
        },
        {
          "midi": 45,
          "beat": 2.02,
          "dur": 0.95,
          "vel": 54,
          "clef": "bass",
          "pitch": "A2"
        },
        {
          "midi": 55,
          "beat": 2.02,
          "dur": 0.95,
          "vel": 58,
          "clef": "bass",
          "pitch": "G3"
        },
        {
          "midi": 55,
          "beat": 2.96,
          "dur": 0.95,
          "vel": 52,
          "clef": "bass",
          "pitch": "G3"
        },
        {
          "midi": 36,
          "beat": 3,
          "dur": 1,
          "vel": 85,
          "clef": "bass",
          "pitch": "C2"
        },
        {
          "midi": 38,
          "beat": 3,
          "dur": 0.02,
          "vel": 114,
          "clef": "bass",
          "pitch": "D2"
        },
        {
          "midi": 44,
          "beat": 3,
          "dur": 0.02,
          "vel": 67,
          "clef": "bass",
          "acc": "#",
          "pitch": "G#2"
        },
        {
          "midi": 60,
          "beat": 3.01,
          "dur": 0.95,
          "vel": 57,
          "clef": "treble",
          "pitch": "C4"
        },
        {
          "midi": 45,
          "beat": 3.02,
          "dur": 0.95,
          "vel": 58,
          "clef": "bass",
          "pitch": "A2"
        },
        {
          "midi": 52,
          "beat": 3.02,
          "dur": 0.95,
          "vel": 55,
          "clef": "bass",
          "pitch": "E3"
        },
        {
          "midi": 38,
          "beat": 3.65,
          "dur": 0.02,
          "vel": 39,
          "clef": "bass",
          "pitch": "D2"
        }
      ]
    },
    {
      "_": "Treble: 8 notes, Bass: 30 notes",
      "number": 21,
      "notes": [
        {
          "midi": 35,
          "beat": 0,
          "dur": 1.67,
          "vel": 83,
          "clef": "bass",
          "pitch": "B1"
        },
        {
          "midi": 53,
          "beat": 0.58,
          "dur": 0.95,
          "vel": 57,
          "clef": "bass",
          "pitch": "F3"
        },
        {
          "midi": 59,
          "beat": 0.62,
          "dur": 0.95,
          "vel": 58,
          "clef": "bass",
          "pitch": "B3"
        },
        {
          "midi": 40,
          "beat": 0.62,
          "dur": 3.38,
          "vel": 86,
          "clef": "bass",
          "pitch": "E2"
        },
        {
          "midi": 50,
          "beat": 0.62,
          "dur": 3.38,
          "vel": 111,
          "clef": "bass",
          "pitch": "D3"
        },
        {
          "midi": 56,
          "beat": 0.62,
          "dur": 3.38,
          "vel": 116,
          "clef": "bass",
          "acc": "#",
          "pitch": "G#3"
        },
        {
          "midi": 59,
          "beat": 0.62,
          "dur": 3.38,
          "vel": 113,
          "clef": "bass",
          "pitch": "B3"
        },
        {
          "midi": 59,
          "beat": 0.62,
          "dur": 3.38,
          "vel": 63,
          "clef": "bass",
          "pitch": "B3"
        },
        {
          "midi": 64,
          "beat": 0.62,
          "dur": 3.38,
          "vel": 81,
          "clef": "treble",
          "pitch": "E4"
        },
        {
          "midi": 76,
          "beat": 0.62,
          "dur": 3.38,
          "vel": 81,
          "clef": "treble",
          "pitch": "E5"
        },
        {
          "midi": 50,
          "beat": 0.63,
          "dur": 0.95,
          "vel": 51,
          "clef": "bass",
          "pitch": "D3"
        },
        {
          "midi": 44,
          "beat": 0.65,
          "dur": 0.95,
          "vel": 57,
          "clef": "bass",
          "acc": "#",
          "pitch": "G#2"
        },
        {
          "midi": 56,
          "beat": 0.66,
          "dur": 3.34,
          "vel": 94,
          "clef": "bass",
          "acc": "#",
          "pitch": "G#3"
        },
        {
          "midi": 62,
          "beat": 0.66,
          "dur": 3.34,
          "vel": 97,
          "clef": "treble",
          "pitch": "D4"
        },
        {
          "midi": 35,
          "beat": 1,
          "dur": 1.08,
          "vel": 79,
          "clef": "bass",
          "pitch": "B1"
        },
        {
          "midi": 44,
          "beat": 1,
          "dur": 0.02,
          "vel": 71,
          "clef": "bass",
          "acc": "#",
          "pitch": "G#2"
        },
        {
          "midi": 29,
          "beat": 1.67,
          "dur": 0.52,
          "vel": 78,
          "clef": "bass",
          "pitch": "F1"
        },
        {
          "midi": 53,
          "beat": 1.96,
          "dur": 0.95,
          "vel": 59,
          "clef": "bass",
          "pitch": "F3"
        },
        {
          "midi": 59,
          "beat": 1.98,
          "dur": 0.95,
          "vel": 58,
          "clef": "bass",
          "pitch": "B3"
        },
        {
          "midi": 50,
          "beat": 1.99,
          "dur": 0.95,
          "vel": 57,
          "clef": "bass",
          "pitch": "D3"
        },
        {
          "midi": 32,
          "beat": 2,
          "dur": 1.67,
          "vel": 76,
          "clef": "bass",
          "acc": "#",
          "pitch": "G#1"
        },
        {
          "midi": 44,
          "beat": 2.02,
          "dur": 0.95,
          "vel": 58,
          "clef": "bass",
          "acc": "#",
          "pitch": "G#2"
        },
        {
          "midi": 44,
          "beat": 2.98,
          "dur": 0.95,
          "vel": 57,
          "clef": "bass",
          "acc": "#",
          "pitch": "G#2"
        },
        {
          "midi": 53,
          "beat": 2.98,
          "dur": 0.95,
          "vel": 52,
          "clef": "bass",
          "pitch": "F3"
        },
        {
          "midi": 32,
          "beat": 3,
          "dur": 1,
          "vel": 78,
          "clef": "bass",
          "acc": "#",
          "pitch": "G#1"
        },
        {
          "midi": 37,
          "beat": 3,
          "dur": 0.02,
          "vel": 93,
          "clef": "bass",
          "acc": "#",
          "pitch": "C#2"
        },
        {
          "midi": 44,
          "beat": 3,
          "dur": 0.02,
          "vel": 70,
          "clef": "bass",
          "acc": "#",
          "pitch": "G#2"
        },
        {
          "midi": 59,
          "beat": 3.02,
          "dur": 0.95,
          "vel": 58,
          "clef": "bass",
          "pitch": "B3"
        },
        {
          "midi": 50,
          "beat": 3.02,
          "dur": 0.95,
          "vel": 57,
          "clef": "bass",
          "pitch": "D3"
        },
        {
          "midi": 52,
          "beat": 3.63,
          "dur": 0.37,
          "vel": 114,
          "clef": "bass",
          "pitch": "E3"
        },
        {
          "midi": 57,
          "beat": 3.63,
          "dur": 0.37,
          "vel": 116,
          "clef": "bass",
          "pitch": "A3"
        },
        {
          "midi": 60,
          "beat": 3.63,
          "dur": 0.37,
          "vel": 115,
          "clef": "treble",
          "pitch": "C4"
        },
        {
          "midi": 60,
          "beat": 3.63,
          "dur": 0.37,
          "vel": 56,
          "clef": "treble",
          "pitch": "C4"
        },
        {
          "midi": 69,
          "beat": 3.63,
          "dur": 0.37,
          "vel": 80,
          "clef": "treble",
          "pitch": "A4"
        },
        {
          "midi": 72,
          "beat": 3.63,
          "dur": 0.37,
          "vel": 76,
          "clef": "treble",
          "pitch": "C5"
        },
        {
          "midi": 57,
          "beat": 3.66,
          "dur": 0.34,
          "vel": 101,
          "clef": "bass",
          "pitch": "A3"
        },
        {
          "midi": 64,
          "beat": 3.66,
          "dur": 0.34,
          "vel": 101,
          "clef": "treble",
          "pitch": "E4"
        },
        {
          "midi": 55,
          "beat": 3.97,
          "dur": 0.03,
          "vel": 56,
          "clef": "bass",
          "pitch": "G3"
        }
      ]
    },
    {
      "_": "Treble: 18 notes, Bass: 36 notes",
      "number": 22,
      "notes": [
        {
          "midi": 52,
          "beat": -0.01,
          "dur": 0.95,
          "vel": 52,
          "clef": "bass",
          "pitch": "E3"
        },
        {
          "midi": 33,
          "beat": 0,
          "dur": 1.67,
          "vel": 83,
          "clef": "bass",
          "pitch": "A1"
        },
        {
          "midi": 38,
          "beat": 0,
          "dur": 0.02,
          "vel": 118,
          "clef": "bass",
          "pitch": "D2"
        },
        {
          "midi": 72,
          "beat": 0,
          "dur": 1.15,
          "vel": 112,
          "clef": "treble",
          "pitch": "C5"
        },
        {
          "midi": 60,
          "beat": 0.01,
          "dur": 0.95,
          "vel": 54,
          "clef": "treble",
          "pitch": "C4"
        },
        {
          "midi": 45,
          "beat": 0.02,
          "dur": 0.95,
          "vel": 59,
          "clef": "bass",
          "pitch": "A2"
        },
        {
          "midi": 43,
          "beat": 0.63,
          "dur": 0.53,
          "vel": 88,
          "clef": "bass",
          "pitch": "G2"
        },
        {
          "midi": 55,
          "beat": 0.63,
          "dur": 0.53,
          "vel": 56,
          "clef": "bass",
          "pitch": "G3"
        },
        {
          "midi": 55,
          "beat": 0.93,
          "dur": 0.95,
          "vel": 53,
          "clef": "bass",
          "pitch": "G3"
        },
        {
          "midi": 60,
          "beat": 0.97,
          "dur": 0.95,
          "vel": 58,
          "clef": "treble",
          "pitch": "C4"
        },
        {
          "midi": 35,
          "beat": 1,
          "dur": 1.67,
          "vel": 85,
          "clef": "bass",
          "pitch": "B1"
        },
        {
          "midi": 37,
          "beat": 1,
          "dur": 0.02,
          "vel": 94,
          "clef": "bass",
          "acc": "#",
          "pitch": "C#2"
        },
        {
          "midi": 38,
          "beat": 1,
          "dur": 0.02,
          "vel": 119,
          "clef": "bass",
          "pitch": "D2"
        },
        {
          "midi": 44,
          "beat": 1,
          "dur": 0.02,
          "vel": 73,
          "clef": "bass",
          "acc": "#",
          "pitch": "G#2"
        },
        {
          "midi": 48,
          "beat": 1,
          "dur": 1.1,
          "vel": 93,
          "clef": "bass",
          "pitch": "C3"
        },
        {
          "midi": 57,
          "beat": 1,
          "dur": 0.54,
          "vel": 118,
          "clef": "bass",
          "pitch": "A3"
        },
        {
          "midi": 60,
          "beat": 1,
          "dur": 0.54,
          "vel": 115,
          "clef": "treble",
          "pitch": "C4"
        },
        {
          "midi": 60,
          "beat": 1,
          "dur": 1.1,
          "vel": 65,
          "clef": "treble",
          "pitch": "C4"
        },
        {
          "midi": 71,
          "beat": 1,
          "dur": 1.15,
          "vel": 118,
          "clef": "treble",
          "pitch": "B4"
        },
        {
          "midi": 52,
          "beat": 1.02,
          "dur": 0.95,
          "vel": 54,
          "clef": "bass",
          "pitch": "E3"
        },
        {
          "midi": 45,
          "beat": 1.02,
          "dur": 0.95,
          "vel": 58,
          "clef": "bass",
          "pitch": "A2"
        },
        {
          "midi": 43,
          "beat": 1.62,
          "dur": 0.53,
          "vel": 91,
          "clef": "bass",
          "pitch": "G2"
        },
        {
          "midi": 55,
          "beat": 1.62,
          "dur": 0.53,
          "vel": 61,
          "clef": "bass",
          "pitch": "G3"
        },
        {
          "midi": 38,
          "beat": 1.65,
          "dur": 0.02,
          "vel": 39,
          "clef": "bass",
          "pitch": "D2"
        },
        {
          "midi": 69,
          "beat": 1.96,
          "dur": 0.54,
          "vel": 78,
          "clef": "treble",
          "pitch": "A4"
        },
        {
          "midi": 72,
          "beat": 1.96,
          "dur": 0.54,
          "vel": 82,
          "clef": "treble",
          "pitch": "C5"
        },
        {
          "midi": 45,
          "beat": 1.98,
          "dur": 0.95,
          "vel": 55,
          "clef": "bass",
          "pitch": "A2"
        },
        {
          "midi": 60,
          "beat": 1.98,
          "dur": 0.95,
          "vel": 60,
          "clef": "treble",
          "pitch": "C4"
        },
        {
          "midi": 36,
          "beat": 2,
          "dur": 1.67,
          "vel": 79,
          "clef": "bass",
          "pitch": "C2"
        },
        {
          "midi": 38,
          "beat": 2,
          "dur": 0.02,
          "vel": 120,
          "clef": "bass",
          "pitch": "D2"
        },
        {
          "midi": 50,
          "beat": 2,
          "dur": 1.1,
          "vel": 86,
          "clef": "bass",
          "pitch": "D3"
        },
        {
          "midi": 62,
          "beat": 2,
          "dur": 1.1,
          "vel": 57,
          "clef": "treble",
          "pitch": "D4"
        },
        {
          "midi": 69,
          "beat": 2,
          "dur": 1.72,
          "vel": 112,
          "clef": "treble",
          "pitch": "A4"
        },
        {
          "midi": 52,
          "beat": 2.02,
          "dur": 0.95,
          "vel": 59,
          "clef": "bass",
          "pitch": "E3"
        },
        {
          "midi": 55,
          "beat": 2.02,
          "dur": 0.95,
          "vel": 55,
          "clef": "bass",
          "pitch": "G3"
        },
        {
          "midi": 52,
          "beat": 2.62,
          "dur": 0.53,
          "vel": 93,
          "clef": "bass",
          "pitch": "E3"
        },
        {
          "midi": 64,
          "beat": 2.62,
          "dur": 0.53,
          "vel": 60,
          "clef": "treble",
          "pitch": "E4"
        },
        {
          "midi": 57,
          "beat": 2.71,
          "dur": 0.54,
          "vel": 109,
          "clef": "bass",
          "pitch": "A3"
        },
        {
          "midi": 60,
          "beat": 2.71,
          "dur": 0.54,
          "vel": 117,
          "clef": "treble",
          "pitch": "C4"
        },
        {
          "midi": 52,
          "beat": 2.97,
          "dur": 0.95,
          "vel": 56,
          "clef": "bass",
          "pitch": "E3"
        },
        {
          "midi": 60,
          "beat": 2.99,
          "dur": 0.95,
          "vel": 59,
          "clef": "treble",
          "pitch": "C4"
        },
        {
          "midi": 37,
          "beat": 3,
          "dur": 1,
          "vel": 81,
          "clef": "bass",
          "acc": "#",
          "pitch": "C#2"
        },
        {
          "midi": 37,
          "beat": 3,
          "dur": 0.02,
          "vel": 87,
          "clef": "bass",
          "acc": "#",
          "pitch": "C#2"
        },
        {
          "midi": 38,
          "beat": 3,
          "dur": 0.02,
          "vel": 114,
          "clef": "bass",
          "pitch": "D2"
        },
        {
          "midi": 44,
          "beat": 3,
          "dur": 0.02,
          "vel": 73,
          "clef": "bass",
          "acc": "#",
          "pitch": "G#2"
        },
        {
          "midi": 45,
          "beat": 3,
          "dur": 0.95,
          "vel": 60,
          "clef": "bass",
          "pitch": "A2"
        },
        {
          "midi": 67,
          "beat": 3,
          "dur": 1,
          "vel": 119,
          "clef": "treble",
          "pitch": "G4"
        },
        {
          "midi": 55,
          "beat": 3.02,
          "dur": 0.95,
          "vel": 55,
          "clef": "bass",
          "pitch": "G3"
        },
        {
          "midi": 38,
          "beat": 3.65,
          "dur": 0.02,
          "vel": 45,
          "clef": "bass",
          "pitch": "D2"
        },
        {
          "midi": 65,
          "beat": 3.67,
          "dur": 0.33,
          "vel": 120,
          "clef": "treble",
          "pitch": "F4"
        },
        {
          "midi": 53,
          "beat": 3.94,
          "dur": 0.06,
          "vel": 60,
          "clef": "bass",
          "pitch": "F3"
        },
        {
          "midi": 45,
          "beat": 3.96,
          "dur": 0.04,
          "vel": 60,
          "clef": "bass",
          "pitch": "A2"
        },
        {
          "midi": 69,
          "beat": 3.96,
          "dur": 0.04,
          "vel": 82,
          "clef": "treble",
          "pitch": "A4"
        },
        {
          "midi": 72,
          "beat": 3.96,
          "dur": 0.04,
          "vel": 77,
          "clef": "treble",
          "pitch": "C5"
        }
      ]
    },
    {
      "_": "Treble: 19 notes, Bass: 34 notes",
      "number": 23,
      "notes": [
        {
          "midi": 60,
          "beat": 0,
          "dur": 0.95,
          "vel": 51,
          "clef": "treble",
          "pitch": "C4"
        },
        {
          "midi": 38,
          "beat": 0,
          "dur": 1.67,
          "vel": 76,
          "clef": "bass",
          "pitch": "D2"
        },
        {
          "midi": 38,
          "beat": 0,
          "dur": 0.02,
          "vel": 121,
          "clef": "bass",
          "pitch": "D2"
        },
        {
          "midi": 50,
          "beat": 0.02,
          "dur": 0.95,
          "vel": 58,
          "clef": "bass",
          "pitch": "D3"
        },
        {
          "midi": 43,
          "beat": 0.63,
          "dur": 0.53,
          "vel": 85,
          "clef": "bass",
          "pitch": "G2"
        },
        {
          "midi": 55,
          "beat": 0.63,
          "dur": 0.53,
          "vel": 56,
          "clef": "bass",
          "pitch": "G3"
        },
        {
          "midi": 67,
          "beat": 0.67,
          "dur": 1.15,
          "vel": 117,
          "clef": "treble",
          "pitch": "G4"
        },
        {
          "midi": 57,
          "beat": 0.71,
          "dur": 0.54,
          "vel": 112,
          "clef": "bass",
          "pitch": "A3"
        },
        {
          "midi": 60,
          "beat": 0.71,
          "dur": 0.54,
          "vel": 114,
          "clef": "treble",
          "pitch": "C4"
        },
        {
          "midi": 60,
          "beat": 0.97,
          "dur": 0.95,
          "vel": 60,
          "clef": "treble",
          "pitch": "C4"
        },
        {
          "midi": 37,
          "beat": 1,
          "dur": 0.02,
          "vel": 87,
          "clef": "bass",
          "acc": "#",
          "pitch": "C#2"
        },
        {
          "midi": 38,
          "beat": 1,
          "dur": 0.02,
          "vel": 114,
          "clef": "bass",
          "pitch": "D2"
        },
        {
          "midi": 40,
          "beat": 1,
          "dur": 1.67,
          "vel": 83,
          "clef": "bass",
          "pitch": "E2"
        },
        {
          "midi": 44,
          "beat": 1,
          "dur": 0.02,
          "vel": 73,
          "clef": "bass",
          "acc": "#",
          "pitch": "G#2"
        },
        {
          "midi": 48,
          "beat": 1,
          "dur": 1.1,
          "vel": 88,
          "clef": "bass",
          "pitch": "C3"
        },
        {
          "midi": 60,
          "beat": 1,
          "dur": 1.1,
          "vel": 57,
          "clef": "treble",
          "pitch": "C4"
        },
        {
          "midi": 53,
          "beat": 1.01,
          "dur": 0.95,
          "vel": 58,
          "clef": "bass",
          "pitch": "F3"
        },
        {
          "midi": 45,
          "beat": 1.02,
          "dur": 0.95,
          "vel": 58,
          "clef": "bass",
          "pitch": "A2"
        },
        {
          "midi": 50,
          "beat": 1.02,
          "dur": 0.95,
          "vel": 58,
          "clef": "bass",
          "pitch": "D3"
        },
        {
          "midi": 43,
          "beat": 1.63,
          "dur": 0.53,
          "vel": 91,
          "clef": "bass",
          "pitch": "G2"
        },
        {
          "midi": 55,
          "beat": 1.63,
          "dur": 0.53,
          "vel": 65,
          "clef": "bass",
          "pitch": "G3"
        },
        {
          "midi": 38,
          "beat": 1.65,
          "dur": 0.02,
          "vel": 36,
          "clef": "bass",
          "pitch": "D2"
        },
        {
          "midi": 69,
          "beat": 1.67,
          "dur": 1.15,
          "vel": 121,
          "clef": "treble",
          "pitch": "A4"
        },
        {
          "midi": 69,
          "beat": 1.96,
          "dur": 0.54,
          "vel": 78,
          "clef": "treble",
          "pitch": "A4"
        },
        {
          "midi": 72,
          "beat": 1.96,
          "dur": 0.54,
          "vel": 81,
          "clef": "treble",
          "pitch": "C5"
        },
        {
          "midi": 60,
          "beat": 1.97,
          "dur": 0.95,
          "vel": 53,
          "clef": "treble",
          "pitch": "C4"
        },
        {
          "midi": 45,
          "beat": 1.97,
          "dur": 0.95,
          "vel": 55,
          "clef": "bass",
          "pitch": "A2"
        },
        {
          "midi": 53,
          "beat": 1.98,
          "dur": 0.95,
          "vel": 52,
          "clef": "bass",
          "pitch": "F3"
        },
        {
          "midi": 38,
          "beat": 2,
          "dur": 0.02,
          "vel": 116,
          "clef": "bass",
          "pitch": "D2"
        },
        {
          "midi": 41,
          "beat": 2,
          "dur": 1.67,
          "vel": 79,
          "clef": "bass",
          "pitch": "F2"
        },
        {
          "midi": 50,
          "beat": 2,
          "dur": 0.95,
          "vel": 60,
          "clef": "bass",
          "pitch": "D3"
        },
        {
          "midi": 50,
          "beat": 2,
          "dur": 1.1,
          "vel": 88,
          "clef": "bass",
          "pitch": "D3"
        },
        {
          "midi": 62,
          "beat": 2,
          "dur": 1.1,
          "vel": 58,
          "clef": "treble",
          "pitch": "D4"
        },
        {
          "midi": 69,
          "beat": 2,
          "dur": 1.1,
          "vel": 96,
          "clef": "treble",
          "pitch": "A4"
        },
        {
          "midi": 52,
          "beat": 2.63,
          "dur": 0.53,
          "vel": 90,
          "clef": "bass",
          "pitch": "E3"
        },
        {
          "midi": 64,
          "beat": 2.63,
          "dur": 0.53,
          "vel": 60,
          "clef": "treble",
          "pitch": "E4"
        },
        {
          "midi": 72,
          "beat": 2.67,
          "dur": 1.15,
          "vel": 115,
          "clef": "treble",
          "pitch": "C5"
        },
        {
          "midi": 57,
          "beat": 2.71,
          "dur": 0.54,
          "vel": 115,
          "clef": "bass",
          "pitch": "A3"
        },
        {
          "midi": 60,
          "beat": 2.71,
          "dur": 0.54,
          "vel": 118,
          "clef": "treble",
          "pitch": "C4"
        },
        {
          "midi": 53,
          "beat": 2.94,
          "dur": 0.95,
          "vel": 52,
          "clef": "bass",
          "pitch": "F3"
        },
        {
          "midi": 60,
          "beat": 2.99,
          "dur": 0.95,
          "vel": 59,
          "clef": "treble",
          "pitch": "C4"
        },
        {
          "midi": 37,
          "beat": 3,
          "dur": 0.02,
          "vel": 90,
          "clef": "bass",
          "acc": "#",
          "pitch": "C#2"
        },
        {
          "midi": 38,
          "beat": 3,
          "dur": 0.02,
          "vel": 117,
          "clef": "bass",
          "pitch": "D2"
        },
        {
          "midi": 42,
          "beat": 3,
          "dur": 1,
          "vel": 76,
          "clef": "bass",
          "acc": "#",
          "pitch": "F#2"
        },
        {
          "midi": 44,
          "beat": 3,
          "dur": 0.02,
          "vel": 68,
          "clef": "bass",
          "acc": "#",
          "pitch": "G#2"
        },
        {
          "midi": 68,
          "beat": 3,
          "dur": 1,
          "vel": 94,
          "clef": "treble",
          "acc": "#",
          "pitch": "G#4"
        },
        {
          "midi": 50,
          "beat": 3.02,
          "dur": 0.95,
          "vel": 59,
          "clef": "bass",
          "pitch": "D3"
        },
        {
          "midi": 45,
          "beat": 3.02,
          "dur": 0.95,
          "vel": 54,
          "clef": "bass",
          "pitch": "A2"
        },
        {
          "midi": 38,
          "beat": 3.65,
          "dur": 0.02,
          "vel": 39,
          "clef": "bass",
          "pitch": "D2"
        },
        {
          "midi": 71,
          "beat": 3.67,
          "dur": 0.33,
          "vel": 119,
          "clef": "treble",
          "pitch": "B4"
        },
        {
          "midi": 67,
          "beat": 3.96,
          "dur": 0.04,
          "vel": 78,
          "clef": "treble",
          "pitch": "G4"
        },
        {
          "midi": 71,
          "beat": 3.96,
          "dur": 0.04,
          "vel": 75,
          "clef": "treble",
          "pitch": "B4"
        },
        {
          "midi": 50,
          "beat": 3.98,
          "dur": 0.02,
          "vel": 58,
          "clef": "bass",
          "pitch": "D3"
        }
      ]
    },
    {
      "_": "Treble: 14 notes, Bass: 45 notes",
      "number": 24,
      "notes": [
        {
          "midi": 53,
          "beat": -0.01,
          "dur": 0.95,
          "vel": 51,
          "clef": "bass",
          "pitch": "F3"
        },
        {
          "midi": 38,
          "beat": 0,
          "dur": 0.02,
          "vel": 114,
          "clef": "bass",
          "pitch": "D2"
        },
        {
          "midi": 43,
          "beat": 0,
          "dur": 1.67,
          "vel": 79,
          "clef": "bass",
          "pitch": "G2"
        },
        {
          "midi": 59,
          "beat": 0,
          "dur": 0.95,
          "vel": 56,
          "clef": "bass",
          "pitch": "B3"
        },
        {
          "midi": 67,
          "beat": 0,
          "dur": 1.1,
          "vel": 100,
          "clef": "treble",
          "pitch": "G4"
        },
        {
          "midi": 43,
          "beat": 0.02,
          "dur": 0.95,
          "vel": 54,
          "clef": "bass",
          "pitch": "G2"
        },
        {
          "midi": 43,
          "beat": 0.62,
          "dur": 0.53,
          "vel": 93,
          "clef": "bass",
          "pitch": "G2"
        },
        {
          "midi": 55,
          "beat": 0.62,
          "dur": 0.53,
          "vel": 63,
          "clef": "bass",
          "pitch": "G3"
        },
        {
          "midi": 55,
          "beat": 0.71,
          "dur": 0.54,
          "vel": 117,
          "clef": "bass",
          "pitch": "G3"
        },
        {
          "midi": 59,
          "beat": 0.71,
          "dur": 0.54,
          "vel": 111,
          "clef": "bass",
          "pitch": "B3"
        },
        {
          "midi": 53,
          "beat": 0.96,
          "dur": 0.95,
          "vel": 58,
          "clef": "bass",
          "pitch": "F3"
        },
        {
          "midi": 43,
          "beat": 0.98,
          "dur": 0.95,
          "vel": 59,
          "clef": "bass",
          "pitch": "G2"
        },
        {
          "midi": 59,
          "beat": 0.99,
          "dur": 0.95,
          "vel": 52,
          "clef": "bass",
          "pitch": "B3"
        },
        {
          "midi": 37,
          "beat": 1,
          "dur": 0.02,
          "vel": 93,
          "clef": "bass",
          "acc": "#",
          "pitch": "C#2"
        },
        {
          "midi": 38,
          "beat": 1,
          "dur": 0.02,
          "vel": 121,
          "clef": "bass",
          "pitch": "D2"
        },
        {
          "midi": 44,
          "beat": 1,
          "dur": 0.02,
          "vel": 69,
          "clef": "bass",
          "acc": "#",
          "pitch": "G#2"
        },
        {
          "midi": 45,
          "beat": 1,
          "dur": 1.67,
          "vel": 80,
          "clef": "bass",
          "pitch": "A2"
        },
        {
          "midi": 45,
          "beat": 1,
          "dur": 1.1,
          "vel": 94,
          "clef": "bass",
          "pitch": "A2"
        },
        {
          "midi": 50,
          "beat": 1,
          "dur": 0.95,
          "vel": 60,
          "clef": "bass",
          "pitch": "D3"
        },
        {
          "midi": 57,
          "beat": 1,
          "dur": 1.1,
          "vel": 57,
          "clef": "bass",
          "pitch": "A3"
        },
        {
          "midi": 65,
          "beat": 1,
          "dur": 1.1,
          "vel": 94,
          "clef": "treble",
          "pitch": "F4"
        },
        {
          "midi": 43,
          "beat": 1.62,
          "dur": 0.53,
          "vel": 85,
          "clef": "bass",
          "pitch": "G2"
        },
        {
          "midi": 55,
          "beat": 1.62,
          "dur": 0.53,
          "vel": 62,
          "clef": "bass",
          "pitch": "G3"
        },
        {
          "midi": 38,
          "beat": 1.65,
          "dur": 0.02,
          "vel": 37,
          "clef": "bass",
          "pitch": "D2"
        },
        {
          "midi": 69,
          "beat": 1.67,
          "dur": 0.57,
          "vel": 112,
          "clef": "treble",
          "pitch": "A4"
        },
        {
          "midi": 67,
          "beat": 1.96,
          "dur": 0.54,
          "vel": 83,
          "clef": "treble",
          "pitch": "G4"
        },
        {
          "midi": 71,
          "beat": 1.96,
          "dur": 0.54,
          "vel": 82,
          "clef": "treble",
          "pitch": "B4"
        },
        {
          "midi": 50,
          "beat": 1.98,
          "dur": 0.95,
          "vel": 56,
          "clef": "bass",
          "pitch": "D3"
        },
        {
          "midi": 59,
          "beat": 1.98,
          "dur": 0.95,
          "vel": 55,
          "clef": "bass",
          "pitch": "B3"
        },
        {
          "midi": 53,
          "beat": 1.99,
          "dur": 0.95,
          "vel": 51,
          "clef": "bass",
          "pitch": "F3"
        },
        {
          "midi": 38,
          "beat": 2,
          "dur": 0.02,
          "vel": 115,
          "clef": "bass",
          "pitch": "D2"
        },
        {
          "midi": 43,
          "beat": 2,
          "dur": 0.95,
          "vel": 52,
          "clef": "bass",
          "pitch": "G2"
        },
        {
          "midi": 46,
          "beat": 2,
          "dur": 1.67,
          "vel": 77,
          "clef": "bass",
          "acc": "#",
          "pitch": "A#2"
        },
        {
          "midi": 46,
          "beat": 2,
          "dur": 1.1,
          "vel": 93,
          "clef": "bass",
          "acc": "#",
          "pitch": "A#2"
        },
        {
          "midi": 58,
          "beat": 2,
          "dur": 1.1,
          "vel": 65,
          "clef": "bass",
          "acc": "#",
          "pitch": "A#3"
        },
        {
          "midi": 64,
          "beat": 2,
          "dur": 1.1,
          "vel": 99,
          "clef": "treble",
          "pitch": "E4"
        },
        {
          "midi": 67,
          "beat": 2,
          "dur": 1.72,
          "vel": 113,
          "clef": "treble",
          "pitch": "G4"
        },
        {
          "midi": 47,
          "beat": 2.62,
          "dur": 0.53,
          "vel": 94,
          "clef": "bass",
          "pitch": "B2"
        },
        {
          "midi": 59,
          "beat": 2.62,
          "dur": 0.53,
          "vel": 56,
          "clef": "bass",
          "pitch": "B3"
        },
        {
          "midi": 55,
          "beat": 2.71,
          "dur": 0.54,
          "vel": 111,
          "clef": "bass",
          "pitch": "G3"
        },
        {
          "midi": 59,
          "beat": 2.71,
          "dur": 0.54,
          "vel": 111,
          "clef": "bass",
          "pitch": "B3"
        },
        {
          "midi": 59,
          "beat": 2.98,
          "dur": 0.95,
          "vel": 52,
          "clef": "bass",
          "pitch": "B3"
        },
        {
          "midi": 43,
          "beat": 2.98,
          "dur": 0.95,
          "vel": 53,
          "clef": "bass",
          "pitch": "G2"
        },
        {
          "midi": 37,
          "beat": 3,
          "dur": 0.02,
          "vel": 88,
          "clef": "bass",
          "acc": "#",
          "pitch": "C#2"
        },
        {
          "midi": 38,
          "beat": 3,
          "dur": 0.02,
          "vel": 112,
          "clef": "bass",
          "pitch": "D2"
        },
        {
          "midi": 44,
          "beat": 3,
          "dur": 0.02,
          "vel": 67,
          "clef": "bass",
          "acc": "#",
          "pitch": "G#2"
        },
        {
          "midi": 47,
          "beat": 3,
          "dur": 1,
          "vel": 76,
          "clef": "bass",
          "pitch": "B2"
        },
        {
          "midi": 50,
          "beat": 3,
          "dur": 0.95,
          "vel": 52,
          "clef": "bass",
          "pitch": "D3"
        },
        {
          "midi": 62,
          "beat": 3,
          "dur": 1,
          "vel": 103,
          "clef": "treble",
          "pitch": "D4"
        },
        {
          "midi": 65,
          "beat": 3,
          "dur": 1,
          "vel": 120,
          "clef": "treble",
          "pitch": "F4"
        },
        {
          "midi": 53,
          "beat": 3.01,
          "dur": 0.95,
          "vel": 58,
          "clef": "bass",
          "pitch": "F3"
        },
        {
          "midi": 38,
          "beat": 3.65,
          "dur": 0.02,
          "vel": 42,
          "clef": "bass",
          "pitch": "D2"
        },
        {
          "midi": 64,
          "beat": 3.67,
          "dur": 0.33,
          "vel": 114,
          "clef": "treble",
          "pitch": "E4"
        },
        {
          "midi": 60,
          "beat": 3.69,
          "dur": 0.31,
          "vel": 99,
          "clef": "treble",
          "pitch": "C4"
        },
        {
          "midi": 60,
          "beat": 3.95,
          "dur": 0.05,
          "vel": 52,
          "clef": "treble",
          "pitch": "C4"
        },
        {
          "midi": 45,
          "beat": 3.96,
          "dur": 0.04,
          "vel": 52,
          "clef": "bass",
          "pitch": "A2"
        },
        {
          "midi": 52,
          "beat": 3.96,
          "dur": 0.04,
          "vel": 52,
          "clef": "bass",
          "pitch": "E3"
        },
        {
          "midi": 67,
          "beat": 3.96,
          "dur": 0.04,
          "vel": 83,
          "clef": "treble",
          "pitch": "G4"
        },
        {
          "midi": 72,
          "beat": 3.96,
          "dur": 0.04,
          "vel": 83,
          "clef": "treble",
          "pitch": "C5"
        }
      ]
    },
    {
      "_": "Treble: 8 notes, Bass: 38 notes",
      "number": 25,
      "notes": [
        {
          "midi": 38,
          "beat": 0,
          "dur": 0.02,
          "vel": 117,
          "clef": "bass",
          "pitch": "D2"
        },
        {
          "midi": 48,
          "beat": 0,
          "dur": 1.67,
          "vel": 78,
          "clef": "bass",
          "pitch": "C3"
        },
        {
          "midi": 55,
          "beat": 0.02,
          "dur": 0.95,
          "vel": 59,
          "clef": "bass",
          "pitch": "G3"
        },
        {
          "midi": 43,
          "beat": 0.63,
          "dur": 0.53,
          "vel": 91,
          "clef": "bass",
          "pitch": "G2"
        },
        {
          "midi": 55,
          "beat": 0.63,
          "dur": 0.53,
          "vel": 58,
          "clef": "bass",
          "pitch": "G3"
        },
        {
          "midi": 55,
          "beat": 0.71,
          "dur": 0.54,
          "vel": 115,
          "clef": "bass",
          "pitch": "G3"
        },
        {
          "midi": 60,
          "beat": 0.71,
          "dur": 0.54,
          "vel": 116,
          "clef": "treble",
          "pitch": "C4"
        },
        {
          "midi": 60,
          "beat": 0.97,
          "dur": 0.95,
          "vel": 58,
          "clef": "treble",
          "pitch": "C4"
        },
        {
          "midi": 52,
          "beat": 0.98,
          "dur": 0.95,
          "vel": 53,
          "clef": "bass",
          "pitch": "E3"
        },
        {
          "midi": 55,
          "beat": 0.99,
          "dur": 0.95,
          "vel": 51,
          "clef": "bass",
          "pitch": "G3"
        },
        {
          "midi": 36,
          "beat": 1,
          "dur": 1.67,
          "vel": 82,
          "clef": "bass",
          "pitch": "C2"
        },
        {
          "midi": 37,
          "beat": 1,
          "dur": 0.02,
          "vel": 87,
          "clef": "bass",
          "acc": "#",
          "pitch": "C#2"
        },
        {
          "midi": 38,
          "beat": 1,
          "dur": 0.02,
          "vel": 113,
          "clef": "bass",
          "pitch": "D2"
        },
        {
          "midi": 44,
          "beat": 1,
          "dur": 0.02,
          "vel": 72,
          "clef": "bass",
          "acc": "#",
          "pitch": "G#2"
        },
        {
          "midi": 48,
          "beat": 1,
          "dur": 1.1,
          "vel": 93,
          "clef": "bass",
          "pitch": "C3"
        },
        {
          "midi": 60,
          "beat": 1,
          "dur": 1.1,
          "vel": 57,
          "clef": "treble",
          "pitch": "C4"
        },
        {
          "midi": 45,
          "beat": 1.02,
          "dur": 0.95,
          "vel": 57,
          "clef": "bass",
          "pitch": "A2"
        },
        {
          "midi": 43,
          "beat": 1.62,
          "dur": 0.53,
          "vel": 93,
          "clef": "bass",
          "pitch": "G2"
        },
        {
          "midi": 55,
          "beat": 1.62,
          "dur": 0.53,
          "vel": 60,
          "clef": "bass",
          "pitch": "G3"
        },
        {
          "midi": 38,
          "beat": 1.65,
          "dur": 0.02,
          "vel": 45,
          "clef": "bass",
          "pitch": "D2"
        },
        {
          "midi": 67,
          "beat": 1.96,
          "dur": 0.54,
          "vel": 84,
          "clef": "treble",
          "pitch": "G4"
        },
        {
          "midi": 72,
          "beat": 1.96,
          "dur": 0.54,
          "vel": 78,
          "clef": "treble",
          "pitch": "C5"
        },
        {
          "midi": 43,
          "beat": 1.98,
          "dur": 0.95,
          "vel": 55,
          "clef": "bass",
          "pitch": "G2"
        },
        {
          "midi": 58,
          "beat": 1.99,
          "dur": 0.95,
          "vel": 60,
          "clef": "bass",
          "acc": "#",
          "pitch": "A#3"
        },
        {
          "midi": 38,
          "beat": 2,
          "dur": 0.02,
          "vel": 112,
          "clef": "bass",
          "pitch": "D2"
        },
        {
          "midi": 43,
          "beat": 2,
          "dur": 1.67,
          "vel": 76,
          "clef": "bass",
          "pitch": "G2"
        },
        {
          "midi": 46,
          "beat": 2,
          "dur": 1.1,
          "vel": 85,
          "clef": "bass",
          "acc": "#",
          "pitch": "A#2"
        },
        {
          "midi": 48,
          "beat": 2,
          "dur": 0.95,
          "vel": 56,
          "clef": "bass",
          "pitch": "C3"
        },
        {
          "midi": 58,
          "beat": 2,
          "dur": 1.1,
          "vel": 64,
          "clef": "bass",
          "acc": "#",
          "pitch": "A#3"
        },
        {
          "midi": 52,
          "beat": 2.02,
          "dur": 0.95,
          "vel": 58,
          "clef": "bass",
          "pitch": "E3"
        },
        {
          "midi": 48,
          "beat": 2.62,
          "dur": 0.53,
          "vel": 93,
          "clef": "bass",
          "pitch": "C3"
        },
        {
          "midi": 60,
          "beat": 2.62,
          "dur": 0.53,
          "vel": 58,
          "clef": "treble",
          "pitch": "C4"
        },
        {
          "midi": 55,
          "beat": 2.71,
          "dur": 0.54,
          "vel": 113,
          "clef": "bass",
          "pitch": "G3"
        },
        {
          "midi": 58,
          "beat": 2.71,
          "dur": 0.54,
          "vel": 115,
          "clef": "bass",
          "acc": "#",
          "pitch": "A#3"
        },
        {
          "midi": 58,
          "beat": 2.97,
          "dur": 0.95,
          "vel": 56,
          "clef": "bass",
          "acc": "#",
          "pitch": "A#3"
        },
        {
          "midi": 37,
          "beat": 3,
          "dur": 0.02,
          "vel": 91,
          "clef": "bass",
          "acc": "#",
          "pitch": "C#2"
        },
        {
          "midi": 38,
          "beat": 3,
          "dur": 0.02,
          "vel": 115,
          "clef": "bass",
          "pitch": "D2"
        },
        {
          "midi": 42,
          "beat": 3,
          "dur": 1,
          "vel": 77,
          "clef": "bass",
          "acc": "#",
          "pitch": "F#2"
        },
        {
          "midi": 43,
          "beat": 3,
          "dur": 0.95,
          "vel": 58,
          "clef": "bass",
          "pitch": "G2"
        },
        {
          "midi": 44,
          "beat": 3,
          "dur": 0.02,
          "vel": 74,
          "clef": "bass",
          "acc": "#",
          "pitch": "G#2"
        },
        {
          "midi": 52,
          "beat": 3.02,
          "dur": 0.95,
          "vel": 56,
          "clef": "bass",
          "pitch": "E3"
        },
        {
          "midi": 48,
          "beat": 3.02,
          "dur": 0.95,
          "vel": 56,
          "clef": "bass",
          "pitch": "C3"
        },
        {
          "midi": 38,
          "beat": 3.65,
          "dur": 0.02,
          "vel": 38,
          "clef": "bass",
          "pitch": "D2"
        },
        {
          "midi": 53,
          "beat": 3.95,
          "dur": 0.05,
          "vel": 51,
          "clef": "bass",
          "pitch": "F3"
        },
        {
          "midi": 69,
          "beat": 3.96,
          "dur": 0.04,
          "vel": 80,
          "clef": "treble",
          "pitch": "A4"
        },
        {
          "midi": 72,
          "beat": 3.96,
          "dur": 0.04,
          "vel": 81,
          "clef": "treble",
          "pitch": "C5"
        }
      ]
    },
    {
      "_": "Treble: 18 notes, Bass: 38 notes",
      "number": 26,
      "notes": [
        {
          "midi": 38,
          "beat": 0,
          "dur": 0.02,
          "vel": 116,
          "clef": "bass",
          "pitch": "D2"
        },
        {
          "midi": 41,
          "beat": 0,
          "dur": 1.67,
          "vel": 82,
          "clef": "bass",
          "pitch": "F2"
        },
        {
          "midi": 69,
          "beat": 0,
          "dur": 2.3,
          "vel": 117,
          "clef": "treble",
          "pitch": "A4"
        },
        {
          "midi": 60,
          "beat": 0.01,
          "dur": 0.95,
          "vel": 55,
          "clef": "treble",
          "pitch": "C4"
        },
        {
          "midi": 45,
          "beat": 0.02,
          "dur": 0.95,
          "vel": 56,
          "clef": "bass",
          "pitch": "A2"
        },
        {
          "midi": 52,
          "beat": 0.02,
          "dur": 0.95,
          "vel": 57,
          "clef": "bass",
          "pitch": "E3"
        },
        {
          "midi": 43,
          "beat": 0.62,
          "dur": 0.53,
          "vel": 93,
          "clef": "bass",
          "pitch": "G2"
        },
        {
          "midi": 55,
          "beat": 0.62,
          "dur": 0.53,
          "vel": 57,
          "clef": "bass",
          "pitch": "G3"
        },
        {
          "midi": 53,
          "beat": 0.71,
          "dur": 0.54,
          "vel": 115,
          "clef": "bass",
          "pitch": "F3"
        },
        {
          "midi": 57,
          "beat": 0.71,
          "dur": 0.54,
          "vel": 111,
          "clef": "bass",
          "pitch": "A3"
        },
        {
          "midi": 45,
          "beat": 0.95,
          "dur": 0.95,
          "vel": 60,
          "clef": "bass",
          "pitch": "A2"
        },
        {
          "midi": 53,
          "beat": 0.98,
          "dur": 0.95,
          "vel": 55,
          "clef": "bass",
          "pitch": "F3"
        },
        {
          "midi": 60,
          "beat": 0.99,
          "dur": 0.95,
          "vel": 52,
          "clef": "treble",
          "pitch": "C4"
        },
        {
          "midi": 37,
          "beat": 1,
          "dur": 0.02,
          "vel": 94,
          "clef": "bass",
          "acc": "#",
          "pitch": "C#2"
        },
        {
          "midi": 38,
          "beat": 1,
          "dur": 0.02,
          "vel": 120,
          "clef": "bass",
          "pitch": "D2"
        },
        {
          "midi": 44,
          "beat": 1,
          "dur": 0.02,
          "vel": 71,
          "clef": "bass",
          "acc": "#",
          "pitch": "G#2"
        },
        {
          "midi": 48,
          "beat": 1,
          "dur": 1.67,
          "vel": 82,
          "clef": "bass",
          "pitch": "C3"
        },
        {
          "midi": 48,
          "beat": 1,
          "dur": 1.1,
          "vel": 86,
          "clef": "bass",
          "pitch": "C3"
        },
        {
          "midi": 52,
          "beat": 1,
          "dur": 0.95,
          "vel": 52,
          "clef": "bass",
          "pitch": "E3"
        },
        {
          "midi": 60,
          "beat": 1,
          "dur": 1.1,
          "vel": 57,
          "clef": "treble",
          "pitch": "C4"
        },
        {
          "midi": 43,
          "beat": 1.63,
          "dur": 0.53,
          "vel": 89,
          "clef": "bass",
          "pitch": "G2"
        },
        {
          "midi": 55,
          "beat": 1.63,
          "dur": 0.53,
          "vel": 65,
          "clef": "bass",
          "pitch": "G3"
        },
        {
          "midi": 38,
          "beat": 1.65,
          "dur": 0.02,
          "vel": 37,
          "clef": "bass",
          "pitch": "D2"
        },
        {
          "midi": 67,
          "beat": 1.67,
          "dur": 0.57,
          "vel": 118,
          "clef": "treble",
          "pitch": "G4"
        },
        {
          "midi": 69,
          "beat": 1.96,
          "dur": 0.54,
          "vel": 77,
          "clef": "treble",
          "pitch": "A4"
        },
        {
          "midi": 72,
          "beat": 1.96,
          "dur": 0.54,
          "vel": 77,
          "clef": "treble",
          "pitch": "C5"
        },
        {
          "midi": 45,
          "beat": 1.98,
          "dur": 0.95,
          "vel": 55,
          "clef": "bass",
          "pitch": "A2"
        },
        {
          "midi": 53,
          "beat": 1.98,
          "dur": 0.95,
          "vel": 52,
          "clef": "bass",
          "pitch": "F3"
        },
        {
          "midi": 38,
          "beat": 2,
          "dur": 0.02,
          "vel": 114,
          "clef": "bass",
          "pitch": "D2"
        },
        {
          "midi": 45,
          "beat": 2,
          "dur": 1.67,
          "vel": 77,
          "clef": "bass",
          "pitch": "A2"
        },
        {
          "midi": 50,
          "beat": 2,
          "dur": 1.1,
          "vel": 85,
          "clef": "bass",
          "pitch": "D3"
        },
        {
          "midi": 52,
          "beat": 2,
          "dur": 0.95,
          "vel": 52,
          "clef": "bass",
          "pitch": "E3"
        },
        {
          "midi": 62,
          "beat": 2,
          "dur": 1.1,
          "vel": 58,
          "clef": "treble",
          "pitch": "D4"
        },
        {
          "midi": 65,
          "beat": 2,
          "dur": 1.15,
          "vel": 115,
          "clef": "treble",
          "pitch": "F4"
        },
        {
          "midi": 60,
          "beat": 2.01,
          "dur": 0.95,
          "vel": 57,
          "clef": "treble",
          "pitch": "C4"
        },
        {
          "midi": 48,
          "beat": 2.63,
          "dur": 0.53,
          "vel": 92,
          "clef": "bass",
          "pitch": "C3"
        },
        {
          "midi": 60,
          "beat": 2.63,
          "dur": 0.53,
          "vel": 57,
          "clef": "treble",
          "pitch": "C4"
        },
        {
          "midi": 57,
          "beat": 2.71,
          "dur": 0.54,
          "vel": 115,
          "clef": "bass",
          "pitch": "A3"
        },
        {
          "midi": 60,
          "beat": 2.71,
          "dur": 0.54,
          "vel": 115,
          "clef": "treble",
          "pitch": "C4"
        },
        {
          "midi": 52,
          "beat": 2.98,
          "dur": 0.95,
          "vel": 58,
          "clef": "bass",
          "pitch": "E3"
        },
        {
          "midi": 60,
          "beat": 2.98,
          "dur": 0.95,
          "vel": 52,
          "clef": "treble",
          "pitch": "C4"
        },
        {
          "midi": 53,
          "beat": 2.99,
          "dur": 0.95,
          "vel": 51,
          "clef": "bass",
          "pitch": "F3"
        },
        {
          "midi": 37,
          "beat": 3,
          "dur": 0.02,
          "vel": 89,
          "clef": "bass",
          "acc": "#",
          "pitch": "C#2"
        },
        {
          "midi": 38,
          "beat": 3,
          "dur": 0.02,
          "vel": 121,
          "clef": "bass",
          "pitch": "D2"
        },
        {
          "midi": 41,
          "beat": 3,
          "dur": 1,
          "vel": 81,
          "clef": "bass",
          "pitch": "F2"
        },
        {
          "midi": 44,
          "beat": 3,
          "dur": 0.02,
          "vel": 69,
          "clef": "bass",
          "acc": "#",
          "pitch": "G#2"
        },
        {
          "midi": 45,
          "beat": 3,
          "dur": 0.95,
          "vel": 60,
          "clef": "bass",
          "pitch": "A2"
        },
        {
          "midi": 64,
          "beat": 3,
          "dur": 1,
          "vel": 120,
          "clef": "treble",
          "pitch": "E4"
        },
        {
          "midi": 38,
          "beat": 3.65,
          "dur": 0.02,
          "vel": 42,
          "clef": "bass",
          "pitch": "D2"
        },
        {
          "midi": 62,
          "beat": 3.67,
          "dur": 0.33,
          "vel": 117,
          "clef": "treble",
          "pitch": "D4"
        },
        {
          "midi": 53,
          "beat": 3.92,
          "dur": 0.08,
          "vel": 53,
          "clef": "bass",
          "pitch": "F3"
        },
        {
          "midi": 71,
          "beat": 3.96,
          "dur": 0.04,
          "vel": 80,
          "clef": "treble",
          "pitch": "B4"
        },
        {
          "midi": 74,
          "beat": 3.96,
          "dur": 0.04,
          "vel": 83,
          "clef": "treble",
          "pitch": "D5"
        },
        {
          "midi": 62,
          "beat": 3.98,
          "dur": 0.02,
          "vel": 53,
          "clef": "treble",
          "pitch": "D4"
        },
        {
          "midi": 47,
          "beat": 3.98,
          "dur": 0.02,
          "vel": 59,
          "clef": "bass",
          "pitch": "B2"
        },
        {
          "midi": 57,
          "beat": 3.99,
          "dur": 0.01,
          "vel": 53,
          "clef": "bass",
          "pitch": "A3"
        }
      ]
    },
    {
      "_": "Treble: 15 notes, Bass: 34 notes",
      "number": 27,
      "notes": [
        {
          "midi": 38,
          "beat": 0,
          "dur": 0.02,
          "vel": 116,
          "clef": "bass",
          "pitch": "D2"
        },
        {
          "midi": 47,
          "beat": 0,
          "dur": 1.67,
          "vel": 83,
          "clef": "bass",
          "pitch": "B2"
        },
        {
          "midi": 45,
          "beat": 0.62,
          "dur": 0.53,
          "vel": 92,
          "clef": "bass",
          "pitch": "A2"
        },
        {
          "midi": 57,
          "beat": 0.62,
          "dur": 0.53,
          "vel": 60,
          "clef": "bass",
          "pitch": "A3"
        },
        {
          "midi": 64,
          "beat": 0.67,
          "dur": 1.15,
          "vel": 116,
          "clef": "treble",
          "pitch": "E4"
        },
        {
          "midi": 59,
          "beat": 0.71,
          "dur": 0.54,
          "vel": 109,
          "clef": "bass",
          "pitch": "B3"
        },
        {
          "midi": 62,
          "beat": 0.71,
          "dur": 0.54,
          "vel": 112,
          "clef": "treble",
          "pitch": "D4"
        },
        {
          "midi": 53,
          "beat": 0.92,
          "dur": 0.95,
          "vel": 53,
          "clef": "bass",
          "pitch": "F3"
        },
        {
          "midi": 57,
          "beat": 0.97,
          "dur": 0.95,
          "vel": 51,
          "clef": "bass",
          "pitch": "A3"
        },
        {
          "midi": 47,
          "beat": 0.98,
          "dur": 0.95,
          "vel": 53,
          "clef": "bass",
          "pitch": "B2"
        },
        {
          "midi": 37,
          "beat": 1,
          "dur": 0.02,
          "vel": 95,
          "clef": "bass",
          "acc": "#",
          "pitch": "C#2"
        },
        {
          "midi": 38,
          "beat": 1,
          "dur": 0.02,
          "vel": 113,
          "clef": "bass",
          "pitch": "D2"
        },
        {
          "midi": 44,
          "beat": 1,
          "dur": 0.02,
          "vel": 70,
          "clef": "bass",
          "acc": "#",
          "pitch": "G#2"
        },
        {
          "midi": 47,
          "beat": 1,
          "dur": 1.67,
          "vel": 83,
          "clef": "bass",
          "pitch": "B2"
        },
        {
          "midi": 50,
          "beat": 1,
          "dur": 1.1,
          "vel": 88,
          "clef": "bass",
          "pitch": "D3"
        },
        {
          "midi": 62,
          "beat": 1,
          "dur": 1.1,
          "vel": 63,
          "clef": "treble",
          "pitch": "D4"
        },
        {
          "midi": 62,
          "beat": 1.02,
          "dur": 0.95,
          "vel": 58,
          "clef": "treble",
          "pitch": "D4"
        },
        {
          "midi": 45,
          "beat": 1.62,
          "dur": 0.53,
          "vel": 93,
          "clef": "bass",
          "pitch": "A2"
        },
        {
          "midi": 57,
          "beat": 1.62,
          "dur": 0.53,
          "vel": 56,
          "clef": "bass",
          "pitch": "A3"
        },
        {
          "midi": 38,
          "beat": 1.65,
          "dur": 0.02,
          "vel": 36,
          "clef": "bass",
          "pitch": "D2"
        },
        {
          "midi": 65,
          "beat": 1.67,
          "dur": 1.72,
          "vel": 112,
          "clef": "treble",
          "pitch": "F4"
        },
        {
          "midi": 71,
          "beat": 1.96,
          "dur": 0.54,
          "vel": 77,
          "clef": "treble",
          "pitch": "B4"
        },
        {
          "midi": 74,
          "beat": 1.96,
          "dur": 0.54,
          "vel": 82,
          "clef": "treble",
          "pitch": "D5"
        },
        {
          "midi": 53,
          "beat": 1.97,
          "dur": 0.95,
          "vel": 53,
          "clef": "bass",
          "pitch": "F3"
        },
        {
          "midi": 47,
          "beat": 1.98,
          "dur": 0.95,
          "vel": 55,
          "clef": "bass",
          "pitch": "B2"
        },
        {
          "midi": 57,
          "beat": 1.99,
          "dur": 0.95,
          "vel": 55,
          "clef": "bass",
          "pitch": "A3"
        },
        {
          "midi": 38,
          "beat": 2,
          "dur": 0.02,
          "vel": 120,
          "clef": "bass",
          "pitch": "D2"
        },
        {
          "midi": 41,
          "beat": 2,
          "dur": 1.67,
          "vel": 85,
          "clef": "bass",
          "pitch": "F2"
        },
        {
          "midi": 51,
          "beat": 2,
          "dur": 1.1,
          "vel": 90,
          "clef": "bass",
          "acc": "#",
          "pitch": "D#3"
        },
        {
          "midi": 63,
          "beat": 2,
          "dur": 1.1,
          "vel": 63,
          "clef": "treble",
          "acc": "#",
          "pitch": "D#4"
        },
        {
          "midi": 62,
          "beat": 2.02,
          "dur": 0.95,
          "vel": 56,
          "clef": "treble",
          "pitch": "D4"
        },
        {
          "midi": 50,
          "beat": 2.62,
          "dur": 0.53,
          "vel": 91,
          "clef": "bass",
          "pitch": "D3"
        },
        {
          "midi": 62,
          "beat": 2.62,
          "dur": 0.53,
          "vel": 65,
          "clef": "treble",
          "pitch": "D4"
        },
        {
          "midi": 59,
          "beat": 2.71,
          "dur": 0.54,
          "vel": 109,
          "clef": "bass",
          "pitch": "B3"
        },
        {
          "midi": 62,
          "beat": 2.71,
          "dur": 0.54,
          "vel": 117,
          "clef": "treble",
          "pitch": "D4"
        },
        {
          "midi": 62,
          "beat": 2.94,
          "dur": 0.95,
          "vel": 53,
          "clef": "treble",
          "pitch": "D4"
        },
        {
          "midi": 53,
          "beat": 2.95,
          "dur": 0.95,
          "vel": 51,
          "clef": "bass",
          "pitch": "F3"
        },
        {
          "midi": 37,
          "beat": 3,
          "dur": 0.02,
          "vel": 91,
          "clef": "bass",
          "acc": "#",
          "pitch": "C#2"
        },
        {
          "midi": 38,
          "beat": 3,
          "dur": 0.02,
          "vel": 119,
          "clef": "bass",
          "pitch": "D2"
        },
        {
          "midi": 41,
          "beat": 3,
          "dur": 1,
          "vel": 84,
          "clef": "bass",
          "pitch": "F2"
        },
        {
          "midi": 44,
          "beat": 3,
          "dur": 0.02,
          "vel": 68,
          "clef": "bass",
          "acc": "#",
          "pitch": "G#2"
        },
        {
          "midi": 69,
          "beat": 3,
          "dur": 1,
          "vel": 121,
          "clef": "treble",
          "pitch": "A4"
        },
        {
          "midi": 47,
          "beat": 3.02,
          "dur": 0.95,
          "vel": 59,
          "clef": "bass",
          "pitch": "B2"
        },
        {
          "midi": 57,
          "beat": 3.03,
          "dur": 0.95,
          "vel": 54,
          "clef": "bass",
          "pitch": "A3"
        },
        {
          "midi": 38,
          "beat": 3.65,
          "dur": 0.02,
          "vel": 45,
          "clef": "bass",
          "pitch": "D2"
        },
        {
          "midi": 35,
          "beat": 3.67,
          "dur": 0.33,
          "vel": 82,
          "clef": "bass",
          "pitch": "B1"
        },
        {
          "midi": 68,
          "beat": 3.96,
          "dur": 0.04,
          "vel": 79,
          "clef": "treble",
          "acc": "#",
          "pitch": "G#4"
        },
        {
          "midi": 71,
          "beat": 3.96,
          "dur": 0.04,
          "vel": 78,
          "clef": "treble",
          "pitch": "B4"
        },
        {
          "midi": 53,
          "beat": 3.96,
          "dur": 0.04,
          "vel": 52,
          "clef": "bass",
          "pitch": "F3"
        }
      ]
    },
    {
      "_": "Treble: 19 notes, Bass: 43 notes",
      "number": 28,
      "notes": [
        {
          "midi": 56,
          "beat": -0.01,
          "dur": 0.95,
          "vel": 57,
          "clef": "bass",
          "acc": "#",
          "pitch": "G#3"
        },
        {
          "midi": 38,
          "beat": 0,
          "dur": 0.02,
          "vel": 115,
          "clef": "bass",
          "pitch": "D2"
        },
        {
          "midi": 40,
          "beat": 0,
          "dur": 1.67,
          "vel": 85,
          "clef": "bass",
          "pitch": "E2"
        },
        {
          "midi": 68,
          "beat": 0,
          "dur": 1.72,
          "vel": 116,
          "clef": "treble",
          "acc": "#",
          "pitch": "G#4"
        },
        {
          "midi": 47,
          "beat": 0.02,
          "dur": 0.95,
          "vel": 59,
          "clef": "bass",
          "pitch": "B2"
        },
        {
          "midi": 62,
          "beat": 0.02,
          "dur": 0.95,
          "vel": 55,
          "clef": "treble",
          "pitch": "D4"
        },
        {
          "midi": 52,
          "beat": 0.63,
          "dur": 1.67,
          "vel": 91,
          "clef": "bass",
          "pitch": "E3"
        },
        {
          "midi": 64,
          "beat": 0.63,
          "dur": 1.67,
          "vel": 63,
          "clef": "treble",
          "pitch": "E4"
        },
        {
          "midi": 64,
          "beat": 0.66,
          "dur": 1.67,
          "vel": 100,
          "clef": "treble",
          "pitch": "E4"
        },
        {
          "midi": 56,
          "beat": 0.71,
          "dur": 0.54,
          "vel": 113,
          "clef": "bass",
          "acc": "#",
          "pitch": "G#3"
        },
        {
          "midi": 62,
          "beat": 0.71,
          "dur": 0.54,
          "vel": 114,
          "clef": "treble",
          "pitch": "D4"
        },
        {
          "midi": 53,
          "beat": 0.97,
          "dur": 0.95,
          "vel": 53,
          "clef": "bass",
          "pitch": "F3"
        },
        {
          "midi": 56,
          "beat": 0.98,
          "dur": 0.95,
          "vel": 53,
          "clef": "bass",
          "acc": "#",
          "pitch": "G#3"
        },
        {
          "midi": 47,
          "beat": 0.98,
          "dur": 0.95,
          "vel": 54,
          "clef": "bass",
          "pitch": "B2"
        },
        {
          "midi": 37,
          "beat": 1,
          "dur": 0.02,
          "vel": 87,
          "clef": "bass",
          "acc": "#",
          "pitch": "C#2"
        },
        {
          "midi": 38,
          "beat": 1,
          "dur": 1.08,
          "vel": 83,
          "clef": "bass",
          "pitch": "D2"
        },
        {
          "midi": 38,
          "beat": 1,
          "dur": 0.02,
          "vel": 118,
          "clef": "bass",
          "pitch": "D2"
        },
        {
          "midi": 44,
          "beat": 1,
          "dur": 0.02,
          "vel": 67,
          "clef": "bass",
          "acc": "#",
          "pitch": "G#2"
        },
        {
          "midi": 62,
          "beat": 1,
          "dur": 0.95,
          "vel": 54,
          "clef": "treble",
          "pitch": "D4"
        },
        {
          "midi": 65,
          "beat": 1,
          "dur": 2.3,
          "vel": 112,
          "clef": "treble",
          "pitch": "F4"
        },
        {
          "midi": 38,
          "beat": 1.65,
          "dur": 0.02,
          "vel": 37,
          "clef": "bass",
          "pitch": "D2"
        },
        {
          "midi": 35,
          "beat": 1.67,
          "dur": 0.52,
          "vel": 83,
          "clef": "bass",
          "pitch": "B1"
        },
        {
          "midi": 46,
          "beat": 1.67,
          "dur": 0.33,
          "vel": 94,
          "clef": "bass",
          "acc": "#",
          "pitch": "A#2"
        },
        {
          "midi": 58,
          "beat": 1.67,
          "dur": 0.4,
          "vel": 94,
          "clef": "bass",
          "acc": "#",
          "pitch": "A#3"
        },
        {
          "midi": 58,
          "beat": 1.67,
          "dur": 0.32,
          "vel": 58,
          "clef": "bass",
          "acc": "#",
          "pitch": "A#3"
        },
        {
          "midi": 45,
          "beat": 1.83,
          "dur": 0.33,
          "vel": 88,
          "clef": "bass",
          "pitch": "A2"
        },
        {
          "midi": 57,
          "beat": 1.83,
          "dur": 0.36,
          "vel": 60,
          "clef": "bass",
          "pitch": "A3"
        },
        {
          "midi": 57,
          "beat": 1.87,
          "dur": 0.27,
          "vel": 102,
          "clef": "bass",
          "pitch": "A3"
        },
        {
          "midi": 68,
          "beat": 1.96,
          "dur": 0.54,
          "vel": 80,
          "clef": "treble",
          "acc": "#",
          "pitch": "G#4"
        },
        {
          "midi": 71,
          "beat": 1.96,
          "dur": 0.54,
          "vel": 82,
          "clef": "treble",
          "pitch": "B4"
        },
        {
          "midi": 56,
          "beat": 1.98,
          "dur": 0.95,
          "vel": 56,
          "clef": "bass",
          "acc": "#",
          "pitch": "G#3"
        },
        {
          "midi": 32,
          "beat": 2,
          "dur": 1.67,
          "vel": 84,
          "clef": "bass",
          "acc": "#",
          "pitch": "G#1"
        },
        {
          "midi": 38,
          "beat": 2,
          "dur": 0.02,
          "vel": 120,
          "clef": "bass",
          "pitch": "D2"
        },
        {
          "midi": 43,
          "beat": 2,
          "dur": 1.1,
          "vel": 94,
          "clef": "bass",
          "pitch": "G2"
        },
        {
          "midi": 55,
          "beat": 2,
          "dur": 1.1,
          "vel": 95,
          "clef": "bass",
          "pitch": "G3"
        },
        {
          "midi": 55,
          "beat": 2,
          "dur": 1.1,
          "vel": 65,
          "clef": "bass",
          "pitch": "G3"
        },
        {
          "midi": 62,
          "beat": 2,
          "dur": 0.95,
          "vel": 60,
          "clef": "treble",
          "pitch": "D4"
        },
        {
          "midi": 53,
          "beat": 2.01,
          "dur": 0.95,
          "vel": 58,
          "clef": "bass",
          "pitch": "F3"
        },
        {
          "midi": 47,
          "beat": 2.02,
          "dur": 0.95,
          "vel": 59,
          "clef": "bass",
          "pitch": "B2"
        },
        {
          "midi": 45,
          "beat": 2.62,
          "dur": 0.53,
          "vel": 94,
          "clef": "bass",
          "pitch": "A2"
        },
        {
          "midi": 57,
          "beat": 2.62,
          "dur": 0.53,
          "vel": 60,
          "clef": "bass",
          "pitch": "A3"
        },
        {
          "midi": 57,
          "beat": 2.66,
          "dur": 0.53,
          "vel": 103,
          "clef": "bass",
          "pitch": "A3"
        },
        {
          "midi": 64,
          "beat": 2.67,
          "dur": 1.33,
          "vel": 121,
          "clef": "treble",
          "pitch": "E4"
        },
        {
          "midi": 56,
          "beat": 2.71,
          "dur": 0.54,
          "vel": 109,
          "clef": "bass",
          "acc": "#",
          "pitch": "G#3"
        },
        {
          "midi": 62,
          "beat": 2.71,
          "dur": 0.54,
          "vel": 116,
          "clef": "treble",
          "pitch": "D4"
        },
        {
          "midi": 53,
          "beat": 2.98,
          "dur": 0.95,
          "vel": 60,
          "clef": "bass",
          "pitch": "F3"
        },
        {
          "midi": 56,
          "beat": 2.98,
          "dur": 0.95,
          "vel": 56,
          "clef": "bass",
          "acc": "#",
          "pitch": "G#3"
        },
        {
          "midi": 32,
          "beat": 3,
          "dur": 1,
          "vel": 79,
          "clef": "bass",
          "acc": "#",
          "pitch": "G#1"
        },
        {
          "midi": 37,
          "beat": 3,
          "dur": 0.02,
          "vel": 95,
          "clef": "bass",
          "acc": "#",
          "pitch": "C#2"
        },
        {
          "midi": 38,
          "beat": 3,
          "dur": 0.02,
          "vel": 112,
          "clef": "bass",
          "pitch": "D2"
        },
        {
          "midi": 44,
          "beat": 3,
          "dur": 0.02,
          "vel": 70,
          "clef": "bass",
          "acc": "#",
          "pitch": "G#2"
        },
        {
          "midi": 47,
          "beat": 3.02,
          "dur": 0.95,
          "vel": 55,
          "clef": "bass",
          "pitch": "B2"
        },
        {
          "midi": 62,
          "beat": 3.02,
          "dur": 0.95,
          "vel": 58,
          "clef": "treble",
          "pitch": "D4"
        },
        {
          "midi": 52,
          "beat": 3.62,
          "dur": 0.38,
          "vel": 86,
          "clef": "bass",
          "pitch": "E3"
        },
        {
          "midi": 64,
          "beat": 3.62,
          "dur": 0.38,
          "vel": 58,
          "clef": "treble",
          "pitch": "E4"
        },
        {
          "midi": 38,
          "beat": 3.65,
          "dur": 0.02,
          "vel": 37,
          "clef": "bass",
          "pitch": "D2"
        },
        {
          "midi": 64,
          "beat": 3.66,
          "dur": 0.34,
          "vel": 102,
          "clef": "treble",
          "pitch": "E4"
        },
        {
          "midi": 62,
          "beat": 3.67,
          "dur": 0.33,
          "vel": 117,
          "clef": "treble",
          "pitch": "D4"
        },
        {
          "midi": 69,
          "beat": 3.96,
          "dur": 0.04,
          "vel": 81,
          "clef": "treble",
          "pitch": "A4"
        },
        {
          "midi": 72,
          "beat": 3.96,
          "dur": 0.04,
          "vel": 76,
          "clef": "treble",
          "pitch": "C5"
        },
        {
          "midi": 60,
          "beat": 3.98,
          "dur": 0.02,
          "vel": 51,
          "clef": "treble",
          "pitch": "C4"
        },
        {
          "midi": 55,
          "beat": 3.98,
          "dur": 0.02,
          "vel": 53,
          "clef": "bass",
          "pitch": "G3"
        }
      ]
    },
    {
      "_": "Treble: 14 notes, Bass: 45 notes",
      "number": 29,
      "notes": [
        {
          "midi": 33,
          "beat": 0,
          "dur": 1.67,
          "vel": 85,
          "clef": "bass",
          "pitch": "A1"
        },
        {
          "midi": 38,
          "beat": 0,
          "dur": 0.02,
          "vel": 116,
          "clef": "bass",
          "pitch": "D2"
        },
        {
          "midi": 60,
          "beat": 0,
          "dur": 4,
          "vel": 113,
          "clef": "treble",
          "pitch": "C4"
        },
        {
          "midi": 45,
          "beat": 0.02,
          "dur": 0.95,
          "vel": 59,
          "clef": "bass",
          "pitch": "A2"
        },
        {
          "midi": 52,
          "beat": 0.02,
          "dur": 0.95,
          "vel": 58,
          "clef": "bass",
          "pitch": "E3"
        },
        {
          "midi": 46,
          "beat": 0.67,
          "dur": 0.3,
          "vel": 87,
          "clef": "bass",
          "acc": "#",
          "pitch": "A#2"
        },
        {
          "midi": 58,
          "beat": 0.67,
          "dur": 0.36,
          "vel": 57,
          "clef": "bass",
          "acc": "#",
          "pitch": "A#3"
        },
        {
          "midi": 59,
          "beat": 0.67,
          "dur": 0.39,
          "vel": 95,
          "clef": "bass",
          "pitch": "B3"
        },
        {
          "midi": 57,
          "beat": 0.71,
          "dur": 0.54,
          "vel": 112,
          "clef": "bass",
          "pitch": "A3"
        },
        {
          "midi": 60,
          "beat": 0.71,
          "dur": 0.54,
          "vel": 113,
          "clef": "treble",
          "pitch": "C4"
        },
        {
          "midi": 47,
          "beat": 0.83,
          "dur": 0.35,
          "vel": 86,
          "clef": "bass",
          "pitch": "B2"
        },
        {
          "midi": 59,
          "beat": 0.83,
          "dur": 0.36,
          "vel": 63,
          "clef": "bass",
          "pitch": "B3"
        },
        {
          "midi": 58,
          "beat": 0.87,
          "dur": 0.29,
          "vel": 95,
          "clef": "bass",
          "acc": "#",
          "pitch": "A#3"
        },
        {
          "midi": 45,
          "beat": 0.98,
          "dur": 0.95,
          "vel": 55,
          "clef": "bass",
          "pitch": "A2"
        },
        {
          "midi": 52,
          "beat": 0.98,
          "dur": 0.95,
          "vel": 58,
          "clef": "bass",
          "pitch": "E3"
        },
        {
          "midi": 55,
          "beat": 0.99,
          "dur": 0.95,
          "vel": 52,
          "clef": "bass",
          "pitch": "G3"
        },
        {
          "midi": 35,
          "beat": 1,
          "dur": 1.67,
          "vel": 81,
          "clef": "bass",
          "pitch": "B1"
        },
        {
          "midi": 37,
          "beat": 1,
          "dur": 0.02,
          "vel": 92,
          "clef": "bass",
          "acc": "#",
          "pitch": "C#2"
        },
        {
          "midi": 38,
          "beat": 1,
          "dur": 0.02,
          "vel": 112,
          "clef": "bass",
          "pitch": "D2"
        },
        {
          "midi": 44,
          "beat": 1,
          "dur": 0.02,
          "vel": 67,
          "clef": "bass",
          "acc": "#",
          "pitch": "G#2"
        },
        {
          "midi": 45,
          "beat": 1,
          "dur": 1.1,
          "vel": 85,
          "clef": "bass",
          "pitch": "A2"
        },
        {
          "midi": 57,
          "beat": 1,
          "dur": 1.1,
          "vel": 102,
          "clef": "bass",
          "pitch": "A3"
        },
        {
          "midi": 57,
          "beat": 1,
          "dur": 1.1,
          "vel": 61,
          "clef": "bass",
          "pitch": "A3"
        },
        {
          "midi": 60,
          "beat": 1.01,
          "dur": 0.95,
          "vel": 54,
          "clef": "treble",
          "pitch": "C4"
        },
        {
          "midi": 48,
          "beat": 1.62,
          "dur": 0.53,
          "vel": 90,
          "clef": "bass",
          "pitch": "C3"
        },
        {
          "midi": 60,
          "beat": 1.62,
          "dur": 0.53,
          "vel": 63,
          "clef": "treble",
          "pitch": "C4"
        },
        {
          "midi": 38,
          "beat": 1.65,
          "dur": 0.02,
          "vel": 43,
          "clef": "bass",
          "pitch": "D2"
        },
        {
          "midi": 60,
          "beat": 1.66,
          "dur": 0.53,
          "vel": 102,
          "clef": "treble",
          "pitch": "C4"
        },
        {
          "midi": 61,
          "beat": 1.95,
          "dur": 0.95,
          "vel": 52,
          "clef": "treble",
          "acc": "#",
          "pitch": "C#4"
        },
        {
          "midi": 36,
          "beat": 2,
          "dur": 1.67,
          "vel": 78,
          "clef": "bass",
          "pitch": "C2"
        },
        {
          "midi": 38,
          "beat": 2,
          "dur": 0.02,
          "vel": 118,
          "clef": "bass",
          "pitch": "D2"
        },
        {
          "midi": 67,
          "beat": 2,
          "dur": 0.54,
          "vel": 79,
          "clef": "treble",
          "pitch": "G4"
        },
        {
          "midi": 73,
          "beat": 2,
          "dur": 0.54,
          "vel": 77,
          "clef": "treble",
          "acc": "#",
          "pitch": "C#5"
        },
        {
          "midi": 46,
          "beat": 2.02,
          "dur": 0.95,
          "vel": 58,
          "clef": "bass",
          "acc": "#",
          "pitch": "A#2"
        },
        {
          "midi": 52,
          "beat": 2.02,
          "dur": 0.95,
          "vel": 54,
          "clef": "bass",
          "pitch": "E3"
        },
        {
          "midi": 55,
          "beat": 2.02,
          "dur": 0.95,
          "vel": 59,
          "clef": "bass",
          "pitch": "G3"
        },
        {
          "midi": 55,
          "beat": 2.92,
          "dur": 0.54,
          "vel": 115,
          "clef": "bass",
          "pitch": "G3"
        },
        {
          "midi": 58,
          "beat": 2.92,
          "dur": 0.54,
          "vel": 113,
          "clef": "bass",
          "acc": "#",
          "pitch": "A#3"
        },
        {
          "midi": 46,
          "beat": 2.98,
          "dur": 0.95,
          "vel": 58,
          "clef": "bass",
          "acc": "#",
          "pitch": "A#2"
        },
        {
          "midi": 52,
          "beat": 2.98,
          "dur": 0.95,
          "vel": 55,
          "clef": "bass",
          "pitch": "E3"
        },
        {
          "midi": 55,
          "beat": 2.98,
          "dur": 0.95,
          "vel": 55,
          "clef": "bass",
          "pitch": "G3"
        },
        {
          "midi": 37,
          "beat": 3,
          "dur": 1,
          "vel": 83,
          "clef": "bass",
          "acc": "#",
          "pitch": "C#2"
        },
        {
          "midi": 37,
          "beat": 3,
          "dur": 0.02,
          "vel": 93,
          "clef": "bass",
          "acc": "#",
          "pitch": "C#2"
        },
        {
          "midi": 38,
          "beat": 3,
          "dur": 0.02,
          "vel": 117,
          "clef": "bass",
          "pitch": "D2"
        },
        {
          "midi": 44,
          "beat": 3,
          "dur": 0.02,
          "vel": 68,
          "clef": "bass",
          "acc": "#",
          "pitch": "G#2"
        },
        {
          "midi": 61,
          "beat": 3.02,
          "dur": 0.95,
          "vel": 57,
          "clef": "treble",
          "acc": "#",
          "pitch": "C#4"
        },
        {
          "midi": 45,
          "beat": 3.63,
          "dur": 0.37,
          "vel": 92,
          "clef": "bass",
          "pitch": "A2"
        },
        {
          "midi": 53,
          "beat": 3.63,
          "dur": 0.37,
          "vel": 117,
          "clef": "bass",
          "pitch": "F3"
        },
        {
          "midi": 57,
          "beat": 3.63,
          "dur": 0.37,
          "vel": 109,
          "clef": "bass",
          "pitch": "A3"
        },
        {
          "midi": 57,
          "beat": 3.63,
          "dur": 0.37,
          "vel": 58,
          "clef": "bass",
          "pitch": "A3"
        },
        {
          "midi": 65,
          "beat": 3.63,
          "dur": 0.37,
          "vel": 76,
          "clef": "treble",
          "pitch": "F4"
        },
        {
          "midi": 74,
          "beat": 3.63,
          "dur": 0.37,
          "vel": 78,
          "clef": "treble",
          "pitch": "D5"
        },
        {
          "midi": 38,
          "beat": 3.65,
          "dur": 0.02,
          "vel": 38,
          "clef": "bass",
          "pitch": "D2"
        },
        {
          "midi": 53,
          "beat": 3.66,
          "dur": 0.34,
          "vel": 103,
          "clef": "bass",
          "pitch": "F3"
        },
        {
          "midi": 62,
          "beat": 3.66,
          "dur": 0.34,
          "vel": 94,
          "clef": "treble",
          "pitch": "D4"
        },
        {
          "midi": 61,
          "beat": 3.67,
          "dur": 0.33,
          "vel": 121,
          "clef": "treble",
          "acc": "#",
          "pitch": "C#4"
        },
        {
          "midi": 53,
          "beat": 3.96,
          "dur": 0.04,
          "vel": 57,
          "clef": "bass",
          "pitch": "F3"
        },
        {
          "midi": 62,
          "beat": 3.97,
          "dur": 0.03,
          "vel": 51,
          "clef": "treble",
          "pitch": "D4"
        },
        {
          "midi": 57,
          "beat": 3.98,
          "dur": 0.02,
          "vel": 53,
          "clef": "bass",
          "pitch": "A3"
        }
      ]
    },
    {
      "_": "Treble: 11 notes, Bass: 25 notes",
      "number": 30,
      "notes": [
        {
          "midi": 38,
          "beat": 0,
          "dur": 1.67,
          "vel": 80,
          "clef": "bass",
          "pitch": "D2"
        },
        {
          "midi": 48,
          "beat": 0,
          "dur": 0.95,
          "vel": 52,
          "clef": "bass",
          "pitch": "C3"
        },
        {
          "midi": 51,
          "beat": 0,
          "dur": 0.02,
          "vel": 68,
          "clef": "bass",
          "acc": "#",
          "pitch": "D#3"
        },
        {
          "midi": 62,
          "beat": 0,
          "dur": 1.15,
          "vel": 112,
          "clef": "treble",
          "pitch": "D4"
        },
        {
          "midi": 74,
          "beat": 0.07,
          "dur": 0.85,
          "vel": 105,
          "clef": "treble",
          "pitch": "D5"
        },
        {
          "midi": 69,
          "beat": 0.67,
          "dur": 1.72,
          "vel": 115,
          "clef": "treble",
          "pitch": "A4"
        },
        {
          "midi": 48,
          "beat": 0.98,
          "dur": 0.95,
          "vel": 60,
          "clef": "bass",
          "pitch": "C3"
        },
        {
          "midi": 37,
          "beat": 1,
          "dur": 0.02,
          "vel": 87,
          "clef": "bass",
          "acc": "#",
          "pitch": "C#2"
        },
        {
          "midi": 40,
          "beat": 1,
          "dur": 1.67,
          "vel": 79,
          "clef": "bass",
          "pitch": "E2"
        },
        {
          "midi": 44,
          "beat": 1,
          "dur": 0.02,
          "vel": 76,
          "clef": "bass",
          "acc": "#",
          "pitch": "G#2"
        },
        {
          "midi": 51,
          "beat": 1,
          "dur": 0.02,
          "vel": 76,
          "clef": "bass",
          "acc": "#",
          "pitch": "D#3"
        },
        {
          "midi": 53,
          "beat": 1.01,
          "dur": 0.95,
          "vel": 56,
          "clef": "bass",
          "pitch": "F3"
        },
        {
          "midi": 57,
          "beat": 1.01,
          "dur": 0.95,
          "vel": 52,
          "clef": "bass",
          "pitch": "A3"
        },
        {
          "midi": 62,
          "beat": 1.02,
          "dur": 0.95,
          "vel": 54,
          "clef": "treble",
          "pitch": "D4"
        },
        {
          "midi": 74,
          "beat": 1.02,
          "dur": 0.85,
          "vel": 98,
          "clef": "treble",
          "pitch": "D5"
        },
        {
          "midi": 51,
          "beat": 1.65,
          "dur": 0.02,
          "vel": 34,
          "clef": "bass",
          "acc": "#",
          "pitch": "D#3"
        },
        {
          "midi": 69,
          "beat": 1.67,
          "dur": 2.33,
          "vel": 116,
          "clef": "treble",
          "pitch": "A4"
        },
        {
          "midi": 53,
          "beat": 1.96,
          "dur": 0.95,
          "vel": 56,
          "clef": "bass",
          "pitch": "F3"
        },
        {
          "midi": 74,
          "beat": 1.98,
          "dur": 0.85,
          "vel": 103,
          "clef": "treble",
          "pitch": "D5"
        },
        {
          "midi": 41,
          "beat": 2,
          "dur": 1.67,
          "vel": 76,
          "clef": "bass",
          "pitch": "F2"
        },
        {
          "midi": 48,
          "beat": 2,
          "dur": 0.95,
          "vel": 52,
          "clef": "bass",
          "pitch": "C3"
        },
        {
          "midi": 51,
          "beat": 2,
          "dur": 0.02,
          "vel": 70,
          "clef": "bass",
          "acc": "#",
          "pitch": "D#3"
        },
        {
          "midi": 62,
          "beat": 2,
          "dur": 0.95,
          "vel": 51,
          "clef": "treble",
          "pitch": "D4"
        },
        {
          "midi": 57,
          "beat": 2.03,
          "dur": 0.95,
          "vel": 59,
          "clef": "bass",
          "pitch": "A3"
        },
        {
          "midi": 74,
          "beat": 2.97,
          "dur": 0.85,
          "vel": 102,
          "clef": "treble",
          "pitch": "D5"
        },
        {
          "midi": 62,
          "beat": 2.97,
          "dur": 0.95,
          "vel": 55,
          "clef": "treble",
          "pitch": "D4"
        },
        {
          "midi": 48,
          "beat": 2.99,
          "dur": 0.95,
          "vel": 52,
          "clef": "bass",
          "pitch": "C3"
        },
        {
          "midi": 37,
          "beat": 3,
          "dur": 0.02,
          "vel": 87,
          "clef": "bass",
          "acc": "#",
          "pitch": "C#2"
        },
        {
          "midi": 42,
          "beat": 3,
          "dur": 1,
          "vel": 80,
          "clef": "bass",
          "acc": "#",
          "pitch": "F#2"
        },
        {
          "midi": 44,
          "beat": 3,
          "dur": 0.02,
          "vel": 68,
          "clef": "bass",
          "acc": "#",
          "pitch": "G#2"
        },
        {
          "midi": 51,
          "beat": 3,
          "dur": 0.02,
          "vel": 75,
          "clef": "bass",
          "acc": "#",
          "pitch": "D#3"
        },
        {
          "midi": 53,
          "beat": 3.01,
          "dur": 0.95,
          "vel": 58,
          "clef": "bass",
          "pitch": "F3"
        },
        {
          "midi": 57,
          "beat": 3.02,
          "dur": 0.95,
          "vel": 55,
          "clef": "bass",
          "pitch": "A3"
        },
        {
          "midi": 51,
          "beat": 3.65,
          "dur": 0.02,
          "vel": 34,
          "clef": "bass",
          "acc": "#",
          "pitch": "D#3"
        },
        {
          "midi": 53,
          "beat": 3.98,
          "dur": 0.02,
          "vel": 60,
          "clef": "bass",
          "pitch": "F3"
        },
        {
          "midi": 74,
          "beat": 3.99,
          "dur": 0.01,
          "vel": 103,
          "clef": "treble",
          "pitch": "D5"
        }
      ]
    },
    {
      "_": "Treble: 13 notes, Bass: 24 notes",
      "number": 31,
      "notes": [
        {
          "midi": 43,
          "beat": 0,
          "dur": 1.67,
          "vel": 84,
          "clef": "bass",
          "pitch": "G2"
        },
        {
          "midi": 47,
          "beat": 0,
          "dur": 0.95,
          "vel": 60,
          "clef": "bass",
          "pitch": "B2"
        },
        {
          "midi": 51,
          "beat": 0,
          "dur": 0.02,
          "vel": 70,
          "clef": "bass",
          "acc": "#",
          "pitch": "D#3"
        },
        {
          "midi": 62,
          "beat": 0.02,
          "dur": 0.95,
          "vel": 59,
          "clef": "treble",
          "pitch": "D4"
        },
        {
          "midi": 57,
          "beat": 0.03,
          "dur": 0.95,
          "vel": 56,
          "clef": "bass",
          "pitch": "A3"
        },
        {
          "midi": 47,
          "beat": 0.98,
          "dur": 0.95,
          "vel": 56,
          "clef": "bass",
          "pitch": "B2"
        },
        {
          "midi": 37,
          "beat": 1,
          "dur": 0.02,
          "vel": 93,
          "clef": "bass",
          "acc": "#",
          "pitch": "C#2"
        },
        {
          "midi": 41,
          "beat": 1,
          "dur": 1.67,
          "vel": 82,
          "clef": "bass",
          "pitch": "F2"
        },
        {
          "midi": 44,
          "beat": 1,
          "dur": 0.02,
          "vel": 70,
          "clef": "bass",
          "acc": "#",
          "pitch": "G#2"
        },
        {
          "midi": 51,
          "beat": 1,
          "dur": 0.02,
          "vel": 76,
          "clef": "bass",
          "acc": "#",
          "pitch": "D#3"
        },
        {
          "midi": 53,
          "beat": 1.01,
          "dur": 0.95,
          "vel": 56,
          "clef": "bass",
          "pitch": "F3"
        },
        {
          "midi": 62,
          "beat": 1.02,
          "dur": 0.95,
          "vel": 59,
          "clef": "treble",
          "pitch": "D4"
        },
        {
          "midi": 57,
          "beat": 1.03,
          "dur": 0.95,
          "vel": 55,
          "clef": "bass",
          "pitch": "A3"
        },
        {
          "midi": 74,
          "beat": 1.04,
          "dur": 0.79,
          "vel": 106,
          "clef": "treble",
          "pitch": "D5"
        },
        {
          "midi": 72,
          "beat": 1.67,
          "dur": 1.15,
          "vel": 120,
          "clef": "treble",
          "pitch": "C5"
        },
        {
          "midi": 53,
          "beat": 1.94,
          "dur": 0.95,
          "vel": 60,
          "clef": "bass",
          "pitch": "F3"
        },
        {
          "midi": 57,
          "beat": 1.97,
          "dur": 0.95,
          "vel": 51,
          "clef": "bass",
          "pitch": "A3"
        },
        {
          "midi": 40,
          "beat": 2,
          "dur": 1.67,
          "vel": 83,
          "clef": "bass",
          "pitch": "E2"
        },
        {
          "midi": 51,
          "beat": 2,
          "dur": 0.02,
          "vel": 69,
          "clef": "bass",
          "acc": "#",
          "pitch": "D#3"
        },
        {
          "midi": 62,
          "beat": 2,
          "dur": 0.95,
          "vel": 52,
          "clef": "treble",
          "pitch": "D4"
        },
        {
          "midi": 47,
          "beat": 2.02,
          "dur": 0.95,
          "vel": 57,
          "clef": "bass",
          "pitch": "B2"
        },
        {
          "midi": 74,
          "beat": 2.02,
          "dur": 1.04,
          "vel": 104,
          "clef": "treble",
          "pitch": "D5"
        },
        {
          "midi": 71,
          "beat": 2.7,
          "dur": 0.5,
          "vel": 105,
          "clef": "treble",
          "pitch": "B4"
        },
        {
          "midi": 62,
          "beat": 2.98,
          "dur": 0.95,
          "vel": 57,
          "clef": "treble",
          "pitch": "D4"
        },
        {
          "midi": 57,
          "beat": 2.98,
          "dur": 0.95,
          "vel": 57,
          "clef": "bass",
          "pitch": "A3"
        },
        {
          "midi": 53,
          "beat": 2.98,
          "dur": 0.95,
          "vel": 54,
          "clef": "bass",
          "pitch": "F3"
        },
        {
          "midi": 37,
          "beat": 3,
          "dur": 0.02,
          "vel": 94,
          "clef": "bass",
          "acc": "#",
          "pitch": "C#2"
        },
        {
          "midi": 38,
          "beat": 3,
          "dur": 1,
          "vel": 77,
          "clef": "bass",
          "pitch": "D2"
        },
        {
          "midi": 44,
          "beat": 3,
          "dur": 0.02,
          "vel": 73,
          "clef": "bass",
          "acc": "#",
          "pitch": "G#2"
        },
        {
          "midi": 51,
          "beat": 3,
          "dur": 0.02,
          "vel": 68,
          "clef": "bass",
          "acc": "#",
          "pitch": "D#3"
        },
        {
          "midi": 71,
          "beat": 3,
          "dur": 1,
          "vel": 113,
          "clef": "treble",
          "pitch": "B4"
        },
        {
          "midi": 47,
          "beat": 3.02,
          "dur": 0.95,
          "vel": 55,
          "clef": "bass",
          "pitch": "B2"
        },
        {
          "midi": 69,
          "beat": 3.02,
          "dur": 0.95,
          "vel": 103,
          "clef": "treble",
          "pitch": "A4"
        },
        {
          "midi": 67,
          "beat": 3.67,
          "dur": 0.33,
          "vel": 117,
          "clef": "treble",
          "pitch": "G4"
        },
        {
          "midi": 64,
          "beat": 3.73,
          "dur": 0.27,
          "vel": 101,
          "clef": "treble",
          "pitch": "E4"
        },
        {
          "midi": 45,
          "beat": 3.98,
          "dur": 0.02,
          "vel": 53,
          "clef": "bass",
          "pitch": "A2"
        },
        {
          "midi": 62,
          "beat": 3.98,
          "dur": 0.02,
          "vel": 52,
          "clef": "treble",
          "pitch": "D4"
        }
      ]
    },
    {
      "_": "Treble: 29 notes, Bass: 47 notes",
      "number": 32,
      "notes": [
        {
          "midi": 36,
          "beat": 0,
          "dur": 1.67,
          "vel": 78,
          "clef": "bass",
          "pitch": "C2"
        },
        {
          "midi": 51,
          "beat": 0,
          "dur": 0.02,
          "vel": 68,
          "clef": "bass",
          "acc": "#",
          "pitch": "D#3"
        },
        {
          "midi": 52,
          "beat": 0.02,
          "dur": 0.95,
          "vel": 59,
          "clef": "bass",
          "pitch": "E3"
        },
        {
          "midi": 55,
          "beat": 0.02,
          "dur": 0.95,
          "vel": 55,
          "clef": "bass",
          "pitch": "G3"
        },
        {
          "midi": 67,
          "beat": 0.02,
          "dur": 0.85,
          "vel": 106,
          "clef": "treble",
          "pitch": "G4"
        },
        {
          "midi": 36,
          "beat": 0.63,
          "dur": 0.53,
          "vel": 89,
          "clef": "bass",
          "pitch": "C2"
        },
        {
          "midi": 52,
          "beat": 0.63,
          "dur": 0.54,
          "vel": 109,
          "clef": "bass",
          "pitch": "E3"
        },
        {
          "midi": 58,
          "beat": 0.63,
          "dur": 0.54,
          "vel": 116,
          "clef": "bass",
          "acc": "#",
          "pitch": "A#3"
        },
        {
          "midi": 62,
          "beat": 0.63,
          "dur": 0.54,
          "vel": 110,
          "clef": "treble",
          "pitch": "D4"
        },
        {
          "midi": 64,
          "beat": 0.63,
          "dur": 0.53,
          "vel": 62,
          "clef": "treble",
          "pitch": "E4"
        },
        {
          "midi": 67,
          "beat": 0.63,
          "dur": 0.54,
          "vel": 75,
          "clef": "treble",
          "pitch": "G4"
        },
        {
          "midi": 79,
          "beat": 0.65,
          "dur": 0.57,
          "vel": 100,
          "clef": "treble",
          "pitch": "G5"
        },
        {
          "midi": 58,
          "beat": 0.66,
          "dur": 0.53,
          "vel": 103,
          "clef": "bass",
          "acc": "#",
          "pitch": "A#3"
        },
        {
          "midi": 67,
          "beat": 0.66,
          "dur": 0.53,
          "vel": 102,
          "clef": "treble",
          "pitch": "G4"
        },
        {
          "midi": 55,
          "beat": 0.97,
          "dur": 0.95,
          "vel": 51,
          "clef": "bass",
          "pitch": "G3"
        },
        {
          "midi": 45,
          "beat": 0.98,
          "dur": 0.95,
          "vel": 53,
          "clef": "bass",
          "pitch": "A2"
        },
        {
          "midi": 35,
          "beat": 1,
          "dur": 1.67,
          "vel": 80,
          "clef": "bass",
          "pitch": "B1"
        },
        {
          "midi": 35,
          "beat": 1,
          "dur": 0.53,
          "vel": 93,
          "clef": "bass",
          "pitch": "B1"
        },
        {
          "midi": 37,
          "beat": 1,
          "dur": 0.02,
          "vel": 89,
          "clef": "bass",
          "acc": "#",
          "pitch": "C#2"
        },
        {
          "midi": 44,
          "beat": 1,
          "dur": 0.02,
          "vel": 76,
          "clef": "bass",
          "acc": "#",
          "pitch": "G#2"
        },
        {
          "midi": 51,
          "beat": 1,
          "dur": 0.54,
          "vel": 116,
          "clef": "bass",
          "acc": "#",
          "pitch": "D#3"
        },
        {
          "midi": 51,
          "beat": 1,
          "dur": 0.02,
          "vel": 74,
          "clef": "bass",
          "acc": "#",
          "pitch": "D#3"
        },
        {
          "midi": 52,
          "beat": 1,
          "dur": 0.95,
          "vel": 60,
          "clef": "bass",
          "pitch": "E3"
        },
        {
          "midi": 57,
          "beat": 1,
          "dur": 0.54,
          "vel": 115,
          "clef": "bass",
          "pitch": "A3"
        },
        {
          "midi": 57,
          "beat": 1,
          "dur": 0.53,
          "vel": 103,
          "clef": "bass",
          "pitch": "A3"
        },
        {
          "midi": 61,
          "beat": 1,
          "dur": 0.54,
          "vel": 109,
          "clef": "treble",
          "acc": "#",
          "pitch": "C#4"
        },
        {
          "midi": 62,
          "beat": 1,
          "dur": 0.95,
          "vel": 55,
          "clef": "treble",
          "pitch": "D4"
        },
        {
          "midi": 63,
          "beat": 1,
          "dur": 0.53,
          "vel": 65,
          "clef": "treble",
          "acc": "#",
          "pitch": "D#4"
        },
        {
          "midi": 67,
          "beat": 1,
          "dur": 0.54,
          "vel": 75,
          "clef": "treble",
          "pitch": "G4"
        },
        {
          "midi": 67,
          "beat": 1,
          "dur": 0.53,
          "vel": 103,
          "clef": "treble",
          "pitch": "G4"
        },
        {
          "midi": 79,
          "beat": 1.02,
          "dur": 0.48,
          "vel": 100,
          "clef": "treble",
          "pitch": "G5"
        },
        {
          "midi": 51,
          "beat": 1.65,
          "dur": 0.02,
          "vel": 28,
          "clef": "bass",
          "acc": "#",
          "pitch": "D#3"
        },
        {
          "midi": 60,
          "beat": 1.96,
          "dur": 0.95,
          "vel": 51,
          "clef": "treble",
          "pitch": "C4"
        },
        {
          "midi": 28,
          "beat": 2,
          "dur": 1.1,
          "vel": 94,
          "clef": "bass",
          "pitch": "E1"
        },
        {
          "midi": 32,
          "beat": 2,
          "dur": 1.67,
          "vel": 85,
          "clef": "bass",
          "acc": "#",
          "pitch": "G#1"
        },
        {
          "midi": 50,
          "beat": 2,
          "dur": 1.11,
          "vel": 114,
          "clef": "bass",
          "pitch": "D3"
        },
        {
          "midi": 51,
          "beat": 2,
          "dur": 0.02,
          "vel": 70,
          "clef": "bass",
          "acc": "#",
          "pitch": "D#3"
        },
        {
          "midi": 56,
          "beat": 2,
          "dur": 1.11,
          "vel": 116,
          "clef": "bass",
          "acc": "#",
          "pitch": "G#3"
        },
        {
          "midi": 56,
          "beat": 2,
          "dur": 1.1,
          "vel": 103,
          "clef": "bass",
          "acc": "#",
          "pitch": "G#3"
        },
        {
          "midi": 60,
          "beat": 2,
          "dur": 1.11,
          "vel": 109,
          "clef": "treble",
          "pitch": "C4"
        },
        {
          "midi": 62,
          "beat": 2,
          "dur": 1.1,
          "vel": 59,
          "clef": "treble",
          "pitch": "D4"
        },
        {
          "midi": 67,
          "beat": 2,
          "dur": 1.11,
          "vel": 81,
          "clef": "treble",
          "pitch": "G4"
        },
        {
          "midi": 67,
          "beat": 2,
          "dur": 1.1,
          "vel": 103,
          "clef": "treble",
          "pitch": "G4"
        },
        {
          "midi": 53,
          "beat": 2.01,
          "dur": 0.95,
          "vel": 58,
          "clef": "bass",
          "pitch": "F3"
        },
        {
          "midi": 44,
          "beat": 2.02,
          "dur": 0.95,
          "vel": 59,
          "clef": "bass",
          "acc": "#",
          "pitch": "G#2"
        },
        {
          "midi": 50,
          "beat": 2.02,
          "dur": 0.95,
          "vel": 56,
          "clef": "bass",
          "pitch": "D3"
        },
        {
          "midi": 79,
          "beat": 2.02,
          "dur": 0.84,
          "vel": 103,
          "clef": "treble",
          "pitch": "G5"
        },
        {
          "midi": 28,
          "beat": 2.62,
          "dur": 0.53,
          "vel": 86,
          "clef": "bass",
          "pitch": "E1"
        },
        {
          "midi": 50,
          "beat": 2.62,
          "dur": 0.54,
          "vel": 117,
          "clef": "bass",
          "pitch": "D3"
        },
        {
          "midi": 56,
          "beat": 2.62,
          "dur": 0.54,
          "vel": 114,
          "clef": "bass",
          "acc": "#",
          "pitch": "G#3"
        },
        {
          "midi": 60,
          "beat": 2.62,
          "dur": 0.54,
          "vel": 117,
          "clef": "treble",
          "pitch": "C4"
        },
        {
          "midi": 62,
          "beat": 2.62,
          "dur": 0.53,
          "vel": 60,
          "clef": "treble",
          "pitch": "D4"
        },
        {
          "midi": 67,
          "beat": 2.62,
          "dur": 0.54,
          "vel": 82,
          "clef": "treble",
          "pitch": "G4"
        },
        {
          "midi": 79,
          "beat": 2.65,
          "dur": 0.52,
          "vel": 101,
          "clef": "treble",
          "pitch": "G5"
        },
        {
          "midi": 56,
          "beat": 2.66,
          "dur": 0.53,
          "vel": 100,
          "clef": "bass",
          "acc": "#",
          "pitch": "G#3"
        },
        {
          "midi": 67,
          "beat": 2.66,
          "dur": 0.53,
          "vel": 98,
          "clef": "treble",
          "pitch": "G4"
        },
        {
          "midi": 50,
          "beat": 2.98,
          "dur": 0.95,
          "vel": 53,
          "clef": "bass",
          "pitch": "D3"
        },
        {
          "midi": 29,
          "beat": 3,
          "dur": 1,
          "vel": 79,
          "clef": "bass",
          "pitch": "F1"
        },
        {
          "midi": 37,
          "beat": 3,
          "dur": 0.02,
          "vel": 93,
          "clef": "bass",
          "acc": "#",
          "pitch": "C#2"
        },
        {
          "midi": 44,
          "beat": 3,
          "dur": 0.02,
          "vel": 70,
          "clef": "bass",
          "acc": "#",
          "pitch": "G#2"
        },
        {
          "midi": 51,
          "beat": 3,
          "dur": 0.02,
          "vel": 72,
          "clef": "bass",
          "acc": "#",
          "pitch": "D#3"
        },
        {
          "midi": 53,
          "beat": 3.01,
          "dur": 0.95,
          "vel": 56,
          "clef": "bass",
          "pitch": "F3"
        },
        {
          "midi": 60,
          "beat": 3.01,
          "dur": 0.95,
          "vel": 57,
          "clef": "treble",
          "pitch": "C4"
        },
        {
          "midi": 44,
          "beat": 3.02,
          "dur": 0.95,
          "vel": 59,
          "clef": "bass",
          "acc": "#",
          "pitch": "G#2"
        },
        {
          "midi": 33,
          "beat": 3.63,
          "dur": 0.37,
          "vel": 117,
          "clef": "bass",
          "pitch": "A1"
        },
        {
          "midi": 49,
          "beat": 3.63,
          "dur": 0.37,
          "vel": 118,
          "clef": "bass",
          "acc": "#",
          "pitch": "C#3"
        },
        {
          "midi": 55,
          "beat": 3.63,
          "dur": 0.37,
          "vel": 114,
          "clef": "bass",
          "pitch": "G3"
        },
        {
          "midi": 59,
          "beat": 3.63,
          "dur": 0.37,
          "vel": 114,
          "clef": "bass",
          "pitch": "B3"
        },
        {
          "midi": 61,
          "beat": 3.63,
          "dur": 0.37,
          "vel": 61,
          "clef": "treble",
          "acc": "#",
          "pitch": "C#4"
        },
        {
          "midi": 64,
          "beat": 3.63,
          "dur": 0.37,
          "vel": 84,
          "clef": "treble",
          "pitch": "E4"
        },
        {
          "midi": 76,
          "beat": 3.65,
          "dur": 0.35,
          "vel": 105,
          "clef": "treble",
          "pitch": "E5"
        },
        {
          "midi": 55,
          "beat": 3.66,
          "dur": 0.34,
          "vel": 97,
          "clef": "bass",
          "pitch": "G3"
        },
        {
          "midi": 64,
          "beat": 3.66,
          "dur": 0.34,
          "vel": 102,
          "clef": "treble",
          "pitch": "E4"
        },
        {
          "midi": 61,
          "beat": 3.94,
          "dur": 0.06,
          "vel": 53,
          "clef": "treble",
          "acc": "#",
          "pitch": "C#4"
        },
        {
          "midi": 45,
          "beat": 3.98,
          "dur": 0.02,
          "vel": 57,
          "clef": "bass",
          "pitch": "A2"
        },
        {
          "midi": 52,
          "beat": 3.98,
          "dur": 0.02,
          "vel": 55,
          "clef": "bass",
          "pitch": "E3"
        }
      ]
    },
    {
      "_": "Treble: 12 notes, Bass: 26 notes",
      "number": 33,
      "notes": [
        {
          "midi": 28,
          "beat": 0,
          "dur": 1.67,
          "vel": 84,
          "clef": "bass",
          "pitch": "E1"
        },
        {
          "midi": 51,
          "beat": 0,
          "dur": 0.02,
          "vel": 73,
          "clef": "bass",
          "acc": "#",
          "pitch": "D#3"
        },
        {
          "midi": 55,
          "beat": 0.02,
          "dur": 0.95,
          "vel": 56,
          "clef": "bass",
          "pitch": "G3"
        },
        {
          "midi": 45,
          "beat": 0.98,
          "dur": 0.95,
          "vel": 57,
          "clef": "bass",
          "pitch": "A2"
        },
        {
          "midi": 28,
          "beat": 1,
          "dur": 1.67,
          "vel": 79,
          "clef": "bass",
          "pitch": "E1"
        },
        {
          "midi": 37,
          "beat": 1,
          "dur": 0.02,
          "vel": 96,
          "clef": "bass",
          "acc": "#",
          "pitch": "C#2"
        },
        {
          "midi": 44,
          "beat": 1,
          "dur": 0.02,
          "vel": 75,
          "clef": "bass",
          "acc": "#",
          "pitch": "G#2"
        },
        {
          "midi": 51,
          "beat": 1,
          "dur": 0.02,
          "vel": 67,
          "clef": "bass",
          "acc": "#",
          "pitch": "D#3"
        },
        {
          "midi": 52,
          "beat": 1.02,
          "dur": 0.95,
          "vel": 57,
          "clef": "bass",
          "pitch": "E3"
        },
        {
          "midi": 55,
          "beat": 1.02,
          "dur": 0.95,
          "vel": 56,
          "clef": "bass",
          "pitch": "G3"
        },
        {
          "midi": 61,
          "beat": 1.02,
          "dur": 0.95,
          "vel": 56,
          "clef": "treble",
          "acc": "#",
          "pitch": "C#4"
        },
        {
          "midi": 33,
          "beat": 1.62,
          "dur": 0.53,
          "vel": 104,
          "clef": "bass",
          "pitch": "A1"
        },
        {
          "midi": 55,
          "beat": 1.62,
          "dur": 0.54,
          "vel": 110,
          "clef": "bass",
          "pitch": "G3"
        },
        {
          "midi": 61,
          "beat": 1.62,
          "dur": 0.54,
          "vel": 118,
          "clef": "treble",
          "acc": "#",
          "pitch": "C#4"
        },
        {
          "midi": 64,
          "beat": 1.62,
          "dur": 0.54,
          "vel": 116,
          "clef": "treble",
          "pitch": "E4"
        },
        {
          "midi": 64,
          "beat": 1.62,
          "dur": 0.53,
          "vel": 64,
          "clef": "treble",
          "pitch": "E4"
        },
        {
          "midi": 69,
          "beat": 1.62,
          "dur": 0.54,
          "vel": 80,
          "clef": "treble",
          "pitch": "A4"
        },
        {
          "midi": 81,
          "beat": 1.65,
          "dur": 0.61,
          "vel": 104,
          "clef": "treble",
          "pitch": "A5"
        },
        {
          "midi": 61,
          "beat": 1.66,
          "dur": 0.53,
          "vel": 100,
          "clef": "treble",
          "acc": "#",
          "pitch": "C#4"
        },
        {
          "midi": 69,
          "beat": 1.66,
          "dur": 0.53,
          "vel": 103,
          "clef": "treble",
          "pitch": "A4"
        },
        {
          "midi": 45,
          "beat": 1.98,
          "dur": 0.95,
          "vel": 56,
          "clef": "bass",
          "pitch": "A2"
        },
        {
          "midi": 33,
          "beat": 2,
          "dur": 1.67,
          "vel": 83,
          "clef": "bass",
          "pitch": "A1"
        },
        {
          "midi": 51,
          "beat": 2,
          "dur": 0.02,
          "vel": 67,
          "clef": "bass",
          "acc": "#",
          "pitch": "D#3"
        },
        {
          "midi": 55,
          "beat": 2,
          "dur": 0.95,
          "vel": 51,
          "clef": "bass",
          "pitch": "G3"
        },
        {
          "midi": 52,
          "beat": 2.02,
          "dur": 0.95,
          "vel": 56,
          "clef": "bass",
          "pitch": "E3"
        },
        {
          "midi": 61,
          "beat": 2.02,
          "dur": 0.95,
          "vel": 58,
          "clef": "treble",
          "acc": "#",
          "pitch": "C#4"
        },
        {
          "midi": 51,
          "beat": 2.65,
          "dur": 0.02,
          "vel": 27,
          "clef": "bass",
          "acc": "#",
          "pitch": "D#3"
        },
        {
          "midi": 55,
          "beat": 2.95,
          "dur": 0.95,
          "vel": 60,
          "clef": "bass",
          "pitch": "G3"
        },
        {
          "midi": 45,
          "beat": 2.98,
          "dur": 0.95,
          "vel": 53,
          "clef": "bass",
          "pitch": "A2"
        },
        {
          "midi": 52,
          "beat": 2.99,
          "dur": 0.95,
          "vel": 51,
          "clef": "bass",
          "pitch": "E3"
        },
        {
          "midi": 33,
          "beat": 3,
          "dur": 1,
          "vel": 76,
          "clef": "bass",
          "pitch": "A1"
        },
        {
          "midi": 37,
          "beat": 3,
          "dur": 0.02,
          "vel": 95,
          "clef": "bass",
          "acc": "#",
          "pitch": "C#2"
        },
        {
          "midi": 44,
          "beat": 3,
          "dur": 0.02,
          "vel": 67,
          "clef": "bass",
          "acc": "#",
          "pitch": "G#2"
        },
        {
          "midi": 51,
          "beat": 3,
          "dur": 0.02,
          "vel": 74,
          "clef": "bass",
          "acc": "#",
          "pitch": "D#3"
        },
        {
          "midi": 61,
          "beat": 3.02,
          "dur": 0.95,
          "vel": 57,
          "clef": "treble",
          "acc": "#",
          "pitch": "C#4"
        },
        {
          "midi": 69,
          "beat": 3.67,
          "dur": 0.33,
          "vel": 114,
          "clef": "treble",
          "pitch": "A4"
        },
        {
          "midi": 60,
          "beat": 3.93,
          "dur": 0.07,
          "vel": 53,
          "clef": "treble",
          "pitch": "C4"
        },
        {
          "midi": 45,
          "beat": 3.98,
          "dur": 0.02,
          "vel": 51,
          "clef": "bass",
          "pitch": "A2"
        }
      ]
    },
    {
      "_": "Treble: 19 notes, Bass: 45 notes",
      "number": 34,
      "notes": [
        {
          "midi": 33,
          "beat": 0,
          "dur": 1.67,
          "vel": 80,
          "clef": "bass",
          "pitch": "A1"
        },
        {
          "midi": 51,
          "beat": 0,
          "dur": 0.02,
          "vel": 68,
          "clef": "bass",
          "acc": "#",
          "pitch": "D#3"
        },
        {
          "midi": 69,
          "beat": 0,
          "dur": 1.15,
          "vel": 118,
          "clef": "treble",
          "pitch": "A4"
        },
        {
          "midi": 52,
          "beat": 0.03,
          "dur": 0.95,
          "vel": 54,
          "clef": "bass",
          "pitch": "E3"
        },
        {
          "midi": 55,
          "beat": 0.03,
          "dur": 0.95,
          "vel": 56,
          "clef": "bass",
          "pitch": "G3"
        },
        {
          "midi": 33,
          "beat": 0.62,
          "dur": 0.53,
          "vel": 94,
          "clef": "bass",
          "pitch": "A1"
        },
        {
          "midi": 53,
          "beat": 0.62,
          "dur": 0.54,
          "vel": 113,
          "clef": "bass",
          "pitch": "F3"
        },
        {
          "midi": 60,
          "beat": 0.62,
          "dur": 0.54,
          "vel": 111,
          "clef": "treble",
          "pitch": "C4"
        },
        {
          "midi": 60,
          "beat": 0.62,
          "dur": 0.53,
          "vel": 61,
          "clef": "treble",
          "pitch": "C4"
        },
        {
          "midi": 64,
          "beat": 0.62,
          "dur": 0.54,
          "vel": 116,
          "clef": "treble",
          "pitch": "E4"
        },
        {
          "midi": 57,
          "beat": 0.66,
          "dur": 0.53,
          "vel": 95,
          "clef": "bass",
          "pitch": "A3"
        },
        {
          "midi": 64,
          "beat": 0.66,
          "dur": 0.53,
          "vel": 96,
          "clef": "treble",
          "pitch": "E4"
        },
        {
          "midi": 60,
          "beat": 0.67,
          "dur": 0.57,
          "vel": 114,
          "clef": "treble",
          "pitch": "C4"
        },
        {
          "midi": 45,
          "beat": 0.99,
          "dur": 0.95,
          "vel": 53,
          "clef": "bass",
          "pitch": "A2"
        },
        {
          "midi": 33,
          "beat": 1,
          "dur": 0.53,
          "vel": 91,
          "clef": "bass",
          "pitch": "A1"
        },
        {
          "midi": 36,
          "beat": 1,
          "dur": 1.67,
          "vel": 76,
          "clef": "bass",
          "pitch": "C2"
        },
        {
          "midi": 37,
          "beat": 1,
          "dur": 0.02,
          "vel": 88,
          "clef": "bass",
          "acc": "#",
          "pitch": "C#2"
        },
        {
          "midi": 44,
          "beat": 1,
          "dur": 0.02,
          "vel": 72,
          "clef": "bass",
          "acc": "#",
          "pitch": "G#2"
        },
        {
          "midi": 51,
          "beat": 1,
          "dur": 0.02,
          "vel": 75,
          "clef": "bass",
          "acc": "#",
          "pitch": "D#3"
        },
        {
          "midi": 53,
          "beat": 1,
          "dur": 0.54,
          "vel": 117,
          "clef": "bass",
          "pitch": "F3"
        },
        {
          "midi": 53,
          "beat": 1,
          "dur": 0.53,
          "vel": 102,
          "clef": "bass",
          "pitch": "F3"
        },
        {
          "midi": 57,
          "beat": 1,
          "dur": 0.54,
          "vel": 114,
          "clef": "bass",
          "pitch": "A3"
        },
        {
          "midi": 57,
          "beat": 1,
          "dur": 0.53,
          "vel": 58,
          "clef": "bass",
          "pitch": "A3"
        },
        {
          "midi": 60,
          "beat": 1,
          "dur": 0.54,
          "vel": 117,
          "clef": "treble",
          "pitch": "C4"
        },
        {
          "midi": 60,
          "beat": 1,
          "dur": 0.53,
          "vel": 97,
          "clef": "treble",
          "pitch": "C4"
        },
        {
          "midi": 60,
          "beat": 1,
          "dur": 2.3,
          "vel": 117,
          "clef": "treble",
          "pitch": "C4"
        },
        {
          "midi": 60,
          "beat": 1.02,
          "dur": 0.95,
          "vel": 56,
          "clef": "treble",
          "pitch": "C4"
        },
        {
          "midi": 52,
          "beat": 1.03,
          "dur": 0.95,
          "vel": 58,
          "clef": "bass",
          "pitch": "E3"
        },
        {
          "midi": 55,
          "beat": 1.03,
          "dur": 0.95,
          "vel": 56,
          "clef": "bass",
          "pitch": "G3"
        },
        {
          "midi": 50,
          "beat": 1.99,
          "dur": 0.95,
          "vel": 53,
          "clef": "bass",
          "pitch": "D3"
        },
        {
          "midi": 54,
          "beat": 1.99,
          "dur": 0.95,
          "vel": 53,
          "clef": "bass",
          "acc": "#",
          "pitch": "F#3"
        },
        {
          "midi": 32,
          "beat": 2,
          "dur": 1.1,
          "vel": 89,
          "clef": "bass",
          "acc": "#",
          "pitch": "G#1"
        },
        {
          "midi": 38,
          "beat": 2,
          "dur": 1.67,
          "vel": 79,
          "clef": "bass",
          "pitch": "D2"
        },
        {
          "midi": 51,
          "beat": 2,
          "dur": 0.02,
          "vel": 69,
          "clef": "bass",
          "acc": "#",
          "pitch": "D#3"
        },
        {
          "midi": 54,
          "beat": 2,
          "dur": 1.11,
          "vel": 117,
          "clef": "bass",
          "acc": "#",
          "pitch": "F#3"
        },
        {
          "midi": 54,
          "beat": 2,
          "dur": 1.1,
          "vel": 103,
          "clef": "bass",
          "acc": "#",
          "pitch": "F#3"
        },
        {
          "midi": 56,
          "beat": 2,
          "dur": 1.11,
          "vel": 118,
          "clef": "bass",
          "acc": "#",
          "pitch": "G#3"
        },
        {
          "midi": 56,
          "beat": 2,
          "dur": 1.1,
          "vel": 57,
          "clef": "bass",
          "acc": "#",
          "pitch": "G#3"
        },
        {
          "midi": 60,
          "beat": 2,
          "dur": 1.11,
          "vel": 110,
          "clef": "treble",
          "pitch": "C4"
        },
        {
          "midi": 60,
          "beat": 2,
          "dur": 1.1,
          "vel": 97,
          "clef": "treble",
          "pitch": "C4"
        },
        {
          "midi": 60,
          "beat": 2.02,
          "dur": 0.95,
          "vel": 58,
          "clef": "treble",
          "pitch": "C4"
        },
        {
          "midi": 45,
          "beat": 2.03,
          "dur": 0.95,
          "vel": 56,
          "clef": "bass",
          "pitch": "A2"
        },
        {
          "midi": 32,
          "beat": 2.62,
          "dur": 0.53,
          "vel": 94,
          "clef": "bass",
          "acc": "#",
          "pitch": "G#1"
        },
        {
          "midi": 54,
          "beat": 2.62,
          "dur": 0.54,
          "vel": 111,
          "clef": "bass",
          "acc": "#",
          "pitch": "F#3"
        },
        {
          "midi": 56,
          "beat": 2.62,
          "dur": 0.54,
          "vel": 113,
          "clef": "bass",
          "acc": "#",
          "pitch": "G#3"
        },
        {
          "midi": 56,
          "beat": 2.62,
          "dur": 0.53,
          "vel": 60,
          "clef": "bass",
          "acc": "#",
          "pitch": "G#3"
        },
        {
          "midi": 60,
          "beat": 2.62,
          "dur": 0.54,
          "vel": 109,
          "clef": "treble",
          "pitch": "C4"
        },
        {
          "midi": 54,
          "beat": 2.66,
          "dur": 0.53,
          "vel": 103,
          "clef": "bass",
          "acc": "#",
          "pitch": "F#3"
        },
        {
          "midi": 60,
          "beat": 2.66,
          "dur": 0.53,
          "vel": 100,
          "clef": "treble",
          "pitch": "C4"
        },
        {
          "midi": 37,
          "beat": 3,
          "dur": 0.02,
          "vel": 91,
          "clef": "bass",
          "acc": "#",
          "pitch": "C#2"
        },
        {
          "midi": 40,
          "beat": 3,
          "dur": 1,
          "vel": 77,
          "clef": "bass",
          "pitch": "E2"
        },
        {
          "midi": 44,
          "beat": 3,
          "dur": 0.02,
          "vel": 68,
          "clef": "bass",
          "acc": "#",
          "pitch": "G#2"
        },
        {
          "midi": 51,
          "beat": 3,
          "dur": 0.02,
          "vel": 74,
          "clef": "bass",
          "acc": "#",
          "pitch": "D#3"
        },
        {
          "midi": 60,
          "beat": 3,
          "dur": 0.95,
          "vel": 52,
          "clef": "treble",
          "pitch": "C4"
        },
        {
          "midi": 45,
          "beat": 3.01,
          "dur": 0.95,
          "vel": 60,
          "clef": "bass",
          "pitch": "A2"
        },
        {
          "midi": 50,
          "beat": 3.03,
          "dur": 0.95,
          "vel": 59,
          "clef": "bass",
          "pitch": "D3"
        },
        {
          "midi": 54,
          "beat": 3.03,
          "dur": 0.95,
          "vel": 57,
          "clef": "bass",
          "acc": "#",
          "pitch": "F#3"
        },
        {
          "midi": 29,
          "beat": 3.63,
          "dur": 0.37,
          "vel": 88,
          "clef": "bass",
          "pitch": "F1"
        },
        {
          "midi": 53,
          "beat": 3.63,
          "dur": 0.37,
          "vel": 113,
          "clef": "bass",
          "pitch": "F3"
        },
        {
          "midi": 57,
          "beat": 3.63,
          "dur": 0.37,
          "vel": 112,
          "clef": "bass",
          "pitch": "A3"
        },
        {
          "midi": 60,
          "beat": 3.63,
          "dur": 0.37,
          "vel": 64,
          "clef": "treble",
          "pitch": "C4"
        },
        {
          "midi": 64,
          "beat": 3.63,
          "dur": 0.37,
          "vel": 113,
          "clef": "treble",
          "pitch": "E4"
        },
        {
          "midi": 57,
          "beat": 3.66,
          "dur": 0.34,
          "vel": 98,
          "clef": "bass",
          "pitch": "A3"
        },
        {
          "midi": 60,
          "beat": 3.66,
          "dur": 0.34,
          "vel": 100,
          "clef": "treble",
          "pitch": "C4"
        }
      ]
    },
    {
      "_": "Treble: 9 notes, Bass: 33 notes",
      "number": 35,
      "notes": [
        {
          "midi": 38,
          "beat": 0,
          "dur": 1.67,
          "vel": 77,
          "clef": "bass",
          "pitch": "D2"
        },
        {
          "midi": 51,
          "beat": 0,
          "dur": 0.02,
          "vel": 74,
          "clef": "bass",
          "acc": "#",
          "pitch": "D#3"
        },
        {
          "midi": 45,
          "beat": 0.01,
          "dur": 0.95,
          "vel": 60,
          "clef": "bass",
          "pitch": "A2"
        },
        {
          "midi": 53,
          "beat": 0.02,
          "dur": 0.95,
          "vel": 57,
          "clef": "bass",
          "pitch": "F3"
        },
        {
          "midi": 60,
          "beat": 0.02,
          "dur": 0.95,
          "vel": 56,
          "clef": "treble",
          "pitch": "C4"
        },
        {
          "midi": 50,
          "beat": 0.03,
          "dur": 0.95,
          "vel": 57,
          "clef": "bass",
          "pitch": "D3"
        },
        {
          "midi": 60,
          "beat": 0.98,
          "dur": 0.95,
          "vel": 53,
          "clef": "treble",
          "pitch": "C4"
        },
        {
          "midi": 37,
          "beat": 1,
          "dur": 0.02,
          "vel": 88,
          "clef": "bass",
          "acc": "#",
          "pitch": "C#2"
        },
        {
          "midi": 38,
          "beat": 1,
          "dur": 1.67,
          "vel": 84,
          "clef": "bass",
          "pitch": "D2"
        },
        {
          "midi": 44,
          "beat": 1,
          "dur": 0.02,
          "vel": 70,
          "clef": "bass",
          "acc": "#",
          "pitch": "G#2"
        },
        {
          "midi": 51,
          "beat": 1,
          "dur": 0.02,
          "vel": 68,
          "clef": "bass",
          "acc": "#",
          "pitch": "D#3"
        },
        {
          "midi": 53,
          "beat": 1.02,
          "dur": 0.95,
          "vel": 57,
          "clef": "bass",
          "pitch": "F3"
        },
        {
          "midi": 45,
          "beat": 1.03,
          "dur": 0.95,
          "vel": 54,
          "clef": "bass",
          "pitch": "A2"
        },
        {
          "midi": 50,
          "beat": 1.03,
          "dur": 0.95,
          "vel": 54,
          "clef": "bass",
          "pitch": "D3"
        },
        {
          "midi": 29,
          "beat": 1.63,
          "dur": 2.37,
          "vel": 90,
          "clef": "bass",
          "pitch": "F1"
        },
        {
          "midi": 53,
          "beat": 1.63,
          "dur": 2.37,
          "vel": 112,
          "clef": "bass",
          "pitch": "F3"
        },
        {
          "midi": 56,
          "beat": 1.63,
          "dur": 2.37,
          "vel": 118,
          "clef": "bass",
          "acc": "#",
          "pitch": "G#3"
        },
        {
          "midi": 56,
          "beat": 1.63,
          "dur": 2.37,
          "vel": 58,
          "clef": "bass",
          "acc": "#",
          "pitch": "G#3"
        },
        {
          "midi": 60,
          "beat": 1.63,
          "dur": 2.37,
          "vel": 112,
          "clef": "treble",
          "pitch": "C4"
        },
        {
          "midi": 51,
          "beat": 1.65,
          "dur": 0.02,
          "vel": 30,
          "clef": "bass",
          "acc": "#",
          "pitch": "D#3"
        },
        {
          "midi": 53,
          "beat": 1.66,
          "dur": 2.34,
          "vel": 103,
          "clef": "bass",
          "pitch": "F3"
        },
        {
          "midi": 60,
          "beat": 1.66,
          "dur": 2.34,
          "vel": 97,
          "clef": "treble",
          "pitch": "C4"
        },
        {
          "midi": 53,
          "beat": 1.98,
          "dur": 0.95,
          "vel": 53,
          "clef": "bass",
          "pitch": "F3"
        },
        {
          "midi": 50,
          "beat": 1.99,
          "dur": 0.95,
          "vel": 53,
          "clef": "bass",
          "pitch": "D3"
        },
        {
          "midi": 44,
          "beat": 1.99,
          "dur": 0.95,
          "vel": 56,
          "clef": "bass",
          "acc": "#",
          "pitch": "G#2"
        },
        {
          "midi": 43,
          "beat": 2,
          "dur": 1.67,
          "vel": 80,
          "clef": "bass",
          "pitch": "G2"
        },
        {
          "midi": 51,
          "beat": 2,
          "dur": 0.02,
          "vel": 68,
          "clef": "bass",
          "acc": "#",
          "pitch": "D#3"
        },
        {
          "midi": 60,
          "beat": 2,
          "dur": 1.15,
          "vel": 120,
          "clef": "treble",
          "pitch": "C4"
        },
        {
          "midi": 59,
          "beat": 2.01,
          "dur": 0.95,
          "vel": 56,
          "clef": "bass",
          "pitch": "B3"
        },
        {
          "midi": 72,
          "beat": 2.73,
          "dur": 0.41,
          "vel": 99,
          "clef": "treble",
          "pitch": "C5"
        },
        {
          "midi": 50,
          "beat": 2.99,
          "dur": 0.95,
          "vel": 53,
          "clef": "bass",
          "pitch": "D3"
        },
        {
          "midi": 43,
          "beat": 3,
          "dur": 1,
          "vel": 76,
          "clef": "bass",
          "pitch": "G2"
        },
        {
          "midi": 44,
          "beat": 3,
          "dur": 0.02,
          "vel": 70,
          "clef": "bass",
          "acc": "#",
          "pitch": "G#2"
        },
        {
          "midi": 51,
          "beat": 3,
          "dur": 0.02,
          "vel": 75,
          "clef": "bass",
          "acc": "#",
          "pitch": "D#3"
        },
        {
          "midi": 55,
          "beat": 3,
          "dur": 1,
          "vel": 121,
          "clef": "bass",
          "pitch": "G3"
        },
        {
          "midi": 59,
          "beat": 3.01,
          "dur": 0.95,
          "vel": 56,
          "clef": "bass",
          "pitch": "B3"
        },
        {
          "midi": 53,
          "beat": 3.02,
          "dur": 0.95,
          "vel": 59,
          "clef": "bass",
          "pitch": "F3"
        },
        {
          "midi": 44,
          "beat": 3.02,
          "dur": 0.95,
          "vel": 51,
          "clef": "bass",
          "acc": "#",
          "pitch": "G#2"
        },
        {
          "midi": 77,
          "beat": 3.15,
          "dur": 0.83,
          "vel": 106,
          "clef": "treble",
          "pitch": "F5"
        },
        {
          "midi": 51,
          "beat": 3.65,
          "dur": 0.02,
          "vel": 27,
          "clef": "bass",
          "acc": "#",
          "pitch": "D#3"
        },
        {
          "midi": 60,
          "beat": 3.67,
          "dur": 0.33,
          "vel": 117,
          "clef": "treble",
          "pitch": "C4"
        },
        {
          "midi": 77,
          "beat": 3.77,
          "dur": 0.23,
          "vel": 82,
          "clef": "treble",
          "pitch": "F5"
        }
      ]
    },
    {
      "_": "Treble: 13 notes, Bass: 47 notes",
      "number": 36,
      "notes": [
        {
          "midi": 36,
          "beat": 0,
          "dur": 1.67,
          "vel": 83,
          "clef": "bass",
          "pitch": "C2"
        },
        {
          "midi": 40,
          "beat": 0,
          "dur": 0.02,
          "vel": 48,
          "clef": "bass",
          "pitch": "E2"
        },
        {
          "midi": 43,
          "beat": 0,
          "dur": 0.02,
          "vel": 48,
          "clef": "bass",
          "pitch": "G2"
        },
        {
          "midi": 44,
          "beat": 0,
          "dur": 0.02,
          "vel": 48,
          "clef": "bass",
          "acc": "#",
          "pitch": "G#2"
        },
        {
          "midi": 51,
          "beat": 0,
          "dur": 0.02,
          "vel": 48,
          "clef": "bass",
          "acc": "#",
          "pitch": "D#3"
        },
        {
          "midi": 60,
          "beat": 0,
          "dur": 0.95,
          "vel": 52,
          "clef": "treble",
          "pitch": "C4"
        },
        {
          "midi": 52,
          "beat": 0.01,
          "dur": 0.95,
          "vel": 55,
          "clef": "bass",
          "pitch": "E3"
        },
        {
          "midi": 55,
          "beat": 0.02,
          "dur": 0.95,
          "vel": 51,
          "clef": "bass",
          "pitch": "G3"
        },
        {
          "midi": 78,
          "beat": 0.02,
          "dur": 0.25,
          "vel": 83,
          "clef": "treble",
          "acc": "#",
          "pitch": "F#5"
        },
        {
          "midi": 45,
          "beat": 0.03,
          "dur": 0.95,
          "vel": 59,
          "clef": "bass",
          "pitch": "A2"
        },
        {
          "midi": 79,
          "beat": 0.17,
          "dur": 1.13,
          "vel": 83,
          "clef": "treble",
          "pitch": "G5"
        },
        {
          "midi": 40,
          "beat": 0.33,
          "dur": 0.02,
          "vel": 51,
          "clef": "bass",
          "pitch": "E2"
        },
        {
          "midi": 43,
          "beat": 0.33,
          "dur": 0.02,
          "vel": 51,
          "clef": "bass",
          "pitch": "G2"
        },
        {
          "midi": 40,
          "beat": 0.65,
          "dur": 0.02,
          "vel": 54,
          "clef": "bass",
          "pitch": "E2"
        },
        {
          "midi": 43,
          "beat": 0.65,
          "dur": 0.02,
          "vel": 54,
          "clef": "bass",
          "pitch": "G2"
        },
        {
          "midi": 60,
          "beat": 0.98,
          "dur": 0.95,
          "vel": 52,
          "clef": "treble",
          "pitch": "C4"
        },
        {
          "midi": 55,
          "beat": 0.99,
          "dur": 0.95,
          "vel": 57,
          "clef": "bass",
          "pitch": "G3"
        },
        {
          "midi": 40,
          "beat": 1,
          "dur": 0.02,
          "vel": 57,
          "clef": "bass",
          "pitch": "E2"
        },
        {
          "midi": 40,
          "beat": 1,
          "dur": 1.67,
          "vel": 82,
          "clef": "bass",
          "pitch": "E2"
        },
        {
          "midi": 43,
          "beat": 1,
          "dur": 0.02,
          "vel": 57,
          "clef": "bass",
          "pitch": "G2"
        },
        {
          "midi": 44,
          "beat": 1,
          "dur": 0.02,
          "vel": 57,
          "clef": "bass",
          "acc": "#",
          "pitch": "G#2"
        },
        {
          "midi": 52,
          "beat": 1.01,
          "dur": 0.95,
          "vel": 60,
          "clef": "bass",
          "pitch": "E3"
        },
        {
          "midi": 78,
          "beat": 1.02,
          "dur": 0.25,
          "vel": 86,
          "clef": "treble",
          "acc": "#",
          "pitch": "F#5"
        },
        {
          "midi": 45,
          "beat": 1.03,
          "dur": 0.95,
          "vel": 58,
          "clef": "bass",
          "pitch": "A2"
        },
        {
          "midi": 79,
          "beat": 1.17,
          "dur": 1.08,
          "vel": 87,
          "clef": "treble",
          "pitch": "G5"
        },
        {
          "midi": 40,
          "beat": 1.33,
          "dur": 0.02,
          "vel": 60,
          "clef": "bass",
          "pitch": "E2"
        },
        {
          "midi": 43,
          "beat": 1.33,
          "dur": 0.02,
          "vel": 60,
          "clef": "bass",
          "pitch": "G2"
        },
        {
          "midi": 40,
          "beat": 1.65,
          "dur": 0.02,
          "vel": 63,
          "clef": "bass",
          "pitch": "E2"
        },
        {
          "midi": 43,
          "beat": 1.65,
          "dur": 0.02,
          "vel": 63,
          "clef": "bass",
          "pitch": "G2"
        },
        {
          "midi": 60,
          "beat": 1.99,
          "dur": 0.95,
          "vel": 51,
          "clef": "treble",
          "pitch": "C4"
        },
        {
          "midi": 40,
          "beat": 2,
          "dur": 0.02,
          "vel": 67,
          "clef": "bass",
          "pitch": "E2"
        },
        {
          "midi": 43,
          "beat": 2,
          "dur": 0.02,
          "vel": 67,
          "clef": "bass",
          "pitch": "G2"
        },
        {
          "midi": 44,
          "beat": 2,
          "dur": 0.02,
          "vel": 67,
          "clef": "bass",
          "acc": "#",
          "pitch": "G#2"
        },
        {
          "midi": 45,
          "beat": 2,
          "dur": 1.67,
          "vel": 80,
          "clef": "bass",
          "pitch": "A2"
        },
        {
          "midi": 55,
          "beat": 2.01,
          "dur": 0.95,
          "vel": 52,
          "clef": "bass",
          "pitch": "G3"
        },
        {
          "midi": 78,
          "beat": 2.02,
          "dur": 0.25,
          "vel": 89,
          "clef": "treble",
          "acc": "#",
          "pitch": "F#5"
        },
        {
          "midi": 45,
          "beat": 2.03,
          "dur": 0.95,
          "vel": 57,
          "clef": "bass",
          "pitch": "A2"
        },
        {
          "midi": 52,
          "beat": 2.03,
          "dur": 0.95,
          "vel": 57,
          "clef": "bass",
          "pitch": "E3"
        },
        {
          "midi": 79,
          "beat": 2.17,
          "dur": 1.33,
          "vel": 90,
          "clef": "treble",
          "pitch": "G5"
        },
        {
          "midi": 40,
          "beat": 2.33,
          "dur": 0.02,
          "vel": 70,
          "clef": "bass",
          "pitch": "E2"
        },
        {
          "midi": 43,
          "beat": 2.33,
          "dur": 0.02,
          "vel": 70,
          "clef": "bass",
          "pitch": "G2"
        },
        {
          "midi": 40,
          "beat": 2.65,
          "dur": 0.02,
          "vel": 72,
          "clef": "bass",
          "pitch": "E2"
        },
        {
          "midi": 43,
          "beat": 2.65,
          "dur": 0.02,
          "vel": 72,
          "clef": "bass",
          "pitch": "G2"
        },
        {
          "midi": 52,
          "beat": 2.97,
          "dur": 0.95,
          "vel": 53,
          "clef": "bass",
          "pitch": "E3"
        },
        {
          "midi": 40,
          "beat": 3,
          "dur": 0.02,
          "vel": 76,
          "clef": "bass",
          "pitch": "E2"
        },
        {
          "midi": 43,
          "beat": 3,
          "dur": 0.02,
          "vel": 76,
          "clef": "bass",
          "pitch": "G2"
        },
        {
          "midi": 43,
          "beat": 3,
          "dur": 1,
          "vel": 79,
          "clef": "bass",
          "pitch": "G2"
        },
        {
          "midi": 44,
          "beat": 3,
          "dur": 0.02,
          "vel": 76,
          "clef": "bass",
          "acc": "#",
          "pitch": "G#2"
        },
        {
          "midi": 45,
          "beat": 3.01,
          "dur": 0.95,
          "vel": 52,
          "clef": "bass",
          "pitch": "A2"
        },
        {
          "midi": 60,
          "beat": 3.02,
          "dur": 0.95,
          "vel": 56,
          "clef": "treble",
          "pitch": "C4"
        },
        {
          "midi": 78,
          "beat": 3.02,
          "dur": 0.25,
          "vel": 93,
          "clef": "treble",
          "acc": "#",
          "pitch": "F#5"
        },
        {
          "midi": 55,
          "beat": 3.03,
          "dur": 0.95,
          "vel": 55,
          "clef": "bass",
          "pitch": "G3"
        },
        {
          "midi": 79,
          "beat": 3.17,
          "dur": 0.83,
          "vel": 93,
          "clef": "treble",
          "pitch": "G5"
        },
        {
          "midi": 40,
          "beat": 3.33,
          "dur": 0.02,
          "vel": 79,
          "clef": "bass",
          "pitch": "E2"
        },
        {
          "midi": 43,
          "beat": 3.33,
          "dur": 0.02,
          "vel": 79,
          "clef": "bass",
          "pitch": "G2"
        },
        {
          "midi": 40,
          "beat": 3.65,
          "dur": 0.02,
          "vel": 82,
          "clef": "bass",
          "pitch": "E2"
        },
        {
          "midi": 43,
          "beat": 3.65,
          "dur": 0.02,
          "vel": 82,
          "clef": "bass",
          "pitch": "G2"
        },
        {
          "midi": 60,
          "beat": 3.98,
          "dur": 0.02,
          "vel": 57,
          "clef": "treble",
          "pitch": "C4"
        },
        {
          "midi": 52,
          "beat": 3.99,
          "dur": 0.01,
          "vel": 58,
          "clef": "bass",
          "pitch": "E3"
        },
        {
          "midi": 55,
          "beat": 3.99,
          "dur": 0.01,
          "vel": 55,
          "clef": "bass",
          "pitch": "G3"
        }
      ]
    },
    {
      "_": "Treble: 17 notes, Bass: 46 notes",
      "number": 37,
      "notes": [
        {
          "midi": 40,
          "beat": 0,
          "dur": 0.02,
          "vel": 85,
          "clef": "bass",
          "pitch": "E2"
        },
        {
          "midi": 43,
          "beat": 0,
          "dur": 0.02,
          "vel": 85,
          "clef": "bass",
          "pitch": "G2"
        },
        {
          "midi": 44,
          "beat": 0,
          "dur": 0.02,
          "vel": 85,
          "clef": "bass",
          "acc": "#",
          "pitch": "G#2"
        },
        {
          "midi": 48,
          "beat": 0,
          "dur": 1.67,
          "vel": 85,
          "clef": "bass",
          "pitch": "C3"
        },
        {
          "midi": 78,
          "beat": 0.02,
          "dur": 0.23,
          "vel": 96,
          "clef": "treble",
          "acc": "#",
          "pitch": "F#5"
        },
        {
          "midi": 45,
          "beat": 0.03,
          "dur": 0.95,
          "vel": 55,
          "clef": "bass",
          "pitch": "A2"
        },
        {
          "midi": 79,
          "beat": 0.17,
          "dur": 1.2,
          "vel": 97,
          "clef": "treble",
          "pitch": "G5"
        },
        {
          "midi": 40,
          "beat": 0.33,
          "dur": 0.02,
          "vel": 88,
          "clef": "bass",
          "pitch": "E2"
        },
        {
          "midi": 43,
          "beat": 0.33,
          "dur": 0.02,
          "vel": 88,
          "clef": "bass",
          "pitch": "G2"
        },
        {
          "midi": 40,
          "beat": 0.65,
          "dur": 0.02,
          "vel": 91,
          "clef": "bass",
          "pitch": "E2"
        },
        {
          "midi": 43,
          "beat": 0.65,
          "dur": 0.02,
          "vel": 91,
          "clef": "bass",
          "pitch": "G2"
        },
        {
          "midi": 60,
          "beat": 0.98,
          "dur": 0.95,
          "vel": 59,
          "clef": "treble",
          "pitch": "C4"
        },
        {
          "midi": 55,
          "beat": 0.99,
          "dur": 0.95,
          "vel": 55,
          "clef": "bass",
          "pitch": "G3"
        },
        {
          "midi": 52,
          "beat": 1,
          "dur": 0.95,
          "vel": 51,
          "clef": "bass",
          "pitch": "E3"
        },
        {
          "midi": 36,
          "beat": 1,
          "dur": 1.67,
          "vel": 77,
          "clef": "bass",
          "pitch": "C2"
        },
        {
          "midi": 40,
          "beat": 1,
          "dur": 0.02,
          "vel": 94,
          "clef": "bass",
          "pitch": "E2"
        },
        {
          "midi": 43,
          "beat": 1,
          "dur": 0.02,
          "vel": 94,
          "clef": "bass",
          "pitch": "G2"
        },
        {
          "midi": 44,
          "beat": 1,
          "dur": 0.02,
          "vel": 94,
          "clef": "bass",
          "acc": "#",
          "pitch": "G#2"
        },
        {
          "midi": 45,
          "beat": 1.01,
          "dur": 0.95,
          "vel": 60,
          "clef": "bass",
          "pitch": "A2"
        },
        {
          "midi": 78,
          "beat": 1.02,
          "dur": 0.25,
          "vel": 99,
          "clef": "treble",
          "acc": "#",
          "pitch": "F#5"
        },
        {
          "midi": 79,
          "beat": 1.17,
          "dur": 1.19,
          "vel": 100,
          "clef": "treble",
          "pitch": "G5"
        },
        {
          "midi": 40,
          "beat": 1.33,
          "dur": 0.02,
          "vel": 97,
          "clef": "bass",
          "pitch": "E2"
        },
        {
          "midi": 43,
          "beat": 1.33,
          "dur": 0.02,
          "vel": 97,
          "clef": "bass",
          "pitch": "G2"
        },
        {
          "midi": 40,
          "beat": 1.65,
          "dur": 0.02,
          "vel": 100,
          "clef": "bass",
          "pitch": "E2"
        },
        {
          "midi": 43,
          "beat": 1.65,
          "dur": 0.02,
          "vel": 100,
          "clef": "bass",
          "pitch": "G2"
        },
        {
          "midi": 50,
          "beat": 1.99,
          "dur": 0.95,
          "vel": 56,
          "clef": "bass",
          "pitch": "D3"
        },
        {
          "midi": 44,
          "beat": 1.99,
          "dur": 0.95,
          "vel": 53,
          "clef": "bass",
          "acc": "#",
          "pitch": "G#2"
        },
        {
          "midi": 35,
          "beat": 2,
          "dur": 1.67,
          "vel": 82,
          "clef": "bass",
          "pitch": "B1"
        },
        {
          "midi": 40,
          "beat": 2,
          "dur": 0.02,
          "vel": 103,
          "clef": "bass",
          "pitch": "E2"
        },
        {
          "midi": 43,
          "beat": 2,
          "dur": 0.02,
          "vel": 103,
          "clef": "bass",
          "pitch": "G2"
        },
        {
          "midi": 44,
          "beat": 2,
          "dur": 0.02,
          "vel": 103,
          "clef": "bass",
          "acc": "#",
          "pitch": "G#2"
        },
        {
          "midi": 52,
          "beat": 2.01,
          "dur": 0.95,
          "vel": 52,
          "clef": "bass",
          "pitch": "E3"
        },
        {
          "midi": 59,
          "beat": 2.01,
          "dur": 0.95,
          "vel": 52,
          "clef": "bass",
          "pitch": "B3"
        },
        {
          "midi": 77,
          "beat": 2.07,
          "dur": 0.84,
          "vel": 103,
          "clef": "treble",
          "pitch": "F5"
        },
        {
          "midi": 40,
          "beat": 2.33,
          "dur": 0.02,
          "vel": 106,
          "clef": "bass",
          "pitch": "E2"
        },
        {
          "midi": 43,
          "beat": 2.33,
          "dur": 0.02,
          "vel": 106,
          "clef": "bass",
          "pitch": "G2"
        },
        {
          "midi": 75,
          "beat": 2.64,
          "dur": 0.54,
          "vel": 105,
          "clef": "treble",
          "acc": "#",
          "pitch": "D#5"
        },
        {
          "midi": 40,
          "beat": 2.65,
          "dur": 0.02,
          "vel": 109,
          "clef": "bass",
          "pitch": "E2"
        },
        {
          "midi": 43,
          "beat": 2.65,
          "dur": 0.02,
          "vel": 109,
          "clef": "bass",
          "pitch": "G2"
        },
        {
          "midi": 59,
          "beat": 2.99,
          "dur": 0.95,
          "vel": 53,
          "clef": "bass",
          "pitch": "B3"
        },
        {
          "midi": 52,
          "beat": 2.99,
          "dur": 0.95,
          "vel": 53,
          "clef": "bass",
          "pitch": "E3"
        },
        {
          "midi": 40,
          "beat": 3,
          "dur": 0.02,
          "vel": 103,
          "clef": "bass",
          "pitch": "E2"
        },
        {
          "midi": 40,
          "beat": 3,
          "dur": 1,
          "vel": 83,
          "clef": "bass",
          "pitch": "E2"
        },
        {
          "midi": 43,
          "beat": 3,
          "dur": 0.02,
          "vel": 102,
          "clef": "bass",
          "pitch": "G2"
        },
        {
          "midi": 44,
          "beat": 3,
          "dur": 0.02,
          "vel": 117,
          "clef": "bass",
          "acc": "#",
          "pitch": "G#2"
        },
        {
          "midi": 72,
          "beat": 3.01,
          "dur": 0.99,
          "vel": 106,
          "clef": "treble",
          "pitch": "C5"
        },
        {
          "midi": 50,
          "beat": 3.01,
          "dur": 0.95,
          "vel": 58,
          "clef": "bass",
          "pitch": "D3"
        },
        {
          "midi": 44,
          "beat": 3.03,
          "dur": 0.95,
          "vel": 56,
          "clef": "bass",
          "acc": "#",
          "pitch": "G#2"
        },
        {
          "midi": 43,
          "beat": 3.63,
          "dur": 0.37,
          "vel": 89,
          "clef": "bass",
          "pitch": "G2"
        },
        {
          "midi": 57,
          "beat": 3.63,
          "dur": 0.37,
          "vel": 110,
          "clef": "bass",
          "pitch": "A3"
        },
        {
          "midi": 60,
          "beat": 3.63,
          "dur": 0.37,
          "vel": 115,
          "clef": "treble",
          "pitch": "C4"
        },
        {
          "midi": 60,
          "beat": 3.63,
          "dur": 0.37,
          "vel": 59,
          "clef": "treble",
          "pitch": "C4"
        },
        {
          "midi": 76,
          "beat": 3.63,
          "dur": 0.37,
          "vel": 79,
          "clef": "treble",
          "pitch": "E5"
        },
        {
          "midi": 79,
          "beat": 3.63,
          "dur": 0.37,
          "vel": 81,
          "clef": "treble",
          "pitch": "G5"
        },
        {
          "midi": 81,
          "beat": 3.63,
          "dur": 0.37,
          "vel": 81,
          "clef": "treble",
          "pitch": "A5"
        },
        {
          "midi": 84,
          "beat": 3.63,
          "dur": 0.37,
          "vel": 114,
          "clef": "treble",
          "pitch": "C6"
        },
        {
          "midi": 35,
          "beat": 3.65,
          "dur": 0.02,
          "vel": 101,
          "clef": "bass",
          "pitch": "B1"
        },
        {
          "midi": 49,
          "beat": 3.65,
          "dur": 0.02,
          "vel": 101,
          "clef": "bass",
          "acc": "#",
          "pitch": "C#3"
        },
        {
          "midi": 55,
          "beat": 3.66,
          "dur": 0.34,
          "vel": 102,
          "clef": "bass",
          "pitch": "G3"
        },
        {
          "midi": 64,
          "beat": 3.66,
          "dur": 0.34,
          "vel": 103,
          "clef": "treble",
          "pitch": "E4"
        },
        {
          "midi": 69,
          "beat": 3.69,
          "dur": 0.31,
          "vel": 108,
          "clef": "treble",
          "pitch": "A4"
        },
        {
          "midi": 52,
          "beat": 3.96,
          "dur": 0.04,
          "vel": 52,
          "clef": "bass",
          "pitch": "E3"
        },
        {
          "midi": 60,
          "beat": 3.97,
          "dur": 0.03,
          "vel": 54,
          "clef": "treble",
          "pitch": "C4"
        }
      ]
    },
    {
      "_": "Treble: 37 notes, Bass: 56 notes",
      "number": 38,
      "notes": [
        {
          "midi": 33,
          "beat": 0,
          "dur": 1.67,
          "vel": 76,
          "clef": "bass",
          "pitch": "A1"
        },
        {
          "midi": 35,
          "beat": 0,
          "dur": 0.02,
          "vel": 121,
          "clef": "bass",
          "pitch": "B1"
        },
        {
          "midi": 51,
          "beat": 0,
          "dur": 0.02,
          "vel": 69,
          "clef": "bass",
          "acc": "#",
          "pitch": "D#3"
        },
        {
          "midi": 72,
          "beat": 0.01,
          "dur": 1.56,
          "vel": 109,
          "clef": "treble",
          "pitch": "C5"
        },
        {
          "midi": 45,
          "beat": 0.02,
          "dur": 0.95,
          "vel": 59,
          "clef": "bass",
          "pitch": "A2"
        },
        {
          "midi": 55,
          "beat": 0.02,
          "dur": 0.95,
          "vel": 54,
          "clef": "bass",
          "pitch": "G3"
        },
        {
          "midi": 43,
          "beat": 0.63,
          "dur": 0.53,
          "vel": 94,
          "clef": "bass",
          "pitch": "G2"
        },
        {
          "midi": 57,
          "beat": 0.63,
          "dur": 0.54,
          "vel": 118,
          "clef": "bass",
          "pitch": "A3"
        },
        {
          "midi": 60,
          "beat": 0.63,
          "dur": 0.54,
          "vel": 113,
          "clef": "treble",
          "pitch": "C4"
        },
        {
          "midi": 60,
          "beat": 0.63,
          "dur": 0.53,
          "vel": 63,
          "clef": "treble",
          "pitch": "C4"
        },
        {
          "midi": 76,
          "beat": 0.63,
          "dur": 0.54,
          "vel": 75,
          "clef": "treble",
          "pitch": "E5"
        },
        {
          "midi": 79,
          "beat": 0.63,
          "dur": 0.54,
          "vel": 79,
          "clef": "treble",
          "pitch": "G5"
        },
        {
          "midi": 81,
          "beat": 0.63,
          "dur": 0.54,
          "vel": 82,
          "clef": "treble",
          "pitch": "A5"
        },
        {
          "midi": 84,
          "beat": 0.63,
          "dur": 0.54,
          "vel": 118,
          "clef": "treble",
          "pitch": "C6"
        },
        {
          "midi": 55,
          "beat": 0.66,
          "dur": 0.53,
          "vel": 98,
          "clef": "bass",
          "pitch": "G3"
        },
        {
          "midi": 64,
          "beat": 0.66,
          "dur": 0.53,
          "vel": 94,
          "clef": "treble",
          "pitch": "E4"
        },
        {
          "midi": 60,
          "beat": 0.97,
          "dur": 0.95,
          "vel": 55,
          "clef": "treble",
          "pitch": "C4"
        },
        {
          "midi": 35,
          "beat": 1,
          "dur": 1.67,
          "vel": 80,
          "clef": "bass",
          "pitch": "B1"
        },
        {
          "midi": 40,
          "beat": 1,
          "dur": 0.02,
          "vel": 100,
          "clef": "bass",
          "pitch": "E2"
        },
        {
          "midi": 44,
          "beat": 1,
          "dur": 0.02,
          "vel": 72,
          "clef": "bass",
          "acc": "#",
          "pitch": "G#2"
        },
        {
          "midi": 44,
          "beat": 1,
          "dur": 1.1,
          "vel": 89,
          "clef": "bass",
          "acc": "#",
          "pitch": "G#2"
        },
        {
          "midi": 51,
          "beat": 1,
          "dur": 0.02,
          "vel": 76,
          "clef": "bass",
          "acc": "#",
          "pitch": "D#3"
        },
        {
          "midi": 56,
          "beat": 1,
          "dur": 1.11,
          "vel": 115,
          "clef": "bass",
          "acc": "#",
          "pitch": "G#3"
        },
        {
          "midi": 56,
          "beat": 1,
          "dur": 1.1,
          "vel": 94,
          "clef": "bass",
          "acc": "#",
          "pitch": "G#3"
        },
        {
          "midi": 59,
          "beat": 1,
          "dur": 1.11,
          "vel": 116,
          "clef": "bass",
          "pitch": "B3"
        },
        {
          "midi": 59,
          "beat": 1,
          "dur": 1.1,
          "vel": 59,
          "clef": "bass",
          "pitch": "B3"
        },
        {
          "midi": 62,
          "beat": 1,
          "dur": 1.1,
          "vel": 95,
          "clef": "treble",
          "pitch": "D4"
        },
        {
          "midi": 74,
          "beat": 1,
          "dur": 1.11,
          "vel": 79,
          "clef": "treble",
          "pitch": "D5"
        },
        {
          "midi": 77,
          "beat": 1,
          "dur": 0.83,
          "vel": 75,
          "clef": "treble",
          "pitch": "F5"
        },
        {
          "midi": 80,
          "beat": 1,
          "dur": 1.11,
          "vel": 76,
          "clef": "treble",
          "acc": "#",
          "pitch": "G#5"
        },
        {
          "midi": 83,
          "beat": 1,
          "dur": 0.83,
          "vel": 120,
          "clef": "treble",
          "pitch": "B5"
        },
        {
          "midi": 52,
          "beat": 1.01,
          "dur": 0.95,
          "vel": 51,
          "clef": "bass",
          "pitch": "E3"
        },
        {
          "midi": 55,
          "beat": 1.01,
          "dur": 0.95,
          "vel": 51,
          "clef": "bass",
          "pitch": "G3"
        },
        {
          "midi": 45,
          "beat": 1.02,
          "dur": 0.95,
          "vel": 54,
          "clef": "bass",
          "pitch": "A2"
        },
        {
          "midi": 44,
          "beat": 1.63,
          "dur": 0.53,
          "vel": 89,
          "clef": "bass",
          "acc": "#",
          "pitch": "G#2"
        },
        {
          "midi": 56,
          "beat": 1.63,
          "dur": 0.54,
          "vel": 111,
          "clef": "bass",
          "acc": "#",
          "pitch": "G#3"
        },
        {
          "midi": 59,
          "beat": 1.63,
          "dur": 0.54,
          "vel": 112,
          "clef": "bass",
          "pitch": "B3"
        },
        {
          "midi": 59,
          "beat": 1.63,
          "dur": 0.53,
          "vel": 63,
          "clef": "bass",
          "pitch": "B3"
        },
        {
          "midi": 74,
          "beat": 1.63,
          "dur": 0.54,
          "vel": 82,
          "clef": "treble",
          "pitch": "D5"
        },
        {
          "midi": 77,
          "beat": 1.63,
          "dur": 0.54,
          "vel": 74,
          "clef": "treble",
          "pitch": "F5"
        },
        {
          "midi": 80,
          "beat": 1.63,
          "dur": 0.54,
          "vel": 78,
          "clef": "treble",
          "acc": "#",
          "pitch": "G#5"
        },
        {
          "midi": 83,
          "beat": 1.63,
          "dur": 0.54,
          "vel": 119,
          "clef": "treble",
          "pitch": "B5"
        },
        {
          "midi": 35,
          "beat": 1.65,
          "dur": 0.02,
          "vel": 75,
          "clef": "bass",
          "pitch": "B1"
        },
        {
          "midi": 51,
          "beat": 1.65,
          "dur": 0.02,
          "vel": 26,
          "clef": "bass",
          "acc": "#",
          "pitch": "D#3"
        },
        {
          "midi": 56,
          "beat": 1.66,
          "dur": 0.53,
          "vel": 101,
          "clef": "bass",
          "acc": "#",
          "pitch": "G#3"
        },
        {
          "midi": 62,
          "beat": 1.66,
          "dur": 0.53,
          "vel": 94,
          "clef": "treble",
          "pitch": "D4"
        },
        {
          "midi": 45,
          "beat": 1.98,
          "dur": 0.95,
          "vel": 56,
          "clef": "bass",
          "pitch": "A2"
        },
        {
          "midi": 35,
          "beat": 2,
          "dur": 0.02,
          "vel": 121,
          "clef": "bass",
          "pitch": "B1"
        },
        {
          "midi": 36,
          "beat": 2,
          "dur": 1.67,
          "vel": 82,
          "clef": "bass",
          "pitch": "C2"
        },
        {
          "midi": 45,
          "beat": 2,
          "dur": 1.1,
          "vel": 85,
          "clef": "bass",
          "pitch": "A2"
        },
        {
          "midi": 51,
          "beat": 2,
          "dur": 0.02,
          "vel": 76,
          "clef": "bass",
          "acc": "#",
          "pitch": "D#3"
        },
        {
          "midi": 52,
          "beat": 2,
          "dur": 0.54,
          "vel": 117,
          "clef": "bass",
          "pitch": "E3"
        },
        {
          "midi": 55,
          "beat": 2,
          "dur": 0.95,
          "vel": 52,
          "clef": "bass",
          "pitch": "G3"
        },
        {
          "midi": 57,
          "beat": 2,
          "dur": 0.54,
          "vel": 110,
          "clef": "bass",
          "pitch": "A3"
        },
        {
          "midi": 57,
          "beat": 2,
          "dur": 1.1,
          "vel": 98,
          "clef": "bass",
          "pitch": "A3"
        },
        {
          "midi": 60,
          "beat": 2,
          "dur": 1.1,
          "vel": 56,
          "clef": "treble",
          "pitch": "C4"
        },
        {
          "midi": 64,
          "beat": 2,
          "dur": 1.1,
          "vel": 96,
          "clef": "treble",
          "pitch": "E4"
        },
        {
          "midi": 72,
          "beat": 2,
          "dur": 0.54,
          "vel": 84,
          "clef": "treble",
          "pitch": "C5"
        },
        {
          "midi": 76,
          "beat": 2,
          "dur": 0.83,
          "vel": 76,
          "clef": "treble",
          "pitch": "E5"
        },
        {
          "midi": 79,
          "beat": 2,
          "dur": 0.54,
          "vel": 82,
          "clef": "treble",
          "pitch": "G5"
        },
        {
          "midi": 81,
          "beat": 2,
          "dur": 0.83,
          "vel": 117,
          "clef": "treble",
          "pitch": "A5"
        },
        {
          "midi": 60,
          "beat": 2.01,
          "dur": 0.95,
          "vel": 54,
          "clef": "treble",
          "pitch": "C4"
        },
        {
          "midi": 52,
          "beat": 2.02,
          "dur": 0.95,
          "vel": 55,
          "clef": "bass",
          "pitch": "E3"
        },
        {
          "midi": 43,
          "beat": 2.63,
          "dur": 0.53,
          "vel": 86,
          "clef": "bass",
          "pitch": "G2"
        },
        {
          "midi": 52,
          "beat": 2.63,
          "dur": 0.54,
          "vel": 114,
          "clef": "bass",
          "pitch": "E3"
        },
        {
          "midi": 55,
          "beat": 2.63,
          "dur": 0.54,
          "vel": 116,
          "clef": "bass",
          "pitch": "G3"
        },
        {
          "midi": 59,
          "beat": 2.63,
          "dur": 0.53,
          "vel": 57,
          "clef": "bass",
          "pitch": "B3"
        },
        {
          "midi": 71,
          "beat": 2.63,
          "dur": 0.54,
          "vel": 76,
          "clef": "treble",
          "pitch": "B4"
        },
        {
          "midi": 74,
          "beat": 2.63,
          "dur": 0.54,
          "vel": 83,
          "clef": "treble",
          "pitch": "D5"
        },
        {
          "midi": 76,
          "beat": 2.63,
          "dur": 0.54,
          "vel": 79,
          "clef": "treble",
          "pitch": "E5"
        },
        {
          "midi": 79,
          "beat": 2.63,
          "dur": 0.54,
          "vel": 117,
          "clef": "treble",
          "pitch": "G5"
        },
        {
          "midi": 55,
          "beat": 2.66,
          "dur": 0.53,
          "vel": 96,
          "clef": "bass",
          "pitch": "G3"
        },
        {
          "midi": 62,
          "beat": 2.66,
          "dur": 0.53,
          "vel": 103,
          "clef": "treble",
          "pitch": "D4"
        },
        {
          "midi": 55,
          "beat": 2.97,
          "dur": 0.95,
          "vel": 51,
          "clef": "bass",
          "pitch": "G3"
        },
        {
          "midi": 52,
          "beat": 2.97,
          "dur": 0.95,
          "vel": 59,
          "clef": "bass",
          "pitch": "E3"
        },
        {
          "midi": 37,
          "beat": 3,
          "dur": 1,
          "vel": 85,
          "clef": "bass",
          "acc": "#",
          "pitch": "C#2"
        },
        {
          "midi": 40,
          "beat": 3,
          "dur": 0.02,
          "vel": 102,
          "clef": "bass",
          "pitch": "E2"
        },
        {
          "midi": 44,
          "beat": 3,
          "dur": 0.02,
          "vel": 75,
          "clef": "bass",
          "acc": "#",
          "pitch": "G#2"
        },
        {
          "midi": 45,
          "beat": 3,
          "dur": 0.95,
          "vel": 60,
          "clef": "bass",
          "pitch": "A2"
        },
        {
          "midi": 51,
          "beat": 3,
          "dur": 0.02,
          "vel": 73,
          "clef": "bass",
          "acc": "#",
          "pitch": "D#3"
        },
        {
          "midi": 60,
          "beat": 3.01,
          "dur": 0.95,
          "vel": 55,
          "clef": "treble",
          "pitch": "C4"
        },
        {
          "midi": 41,
          "beat": 3.63,
          "dur": 0.37,
          "vel": 87,
          "clef": "bass",
          "pitch": "F2"
        },
        {
          "midi": 50,
          "beat": 3.63,
          "dur": 0.37,
          "vel": 110,
          "clef": "bass",
          "pitch": "D3"
        },
        {
          "midi": 53,
          "beat": 3.63,
          "dur": 0.37,
          "vel": 116,
          "clef": "bass",
          "pitch": "F3"
        },
        {
          "midi": 57,
          "beat": 3.63,
          "dur": 0.37,
          "vel": 56,
          "clef": "bass",
          "pitch": "A3"
        },
        {
          "midi": 69,
          "beat": 3.63,
          "dur": 0.37,
          "vel": 79,
          "clef": "treble",
          "pitch": "A4"
        },
        {
          "midi": 72,
          "beat": 3.63,
          "dur": 0.37,
          "vel": 75,
          "clef": "treble",
          "pitch": "C5"
        },
        {
          "midi": 74,
          "beat": 3.63,
          "dur": 0.37,
          "vel": 83,
          "clef": "treble",
          "pitch": "D5"
        },
        {
          "midi": 77,
          "beat": 3.63,
          "dur": 0.37,
          "vel": 114,
          "clef": "treble",
          "pitch": "F5"
        },
        {
          "midi": 53,
          "beat": 3.66,
          "dur": 0.34,
          "vel": 97,
          "clef": "bass",
          "pitch": "F3"
        },
        {
          "midi": 60,
          "beat": 3.66,
          "dur": 0.34,
          "vel": 98,
          "clef": "treble",
          "pitch": "C4"
        },
        {
          "midi": 53,
          "beat": 3.92,
          "dur": 0.08,
          "vel": 53,
          "clef": "bass",
          "pitch": "F3"
        },
        {
          "midi": 50,
          "beat": 3.98,
          "dur": 0.02,
          "vel": 53,
          "clef": "bass",
          "pitch": "D3"
        }
      ]
    },
    {
      "_": "Treble: 16 notes, Bass: 32 notes",
      "number": 39,
      "notes": [
        {
          "midi": 35,
          "beat": 0,
          "dur": 0.02,
          "vel": 114,
          "clef": "bass",
          "pitch": "B1"
        },
        {
          "midi": 38,
          "beat": 0,
          "dur": 1.67,
          "vel": 83,
          "clef": "bass",
          "pitch": "D2"
        },
        {
          "midi": 51,
          "beat": 0,
          "dur": 0.02,
          "vel": 72,
          "clef": "bass",
          "acc": "#",
          "pitch": "D#3"
        },
        {
          "midi": 45,
          "beat": 0.01,
          "dur": 0.95,
          "vel": 51,
          "clef": "bass",
          "pitch": "A2"
        },
        {
          "midi": 60,
          "beat": 0.01,
          "dur": 0.95,
          "vel": 59,
          "clef": "treble",
          "pitch": "C4"
        },
        {
          "midi": 40,
          "beat": 0.76,
          "dur": 0.02,
          "vel": 55,
          "clef": "bass",
          "pitch": "E2"
        },
        {
          "midi": 40,
          "beat": 0.84,
          "dur": 0.02,
          "vel": 73,
          "clef": "bass",
          "pitch": "E2"
        },
        {
          "midi": 40,
          "beat": 0.93,
          "dur": 0.02,
          "vel": 91,
          "clef": "bass",
          "pitch": "E2"
        },
        {
          "midi": 60,
          "beat": 0.93,
          "dur": 0.95,
          "vel": 53,
          "clef": "treble",
          "pitch": "C4"
        },
        {
          "midi": 44,
          "beat": 0.98,
          "dur": 0.02,
          "vel": 115,
          "clef": "bass",
          "acc": "#",
          "pitch": "G#2"
        },
        {
          "midi": 40,
          "beat": 1,
          "dur": 1.67,
          "vel": 79,
          "clef": "bass",
          "pitch": "E2"
        },
        {
          "midi": 45,
          "beat": 1,
          "dur": 0.95,
          "vel": 56,
          "clef": "bass",
          "pitch": "A2"
        },
        {
          "midi": 51,
          "beat": 1,
          "dur": 0.02,
          "vel": 120,
          "clef": "bass",
          "acc": "#",
          "pitch": "D#3"
        },
        {
          "midi": 53,
          "beat": 1.01,
          "dur": 0.95,
          "vel": 55,
          "clef": "bass",
          "pitch": "F3"
        },
        {
          "midi": 40,
          "beat": 1.01,
          "dur": 0.02,
          "vel": 100,
          "clef": "bass",
          "pitch": "E2"
        },
        {
          "midi": 50,
          "beat": 1.02,
          "dur": 0.95,
          "vel": 54,
          "clef": "bass",
          "pitch": "D3"
        },
        {
          "midi": 35,
          "beat": 1.65,
          "dur": 0.02,
          "vel": 73,
          "clef": "bass",
          "pitch": "B1"
        },
        {
          "midi": 51,
          "beat": 1.65,
          "dur": 0.02,
          "vel": 26,
          "clef": "bass",
          "acc": "#",
          "pitch": "D#3"
        },
        {
          "midi": 60,
          "beat": 1.95,
          "dur": 0.95,
          "vel": 52,
          "clef": "treble",
          "pitch": "C4"
        },
        {
          "midi": 45,
          "beat": 1.98,
          "dur": 0.95,
          "vel": 59,
          "clef": "bass",
          "pitch": "A2"
        },
        {
          "midi": 35,
          "beat": 2,
          "dur": 0.02,
          "vel": 114,
          "clef": "bass",
          "pitch": "B1"
        },
        {
          "midi": 41,
          "beat": 2,
          "dur": 1.67,
          "vel": 79,
          "clef": "bass",
          "pitch": "F2"
        },
        {
          "midi": 51,
          "beat": 2,
          "dur": 0.02,
          "vel": 73,
          "clef": "bass",
          "acc": "#",
          "pitch": "D#3"
        },
        {
          "midi": 53,
          "beat": 2.01,
          "dur": 0.95,
          "vel": 58,
          "clef": "bass",
          "pitch": "F3"
        },
        {
          "midi": 50,
          "beat": 2.02,
          "dur": 0.95,
          "vel": 59,
          "clef": "bass",
          "pitch": "D3"
        },
        {
          "midi": 45,
          "beat": 2.97,
          "dur": 0.95,
          "vel": 56,
          "clef": "bass",
          "pitch": "A2"
        },
        {
          "midi": 38,
          "beat": 3,
          "dur": 1,
          "vel": 79,
          "clef": "bass",
          "pitch": "D2"
        },
        {
          "midi": 40,
          "beat": 3,
          "dur": 0.02,
          "vel": 105,
          "clef": "bass",
          "pitch": "E2"
        },
        {
          "midi": 44,
          "beat": 3,
          "dur": 0.02,
          "vel": 67,
          "clef": "bass",
          "acc": "#",
          "pitch": "G#2"
        },
        {
          "midi": 51,
          "beat": 3,
          "dur": 0.02,
          "vel": 70,
          "clef": "bass",
          "acc": "#",
          "pitch": "D#3"
        },
        {
          "midi": 62,
          "beat": 3,
          "dur": 0.4,
          "vel": 81,
          "clef": "treble",
          "pitch": "D4"
        },
        {
          "midi": 65,
          "beat": 3,
          "dur": 0.54,
          "vel": 84,
          "clef": "treble",
          "pitch": "F4"
        },
        {
          "midi": 74,
          "beat": 3,
          "dur": 0.54,
          "vel": 79,
          "clef": "treble",
          "pitch": "D5"
        },
        {
          "midi": 77,
          "beat": 3,
          "dur": 0.4,
          "vel": 117,
          "clef": "treble",
          "pitch": "F5"
        },
        {
          "midi": 53,
          "beat": 3.01,
          "dur": 0.95,
          "vel": 56,
          "clef": "bass",
          "pitch": "F3"
        },
        {
          "midi": 60,
          "beat": 3.01,
          "dur": 0.95,
          "vel": 57,
          "clef": "treble",
          "pitch": "C4"
        },
        {
          "midi": 50,
          "beat": 3.02,
          "dur": 0.95,
          "vel": 56,
          "clef": "bass",
          "pitch": "D3"
        },
        {
          "midi": 64,
          "beat": 3.25,
          "dur": 0.4,
          "vel": 75,
          "clef": "treble",
          "pitch": "E4"
        },
        {
          "midi": 67,
          "beat": 3.25,
          "dur": 0.54,
          "vel": 75,
          "clef": "treble",
          "pitch": "G4"
        },
        {
          "midi": 76,
          "beat": 3.25,
          "dur": 0.54,
          "vel": 81,
          "clef": "treble",
          "pitch": "E5"
        },
        {
          "midi": 79,
          "beat": 3.25,
          "dur": 0.45,
          "vel": 120,
          "clef": "treble",
          "pitch": "G5"
        },
        {
          "midi": 33,
          "beat": 3.67,
          "dur": 0.33,
          "vel": 76,
          "clef": "bass",
          "pitch": "A1"
        },
        {
          "midi": 69,
          "beat": 3.75,
          "dur": 0.25,
          "vel": 83,
          "clef": "treble",
          "pitch": "A4"
        },
        {
          "midi": 72,
          "beat": 3.75,
          "dur": 0.25,
          "vel": 83,
          "clef": "treble",
          "pitch": "C5"
        },
        {
          "midi": 81,
          "beat": 3.75,
          "dur": 0.25,
          "vel": 79,
          "clef": "treble",
          "pitch": "A5"
        },
        {
          "midi": 84,
          "beat": 3.75,
          "dur": 0.25,
          "vel": 121,
          "clef": "treble",
          "pitch": "C6"
        },
        {
          "midi": 59,
          "beat": 3.96,
          "dur": 0.04,
          "vel": 60,
          "clef": "bass",
          "pitch": "B3"
        },
        {
          "midi": 43,
          "beat": 3.98,
          "dur": 0.02,
          "vel": 57,
          "clef": "bass",
          "pitch": "G2"
        }
      ]
    },
    {
      "_": "Treble: 39 notes, Bass: 47 notes",
      "number": 40,
      "notes": [
        {
          "midi": 31,
          "beat": 0,
          "dur": 1.67,
          "vel": 80,
          "clef": "bass",
          "pitch": "G1"
        },
        {
          "midi": 31,
          "beat": 0,
          "dur": 1.67,
          "vel": 88,
          "clef": "bass",
          "pitch": "G1"
        },
        {
          "midi": 35,
          "beat": 0,
          "dur": 0.02,
          "vel": 114,
          "clef": "bass",
          "pitch": "B1"
        },
        {
          "midi": 50,
          "beat": 0,
          "dur": 1.69,
          "vel": 109,
          "clef": "bass",
          "pitch": "D3"
        },
        {
          "midi": 51,
          "beat": 0,
          "dur": 0.02,
          "vel": 72,
          "clef": "bass",
          "acc": "#",
          "pitch": "D#3"
        },
        {
          "midi": 55,
          "beat": 0,
          "dur": 1.69,
          "vel": 118,
          "clef": "bass",
          "pitch": "G3"
        },
        {
          "midi": 59,
          "beat": 0,
          "dur": 1.69,
          "vel": 109,
          "clef": "bass",
          "pitch": "B3"
        },
        {
          "midi": 62,
          "beat": 0,
          "dur": 1.67,
          "vel": 98,
          "clef": "treble",
          "pitch": "D4"
        },
        {
          "midi": 67,
          "beat": 0,
          "dur": 1.67,
          "vel": 61,
          "clef": "treble",
          "pitch": "G4"
        },
        {
          "midi": 71,
          "beat": 0,
          "dur": 1.67,
          "vel": 101,
          "clef": "treble",
          "pitch": "B4"
        },
        {
          "midi": 74,
          "beat": 0,
          "dur": 1.69,
          "vel": 78,
          "clef": "treble",
          "pitch": "D5"
        },
        {
          "midi": 76,
          "beat": 0,
          "dur": 1.69,
          "vel": 75,
          "clef": "treble",
          "pitch": "E5"
        },
        {
          "midi": 79,
          "beat": 0,
          "dur": 1.69,
          "vel": 84,
          "clef": "treble",
          "pitch": "G5"
        },
        {
          "midi": 83,
          "beat": 0,
          "dur": 1.69,
          "vel": 115,
          "clef": "treble",
          "pitch": "B5"
        },
        {
          "midi": 53,
          "beat": 0.01,
          "dur": 0.95,
          "vel": 57,
          "clef": "bass",
          "pitch": "F3"
        },
        {
          "midi": 50,
          "beat": 0.01,
          "dur": 0.95,
          "vel": 51,
          "clef": "bass",
          "pitch": "D3"
        },
        {
          "midi": 53,
          "beat": 0.94,
          "dur": 0.95,
          "vel": 60,
          "clef": "bass",
          "pitch": "F3"
        },
        {
          "midi": 43,
          "beat": 0.95,
          "dur": 0.95,
          "vel": 60,
          "clef": "bass",
          "pitch": "G2"
        },
        {
          "midi": 59,
          "beat": 0.98,
          "dur": 0.95,
          "vel": 56,
          "clef": "bass",
          "pitch": "B3"
        },
        {
          "midi": 33,
          "beat": 1,
          "dur": 1.67,
          "vel": 80,
          "clef": "bass",
          "pitch": "A1"
        },
        {
          "midi": 33,
          "beat": 1,
          "dur": 1.67,
          "vel": 94,
          "clef": "bass",
          "pitch": "A1"
        },
        {
          "midi": 40,
          "beat": 1,
          "dur": 0.02,
          "vel": 98,
          "clef": "bass",
          "pitch": "E2"
        },
        {
          "midi": 44,
          "beat": 1,
          "dur": 0.02,
          "vel": 69,
          "clef": "bass",
          "acc": "#",
          "pitch": "G#2"
        },
        {
          "midi": 50,
          "beat": 1,
          "dur": 0.95,
          "vel": 59,
          "clef": "bass",
          "pitch": "D3"
        },
        {
          "midi": 51,
          "beat": 1,
          "dur": 0.02,
          "vel": 68,
          "clef": "bass",
          "acc": "#",
          "pitch": "D#3"
        },
        {
          "midi": 52,
          "beat": 1,
          "dur": 1.69,
          "vel": 118,
          "clef": "bass",
          "pitch": "E3"
        },
        {
          "midi": 57,
          "beat": 1,
          "dur": 1.69,
          "vel": 111,
          "clef": "bass",
          "pitch": "A3"
        },
        {
          "midi": 60,
          "beat": 1,
          "dur": 1.69,
          "vel": 109,
          "clef": "treble",
          "pitch": "C4"
        },
        {
          "midi": 60,
          "beat": 1,
          "dur": 1.67,
          "vel": 100,
          "clef": "treble",
          "pitch": "C4"
        },
        {
          "midi": 65,
          "beat": 1,
          "dur": 1.67,
          "vel": 61,
          "clef": "treble",
          "pitch": "F4"
        },
        {
          "midi": 69,
          "beat": 1,
          "dur": 1.67,
          "vel": 98,
          "clef": "treble",
          "pitch": "A4"
        },
        {
          "midi": 72,
          "beat": 1,
          "dur": 1.69,
          "vel": 77,
          "clef": "treble",
          "pitch": "C5"
        },
        {
          "midi": 74,
          "beat": 1,
          "dur": 1.69,
          "vel": 81,
          "clef": "treble",
          "pitch": "D5"
        },
        {
          "midi": 77,
          "beat": 1,
          "dur": 1.69,
          "vel": 76,
          "clef": "treble",
          "pitch": "F5"
        },
        {
          "midi": 81,
          "beat": 1,
          "dur": 1.69,
          "vel": 114,
          "clef": "treble",
          "pitch": "A5"
        },
        {
          "midi": 51,
          "beat": 1.65,
          "dur": 0.02,
          "vel": 33,
          "clef": "bass",
          "acc": "#",
          "pitch": "D#3"
        },
        {
          "midi": 43,
          "beat": 1.97,
          "dur": 0.95,
          "vel": 51,
          "clef": "bass",
          "pitch": "G2"
        },
        {
          "midi": 53,
          "beat": 1.97,
          "dur": 0.95,
          "vel": 53,
          "clef": "bass",
          "pitch": "F3"
        },
        {
          "midi": 50,
          "beat": 1.98,
          "dur": 0.95,
          "vel": 59,
          "clef": "bass",
          "pitch": "D3"
        },
        {
          "midi": 59,
          "beat": 1.99,
          "dur": 0.95,
          "vel": 51,
          "clef": "bass",
          "pitch": "B3"
        },
        {
          "midi": 34,
          "beat": 2,
          "dur": 1.67,
          "vel": 82,
          "clef": "bass",
          "acc": "#",
          "pitch": "A#1"
        },
        {
          "midi": 34,
          "beat": 2,
          "dur": 1.67,
          "vel": 93,
          "clef": "bass",
          "acc": "#",
          "pitch": "A#1"
        },
        {
          "midi": 51,
          "beat": 2,
          "dur": 0.02,
          "vel": 74,
          "clef": "bass",
          "acc": "#",
          "pitch": "D#3"
        },
        {
          "midi": 52,
          "beat": 2,
          "dur": 1.69,
          "vel": 109,
          "clef": "bass",
          "pitch": "E3"
        },
        {
          "midi": 58,
          "beat": 2,
          "dur": 1.69,
          "vel": 109,
          "clef": "bass",
          "acc": "#",
          "pitch": "A#3"
        },
        {
          "midi": 59,
          "beat": 2,
          "dur": 1.67,
          "vel": 100,
          "clef": "bass",
          "pitch": "B3"
        },
        {
          "midi": 61,
          "beat": 2,
          "dur": 1.69,
          "vel": 109,
          "clef": "treble",
          "acc": "#",
          "pitch": "C#4"
        },
        {
          "midi": 64,
          "beat": 2,
          "dur": 1.67,
          "vel": 59,
          "clef": "treble",
          "pitch": "E4"
        },
        {
          "midi": 67,
          "beat": 2,
          "dur": 1.67,
          "vel": 96,
          "clef": "treble",
          "pitch": "G4"
        },
        {
          "midi": 71,
          "beat": 2,
          "dur": 1.69,
          "vel": 81,
          "clef": "treble",
          "pitch": "B4"
        },
        {
          "midi": 72,
          "beat": 2,
          "dur": 1.11,
          "vel": 79,
          "clef": "treble",
          "pitch": "C5"
        },
        {
          "midi": 76,
          "beat": 2,
          "dur": 1.69,
          "vel": 82,
          "clef": "treble",
          "pitch": "E5"
        },
        {
          "midi": 79,
          "beat": 2,
          "dur": 1.11,
          "vel": 117,
          "clef": "treble",
          "pitch": "G5"
        },
        {
          "midi": 81,
          "beat": 2.75,
          "dur": 0.25,
          "vel": 117,
          "clef": "treble",
          "pitch": "A5"
        },
        {
          "midi": 79,
          "beat": 2.87,
          "dur": 0.25,
          "vel": 115,
          "clef": "treble",
          "pitch": "G5"
        },
        {
          "midi": 50,
          "beat": 2.96,
          "dur": 0.95,
          "vel": 52,
          "clef": "bass",
          "pitch": "D3"
        },
        {
          "midi": 59,
          "beat": 2.99,
          "dur": 0.95,
          "vel": 52,
          "clef": "bass",
          "pitch": "B3"
        },
        {
          "midi": 35,
          "beat": 3,
          "dur": 1,
          "vel": 76,
          "clef": "bass",
          "pitch": "B1"
        },
        {
          "midi": 35,
          "beat": 3,
          "dur": 1,
          "vel": 90,
          "clef": "bass",
          "pitch": "B1"
        },
        {
          "midi": 40,
          "beat": 3,
          "dur": 0.02,
          "vel": 101,
          "clef": "bass",
          "pitch": "E2"
        },
        {
          "midi": 43,
          "beat": 3,
          "dur": 0.95,
          "vel": 52,
          "clef": "bass",
          "pitch": "G2"
        },
        {
          "midi": 44,
          "beat": 3,
          "dur": 0.02,
          "vel": 70,
          "clef": "bass",
          "acc": "#",
          "pitch": "G#2"
        },
        {
          "midi": 51,
          "beat": 3,
          "dur": 0.02,
          "vel": 72,
          "clef": "bass",
          "acc": "#",
          "pitch": "D#3"
        },
        {
          "midi": 53,
          "beat": 3,
          "dur": 1,
          "vel": 118,
          "clef": "bass",
          "pitch": "F3"
        },
        {
          "midi": 57,
          "beat": 3,
          "dur": 1,
          "vel": 100,
          "clef": "bass",
          "pitch": "A3"
        },
        {
          "midi": 59,
          "beat": 3,
          "dur": 1,
          "vel": 109,
          "clef": "bass",
          "pitch": "B3"
        },
        {
          "midi": 62,
          "beat": 3,
          "dur": 1,
          "vel": 113,
          "clef": "treble",
          "pitch": "D4"
        },
        {
          "midi": 62,
          "beat": 3,
          "dur": 1,
          "vel": 59,
          "clef": "treble",
          "pitch": "D4"
        },
        {
          "midi": 65,
          "beat": 3,
          "dur": 1,
          "vel": 96,
          "clef": "treble",
          "pitch": "F4"
        },
        {
          "midi": 69,
          "beat": 3,
          "dur": 1,
          "vel": 84,
          "clef": "treble",
          "pitch": "A4"
        },
        {
          "midi": 71,
          "beat": 3,
          "dur": 1,
          "vel": 75,
          "clef": "treble",
          "pitch": "B4"
        },
        {
          "midi": 74,
          "beat": 3,
          "dur": 1,
          "vel": 77,
          "clef": "treble",
          "pitch": "D5"
        },
        {
          "midi": 77,
          "beat": 3,
          "dur": 1,
          "vel": 117,
          "clef": "treble",
          "pitch": "F5"
        },
        {
          "midi": 53,
          "beat": 3.01,
          "dur": 0.95,
          "vel": 54,
          "clef": "bass",
          "pitch": "F3"
        },
        {
          "midi": 36,
          "beat": 3.63,
          "dur": 0.37,
          "vel": 88,
          "clef": "bass",
          "pitch": "C2"
        },
        {
          "midi": 55,
          "beat": 3.63,
          "dur": 0.37,
          "vel": 115,
          "clef": "bass",
          "pitch": "G3"
        },
        {
          "midi": 60,
          "beat": 3.63,
          "dur": 0.37,
          "vel": 110,
          "clef": "treble",
          "pitch": "C4"
        },
        {
          "midi": 60,
          "beat": 3.63,
          "dur": 0.37,
          "vel": 58,
          "clef": "treble",
          "pitch": "C4"
        },
        {
          "midi": 64,
          "beat": 3.63,
          "dur": 0.37,
          "vel": 115,
          "clef": "treble",
          "pitch": "E4"
        },
        {
          "midi": 67,
          "beat": 3.63,
          "dur": 0.37,
          "vel": 81,
          "clef": "treble",
          "pitch": "G4"
        },
        {
          "midi": 69,
          "beat": 3.63,
          "dur": 0.37,
          "vel": 78,
          "clef": "treble",
          "pitch": "A4"
        },
        {
          "midi": 72,
          "beat": 3.63,
          "dur": 0.37,
          "vel": 81,
          "clef": "treble",
          "pitch": "C5"
        },
        {
          "midi": 76,
          "beat": 3.63,
          "dur": 0.37,
          "vel": 113,
          "clef": "treble",
          "pitch": "E5"
        },
        {
          "midi": 55,
          "beat": 3.66,
          "dur": 0.34,
          "vel": 95,
          "clef": "bass",
          "pitch": "G3"
        },
        {
          "midi": 64,
          "beat": 3.66,
          "dur": 0.34,
          "vel": 99,
          "clef": "treble",
          "pitch": "E4"
        },
        {
          "midi": 45,
          "beat": 3.98,
          "dur": 0.02,
          "vel": 59,
          "clef": "bass",
          "pitch": "A2"
        }
      ]
    },
    {
      "_": "Treble: 9 notes, Bass: 31 notes",
      "number": 41,
      "notes": [
        {
          "midi": 35,
          "beat": 0,
          "dur": 0.02,
          "vel": 118,
          "clef": "bass",
          "pitch": "B1"
        },
        {
          "midi": 36,
          "beat": 0,
          "dur": 1.67,
          "vel": 80,
          "clef": "bass",
          "pitch": "C2"
        },
        {
          "midi": 51,
          "beat": 0,
          "dur": 0.02,
          "vel": 72,
          "clef": "bass",
          "acc": "#",
          "pitch": "D#3"
        },
        {
          "midi": 52,
          "beat": 0,
          "dur": 0.95,
          "vel": 52,
          "clef": "bass",
          "pitch": "E3"
        },
        {
          "midi": 60,
          "beat": 0.01,
          "dur": 0.95,
          "vel": 55,
          "clef": "treble",
          "pitch": "C4"
        },
        {
          "midi": 55,
          "beat": 0.02,
          "dur": 0.95,
          "vel": 56,
          "clef": "bass",
          "pitch": "G3"
        },
        {
          "midi": 45,
          "beat": 0.95,
          "dur": 0.95,
          "vel": 60,
          "clef": "bass",
          "pitch": "A2"
        },
        {
          "midi": 40,
          "beat": 1,
          "dur": 0.02,
          "vel": 104,
          "clef": "bass",
          "pitch": "E2"
        },
        {
          "midi": 40,
          "beat": 1,
          "dur": 1.67,
          "vel": 79,
          "clef": "bass",
          "pitch": "E2"
        },
        {
          "midi": 44,
          "beat": 1,
          "dur": 0.02,
          "vel": 72,
          "clef": "bass",
          "acc": "#",
          "pitch": "G#2"
        },
        {
          "midi": 51,
          "beat": 1,
          "dur": 0.02,
          "vel": 67,
          "clef": "bass",
          "acc": "#",
          "pitch": "D#3"
        },
        {
          "midi": 60,
          "beat": 1.01,
          "dur": 0.95,
          "vel": 59,
          "clef": "treble",
          "pitch": "C4"
        },
        {
          "midi": 55,
          "beat": 1.02,
          "dur": 0.95,
          "vel": 55,
          "clef": "bass",
          "pitch": "G3"
        },
        {
          "midi": 52,
          "beat": 1.02,
          "dur": 0.95,
          "vel": 55,
          "clef": "bass",
          "pitch": "E3"
        },
        {
          "midi": 51,
          "beat": 1.65,
          "dur": 0.02,
          "vel": 33,
          "clef": "bass",
          "acc": "#",
          "pitch": "D#3"
        },
        {
          "midi": 62,
          "beat": 1.76,
          "dur": 0.54,
          "vel": 113,
          "clef": "treble",
          "pitch": "D4"
        },
        {
          "midi": 57,
          "beat": 1.77,
          "dur": 0.54,
          "vel": 111,
          "clef": "bass",
          "pitch": "A3"
        },
        {
          "midi": 60,
          "beat": 1.77,
          "dur": 0.54,
          "vel": 111,
          "clef": "treble",
          "pitch": "C4"
        },
        {
          "midi": 67,
          "beat": 1.77,
          "dur": 0.54,
          "vel": 112,
          "clef": "treble",
          "pitch": "G4"
        },
        {
          "midi": 45,
          "beat": 2,
          "dur": 1.67,
          "vel": 76,
          "clef": "bass",
          "pitch": "A2"
        },
        {
          "midi": 48,
          "beat": 2,
          "dur": 0.95,
          "vel": 52,
          "clef": "bass",
          "pitch": "C3"
        },
        {
          "midi": 51,
          "beat": 2,
          "dur": 0.02,
          "vel": 76,
          "clef": "bass",
          "acc": "#",
          "pitch": "D#3"
        },
        {
          "midi": 52,
          "beat": 2,
          "dur": 0.95,
          "vel": 52,
          "clef": "bass",
          "pitch": "E3"
        },
        {
          "midi": 43,
          "beat": 2.02,
          "dur": 0.95,
          "vel": 59,
          "clef": "bass",
          "pitch": "G2"
        },
        {
          "midi": 58,
          "beat": 2.02,
          "dur": 0.95,
          "vel": 59,
          "clef": "bass",
          "acc": "#",
          "pitch": "A#3"
        },
        {
          "midi": 58,
          "beat": 2.67,
          "dur": 1.33,
          "vel": 118,
          "clef": "bass",
          "acc": "#",
          "pitch": "A#3"
        },
        {
          "midi": 62,
          "beat": 2.67,
          "dur": 1.33,
          "vel": 114,
          "clef": "treble",
          "pitch": "D4"
        },
        {
          "midi": 64,
          "beat": 2.67,
          "dur": 1.33,
          "vel": 115,
          "clef": "treble",
          "pitch": "E4"
        },
        {
          "midi": 69,
          "beat": 2.67,
          "dur": 1.33,
          "vel": 118,
          "clef": "treble",
          "pitch": "A4"
        },
        {
          "midi": 43,
          "beat": 2.98,
          "dur": 0.95,
          "vel": 52,
          "clef": "bass",
          "pitch": "G2"
        },
        {
          "midi": 52,
          "beat": 2.98,
          "dur": 0.95,
          "vel": 53,
          "clef": "bass",
          "pitch": "E3"
        },
        {
          "midi": 58,
          "beat": 2.98,
          "dur": 0.95,
          "vel": 53,
          "clef": "bass",
          "acc": "#",
          "pitch": "A#3"
        },
        {
          "midi": 40,
          "beat": 3,
          "dur": 0.02,
          "vel": 107,
          "clef": "bass",
          "pitch": "E2"
        },
        {
          "midi": 43,
          "beat": 3,
          "dur": 1,
          "vel": 77,
          "clef": "bass",
          "pitch": "G2"
        },
        {
          "midi": 44,
          "beat": 3,
          "dur": 0.02,
          "vel": 75,
          "clef": "bass",
          "acc": "#",
          "pitch": "G#2"
        },
        {
          "midi": 51,
          "beat": 3,
          "dur": 0.02,
          "vel": 76,
          "clef": "bass",
          "acc": "#",
          "pitch": "D#3"
        },
        {
          "midi": 48,
          "beat": 3.02,
          "dur": 0.95,
          "vel": 59,
          "clef": "bass",
          "pitch": "C3"
        },
        {
          "midi": 35,
          "beat": 3.65,
          "dur": 0.02,
          "vel": 77,
          "clef": "bass",
          "pitch": "B1"
        },
        {
          "midi": 60,
          "beat": 3.97,
          "dur": 0.03,
          "vel": 59,
          "clef": "treble",
          "pitch": "C4"
        },
        {
          "midi": 53,
          "beat": 3.98,
          "dur": 0.02,
          "vel": 52,
          "clef": "bass",
          "pitch": "F3"
        }
      ]
    },
    {
      "_": "Treble: 16 notes, Bass: 26 notes",
      "number": 42,
      "notes": [
        {
          "midi": 35,
          "beat": 0,
          "dur": 0.02,
          "vel": 119,
          "clef": "bass",
          "pitch": "B1"
        },
        {
          "midi": 41,
          "beat": 0,
          "dur": 1.08,
          "vel": 78,
          "clef": "bass",
          "pitch": "F2"
        },
        {
          "midi": 51,
          "beat": 0,
          "dur": 0.02,
          "vel": 70,
          "clef": "bass",
          "acc": "#",
          "pitch": "D#3"
        },
        {
          "midi": 45,
          "beat": 0.02,
          "dur": 0.95,
          "vel": 56,
          "clef": "bass",
          "pitch": "A2"
        },
        {
          "midi": 50,
          "beat": 0.02,
          "dur": 0.95,
          "vel": 55,
          "clef": "bass",
          "pitch": "D3"
        },
        {
          "midi": 57,
          "beat": 0.03,
          "dur": 0.54,
          "vel": 114,
          "clef": "bass",
          "pitch": "A3"
        },
        {
          "midi": 60,
          "beat": 0.03,
          "dur": 0.54,
          "vel": 111,
          "clef": "treble",
          "pitch": "C4"
        },
        {
          "midi": 62,
          "beat": 0.04,
          "dur": 0.54,
          "vel": 110,
          "clef": "treble",
          "pitch": "D4"
        },
        {
          "midi": 67,
          "beat": 0.04,
          "dur": 0.54,
          "vel": 113,
          "clef": "treble",
          "pitch": "G4"
        },
        {
          "midi": 69,
          "beat": 0.65,
          "dur": 0.42,
          "vel": 101,
          "clef": "treble",
          "pitch": "A4"
        },
        {
          "midi": 69,
          "beat": 0.66,
          "dur": 0.53,
          "vel": 119,
          "clef": "treble",
          "pitch": "A4"
        },
        {
          "midi": 41,
          "beat": 0.67,
          "dur": 0.52,
          "vel": 84,
          "clef": "bass",
          "pitch": "F2"
        },
        {
          "midi": 53,
          "beat": 0.96,
          "dur": 0.95,
          "vel": 54,
          "clef": "bass",
          "pitch": "F3"
        },
        {
          "midi": 60,
          "beat": 0.99,
          "dur": 0.95,
          "vel": 51,
          "clef": "treble",
          "pitch": "C4"
        },
        {
          "midi": 40,
          "beat": 1,
          "dur": 0.02,
          "vel": 106,
          "clef": "bass",
          "pitch": "E2"
        },
        {
          "midi": 43,
          "beat": 1,
          "dur": 1.67,
          "vel": 82,
          "clef": "bass",
          "pitch": "G2"
        },
        {
          "midi": 44,
          "beat": 1,
          "dur": 0.02,
          "vel": 72,
          "clef": "bass",
          "acc": "#",
          "pitch": "G#2"
        },
        {
          "midi": 45,
          "beat": 1,
          "dur": 0.95,
          "vel": 55,
          "clef": "bass",
          "pitch": "A2"
        },
        {
          "midi": 51,
          "beat": 1,
          "dur": 0.02,
          "vel": 73,
          "clef": "bass",
          "acc": "#",
          "pitch": "D#3"
        },
        {
          "midi": 67,
          "beat": 1,
          "dur": 1.67,
          "vel": 118,
          "clef": "treble",
          "pitch": "G4"
        },
        {
          "midi": 50,
          "beat": 1.02,
          "dur": 0.95,
          "vel": 55,
          "clef": "bass",
          "pitch": "D3"
        },
        {
          "midi": 67,
          "beat": 1.02,
          "dur": 1.72,
          "vel": 105,
          "clef": "treble",
          "pitch": "G4"
        },
        {
          "midi": 45,
          "beat": 1.96,
          "dur": 0.95,
          "vel": 60,
          "clef": "bass",
          "pitch": "A2"
        },
        {
          "midi": 50,
          "beat": 1.98,
          "dur": 0.95,
          "vel": 54,
          "clef": "bass",
          "pitch": "D3"
        },
        {
          "midi": 45,
          "beat": 2,
          "dur": 1.67,
          "vel": 79,
          "clef": "bass",
          "pitch": "A2"
        },
        {
          "midi": 51,
          "beat": 2,
          "dur": 0.02,
          "vel": 75,
          "clef": "bass",
          "acc": "#",
          "pitch": "D#3"
        },
        {
          "midi": 65,
          "beat": 2,
          "dur": 1.14,
          "vel": 117,
          "clef": "treble",
          "pitch": "F4"
        },
        {
          "midi": 53,
          "beat": 2.01,
          "dur": 0.95,
          "vel": 57,
          "clef": "bass",
          "pitch": "F3"
        },
        {
          "midi": 60,
          "beat": 2.01,
          "dur": 0.95,
          "vel": 54,
          "clef": "treble",
          "pitch": "C4"
        },
        {
          "midi": 65,
          "beat": 2.02,
          "dur": 1.72,
          "vel": 103,
          "clef": "treble",
          "pitch": "F4"
        },
        {
          "midi": 67,
          "beat": 2.63,
          "dur": 0.4,
          "vel": 127,
          "clef": "treble",
          "pitch": "G4"
        },
        {
          "midi": 65,
          "beat": 2.82,
          "dur": 0.38,
          "vel": 112,
          "clef": "treble",
          "pitch": "F4"
        },
        {
          "midi": 53,
          "beat": 2.98,
          "dur": 0.95,
          "vel": 52,
          "clef": "bass",
          "pitch": "F3"
        },
        {
          "midi": 45,
          "beat": 2.98,
          "dur": 0.95,
          "vel": 53,
          "clef": "bass",
          "pitch": "A2"
        },
        {
          "midi": 50,
          "beat": 2.98,
          "dur": 0.95,
          "vel": 53,
          "clef": "bass",
          "pitch": "D3"
        },
        {
          "midi": 60,
          "beat": 2.99,
          "dur": 0.95,
          "vel": 60,
          "clef": "treble",
          "pitch": "C4"
        },
        {
          "midi": 40,
          "beat": 3,
          "dur": 0.02,
          "vel": 100,
          "clef": "bass",
          "pitch": "E2"
        },
        {
          "midi": 44,
          "beat": 3,
          "dur": 0.02,
          "vel": 67,
          "clef": "bass",
          "acc": "#",
          "pitch": "G#2"
        },
        {
          "midi": 48,
          "beat": 3,
          "dur": 1,
          "vel": 76,
          "clef": "bass",
          "pitch": "C3"
        },
        {
          "midi": 51,
          "beat": 3,
          "dur": 0.02,
          "vel": 69,
          "clef": "bass",
          "acc": "#",
          "pitch": "D#3"
        },
        {
          "midi": 64,
          "beat": 3,
          "dur": 1,
          "vel": 123,
          "clef": "treble",
          "pitch": "E4"
        },
        {
          "midi": 64,
          "beat": 3.02,
          "dur": 0.98,
          "vel": 105,
          "clef": "treble",
          "pitch": "E4"
        }
      ]
    },
    {
      "_": "Treble: 14 notes, Bass: 28 notes",
      "number": 43,
      "notes": [
        {
          "midi": 47,
          "beat": 0,
          "dur": 1.67,
          "vel": 82,
          "clef": "bass",
          "pitch": "B2"
        },
        {
          "midi": 47,
          "beat": 0,
          "dur": 0.95,
          "vel": 60,
          "clef": "bass",
          "pitch": "B2"
        },
        {
          "midi": 51,
          "beat": 0,
          "dur": 0.02,
          "vel": 70,
          "clef": "bass",
          "acc": "#",
          "pitch": "D#3"
        },
        {
          "midi": 62,
          "beat": 0,
          "dur": 0.53,
          "vel": 118,
          "clef": "treble",
          "pitch": "D4"
        },
        {
          "midi": 53,
          "beat": 0.01,
          "dur": 0.95,
          "vel": 54,
          "clef": "bass",
          "pitch": "F3"
        },
        {
          "midi": 57,
          "beat": 0.01,
          "dur": 0.95,
          "vel": 60,
          "clef": "bass",
          "pitch": "A3"
        },
        {
          "midi": 62,
          "beat": 0.02,
          "dur": 0.95,
          "vel": 55,
          "clef": "treble",
          "pitch": "D4"
        },
        {
          "midi": 62,
          "beat": 0.02,
          "dur": 0.48,
          "vel": 101,
          "clef": "treble",
          "pitch": "D4"
        },
        {
          "midi": 64,
          "beat": 0.65,
          "dur": 0.48,
          "vel": 106,
          "clef": "treble",
          "pitch": "E4"
        },
        {
          "midi": 64,
          "beat": 0.66,
          "dur": 0.53,
          "vel": 119,
          "clef": "treble",
          "pitch": "E4"
        },
        {
          "midi": 62,
          "beat": 0.99,
          "dur": 0.95,
          "vel": 51,
          "clef": "treble",
          "pitch": "D4"
        },
        {
          "midi": 38,
          "beat": 1,
          "dur": 1.67,
          "vel": 82,
          "clef": "bass",
          "pitch": "D2"
        },
        {
          "midi": 40,
          "beat": 1,
          "dur": 0.02,
          "vel": 100,
          "clef": "bass",
          "pitch": "E2"
        },
        {
          "midi": 44,
          "beat": 1,
          "dur": 0.02,
          "vel": 75,
          "clef": "bass",
          "acc": "#",
          "pitch": "G#2"
        },
        {
          "midi": 47,
          "beat": 1,
          "dur": 0.95,
          "vel": 60,
          "clef": "bass",
          "pitch": "B2"
        },
        {
          "midi": 51,
          "beat": 1,
          "dur": 0.02,
          "vel": 71,
          "clef": "bass",
          "acc": "#",
          "pitch": "D#3"
        },
        {
          "midi": 53,
          "beat": 1.01,
          "dur": 0.95,
          "vel": 56,
          "clef": "bass",
          "pitch": "F3"
        },
        {
          "midi": 57,
          "beat": 1.01,
          "dur": 0.95,
          "vel": 52,
          "clef": "bass",
          "pitch": "A3"
        },
        {
          "midi": 65,
          "beat": 1.65,
          "dur": 0.48,
          "vel": 99,
          "clef": "treble",
          "pitch": "F4"
        },
        {
          "midi": 65,
          "beat": 1.66,
          "dur": 0.53,
          "vel": 120,
          "clef": "treble",
          "pitch": "F4"
        },
        {
          "midi": 41,
          "beat": 2,
          "dur": 1.67,
          "vel": 83,
          "clef": "bass",
          "pitch": "F2"
        },
        {
          "midi": 51,
          "beat": 2,
          "dur": 0.02,
          "vel": 68,
          "clef": "bass",
          "acc": "#",
          "pitch": "D#3"
        },
        {
          "midi": 53,
          "beat": 2.01,
          "dur": 0.95,
          "vel": 54,
          "clef": "bass",
          "pitch": "F3"
        },
        {
          "midi": 57,
          "beat": 2.01,
          "dur": 0.95,
          "vel": 58,
          "clef": "bass",
          "pitch": "A3"
        },
        {
          "midi": 47,
          "beat": 2.02,
          "dur": 0.95,
          "vel": 59,
          "clef": "bass",
          "pitch": "B2"
        },
        {
          "midi": 62,
          "beat": 2.02,
          "dur": 0.95,
          "vel": 57,
          "clef": "treble",
          "pitch": "D4"
        },
        {
          "midi": 69,
          "beat": 2.65,
          "dur": 0.48,
          "vel": 105,
          "clef": "treble",
          "pitch": "A4"
        },
        {
          "midi": 69,
          "beat": 2.66,
          "dur": 1.34,
          "vel": 117,
          "clef": "treble",
          "pitch": "A4"
        },
        {
          "midi": 53,
          "beat": 2.96,
          "dur": 0.95,
          "vel": 55,
          "clef": "bass",
          "pitch": "F3"
        },
        {
          "midi": 47,
          "beat": 2.97,
          "dur": 0.95,
          "vel": 51,
          "clef": "bass",
          "pitch": "B2"
        },
        {
          "midi": 57,
          "beat": 2.97,
          "dur": 0.95,
          "vel": 53,
          "clef": "bass",
          "pitch": "A3"
        },
        {
          "midi": 62,
          "beat": 2.97,
          "dur": 0.95,
          "vel": 55,
          "clef": "treble",
          "pitch": "D4"
        },
        {
          "midi": 40,
          "beat": 3,
          "dur": 0.02,
          "vel": 105,
          "clef": "bass",
          "pitch": "E2"
        },
        {
          "midi": 44,
          "beat": 3,
          "dur": 0.02,
          "vel": 74,
          "clef": "bass",
          "acc": "#",
          "pitch": "G#2"
        },
        {
          "midi": 44,
          "beat": 3,
          "dur": 1,
          "vel": 85,
          "clef": "bass",
          "acc": "#",
          "pitch": "G#2"
        },
        {
          "midi": 51,
          "beat": 3,
          "dur": 0.02,
          "vel": 67,
          "clef": "bass",
          "acc": "#",
          "pitch": "D#3"
        },
        {
          "midi": 51,
          "beat": 3.65,
          "dur": 0.02,
          "vel": 32,
          "clef": "bass",
          "acc": "#",
          "pitch": "D#3"
        },
        {
          "midi": 68,
          "beat": 3.65,
          "dur": 0.35,
          "vel": 101,
          "clef": "treble",
          "acc": "#",
          "pitch": "G#4"
        },
        {
          "midi": 68,
          "beat": 3.66,
          "dur": 0.34,
          "vel": 123,
          "clef": "treble",
          "acc": "#",
          "pitch": "G#4"
        },
        {
          "midi": 47,
          "beat": 3.97,
          "dur": 0.03,
          "vel": 57,
          "clef": "bass",
          "pitch": "B2"
        },
        {
          "midi": 56,
          "beat": 3.98,
          "dur": 0.02,
          "vel": 55,
          "clef": "bass",
          "acc": "#",
          "pitch": "G#3"
        },
        {
          "midi": 53,
          "beat": 3.98,
          "dur": 0.02,
          "vel": 60,
          "clef": "bass",
          "pitch": "F3"
        }
      ]
    },
    {
      "_": "Treble: 10 notes, Bass: 22 notes",
      "number": 44,
      "notes": [
        {
          "midi": 40,
          "beat": 0,
          "dur": 1.67,
          "vel": 83,
          "clef": "bass",
          "pitch": "E2"
        },
        {
          "midi": 51,
          "beat": 0,
          "dur": 0.02,
          "vel": 74,
          "clef": "bass",
          "acc": "#",
          "pitch": "D#3"
        },
        {
          "midi": 62,
          "beat": 0,
          "dur": 0.95,
          "vel": 52,
          "clef": "treble",
          "pitch": "D4"
        },
        {
          "midi": 53,
          "beat": 0.96,
          "dur": 0.95,
          "vel": 58,
          "clef": "bass",
          "pitch": "F3"
        },
        {
          "midi": 62,
          "beat": 0.98,
          "dur": 0.95,
          "vel": 59,
          "clef": "treble",
          "pitch": "D4"
        },
        {
          "midi": 40,
          "beat": 1,
          "dur": 0.02,
          "vel": 102,
          "clef": "bass",
          "pitch": "E2"
        },
        {
          "midi": 44,
          "beat": 1,
          "dur": 0.02,
          "vel": 67,
          "clef": "bass",
          "acc": "#",
          "pitch": "G#2"
        },
        {
          "midi": 47,
          "beat": 1,
          "dur": 1.67,
          "vel": 80,
          "clef": "bass",
          "pitch": "B2"
        },
        {
          "midi": 51,
          "beat": 1,
          "dur": 0.02,
          "vel": 68,
          "clef": "bass",
          "acc": "#",
          "pitch": "D#3"
        },
        {
          "midi": 47,
          "beat": 1.02,
          "dur": 0.95,
          "vel": 55,
          "clef": "bass",
          "pitch": "B2"
        },
        {
          "midi": 56,
          "beat": 1.02,
          "dur": 0.95,
          "vel": 57,
          "clef": "bass",
          "acc": "#",
          "pitch": "G#3"
        },
        {
          "midi": 44,
          "beat": 2,
          "dur": 1.67,
          "vel": 81,
          "clef": "bass",
          "acc": "#",
          "pitch": "G#2"
        },
        {
          "midi": 51,
          "beat": 2,
          "dur": 0.02,
          "vel": 72,
          "clef": "bass",
          "acc": "#",
          "pitch": "D#3"
        },
        {
          "midi": 53,
          "beat": 2.01,
          "dur": 0.95,
          "vel": 59,
          "clef": "bass",
          "pitch": "F3"
        },
        {
          "midi": 56,
          "beat": 2.02,
          "dur": 0.95,
          "vel": 55,
          "clef": "bass",
          "acc": "#",
          "pitch": "G#3"
        },
        {
          "midi": 47,
          "beat": 2.02,
          "dur": 0.95,
          "vel": 58,
          "clef": "bass",
          "pitch": "B2"
        },
        {
          "midi": 62,
          "beat": 2.02,
          "dur": 0.95,
          "vel": 59,
          "clef": "treble",
          "pitch": "D4"
        },
        {
          "midi": 65,
          "beat": 2.65,
          "dur": 0.57,
          "vel": 104,
          "clef": "treble",
          "pitch": "F4"
        },
        {
          "midi": 65,
          "beat": 2.66,
          "dur": 0.53,
          "vel": 122,
          "clef": "treble",
          "pitch": "F4"
        },
        {
          "midi": 53,
          "beat": 2.95,
          "dur": 0.95,
          "vel": 51,
          "clef": "bass",
          "pitch": "F3"
        },
        {
          "midi": 40,
          "beat": 3,
          "dur": 0.02,
          "vel": 104,
          "clef": "bass",
          "pitch": "E2"
        },
        {
          "midi": 40,
          "beat": 3,
          "dur": 1,
          "vel": 78,
          "clef": "bass",
          "pitch": "E2"
        },
        {
          "midi": 44,
          "beat": 3,
          "dur": 0.02,
          "vel": 68,
          "clef": "bass",
          "acc": "#",
          "pitch": "G#2"
        },
        {
          "midi": 47,
          "beat": 3,
          "dur": 0.95,
          "vel": 60,
          "clef": "bass",
          "pitch": "B2"
        },
        {
          "midi": 51,
          "beat": 3,
          "dur": 0.02,
          "vel": 67,
          "clef": "bass",
          "acc": "#",
          "pitch": "D#3"
        },
        {
          "midi": 64,
          "beat": 3,
          "dur": 0.53,
          "vel": 115,
          "clef": "treble",
          "pitch": "E4"
        },
        {
          "midi": 62,
          "beat": 3.01,
          "dur": 0.95,
          "vel": 51,
          "clef": "treble",
          "pitch": "D4"
        },
        {
          "midi": 56,
          "beat": 3.02,
          "dur": 0.95,
          "vel": 55,
          "clef": "bass",
          "acc": "#",
          "pitch": "G#3"
        },
        {
          "midi": 64,
          "beat": 3.02,
          "dur": 0.4,
          "vel": 101,
          "clef": "treble",
          "pitch": "E4"
        },
        {
          "midi": 62,
          "beat": 3.65,
          "dur": 0.35,
          "vel": 98,
          "clef": "treble",
          "pitch": "D4"
        },
        {
          "midi": 62,
          "beat": 3.66,
          "dur": 0.34,
          "vel": 119,
          "clef": "treble",
          "pitch": "D4"
        },
        {
          "midi": 45,
          "beat": 3.97,
          "dur": 0.03,
          "vel": 51,
          "clef": "bass",
          "pitch": "A2"
        }
      ]
    },
    {
      "_": "Treble: 8 notes, Bass: 27 notes",
      "number": 45,
      "notes": [
        {
          "midi": 55,
          "beat": -0.01,
          "dur": 0.95,
          "vel": 60,
          "clef": "bass",
          "pitch": "G3"
        },
        {
          "midi": 33,
          "beat": 0,
          "dur": 1.67,
          "vel": 76,
          "clef": "bass",
          "pitch": "A1"
        },
        {
          "midi": 51,
          "beat": 0,
          "dur": 0.02,
          "vel": 73,
          "clef": "bass",
          "acc": "#",
          "pitch": "D#3"
        },
        {
          "midi": 60,
          "beat": 0,
          "dur": 0.53,
          "vel": 124,
          "clef": "treble",
          "pitch": "C4"
        },
        {
          "midi": 60,
          "beat": 0.01,
          "dur": 0.95,
          "vel": 54,
          "clef": "treble",
          "pitch": "C4"
        },
        {
          "midi": 52,
          "beat": 0.02,
          "dur": 0.95,
          "vel": 59,
          "clef": "bass",
          "pitch": "E3"
        },
        {
          "midi": 60,
          "beat": 0.02,
          "dur": 0.4,
          "vel": 100,
          "clef": "treble",
          "pitch": "C4"
        },
        {
          "midi": 52,
          "beat": 0.97,
          "dur": 0.95,
          "vel": 57,
          "clef": "bass",
          "pitch": "E3"
        },
        {
          "midi": 35,
          "beat": 1,
          "dur": 1.67,
          "vel": 84,
          "clef": "bass",
          "pitch": "B1"
        },
        {
          "midi": 37,
          "beat": 1,
          "dur": 0.02,
          "vel": 96,
          "clef": "bass",
          "acc": "#",
          "pitch": "C#2"
        },
        {
          "midi": 44,
          "beat": 1,
          "dur": 0.02,
          "vel": 72,
          "clef": "bass",
          "acc": "#",
          "pitch": "G#2"
        },
        {
          "midi": 51,
          "beat": 1,
          "dur": 0.02,
          "vel": 71,
          "clef": "bass",
          "acc": "#",
          "pitch": "D#3"
        },
        {
          "midi": 60,
          "beat": 1.01,
          "dur": 0.95,
          "vel": 58,
          "clef": "treble",
          "pitch": "C4"
        },
        {
          "midi": 45,
          "beat": 1.02,
          "dur": 0.95,
          "vel": 57,
          "clef": "bass",
          "pitch": "A2"
        },
        {
          "midi": 55,
          "beat": 1.02,
          "dur": 0.95,
          "vel": 56,
          "clef": "bass",
          "pitch": "G3"
        },
        {
          "midi": 35,
          "beat": 1.65,
          "dur": 0.02,
          "vel": 73,
          "clef": "bass",
          "pitch": "B1"
        },
        {
          "midi": 51,
          "beat": 1.65,
          "dur": 0.02,
          "vel": 28,
          "clef": "bass",
          "acc": "#",
          "pitch": "D#3"
        },
        {
          "midi": 52,
          "beat": 1.96,
          "dur": 0.95,
          "vel": 52,
          "clef": "bass",
          "pitch": "E3"
        },
        {
          "midi": 35,
          "beat": 2,
          "dur": 0.02,
          "vel": 116,
          "clef": "bass",
          "pitch": "B1"
        },
        {
          "midi": 36,
          "beat": 2,
          "dur": 1.67,
          "vel": 78,
          "clef": "bass",
          "pitch": "C2"
        },
        {
          "midi": 46,
          "beat": 2,
          "dur": 0.95,
          "vel": 52,
          "clef": "bass",
          "acc": "#",
          "pitch": "A#2"
        },
        {
          "midi": 51,
          "beat": 2,
          "dur": 0.02,
          "vel": 72,
          "clef": "bass",
          "acc": "#",
          "pitch": "D#3"
        },
        {
          "midi": 61,
          "beat": 2.02,
          "dur": 0.95,
          "vel": 54,
          "clef": "treble",
          "acc": "#",
          "pitch": "C#4"
        },
        {
          "midi": 55,
          "beat": 2.02,
          "dur": 0.95,
          "vel": 57,
          "clef": "bass",
          "pitch": "G3"
        },
        {
          "midi": 37,
          "beat": 3,
          "dur": 0.02,
          "vel": 92,
          "clef": "bass",
          "acc": "#",
          "pitch": "C#2"
        },
        {
          "midi": 37,
          "beat": 3,
          "dur": 1,
          "vel": 82,
          "clef": "bass",
          "acc": "#",
          "pitch": "C#2"
        },
        {
          "midi": 44,
          "beat": 3,
          "dur": 0.02,
          "vel": 67,
          "clef": "bass",
          "acc": "#",
          "pitch": "G#2"
        },
        {
          "midi": 51,
          "beat": 3,
          "dur": 0.02,
          "vel": 67,
          "clef": "bass",
          "acc": "#",
          "pitch": "D#3"
        },
        {
          "midi": 55,
          "beat": 3,
          "dur": 0.95,
          "vel": 60,
          "clef": "bass",
          "pitch": "G3"
        },
        {
          "midi": 52,
          "beat": 3.02,
          "dur": 0.95,
          "vel": 57,
          "clef": "bass",
          "pitch": "E3"
        },
        {
          "midi": 46,
          "beat": 3.02,
          "dur": 0.95,
          "vel": 56,
          "clef": "bass",
          "acc": "#",
          "pitch": "A#2"
        },
        {
          "midi": 61,
          "beat": 3.02,
          "dur": 0.95,
          "vel": 55,
          "clef": "treble",
          "acc": "#",
          "pitch": "C#4"
        },
        {
          "midi": 60,
          "beat": 3.68,
          "dur": 0.32,
          "vel": 120,
          "clef": "treble",
          "pitch": "C4"
        },
        {
          "midi": 60,
          "beat": 3.73,
          "dur": 0.27,
          "vel": 98,
          "clef": "treble",
          "pitch": "C4"
        },
        {
          "midi": 53,
          "beat": 3.96,
          "dur": 0.04,
          "vel": 56,
          "clef": "bass",
          "pitch": "F3"
        }
      ]
    },
    {
      "_": "Treble: 10 notes, Bass: 25 notes",
      "number": 46,
      "notes": [
        {
          "midi": 35,
          "beat": 0,
          "dur": 0.02,
          "vel": 115,
          "clef": "bass",
          "pitch": "B1"
        },
        {
          "midi": 38,
          "beat": 0,
          "dur": 1.67,
          "vel": 81,
          "clef": "bass",
          "pitch": "D2"
        },
        {
          "midi": 51,
          "beat": 0,
          "dur": 0.02,
          "vel": 72,
          "clef": "bass",
          "acc": "#",
          "pitch": "D#3"
        },
        {
          "midi": 62,
          "beat": 0,
          "dur": 0.95,
          "vel": 52,
          "clef": "treble",
          "pitch": "D4"
        },
        {
          "midi": 62,
          "beat": 0,
          "dur": 0.53,
          "vel": 117,
          "clef": "treble",
          "pitch": "D4"
        },
        {
          "midi": 48,
          "beat": 0.02,
          "dur": 0.95,
          "vel": 58,
          "clef": "bass",
          "pitch": "C3"
        },
        {
          "midi": 62,
          "beat": 0.02,
          "dur": 0.42,
          "vel": 107,
          "clef": "treble",
          "pitch": "D4"
        },
        {
          "midi": 57,
          "beat": 0.03,
          "dur": 0.95,
          "vel": 56,
          "clef": "bass",
          "pitch": "A3"
        },
        {
          "midi": 69,
          "beat": 0.27,
          "dur": 0.3,
          "vel": 98,
          "clef": "treble",
          "pitch": "A4"
        },
        {
          "midi": 69,
          "beat": 0.31,
          "dur": 0.53,
          "vel": 116,
          "clef": "treble",
          "pitch": "A4"
        },
        {
          "midi": 48,
          "beat": 0.96,
          "dur": 0.95,
          "vel": 52,
          "clef": "bass",
          "pitch": "C3"
        },
        {
          "midi": 62,
          "beat": 0.98,
          "dur": 0.95,
          "vel": 54,
          "clef": "treble",
          "pitch": "D4"
        },
        {
          "midi": 57,
          "beat": 0.98,
          "dur": 0.95,
          "vel": 55,
          "clef": "bass",
          "pitch": "A3"
        },
        {
          "midi": 37,
          "beat": 1,
          "dur": 0.02,
          "vel": 95,
          "clef": "bass",
          "acc": "#",
          "pitch": "C#2"
        },
        {
          "midi": 40,
          "beat": 1,
          "dur": 1.67,
          "vel": 82,
          "clef": "bass",
          "pitch": "E2"
        },
        {
          "midi": 44,
          "beat": 1,
          "dur": 0.02,
          "vel": 69,
          "clef": "bass",
          "acc": "#",
          "pitch": "G#2"
        },
        {
          "midi": 51,
          "beat": 1,
          "dur": 0.02,
          "vel": 69,
          "clef": "bass",
          "acc": "#",
          "pitch": "D#3"
        },
        {
          "midi": 69,
          "beat": 1,
          "dur": 3,
          "vel": 116,
          "clef": "treble",
          "pitch": "A4"
        },
        {
          "midi": 53,
          "beat": 1.01,
          "dur": 0.95,
          "vel": 55,
          "clef": "bass",
          "pitch": "F3"
        },
        {
          "midi": 69,
          "beat": 1.02,
          "dur": 2.98,
          "vel": 102,
          "clef": "treble",
          "pitch": "A4"
        },
        {
          "midi": 53,
          "beat": 1.96,
          "dur": 0.95,
          "vel": 56,
          "clef": "bass",
          "pitch": "F3"
        },
        {
          "midi": 62,
          "beat": 1.99,
          "dur": 0.95,
          "vel": 51,
          "clef": "treble",
          "pitch": "D4"
        },
        {
          "midi": 35,
          "beat": 2,
          "dur": 0.02,
          "vel": 116,
          "clef": "bass",
          "pitch": "B1"
        },
        {
          "midi": 41,
          "beat": 2,
          "dur": 1.67,
          "vel": 80,
          "clef": "bass",
          "pitch": "F2"
        },
        {
          "midi": 51,
          "beat": 2,
          "dur": 0.02,
          "vel": 73,
          "clef": "bass",
          "acc": "#",
          "pitch": "D#3"
        },
        {
          "midi": 57,
          "beat": 2.01,
          "dur": 0.95,
          "vel": 57,
          "clef": "bass",
          "pitch": "A3"
        },
        {
          "midi": 48,
          "beat": 2.02,
          "dur": 0.95,
          "vel": 55,
          "clef": "bass",
          "pitch": "C3"
        },
        {
          "midi": 53,
          "beat": 2.96,
          "dur": 0.95,
          "vel": 59,
          "clef": "bass",
          "pitch": "F3"
        },
        {
          "midi": 48,
          "beat": 2.98,
          "dur": 0.95,
          "vel": 55,
          "clef": "bass",
          "pitch": "C3"
        },
        {
          "midi": 62,
          "beat": 2.98,
          "dur": 0.95,
          "vel": 58,
          "clef": "treble",
          "pitch": "D4"
        },
        {
          "midi": 37,
          "beat": 3,
          "dur": 0.02,
          "vel": 89,
          "clef": "bass",
          "acc": "#",
          "pitch": "C#2"
        },
        {
          "midi": 42,
          "beat": 3,
          "dur": 1,
          "vel": 80,
          "clef": "bass",
          "acc": "#",
          "pitch": "F#2"
        },
        {
          "midi": 44,
          "beat": 3,
          "dur": 0.02,
          "vel": 68,
          "clef": "bass",
          "acc": "#",
          "pitch": "G#2"
        },
        {
          "midi": 51,
          "beat": 3,
          "dur": 0.02,
          "vel": 72,
          "clef": "bass",
          "acc": "#",
          "pitch": "D#3"
        },
        {
          "midi": 57,
          "beat": 3.01,
          "dur": 0.95,
          "vel": 57,
          "clef": "bass",
          "pitch": "A3"
        }
      ]
    },
    {
      "_": "Treble: 12 notes, Bass: 43 notes",
      "number": 47,
      "notes": [
        {
          "midi": 53,
          "beat": -0.01,
          "dur": 0.95,
          "vel": 51,
          "clef": "bass",
          "pitch": "F3"
        },
        {
          "midi": 35,
          "beat": 0,
          "dur": 0.02,
          "vel": 113,
          "clef": "bass",
          "pitch": "B1"
        },
        {
          "midi": 43,
          "beat": 0,
          "dur": 1.67,
          "vel": 80,
          "clef": "bass",
          "pitch": "G2"
        },
        {
          "midi": 51,
          "beat": 0,
          "dur": 0.02,
          "vel": 75,
          "clef": "bass",
          "acc": "#",
          "pitch": "D#3"
        },
        {
          "midi": 57,
          "beat": 0,
          "dur": 0.95,
          "vel": 58,
          "clef": "bass",
          "pitch": "A3"
        },
        {
          "midi": 47,
          "beat": 0.02,
          "dur": 0.95,
          "vel": 55,
          "clef": "bass",
          "pitch": "B2"
        },
        {
          "midi": 62,
          "beat": 0.02,
          "dur": 0.95,
          "vel": 57,
          "clef": "treble",
          "pitch": "D4"
        },
        {
          "midi": 53,
          "beat": 0.96,
          "dur": 0.95,
          "vel": 59,
          "clef": "bass",
          "pitch": "F3"
        },
        {
          "midi": 35,
          "beat": 1,
          "dur": 1.67,
          "vel": 76,
          "clef": "bass",
          "pitch": "B1"
        },
        {
          "midi": 37,
          "beat": 1,
          "dur": 0.02,
          "vel": 96,
          "clef": "bass",
          "acc": "#",
          "pitch": "C#2"
        },
        {
          "midi": 44,
          "beat": 1,
          "dur": 0.02,
          "vel": 71,
          "clef": "bass",
          "acc": "#",
          "pitch": "G#2"
        },
        {
          "midi": 51,
          "beat": 1,
          "dur": 0.02,
          "vel": 69,
          "clef": "bass",
          "acc": "#",
          "pitch": "D#3"
        },
        {
          "midi": 47,
          "beat": 1.02,
          "dur": 0.95,
          "vel": 58,
          "clef": "bass",
          "pitch": "B2"
        },
        {
          "midi": 62,
          "beat": 1.02,
          "dur": 0.95,
          "vel": 56,
          "clef": "treble",
          "pitch": "D4"
        },
        {
          "midi": 57,
          "beat": 1.03,
          "dur": 0.95,
          "vel": 55,
          "clef": "bass",
          "pitch": "A3"
        },
        {
          "midi": 26,
          "beat": 1.63,
          "dur": 2.25,
          "vel": 91,
          "clef": "bass",
          "pitch": "D1"
        },
        {
          "midi": 53,
          "beat": 1.63,
          "dur": 1.69,
          "vel": 114,
          "clef": "bass",
          "pitch": "F3"
        },
        {
          "midi": 57,
          "beat": 1.63,
          "dur": 2.33,
          "vel": 118,
          "clef": "bass",
          "pitch": "A3"
        },
        {
          "midi": 57,
          "beat": 1.63,
          "dur": 2.25,
          "vel": 58,
          "clef": "bass",
          "pitch": "A3"
        },
        {
          "midi": 60,
          "beat": 1.63,
          "dur": 2.33,
          "vel": 114,
          "clef": "treble",
          "pitch": "C4"
        },
        {
          "midi": 72,
          "beat": 1.63,
          "dur": 2.26,
          "vel": 79,
          "clef": "treble",
          "pitch": "C5"
        },
        {
          "midi": 72,
          "beat": 1.65,
          "dur": 2.29,
          "vel": 106,
          "clef": "treble",
          "pitch": "C5"
        },
        {
          "midi": 60,
          "beat": 1.66,
          "dur": 2.25,
          "vel": 102,
          "clef": "treble",
          "pitch": "C4"
        },
        {
          "midi": 53,
          "beat": 1.94,
          "dur": 0.95,
          "vel": 60,
          "clef": "bass",
          "pitch": "F3"
        },
        {
          "midi": 35,
          "beat": 2,
          "dur": 0.02,
          "vel": 113,
          "clef": "bass",
          "pitch": "B1"
        },
        {
          "midi": 41,
          "beat": 2,
          "dur": 1.67,
          "vel": 79,
          "clef": "bass",
          "pitch": "F2"
        },
        {
          "midi": 51,
          "beat": 2,
          "dur": 0.02,
          "vel": 76,
          "clef": "bass",
          "acc": "#",
          "pitch": "D#3"
        },
        {
          "midi": 57,
          "beat": 2.01,
          "dur": 0.95,
          "vel": 59,
          "clef": "bass",
          "pitch": "A3"
        },
        {
          "midi": 47,
          "beat": 2.02,
          "dur": 0.95,
          "vel": 54,
          "clef": "bass",
          "pitch": "B2"
        },
        {
          "midi": 62,
          "beat": 2.02,
          "dur": 0.95,
          "vel": 54,
          "clef": "treble",
          "pitch": "D4"
        },
        {
          "midi": 53,
          "beat": 2.96,
          "dur": 0.95,
          "vel": 59,
          "clef": "bass",
          "pitch": "F3"
        },
        {
          "midi": 47,
          "beat": 2.97,
          "dur": 0.95,
          "vel": 54,
          "clef": "bass",
          "pitch": "B2"
        },
        {
          "midi": 27,
          "beat": 3,
          "dur": 1,
          "vel": 87,
          "clef": "bass",
          "acc": "#",
          "pitch": "D#1"
        },
        {
          "midi": 37,
          "beat": 3,
          "dur": 0.02,
          "vel": 94,
          "clef": "bass",
          "acc": "#",
          "pitch": "C#2"
        },
        {
          "midi": 43,
          "beat": 3,
          "dur": 1,
          "vel": 84,
          "clef": "bass",
          "pitch": "G2"
        },
        {
          "midi": 44,
          "beat": 3,
          "dur": 0.02,
          "vel": 70,
          "clef": "bass",
          "acc": "#",
          "pitch": "G#2"
        },
        {
          "midi": 51,
          "beat": 3,
          "dur": 0.02,
          "vel": 76,
          "clef": "bass",
          "acc": "#",
          "pitch": "D#3"
        },
        {
          "midi": 51,
          "beat": 3,
          "dur": 1,
          "vel": 118,
          "clef": "bass",
          "acc": "#",
          "pitch": "D#3"
        },
        {
          "midi": 55,
          "beat": 3,
          "dur": 1,
          "vel": 117,
          "clef": "bass",
          "pitch": "G3"
        },
        {
          "midi": 55,
          "beat": 3,
          "dur": 1,
          "vel": 62,
          "clef": "bass",
          "pitch": "G3"
        },
        {
          "midi": 59,
          "beat": 3,
          "dur": 1,
          "vel": 112,
          "clef": "bass",
          "pitch": "B3"
        },
        {
          "midi": 59,
          "beat": 3,
          "dur": 1,
          "vel": 103,
          "clef": "bass",
          "pitch": "B3"
        },
        {
          "midi": 62,
          "beat": 3,
          "dur": 0.95,
          "vel": 59,
          "clef": "treble",
          "pitch": "D4"
        },
        {
          "midi": 71,
          "beat": 3,
          "dur": 1,
          "vel": 80,
          "clef": "treble",
          "pitch": "B4"
        },
        {
          "midi": 57,
          "beat": 3.01,
          "dur": 0.95,
          "vel": 59,
          "clef": "bass",
          "pitch": "A3"
        },
        {
          "midi": 71,
          "beat": 3.02,
          "dur": 0.98,
          "vel": 102,
          "clef": "treble",
          "pitch": "B4"
        },
        {
          "midi": 28,
          "beat": 3.63,
          "dur": 0.37,
          "vel": 94,
          "clef": "bass",
          "pitch": "E1"
        },
        {
          "midi": 52,
          "beat": 3.63,
          "dur": 0.37,
          "vel": 117,
          "clef": "bass",
          "pitch": "E3"
        },
        {
          "midi": 52,
          "beat": 3.63,
          "dur": 0.37,
          "vel": 110,
          "clef": "bass",
          "pitch": "E3"
        },
        {
          "midi": 52,
          "beat": 3.63,
          "dur": 0.37,
          "vel": 60,
          "clef": "bass",
          "pitch": "E3"
        },
        {
          "midi": 55,
          "beat": 3.63,
          "dur": 0.37,
          "vel": 109,
          "clef": "bass",
          "pitch": "G3"
        },
        {
          "midi": 67,
          "beat": 3.63,
          "dur": 0.37,
          "vel": 80,
          "clef": "treble",
          "pitch": "G4"
        },
        {
          "midi": 67,
          "beat": 3.65,
          "dur": 0.35,
          "vel": 102,
          "clef": "treble",
          "pitch": "G4"
        },
        {
          "midi": 55,
          "beat": 3.66,
          "dur": 0.34,
          "vel": 96,
          "clef": "bass",
          "pitch": "G3"
        },
        {
          "midi": 55,
          "beat": 3.96,
          "dur": 0.04,
          "vel": 52,
          "clef": "bass",
          "pitch": "G3"
        }
      ]
    },
    {
      "_": "Treble: 11 notes, Bass: 29 notes",
      "number": 48,
      "notes": [
        {
          "midi": 35,
          "beat": 0,
          "dur": 0.02,
          "vel": 121,
          "clef": "bass",
          "pitch": "B1"
        },
        {
          "midi": 48,
          "beat": 0,
          "dur": 1.67,
          "vel": 82,
          "clef": "bass",
          "pitch": "C3"
        },
        {
          "midi": 51,
          "beat": 0,
          "dur": 0.02,
          "vel": 74,
          "clef": "bass",
          "acc": "#",
          "pitch": "D#3"
        },
        {
          "midi": 62,
          "beat": 0,
          "dur": 0.95,
          "vel": 52,
          "clef": "treble",
          "pitch": "D4"
        },
        {
          "midi": 47,
          "beat": 0.02,
          "dur": 0.95,
          "vel": 56,
          "clef": "bass",
          "pitch": "B2"
        },
        {
          "midi": 52,
          "beat": 0.02,
          "dur": 0.95,
          "vel": 56,
          "clef": "bass",
          "pitch": "E3"
        },
        {
          "midi": 84,
          "beat": 0.66,
          "dur": 0.14,
          "vel": 86,
          "clef": "treble",
          "pitch": "C6"
        },
        {
          "midi": 87,
          "beat": 0.98,
          "dur": 0.3,
          "vel": 83,
          "clef": "treble",
          "acc": "#",
          "pitch": "D#6"
        },
        {
          "midi": 37,
          "beat": 1,
          "dur": 0.02,
          "vel": 94,
          "clef": "bass",
          "acc": "#",
          "pitch": "C#2"
        },
        {
          "midi": 43,
          "beat": 1,
          "dur": 1.67,
          "vel": 83,
          "clef": "bass",
          "pitch": "G2"
        },
        {
          "midi": 44,
          "beat": 1,
          "dur": 0.02,
          "vel": 67,
          "clef": "bass",
          "acc": "#",
          "pitch": "G#2"
        },
        {
          "midi": 51,
          "beat": 1,
          "dur": 0.02,
          "vel": 75,
          "clef": "bass",
          "acc": "#",
          "pitch": "D#3"
        },
        {
          "midi": 55,
          "beat": 1.01,
          "dur": 0.95,
          "vel": 51,
          "clef": "bass",
          "pitch": "G3"
        },
        {
          "midi": 47,
          "beat": 1.02,
          "dur": 0.95,
          "vel": 57,
          "clef": "bass",
          "pitch": "B2"
        },
        {
          "midi": 52,
          "beat": 1.02,
          "dur": 0.95,
          "vel": 54,
          "clef": "bass",
          "pitch": "E3"
        },
        {
          "midi": 62,
          "beat": 1.02,
          "dur": 0.95,
          "vel": 58,
          "clef": "treble",
          "pitch": "D4"
        },
        {
          "midi": 88,
          "beat": 1.18,
          "dur": 0.34,
          "vel": 84,
          "clef": "treble",
          "pitch": "E6"
        },
        {
          "midi": 45,
          "beat": 1.97,
          "dur": 0.95,
          "vel": 54,
          "clef": "bass",
          "pitch": "A2"
        },
        {
          "midi": 84,
          "beat": 1.98,
          "dur": 0.28,
          "vel": 80,
          "clef": "treble",
          "pitch": "C6"
        },
        {
          "midi": 35,
          "beat": 2,
          "dur": 0.02,
          "vel": 114,
          "clef": "bass",
          "pitch": "B1"
        },
        {
          "midi": 41,
          "beat": 2,
          "dur": 1.1,
          "vel": 85,
          "clef": "bass",
          "pitch": "F2"
        },
        {
          "midi": 51,
          "beat": 2,
          "dur": 0.02,
          "vel": 67,
          "clef": "bass",
          "acc": "#",
          "pitch": "D#3"
        },
        {
          "midi": 60,
          "beat": 2.01,
          "dur": 0.95,
          "vel": 58,
          "clef": "treble",
          "pitch": "C4"
        },
        {
          "midi": 52,
          "beat": 2.02,
          "dur": 0.95,
          "vel": 56,
          "clef": "bass",
          "pitch": "E3"
        },
        {
          "midi": 55,
          "beat": 2.02,
          "dur": 0.95,
          "vel": 54,
          "clef": "bass",
          "pitch": "G3"
        },
        {
          "midi": 51,
          "beat": 2.65,
          "dur": 0.02,
          "vel": 32,
          "clef": "bass",
          "acc": "#",
          "pitch": "D#3"
        },
        {
          "midi": 41,
          "beat": 2.67,
          "dur": 0.52,
          "vel": 80,
          "clef": "bass",
          "pitch": "F2"
        },
        {
          "midi": 87,
          "beat": 2.89,
          "dur": 0.18,
          "vel": 82,
          "clef": "treble",
          "acc": "#",
          "pitch": "D#6"
        },
        {
          "midi": 52,
          "beat": 2.97,
          "dur": 0.95,
          "vel": 58,
          "clef": "bass",
          "pitch": "E3"
        },
        {
          "midi": 55,
          "beat": 2.98,
          "dur": 0.95,
          "vel": 59,
          "clef": "bass",
          "pitch": "G3"
        },
        {
          "midi": 60,
          "beat": 2.99,
          "dur": 0.95,
          "vel": 60,
          "clef": "treble",
          "pitch": "C4"
        },
        {
          "midi": 45,
          "beat": 2.99,
          "dur": 0.95,
          "vel": 60,
          "clef": "bass",
          "pitch": "A2"
        },
        {
          "midi": 37,
          "beat": 3,
          "dur": 0.02,
          "vel": 91,
          "clef": "bass",
          "acc": "#",
          "pitch": "C#2"
        },
        {
          "midi": 41,
          "beat": 3,
          "dur": 1,
          "vel": 81,
          "clef": "bass",
          "pitch": "F2"
        },
        {
          "midi": 44,
          "beat": 3,
          "dur": 0.02,
          "vel": 68,
          "clef": "bass",
          "acc": "#",
          "pitch": "G#2"
        },
        {
          "midi": 51,
          "beat": 3,
          "dur": 0.02,
          "vel": 76,
          "clef": "bass",
          "acc": "#",
          "pitch": "D#3"
        },
        {
          "midi": 88,
          "beat": 3,
          "dur": 0.38,
          "vel": 79,
          "clef": "treble",
          "pitch": "E6"
        },
        {
          "midi": 91,
          "beat": 3.7,
          "dur": 0.3,
          "vel": 83,
          "clef": "treble",
          "pitch": "G6"
        },
        {
          "midi": 52,
          "beat": 3.96,
          "dur": 0.04,
          "vel": 60,
          "clef": "bass",
          "pitch": "E3"
        },
        {
          "midi": 59,
          "beat": 3.96,
          "dur": 0.04,
          "vel": 52,
          "clef": "bass",
          "pitch": "B3"
        }
      ]
    },
    {
      "_": "Treble: 17 notes, Bass: 28 notes",
      "number": 49,
      "notes": [
        {
          "midi": 35,
          "beat": 0,
          "dur": 0.02,
          "vel": 120,
          "clef": "bass",
          "pitch": "B1"
        },
        {
          "midi": 40,
          "beat": 0,
          "dur": 1.67,
          "vel": 82,
          "clef": "bass",
          "pitch": "E2"
        },
        {
          "midi": 51,
          "beat": 0,
          "dur": 0.02,
          "vel": 70,
          "clef": "bass",
          "acc": "#",
          "pitch": "D#3"
        },
        {
          "midi": 43,
          "beat": 0.02,
          "dur": 0.95,
          "vel": 58,
          "clef": "bass",
          "pitch": "G2"
        },
        {
          "midi": 47,
          "beat": 0.02,
          "dur": 0.95,
          "vel": 59,
          "clef": "bass",
          "pitch": "B2"
        },
        {
          "midi": 89,
          "beat": 0.17,
          "dur": 0.45,
          "vel": 80,
          "clef": "treble",
          "pitch": "F6"
        },
        {
          "midi": 88,
          "beat": 0.44,
          "dur": 0.33,
          "vel": 81,
          "clef": "treble",
          "pitch": "E6"
        },
        {
          "midi": 85,
          "beat": 0.64,
          "dur": 0.34,
          "vel": 84,
          "clef": "treble",
          "acc": "#",
          "pitch": "C#6"
        },
        {
          "midi": 84,
          "beat": 0.84,
          "dur": 0.51,
          "vel": 88,
          "clef": "treble",
          "pitch": "C6"
        },
        {
          "midi": 43,
          "beat": 0.98,
          "dur": 0.95,
          "vel": 58,
          "clef": "bass",
          "pitch": "G2"
        },
        {
          "midi": 37,
          "beat": 1,
          "dur": 0.02,
          "vel": 96,
          "clef": "bass",
          "acc": "#",
          "pitch": "C#2"
        },
        {
          "midi": 40,
          "beat": 1,
          "dur": 1.67,
          "vel": 80,
          "clef": "bass",
          "pitch": "E2"
        },
        {
          "midi": 44,
          "beat": 1,
          "dur": 0.02,
          "vel": 72,
          "clef": "bass",
          "acc": "#",
          "pitch": "G#2"
        },
        {
          "midi": 51,
          "beat": 1,
          "dur": 0.02,
          "vel": 72,
          "clef": "bass",
          "acc": "#",
          "pitch": "D#3"
        },
        {
          "midi": 52,
          "beat": 1,
          "dur": 0.95,
          "vel": 58,
          "clef": "bass",
          "pitch": "E3"
        },
        {
          "midi": 59,
          "beat": 1.01,
          "dur": 0.95,
          "vel": 51,
          "clef": "bass",
          "pitch": "B3"
        },
        {
          "midi": 47,
          "beat": 1.02,
          "dur": 0.95,
          "vel": 54,
          "clef": "bass",
          "pitch": "B2"
        },
        {
          "midi": 85,
          "beat": 1.17,
          "dur": 0.46,
          "vel": 84,
          "clef": "treble",
          "acc": "#",
          "pitch": "C#6"
        },
        {
          "midi": 84,
          "beat": 1.42,
          "dur": 0.46,
          "vel": 80,
          "clef": "treble",
          "pitch": "C6"
        },
        {
          "midi": 82,
          "beat": 1.72,
          "dur": 0.31,
          "vel": 84,
          "clef": "treble",
          "acc": "#",
          "pitch": "A#5"
        },
        {
          "midi": 80,
          "beat": 1.91,
          "dur": 0.31,
          "vel": 80,
          "clef": "treble",
          "acc": "#",
          "pitch": "G#5"
        },
        {
          "midi": 52,
          "beat": 1.94,
          "dur": 0.95,
          "vel": 53,
          "clef": "bass",
          "pitch": "E3"
        },
        {
          "midi": 33,
          "beat": 2,
          "dur": 1.67,
          "vel": 84,
          "clef": "bass",
          "pitch": "A1"
        },
        {
          "midi": 35,
          "beat": 2,
          "dur": 0.02,
          "vel": 117,
          "clef": "bass",
          "pitch": "B1"
        },
        {
          "midi": 46,
          "beat": 2,
          "dur": 0.95,
          "vel": 60,
          "clef": "bass",
          "acc": "#",
          "pitch": "A#2"
        },
        {
          "midi": 51,
          "beat": 2,
          "dur": 0.02,
          "vel": 76,
          "clef": "bass",
          "acc": "#",
          "pitch": "D#3"
        },
        {
          "midi": 61,
          "beat": 2,
          "dur": 0.95,
          "vel": 52,
          "clef": "treble",
          "acc": "#",
          "pitch": "C#4"
        },
        {
          "midi": 55,
          "beat": 2.02,
          "dur": 0.95,
          "vel": 58,
          "clef": "bass",
          "pitch": "G3"
        },
        {
          "midi": 79,
          "beat": 2.14,
          "dur": 0.28,
          "vel": 83,
          "clef": "treble",
          "pitch": "G5"
        },
        {
          "midi": 77,
          "beat": 2.31,
          "dur": 0.39,
          "vel": 83,
          "clef": "treble",
          "pitch": "F5"
        },
        {
          "midi": 76,
          "beat": 2.54,
          "dur": 0.41,
          "vel": 85,
          "clef": "treble",
          "pitch": "E5"
        },
        {
          "midi": 77,
          "beat": 2.8,
          "dur": 0.37,
          "vel": 84,
          "clef": "treble",
          "pitch": "F5"
        },
        {
          "midi": 52,
          "beat": 2.97,
          "dur": 0.95,
          "vel": 52,
          "clef": "bass",
          "pitch": "E3"
        },
        {
          "midi": 33,
          "beat": 3,
          "dur": 1,
          "vel": 76,
          "clef": "bass",
          "pitch": "A1"
        },
        {
          "midi": 37,
          "beat": 3,
          "dur": 0.02,
          "vel": 87,
          "clef": "bass",
          "acc": "#",
          "pitch": "C#2"
        },
        {
          "midi": 44,
          "beat": 3,
          "dur": 0.02,
          "vel": 67,
          "clef": "bass",
          "acc": "#",
          "pitch": "G#2"
        },
        {
          "midi": 46,
          "beat": 3,
          "dur": 0.95,
          "vel": 52,
          "clef": "bass",
          "acc": "#",
          "pitch": "A#2"
        },
        {
          "midi": 51,
          "beat": 3,
          "dur": 0.02,
          "vel": 72,
          "clef": "bass",
          "acc": "#",
          "pitch": "D#3"
        },
        {
          "midi": 55,
          "beat": 3.02,
          "dur": 0.95,
          "vel": 56,
          "clef": "bass",
          "pitch": "G3"
        },
        {
          "midi": 61,
          "beat": 3.02,
          "dur": 0.95,
          "vel": 55,
          "clef": "treble",
          "acc": "#",
          "pitch": "C#4"
        },
        {
          "midi": 76,
          "beat": 3.02,
          "dur": 0.48,
          "vel": 88,
          "clef": "treble",
          "pitch": "E5"
        },
        {
          "midi": 59,
          "beat": 3.62,
          "dur": 0.38,
          "vel": 64,
          "clef": "bass",
          "pitch": "B3"
        },
        {
          "midi": 68,
          "beat": 3.65,
          "dur": 0.35,
          "vel": 101,
          "clef": "treble",
          "acc": "#",
          "pitch": "G#4"
        },
        {
          "midi": 59,
          "beat": 3.66,
          "dur": 0.34,
          "vel": 122,
          "clef": "bass",
          "pitch": "B3"
        },
        {
          "midi": 62,
          "beat": 3.95,
          "dur": 0.05,
          "vel": 52,
          "clef": "treble",
          "pitch": "D4"
        }
      ]
    },
    {
      "_": "Treble: 13 notes, Bass: 28 notes",
      "number": 50,
      "notes": [
        {
          "midi": 38,
          "beat": 0,
          "dur": 1.67,
          "vel": 79,
          "clef": "bass",
          "pitch": "D2"
        },
        {
          "midi": 51,
          "beat": 0,
          "dur": 0.02,
          "vel": 76,
          "clef": "bass",
          "acc": "#",
          "pitch": "D#3"
        },
        {
          "midi": 53,
          "beat": 0,
          "dur": 0.95,
          "vel": 57,
          "clef": "bass",
          "pitch": "F3"
        },
        {
          "midi": 60,
          "beat": 0,
          "dur": 0.53,
          "vel": 115,
          "clef": "treble",
          "pitch": "C4"
        },
        {
          "midi": 60,
          "beat": 0,
          "dur": 0.53,
          "vel": 64,
          "clef": "treble",
          "pitch": "C4"
        },
        {
          "midi": 48,
          "beat": 0.02,
          "dur": 0.95,
          "vel": 54,
          "clef": "bass",
          "pitch": "C3"
        },
        {
          "midi": 69,
          "beat": 0.02,
          "dur": 0.41,
          "vel": 99,
          "clef": "treble",
          "pitch": "A4"
        },
        {
          "midi": 57,
          "beat": 0.03,
          "dur": 0.95,
          "vel": 54,
          "clef": "bass",
          "pitch": "A3"
        },
        {
          "midi": 65,
          "beat": 0.62,
          "dur": 0.53,
          "vel": 59,
          "clef": "treble",
          "pitch": "F4"
        },
        {
          "midi": 74,
          "beat": 0.65,
          "dur": 0.4,
          "vel": 99,
          "clef": "treble",
          "pitch": "D5"
        },
        {
          "midi": 65,
          "beat": 0.66,
          "dur": 0.53,
          "vel": 117,
          "clef": "treble",
          "pitch": "F4"
        },
        {
          "midi": 62,
          "beat": 0.96,
          "dur": 0.95,
          "vel": 60,
          "clef": "treble",
          "pitch": "D4"
        },
        {
          "midi": 48,
          "beat": 0.97,
          "dur": 0.95,
          "vel": 55,
          "clef": "bass",
          "pitch": "C3"
        },
        {
          "midi": 57,
          "beat": 0.97,
          "dur": 0.95,
          "vel": 51,
          "clef": "bass",
          "pitch": "A3"
        },
        {
          "midi": 37,
          "beat": 1,
          "dur": 0.02,
          "vel": 88,
          "clef": "bass",
          "acc": "#",
          "pitch": "C#2"
        },
        {
          "midi": 38,
          "beat": 1,
          "dur": 1.08,
          "vel": 77,
          "clef": "bass",
          "pitch": "D2"
        },
        {
          "midi": 44,
          "beat": 1,
          "dur": 0.02,
          "vel": 73,
          "clef": "bass",
          "acc": "#",
          "pitch": "G#2"
        },
        {
          "midi": 51,
          "beat": 1,
          "dur": 0.02,
          "vel": 75,
          "clef": "bass",
          "acc": "#",
          "pitch": "D#3"
        },
        {
          "midi": 53,
          "beat": 1,
          "dur": 0.95,
          "vel": 58,
          "clef": "bass",
          "pitch": "F3"
        },
        {
          "midi": 65,
          "beat": 1,
          "dur": 0.53,
          "vel": 123,
          "clef": "treble",
          "pitch": "F4"
        },
        {
          "midi": 65,
          "beat": 1,
          "dur": 0.53,
          "vel": 61,
          "clef": "treble",
          "pitch": "F4"
        },
        {
          "midi": 74,
          "beat": 1.02,
          "dur": 0.36,
          "vel": 106,
          "clef": "treble",
          "pitch": "D5"
        },
        {
          "midi": 35,
          "beat": 1.65,
          "dur": 0.02,
          "vel": 75,
          "clef": "bass",
          "pitch": "B1"
        },
        {
          "midi": 38,
          "beat": 1.67,
          "dur": 0.52,
          "vel": 83,
          "clef": "bass",
          "pitch": "D2"
        },
        {
          "midi": 62,
          "beat": 1.98,
          "dur": 0.95,
          "vel": 53,
          "clef": "treble",
          "pitch": "D4"
        },
        {
          "midi": 53,
          "beat": 1.99,
          "dur": 0.95,
          "vel": 51,
          "clef": "bass",
          "pitch": "F3"
        },
        {
          "midi": 35,
          "beat": 2,
          "dur": 0.02,
          "vel": 113,
          "clef": "bass",
          "pitch": "B1"
        },
        {
          "midi": 44,
          "beat": 2,
          "dur": 1.67,
          "vel": 80,
          "clef": "bass",
          "acc": "#",
          "pitch": "G#2"
        },
        {
          "midi": 51,
          "beat": 2,
          "dur": 0.02,
          "vel": 68,
          "clef": "bass",
          "acc": "#",
          "pitch": "D#3"
        },
        {
          "midi": 56,
          "beat": 2.01,
          "dur": 0.95,
          "vel": 51,
          "clef": "bass",
          "acc": "#",
          "pitch": "G#3"
        },
        {
          "midi": 48,
          "beat": 2.02,
          "dur": 0.95,
          "vel": 54,
          "clef": "bass",
          "pitch": "C3"
        },
        {
          "midi": 62,
          "beat": 2.94,
          "dur": 0.95,
          "vel": 53,
          "clef": "treble",
          "pitch": "D4"
        },
        {
          "midi": 53,
          "beat": 2.96,
          "dur": 0.95,
          "vel": 58,
          "clef": "bass",
          "pitch": "F3"
        },
        {
          "midi": 37,
          "beat": 3,
          "dur": 0.02,
          "vel": 88,
          "clef": "bass",
          "acc": "#",
          "pitch": "C#2"
        },
        {
          "midi": 44,
          "beat": 3,
          "dur": 0.02,
          "vel": 68,
          "clef": "bass",
          "acc": "#",
          "pitch": "G#2"
        },
        {
          "midi": 44,
          "beat": 3,
          "dur": 1,
          "vel": 81,
          "clef": "bass",
          "acc": "#",
          "pitch": "G#2"
        },
        {
          "midi": 51,
          "beat": 3,
          "dur": 0.02,
          "vel": 69,
          "clef": "bass",
          "acc": "#",
          "pitch": "D#3"
        },
        {
          "midi": 56,
          "beat": 3,
          "dur": 0.95,
          "vel": 60,
          "clef": "bass",
          "acc": "#",
          "pitch": "G#3"
        },
        {
          "midi": 48,
          "beat": 3.02,
          "dur": 0.95,
          "vel": 59,
          "clef": "bass",
          "pitch": "C3"
        },
        {
          "midi": 50,
          "beat": 3.94,
          "dur": 0.06,
          "vel": 53,
          "clef": "bass",
          "pitch": "D3"
        },
        {
          "midi": 60,
          "beat": 3.97,
          "dur": 0.03,
          "vel": 53,
          "clef": "treble",
          "pitch": "C4"
        }
      ]
    },
    {
      "_": "Treble: 19 notes, Bass: 30 notes",
      "number": 51,
      "notes": [
        {
          "midi": 43,
          "beat": 0,
          "dur": 1.67,
          "vel": 85,
          "clef": "bass",
          "pitch": "G2"
        },
        {
          "midi": 45,
          "beat": 0,
          "dur": 0.95,
          "vel": 60,
          "clef": "bass",
          "pitch": "A2"
        },
        {
          "midi": 51,
          "beat": 0,
          "dur": 0.02,
          "vel": 68,
          "clef": "bass",
          "acc": "#",
          "pitch": "D#3"
        },
        {
          "midi": 53,
          "beat": 0.01,
          "dur": 0.95,
          "vel": 55,
          "clef": "bass",
          "pitch": "F3"
        },
        {
          "midi": 45,
          "beat": 0.63,
          "dur": 3.37,
          "vel": 91,
          "clef": "bass",
          "pitch": "A2"
        },
        {
          "midi": 57,
          "beat": 0.63,
          "dur": 3.37,
          "vel": 110,
          "clef": "bass",
          "pitch": "A3"
        },
        {
          "midi": 60,
          "beat": 0.63,
          "dur": 3.37,
          "vel": 115,
          "clef": "treble",
          "pitch": "C4"
        },
        {
          "midi": 62,
          "beat": 0.63,
          "dur": 3.37,
          "vel": 61,
          "clef": "treble",
          "pitch": "D4"
        },
        {
          "midi": 65,
          "beat": 0.63,
          "dur": 3.37,
          "vel": 117,
          "clef": "treble",
          "pitch": "F4"
        },
        {
          "midi": 72,
          "beat": 0.63,
          "dur": 3.37,
          "vel": 79,
          "clef": "treble",
          "pitch": "C5"
        },
        {
          "midi": 74,
          "beat": 0.63,
          "dur": 3.37,
          "vel": 78,
          "clef": "treble",
          "pitch": "D5"
        },
        {
          "midi": 77,
          "beat": 0.63,
          "dur": 3.37,
          "vel": 76,
          "clef": "treble",
          "pitch": "F5"
        },
        {
          "midi": 81,
          "beat": 0.63,
          "dur": 3.37,
          "vel": 112,
          "clef": "treble",
          "pitch": "A5"
        },
        {
          "midi": 60,
          "beat": 0.66,
          "dur": 3.34,
          "vel": 94,
          "clef": "treble",
          "pitch": "C4"
        },
        {
          "midi": 65,
          "beat": 0.66,
          "dur": 3.34,
          "vel": 102,
          "clef": "treble",
          "pitch": "F4"
        },
        {
          "midi": 53,
          "beat": 0.96,
          "dur": 0.95,
          "vel": 55,
          "clef": "bass",
          "pitch": "F3"
        },
        {
          "midi": 60,
          "beat": 0.99,
          "dur": 0.95,
          "vel": 60,
          "clef": "treble",
          "pitch": "C4"
        },
        {
          "midi": 35,
          "beat": 1,
          "dur": 1.67,
          "vel": 80,
          "clef": "bass",
          "pitch": "B1"
        },
        {
          "midi": 37,
          "beat": 1,
          "dur": 0.02,
          "vel": 87,
          "clef": "bass",
          "acc": "#",
          "pitch": "C#2"
        },
        {
          "midi": 44,
          "beat": 1,
          "dur": 0.02,
          "vel": 75,
          "clef": "bass",
          "acc": "#",
          "pitch": "G#2"
        },
        {
          "midi": 45,
          "beat": 1,
          "dur": 0.95,
          "vel": 60,
          "clef": "bass",
          "pitch": "A2"
        },
        {
          "midi": 50,
          "beat": 1,
          "dur": 0.95,
          "vel": 52,
          "clef": "bass",
          "pitch": "D3"
        },
        {
          "midi": 51,
          "beat": 1,
          "dur": 0.02,
          "vel": 69,
          "clef": "bass",
          "acc": "#",
          "pitch": "D#3"
        },
        {
          "midi": 50,
          "beat": 1.96,
          "dur": 0.95,
          "vel": 60,
          "clef": "bass",
          "pitch": "D3"
        },
        {
          "midi": 45,
          "beat": 1.98,
          "dur": 0.95,
          "vel": 58,
          "clef": "bass",
          "pitch": "A2"
        },
        {
          "midi": 53,
          "beat": 1.98,
          "dur": 0.95,
          "vel": 52,
          "clef": "bass",
          "pitch": "F3"
        },
        {
          "midi": 38,
          "beat": 2,
          "dur": 1.67,
          "vel": 81,
          "clef": "bass",
          "pitch": "D2"
        },
        {
          "midi": 51,
          "beat": 2,
          "dur": 0.02,
          "vel": 69,
          "clef": "bass",
          "acc": "#",
          "pitch": "D#3"
        },
        {
          "midi": 60,
          "beat": 2.01,
          "dur": 0.95,
          "vel": 57,
          "clef": "treble",
          "pitch": "C4"
        },
        {
          "midi": 43,
          "beat": 2.63,
          "dur": 1.37,
          "vel": 88,
          "clef": "bass",
          "pitch": "G2"
        },
        {
          "midi": 56,
          "beat": 2.63,
          "dur": 1.37,
          "vel": 113,
          "clef": "bass",
          "acc": "#",
          "pitch": "G#3"
        },
        {
          "midi": 59,
          "beat": 2.63,
          "dur": 1.37,
          "vel": 115,
          "clef": "bass",
          "pitch": "B3"
        },
        {
          "midi": 62,
          "beat": 2.63,
          "dur": 1.37,
          "vel": 61,
          "clef": "treble",
          "pitch": "D4"
        },
        {
          "midi": 65,
          "beat": 2.63,
          "dur": 1.37,
          "vel": 118,
          "clef": "treble",
          "pitch": "F4"
        },
        {
          "midi": 71,
          "beat": 2.63,
          "dur": 1.37,
          "vel": 84,
          "clef": "treble",
          "pitch": "B4"
        },
        {
          "midi": 74,
          "beat": 2.63,
          "dur": 1.37,
          "vel": 74,
          "clef": "treble",
          "pitch": "D5"
        },
        {
          "midi": 77,
          "beat": 2.63,
          "dur": 1.37,
          "vel": 75,
          "clef": "treble",
          "pitch": "F5"
        },
        {
          "midi": 79,
          "beat": 2.63,
          "dur": 1.37,
          "vel": 116,
          "clef": "treble",
          "pitch": "G5"
        },
        {
          "midi": 59,
          "beat": 2.66,
          "dur": 1.34,
          "vel": 99,
          "clef": "bass",
          "pitch": "B3"
        },
        {
          "midi": 65,
          "beat": 2.66,
          "dur": 1.34,
          "vel": 103,
          "clef": "treble",
          "pitch": "F4"
        },
        {
          "midi": 53,
          "beat": 2.96,
          "dur": 0.95,
          "vel": 57,
          "clef": "bass",
          "pitch": "F3"
        },
        {
          "midi": 50,
          "beat": 2.98,
          "dur": 0.95,
          "vel": 53,
          "clef": "bass",
          "pitch": "D3"
        },
        {
          "midi": 45,
          "beat": 2.99,
          "dur": 0.95,
          "vel": 51,
          "clef": "bass",
          "pitch": "A2"
        },
        {
          "midi": 37,
          "beat": 3,
          "dur": 0.02,
          "vel": 95,
          "clef": "bass",
          "acc": "#",
          "pitch": "C#2"
        },
        {
          "midi": 43,
          "beat": 3,
          "dur": 1,
          "vel": 77,
          "clef": "bass",
          "pitch": "G2"
        },
        {
          "midi": 44,
          "beat": 3,
          "dur": 0.02,
          "vel": 75,
          "clef": "bass",
          "acc": "#",
          "pitch": "G#2"
        },
        {
          "midi": 51,
          "beat": 3,
          "dur": 0.02,
          "vel": 72,
          "clef": "bass",
          "acc": "#",
          "pitch": "D#3"
        },
        {
          "midi": 60,
          "beat": 3.01,
          "dur": 0.95,
          "vel": 59,
          "clef": "treble",
          "pitch": "C4"
        },
        {
          "midi": 52,
          "beat": 3.96,
          "dur": 0.04,
          "vel": 60,
          "clef": "bass",
          "pitch": "E3"
        }
      ]
    },
    {
      "_": "Treble: 16 notes, Bass: 44 notes",
      "number": 52,
      "notes": [
        {
          "midi": 55,
          "beat": -0.01,
          "dur": 0.95,
          "vel": 58,
          "clef": "bass",
          "pitch": "G3"
        },
        {
          "midi": 60,
          "beat": 0,
          "dur": 0.95,
          "vel": 51,
          "clef": "treble",
          "pitch": "C4"
        },
        {
          "midi": 36,
          "beat": 0,
          "dur": 1.67,
          "vel": 78,
          "clef": "bass",
          "pitch": "C2"
        },
        {
          "midi": 41,
          "beat": 0,
          "dur": 1.1,
          "vel": 90,
          "clef": "bass",
          "pitch": "F2"
        },
        {
          "midi": 51,
          "beat": 0,
          "dur": 0.02,
          "vel": 71,
          "clef": "bass",
          "acc": "#",
          "pitch": "D#3"
        },
        {
          "midi": 53,
          "beat": 0,
          "dur": 1.11,
          "vel": 118,
          "clef": "bass",
          "pitch": "F3"
        },
        {
          "midi": 56,
          "beat": 0,
          "dur": 1.11,
          "vel": 116,
          "clef": "bass",
          "acc": "#",
          "pitch": "G#3"
        },
        {
          "midi": 56,
          "beat": 0,
          "dur": 1.1,
          "vel": 95,
          "clef": "bass",
          "acc": "#",
          "pitch": "G#3"
        },
        {
          "midi": 59,
          "beat": 0,
          "dur": 1.1,
          "vel": 57,
          "clef": "bass",
          "pitch": "B3"
        },
        {
          "midi": 62,
          "beat": 0,
          "dur": 1.11,
          "vel": 117,
          "clef": "treble",
          "pitch": "D4"
        },
        {
          "midi": 62,
          "beat": 0,
          "dur": 1.1,
          "vel": 98,
          "clef": "treble",
          "pitch": "D4"
        },
        {
          "midi": 68,
          "beat": 0,
          "dur": 1.11,
          "vel": 81,
          "clef": "treble",
          "acc": "#",
          "pitch": "G#4"
        },
        {
          "midi": 71,
          "beat": 0,
          "dur": 1.04,
          "vel": 76,
          "clef": "treble",
          "pitch": "B4"
        },
        {
          "midi": 74,
          "beat": 0,
          "dur": 1.11,
          "vel": 75,
          "clef": "treble",
          "pitch": "D5"
        },
        {
          "midi": 77,
          "beat": 0,
          "dur": 1.11,
          "vel": 113,
          "clef": "treble",
          "pitch": "F5"
        },
        {
          "midi": 45,
          "beat": 0.02,
          "dur": 0.95,
          "vel": 58,
          "clef": "bass",
          "pitch": "A2"
        },
        {
          "midi": 40,
          "beat": 0.62,
          "dur": 0.53,
          "vel": 94,
          "clef": "bass",
          "pitch": "E2"
        },
        {
          "midi": 52,
          "beat": 0.62,
          "dur": 0.54,
          "vel": 113,
          "clef": "bass",
          "pitch": "E3"
        },
        {
          "midi": 55,
          "beat": 0.62,
          "dur": 0.54,
          "vel": 110,
          "clef": "bass",
          "pitch": "G3"
        },
        {
          "midi": 57,
          "beat": 0.62,
          "dur": 0.53,
          "vel": 56,
          "clef": "bass",
          "pitch": "A3"
        },
        {
          "midi": 60,
          "beat": 0.62,
          "dur": 0.54,
          "vel": 114,
          "clef": "treble",
          "pitch": "C4"
        },
        {
          "midi": 67,
          "beat": 0.62,
          "dur": 0.54,
          "vel": 77,
          "clef": "treble",
          "pitch": "G4"
        },
        {
          "midi": 69,
          "beat": 0.62,
          "dur": 0.4,
          "vel": 78,
          "clef": "treble",
          "pitch": "A4"
        },
        {
          "midi": 72,
          "beat": 0.62,
          "dur": 0.54,
          "vel": 77,
          "clef": "treble",
          "pitch": "C5"
        },
        {
          "midi": 76,
          "beat": 0.62,
          "dur": 0.45,
          "vel": 115,
          "clef": "treble",
          "pitch": "E5"
        },
        {
          "midi": 55,
          "beat": 0.66,
          "dur": 0.53,
          "vel": 96,
          "clef": "bass",
          "pitch": "G3"
        },
        {
          "midi": 60,
          "beat": 0.66,
          "dur": 0.53,
          "vel": 94,
          "clef": "treble",
          "pitch": "C4"
        },
        {
          "midi": 45,
          "beat": 0.96,
          "dur": 0.95,
          "vel": 53,
          "clef": "bass",
          "pitch": "A2"
        },
        {
          "midi": 60,
          "beat": 0.97,
          "dur": 0.95,
          "vel": 56,
          "clef": "treble",
          "pitch": "C4"
        },
        {
          "midi": 52,
          "beat": 0.98,
          "dur": 0.95,
          "vel": 53,
          "clef": "bass",
          "pitch": "E3"
        },
        {
          "midi": 40,
          "beat": 1,
          "dur": 1.67,
          "vel": 84,
          "clef": "bass",
          "pitch": "E2"
        },
        {
          "midi": 44,
          "beat": 1,
          "dur": 0.02,
          "vel": 74,
          "clef": "bass",
          "acc": "#",
          "pitch": "G#2"
        },
        {
          "midi": 51,
          "beat": 1,
          "dur": 0.02,
          "vel": 75,
          "clef": "bass",
          "acc": "#",
          "pitch": "D#3"
        },
        {
          "midi": 55,
          "beat": 1,
          "dur": 0.95,
          "vel": 54,
          "clef": "bass",
          "pitch": "G3"
        },
        {
          "midi": 45,
          "beat": 1.94,
          "dur": 0.95,
          "vel": 53,
          "clef": "bass",
          "pitch": "A2"
        },
        {
          "midi": 52,
          "beat": 1.98,
          "dur": 0.95,
          "vel": 53,
          "clef": "bass",
          "pitch": "E3"
        },
        {
          "midi": 40,
          "beat": 2,
          "dur": 0.02,
          "vel": 99,
          "clef": "bass",
          "pitch": "E2"
        },
        {
          "midi": 43,
          "beat": 2,
          "dur": 0.02,
          "vel": 101,
          "clef": "bass",
          "pitch": "G2"
        },
        {
          "midi": 45,
          "beat": 2,
          "dur": 1.67,
          "vel": 82,
          "clef": "bass",
          "pitch": "A2"
        },
        {
          "midi": 51,
          "beat": 2,
          "dur": 0.02,
          "vel": 73,
          "clef": "bass",
          "acc": "#",
          "pitch": "D#3"
        },
        {
          "midi": 60,
          "beat": 2.01,
          "dur": 0.95,
          "vel": 56,
          "clef": "treble",
          "pitch": "C4"
        },
        {
          "midi": 55,
          "beat": 2.02,
          "dur": 0.95,
          "vel": 55,
          "clef": "bass",
          "pitch": "G3"
        },
        {
          "midi": 40,
          "beat": 2.33,
          "dur": 0.02,
          "vel": 102,
          "clef": "bass",
          "pitch": "E2"
        },
        {
          "midi": 43,
          "beat": 2.33,
          "dur": 0.02,
          "vel": 104,
          "clef": "bass",
          "pitch": "G2"
        },
        {
          "midi": 40,
          "beat": 2.65,
          "dur": 0.02,
          "vel": 62,
          "clef": "bass",
          "pitch": "E2"
        },
        {
          "midi": 43,
          "beat": 2.65,
          "dur": 0.02,
          "vel": 57,
          "clef": "bass",
          "pitch": "G2"
        },
        {
          "midi": 60,
          "beat": 2.99,
          "dur": 0.95,
          "vel": 60,
          "clef": "treble",
          "pitch": "C4"
        },
        {
          "midi": 40,
          "beat": 3,
          "dur": 0.02,
          "vel": 98,
          "clef": "bass",
          "pitch": "E2"
        },
        {
          "midi": 43,
          "beat": 3,
          "dur": 0.02,
          "vel": 100,
          "clef": "bass",
          "pitch": "G2"
        },
        {
          "midi": 43,
          "beat": 3,
          "dur": 1,
          "vel": 84,
          "clef": "bass",
          "pitch": "G2"
        },
        {
          "midi": 44,
          "beat": 3,
          "dur": 0.02,
          "vel": 67,
          "clef": "bass",
          "acc": "#",
          "pitch": "G#2"
        },
        {
          "midi": 45,
          "beat": 3,
          "dur": 0.95,
          "vel": 60,
          "clef": "bass",
          "pitch": "A2"
        },
        {
          "midi": 51,
          "beat": 3,
          "dur": 0.02,
          "vel": 72,
          "clef": "bass",
          "acc": "#",
          "pitch": "D#3"
        },
        {
          "midi": 52,
          "beat": 3.02,
          "dur": 0.95,
          "vel": 54,
          "clef": "bass",
          "pitch": "E3"
        },
        {
          "midi": 55,
          "beat": 3.02,
          "dur": 0.95,
          "vel": 56,
          "clef": "bass",
          "pitch": "G3"
        },
        {
          "midi": 40,
          "beat": 3.33,
          "dur": 0.02,
          "vel": 104,
          "clef": "bass",
          "pitch": "E2"
        },
        {
          "midi": 43,
          "beat": 3.33,
          "dur": 0.02,
          "vel": 104,
          "clef": "bass",
          "pitch": "G2"
        },
        {
          "midi": 40,
          "beat": 3.65,
          "dur": 0.02,
          "vel": 65,
          "clef": "bass",
          "pitch": "E2"
        },
        {
          "midi": 43,
          "beat": 3.65,
          "dur": 0.02,
          "vel": 62,
          "clef": "bass",
          "pitch": "G2"
        },
        {
          "midi": 40,
          "beat": 3.67,
          "dur": 0.33,
          "vel": 84,
          "clef": "bass",
          "pitch": "E2"
        }
      ]
    },
    {
      "_": "Treble: 15 notes, Bass: 18 notes",
      "number": 53,
      "notes": [
        {
          "midi": 35,
          "beat": 0,
          "dur": 0.52,
          "vel": 80,
          "clef": "bass",
          "pitch": "B1"
        },
        {
          "midi": 40,
          "beat": 0,
          "dur": 0.02,
          "vel": 101,
          "clef": "bass",
          "pitch": "E2"
        },
        {
          "midi": 43,
          "beat": 0,
          "dur": 0.02,
          "vel": 106,
          "clef": "bass",
          "pitch": "G2"
        },
        {
          "midi": 59,
          "beat": 0.6,
          "dur": 3.4,
          "vel": 53,
          "clef": "bass",
          "pitch": "B3"
        },
        {
          "midi": 50,
          "beat": 0.61,
          "dur": 3.39,
          "vel": 54,
          "clef": "bass",
          "pitch": "D3"
        },
        {
          "midi": 53,
          "beat": 0.62,
          "dur": 3.38,
          "vel": 57,
          "clef": "bass",
          "pitch": "F3"
        },
        {
          "midi": 44,
          "beat": 0.62,
          "dur": 3.38,
          "vel": 88,
          "clef": "bass",
          "acc": "#",
          "pitch": "G#2"
        },
        {
          "midi": 50,
          "beat": 0.62,
          "dur": 3.38,
          "vel": 115,
          "clef": "bass",
          "pitch": "D3"
        },
        {
          "midi": 56,
          "beat": 0.62,
          "dur": 3.38,
          "vel": 115,
          "clef": "bass",
          "acc": "#",
          "pitch": "G#3"
        },
        {
          "midi": 60,
          "beat": 0.62,
          "dur": 3.38,
          "vel": 115,
          "clef": "treble",
          "pitch": "C4"
        },
        {
          "midi": 65,
          "beat": 0.62,
          "dur": 3.38,
          "vel": 56,
          "clef": "treble",
          "pitch": "F4"
        },
        {
          "midi": 77,
          "beat": 0.62,
          "dur": 3.38,
          "vel": 76,
          "clef": "treble",
          "pitch": "F5"
        },
        {
          "midi": 80,
          "beat": 0.62,
          "dur": 3.38,
          "vel": 77,
          "clef": "treble",
          "acc": "#",
          "pitch": "G#5"
        },
        {
          "midi": 84,
          "beat": 0.62,
          "dur": 3.38,
          "vel": 79,
          "clef": "treble",
          "pitch": "C6"
        },
        {
          "midi": 88,
          "beat": 0.62,
          "dur": 3.38,
          "vel": 127,
          "clef": "treble",
          "pitch": "E6"
        },
        {
          "midi": 35,
          "beat": 0.65,
          "dur": 0.02,
          "vel": 79,
          "clef": "bass",
          "pitch": "B1"
        },
        {
          "midi": 49,
          "beat": 0.65,
          "dur": 0.02,
          "vel": 80,
          "clef": "bass",
          "acc": "#",
          "pitch": "C#3"
        },
        {
          "midi": 44,
          "beat": 0.65,
          "dur": 3.35,
          "vel": 55,
          "clef": "bass",
          "acc": "#",
          "pitch": "G#2"
        },
        {
          "midi": 60,
          "beat": 0.66,
          "dur": 3.34,
          "vel": 99,
          "clef": "treble",
          "pitch": "C4"
        },
        {
          "midi": 68,
          "beat": 0.66,
          "dur": 3.34,
          "vel": 100,
          "clef": "treble",
          "acc": "#",
          "pitch": "G#4"
        },
        {
          "midi": 35,
          "beat": 0.67,
          "dur": 3.33,
          "vel": 80,
          "clef": "bass",
          "pitch": "B1"
        },
        {
          "midi": 40,
          "beat": 3,
          "dur": 0.02,
          "vel": 98,
          "clef": "bass",
          "pitch": "E2"
        },
        {
          "midi": 40,
          "beat": 3,
          "dur": 1,
          "vel": 84,
          "clef": "bass",
          "pitch": "E2"
        },
        {
          "midi": 44,
          "beat": 3,
          "dur": 0.02,
          "vel": 68,
          "clef": "bass",
          "acc": "#",
          "pitch": "G#2"
        },
        {
          "midi": 86,
          "beat": 3.22,
          "dur": 0.48,
          "vel": 69,
          "clef": "treble",
          "pitch": "D6"
        },
        {
          "midi": 84,
          "beat": 3.29,
          "dur": 0.51,
          "vel": 64,
          "clef": "treble",
          "pitch": "C6"
        },
        {
          "midi": 83,
          "beat": 3.42,
          "dur": 0.27,
          "vel": 54,
          "clef": "treble",
          "pitch": "B5"
        },
        {
          "midi": 81,
          "beat": 3.49,
          "dur": 0.33,
          "vel": 50,
          "clef": "treble",
          "pitch": "A5"
        },
        {
          "midi": 79,
          "beat": 3.58,
          "dur": 0.4,
          "vel": 41,
          "clef": "treble",
          "pitch": "G5"
        },
        {
          "midi": 77,
          "beat": 3.63,
          "dur": 0.37,
          "vel": 32,
          "clef": "treble",
          "pitch": "F5"
        },
        {
          "midi": 35,
          "beat": 3.65,
          "dur": 0.02,
          "vel": 79,
          "clef": "bass",
          "pitch": "B1"
        },
        {
          "midi": 60,
          "beat": 3.97,
          "dur": 0.03,
          "vel": 60,
          "clef": "treble",
          "pitch": "C4"
        },
        {
          "midi": 52,
          "beat": 3.98,
          "dur": 0.02,
          "vel": 53,
          "clef": "bass",
          "pitch": "E3"
        }
      ]
    },
    {
      "_": "Treble: 17 notes, Bass: 37 notes",
      "number": 54,
      "notes": [
        {
          "midi": 33,
          "beat": 0,
          "dur": 1.67,
          "vel": 80,
          "clef": "bass",
          "pitch": "A1"
        },
        {
          "midi": 35,
          "beat": 0,
          "dur": 0.02,
          "vel": 112,
          "clef": "bass",
          "pitch": "B1"
        },
        {
          "midi": 51,
          "beat": 0,
          "dur": 0.02,
          "vel": 76,
          "clef": "bass",
          "acc": "#",
          "pitch": "D#3"
        },
        {
          "midi": 72,
          "beat": 0,
          "dur": 1.15,
          "vel": 115,
          "clef": "treble",
          "pitch": "C5"
        },
        {
          "midi": 45,
          "beat": 0.02,
          "dur": 0.95,
          "vel": 57,
          "clef": "bass",
          "pitch": "A2"
        },
        {
          "midi": 55,
          "beat": 0.02,
          "dur": 0.95,
          "vel": 58,
          "clef": "bass",
          "pitch": "G3"
        },
        {
          "midi": 43,
          "beat": 0.63,
          "dur": 0.53,
          "vel": 91,
          "clef": "bass",
          "pitch": "G2"
        },
        {
          "midi": 55,
          "beat": 0.63,
          "dur": 0.53,
          "vel": 60,
          "clef": "bass",
          "pitch": "G3"
        },
        {
          "midi": 57,
          "beat": 0.71,
          "dur": 0.54,
          "vel": 116,
          "clef": "bass",
          "pitch": "A3"
        },
        {
          "midi": 60,
          "beat": 0.71,
          "dur": 0.54,
          "vel": 112,
          "clef": "treble",
          "pitch": "C4"
        },
        {
          "midi": 60,
          "beat": 0.95,
          "dur": 0.95,
          "vel": 60,
          "clef": "treble",
          "pitch": "C4"
        },
        {
          "midi": 52,
          "beat": 0.96,
          "dur": 0.95,
          "vel": 53,
          "clef": "bass",
          "pitch": "E3"
        },
        {
          "midi": 55,
          "beat": 0.97,
          "dur": 0.95,
          "vel": 51,
          "clef": "bass",
          "pitch": "G3"
        },
        {
          "midi": 45,
          "beat": 0.98,
          "dur": 0.95,
          "vel": 53,
          "clef": "bass",
          "pitch": "A2"
        },
        {
          "midi": 35,
          "beat": 1,
          "dur": 1.67,
          "vel": 85,
          "clef": "bass",
          "pitch": "B1"
        },
        {
          "midi": 37,
          "beat": 1,
          "dur": 0.02,
          "vel": 93,
          "clef": "bass",
          "acc": "#",
          "pitch": "C#2"
        },
        {
          "midi": 44,
          "beat": 1,
          "dur": 0.02,
          "vel": 69,
          "clef": "bass",
          "acc": "#",
          "pitch": "G#2"
        },
        {
          "midi": 48,
          "beat": 1,
          "dur": 1.1,
          "vel": 85,
          "clef": "bass",
          "pitch": "C3"
        },
        {
          "midi": 51,
          "beat": 1,
          "dur": 0.02,
          "vel": 76,
          "clef": "bass",
          "acc": "#",
          "pitch": "D#3"
        },
        {
          "midi": 60,
          "beat": 1,
          "dur": 1.1,
          "vel": 63,
          "clef": "treble",
          "pitch": "C4"
        },
        {
          "midi": 71,
          "beat": 1,
          "dur": 1.15,
          "vel": 119,
          "clef": "treble",
          "pitch": "B4"
        },
        {
          "midi": 43,
          "beat": 1.63,
          "dur": 0.53,
          "vel": 88,
          "clef": "bass",
          "pitch": "G2"
        },
        {
          "midi": 55,
          "beat": 1.63,
          "dur": 0.53,
          "vel": 61,
          "clef": "bass",
          "pitch": "G3"
        },
        {
          "midi": 51,
          "beat": 1.65,
          "dur": 0.02,
          "vel": 34,
          "clef": "bass",
          "acc": "#",
          "pitch": "D#3"
        },
        {
          "midi": 69,
          "beat": 1.96,
          "dur": 0.54,
          "vel": 75,
          "clef": "treble",
          "pitch": "A4"
        },
        {
          "midi": 72,
          "beat": 1.96,
          "dur": 0.54,
          "vel": 75,
          "clef": "treble",
          "pitch": "C5"
        },
        {
          "midi": 60,
          "beat": 1.97,
          "dur": 0.95,
          "vel": 54,
          "clef": "treble",
          "pitch": "C4"
        },
        {
          "midi": 45,
          "beat": 1.98,
          "dur": 0.95,
          "vel": 54,
          "clef": "bass",
          "pitch": "A2"
        },
        {
          "midi": 55,
          "beat": 1.98,
          "dur": 0.95,
          "vel": 53,
          "clef": "bass",
          "pitch": "G3"
        },
        {
          "midi": 36,
          "beat": 2,
          "dur": 1.67,
          "vel": 77,
          "clef": "bass",
          "pitch": "C2"
        },
        {
          "midi": 50,
          "beat": 2,
          "dur": 1.1,
          "vel": 91,
          "clef": "bass",
          "pitch": "D3"
        },
        {
          "midi": 51,
          "beat": 2,
          "dur": 0.02,
          "vel": 69,
          "clef": "bass",
          "acc": "#",
          "pitch": "D#3"
        },
        {
          "midi": 62,
          "beat": 2,
          "dur": 1.1,
          "vel": 60,
          "clef": "treble",
          "pitch": "D4"
        },
        {
          "midi": 69,
          "beat": 2,
          "dur": 1.15,
          "vel": 117,
          "clef": "treble",
          "pitch": "A4"
        },
        {
          "midi": 52,
          "beat": 2.02,
          "dur": 0.95,
          "vel": 57,
          "clef": "bass",
          "pitch": "E3"
        },
        {
          "midi": 52,
          "beat": 2.63,
          "dur": 0.53,
          "vel": 91,
          "clef": "bass",
          "pitch": "E3"
        },
        {
          "midi": 64,
          "beat": 2.63,
          "dur": 0.53,
          "vel": 62,
          "clef": "treble",
          "pitch": "E4"
        },
        {
          "midi": 57,
          "beat": 2.71,
          "dur": 0.54,
          "vel": 116,
          "clef": "bass",
          "pitch": "A3"
        },
        {
          "midi": 60,
          "beat": 2.71,
          "dur": 0.54,
          "vel": 118,
          "clef": "treble",
          "pitch": "C4"
        },
        {
          "midi": 45,
          "beat": 2.94,
          "dur": 0.95,
          "vel": 53,
          "clef": "bass",
          "pitch": "A2"
        },
        {
          "midi": 55,
          "beat": 2.96,
          "dur": 0.95,
          "vel": 60,
          "clef": "bass",
          "pitch": "G3"
        },
        {
          "midi": 52,
          "beat": 2.98,
          "dur": 0.95,
          "vel": 57,
          "clef": "bass",
          "pitch": "E3"
        },
        {
          "midi": 33,
          "beat": 3,
          "dur": 1,
          "vel": 85,
          "clef": "bass",
          "pitch": "A1"
        },
        {
          "midi": 37,
          "beat": 3,
          "dur": 0.02,
          "vel": 90,
          "clef": "bass",
          "acc": "#",
          "pitch": "C#2"
        },
        {
          "midi": 44,
          "beat": 3,
          "dur": 0.02,
          "vel": 74,
          "clef": "bass",
          "acc": "#",
          "pitch": "G#2"
        },
        {
          "midi": 51,
          "beat": 3,
          "dur": 0.02,
          "vel": 69,
          "clef": "bass",
          "acc": "#",
          "pitch": "D#3"
        },
        {
          "midi": 67,
          "beat": 3,
          "dur": 1,
          "vel": 113,
          "clef": "treble",
          "pitch": "G4"
        },
        {
          "midi": 60,
          "beat": 3.01,
          "dur": 0.95,
          "vel": 58,
          "clef": "treble",
          "pitch": "C4"
        },
        {
          "midi": 51,
          "beat": 3.65,
          "dur": 0.02,
          "vel": 32,
          "clef": "bass",
          "acc": "#",
          "pitch": "D#3"
        },
        {
          "midi": 65,
          "beat": 3.67,
          "dur": 0.33,
          "vel": 118,
          "clef": "treble",
          "pitch": "F4"
        },
        {
          "midi": 69,
          "beat": 3.96,
          "dur": 0.04,
          "vel": 80,
          "clef": "treble",
          "pitch": "A4"
        },
        {
          "midi": 72,
          "beat": 3.96,
          "dur": 0.04,
          "vel": 79,
          "clef": "treble",
          "pitch": "C5"
        },
        {
          "midi": 53,
          "beat": 3.97,
          "dur": 0.03,
          "vel": 51,
          "clef": "bass",
          "pitch": "F3"
        },
        {
          "midi": 50,
          "beat": 3.98,
          "dur": 0.02,
          "vel": 53,
          "clef": "bass",
          "pitch": "D3"
        }
      ]
    },
    {
      "_": "Treble: 18 notes, Bass: 33 notes",
      "number": 55,
      "notes": [
        {
          "midi": 38,
          "beat": 0,
          "dur": 1.67,
          "vel": 79,
          "clef": "bass",
          "pitch": "D2"
        },
        {
          "midi": 51,
          "beat": 0,
          "dur": 0.02,
          "vel": 74,
          "clef": "bass",
          "acc": "#",
          "pitch": "D#3"
        },
        {
          "midi": 60,
          "beat": 0.01,
          "dur": 0.95,
          "vel": 59,
          "clef": "treble",
          "pitch": "C4"
        },
        {
          "midi": 45,
          "beat": 0.02,
          "dur": 0.95,
          "vel": 56,
          "clef": "bass",
          "pitch": "A2"
        },
        {
          "midi": 43,
          "beat": 0.62,
          "dur": 0.53,
          "vel": 86,
          "clef": "bass",
          "pitch": "G2"
        },
        {
          "midi": 55,
          "beat": 0.62,
          "dur": 0.53,
          "vel": 61,
          "clef": "bass",
          "pitch": "G3"
        },
        {
          "midi": 57,
          "beat": 0.71,
          "dur": 0.54,
          "vel": 118,
          "clef": "bass",
          "pitch": "A3"
        },
        {
          "midi": 60,
          "beat": 0.71,
          "dur": 0.54,
          "vel": 114,
          "clef": "treble",
          "pitch": "C4"
        },
        {
          "midi": 60,
          "beat": 1,
          "dur": 0.95,
          "vel": 51,
          "clef": "treble",
          "pitch": "C4"
        },
        {
          "midi": 37,
          "beat": 1,
          "dur": 0.02,
          "vel": 88,
          "clef": "bass",
          "acc": "#",
          "pitch": "C#2"
        },
        {
          "midi": 40,
          "beat": 1,
          "dur": 1.67,
          "vel": 76,
          "clef": "bass",
          "pitch": "E2"
        },
        {
          "midi": 44,
          "beat": 1,
          "dur": 0.02,
          "vel": 75,
          "clef": "bass",
          "acc": "#",
          "pitch": "G#2"
        },
        {
          "midi": 48,
          "beat": 1,
          "dur": 1.1,
          "vel": 88,
          "clef": "bass",
          "pitch": "C3"
        },
        {
          "midi": 51,
          "beat": 1,
          "dur": 0.02,
          "vel": 68,
          "clef": "bass",
          "acc": "#",
          "pitch": "D#3"
        },
        {
          "midi": 60,
          "beat": 1,
          "dur": 1.1,
          "vel": 57,
          "clef": "treble",
          "pitch": "C4"
        },
        {
          "midi": 53,
          "beat": 1.01,
          "dur": 0.95,
          "vel": 54,
          "clef": "bass",
          "pitch": "F3"
        },
        {
          "midi": 45,
          "beat": 1.02,
          "dur": 0.95,
          "vel": 57,
          "clef": "bass",
          "pitch": "A2"
        },
        {
          "midi": 50,
          "beat": 1.02,
          "dur": 0.95,
          "vel": 56,
          "clef": "bass",
          "pitch": "D3"
        },
        {
          "midi": 43,
          "beat": 1.62,
          "dur": 0.53,
          "vel": 86,
          "clef": "bass",
          "pitch": "G2"
        },
        {
          "midi": 55,
          "beat": 1.62,
          "dur": 0.53,
          "vel": 65,
          "clef": "bass",
          "pitch": "G3"
        },
        {
          "midi": 50,
          "beat": 1.94,
          "dur": 0.95,
          "vel": 53,
          "clef": "bass",
          "pitch": "D3"
        },
        {
          "midi": 60,
          "beat": 1.95,
          "dur": 0.95,
          "vel": 52,
          "clef": "treble",
          "pitch": "C4"
        },
        {
          "midi": 69,
          "beat": 1.96,
          "dur": 0.54,
          "vel": 81,
          "clef": "treble",
          "pitch": "A4"
        },
        {
          "midi": 72,
          "beat": 1.96,
          "dur": 0.54,
          "vel": 84,
          "clef": "treble",
          "pitch": "C5"
        },
        {
          "midi": 53,
          "beat": 1.96,
          "dur": 0.95,
          "vel": 55,
          "clef": "bass",
          "pitch": "F3"
        },
        {
          "midi": 41,
          "beat": 2,
          "dur": 1.67,
          "vel": 77,
          "clef": "bass",
          "pitch": "F2"
        },
        {
          "midi": 50,
          "beat": 2,
          "dur": 0.53,
          "vel": 89,
          "clef": "bass",
          "pitch": "D3"
        },
        {
          "midi": 51,
          "beat": 2,
          "dur": 0.02,
          "vel": 74,
          "clef": "bass",
          "acc": "#",
          "pitch": "D#3"
        },
        {
          "midi": 62,
          "beat": 2,
          "dur": 0.92,
          "vel": 59,
          "clef": "treble",
          "pitch": "D4"
        },
        {
          "midi": 69,
          "beat": 2,
          "dur": 1.1,
          "vel": 115,
          "clef": "treble",
          "pitch": "A4"
        },
        {
          "midi": 72,
          "beat": 2,
          "dur": 1.15,
          "vel": 117,
          "clef": "treble",
          "pitch": "C5"
        },
        {
          "midi": 45,
          "beat": 2.02,
          "dur": 0.95,
          "vel": 58,
          "clef": "bass",
          "pitch": "A2"
        },
        {
          "midi": 52,
          "beat": 2.62,
          "dur": 0.53,
          "vel": 94,
          "clef": "bass",
          "pitch": "E3"
        },
        {
          "midi": 64,
          "beat": 2.62,
          "dur": 0.53,
          "vel": 64,
          "clef": "treble",
          "pitch": "E4"
        },
        {
          "midi": 72,
          "beat": 2.67,
          "dur": 1.15,
          "vel": 117,
          "clef": "treble",
          "pitch": "C5"
        },
        {
          "midi": 57,
          "beat": 2.71,
          "dur": 0.54,
          "vel": 118,
          "clef": "bass",
          "pitch": "A3"
        },
        {
          "midi": 60,
          "beat": 2.71,
          "dur": 0.54,
          "vel": 113,
          "clef": "treble",
          "pitch": "C4"
        },
        {
          "midi": 53,
          "beat": 2.96,
          "dur": 0.95,
          "vel": 57,
          "clef": "bass",
          "pitch": "F3"
        },
        {
          "midi": 60,
          "beat": 2.97,
          "dur": 0.95,
          "vel": 55,
          "clef": "treble",
          "pitch": "C4"
        },
        {
          "midi": 45,
          "beat": 2.99,
          "dur": 0.95,
          "vel": 51,
          "clef": "bass",
          "pitch": "A2"
        },
        {
          "midi": 37,
          "beat": 3,
          "dur": 0.02,
          "vel": 89,
          "clef": "bass",
          "acc": "#",
          "pitch": "C#2"
        },
        {
          "midi": 44,
          "beat": 3,
          "dur": 0.02,
          "vel": 73,
          "clef": "bass",
          "acc": "#",
          "pitch": "G#2"
        },
        {
          "midi": 45,
          "beat": 3,
          "dur": 1,
          "vel": 77,
          "clef": "bass",
          "pitch": "A2"
        },
        {
          "midi": 51,
          "beat": 3,
          "dur": 0.02,
          "vel": 71,
          "clef": "bass",
          "acc": "#",
          "pitch": "D#3"
        },
        {
          "midi": 68,
          "beat": 3,
          "dur": 1,
          "vel": 122,
          "clef": "treble",
          "acc": "#",
          "pitch": "G#4"
        },
        {
          "midi": 50,
          "beat": 3.02,
          "dur": 0.95,
          "vel": 58,
          "clef": "bass",
          "pitch": "D3"
        },
        {
          "midi": 71,
          "beat": 3.67,
          "dur": 0.33,
          "vel": 120,
          "clef": "treble",
          "pitch": "B4"
        },
        {
          "midi": 43,
          "beat": 3.96,
          "dur": 0.04,
          "vel": 60,
          "clef": "bass",
          "pitch": "G2"
        },
        {
          "midi": 53,
          "beat": 3.96,
          "dur": 0.04,
          "vel": 56,
          "clef": "bass",
          "pitch": "F3"
        },
        {
          "midi": 67,
          "beat": 3.96,
          "dur": 0.04,
          "vel": 77,
          "clef": "treble",
          "pitch": "G4"
        },
        {
          "midi": 71,
          "beat": 3.96,
          "dur": 0.04,
          "vel": 83,
          "clef": "treble",
          "pitch": "B4"
        }
      ]
    },
    {
      "_": "Treble: 14 notes, Bass: 42 notes",
      "number": 56,
      "notes": [
        {
          "midi": 50,
          "beat": -0.01,
          "dur": 0.95,
          "vel": 60,
          "clef": "bass",
          "pitch": "D3"
        },
        {
          "midi": 43,
          "beat": 0,
          "dur": 1.67,
          "vel": 78,
          "clef": "bass",
          "pitch": "G2"
        },
        {
          "midi": 51,
          "beat": 0,
          "dur": 0.02,
          "vel": 73,
          "clef": "bass",
          "acc": "#",
          "pitch": "D#3"
        },
        {
          "midi": 67,
          "beat": 0,
          "dur": 1.1,
          "vel": 116,
          "clef": "treble",
          "pitch": "G4"
        },
        {
          "midi": 59,
          "beat": 0.02,
          "dur": 0.95,
          "vel": 59,
          "clef": "bass",
          "pitch": "B3"
        },
        {
          "midi": 43,
          "beat": 0.62,
          "dur": 0.53,
          "vel": 91,
          "clef": "bass",
          "pitch": "G2"
        },
        {
          "midi": 55,
          "beat": 0.62,
          "dur": 0.53,
          "vel": 63,
          "clef": "bass",
          "pitch": "G3"
        },
        {
          "midi": 74,
          "beat": 0.67,
          "dur": 2.3,
          "vel": 117,
          "clef": "treble",
          "pitch": "D5"
        },
        {
          "midi": 55,
          "beat": 0.71,
          "dur": 0.54,
          "vel": 111,
          "clef": "bass",
          "pitch": "G3"
        },
        {
          "midi": 59,
          "beat": 0.71,
          "dur": 0.54,
          "vel": 118,
          "clef": "bass",
          "pitch": "B3"
        },
        {
          "midi": 53,
          "beat": 0.98,
          "dur": 0.95,
          "vel": 55,
          "clef": "bass",
          "pitch": "F3"
        },
        {
          "midi": 37,
          "beat": 1,
          "dur": 0.02,
          "vel": 87,
          "clef": "bass",
          "acc": "#",
          "pitch": "C#2"
        },
        {
          "midi": 44,
          "beat": 1,
          "dur": 0.02,
          "vel": 67,
          "clef": "bass",
          "acc": "#",
          "pitch": "G#2"
        },
        {
          "midi": 45,
          "beat": 1,
          "dur": 1.67,
          "vel": 81,
          "clef": "bass",
          "pitch": "A2"
        },
        {
          "midi": 45,
          "beat": 1,
          "dur": 0.53,
          "vel": 87,
          "clef": "bass",
          "pitch": "A2"
        },
        {
          "midi": 51,
          "beat": 1,
          "dur": 0.02,
          "vel": 76,
          "clef": "bass",
          "acc": "#",
          "pitch": "D#3"
        },
        {
          "midi": 57,
          "beat": 1,
          "dur": 0.97,
          "vel": 57,
          "clef": "bass",
          "pitch": "A3"
        },
        {
          "midi": 65,
          "beat": 1,
          "dur": 1.1,
          "vel": 122,
          "clef": "treble",
          "pitch": "F4"
        },
        {
          "midi": 43,
          "beat": 1.02,
          "dur": 0.95,
          "vel": 59,
          "clef": "bass",
          "pitch": "G2"
        },
        {
          "midi": 50,
          "beat": 1.02,
          "dur": 0.95,
          "vel": 58,
          "clef": "bass",
          "pitch": "D3"
        },
        {
          "midi": 59,
          "beat": 1.02,
          "dur": 0.95,
          "vel": 55,
          "clef": "bass",
          "pitch": "B3"
        },
        {
          "midi": 43,
          "beat": 1.62,
          "dur": 0.53,
          "vel": 90,
          "clef": "bass",
          "pitch": "G2"
        },
        {
          "midi": 55,
          "beat": 1.62,
          "dur": 0.53,
          "vel": 61,
          "clef": "bass",
          "pitch": "G3"
        },
        {
          "midi": 51,
          "beat": 1.65,
          "dur": 0.02,
          "vel": 30,
          "clef": "bass",
          "acc": "#",
          "pitch": "D#3"
        },
        {
          "midi": 67,
          "beat": 1.96,
          "dur": 0.54,
          "vel": 79,
          "clef": "treble",
          "pitch": "G4"
        },
        {
          "midi": 71,
          "beat": 1.96,
          "dur": 0.54,
          "vel": 76,
          "clef": "treble",
          "pitch": "B4"
        },
        {
          "midi": 43,
          "beat": 1.98,
          "dur": 0.95,
          "vel": 53,
          "clef": "bass",
          "pitch": "G2"
        },
        {
          "midi": 59,
          "beat": 1.98,
          "dur": 0.95,
          "vel": 53,
          "clef": "bass",
          "pitch": "B3"
        },
        {
          "midi": 46,
          "beat": 2,
          "dur": 0.53,
          "vel": 85,
          "clef": "bass",
          "acc": "#",
          "pitch": "A#2"
        },
        {
          "midi": 47,
          "beat": 2,
          "dur": 1.67,
          "vel": 82,
          "clef": "bass",
          "pitch": "B2"
        },
        {
          "midi": 51,
          "beat": 2,
          "dur": 0.02,
          "vel": 70,
          "clef": "bass",
          "acc": "#",
          "pitch": "D#3"
        },
        {
          "midi": 58,
          "beat": 2,
          "dur": 0.92,
          "vel": 59,
          "clef": "bass",
          "acc": "#",
          "pitch": "A#3"
        },
        {
          "midi": 64,
          "beat": 2,
          "dur": 1.1,
          "vel": 117,
          "clef": "treble",
          "pitch": "E4"
        },
        {
          "midi": 71,
          "beat": 2,
          "dur": 1.15,
          "vel": 114,
          "clef": "treble",
          "pitch": "B4"
        },
        {
          "midi": 53,
          "beat": 2.01,
          "dur": 0.95,
          "vel": 55,
          "clef": "bass",
          "pitch": "F3"
        },
        {
          "midi": 50,
          "beat": 2.02,
          "dur": 0.95,
          "vel": 59,
          "clef": "bass",
          "pitch": "D3"
        },
        {
          "midi": 47,
          "beat": 2.62,
          "dur": 0.53,
          "vel": 87,
          "clef": "bass",
          "pitch": "B2"
        },
        {
          "midi": 59,
          "beat": 2.62,
          "dur": 0.53,
          "vel": 62,
          "clef": "bass",
          "pitch": "B3"
        },
        {
          "midi": 55,
          "beat": 2.71,
          "dur": 0.54,
          "vel": 113,
          "clef": "bass",
          "pitch": "G3"
        },
        {
          "midi": 59,
          "beat": 2.71,
          "dur": 0.54,
          "vel": 112,
          "clef": "bass",
          "pitch": "B3"
        },
        {
          "midi": 50,
          "beat": 2.96,
          "dur": 0.95,
          "vel": 51,
          "clef": "bass",
          "pitch": "D3"
        },
        {
          "midi": 53,
          "beat": 2.96,
          "dur": 0.95,
          "vel": 58,
          "clef": "bass",
          "pitch": "F3"
        },
        {
          "midi": 37,
          "beat": 3,
          "dur": 0.02,
          "vel": 94,
          "clef": "bass",
          "acc": "#",
          "pitch": "C#2"
        },
        {
          "midi": 44,
          "beat": 3,
          "dur": 0.02,
          "vel": 70,
          "clef": "bass",
          "acc": "#",
          "pitch": "G#2"
        },
        {
          "midi": 50,
          "beat": 3,
          "dur": 1,
          "vel": 81,
          "clef": "bass",
          "pitch": "D3"
        },
        {
          "midi": 51,
          "beat": 3,
          "dur": 0.02,
          "vel": 68,
          "clef": "bass",
          "acc": "#",
          "pitch": "D#3"
        },
        {
          "midi": 62,
          "beat": 3,
          "dur": 1,
          "vel": 116,
          "clef": "treble",
          "pitch": "D4"
        },
        {
          "midi": 67,
          "beat": 3,
          "dur": 1,
          "vel": 118,
          "clef": "treble",
          "pitch": "G4"
        },
        {
          "midi": 43,
          "beat": 3.02,
          "dur": 0.95,
          "vel": 54,
          "clef": "bass",
          "pitch": "G2"
        },
        {
          "midi": 59,
          "beat": 3.02,
          "dur": 0.95,
          "vel": 58,
          "clef": "bass",
          "pitch": "B3"
        },
        {
          "midi": 60,
          "beat": 3.66,
          "dur": 0.34,
          "vel": 123,
          "clef": "treble",
          "pitch": "C4"
        },
        {
          "midi": 64,
          "beat": 3.67,
          "dur": 0.33,
          "vel": 114,
          "clef": "treble",
          "pitch": "E4"
        },
        {
          "midi": 60,
          "beat": 3.96,
          "dur": 0.04,
          "vel": 51,
          "clef": "treble",
          "pitch": "C4"
        },
        {
          "midi": 67,
          "beat": 3.96,
          "dur": 0.04,
          "vel": 83,
          "clef": "treble",
          "pitch": "G4"
        },
        {
          "midi": 72,
          "beat": 3.96,
          "dur": 0.04,
          "vel": 84,
          "clef": "treble",
          "pitch": "C5"
        },
        {
          "midi": 55,
          "beat": 3.98,
          "dur": 0.02,
          "vel": 57,
          "clef": "bass",
          "pitch": "G3"
        }
      ]
    },
    {
      "_": "Treble: 9 notes, Bass: 39 notes",
      "number": 57,
      "notes": [
        {
          "midi": 48,
          "beat": 0,
          "dur": 1.67,
          "vel": 77,
          "clef": "bass",
          "pitch": "C3"
        },
        {
          "midi": 51,
          "beat": 0,
          "dur": 0.02,
          "vel": 74,
          "clef": "bass",
          "acc": "#",
          "pitch": "D#3"
        },
        {
          "midi": 45,
          "beat": 0.02,
          "dur": 0.95,
          "vel": 58,
          "clef": "bass",
          "pitch": "A2"
        },
        {
          "midi": 52,
          "beat": 0.02,
          "dur": 0.95,
          "vel": 57,
          "clef": "bass",
          "pitch": "E3"
        },
        {
          "midi": 43,
          "beat": 0.62,
          "dur": 0.53,
          "vel": 94,
          "clef": "bass",
          "pitch": "G2"
        },
        {
          "midi": 55,
          "beat": 0.62,
          "dur": 0.53,
          "vel": 58,
          "clef": "bass",
          "pitch": "G3"
        },
        {
          "midi": 55,
          "beat": 0.71,
          "dur": 0.54,
          "vel": 114,
          "clef": "bass",
          "pitch": "G3"
        },
        {
          "midi": 60,
          "beat": 0.71,
          "dur": 0.54,
          "vel": 117,
          "clef": "treble",
          "pitch": "C4"
        },
        {
          "midi": 45,
          "beat": 0.97,
          "dur": 0.95,
          "vel": 52,
          "clef": "bass",
          "pitch": "A2"
        },
        {
          "midi": 37,
          "beat": 1,
          "dur": 0.02,
          "vel": 96,
          "clef": "bass",
          "acc": "#",
          "pitch": "C#2"
        },
        {
          "midi": 44,
          "beat": 1,
          "dur": 0.02,
          "vel": 70,
          "clef": "bass",
          "acc": "#",
          "pitch": "G#2"
        },
        {
          "midi": 48,
          "beat": 1,
          "dur": 1.67,
          "vel": 78,
          "clef": "bass",
          "pitch": "C3"
        },
        {
          "midi": 48,
          "beat": 1,
          "dur": 1.1,
          "vel": 93,
          "clef": "bass",
          "pitch": "C3"
        },
        {
          "midi": 51,
          "beat": 1,
          "dur": 0.02,
          "vel": 74,
          "clef": "bass",
          "acc": "#",
          "pitch": "D#3"
        },
        {
          "midi": 55,
          "beat": 1,
          "dur": 0.95,
          "vel": 60,
          "clef": "bass",
          "pitch": "G3"
        },
        {
          "midi": 60,
          "beat": 1,
          "dur": 1.1,
          "vel": 59,
          "clef": "treble",
          "pitch": "C4"
        },
        {
          "midi": 60,
          "beat": 1.01,
          "dur": 0.95,
          "vel": 56,
          "clef": "treble",
          "pitch": "C4"
        },
        {
          "midi": 52,
          "beat": 1.02,
          "dur": 0.95,
          "vel": 56,
          "clef": "bass",
          "pitch": "E3"
        },
        {
          "midi": 43,
          "beat": 1.63,
          "dur": 0.53,
          "vel": 91,
          "clef": "bass",
          "pitch": "G2"
        },
        {
          "midi": 55,
          "beat": 1.63,
          "dur": 0.53,
          "vel": 61,
          "clef": "bass",
          "pitch": "G3"
        },
        {
          "midi": 67,
          "beat": 1.96,
          "dur": 0.54,
          "vel": 82,
          "clef": "treble",
          "pitch": "G4"
        },
        {
          "midi": 72,
          "beat": 1.96,
          "dur": 0.54,
          "vel": 83,
          "clef": "treble",
          "pitch": "C5"
        },
        {
          "midi": 48,
          "beat": 1.98,
          "dur": 0.95,
          "vel": 55,
          "clef": "bass",
          "pitch": "C3"
        },
        {
          "midi": 46,
          "beat": 2,
          "dur": 1.1,
          "vel": 91,
          "clef": "bass",
          "acc": "#",
          "pitch": "A#2"
        },
        {
          "midi": 51,
          "beat": 2,
          "dur": 0.02,
          "vel": 67,
          "clef": "bass",
          "acc": "#",
          "pitch": "D#3"
        },
        {
          "midi": 52,
          "beat": 2,
          "dur": 1.67,
          "vel": 81,
          "clef": "bass",
          "pitch": "E3"
        },
        {
          "midi": 58,
          "beat": 2,
          "dur": 1.1,
          "vel": 65,
          "clef": "bass",
          "acc": "#",
          "pitch": "A#3"
        },
        {
          "midi": 52,
          "beat": 2,
          "dur": 0.95,
          "vel": 51,
          "clef": "bass",
          "pitch": "E3"
        },
        {
          "midi": 43,
          "beat": 2.02,
          "dur": 0.95,
          "vel": 54,
          "clef": "bass",
          "pitch": "G2"
        },
        {
          "midi": 58,
          "beat": 2.02,
          "dur": 0.95,
          "vel": 56,
          "clef": "bass",
          "acc": "#",
          "pitch": "A#3"
        },
        {
          "midi": 48,
          "beat": 2.63,
          "dur": 0.53,
          "vel": 86,
          "clef": "bass",
          "pitch": "C3"
        },
        {
          "midi": 60,
          "beat": 2.63,
          "dur": 0.53,
          "vel": 57,
          "clef": "treble",
          "pitch": "C4"
        },
        {
          "midi": 51,
          "beat": 2.65,
          "dur": 0.02,
          "vel": 27,
          "clef": "bass",
          "acc": "#",
          "pitch": "D#3"
        },
        {
          "midi": 55,
          "beat": 2.71,
          "dur": 0.54,
          "vel": 117,
          "clef": "bass",
          "pitch": "G3"
        },
        {
          "midi": 58,
          "beat": 2.71,
          "dur": 0.54,
          "vel": 113,
          "clef": "bass",
          "acc": "#",
          "pitch": "A#3"
        },
        {
          "midi": 43,
          "beat": 2.99,
          "dur": 0.95,
          "vel": 59,
          "clef": "bass",
          "pitch": "G2"
        },
        {
          "midi": 37,
          "beat": 3,
          "dur": 0.02,
          "vel": 93,
          "clef": "bass",
          "acc": "#",
          "pitch": "C#2"
        },
        {
          "midi": 44,
          "beat": 3,
          "dur": 0.02,
          "vel": 72,
          "clef": "bass",
          "acc": "#",
          "pitch": "G#2"
        },
        {
          "midi": 46,
          "beat": 3,
          "dur": 1,
          "vel": 83,
          "clef": "bass",
          "acc": "#",
          "pitch": "A#2"
        },
        {
          "midi": 48,
          "beat": 3,
          "dur": 0.95,
          "vel": 52,
          "clef": "bass",
          "pitch": "C3"
        },
        {
          "midi": 51,
          "beat": 3,
          "dur": 0.02,
          "vel": 72,
          "clef": "bass",
          "acc": "#",
          "pitch": "D#3"
        },
        {
          "midi": 52,
          "beat": 3.02,
          "dur": 0.95,
          "vel": 56,
          "clef": "bass",
          "pitch": "E3"
        },
        {
          "midi": 58,
          "beat": 3.02,
          "dur": 0.95,
          "vel": 55,
          "clef": "bass",
          "acc": "#",
          "pitch": "A#3"
        },
        {
          "midi": 69,
          "beat": 3.96,
          "dur": 0.04,
          "vel": 78,
          "clef": "treble",
          "pitch": "A4"
        },
        {
          "midi": 72,
          "beat": 3.96,
          "dur": 0.04,
          "vel": 80,
          "clef": "treble",
          "pitch": "C5"
        },
        {
          "midi": 60,
          "beat": 3.98,
          "dur": 0.02,
          "vel": 51,
          "clef": "treble",
          "pitch": "C4"
        },
        {
          "midi": 52,
          "beat": 3.98,
          "dur": 0.02,
          "vel": 52,
          "clef": "bass",
          "pitch": "E3"
        },
        {
          "midi": 53,
          "beat": 3.98,
          "dur": 0.02,
          "vel": 52,
          "clef": "bass",
          "pitch": "F3"
        }
      ]
    },
    {
      "_": "Treble: 17 notes, Bass: 36 notes",
      "number": 58,
      "notes": [
        {
          "midi": 45,
          "beat": 0,
          "dur": 1.67,
          "vel": 76,
          "clef": "bass",
          "pitch": "A2"
        },
        {
          "midi": 51,
          "beat": 0,
          "dur": 0.02,
          "vel": 76,
          "clef": "bass",
          "acc": "#",
          "pitch": "D#3"
        },
        {
          "midi": 69,
          "beat": 0,
          "dur": 1.15,
          "vel": 116,
          "clef": "treble",
          "pitch": "A4"
        },
        {
          "midi": 45,
          "beat": 0.02,
          "dur": 0.95,
          "vel": 54,
          "clef": "bass",
          "pitch": "A2"
        },
        {
          "midi": 43,
          "beat": 0.63,
          "dur": 0.53,
          "vel": 93,
          "clef": "bass",
          "pitch": "G2"
        },
        {
          "midi": 55,
          "beat": 0.63,
          "dur": 0.53,
          "vel": 57,
          "clef": "bass",
          "pitch": "G3"
        },
        {
          "midi": 53,
          "beat": 0.71,
          "dur": 0.54,
          "vel": 110,
          "clef": "bass",
          "pitch": "F3"
        },
        {
          "midi": 57,
          "beat": 0.71,
          "dur": 0.54,
          "vel": 113,
          "clef": "bass",
          "pitch": "A3"
        },
        {
          "midi": 60,
          "beat": 0.95,
          "dur": 0.95,
          "vel": 60,
          "clef": "treble",
          "pitch": "C4"
        },
        {
          "midi": 45,
          "beat": 0.98,
          "dur": 0.95,
          "vel": 60,
          "clef": "bass",
          "pitch": "A2"
        },
        {
          "midi": 37,
          "beat": 1,
          "dur": 0.02,
          "vel": 92,
          "clef": "bass",
          "acc": "#",
          "pitch": "C#2"
        },
        {
          "midi": 44,
          "beat": 1,
          "dur": 0.02,
          "vel": 74,
          "clef": "bass",
          "acc": "#",
          "pitch": "G#2"
        },
        {
          "midi": 48,
          "beat": 1,
          "dur": 1.67,
          "vel": 84,
          "clef": "bass",
          "pitch": "C3"
        },
        {
          "midi": 48,
          "beat": 1,
          "dur": 1.1,
          "vel": 90,
          "clef": "bass",
          "pitch": "C3"
        },
        {
          "midi": 51,
          "beat": 1,
          "dur": 0.02,
          "vel": 71,
          "clef": "bass",
          "acc": "#",
          "pitch": "D#3"
        },
        {
          "midi": 53,
          "beat": 1,
          "dur": 0.95,
          "vel": 59,
          "clef": "bass",
          "pitch": "F3"
        },
        {
          "midi": 60,
          "beat": 1,
          "dur": 1.1,
          "vel": 61,
          "clef": "treble",
          "pitch": "C4"
        },
        {
          "midi": 67,
          "beat": 1,
          "dur": 1.15,
          "vel": 115,
          "clef": "treble",
          "pitch": "G4"
        },
        {
          "midi": 52,
          "beat": 1.02,
          "dur": 0.95,
          "vel": 57,
          "clef": "bass",
          "pitch": "E3"
        },
        {
          "midi": 43,
          "beat": 1.62,
          "dur": 0.53,
          "vel": 91,
          "clef": "bass",
          "pitch": "G2"
        },
        {
          "midi": 55,
          "beat": 1.62,
          "dur": 0.53,
          "vel": 63,
          "clef": "bass",
          "pitch": "G3"
        },
        {
          "midi": 51,
          "beat": 1.65,
          "dur": 0.02,
          "vel": 26,
          "clef": "bass",
          "acc": "#",
          "pitch": "D#3"
        },
        {
          "midi": 65,
          "beat": 1.67,
          "dur": 1.15,
          "vel": 121,
          "clef": "treble",
          "pitch": "F4"
        },
        {
          "midi": 53,
          "beat": 1.95,
          "dur": 0.95,
          "vel": 51,
          "clef": "bass",
          "pitch": "F3"
        },
        {
          "midi": 69,
          "beat": 1.96,
          "dur": 0.54,
          "vel": 78,
          "clef": "treble",
          "pitch": "A4"
        },
        {
          "midi": 72,
          "beat": 1.96,
          "dur": 0.54,
          "vel": 83,
          "clef": "treble",
          "pitch": "C5"
        },
        {
          "midi": 60,
          "beat": 1.99,
          "dur": 0.95,
          "vel": 60,
          "clef": "treble",
          "pitch": "C4"
        },
        {
          "midi": 45,
          "beat": 2,
          "dur": 1.67,
          "vel": 76,
          "clef": "bass",
          "pitch": "A2"
        },
        {
          "midi": 45,
          "beat": 2,
          "dur": 0.95,
          "vel": 52,
          "clef": "bass",
          "pitch": "A2"
        },
        {
          "midi": 50,
          "beat": 2,
          "dur": 0.53,
          "vel": 91,
          "clef": "bass",
          "pitch": "D3"
        },
        {
          "midi": 51,
          "beat": 2,
          "dur": 0.02,
          "vel": 76,
          "clef": "bass",
          "acc": "#",
          "pitch": "D#3"
        },
        {
          "midi": 62,
          "beat": 2,
          "dur": 0.53,
          "vel": 61,
          "clef": "treble",
          "pitch": "D4"
        },
        {
          "midi": 52,
          "beat": 2.02,
          "dur": 0.95,
          "vel": 54,
          "clef": "bass",
          "pitch": "E3"
        },
        {
          "midi": 48,
          "beat": 2.62,
          "dur": 0.53,
          "vel": 90,
          "clef": "bass",
          "pitch": "C3"
        },
        {
          "midi": 60,
          "beat": 2.62,
          "dur": 0.53,
          "vel": 57,
          "clef": "treble",
          "pitch": "C4"
        },
        {
          "midi": 64,
          "beat": 2.67,
          "dur": 1.15,
          "vel": 121,
          "clef": "treble",
          "pitch": "E4"
        },
        {
          "midi": 57,
          "beat": 2.71,
          "dur": 0.54,
          "vel": 115,
          "clef": "bass",
          "pitch": "A3"
        },
        {
          "midi": 60,
          "beat": 2.71,
          "dur": 0.54,
          "vel": 118,
          "clef": "treble",
          "pitch": "C4"
        },
        {
          "midi": 53,
          "beat": 2.96,
          "dur": 0.95,
          "vel": 59,
          "clef": "bass",
          "pitch": "F3"
        },
        {
          "midi": 60,
          "beat": 2.99,
          "dur": 0.95,
          "vel": 56,
          "clef": "treble",
          "pitch": "C4"
        },
        {
          "midi": 37,
          "beat": 3,
          "dur": 0.02,
          "vel": 95,
          "clef": "bass",
          "acc": "#",
          "pitch": "C#2"
        },
        {
          "midi": 41,
          "beat": 3,
          "dur": 1,
          "vel": 82,
          "clef": "bass",
          "pitch": "F2"
        },
        {
          "midi": 44,
          "beat": 3,
          "dur": 0.02,
          "vel": 68,
          "clef": "bass",
          "acc": "#",
          "pitch": "G#2"
        },
        {
          "midi": 51,
          "beat": 3,
          "dur": 0.02,
          "vel": 72,
          "clef": "bass",
          "acc": "#",
          "pitch": "D#3"
        },
        {
          "midi": 45,
          "beat": 3.02,
          "dur": 0.95,
          "vel": 57,
          "clef": "bass",
          "pitch": "A2"
        },
        {
          "midi": 52,
          "beat": 3.02,
          "dur": 0.95,
          "vel": 54,
          "clef": "bass",
          "pitch": "E3"
        },
        {
          "midi": 35,
          "beat": 3.65,
          "dur": 0.02,
          "vel": 76,
          "clef": "bass",
          "pitch": "B1"
        },
        {
          "midi": 51,
          "beat": 3.65,
          "dur": 0.02,
          "vel": 32,
          "clef": "bass",
          "acc": "#",
          "pitch": "D#3"
        },
        {
          "midi": 62,
          "beat": 3.67,
          "dur": 0.33,
          "vel": 118,
          "clef": "treble",
          "pitch": "D4"
        },
        {
          "midi": 71,
          "beat": 3.96,
          "dur": 0.04,
          "vel": 82,
          "clef": "treble",
          "pitch": "B4"
        },
        {
          "midi": 74,
          "beat": 3.96,
          "dur": 0.04,
          "vel": 82,
          "clef": "treble",
          "pitch": "D5"
        },
        {
          "midi": 62,
          "beat": 3.97,
          "dur": 0.03,
          "vel": 57,
          "clef": "treble",
          "pitch": "D4"
        },
        {
          "midi": 57,
          "beat": 3.99,
          "dur": 0.01,
          "vel": 59,
          "clef": "bass",
          "pitch": "A3"
        }
      ]
    },
    {
      "_": "Treble: 16 notes, Bass: 34 notes",
      "number": 59,
      "notes": [
        {
          "midi": 47,
          "beat": 0,
          "dur": 1.67,
          "vel": 78,
          "clef": "bass",
          "pitch": "B2"
        },
        {
          "midi": 51,
          "beat": 0,
          "dur": 0.02,
          "vel": 69,
          "clef": "bass",
          "acc": "#",
          "pitch": "D#3"
        },
        {
          "midi": 53,
          "beat": 0,
          "dur": 0.95,
          "vel": 58,
          "clef": "bass",
          "pitch": "F3"
        },
        {
          "midi": 47,
          "beat": 0.02,
          "dur": 0.95,
          "vel": 56,
          "clef": "bass",
          "pitch": "B2"
        },
        {
          "midi": 45,
          "beat": 0.62,
          "dur": 0.53,
          "vel": 91,
          "clef": "bass",
          "pitch": "A2"
        },
        {
          "midi": 57,
          "beat": 0.62,
          "dur": 0.53,
          "vel": 62,
          "clef": "bass",
          "pitch": "A3"
        },
        {
          "midi": 64,
          "beat": 0.67,
          "dur": 1.15,
          "vel": 112,
          "clef": "treble",
          "pitch": "E4"
        },
        {
          "midi": 59,
          "beat": 0.71,
          "dur": 0.54,
          "vel": 113,
          "clef": "bass",
          "pitch": "B3"
        },
        {
          "midi": 62,
          "beat": 0.71,
          "dur": 0.54,
          "vel": 111,
          "clef": "treble",
          "pitch": "D4"
        },
        {
          "midi": 53,
          "beat": 0.94,
          "dur": 0.95,
          "vel": 52,
          "clef": "bass",
          "pitch": "F3"
        },
        {
          "midi": 47,
          "beat": 0.98,
          "dur": 0.95,
          "vel": 53,
          "clef": "bass",
          "pitch": "B2"
        },
        {
          "midi": 37,
          "beat": 1,
          "dur": 0.02,
          "vel": 88,
          "clef": "bass",
          "acc": "#",
          "pitch": "C#2"
        },
        {
          "midi": 44,
          "beat": 1,
          "dur": 0.02,
          "vel": 72,
          "clef": "bass",
          "acc": "#",
          "pitch": "G#2"
        },
        {
          "midi": 47,
          "beat": 1,
          "dur": 1.67,
          "vel": 82,
          "clef": "bass",
          "pitch": "B2"
        },
        {
          "midi": 50,
          "beat": 1,
          "dur": 1.1,
          "vel": 91,
          "clef": "bass",
          "pitch": "D3"
        },
        {
          "midi": 51,
          "beat": 1,
          "dur": 0.02,
          "vel": 69,
          "clef": "bass",
          "acc": "#",
          "pitch": "D#3"
        },
        {
          "midi": 62,
          "beat": 1,
          "dur": 1.1,
          "vel": 64,
          "clef": "treble",
          "pitch": "D4"
        },
        {
          "midi": 57,
          "beat": 1,
          "dur": 0.95,
          "vel": 58,
          "clef": "bass",
          "pitch": "A3"
        },
        {
          "midi": 62,
          "beat": 1.01,
          "dur": 0.95,
          "vel": 51,
          "clef": "treble",
          "pitch": "D4"
        },
        {
          "midi": 45,
          "beat": 1.62,
          "dur": 0.53,
          "vel": 93,
          "clef": "bass",
          "pitch": "A2"
        },
        {
          "midi": 57,
          "beat": 1.62,
          "dur": 0.53,
          "vel": 65,
          "clef": "bass",
          "pitch": "A3"
        },
        {
          "midi": 65,
          "beat": 1.67,
          "dur": 1.72,
          "vel": 117,
          "clef": "treble",
          "pitch": "F4"
        },
        {
          "midi": 62,
          "beat": 1.95,
          "dur": 0.95,
          "vel": 60,
          "clef": "treble",
          "pitch": "D4"
        },
        {
          "midi": 71,
          "beat": 1.96,
          "dur": 0.54,
          "vel": 78,
          "clef": "treble",
          "pitch": "B4"
        },
        {
          "midi": 74,
          "beat": 1.96,
          "dur": 0.54,
          "vel": 78,
          "clef": "treble",
          "pitch": "D5"
        },
        {
          "midi": 44,
          "beat": 2,
          "dur": 1.67,
          "vel": 80,
          "clef": "bass",
          "acc": "#",
          "pitch": "G#2"
        },
        {
          "midi": 51,
          "beat": 2,
          "dur": 0.02,
          "vel": 71,
          "clef": "bass",
          "acc": "#",
          "pitch": "D#3"
        },
        {
          "midi": 51,
          "beat": 2,
          "dur": 0.53,
          "vel": 92,
          "clef": "bass",
          "acc": "#",
          "pitch": "D#3"
        },
        {
          "midi": 56,
          "beat": 2,
          "dur": 0.95,
          "vel": 60,
          "clef": "bass",
          "acc": "#",
          "pitch": "G#3"
        },
        {
          "midi": 63,
          "beat": 2,
          "dur": 0.53,
          "vel": 59,
          "clef": "treble",
          "acc": "#",
          "pitch": "D#4"
        },
        {
          "midi": 53,
          "beat": 2.01,
          "dur": 0.95,
          "vel": 59,
          "clef": "bass",
          "pitch": "F3"
        },
        {
          "midi": 47,
          "beat": 2.02,
          "dur": 0.95,
          "vel": 56,
          "clef": "bass",
          "pitch": "B2"
        },
        {
          "midi": 50,
          "beat": 2.62,
          "dur": 0.53,
          "vel": 88,
          "clef": "bass",
          "pitch": "D3"
        },
        {
          "midi": 62,
          "beat": 2.62,
          "dur": 0.53,
          "vel": 65,
          "clef": "treble",
          "pitch": "D4"
        },
        {
          "midi": 59,
          "beat": 2.71,
          "dur": 0.54,
          "vel": 115,
          "clef": "bass",
          "pitch": "B3"
        },
        {
          "midi": 62,
          "beat": 2.71,
          "dur": 0.54,
          "vel": 114,
          "clef": "treble",
          "pitch": "D4"
        },
        {
          "midi": 53,
          "beat": 2.96,
          "dur": 0.95,
          "vel": 56,
          "clef": "bass",
          "pitch": "F3"
        },
        {
          "midi": 62,
          "beat": 2.97,
          "dur": 0.95,
          "vel": 57,
          "clef": "treble",
          "pitch": "D4"
        },
        {
          "midi": 37,
          "beat": 3,
          "dur": 0.02,
          "vel": 87,
          "clef": "bass",
          "acc": "#",
          "pitch": "C#2"
        },
        {
          "midi": 44,
          "beat": 3,
          "dur": 0.02,
          "vel": 71,
          "clef": "bass",
          "acc": "#",
          "pitch": "G#2"
        },
        {
          "midi": 44,
          "beat": 3,
          "dur": 1,
          "vel": 83,
          "clef": "bass",
          "acc": "#",
          "pitch": "G#2"
        },
        {
          "midi": 51,
          "beat": 3,
          "dur": 0.02,
          "vel": 67,
          "clef": "bass",
          "acc": "#",
          "pitch": "D#3"
        },
        {
          "midi": 69,
          "beat": 3,
          "dur": 1,
          "vel": 113,
          "clef": "treble",
          "pitch": "A4"
        },
        {
          "midi": 47,
          "beat": 3.02,
          "dur": 0.95,
          "vel": 58,
          "clef": "bass",
          "pitch": "B2"
        },
        {
          "midi": 56,
          "beat": 3.02,
          "dur": 0.95,
          "vel": 58,
          "clef": "bass",
          "acc": "#",
          "pitch": "G#3"
        },
        {
          "midi": 35,
          "beat": 3.65,
          "dur": 0.02,
          "vel": 78,
          "clef": "bass",
          "pitch": "B1"
        },
        {
          "midi": 68,
          "beat": 3.67,
          "dur": 0.33,
          "vel": 117,
          "clef": "treble",
          "acc": "#",
          "pitch": "G#4"
        },
        {
          "midi": 68,
          "beat": 3.96,
          "dur": 0.04,
          "vel": 83,
          "clef": "treble",
          "acc": "#",
          "pitch": "G#4"
        },
        {
          "midi": 71,
          "beat": 3.96,
          "dur": 0.04,
          "vel": 81,
          "clef": "treble",
          "pitch": "B4"
        },
        {
          "midi": 56,
          "beat": 3.97,
          "dur": 0.03,
          "vel": 59,
          "clef": "bass",
          "acc": "#",
          "pitch": "G#3"
        }
      ]
    },
    {
      "_": "Treble: 17 notes, Bass: 42 notes",
      "number": 60,
      "notes": [
        {
          "midi": 40,
          "beat": 0,
          "dur": 1.67,
          "vel": 81,
          "clef": "bass",
          "pitch": "E2"
        },
        {
          "midi": 51,
          "beat": 0,
          "dur": 0.02,
          "vel": 69,
          "clef": "bass",
          "acc": "#",
          "pitch": "D#3"
        },
        {
          "midi": 53,
          "beat": 0.01,
          "dur": 0.95,
          "vel": 56,
          "clef": "bass",
          "pitch": "F3"
        },
        {
          "midi": 47,
          "beat": 0.02,
          "dur": 0.95,
          "vel": 54,
          "clef": "bass",
          "pitch": "B2"
        },
        {
          "midi": 62,
          "beat": 0.02,
          "dur": 0.95,
          "vel": 54,
          "clef": "treble",
          "pitch": "D4"
        },
        {
          "midi": 52,
          "beat": 0.62,
          "dur": 1.67,
          "vel": 92,
          "clef": "bass",
          "pitch": "E3"
        },
        {
          "midi": 64,
          "beat": 0.62,
          "dur": 1.67,
          "vel": 58,
          "clef": "treble",
          "pitch": "E4"
        },
        {
          "midi": 64,
          "beat": 0.66,
          "dur": 1.67,
          "vel": 97,
          "clef": "treble",
          "pitch": "E4"
        },
        {
          "midi": 56,
          "beat": 0.71,
          "dur": 0.54,
          "vel": 117,
          "clef": "bass",
          "acc": "#",
          "pitch": "G#3"
        },
        {
          "midi": 62,
          "beat": 0.71,
          "dur": 0.54,
          "vel": 111,
          "clef": "treble",
          "pitch": "D4"
        },
        {
          "midi": 37,
          "beat": 1,
          "dur": 0.02,
          "vel": 90,
          "clef": "bass",
          "acc": "#",
          "pitch": "C#2"
        },
        {
          "midi": 40,
          "beat": 1,
          "dur": 1.67,
          "vel": 85,
          "clef": "bass",
          "pitch": "E2"
        },
        {
          "midi": 44,
          "beat": 1,
          "dur": 0.02,
          "vel": 70,
          "clef": "bass",
          "acc": "#",
          "pitch": "G#2"
        },
        {
          "midi": 47,
          "beat": 1,
          "dur": 0.95,
          "vel": 52,
          "clef": "bass",
          "pitch": "B2"
        },
        {
          "midi": 51,
          "beat": 1,
          "dur": 0.02,
          "vel": 76,
          "clef": "bass",
          "acc": "#",
          "pitch": "D#3"
        },
        {
          "midi": 53,
          "beat": 1,
          "dur": 0.95,
          "vel": 59,
          "clef": "bass",
          "pitch": "F3"
        },
        {
          "midi": 56,
          "beat": 1,
          "dur": 0.95,
          "vel": 60,
          "clef": "bass",
          "acc": "#",
          "pitch": "G#3"
        },
        {
          "midi": 62,
          "beat": 1.02,
          "dur": 0.95,
          "vel": 54,
          "clef": "treble",
          "pitch": "D4"
        },
        {
          "midi": 46,
          "beat": 1.62,
          "dur": 0.53,
          "vel": 89,
          "clef": "bass",
          "acc": "#",
          "pitch": "A#2"
        },
        {
          "midi": 51,
          "beat": 1.65,
          "dur": 0.02,
          "vel": 33,
          "clef": "bass",
          "acc": "#",
          "pitch": "D#3"
        },
        {
          "midi": 58,
          "beat": 1.67,
          "dur": 0.27,
          "vel": 101,
          "clef": "bass",
          "acc": "#",
          "pitch": "A#3"
        },
        {
          "midi": 58,
          "beat": 1.67,
          "dur": 0.17,
          "vel": 63,
          "clef": "bass",
          "acc": "#",
          "pitch": "A#3"
        },
        {
          "midi": 45,
          "beat": 1.83,
          "dur": 0.53,
          "vel": 89,
          "clef": "bass",
          "pitch": "A2"
        },
        {
          "midi": 57,
          "beat": 1.83,
          "dur": 0.22,
          "vel": 58,
          "clef": "bass",
          "pitch": "A3"
        },
        {
          "midi": 57,
          "beat": 1.88,
          "dur": 0.22,
          "vel": 98,
          "clef": "bass",
          "pitch": "A3"
        },
        {
          "midi": 47,
          "beat": 1.96,
          "dur": 0.95,
          "vel": 52,
          "clef": "bass",
          "pitch": "B2"
        },
        {
          "midi": 68,
          "beat": 1.96,
          "dur": 0.54,
          "vel": 80,
          "clef": "treble",
          "acc": "#",
          "pitch": "G#4"
        },
        {
          "midi": 71,
          "beat": 1.96,
          "dur": 0.54,
          "vel": 83,
          "clef": "treble",
          "pitch": "B4"
        },
        {
          "midi": 35,
          "beat": 2,
          "dur": 1.67,
          "vel": 84,
          "clef": "bass",
          "pitch": "B1"
        },
        {
          "midi": 43,
          "beat": 2,
          "dur": 1.1,
          "vel": 88,
          "clef": "bass",
          "pitch": "G2"
        },
        {
          "midi": 51,
          "beat": 2,
          "dur": 0.02,
          "vel": 72,
          "clef": "bass",
          "acc": "#",
          "pitch": "D#3"
        },
        {
          "midi": 55,
          "beat": 2,
          "dur": 1.1,
          "vel": 100,
          "clef": "bass",
          "pitch": "G3"
        },
        {
          "midi": 55,
          "beat": 2,
          "dur": 1.1,
          "vel": 63,
          "clef": "bass",
          "pitch": "G3"
        },
        {
          "midi": 65,
          "beat": 2,
          "dur": 1.15,
          "vel": 121,
          "clef": "treble",
          "pitch": "F4"
        },
        {
          "midi": 53,
          "beat": 2.01,
          "dur": 0.95,
          "vel": 57,
          "clef": "bass",
          "pitch": "F3"
        },
        {
          "midi": 56,
          "beat": 2.02,
          "dur": 0.95,
          "vel": 56,
          "clef": "bass",
          "acc": "#",
          "pitch": "G#3"
        },
        {
          "midi": 62,
          "beat": 2.02,
          "dur": 0.95,
          "vel": 55,
          "clef": "treble",
          "pitch": "D4"
        },
        {
          "midi": 45,
          "beat": 2.63,
          "dur": 0.53,
          "vel": 88,
          "clef": "bass",
          "pitch": "A2"
        },
        {
          "midi": 57,
          "beat": 2.63,
          "dur": 0.53,
          "vel": 64,
          "clef": "bass",
          "pitch": "A3"
        },
        {
          "midi": 57,
          "beat": 2.66,
          "dur": 0.53,
          "vel": 96,
          "clef": "bass",
          "pitch": "A3"
        },
        {
          "midi": 64,
          "beat": 2.67,
          "dur": 1.15,
          "vel": 119,
          "clef": "treble",
          "pitch": "E4"
        },
        {
          "midi": 56,
          "beat": 2.71,
          "dur": 0.54,
          "vel": 109,
          "clef": "bass",
          "acc": "#",
          "pitch": "G#3"
        },
        {
          "midi": 62,
          "beat": 2.71,
          "dur": 0.54,
          "vel": 112,
          "clef": "treble",
          "pitch": "D4"
        },
        {
          "midi": 47,
          "beat": 2.94,
          "dur": 0.95,
          "vel": 53,
          "clef": "bass",
          "pitch": "B2"
        },
        {
          "midi": 53,
          "beat": 2.99,
          "dur": 0.95,
          "vel": 51,
          "clef": "bass",
          "pitch": "F3"
        },
        {
          "midi": 35,
          "beat": 3,
          "dur": 1,
          "vel": 81,
          "clef": "bass",
          "pitch": "B1"
        },
        {
          "midi": 37,
          "beat": 3,
          "dur": 0.02,
          "vel": 96,
          "clef": "bass",
          "acc": "#",
          "pitch": "C#2"
        },
        {
          "midi": 44,
          "beat": 3,
          "dur": 0.02,
          "vel": 68,
          "clef": "bass",
          "acc": "#",
          "pitch": "G#2"
        },
        {
          "midi": 51,
          "beat": 3,
          "dur": 0.02,
          "vel": 68,
          "clef": "bass",
          "acc": "#",
          "pitch": "D#3"
        },
        {
          "midi": 56,
          "beat": 3,
          "dur": 0.95,
          "vel": 52,
          "clef": "bass",
          "acc": "#",
          "pitch": "G#3"
        },
        {
          "midi": 62,
          "beat": 3.02,
          "dur": 0.95,
          "vel": 59,
          "clef": "treble",
          "pitch": "D4"
        },
        {
          "midi": 62,
          "beat": 3.33,
          "dur": 0.67,
          "vel": 120,
          "clef": "treble",
          "pitch": "D4"
        },
        {
          "midi": 52,
          "beat": 3.63,
          "dur": 0.37,
          "vel": 91,
          "clef": "bass",
          "pitch": "E3"
        },
        {
          "midi": 64,
          "beat": 3.63,
          "dur": 0.37,
          "vel": 61,
          "clef": "treble",
          "pitch": "E4"
        },
        {
          "midi": 35,
          "beat": 3.65,
          "dur": 0.02,
          "vel": 75,
          "clef": "bass",
          "pitch": "B1"
        },
        {
          "midi": 64,
          "beat": 3.66,
          "dur": 0.34,
          "vel": 97,
          "clef": "treble",
          "pitch": "E4"
        },
        {
          "midi": 69,
          "beat": 3.96,
          "dur": 0.04,
          "vel": 76,
          "clef": "treble",
          "pitch": "A4"
        },
        {
          "midi": 72,
          "beat": 3.96,
          "dur": 0.04,
          "vel": 81,
          "clef": "treble",
          "pitch": "C5"
        },
        {
          "midi": 52,
          "beat": 3.97,
          "dur": 0.03,
          "vel": 51,
          "clef": "bass",
          "pitch": "E3"
        }
      ]
    },
    {
      "_": "Treble: 14 notes, Bass: 44 notes",
      "number": 61,
      "notes": [
        {
          "midi": 33,
          "beat": 0,
          "dur": 1.67,
          "vel": 84,
          "clef": "bass",
          "pitch": "A1"
        },
        {
          "midi": 45,
          "beat": 0,
          "dur": 0.95,
          "vel": 59,
          "clef": "bass",
          "pitch": "A2"
        },
        {
          "midi": 51,
          "beat": 0,
          "dur": 0.02,
          "vel": 68,
          "clef": "bass",
          "acc": "#",
          "pitch": "D#3"
        },
        {
          "midi": 60,
          "beat": 0,
          "dur": 3.45,
          "vel": 117,
          "clef": "treble",
          "pitch": "C4"
        },
        {
          "midi": 60,
          "beat": 0.01,
          "dur": 0.95,
          "vel": 54,
          "clef": "treble",
          "pitch": "C4"
        },
        {
          "midi": 55,
          "beat": 0.02,
          "dur": 0.95,
          "vel": 59,
          "clef": "bass",
          "pitch": "G3"
        },
        {
          "midi": 47,
          "beat": 0.67,
          "dur": 0.53,
          "vel": 94,
          "clef": "bass",
          "pitch": "B2"
        },
        {
          "midi": 59,
          "beat": 0.67,
          "dur": 0.22,
          "vel": 95,
          "clef": "bass",
          "pitch": "B3"
        },
        {
          "midi": 59,
          "beat": 0.67,
          "dur": 0.27,
          "vel": 59,
          "clef": "bass",
          "pitch": "B3"
        },
        {
          "midi": 57,
          "beat": 0.71,
          "dur": 0.54,
          "vel": 116,
          "clef": "bass",
          "pitch": "A3"
        },
        {
          "midi": 60,
          "beat": 0.71,
          "dur": 0.54,
          "vel": 111,
          "clef": "treble",
          "pitch": "C4"
        },
        {
          "midi": 46,
          "beat": 0.83,
          "dur": 0.53,
          "vel": 87,
          "clef": "bass",
          "acc": "#",
          "pitch": "A#2"
        },
        {
          "midi": 58,
          "beat": 0.83,
          "dur": 0.33,
          "vel": 62,
          "clef": "bass",
          "acc": "#",
          "pitch": "A#3"
        },
        {
          "midi": 58,
          "beat": 0.85,
          "dur": 0.33,
          "vel": 94,
          "clef": "bass",
          "acc": "#",
          "pitch": "A#3"
        },
        {
          "midi": 60,
          "beat": 0.95,
          "dur": 0.95,
          "vel": 60,
          "clef": "treble",
          "pitch": "C4"
        },
        {
          "midi": 52,
          "beat": 0.96,
          "dur": 0.95,
          "vel": 52,
          "clef": "bass",
          "pitch": "E3"
        },
        {
          "midi": 45,
          "beat": 0.98,
          "dur": 0.95,
          "vel": 55,
          "clef": "bass",
          "pitch": "A2"
        },
        {
          "midi": 33,
          "beat": 1,
          "dur": 1.67,
          "vel": 81,
          "clef": "bass",
          "pitch": "A1"
        },
        {
          "midi": 37,
          "beat": 1,
          "dur": 0.02,
          "vel": 91,
          "clef": "bass",
          "acc": "#",
          "pitch": "C#2"
        },
        {
          "midi": 44,
          "beat": 1,
          "dur": 0.02,
          "vel": 70,
          "clef": "bass",
          "acc": "#",
          "pitch": "G#2"
        },
        {
          "midi": 45,
          "beat": 1,
          "dur": 1.1,
          "vel": 86,
          "clef": "bass",
          "pitch": "A2"
        },
        {
          "midi": 51,
          "beat": 1,
          "dur": 0.02,
          "vel": 76,
          "clef": "bass",
          "acc": "#",
          "pitch": "D#3"
        },
        {
          "midi": 57,
          "beat": 1,
          "dur": 1.1,
          "vel": 94,
          "clef": "bass",
          "pitch": "A3"
        },
        {
          "midi": 57,
          "beat": 1,
          "dur": 1.1,
          "vel": 56,
          "clef": "bass",
          "pitch": "A3"
        },
        {
          "midi": 55,
          "beat": 1.02,
          "dur": 0.95,
          "vel": 55,
          "clef": "bass",
          "pitch": "G3"
        },
        {
          "midi": 48,
          "beat": 1.62,
          "dur": 0.53,
          "vel": 88,
          "clef": "bass",
          "pitch": "C3"
        },
        {
          "midi": 60,
          "beat": 1.62,
          "dur": 0.53,
          "vel": 59,
          "clef": "treble",
          "pitch": "C4"
        },
        {
          "midi": 60,
          "beat": 1.66,
          "dur": 0.53,
          "vel": 101,
          "clef": "treble",
          "pitch": "C4"
        },
        {
          "midi": 55,
          "beat": 1.96,
          "dur": 0.95,
          "vel": 60,
          "clef": "bass",
          "pitch": "G3"
        },
        {
          "midi": 67,
          "beat": 1.96,
          "dur": 0.54,
          "vel": 82,
          "clef": "treble",
          "pitch": "G4"
        },
        {
          "midi": 73,
          "beat": 1.96,
          "dur": 0.54,
          "vel": 75,
          "clef": "treble",
          "acc": "#",
          "pitch": "C#5"
        },
        {
          "midi": 61,
          "beat": 1.98,
          "dur": 0.95,
          "vel": 59,
          "clef": "treble",
          "acc": "#",
          "pitch": "C#4"
        },
        {
          "midi": 40,
          "beat": 2,
          "dur": 1.67,
          "vel": 76,
          "clef": "bass",
          "pitch": "E2"
        },
        {
          "midi": 46,
          "beat": 2,
          "dur": 0.95,
          "vel": 58,
          "clef": "bass",
          "acc": "#",
          "pitch": "A#2"
        },
        {
          "midi": 51,
          "beat": 2,
          "dur": 0.02,
          "vel": 70,
          "clef": "bass",
          "acc": "#",
          "pitch": "D#3"
        },
        {
          "midi": 52,
          "beat": 2.02,
          "dur": 0.95,
          "vel": 58,
          "clef": "bass",
          "pitch": "E3"
        },
        {
          "midi": 51,
          "beat": 2.65,
          "dur": 0.02,
          "vel": 33,
          "clef": "bass",
          "acc": "#",
          "pitch": "D#3"
        },
        {
          "midi": 55,
          "beat": 2.92,
          "dur": 1.08,
          "vel": 111,
          "clef": "bass",
          "pitch": "G3"
        },
        {
          "midi": 58,
          "beat": 2.92,
          "dur": 1.08,
          "vel": 112,
          "clef": "bass",
          "acc": "#",
          "pitch": "A#3"
        },
        {
          "midi": 55,
          "beat": 2.98,
          "dur": 0.95,
          "vel": 54,
          "clef": "bass",
          "pitch": "G3"
        },
        {
          "midi": 52,
          "beat": 2.98,
          "dur": 0.95,
          "vel": 53,
          "clef": "bass",
          "pitch": "E3"
        },
        {
          "midi": 37,
          "beat": 3,
          "dur": 0.02,
          "vel": 87,
          "clef": "bass",
          "acc": "#",
          "pitch": "C#2"
        },
        {
          "midi": 37,
          "beat": 3,
          "dur": 1,
          "vel": 84,
          "clef": "bass",
          "acc": "#",
          "pitch": "C#2"
        },
        {
          "midi": 44,
          "beat": 3,
          "dur": 0.02,
          "vel": 72,
          "clef": "bass",
          "acc": "#",
          "pitch": "G#2"
        },
        {
          "midi": 51,
          "beat": 3,
          "dur": 0.02,
          "vel": 67,
          "clef": "bass",
          "acc": "#",
          "pitch": "D#3"
        },
        {
          "midi": 46,
          "beat": 3.02,
          "dur": 0.95,
          "vel": 56,
          "clef": "bass",
          "acc": "#",
          "pitch": "A#2"
        },
        {
          "midi": 61,
          "beat": 3.02,
          "dur": 0.95,
          "vel": 55,
          "clef": "treble",
          "acc": "#",
          "pitch": "C#4"
        },
        {
          "midi": 38,
          "beat": 3.62,
          "dur": 0.38,
          "vel": 88,
          "clef": "bass",
          "pitch": "D2"
        },
        {
          "midi": 53,
          "beat": 3.62,
          "dur": 0.38,
          "vel": 115,
          "clef": "bass",
          "pitch": "F3"
        },
        {
          "midi": 57,
          "beat": 3.62,
          "dur": 0.38,
          "vel": 118,
          "clef": "bass",
          "pitch": "A3"
        },
        {
          "midi": 57,
          "beat": 3.62,
          "dur": 0.38,
          "vel": 64,
          "clef": "bass",
          "pitch": "A3"
        },
        {
          "midi": 65,
          "beat": 3.62,
          "dur": 0.38,
          "vel": 79,
          "clef": "treble",
          "pitch": "F4"
        },
        {
          "midi": 74,
          "beat": 3.62,
          "dur": 0.38,
          "vel": 81,
          "clef": "treble",
          "pitch": "D5"
        },
        {
          "midi": 53,
          "beat": 3.66,
          "dur": 0.34,
          "vel": 95,
          "clef": "bass",
          "pitch": "F3"
        },
        {
          "midi": 62,
          "beat": 3.66,
          "dur": 0.34,
          "vel": 98,
          "clef": "treble",
          "pitch": "D4"
        },
        {
          "midi": 61,
          "beat": 3.67,
          "dur": 0.33,
          "vel": 120,
          "clef": "treble",
          "acc": "#",
          "pitch": "C#4"
        },
        {
          "midi": 53,
          "beat": 3.98,
          "dur": 0.02,
          "vel": 52,
          "clef": "bass",
          "pitch": "F3"
        },
        {
          "midi": 57,
          "beat": 3.99,
          "dur": 0.01,
          "vel": 58,
          "clef": "bass",
          "pitch": "A3"
        }
      ]
    },
    {
      "_": "Treble: 32 notes, Bass: 45 notes",
      "number": 62,
      "notes": [
        {
          "midi": 35,
          "beat": 0,
          "dur": 0.02,
          "vel": 120,
          "clef": "bass",
          "pitch": "B1"
        },
        {
          "midi": 38,
          "beat": 0,
          "dur": 1.67,
          "vel": 78,
          "clef": "bass",
          "pitch": "D2"
        },
        {
          "midi": 51,
          "beat": 0,
          "dur": 0.02,
          "vel": 73,
          "clef": "bass",
          "acc": "#",
          "pitch": "D#3"
        },
        {
          "midi": 62,
          "beat": 0,
          "dur": 1.15,
          "vel": 115,
          "clef": "treble",
          "pitch": "D4"
        },
        {
          "midi": 48,
          "beat": 0.02,
          "dur": 0.95,
          "vel": 58,
          "clef": "bass",
          "pitch": "C3"
        },
        {
          "midi": 62,
          "beat": 0.02,
          "dur": 0.95,
          "vel": 58,
          "clef": "treble",
          "pitch": "D4"
        },
        {
          "midi": 69,
          "beat": 0.67,
          "dur": 0.57,
          "vel": 113,
          "clef": "treble",
          "pitch": "A4"
        },
        {
          "midi": 40,
          "beat": 0.76,
          "dur": 0.02,
          "vel": 102,
          "clef": "bass",
          "pitch": "E2"
        },
        {
          "midi": 40,
          "beat": 0.84,
          "dur": 0.02,
          "vel": 101,
          "clef": "bass",
          "pitch": "E2"
        },
        {
          "midi": 40,
          "beat": 0.93,
          "dur": 0.02,
          "vel": 101,
          "clef": "bass",
          "pitch": "E2"
        },
        {
          "midi": 57,
          "beat": 0.96,
          "dur": 0.95,
          "vel": 53,
          "clef": "bass",
          "pitch": "A3"
        },
        {
          "midi": 62,
          "beat": 0.97,
          "dur": 0.95,
          "vel": 60,
          "clef": "treble",
          "pitch": "D4"
        },
        {
          "midi": 44,
          "beat": 0.98,
          "dur": 0.02,
          "vel": 69,
          "clef": "bass",
          "acc": "#",
          "pitch": "G#2"
        },
        {
          "midi": 40,
          "beat": 1,
          "dur": 1.67,
          "vel": 85,
          "clef": "bass",
          "pitch": "E2"
        },
        {
          "midi": 51,
          "beat": 1,
          "dur": 0.02,
          "vel": 74,
          "clef": "bass",
          "acc": "#",
          "pitch": "D#3"
        },
        {
          "midi": 53,
          "beat": 1.01,
          "dur": 0.95,
          "vel": 55,
          "clef": "bass",
          "pitch": "F3"
        },
        {
          "midi": 48,
          "beat": 1.01,
          "dur": 0.95,
          "vel": 51,
          "clef": "bass",
          "pitch": "C3"
        },
        {
          "midi": 40,
          "beat": 1.01,
          "dur": 0.02,
          "vel": 102,
          "clef": "bass",
          "pitch": "E2"
        },
        {
          "midi": 26,
          "beat": 1.62,
          "dur": 1.67,
          "vel": 85,
          "clef": "bass",
          "pitch": "D1"
        },
        {
          "midi": 50,
          "beat": 1.62,
          "dur": 1.69,
          "vel": 118,
          "clef": "bass",
          "pitch": "D3"
        },
        {
          "midi": 60,
          "beat": 1.62,
          "dur": 1.69,
          "vel": 115,
          "clef": "treble",
          "pitch": "C4"
        },
        {
          "midi": 64,
          "beat": 1.62,
          "dur": 1.69,
          "vel": 111,
          "clef": "treble",
          "pitch": "E4"
        },
        {
          "midi": 69,
          "beat": 1.62,
          "dur": 1.69,
          "vel": 78,
          "clef": "treble",
          "pitch": "A4"
        },
        {
          "midi": 69,
          "beat": 1.62,
          "dur": 1.67,
          "vel": 60,
          "clef": "treble",
          "pitch": "A4"
        },
        {
          "midi": 72,
          "beat": 1.62,
          "dur": 1.69,
          "vel": 76,
          "clef": "treble",
          "pitch": "C5"
        },
        {
          "midi": 76,
          "beat": 1.62,
          "dur": 1.69,
          "vel": 121,
          "clef": "treble",
          "pitch": "E5"
        },
        {
          "midi": 35,
          "beat": 1.65,
          "dur": 0.02,
          "vel": 75,
          "clef": "bass",
          "pitch": "B1"
        },
        {
          "midi": 51,
          "beat": 1.65,
          "dur": 0.02,
          "vel": 34,
          "clef": "bass",
          "acc": "#",
          "pitch": "D#3"
        },
        {
          "midi": 64,
          "beat": 1.66,
          "dur": 1.67,
          "vel": 100,
          "clef": "treble",
          "pitch": "E4"
        },
        {
          "midi": 72,
          "beat": 1.66,
          "dur": 1.67,
          "vel": 94,
          "clef": "treble",
          "pitch": "C5"
        },
        {
          "midi": 69,
          "beat": 1.67,
          "dur": 2.33,
          "vel": 115,
          "clef": "treble",
          "pitch": "A4"
        },
        {
          "midi": 53,
          "beat": 1.94,
          "dur": 0.95,
          "vel": 60,
          "clef": "bass",
          "pitch": "F3"
        },
        {
          "midi": 35,
          "beat": 2,
          "dur": 0.02,
          "vel": 114,
          "clef": "bass",
          "pitch": "B1"
        },
        {
          "midi": 41,
          "beat": 2,
          "dur": 1.67,
          "vel": 85,
          "clef": "bass",
          "pitch": "F2"
        },
        {
          "midi": 51,
          "beat": 2,
          "dur": 0.02,
          "vel": 67,
          "clef": "bass",
          "acc": "#",
          "pitch": "D#3"
        },
        {
          "midi": 62,
          "beat": 2,
          "dur": 0.95,
          "vel": 57,
          "clef": "treble",
          "pitch": "D4"
        },
        {
          "midi": 48,
          "beat": 2.02,
          "dur": 0.95,
          "vel": 58,
          "clef": "bass",
          "pitch": "C3"
        },
        {
          "midi": 57,
          "beat": 2.02,
          "dur": 0.95,
          "vel": 56,
          "clef": "bass",
          "pitch": "A3"
        },
        {
          "midi": 40,
          "beat": 2.33,
          "dur": 0.02,
          "vel": 107,
          "clef": "bass",
          "pitch": "E2"
        },
        {
          "midi": 28,
          "beat": 2.62,
          "dur": 0.53,
          "vel": 94,
          "clef": "bass",
          "pitch": "E1"
        },
        {
          "midi": 52,
          "beat": 2.62,
          "dur": 0.54,
          "vel": 112,
          "clef": "bass",
          "pitch": "E3"
        },
        {
          "midi": 59,
          "beat": 2.62,
          "dur": 0.54,
          "vel": 110,
          "clef": "bass",
          "pitch": "B3"
        },
        {
          "midi": 62,
          "beat": 2.62,
          "dur": 0.54,
          "vel": 118,
          "clef": "treble",
          "pitch": "D4"
        },
        {
          "midi": 67,
          "beat": 2.62,
          "dur": 0.54,
          "vel": 76,
          "clef": "treble",
          "pitch": "G4"
        },
        {
          "midi": 67,
          "beat": 2.62,
          "dur": 0.53,
          "vel": 64,
          "clef": "treble",
          "pitch": "G4"
        },
        {
          "midi": 71,
          "beat": 2.62,
          "dur": 0.54,
          "vel": 79,
          "clef": "treble",
          "pitch": "B4"
        },
        {
          "midi": 74,
          "beat": 2.62,
          "dur": 0.54,
          "vel": 117,
          "clef": "treble",
          "pitch": "D5"
        },
        {
          "midi": 40,
          "beat": 2.65,
          "dur": 0.02,
          "vel": 58,
          "clef": "bass",
          "pitch": "E2"
        },
        {
          "midi": 62,
          "beat": 2.66,
          "dur": 0.53,
          "vel": 95,
          "clef": "treble",
          "pitch": "D4"
        },
        {
          "midi": 71,
          "beat": 2.66,
          "dur": 0.53,
          "vel": 101,
          "clef": "treble",
          "pitch": "B4"
        },
        {
          "midi": 48,
          "beat": 2.98,
          "dur": 0.95,
          "vel": 53,
          "clef": "bass",
          "pitch": "C3"
        },
        {
          "midi": 53,
          "beat": 2.99,
          "dur": 0.95,
          "vel": 51,
          "clef": "bass",
          "pitch": "F3"
        },
        {
          "midi": 62,
          "beat": 2.99,
          "dur": 0.95,
          "vel": 56,
          "clef": "treble",
          "pitch": "D4"
        },
        {
          "midi": 29,
          "beat": 3,
          "dur": 1,
          "vel": 91,
          "clef": "bass",
          "pitch": "F1"
        },
        {
          "midi": 40,
          "beat": 3,
          "dur": 0.02,
          "vel": 107,
          "clef": "bass",
          "pitch": "E2"
        },
        {
          "midi": 42,
          "beat": 3,
          "dur": 1,
          "vel": 85,
          "clef": "bass",
          "acc": "#",
          "pitch": "F#2"
        },
        {
          "midi": 44,
          "beat": 3,
          "dur": 0.02,
          "vel": 73,
          "clef": "bass",
          "acc": "#",
          "pitch": "G#2"
        },
        {
          "midi": 51,
          "beat": 3,
          "dur": 0.02,
          "vel": 67,
          "clef": "bass",
          "acc": "#",
          "pitch": "D#3"
        },
        {
          "midi": 53,
          "beat": 3,
          "dur": 1,
          "vel": 109,
          "clef": "bass",
          "pitch": "F3"
        },
        {
          "midi": 57,
          "beat": 3,
          "dur": 1,
          "vel": 117,
          "clef": "bass",
          "pitch": "A3"
        },
        {
          "midi": 60,
          "beat": 3,
          "dur": 1,
          "vel": 111,
          "clef": "treble",
          "pitch": "C4"
        },
        {
          "midi": 60,
          "beat": 3,
          "dur": 1,
          "vel": 95,
          "clef": "treble",
          "pitch": "C4"
        },
        {
          "midi": 65,
          "beat": 3,
          "dur": 0.83,
          "vel": 80,
          "clef": "treble",
          "pitch": "F4"
        },
        {
          "midi": 65,
          "beat": 3,
          "dur": 1,
          "vel": 96,
          "clef": "treble",
          "pitch": "F4"
        },
        {
          "midi": 69,
          "beat": 3,
          "dur": 1,
          "vel": 84,
          "clef": "treble",
          "pitch": "A4"
        },
        {
          "midi": 69,
          "beat": 3,
          "dur": 1,
          "vel": 56,
          "clef": "treble",
          "pitch": "A4"
        },
        {
          "midi": 72,
          "beat": 3,
          "dur": 1,
          "vel": 119,
          "clef": "treble",
          "pitch": "C5"
        },
        {
          "midi": 57,
          "beat": 3,
          "dur": 0.95,
          "vel": 60,
          "clef": "bass",
          "pitch": "A3"
        },
        {
          "midi": 31,
          "beat": 3.62,
          "dur": 0.38,
          "vel": 88,
          "clef": "bass",
          "pitch": "G1"
        },
        {
          "midi": 55,
          "beat": 3.62,
          "dur": 0.38,
          "vel": 114,
          "clef": "bass",
          "pitch": "G3"
        },
        {
          "midi": 55,
          "beat": 3.62,
          "dur": 0.38,
          "vel": 112,
          "clef": "bass",
          "pitch": "G3"
        },
        {
          "midi": 55,
          "beat": 3.62,
          "dur": 0.38,
          "vel": 57,
          "clef": "bass",
          "pitch": "G3"
        },
        {
          "midi": 67,
          "beat": 3.62,
          "dur": 0.38,
          "vel": 82,
          "clef": "treble",
          "pitch": "G4"
        },
        {
          "midi": 67,
          "beat": 3.62,
          "dur": 0.38,
          "vel": 82,
          "clef": "treble",
          "pitch": "G4"
        },
        {
          "midi": 35,
          "beat": 3.65,
          "dur": 0.02,
          "vel": 76,
          "clef": "bass",
          "pitch": "B1"
        },
        {
          "midi": 67,
          "beat": 3.66,
          "dur": 0.34,
          "vel": 100,
          "clef": "treble",
          "pitch": "G4"
        },
        {
          "midi": 53,
          "beat": 3.98,
          "dur": 0.02,
          "vel": 52,
          "clef": "bass",
          "pitch": "F3"
        }
      ]
    },
    {
      "_": "Treble: 7 notes, Bass: 33 notes",
      "number": 63,
      "notes": [
        {
          "midi": 35,
          "beat": 0,
          "dur": 0.02,
          "vel": 115,
          "clef": "bass",
          "pitch": "B1"
        },
        {
          "midi": 43,
          "beat": 0,
          "dur": 1.67,
          "vel": 84,
          "clef": "bass",
          "pitch": "G2"
        },
        {
          "midi": 51,
          "beat": 0,
          "dur": 0.02,
          "vel": 73,
          "clef": "bass",
          "acc": "#",
          "pitch": "D#3"
        },
        {
          "midi": 47,
          "beat": 0.02,
          "dur": 0.95,
          "vel": 57,
          "clef": "bass",
          "pitch": "B2"
        },
        {
          "midi": 62,
          "beat": 0.02,
          "dur": 0.95,
          "vel": 54,
          "clef": "treble",
          "pitch": "D4"
        },
        {
          "midi": 57,
          "beat": 0.03,
          "dur": 0.95,
          "vel": 55,
          "clef": "bass",
          "pitch": "A3"
        },
        {
          "midi": 57,
          "beat": 0.95,
          "dur": 0.95,
          "vel": 53,
          "clef": "bass",
          "pitch": "A3"
        },
        {
          "midi": 47,
          "beat": 0.96,
          "dur": 0.95,
          "vel": 52,
          "clef": "bass",
          "pitch": "B2"
        },
        {
          "midi": 38,
          "beat": 1,
          "dur": 1.67,
          "vel": 83,
          "clef": "bass",
          "pitch": "D2"
        },
        {
          "midi": 40,
          "beat": 1,
          "dur": 0.02,
          "vel": 105,
          "clef": "bass",
          "pitch": "E2"
        },
        {
          "midi": 44,
          "beat": 1,
          "dur": 0.02,
          "vel": 68,
          "clef": "bass",
          "acc": "#",
          "pitch": "G#2"
        },
        {
          "midi": 51,
          "beat": 1,
          "dur": 0.02,
          "vel": 67,
          "clef": "bass",
          "acc": "#",
          "pitch": "D#3"
        },
        {
          "midi": 62,
          "beat": 1,
          "dur": 0.95,
          "vel": 56,
          "clef": "treble",
          "pitch": "D4"
        },
        {
          "midi": 53,
          "beat": 1.01,
          "dur": 0.95,
          "vel": 56,
          "clef": "bass",
          "pitch": "F3"
        },
        {
          "midi": 35,
          "beat": 1.65,
          "dur": 0.02,
          "vel": 72,
          "clef": "bass",
          "pitch": "B1"
        },
        {
          "midi": 51,
          "beat": 1.65,
          "dur": 0.02,
          "vel": 27,
          "clef": "bass",
          "acc": "#",
          "pitch": "D#3"
        },
        {
          "midi": 72,
          "beat": 1.67,
          "dur": 1.72,
          "vel": 112,
          "clef": "treble",
          "pitch": "C5"
        },
        {
          "midi": 62,
          "beat": 1.96,
          "dur": 0.95,
          "vel": 52,
          "clef": "treble",
          "pitch": "D4"
        },
        {
          "midi": 47,
          "beat": 1.98,
          "dur": 0.95,
          "vel": 58,
          "clef": "bass",
          "pitch": "B2"
        },
        {
          "midi": 35,
          "beat": 2,
          "dur": 0.02,
          "vel": 118,
          "clef": "bass",
          "pitch": "B1"
        },
        {
          "midi": 43,
          "beat": 2,
          "dur": 1.67,
          "vel": 83,
          "clef": "bass",
          "pitch": "G2"
        },
        {
          "midi": 51,
          "beat": 2,
          "dur": 0.02,
          "vel": 76,
          "clef": "bass",
          "acc": "#",
          "pitch": "D#3"
        },
        {
          "midi": 53,
          "beat": 2.01,
          "dur": 0.95,
          "vel": 58,
          "clef": "bass",
          "pitch": "F3"
        },
        {
          "midi": 57,
          "beat": 2.01,
          "dur": 0.95,
          "vel": 52,
          "clef": "bass",
          "pitch": "A3"
        },
        {
          "midi": 40,
          "beat": 2.65,
          "dur": 0.02,
          "vel": 59,
          "clef": "bass",
          "pitch": "E2"
        },
        {
          "midi": 40,
          "beat": 2.84,
          "dur": 0.02,
          "vel": 104,
          "clef": "bass",
          "pitch": "E2"
        },
        {
          "midi": 62,
          "beat": 2.96,
          "dur": 0.95,
          "vel": 60,
          "clef": "treble",
          "pitch": "D4"
        },
        {
          "midi": 57,
          "beat": 2.97,
          "dur": 0.95,
          "vel": 60,
          "clef": "bass",
          "pitch": "A3"
        },
        {
          "midi": 44,
          "beat": 2.98,
          "dur": 0.02,
          "vel": 70,
          "clef": "bass",
          "acc": "#",
          "pitch": "G#2"
        },
        {
          "midi": 47,
          "beat": 2.98,
          "dur": 0.95,
          "vel": 58,
          "clef": "bass",
          "pitch": "B2"
        },
        {
          "midi": 43,
          "beat": 3,
          "dur": 1,
          "vel": 76,
          "clef": "bass",
          "pitch": "G2"
        },
        {
          "midi": 51,
          "beat": 3,
          "dur": 0.02,
          "vel": 73,
          "clef": "bass",
          "acc": "#",
          "pitch": "D#3"
        },
        {
          "midi": 53,
          "beat": 3,
          "dur": 0.95,
          "vel": 58,
          "clef": "bass",
          "pitch": "F3"
        },
        {
          "midi": 71,
          "beat": 3,
          "dur": 1,
          "vel": 114,
          "clef": "treble",
          "pitch": "B4"
        },
        {
          "midi": 40,
          "beat": 3.01,
          "dur": 0.02,
          "vel": 106,
          "clef": "bass",
          "pitch": "E2"
        },
        {
          "midi": 40,
          "beat": 3.33,
          "dur": 0.02,
          "vel": 104,
          "clef": "bass",
          "pitch": "E2"
        },
        {
          "midi": 40,
          "beat": 3.65,
          "dur": 0.02,
          "vel": 59,
          "clef": "bass",
          "pitch": "E2"
        },
        {
          "midi": 76,
          "beat": 3.67,
          "dur": 0.33,
          "vel": 114,
          "clef": "treble",
          "pitch": "E5"
        },
        {
          "midi": 52,
          "beat": 3.96,
          "dur": 0.04,
          "vel": 52,
          "clef": "bass",
          "pitch": "E3"
        },
        {
          "midi": 55,
          "beat": 3.98,
          "dur": 0.02,
          "vel": 54,
          "clef": "bass",
          "pitch": "G3"
        }
      ]
    },
    {
      "_": "Treble: 37 notes, Bass: 49 notes",
      "number": 64,
      "notes": [
        {
          "midi": 35,
          "beat": 0,
          "dur": 0.02,
          "vel": 112,
          "clef": "bass",
          "pitch": "B1"
        },
        {
          "midi": 36,
          "beat": 0,
          "dur": 1.67,
          "vel": 79,
          "clef": "bass",
          "pitch": "C2"
        },
        {
          "midi": 40,
          "beat": 0,
          "dur": 0.02,
          "vel": 105,
          "clef": "bass",
          "pitch": "E2"
        },
        {
          "midi": 46,
          "beat": 0,
          "dur": 0.95,
          "vel": 60,
          "clef": "bass",
          "acc": "#",
          "pitch": "A#2"
        },
        {
          "midi": 49,
          "beat": 0,
          "dur": 0.02,
          "vel": 118,
          "clef": "bass",
          "acc": "#",
          "pitch": "C#3"
        },
        {
          "midi": 62,
          "beat": 0.02,
          "dur": 0.95,
          "vel": 55,
          "clef": "treble",
          "pitch": "D4"
        },
        {
          "midi": 40,
          "beat": 0.65,
          "dur": 0.02,
          "vel": 63,
          "clef": "bass",
          "pitch": "E2"
        },
        {
          "midi": 57,
          "beat": 0.65,
          "dur": 0.02,
          "vel": 71,
          "clef": "bass",
          "pitch": "A3"
        },
        {
          "midi": 43,
          "beat": 0.67,
          "dur": 1.1,
          "vel": 87,
          "clef": "bass",
          "pitch": "G2"
        },
        {
          "midi": 55,
          "beat": 0.67,
          "dur": 1.11,
          "vel": 109,
          "clef": "bass",
          "pitch": "G3"
        },
        {
          "midi": 58,
          "beat": 0.67,
          "dur": 1.11,
          "vel": 114,
          "clef": "bass",
          "acc": "#",
          "pitch": "A#3"
        },
        {
          "midi": 64,
          "beat": 0.67,
          "dur": 1.1,
          "vel": 103,
          "clef": "treble",
          "pitch": "E4"
        },
        {
          "midi": 67,
          "beat": 0.67,
          "dur": 1.1,
          "vel": 64,
          "clef": "treble",
          "pitch": "G4"
        },
        {
          "midi": 70,
          "beat": 0.67,
          "dur": 1.11,
          "vel": 84,
          "clef": "treble",
          "acc": "#",
          "pitch": "A#4"
        },
        {
          "midi": 70,
          "beat": 0.67,
          "dur": 1.1,
          "vel": 103,
          "clef": "treble",
          "acc": "#",
          "pitch": "A#4"
        },
        {
          "midi": 74,
          "beat": 0.67,
          "dur": 1.11,
          "vel": 83,
          "clef": "treble",
          "pitch": "D5"
        },
        {
          "midi": 76,
          "beat": 0.67,
          "dur": 1.11,
          "vel": 75,
          "clef": "treble",
          "pitch": "E5"
        },
        {
          "midi": 79,
          "beat": 0.67,
          "dur": 1.11,
          "vel": 114,
          "clef": "treble",
          "pitch": "G5"
        },
        {
          "midi": 36,
          "beat": 1,
          "dur": 1.67,
          "vel": 84,
          "clef": "bass",
          "pitch": "C2"
        },
        {
          "midi": 44,
          "beat": 1,
          "dur": 0.02,
          "vel": 75,
          "clef": "bass",
          "acc": "#",
          "pitch": "G#2"
        },
        {
          "midi": 62,
          "beat": 1,
          "dur": 0.95,
          "vel": 52,
          "clef": "treble",
          "pitch": "D4"
        },
        {
          "midi": 46,
          "beat": 1.02,
          "dur": 0.95,
          "vel": 57,
          "clef": "bass",
          "acc": "#",
          "pitch": "A#2"
        },
        {
          "midi": 52,
          "beat": 1.02,
          "dur": 0.95,
          "vel": 59,
          "clef": "bass",
          "pitch": "E3"
        },
        {
          "midi": 55,
          "beat": 1.02,
          "dur": 0.95,
          "vel": 57,
          "clef": "bass",
          "pitch": "G3"
        },
        {
          "midi": 40,
          "beat": 1.33,
          "dur": 0.02,
          "vel": 98,
          "clef": "bass",
          "pitch": "E2"
        },
        {
          "midi": 40,
          "beat": 1.33,
          "dur": 1.1,
          "vel": 86,
          "clef": "bass",
          "pitch": "E2"
        },
        {
          "midi": 49,
          "beat": 1.33,
          "dur": 0.02,
          "vel": 117,
          "clef": "bass",
          "acc": "#",
          "pitch": "C#3"
        },
        {
          "midi": 52,
          "beat": 1.33,
          "dur": 1.11,
          "vel": 110,
          "clef": "bass",
          "pitch": "E3"
        },
        {
          "midi": 55,
          "beat": 1.33,
          "dur": 1.11,
          "vel": 114,
          "clef": "bass",
          "pitch": "G3"
        },
        {
          "midi": 58,
          "beat": 1.33,
          "dur": 1.1,
          "vel": 99,
          "clef": "bass",
          "acc": "#",
          "pitch": "A#3"
        },
        {
          "midi": 64,
          "beat": 1.33,
          "dur": 1.1,
          "vel": 64,
          "clef": "treble",
          "pitch": "E4"
        },
        {
          "midi": 67,
          "beat": 1.33,
          "dur": 1.11,
          "vel": 81,
          "clef": "treble",
          "pitch": "G4"
        },
        {
          "midi": 67,
          "beat": 1.33,
          "dur": 1.1,
          "vel": 100,
          "clef": "treble",
          "pitch": "G4"
        },
        {
          "midi": 70,
          "beat": 1.33,
          "dur": 1.1,
          "vel": 83,
          "clef": "treble",
          "acc": "#",
          "pitch": "A#4"
        },
        {
          "midi": 74,
          "beat": 1.33,
          "dur": 1.11,
          "vel": 84,
          "clef": "treble",
          "pitch": "D5"
        },
        {
          "midi": 76,
          "beat": 1.33,
          "dur": 1.11,
          "vel": 121,
          "clef": "treble",
          "pitch": "E5"
        },
        {
          "midi": 52,
          "beat": 1.98,
          "dur": 0.95,
          "vel": 55,
          "clef": "bass",
          "pitch": "E3"
        },
        {
          "midi": 55,
          "beat": 1.99,
          "dur": 0.95,
          "vel": 51,
          "clef": "bass",
          "pitch": "G3"
        },
        {
          "midi": 35,
          "beat": 2,
          "dur": 1.67,
          "vel": 85,
          "clef": "bass",
          "pitch": "B1"
        },
        {
          "midi": 40,
          "beat": 2,
          "dur": 0.02,
          "vel": 106,
          "clef": "bass",
          "pitch": "E2"
        },
        {
          "midi": 43,
          "beat": 2,
          "dur": 1.1,
          "vel": 91,
          "clef": "bass",
          "pitch": "G2"
        },
        {
          "midi": 55,
          "beat": 2,
          "dur": 1.11,
          "vel": 114,
          "clef": "bass",
          "pitch": "G3"
        },
        {
          "midi": 57,
          "beat": 2,
          "dur": 0.02,
          "vel": 112,
          "clef": "bass",
          "pitch": "A3"
        },
        {
          "midi": 58,
          "beat": 2,
          "dur": 1.11,
          "vel": 109,
          "clef": "bass",
          "acc": "#",
          "pitch": "A#3"
        },
        {
          "midi": 64,
          "beat": 2,
          "dur": 1.1,
          "vel": 103,
          "clef": "treble",
          "pitch": "E4"
        },
        {
          "midi": 67,
          "beat": 2,
          "dur": 1.1,
          "vel": 57,
          "clef": "treble",
          "pitch": "G4"
        },
        {
          "midi": 70,
          "beat": 2,
          "dur": 1.11,
          "vel": 83,
          "clef": "treble",
          "acc": "#",
          "pitch": "A#4"
        },
        {
          "midi": 70,
          "beat": 2,
          "dur": 1.1,
          "vel": 94,
          "clef": "treble",
          "acc": "#",
          "pitch": "A#4"
        },
        {
          "midi": 74,
          "beat": 2,
          "dur": 1.11,
          "vel": 81,
          "clef": "treble",
          "pitch": "D5"
        },
        {
          "midi": 76,
          "beat": 2,
          "dur": 1.11,
          "vel": 77,
          "clef": "treble",
          "pitch": "E5"
        },
        {
          "midi": 79,
          "beat": 2,
          "dur": 1.11,
          "vel": 113,
          "clef": "treble",
          "pitch": "G5"
        },
        {
          "midi": 46,
          "beat": 2.02,
          "dur": 0.95,
          "vel": 57,
          "clef": "bass",
          "acc": "#",
          "pitch": "A#2"
        },
        {
          "midi": 62,
          "beat": 2.02,
          "dur": 0.95,
          "vel": 57,
          "clef": "treble",
          "pitch": "D4"
        },
        {
          "midi": 40,
          "beat": 2.65,
          "dur": 0.02,
          "vel": 65,
          "clef": "bass",
          "pitch": "E2"
        },
        {
          "midi": 49,
          "beat": 2.65,
          "dur": 0.02,
          "vel": 79,
          "clef": "bass",
          "acc": "#",
          "pitch": "C#3"
        },
        {
          "midi": 40,
          "beat": 2.67,
          "dur": 1.1,
          "vel": 90,
          "clef": "bass",
          "pitch": "E2"
        },
        {
          "midi": 52,
          "beat": 2.67,
          "dur": 1.11,
          "vel": 109,
          "clef": "bass",
          "pitch": "E3"
        },
        {
          "midi": 55,
          "beat": 2.67,
          "dur": 1.11,
          "vel": 112,
          "clef": "bass",
          "pitch": "G3"
        },
        {
          "midi": 58,
          "beat": 2.67,
          "dur": 1.1,
          "vel": 94,
          "clef": "bass",
          "acc": "#",
          "pitch": "A#3"
        },
        {
          "midi": 64,
          "beat": 2.67,
          "dur": 1.1,
          "vel": 65,
          "clef": "treble",
          "pitch": "E4"
        },
        {
          "midi": 67,
          "beat": 2.67,
          "dur": 1.11,
          "vel": 82,
          "clef": "treble",
          "pitch": "G4"
        },
        {
          "midi": 67,
          "beat": 2.67,
          "dur": 1.1,
          "vel": 103,
          "clef": "treble",
          "pitch": "G4"
        },
        {
          "midi": 70,
          "beat": 2.67,
          "dur": 0.99,
          "vel": 79,
          "clef": "treble",
          "acc": "#",
          "pitch": "A#4"
        },
        {
          "midi": 74,
          "beat": 2.67,
          "dur": 1.11,
          "vel": 81,
          "clef": "treble",
          "pitch": "D5"
        },
        {
          "midi": 76,
          "beat": 2.67,
          "dur": 1.11,
          "vel": 116,
          "clef": "treble",
          "pitch": "E5"
        },
        {
          "midi": 34,
          "beat": 3,
          "dur": 1,
          "vel": 82,
          "clef": "bass",
          "acc": "#",
          "pitch": "A#1"
        },
        {
          "midi": 44,
          "beat": 3,
          "dur": 0.02,
          "vel": 75,
          "clef": "bass",
          "acc": "#",
          "pitch": "G#2"
        },
        {
          "midi": 46,
          "beat": 3,
          "dur": 0.95,
          "vel": 54,
          "clef": "bass",
          "acc": "#",
          "pitch": "A#2"
        },
        {
          "midi": 55,
          "beat": 3,
          "dur": 0.95,
          "vel": 52,
          "clef": "bass",
          "pitch": "G3"
        },
        {
          "midi": 62,
          "beat": 3,
          "dur": 0.95,
          "vel": 60,
          "clef": "treble",
          "pitch": "D4"
        },
        {
          "midi": 52,
          "beat": 3.02,
          "dur": 0.95,
          "vel": 56,
          "clef": "bass",
          "pitch": "E3"
        },
        {
          "midi": 40,
          "beat": 3.33,
          "dur": 0.02,
          "vel": 102,
          "clef": "bass",
          "pitch": "E2"
        },
        {
          "midi": 43,
          "beat": 3.33,
          "dur": 0.53,
          "vel": 94,
          "clef": "bass",
          "pitch": "G2"
        },
        {
          "midi": 55,
          "beat": 3.33,
          "dur": 0.54,
          "vel": 112,
          "clef": "bass",
          "pitch": "G3"
        },
        {
          "midi": 57,
          "beat": 3.33,
          "dur": 0.02,
          "vel": 120,
          "clef": "bass",
          "pitch": "A3"
        },
        {
          "midi": 58,
          "beat": 3.33,
          "dur": 0.54,
          "vel": 118,
          "clef": "bass",
          "acc": "#",
          "pitch": "A#3"
        },
        {
          "midi": 64,
          "beat": 3.33,
          "dur": 0.53,
          "vel": 98,
          "clef": "treble",
          "pitch": "E4"
        },
        {
          "midi": 67,
          "beat": 3.33,
          "dur": 0.53,
          "vel": 58,
          "clef": "treble",
          "pitch": "G4"
        },
        {
          "midi": 70,
          "beat": 3.33,
          "dur": 0.54,
          "vel": 82,
          "clef": "treble",
          "acc": "#",
          "pitch": "A#4"
        },
        {
          "midi": 70,
          "beat": 3.33,
          "dur": 0.53,
          "vel": 101,
          "clef": "treble",
          "acc": "#",
          "pitch": "A#4"
        },
        {
          "midi": 74,
          "beat": 3.33,
          "dur": 0.54,
          "vel": 79,
          "clef": "treble",
          "pitch": "D5"
        },
        {
          "midi": 76,
          "beat": 3.33,
          "dur": 0.54,
          "vel": 79,
          "clef": "treble",
          "pitch": "E5"
        },
        {
          "midi": 79,
          "beat": 3.33,
          "dur": 0.54,
          "vel": 117,
          "clef": "treble",
          "pitch": "G5"
        },
        {
          "midi": 48,
          "beat": 3.96,
          "dur": 0.04,
          "vel": 52,
          "clef": "bass",
          "pitch": "C3"
        },
        {
          "midi": 52,
          "beat": 3.98,
          "dur": 0.02,
          "vel": 58,
          "clef": "bass",
          "pitch": "E3"
        },
        {
          "midi": 55,
          "beat": 3.98,
          "dur": 0.02,
          "vel": 58,
          "clef": "bass",
          "pitch": "G3"
        }
      ]
    },
    {
      "_": "Treble: 46 notes, Bass: 38 notes",
      "number": 65,
      "notes": [
        {
          "midi": 33,
          "beat": 0,
          "dur": 1.67,
          "vel": 78,
          "clef": "bass",
          "pitch": "A1"
        },
        {
          "midi": 40,
          "beat": 0,
          "dur": 0.02,
          "vel": 100,
          "clef": "bass",
          "pitch": "E2"
        },
        {
          "midi": 49,
          "beat": 0,
          "dur": 0.02,
          "vel": 120,
          "clef": "bass",
          "acc": "#",
          "pitch": "C#3"
        },
        {
          "midi": 61,
          "beat": 0.02,
          "dur": 0.95,
          "vel": 55,
          "clef": "treble",
          "acc": "#",
          "pitch": "C#4"
        },
        {
          "midi": 40,
          "beat": 0.65,
          "dur": 0.02,
          "vel": 57,
          "clef": "bass",
          "pitch": "E2"
        },
        {
          "midi": 57,
          "beat": 0.65,
          "dur": 0.02,
          "vel": 74,
          "clef": "bass",
          "pitch": "A3"
        },
        {
          "midi": 49,
          "beat": 0.67,
          "dur": 1.1,
          "vel": 88,
          "clef": "bass",
          "acc": "#",
          "pitch": "C#3"
        },
        {
          "midi": 61,
          "beat": 0.67,
          "dur": 1.11,
          "vel": 114,
          "clef": "treble",
          "acc": "#",
          "pitch": "C#4"
        },
        {
          "midi": 61,
          "beat": 0.67,
          "dur": 1.1,
          "vel": 101,
          "clef": "treble",
          "acc": "#",
          "pitch": "C#4"
        },
        {
          "midi": 64,
          "beat": 0.67,
          "dur": 1.11,
          "vel": 116,
          "clef": "treble",
          "pitch": "E4"
        },
        {
          "midi": 67,
          "beat": 0.67,
          "dur": 1.1,
          "vel": 61,
          "clef": "treble",
          "pitch": "G4"
        },
        {
          "midi": 69,
          "beat": 0.67,
          "dur": 1.11,
          "vel": 78,
          "clef": "treble",
          "pitch": "A4"
        },
        {
          "midi": 73,
          "beat": 0.67,
          "dur": 1.11,
          "vel": 77,
          "clef": "treble",
          "acc": "#",
          "pitch": "C#5"
        },
        {
          "midi": 73,
          "beat": 0.67,
          "dur": 1.1,
          "vel": 103,
          "clef": "treble",
          "acc": "#",
          "pitch": "C#5"
        },
        {
          "midi": 76,
          "beat": 0.67,
          "dur": 1.11,
          "vel": 75,
          "clef": "treble",
          "pitch": "E5"
        },
        {
          "midi": 85,
          "beat": 0.67,
          "dur": 1.11,
          "vel": 112,
          "clef": "treble",
          "acc": "#",
          "pitch": "C#6"
        },
        {
          "midi": 48,
          "beat": 0.98,
          "dur": 0.95,
          "vel": 54,
          "clef": "bass",
          "pitch": "C3"
        },
        {
          "midi": 55,
          "beat": 0.98,
          "dur": 0.95,
          "vel": 51,
          "clef": "bass",
          "pitch": "G3"
        },
        {
          "midi": 35,
          "beat": 1,
          "dur": 1.67,
          "vel": 78,
          "clef": "bass",
          "pitch": "B1"
        },
        {
          "midi": 44,
          "beat": 1,
          "dur": 0.02,
          "vel": 68,
          "clef": "bass",
          "acc": "#",
          "pitch": "G#2"
        },
        {
          "midi": 61,
          "beat": 1,
          "dur": 0.95,
          "vel": 59,
          "clef": "treble",
          "acc": "#",
          "pitch": "C#4"
        },
        {
          "midi": 52,
          "beat": 1.02,
          "dur": 0.95,
          "vel": 59,
          "clef": "bass",
          "pitch": "E3"
        },
        {
          "midi": 40,
          "beat": 1.33,
          "dur": 0.02,
          "vel": 107,
          "clef": "bass",
          "pitch": "E2"
        },
        {
          "midi": 45,
          "beat": 1.33,
          "dur": 1.1,
          "vel": 92,
          "clef": "bass",
          "pitch": "A2"
        },
        {
          "midi": 49,
          "beat": 1.33,
          "dur": 0.02,
          "vel": 114,
          "clef": "bass",
          "acc": "#",
          "pitch": "C#3"
        },
        {
          "midi": 57,
          "beat": 1.33,
          "dur": 1.11,
          "vel": 118,
          "clef": "bass",
          "pitch": "A3"
        },
        {
          "midi": 57,
          "beat": 1.33,
          "dur": 1.1,
          "vel": 96,
          "clef": "bass",
          "pitch": "A3"
        },
        {
          "midi": 61,
          "beat": 1.33,
          "dur": 1.11,
          "vel": 79,
          "clef": "treble",
          "acc": "#",
          "pitch": "C#4"
        },
        {
          "midi": 61,
          "beat": 1.33,
          "dur": 1.11,
          "vel": 114,
          "clef": "treble",
          "acc": "#",
          "pitch": "C#4"
        },
        {
          "midi": 64,
          "beat": 1.33,
          "dur": 1.1,
          "vel": 62,
          "clef": "treble",
          "pitch": "E4"
        },
        {
          "midi": 69,
          "beat": 1.33,
          "dur": 1.11,
          "vel": 80,
          "clef": "treble",
          "pitch": "A4"
        },
        {
          "midi": 69,
          "beat": 1.33,
          "dur": 1.1,
          "vel": 96,
          "clef": "treble",
          "pitch": "A4"
        },
        {
          "midi": 73,
          "beat": 1.33,
          "dur": 1.11,
          "vel": 77,
          "clef": "treble",
          "acc": "#",
          "pitch": "C#5"
        },
        {
          "midi": 81,
          "beat": 1.33,
          "dur": 1.11,
          "vel": 118,
          "clef": "treble",
          "pitch": "A5"
        },
        {
          "midi": 55,
          "beat": 1.94,
          "dur": 0.95,
          "vel": 53,
          "clef": "bass",
          "pitch": "G3"
        },
        {
          "midi": 36,
          "beat": 2,
          "dur": 1.67,
          "vel": 78,
          "clef": "bass",
          "pitch": "C2"
        },
        {
          "midi": 40,
          "beat": 2,
          "dur": 0.02,
          "vel": 99,
          "clef": "bass",
          "pitch": "E2"
        },
        {
          "midi": 48,
          "beat": 2,
          "dur": 0.95,
          "vel": 60,
          "clef": "bass",
          "pitch": "C3"
        },
        {
          "midi": 49,
          "beat": 2,
          "dur": 1.1,
          "vel": 87,
          "clef": "bass",
          "acc": "#",
          "pitch": "C#3"
        },
        {
          "midi": 57,
          "beat": 2,
          "dur": 0.02,
          "vel": 118,
          "clef": "bass",
          "pitch": "A3"
        },
        {
          "midi": 61,
          "beat": 2,
          "dur": 1.11,
          "vel": 112,
          "clef": "treble",
          "acc": "#",
          "pitch": "C#4"
        },
        {
          "midi": 61,
          "beat": 2,
          "dur": 1.1,
          "vel": 97,
          "clef": "treble",
          "acc": "#",
          "pitch": "C#4"
        },
        {
          "midi": 64,
          "beat": 2,
          "dur": 1.11,
          "vel": 114,
          "clef": "treble",
          "pitch": "E4"
        },
        {
          "midi": 67,
          "beat": 2,
          "dur": 1.1,
          "vel": 64,
          "clef": "treble",
          "pitch": "G4"
        },
        {
          "midi": 69,
          "beat": 2,
          "dur": 1.11,
          "vel": 83,
          "clef": "treble",
          "pitch": "A4"
        },
        {
          "midi": 73,
          "beat": 2,
          "dur": 1.11,
          "vel": 83,
          "clef": "treble",
          "acc": "#",
          "pitch": "C#5"
        },
        {
          "midi": 73,
          "beat": 2,
          "dur": 1.1,
          "vel": 103,
          "clef": "treble",
          "acc": "#",
          "pitch": "C#5"
        },
        {
          "midi": 76,
          "beat": 2,
          "dur": 1.11,
          "vel": 76,
          "clef": "treble",
          "pitch": "E5"
        },
        {
          "midi": 85,
          "beat": 2,
          "dur": 1.11,
          "vel": 113,
          "clef": "treble",
          "acc": "#",
          "pitch": "C#6"
        },
        {
          "midi": 61,
          "beat": 2.01,
          "dur": 0.95,
          "vel": 51,
          "clef": "treble",
          "acc": "#",
          "pitch": "C#4"
        },
        {
          "midi": 52,
          "beat": 2.02,
          "dur": 0.95,
          "vel": 54,
          "clef": "bass",
          "pitch": "E3"
        },
        {
          "midi": 40,
          "beat": 2.65,
          "dur": 0.02,
          "vel": 58,
          "clef": "bass",
          "pitch": "E2"
        },
        {
          "midi": 49,
          "beat": 2.65,
          "dur": 0.02,
          "vel": 76,
          "clef": "bass",
          "acc": "#",
          "pitch": "C#3"
        },
        {
          "midi": 45,
          "beat": 2.67,
          "dur": 1.1,
          "vel": 88,
          "clef": "bass",
          "pitch": "A2"
        },
        {
          "midi": 57,
          "beat": 2.67,
          "dur": 1.11,
          "vel": 113,
          "clef": "bass",
          "pitch": "A3"
        },
        {
          "midi": 57,
          "beat": 2.67,
          "dur": 1.1,
          "vel": 94,
          "clef": "bass",
          "pitch": "A3"
        },
        {
          "midi": 61,
          "beat": 2.67,
          "dur": 1.11,
          "vel": 80,
          "clef": "treble",
          "acc": "#",
          "pitch": "C#4"
        },
        {
          "midi": 61,
          "beat": 2.67,
          "dur": 1.11,
          "vel": 109,
          "clef": "treble",
          "acc": "#",
          "pitch": "C#4"
        },
        {
          "midi": 64,
          "beat": 2.67,
          "dur": 1.1,
          "vel": 63,
          "clef": "treble",
          "pitch": "E4"
        },
        {
          "midi": 69,
          "beat": 2.67,
          "dur": 0.54,
          "vel": 81,
          "clef": "treble",
          "pitch": "A4"
        },
        {
          "midi": 69,
          "beat": 2.67,
          "dur": 1.1,
          "vel": 98,
          "clef": "treble",
          "pitch": "A4"
        },
        {
          "midi": 73,
          "beat": 2.67,
          "dur": 1.11,
          "vel": 77,
          "clef": "treble",
          "acc": "#",
          "pitch": "C#5"
        },
        {
          "midi": 81,
          "beat": 2.67,
          "dur": 1.11,
          "vel": 119,
          "clef": "treble",
          "pitch": "A5"
        },
        {
          "midi": 52,
          "beat": 2.96,
          "dur": 0.95,
          "vel": 53,
          "clef": "bass",
          "pitch": "E3"
        },
        {
          "midi": 48,
          "beat": 2.98,
          "dur": 0.95,
          "vel": 53,
          "clef": "bass",
          "pitch": "C3"
        },
        {
          "midi": 61,
          "beat": 2.98,
          "dur": 0.95,
          "vel": 55,
          "clef": "treble",
          "acc": "#",
          "pitch": "C#4"
        },
        {
          "midi": 37,
          "beat": 3,
          "dur": 1,
          "vel": 78,
          "clef": "bass",
          "acc": "#",
          "pitch": "C#2"
        },
        {
          "midi": 44,
          "beat": 3,
          "dur": 0.02,
          "vel": 70,
          "clef": "bass",
          "acc": "#",
          "pitch": "G#2"
        },
        {
          "midi": 55,
          "beat": 3,
          "dur": 0.95,
          "vel": 56,
          "clef": "bass",
          "pitch": "G3"
        },
        {
          "midi": 76,
          "beat": 3,
          "dur": 1,
          "vel": 120,
          "clef": "treble",
          "pitch": "E5"
        },
        {
          "midi": 40,
          "beat": 3.33,
          "dur": 0.02,
          "vel": 101,
          "clef": "bass",
          "pitch": "E2"
        },
        {
          "midi": 49,
          "beat": 3.33,
          "dur": 0.53,
          "vel": 85,
          "clef": "bass",
          "acc": "#",
          "pitch": "C#3"
        },
        {
          "midi": 57,
          "beat": 3.33,
          "dur": 0.02,
          "vel": 114,
          "clef": "bass",
          "pitch": "A3"
        },
        {
          "midi": 61,
          "beat": 3.33,
          "dur": 0.54,
          "vel": 116,
          "clef": "treble",
          "acc": "#",
          "pitch": "C#4"
        },
        {
          "midi": 61,
          "beat": 3.33,
          "dur": 0.53,
          "vel": 96,
          "clef": "treble",
          "acc": "#",
          "pitch": "C#4"
        },
        {
          "midi": 64,
          "beat": 3.33,
          "dur": 0.54,
          "vel": 114,
          "clef": "treble",
          "pitch": "E4"
        },
        {
          "midi": 67,
          "beat": 3.33,
          "dur": 0.53,
          "vel": 59,
          "clef": "treble",
          "pitch": "G4"
        },
        {
          "midi": 69,
          "beat": 3.33,
          "dur": 0.54,
          "vel": 75,
          "clef": "treble",
          "pitch": "A4"
        },
        {
          "midi": 73,
          "beat": 3.33,
          "dur": 0.54,
          "vel": 75,
          "clef": "treble",
          "acc": "#",
          "pitch": "C#5"
        },
        {
          "midi": 73,
          "beat": 3.33,
          "dur": 0.53,
          "vel": 95,
          "clef": "treble",
          "acc": "#",
          "pitch": "C#5"
        },
        {
          "midi": 76,
          "beat": 3.33,
          "dur": 0.54,
          "vel": 83,
          "clef": "treble",
          "pitch": "E5"
        },
        {
          "midi": 85,
          "beat": 3.33,
          "dur": 0.61,
          "vel": 114,
          "clef": "treble",
          "acc": "#",
          "pitch": "C#6"
        },
        {
          "midi": 57,
          "beat": 3.95,
          "dur": 0.05,
          "vel": 53,
          "clef": "bass",
          "pitch": "A3"
        },
        {
          "midi": 48,
          "beat": 3.98,
          "dur": 0.02,
          "vel": 59,
          "clef": "bass",
          "pitch": "C3"
        }
      ]
    },
    {
      "_": "Treble: 45 notes, Bass: 42 notes",
      "number": 66,
      "notes": [
        {
          "midi": 35,
          "beat": 0,
          "dur": 0.02,
          "vel": 113,
          "clef": "bass",
          "pitch": "B1"
        },
        {
          "midi": 38,
          "beat": 0,
          "dur": 1.67,
          "vel": 80,
          "clef": "bass",
          "pitch": "D2"
        },
        {
          "midi": 49,
          "beat": 0,
          "dur": 0.02,
          "vel": 120,
          "clef": "bass",
          "acc": "#",
          "pitch": "C#3"
        },
        {
          "midi": 51,
          "beat": 0,
          "dur": 0.02,
          "vel": 67,
          "clef": "bass",
          "acc": "#",
          "pitch": "D#3"
        },
        {
          "midi": 76,
          "beat": 0,
          "dur": 1.15,
          "vel": 115,
          "clef": "treble",
          "pitch": "E5"
        },
        {
          "midi": 53,
          "beat": 0.01,
          "dur": 0.95,
          "vel": 59,
          "clef": "bass",
          "pitch": "F3"
        },
        {
          "midi": 62,
          "beat": 0.02,
          "dur": 0.95,
          "vel": 55,
          "clef": "treble",
          "pitch": "D4"
        },
        {
          "midi": 72,
          "beat": 0.67,
          "dur": 0.57,
          "vel": 115,
          "clef": "treble",
          "pitch": "C5"
        },
        {
          "midi": 57,
          "beat": 0.99,
          "dur": 0.95,
          "vel": 53,
          "clef": "bass",
          "pitch": "A3"
        },
        {
          "midi": 40,
          "beat": 1,
          "dur": 0.02,
          "vel": 104,
          "clef": "bass",
          "pitch": "E2"
        },
        {
          "midi": 40,
          "beat": 1,
          "dur": 1.67,
          "vel": 80,
          "clef": "bass",
          "pitch": "E2"
        },
        {
          "midi": 44,
          "beat": 1,
          "dur": 0.02,
          "vel": 71,
          "clef": "bass",
          "acc": "#",
          "pitch": "G#2"
        },
        {
          "midi": 51,
          "beat": 1,
          "dur": 0.02,
          "vel": 72,
          "clef": "bass",
          "acc": "#",
          "pitch": "D#3"
        },
        {
          "midi": 62,
          "beat": 1,
          "dur": 0.95,
          "vel": 60,
          "clef": "treble",
          "pitch": "D4"
        },
        {
          "midi": 53,
          "beat": 1.01,
          "dur": 0.95,
          "vel": 57,
          "clef": "bass",
          "pitch": "F3"
        },
        {
          "midi": 48,
          "beat": 1.02,
          "dur": 0.95,
          "vel": 58,
          "clef": "bass",
          "pitch": "C3"
        },
        {
          "midi": 35,
          "beat": 1.65,
          "dur": 0.02,
          "vel": 76,
          "clef": "bass",
          "pitch": "B1"
        },
        {
          "midi": 41,
          "beat": 1.67,
          "dur": 0.53,
          "vel": 90,
          "clef": "bass",
          "pitch": "F2"
        },
        {
          "midi": 57,
          "beat": 1.67,
          "dur": 0.27,
          "vel": 103,
          "clef": "bass",
          "pitch": "A3"
        },
        {
          "midi": 60,
          "beat": 1.67,
          "dur": 0.27,
          "vel": 62,
          "clef": "treble",
          "pitch": "C4"
        },
        {
          "midi": 65,
          "beat": 1.67,
          "dur": 0.17,
          "vel": 97,
          "clef": "treble",
          "pitch": "F4"
        },
        {
          "midi": 69,
          "beat": 1.67,
          "dur": 0.54,
          "vel": 80,
          "clef": "treble",
          "pitch": "A4"
        },
        {
          "midi": 72,
          "beat": 1.67,
          "dur": 2.33,
          "vel": 120,
          "clef": "treble",
          "pitch": "C5"
        },
        {
          "midi": 73,
          "beat": 1.67,
          "dur": 0.25,
          "vel": 76,
          "clef": "treble",
          "acc": "#",
          "pitch": "C#5"
        },
        {
          "midi": 74,
          "beat": 1.67,
          "dur": 0.54,
          "vel": 75,
          "clef": "treble",
          "pitch": "D5"
        },
        {
          "midi": 77,
          "beat": 1.67,
          "dur": 0.31,
          "vel": 120,
          "clef": "treble",
          "pitch": "F5"
        },
        {
          "midi": 39,
          "beat": 1.83,
          "dur": 0.53,
          "vel": 85,
          "clef": "bass",
          "acc": "#",
          "pitch": "D#2"
        },
        {
          "midi": 59,
          "beat": 1.83,
          "dur": 0.33,
          "vel": 60,
          "clef": "bass",
          "pitch": "B3"
        },
        {
          "midi": 67,
          "beat": 1.83,
          "dur": 0.54,
          "vel": 80,
          "clef": "treble",
          "pitch": "G4"
        },
        {
          "midi": 71,
          "beat": 1.83,
          "dur": 0.25,
          "vel": 79,
          "clef": "treble",
          "pitch": "B4"
        },
        {
          "midi": 74,
          "beat": 1.83,
          "dur": 0.54,
          "vel": 82,
          "clef": "treble",
          "pitch": "D5"
        },
        {
          "midi": 76,
          "beat": 1.83,
          "dur": 0.35,
          "vel": 121,
          "clef": "treble",
          "pitch": "E5"
        },
        {
          "midi": 55,
          "beat": 1.85,
          "dur": 0.27,
          "vel": 101,
          "clef": "bass",
          "pitch": "G3"
        },
        {
          "midi": 64,
          "beat": 1.85,
          "dur": 0.17,
          "vel": 98,
          "clef": "treble",
          "pitch": "E4"
        },
        {
          "midi": 35,
          "beat": 2,
          "dur": 0.02,
          "vel": 118,
          "clef": "bass",
          "pitch": "B1"
        },
        {
          "midi": 41,
          "beat": 2,
          "dur": 1.67,
          "vel": 82,
          "clef": "bass",
          "pitch": "F2"
        },
        {
          "midi": 48,
          "beat": 2,
          "dur": 0.95,
          "vel": 52,
          "clef": "bass",
          "pitch": "C3"
        },
        {
          "midi": 51,
          "beat": 2,
          "dur": 0.02,
          "vel": 71,
          "clef": "bass",
          "acc": "#",
          "pitch": "D#3"
        },
        {
          "midi": 53,
          "beat": 2,
          "dur": 1.08,
          "vel": 100,
          "clef": "bass",
          "pitch": "F3"
        },
        {
          "midi": 62,
          "beat": 2,
          "dur": 0.95,
          "vel": 52,
          "clef": "treble",
          "pitch": "D4"
        },
        {
          "midi": 53,
          "beat": 2.01,
          "dur": 0.95,
          "vel": 59,
          "clef": "bass",
          "pitch": "F3"
        },
        {
          "midi": 62,
          "beat": 2.01,
          "dur": 1.1,
          "vel": 98,
          "clef": "treble",
          "pitch": "D4"
        },
        {
          "midi": 38,
          "beat": 2.02,
          "dur": 1.1,
          "vel": 87,
          "clef": "bass",
          "pitch": "D2"
        },
        {
          "midi": 57,
          "beat": 2.02,
          "dur": 1.1,
          "vel": 58,
          "clef": "bass",
          "pitch": "A3"
        },
        {
          "midi": 65,
          "beat": 2.02,
          "dur": 1.11,
          "vel": 78,
          "clef": "treble",
          "pitch": "F4"
        },
        {
          "midi": 69,
          "beat": 2.02,
          "dur": 0.83,
          "vel": 74,
          "clef": "treble",
          "pitch": "A4"
        },
        {
          "midi": 72,
          "beat": 2.02,
          "dur": 1.11,
          "vel": 76,
          "clef": "treble",
          "pitch": "C5"
        },
        {
          "midi": 74,
          "beat": 2.02,
          "dur": 1.06,
          "vel": 113,
          "clef": "treble",
          "pitch": "D5"
        },
        {
          "midi": 57,
          "beat": 2.03,
          "dur": 0.95,
          "vel": 58,
          "clef": "bass",
          "pitch": "A3"
        },
        {
          "midi": 41,
          "beat": 2.67,
          "dur": 0.53,
          "vel": 89,
          "clef": "bass",
          "pitch": "F2"
        },
        {
          "midi": 57,
          "beat": 2.67,
          "dur": 0.53,
          "vel": 96,
          "clef": "bass",
          "pitch": "A3"
        },
        {
          "midi": 60,
          "beat": 2.67,
          "dur": 0.53,
          "vel": 58,
          "clef": "treble",
          "pitch": "C4"
        },
        {
          "midi": 65,
          "beat": 2.67,
          "dur": 0.53,
          "vel": 95,
          "clef": "treble",
          "pitch": "F4"
        },
        {
          "midi": 69,
          "beat": 2.67,
          "dur": 0.54,
          "vel": 82,
          "clef": "treble",
          "pitch": "A4"
        },
        {
          "midi": 72,
          "beat": 2.67,
          "dur": 0.5,
          "vel": 77,
          "clef": "treble",
          "pitch": "C5"
        },
        {
          "midi": 74,
          "beat": 2.67,
          "dur": 0.54,
          "vel": 77,
          "clef": "treble",
          "pitch": "D5"
        },
        {
          "midi": 77,
          "beat": 2.67,
          "dur": 0.54,
          "vel": 112,
          "clef": "treble",
          "pitch": "F5"
        },
        {
          "midi": 57,
          "beat": 2.96,
          "dur": 0.95,
          "vel": 52,
          "clef": "bass",
          "pitch": "A3"
        },
        {
          "midi": 53,
          "beat": 2.98,
          "dur": 0.95,
          "vel": 60,
          "clef": "bass",
          "pitch": "F3"
        },
        {
          "midi": 40,
          "beat": 3,
          "dur": 0.02,
          "vel": 101,
          "clef": "bass",
          "pitch": "E2"
        },
        {
          "midi": 42,
          "beat": 3,
          "dur": 1,
          "vel": 84,
          "clef": "bass",
          "acc": "#",
          "pitch": "F#2"
        },
        {
          "midi": 44,
          "beat": 3,
          "dur": 0.02,
          "vel": 67,
          "clef": "bass",
          "acc": "#",
          "pitch": "G#2"
        },
        {
          "midi": 45,
          "beat": 3,
          "dur": 1,
          "vel": 91,
          "clef": "bass",
          "pitch": "A2"
        },
        {
          "midi": 51,
          "beat": 3,
          "dur": 0.02,
          "vel": 70,
          "clef": "bass",
          "acc": "#",
          "pitch": "D#3"
        },
        {
          "midi": 60,
          "beat": 3,
          "dur": 1,
          "vel": 100,
          "clef": "treble",
          "pitch": "C4"
        },
        {
          "midi": 64,
          "beat": 3,
          "dur": 1,
          "vel": 58,
          "clef": "treble",
          "pitch": "E4"
        },
        {
          "midi": 69,
          "beat": 3,
          "dur": 1,
          "vel": 95,
          "clef": "treble",
          "pitch": "A4"
        },
        {
          "midi": 72,
          "beat": 3,
          "dur": 0.54,
          "vel": 83,
          "clef": "treble",
          "pitch": "C5"
        },
        {
          "midi": 76,
          "beat": 3,
          "dur": 1,
          "vel": 83,
          "clef": "treble",
          "pitch": "E5"
        },
        {
          "midi": 77,
          "beat": 3,
          "dur": 1,
          "vel": 84,
          "clef": "treble",
          "pitch": "F5"
        },
        {
          "midi": 81,
          "beat": 3,
          "dur": 1,
          "vel": 120,
          "clef": "treble",
          "pitch": "A5"
        },
        {
          "midi": 48,
          "beat": 3.02,
          "dur": 0.95,
          "vel": 55,
          "clef": "bass",
          "pitch": "C3"
        },
        {
          "midi": 62,
          "beat": 3.02,
          "dur": 0.95,
          "vel": 54,
          "clef": "treble",
          "pitch": "D4"
        },
        {
          "midi": 35,
          "beat": 3.65,
          "dur": 0.02,
          "vel": 79,
          "clef": "bass",
          "pitch": "B1"
        },
        {
          "midi": 48,
          "beat": 3.67,
          "dur": 0.33,
          "vel": 88,
          "clef": "bass",
          "pitch": "C3"
        },
        {
          "midi": 57,
          "beat": 3.67,
          "dur": 0.33,
          "vel": 113,
          "clef": "bass",
          "pitch": "A3"
        },
        {
          "midi": 60,
          "beat": 3.67,
          "dur": 0.33,
          "vel": 115,
          "clef": "treble",
          "pitch": "C4"
        },
        {
          "midi": 60,
          "beat": 3.67,
          "dur": 0.33,
          "vel": 96,
          "clef": "treble",
          "pitch": "C4"
        },
        {
          "midi": 64,
          "beat": 3.67,
          "dur": 0.33,
          "vel": 118,
          "clef": "treble",
          "pitch": "E4"
        },
        {
          "midi": 65,
          "beat": 3.67,
          "dur": 0.33,
          "vel": 62,
          "clef": "treble",
          "pitch": "F4"
        },
        {
          "midi": 69,
          "beat": 3.67,
          "dur": 0.33,
          "vel": 97,
          "clef": "treble",
          "pitch": "A4"
        },
        {
          "midi": 76,
          "beat": 3.67,
          "dur": 0.33,
          "vel": 83,
          "clef": "treble",
          "pitch": "E5"
        },
        {
          "midi": 77,
          "beat": 3.67,
          "dur": 0.33,
          "vel": 82,
          "clef": "treble",
          "pitch": "F5"
        },
        {
          "midi": 81,
          "beat": 3.67,
          "dur": 0.33,
          "vel": 83,
          "clef": "treble",
          "pitch": "A5"
        },
        {
          "midi": 84,
          "beat": 3.67,
          "dur": 0.33,
          "vel": 114,
          "clef": "treble",
          "pitch": "C6"
        },
        {
          "midi": 45,
          "beat": 3.94,
          "dur": 0.06,
          "vel": 53,
          "clef": "bass",
          "pitch": "A2"
        },
        {
          "midi": 53,
          "beat": 3.98,
          "dur": 0.02,
          "vel": 52,
          "clef": "bass",
          "pitch": "F3"
        }
      ]
    },
    {
      "_": "Treble: 37 notes, Bass: 60 notes",
      "number": 67,
      "notes": [
        {
          "midi": 35,
          "beat": 0,
          "dur": 0.02,
          "vel": 120,
          "clef": "bass",
          "pitch": "B1"
        },
        {
          "midi": 43,
          "beat": 0,
          "dur": 1.67,
          "vel": 80,
          "clef": "bass",
          "pitch": "G2"
        },
        {
          "midi": 51,
          "beat": 0,
          "dur": 0.02,
          "vel": 72,
          "clef": "bass",
          "acc": "#",
          "pitch": "D#3"
        },
        {
          "midi": 55,
          "beat": 0,
          "dur": 0.95,
          "vel": 52,
          "clef": "bass",
          "pitch": "G3"
        },
        {
          "midi": 62,
          "beat": 0.02,
          "dur": 0.95,
          "vel": 59,
          "clef": "treble",
          "pitch": "D4"
        },
        {
          "midi": 40,
          "beat": 0.33,
          "dur": 0.02,
          "vel": 100,
          "clef": "bass",
          "pitch": "E2"
        },
        {
          "midi": 43,
          "beat": 0.33,
          "dur": 0.02,
          "vel": 102,
          "clef": "bass",
          "pitch": "G2"
        },
        {
          "midi": 40,
          "beat": 0.65,
          "dur": 0.02,
          "vel": 64,
          "clef": "bass",
          "pitch": "E2"
        },
        {
          "midi": 43,
          "beat": 0.65,
          "dur": 0.02,
          "vel": 64,
          "clef": "bass",
          "pitch": "G2"
        },
        {
          "midi": 53,
          "beat": 0.98,
          "dur": 0.95,
          "vel": 52,
          "clef": "bass",
          "pitch": "F3"
        },
        {
          "midi": 31,
          "beat": 1,
          "dur": 1.67,
          "vel": 76,
          "clef": "bass",
          "pitch": "G1"
        },
        {
          "midi": 40,
          "beat": 1,
          "dur": 0.02,
          "vel": 106,
          "clef": "bass",
          "pitch": "E2"
        },
        {
          "midi": 43,
          "beat": 1,
          "dur": 0.02,
          "vel": 102,
          "clef": "bass",
          "pitch": "G2"
        },
        {
          "midi": 44,
          "beat": 1,
          "dur": 0.02,
          "vel": 76,
          "clef": "bass",
          "acc": "#",
          "pitch": "G#2"
        },
        {
          "midi": 51,
          "beat": 1,
          "dur": 0.02,
          "vel": 75,
          "clef": "bass",
          "acc": "#",
          "pitch": "D#3"
        },
        {
          "midi": 45,
          "beat": 1.02,
          "dur": 0.95,
          "vel": 55,
          "clef": "bass",
          "pitch": "A2"
        },
        {
          "midi": 55,
          "beat": 1.02,
          "dur": 0.95,
          "vel": 54,
          "clef": "bass",
          "pitch": "G3"
        },
        {
          "midi": 62,
          "beat": 1.02,
          "dur": 0.95,
          "vel": 58,
          "clef": "treble",
          "pitch": "D4"
        },
        {
          "midi": 40,
          "beat": 1.33,
          "dur": 0.02,
          "vel": 106,
          "clef": "bass",
          "pitch": "E2"
        },
        {
          "midi": 43,
          "beat": 1.33,
          "dur": 0.02,
          "vel": 103,
          "clef": "bass",
          "pitch": "G2"
        },
        {
          "midi": 40,
          "beat": 1.65,
          "dur": 0.02,
          "vel": 62,
          "clef": "bass",
          "pitch": "E2"
        },
        {
          "midi": 43,
          "beat": 1.65,
          "dur": 0.02,
          "vel": 57,
          "clef": "bass",
          "pitch": "G2"
        },
        {
          "midi": 47,
          "beat": 1.67,
          "dur": 0.53,
          "vel": 85,
          "clef": "bass",
          "pitch": "B2"
        },
        {
          "midi": 55,
          "beat": 1.67,
          "dur": 0.25,
          "vel": 115,
          "clef": "bass",
          "pitch": "G3"
        },
        {
          "midi": 59,
          "beat": 1.67,
          "dur": 0.25,
          "vel": 113,
          "clef": "bass",
          "pitch": "B3"
        },
        {
          "midi": 59,
          "beat": 1.67,
          "dur": 0.33,
          "vel": 102,
          "clef": "bass",
          "pitch": "B3"
        },
        {
          "midi": 62,
          "beat": 1.67,
          "dur": 0.25,
          "vel": 112,
          "clef": "treble",
          "pitch": "D4"
        },
        {
          "midi": 64,
          "beat": 1.67,
          "dur": 0.25,
          "vel": 62,
          "clef": "treble",
          "pitch": "E4"
        },
        {
          "midi": 67,
          "beat": 1.67,
          "dur": 0.27,
          "vel": 94,
          "clef": "treble",
          "pitch": "G4"
        },
        {
          "midi": 74,
          "beat": 1.67,
          "dur": 0.54,
          "vel": 84,
          "clef": "treble",
          "pitch": "D5"
        },
        {
          "midi": 77,
          "beat": 1.67,
          "dur": 0.25,
          "vel": 78,
          "clef": "treble",
          "pitch": "F5"
        },
        {
          "midi": 79,
          "beat": 1.67,
          "dur": 0.54,
          "vel": 75,
          "clef": "treble",
          "pitch": "G5"
        },
        {
          "midi": 83,
          "beat": 1.67,
          "dur": 0.25,
          "vel": 115,
          "clef": "treble",
          "pitch": "B5"
        },
        {
          "midi": 45,
          "beat": 1.83,
          "dur": 0.53,
          "vel": 91,
          "clef": "bass",
          "pitch": "A2"
        },
        {
          "midi": 53,
          "beat": 1.83,
          "dur": 0.25,
          "vel": 117,
          "clef": "bass",
          "pitch": "F3"
        },
        {
          "midi": 57,
          "beat": 1.83,
          "dur": 0.25,
          "vel": 111,
          "clef": "bass",
          "pitch": "A3"
        },
        {
          "midi": 60,
          "beat": 1.83,
          "dur": 0.25,
          "vel": 112,
          "clef": "treble",
          "pitch": "C4"
        },
        {
          "midi": 62,
          "beat": 1.83,
          "dur": 0.25,
          "vel": 57,
          "clef": "treble",
          "pitch": "D4"
        },
        {
          "midi": 72,
          "beat": 1.83,
          "dur": 0.54,
          "vel": 75,
          "clef": "treble",
          "pitch": "C5"
        },
        {
          "midi": 74,
          "beat": 1.83,
          "dur": 0.25,
          "vel": 82,
          "clef": "treble",
          "pitch": "D5"
        },
        {
          "midi": 77,
          "beat": 1.83,
          "dur": 0.54,
          "vel": 82,
          "clef": "treble",
          "pitch": "F5"
        },
        {
          "midi": 81,
          "beat": 1.83,
          "dur": 0.25,
          "vel": 113,
          "clef": "treble",
          "pitch": "A5"
        },
        {
          "midi": 57,
          "beat": 1.85,
          "dur": 0.33,
          "vel": 102,
          "clef": "bass",
          "pitch": "A3"
        },
        {
          "midi": 65,
          "beat": 1.88,
          "dur": 0.27,
          "vel": 98,
          "clef": "treble",
          "pitch": "F4"
        },
        {
          "midi": 62,
          "beat": 1.94,
          "dur": 0.95,
          "vel": 53,
          "clef": "treble",
          "pitch": "D4"
        },
        {
          "midi": 53,
          "beat": 1.96,
          "dur": 0.95,
          "vel": 57,
          "clef": "bass",
          "pitch": "F3"
        },
        {
          "midi": 55,
          "beat": 1.97,
          "dur": 0.95,
          "vel": 57,
          "clef": "bass",
          "pitch": "G3"
        },
        {
          "midi": 45,
          "beat": 1.98,
          "dur": 0.95,
          "vel": 54,
          "clef": "bass",
          "pitch": "A2"
        },
        {
          "midi": 35,
          "beat": 2,
          "dur": 0.02,
          "vel": 120,
          "clef": "bass",
          "pitch": "B1"
        },
        {
          "midi": 38,
          "beat": 2,
          "dur": 1.08,
          "vel": 79,
          "clef": "bass",
          "pitch": "D2"
        },
        {
          "midi": 40,
          "beat": 2,
          "dur": 0.02,
          "vel": 104,
          "clef": "bass",
          "pitch": "E2"
        },
        {
          "midi": 43,
          "beat": 2,
          "dur": 0.02,
          "vel": 100,
          "clef": "bass",
          "pitch": "G2"
        },
        {
          "midi": 47,
          "beat": 2,
          "dur": 1.1,
          "vel": 88,
          "clef": "bass",
          "pitch": "B2"
        },
        {
          "midi": 51,
          "beat": 2,
          "dur": 0.02,
          "vel": 74,
          "clef": "bass",
          "acc": "#",
          "pitch": "D#3"
        },
        {
          "midi": 55,
          "beat": 2,
          "dur": 1.11,
          "vel": 109,
          "clef": "bass",
          "pitch": "G3"
        },
        {
          "midi": 59,
          "beat": 2,
          "dur": 1.11,
          "vel": 110,
          "clef": "bass",
          "pitch": "B3"
        },
        {
          "midi": 59,
          "beat": 2,
          "dur": 1.1,
          "vel": 99,
          "clef": "bass",
          "pitch": "B3"
        },
        {
          "midi": 62,
          "beat": 2,
          "dur": 1.11,
          "vel": 115,
          "clef": "treble",
          "pitch": "D4"
        },
        {
          "midi": 64,
          "beat": 2,
          "dur": 1.1,
          "vel": 62,
          "clef": "treble",
          "pitch": "E4"
        },
        {
          "midi": 67,
          "beat": 2,
          "dur": 1.1,
          "vel": 97,
          "clef": "treble",
          "pitch": "G4"
        },
        {
          "midi": 74,
          "beat": 2,
          "dur": 1.11,
          "vel": 82,
          "clef": "treble",
          "pitch": "D5"
        },
        {
          "midi": 77,
          "beat": 2,
          "dur": 1.11,
          "vel": 79,
          "clef": "treble",
          "pitch": "F5"
        },
        {
          "midi": 79,
          "beat": 2,
          "dur": 1.11,
          "vel": 83,
          "clef": "treble",
          "pitch": "G5"
        },
        {
          "midi": 83,
          "beat": 2,
          "dur": 1.11,
          "vel": 121,
          "clef": "treble",
          "pitch": "B5"
        },
        {
          "midi": 40,
          "beat": 2.33,
          "dur": 0.02,
          "vel": 102,
          "clef": "bass",
          "pitch": "E2"
        },
        {
          "midi": 43,
          "beat": 2.33,
          "dur": 0.02,
          "vel": 106,
          "clef": "bass",
          "pitch": "G2"
        },
        {
          "midi": 40,
          "beat": 2.65,
          "dur": 0.02,
          "vel": 64,
          "clef": "bass",
          "pitch": "E2"
        },
        {
          "midi": 43,
          "beat": 2.65,
          "dur": 0.02,
          "vel": 58,
          "clef": "bass",
          "pitch": "G2"
        },
        {
          "midi": 43,
          "beat": 2.67,
          "dur": 0.52,
          "vel": 81,
          "clef": "bass",
          "pitch": "G2"
        },
        {
          "midi": 48,
          "beat": 2.67,
          "dur": 0.53,
          "vel": 88,
          "clef": "bass",
          "pitch": "C3"
        },
        {
          "midi": 57,
          "beat": 2.67,
          "dur": 0.54,
          "vel": 109,
          "clef": "bass",
          "pitch": "A3"
        },
        {
          "midi": 60,
          "beat": 2.67,
          "dur": 0.54,
          "vel": 111,
          "clef": "treble",
          "pitch": "C4"
        },
        {
          "midi": 60,
          "beat": 2.67,
          "dur": 0.53,
          "vel": 98,
          "clef": "treble",
          "pitch": "C4"
        },
        {
          "midi": 64,
          "beat": 2.67,
          "dur": 0.54,
          "vel": 115,
          "clef": "treble",
          "pitch": "E4"
        },
        {
          "midi": 65,
          "beat": 2.67,
          "dur": 0.53,
          "vel": 65,
          "clef": "treble",
          "pitch": "F4"
        },
        {
          "midi": 69,
          "beat": 2.67,
          "dur": 0.53,
          "vel": 100,
          "clef": "treble",
          "pitch": "A4"
        },
        {
          "midi": 76,
          "beat": 2.67,
          "dur": 0.54,
          "vel": 79,
          "clef": "treble",
          "pitch": "E5"
        },
        {
          "midi": 79,
          "beat": 2.67,
          "dur": 0.54,
          "vel": 79,
          "clef": "treble",
          "pitch": "G5"
        },
        {
          "midi": 81,
          "beat": 2.67,
          "dur": 0.54,
          "vel": 76,
          "clef": "treble",
          "pitch": "A5"
        },
        {
          "midi": 84,
          "beat": 2.67,
          "dur": 0.54,
          "vel": 113,
          "clef": "treble",
          "pitch": "C6"
        },
        {
          "midi": 62,
          "beat": 2.97,
          "dur": 0.95,
          "vel": 51,
          "clef": "treble",
          "pitch": "D4"
        },
        {
          "midi": 53,
          "beat": 2.99,
          "dur": 0.95,
          "vel": 51,
          "clef": "bass",
          "pitch": "F3"
        },
        {
          "midi": 38,
          "beat": 3,
          "dur": 1,
          "vel": 83,
          "clef": "bass",
          "pitch": "D2"
        },
        {
          "midi": 40,
          "beat": 3,
          "dur": 0.02,
          "vel": 102,
          "clef": "bass",
          "pitch": "E2"
        },
        {
          "midi": 43,
          "beat": 3,
          "dur": 0.02,
          "vel": 98,
          "clef": "bass",
          "pitch": "G2"
        },
        {
          "midi": 44,
          "beat": 3,
          "dur": 0.02,
          "vel": 72,
          "clef": "bass",
          "acc": "#",
          "pitch": "G#2"
        },
        {
          "midi": 51,
          "beat": 3,
          "dur": 0.02,
          "vel": 74,
          "clef": "bass",
          "acc": "#",
          "pitch": "D#3"
        },
        {
          "midi": 79,
          "beat": 3,
          "dur": 1,
          "vel": 121,
          "clef": "treble",
          "pitch": "G5"
        },
        {
          "midi": 45,
          "beat": 3.02,
          "dur": 0.95,
          "vel": 56,
          "clef": "bass",
          "pitch": "A2"
        },
        {
          "midi": 55,
          "beat": 3.02,
          "dur": 0.95,
          "vel": 54,
          "clef": "bass",
          "pitch": "G3"
        },
        {
          "midi": 40,
          "beat": 3.33,
          "dur": 0.02,
          "vel": 100,
          "clef": "bass",
          "pitch": "E2"
        },
        {
          "midi": 43,
          "beat": 3.33,
          "dur": 0.02,
          "vel": 106,
          "clef": "bass",
          "pitch": "G2"
        },
        {
          "midi": 40,
          "beat": 3.65,
          "dur": 0.02,
          "vel": 60,
          "clef": "bass",
          "pitch": "E2"
        },
        {
          "midi": 43,
          "beat": 3.65,
          "dur": 0.02,
          "vel": 65,
          "clef": "bass",
          "pitch": "G2"
        },
        {
          "midi": 75,
          "beat": 3.67,
          "dur": 0.33,
          "vel": 121,
          "clef": "treble",
          "acc": "#",
          "pitch": "D#5"
        },
        {
          "midi": 60,
          "beat": 3.95,
          "dur": 0.05,
          "vel": 52,
          "clef": "treble",
          "pitch": "C4"
        },
        {
          "midi": 45,
          "beat": 3.96,
          "dur": 0.04,
          "vel": 52,
          "clef": "bass",
          "pitch": "A2"
        }
      ]
    },
    {
      "_": "Treble: 32 notes, Bass: 38 notes",
      "number": 68,
      "notes": [
        {
          "midi": 35,
          "beat": 0,
          "dur": 0.02,
          "vel": 112,
          "clef": "bass",
          "pitch": "B1"
        },
        {
          "midi": 40,
          "beat": 0,
          "dur": 0.02,
          "vel": 104,
          "clef": "bass",
          "pitch": "E2"
        },
        {
          "midi": 41,
          "beat": 0,
          "dur": 1.67,
          "vel": 84,
          "clef": "bass",
          "pitch": "F2"
        },
        {
          "midi": 49,
          "beat": 0,
          "dur": 0.02,
          "vel": 113,
          "clef": "bass",
          "acc": "#",
          "pitch": "C#3"
        },
        {
          "midi": 50,
          "beat": 0,
          "dur": 0.95,
          "vel": 54,
          "clef": "bass",
          "pitch": "D3"
        },
        {
          "midi": 51,
          "beat": 0,
          "dur": 0.02,
          "vel": 67,
          "clef": "bass",
          "acc": "#",
          "pitch": "D#3"
        },
        {
          "midi": 53,
          "beat": 0.01,
          "dur": 0.95,
          "vel": 58,
          "clef": "bass",
          "pitch": "F3"
        },
        {
          "midi": 72,
          "beat": 0.67,
          "dur": 1.15,
          "vel": 118,
          "clef": "treble",
          "pitch": "C5"
        },
        {
          "midi": 53,
          "beat": 0.96,
          "dur": 0.95,
          "vel": 57,
          "clef": "bass",
          "pitch": "F3"
        },
        {
          "midi": 50,
          "beat": 0.97,
          "dur": 0.95,
          "vel": 56,
          "clef": "bass",
          "pitch": "D3"
        },
        {
          "midi": 40,
          "beat": 1,
          "dur": 0.02,
          "vel": 107,
          "clef": "bass",
          "pitch": "E2"
        },
        {
          "midi": 41,
          "beat": 1,
          "dur": 1.67,
          "vel": 82,
          "clef": "bass",
          "pitch": "F2"
        },
        {
          "midi": 44,
          "beat": 1,
          "dur": 0.02,
          "vel": 72,
          "clef": "bass",
          "acc": "#",
          "pitch": "G#2"
        },
        {
          "midi": 51,
          "beat": 1,
          "dur": 0.02,
          "vel": 70,
          "clef": "bass",
          "acc": "#",
          "pitch": "D#3"
        },
        {
          "midi": 60,
          "beat": 1.01,
          "dur": 0.95,
          "vel": 56,
          "clef": "treble",
          "pitch": "C4"
        },
        {
          "midi": 45,
          "beat": 1.02,
          "dur": 0.95,
          "vel": 57,
          "clef": "bass",
          "pitch": "A2"
        },
        {
          "midi": 35,
          "beat": 1.65,
          "dur": 0.02,
          "vel": 79,
          "clef": "bass",
          "pitch": "B1"
        },
        {
          "midi": 51,
          "beat": 1.65,
          "dur": 0.02,
          "vel": 28,
          "clef": "bass",
          "acc": "#",
          "pitch": "D#3"
        },
        {
          "midi": 72,
          "beat": 1.67,
          "dur": 2.33,
          "vel": 117,
          "clef": "treble",
          "pitch": "C5"
        },
        {
          "midi": 53,
          "beat": 1.94,
          "dur": 0.95,
          "vel": 52,
          "clef": "bass",
          "pitch": "F3"
        },
        {
          "midi": 45,
          "beat": 1.94,
          "dur": 0.95,
          "vel": 53,
          "clef": "bass",
          "pitch": "A2"
        },
        {
          "midi": 60,
          "beat": 2,
          "dur": 0.95,
          "vel": 51,
          "clef": "treble",
          "pitch": "C4"
        },
        {
          "midi": 35,
          "beat": 2,
          "dur": 0.02,
          "vel": 116,
          "clef": "bass",
          "pitch": "B1"
        },
        {
          "midi": 38,
          "beat": 2,
          "dur": 1.67,
          "vel": 85,
          "clef": "bass",
          "pitch": "D2"
        },
        {
          "midi": 48,
          "beat": 2,
          "dur": 1.1,
          "vel": 85,
          "clef": "bass",
          "pitch": "C3"
        },
        {
          "midi": 51,
          "beat": 2,
          "dur": 0.02,
          "vel": 68,
          "clef": "bass",
          "acc": "#",
          "pitch": "D#3"
        },
        {
          "midi": 56,
          "beat": 2,
          "dur": 1.11,
          "vel": 117,
          "clef": "bass",
          "acc": "#",
          "pitch": "G#3"
        },
        {
          "midi": 60,
          "beat": 2,
          "dur": 1.11,
          "vel": 113,
          "clef": "treble",
          "pitch": "C4"
        },
        {
          "midi": 60,
          "beat": 2,
          "dur": 1.1,
          "vel": 95,
          "clef": "treble",
          "pitch": "C4"
        },
        {
          "midi": 63,
          "beat": 2,
          "dur": 1.11,
          "vel": 115,
          "clef": "treble",
          "acc": "#",
          "pitch": "D#4"
        },
        {
          "midi": 63,
          "beat": 2,
          "dur": 1.1,
          "vel": 62,
          "clef": "treble",
          "acc": "#",
          "pitch": "D#4"
        },
        {
          "midi": 68,
          "beat": 2,
          "dur": 1.1,
          "vel": 96,
          "clef": "treble",
          "acc": "#",
          "pitch": "G#4"
        },
        {
          "midi": 75,
          "beat": 2,
          "dur": 1.11,
          "vel": 81,
          "clef": "treble",
          "acc": "#",
          "pitch": "D#5"
        },
        {
          "midi": 77,
          "beat": 2,
          "dur": 1.11,
          "vel": 83,
          "clef": "treble",
          "pitch": "F5"
        },
        {
          "midi": 80,
          "beat": 2,
          "dur": 1.11,
          "vel": 76,
          "clef": "treble",
          "acc": "#",
          "pitch": "G#5"
        },
        {
          "midi": 84,
          "beat": 2,
          "dur": 1.11,
          "vel": 119,
          "clef": "treble",
          "pitch": "C6"
        },
        {
          "midi": 50,
          "beat": 2.02,
          "dur": 0.95,
          "vel": 58,
          "clef": "bass",
          "pitch": "D3"
        },
        {
          "midi": 48,
          "beat": 2.63,
          "dur": 0.53,
          "vel": 87,
          "clef": "bass",
          "pitch": "C3"
        },
        {
          "midi": 56,
          "beat": 2.63,
          "dur": 0.54,
          "vel": 111,
          "clef": "bass",
          "acc": "#",
          "pitch": "G#3"
        },
        {
          "midi": 60,
          "beat": 2.63,
          "dur": 0.54,
          "vel": 111,
          "clef": "treble",
          "pitch": "C4"
        },
        {
          "midi": 63,
          "beat": 2.63,
          "dur": 0.54,
          "vel": 111,
          "clef": "treble",
          "acc": "#",
          "pitch": "D#4"
        },
        {
          "midi": 63,
          "beat": 2.63,
          "dur": 0.53,
          "vel": 65,
          "clef": "treble",
          "acc": "#",
          "pitch": "D#4"
        },
        {
          "midi": 75,
          "beat": 2.63,
          "dur": 0.54,
          "vel": 75,
          "clef": "treble",
          "acc": "#",
          "pitch": "D#5"
        },
        {
          "midi": 77,
          "beat": 2.63,
          "dur": 0.54,
          "vel": 81,
          "clef": "treble",
          "pitch": "F5"
        },
        {
          "midi": 80,
          "beat": 2.63,
          "dur": 0.54,
          "vel": 80,
          "clef": "treble",
          "acc": "#",
          "pitch": "G#5"
        },
        {
          "midi": 84,
          "beat": 2.63,
          "dur": 0.54,
          "vel": 118,
          "clef": "treble",
          "pitch": "C6"
        },
        {
          "midi": 60,
          "beat": 2.66,
          "dur": 0.53,
          "vel": 98,
          "clef": "treble",
          "pitch": "C4"
        },
        {
          "midi": 68,
          "beat": 2.66,
          "dur": 0.53,
          "vel": 97,
          "clef": "treble",
          "acc": "#",
          "pitch": "G#4"
        },
        {
          "midi": 53,
          "beat": 2.97,
          "dur": 0.95,
          "vel": 53,
          "clef": "bass",
          "pitch": "F3"
        },
        {
          "midi": 60,
          "beat": 2.97,
          "dur": 0.95,
          "vel": 57,
          "clef": "treble",
          "pitch": "C4"
        },
        {
          "midi": 45,
          "beat": 2.98,
          "dur": 0.95,
          "vel": 53,
          "clef": "bass",
          "pitch": "A2"
        },
        {
          "midi": 33,
          "beat": 3,
          "dur": 1,
          "vel": 78,
          "clef": "bass",
          "pitch": "A1"
        },
        {
          "midi": 40,
          "beat": 3,
          "dur": 0.02,
          "vel": 100,
          "clef": "bass",
          "pitch": "E2"
        },
        {
          "midi": 44,
          "beat": 3,
          "dur": 0.02,
          "vel": 73,
          "clef": "bass",
          "acc": "#",
          "pitch": "G#2"
        },
        {
          "midi": 51,
          "beat": 3,
          "dur": 0.02,
          "vel": 72,
          "clef": "bass",
          "acc": "#",
          "pitch": "D#3"
        },
        {
          "midi": 50,
          "beat": 3.02,
          "dur": 0.95,
          "vel": 56,
          "clef": "bass",
          "pitch": "D3"
        },
        {
          "midi": 48,
          "beat": 3.62,
          "dur": 0.38,
          "vel": 93,
          "clef": "bass",
          "pitch": "C3"
        },
        {
          "midi": 56,
          "beat": 3.62,
          "dur": 0.38,
          "vel": 118,
          "clef": "bass",
          "acc": "#",
          "pitch": "G#3"
        },
        {
          "midi": 60,
          "beat": 3.62,
          "dur": 0.38,
          "vel": 118,
          "clef": "treble",
          "pitch": "C4"
        },
        {
          "midi": 63,
          "beat": 3.62,
          "dur": 0.38,
          "vel": 118,
          "clef": "treble",
          "acc": "#",
          "pitch": "D#4"
        },
        {
          "midi": 63,
          "beat": 3.62,
          "dur": 0.38,
          "vel": 58,
          "clef": "treble",
          "acc": "#",
          "pitch": "D#4"
        },
        {
          "midi": 75,
          "beat": 3.62,
          "dur": 0.38,
          "vel": 82,
          "clef": "treble",
          "acc": "#",
          "pitch": "D#5"
        },
        {
          "midi": 77,
          "beat": 3.62,
          "dur": 0.38,
          "vel": 77,
          "clef": "treble",
          "pitch": "F5"
        },
        {
          "midi": 80,
          "beat": 3.62,
          "dur": 0.38,
          "vel": 84,
          "clef": "treble",
          "acc": "#",
          "pitch": "G#5"
        },
        {
          "midi": 84,
          "beat": 3.62,
          "dur": 0.38,
          "vel": 113,
          "clef": "treble",
          "pitch": "C6"
        },
        {
          "midi": 35,
          "beat": 3.65,
          "dur": 0.02,
          "vel": 72,
          "clef": "bass",
          "pitch": "B1"
        },
        {
          "midi": 60,
          "beat": 3.66,
          "dur": 0.34,
          "vel": 100,
          "clef": "treble",
          "pitch": "C4"
        },
        {
          "midi": 68,
          "beat": 3.66,
          "dur": 0.34,
          "vel": 94,
          "clef": "treble",
          "acc": "#",
          "pitch": "G#4"
        },
        {
          "midi": 58,
          "beat": 3.96,
          "dur": 0.04,
          "vel": 53,
          "clef": "bass",
          "acc": "#",
          "pitch": "A#3"
        },
        {
          "midi": 53,
          "beat": 3.98,
          "dur": 0.02,
          "vel": 52,
          "clef": "bass",
          "pitch": "F3"
        }
      ]
    },
    {
      "_": "Treble: 30 notes, Bass: 43 notes",
      "number": 69,
      "notes": [
        {
          "midi": 34,
          "beat": 0,
          "dur": 1.67,
          "vel": 79,
          "clef": "bass",
          "acc": "#",
          "pitch": "A#1"
        },
        {
          "midi": 35,
          "beat": 0,
          "dur": 0.02,
          "vel": 121,
          "clef": "bass",
          "pitch": "B1"
        },
        {
          "midi": 51,
          "beat": 0,
          "dur": 0.02,
          "vel": 69,
          "clef": "bass",
          "acc": "#",
          "pitch": "D#3"
        },
        {
          "midi": 57,
          "beat": 0,
          "dur": 0.02,
          "vel": 114,
          "clef": "bass",
          "pitch": "A3"
        },
        {
          "midi": 43,
          "beat": 0.02,
          "dur": 0.95,
          "vel": 57,
          "clef": "bass",
          "pitch": "G2"
        },
        {
          "midi": 50,
          "beat": 0.02,
          "dur": 0.95,
          "vel": 55,
          "clef": "bass",
          "pitch": "D3"
        },
        {
          "midi": 53,
          "beat": 0.95,
          "dur": 0.95,
          "vel": 51,
          "clef": "bass",
          "pitch": "F3"
        },
        {
          "midi": 50,
          "beat": 0.98,
          "dur": 0.95,
          "vel": 52,
          "clef": "bass",
          "pitch": "D3"
        },
        {
          "midi": 34,
          "beat": 1,
          "dur": 1.67,
          "vel": 77,
          "clef": "bass",
          "acc": "#",
          "pitch": "A#1"
        },
        {
          "midi": 40,
          "beat": 1,
          "dur": 0.02,
          "vel": 100,
          "clef": "bass",
          "pitch": "E2"
        },
        {
          "midi": 44,
          "beat": 1,
          "dur": 0.02,
          "vel": 76,
          "clef": "bass",
          "acc": "#",
          "pitch": "G#2"
        },
        {
          "midi": 46,
          "beat": 1,
          "dur": 1.1,
          "vel": 91,
          "clef": "bass",
          "acc": "#",
          "pitch": "A#2"
        },
        {
          "midi": 51,
          "beat": 1,
          "dur": 0.02,
          "vel": 69,
          "clef": "bass",
          "acc": "#",
          "pitch": "D#3"
        },
        {
          "midi": 55,
          "beat": 1,
          "dur": 1.11,
          "vel": 111,
          "clef": "bass",
          "pitch": "G3"
        },
        {
          "midi": 58,
          "beat": 1,
          "dur": 1.11,
          "vel": 118,
          "clef": "bass",
          "acc": "#",
          "pitch": "A#3"
        },
        {
          "midi": 58,
          "beat": 1,
          "dur": 1.1,
          "vel": 103,
          "clef": "bass",
          "acc": "#",
          "pitch": "A#3"
        },
        {
          "midi": 62,
          "beat": 1,
          "dur": 1.11,
          "vel": 116,
          "clef": "treble",
          "pitch": "D4"
        },
        {
          "midi": 62,
          "beat": 1,
          "dur": 1.1,
          "vel": 63,
          "clef": "treble",
          "pitch": "D4"
        },
        {
          "midi": 67,
          "beat": 1,
          "dur": 1.1,
          "vel": 94,
          "clef": "treble",
          "pitch": "G4"
        },
        {
          "midi": 74,
          "beat": 1,
          "dur": 1.11,
          "vel": 84,
          "clef": "treble",
          "pitch": "D5"
        },
        {
          "midi": 77,
          "beat": 1,
          "dur": 1.11,
          "vel": 80,
          "clef": "treble",
          "pitch": "F5"
        },
        {
          "midi": 79,
          "beat": 1,
          "dur": 1.11,
          "vel": 81,
          "clef": "treble",
          "pitch": "G5"
        },
        {
          "midi": 82,
          "beat": 1,
          "dur": 1.11,
          "vel": 115,
          "clef": "treble",
          "acc": "#",
          "pitch": "A#5"
        },
        {
          "midi": 43,
          "beat": 1.02,
          "dur": 0.95,
          "vel": 55,
          "clef": "bass",
          "pitch": "G2"
        },
        {
          "midi": 58,
          "beat": 1.02,
          "dur": 0.95,
          "vel": 59,
          "clef": "bass",
          "acc": "#",
          "pitch": "A#3"
        },
        {
          "midi": 44,
          "beat": 1.63,
          "dur": 0.53,
          "vel": 92,
          "clef": "bass",
          "acc": "#",
          "pitch": "G#2"
        },
        {
          "midi": 53,
          "beat": 1.63,
          "dur": 0.54,
          "vel": 115,
          "clef": "bass",
          "pitch": "F3"
        },
        {
          "midi": 56,
          "beat": 1.63,
          "dur": 0.54,
          "vel": 116,
          "clef": "bass",
          "acc": "#",
          "pitch": "G#3"
        },
        {
          "midi": 60,
          "beat": 1.63,
          "dur": 0.54,
          "vel": 111,
          "clef": "treble",
          "pitch": "C4"
        },
        {
          "midi": 60,
          "beat": 1.63,
          "dur": 0.53,
          "vel": 58,
          "clef": "treble",
          "pitch": "C4"
        },
        {
          "midi": 72,
          "beat": 1.63,
          "dur": 0.54,
          "vel": 82,
          "clef": "treble",
          "pitch": "C5"
        },
        {
          "midi": 75,
          "beat": 1.63,
          "dur": 0.54,
          "vel": 80,
          "clef": "treble",
          "acc": "#",
          "pitch": "D#5"
        },
        {
          "midi": 77,
          "beat": 1.63,
          "dur": 0.54,
          "vel": 76,
          "clef": "treble",
          "pitch": "F5"
        },
        {
          "midi": 80,
          "beat": 1.63,
          "dur": 0.54,
          "vel": 120,
          "clef": "treble",
          "acc": "#",
          "pitch": "G#5"
        },
        {
          "midi": 35,
          "beat": 1.65,
          "dur": 0.02,
          "vel": 80,
          "clef": "bass",
          "pitch": "B1"
        },
        {
          "midi": 56,
          "beat": 1.66,
          "dur": 0.53,
          "vel": 103,
          "clef": "bass",
          "acc": "#",
          "pitch": "G#3"
        },
        {
          "midi": 65,
          "beat": 1.66,
          "dur": 0.53,
          "vel": 94,
          "clef": "treble",
          "pitch": "F4"
        },
        {
          "midi": 58,
          "beat": 1.99,
          "dur": 0.95,
          "vel": 51,
          "clef": "bass",
          "acc": "#",
          "pitch": "A#3"
        },
        {
          "midi": 35,
          "beat": 2,
          "dur": 0.02,
          "vel": 121,
          "clef": "bass",
          "pitch": "B1"
        },
        {
          "midi": 41,
          "beat": 2,
          "dur": 1.67,
          "vel": 85,
          "clef": "bass",
          "pitch": "F2"
        },
        {
          "midi": 43,
          "beat": 2,
          "dur": 0.95,
          "vel": 54,
          "clef": "bass",
          "pitch": "G2"
        },
        {
          "midi": 46,
          "beat": 2,
          "dur": 1.1,
          "vel": 89,
          "clef": "bass",
          "acc": "#",
          "pitch": "A#2"
        },
        {
          "midi": 50,
          "beat": 2,
          "dur": 0.95,
          "vel": 60,
          "clef": "bass",
          "pitch": "D3"
        },
        {
          "midi": 51,
          "beat": 2,
          "dur": 0.02,
          "vel": 73,
          "clef": "bass",
          "acc": "#",
          "pitch": "D#3"
        },
        {
          "midi": 55,
          "beat": 2,
          "dur": 1.11,
          "vel": 114,
          "clef": "bass",
          "pitch": "G3"
        },
        {
          "midi": 58,
          "beat": 2,
          "dur": 1.11,
          "vel": 115,
          "clef": "bass",
          "acc": "#",
          "pitch": "A#3"
        },
        {
          "midi": 58,
          "beat": 2,
          "dur": 1.1,
          "vel": 98,
          "clef": "bass",
          "acc": "#",
          "pitch": "A#3"
        },
        {
          "midi": 62,
          "beat": 2,
          "dur": 1.11,
          "vel": 112,
          "clef": "treble",
          "pitch": "D4"
        },
        {
          "midi": 62,
          "beat": 2,
          "dur": 1.1,
          "vel": 63,
          "clef": "treble",
          "pitch": "D4"
        },
        {
          "midi": 67,
          "beat": 2,
          "dur": 1.1,
          "vel": 102,
          "clef": "treble",
          "pitch": "G4"
        },
        {
          "midi": 74,
          "beat": 2,
          "dur": 1.11,
          "vel": 80,
          "clef": "treble",
          "pitch": "D5"
        },
        {
          "midi": 77,
          "beat": 2,
          "dur": 1.11,
          "vel": 81,
          "clef": "treble",
          "pitch": "F5"
        },
        {
          "midi": 79,
          "beat": 2,
          "dur": 1.11,
          "vel": 82,
          "clef": "treble",
          "pitch": "G5"
        },
        {
          "midi": 82,
          "beat": 2,
          "dur": 1.11,
          "vel": 113,
          "clef": "treble",
          "acc": "#",
          "pitch": "A#5"
        },
        {
          "midi": 53,
          "beat": 2.01,
          "dur": 0.95,
          "vel": 58,
          "clef": "bass",
          "pitch": "F3"
        },
        {
          "midi": 48,
          "beat": 2.62,
          "dur": 0.53,
          "vel": 88,
          "clef": "bass",
          "pitch": "C3"
        },
        {
          "midi": 56,
          "beat": 2.62,
          "dur": 0.54,
          "vel": 115,
          "clef": "bass",
          "acc": "#",
          "pitch": "G#3"
        },
        {
          "midi": 60,
          "beat": 2.62,
          "dur": 0.54,
          "vel": 111,
          "clef": "treble",
          "pitch": "C4"
        },
        {
          "midi": 63,
          "beat": 2.62,
          "dur": 0.54,
          "vel": 109,
          "clef": "treble",
          "acc": "#",
          "pitch": "D#4"
        },
        {
          "midi": 63,
          "beat": 2.62,
          "dur": 0.53,
          "vel": 62,
          "clef": "treble",
          "acc": "#",
          "pitch": "D#4"
        },
        {
          "midi": 75,
          "beat": 2.62,
          "dur": 0.54,
          "vel": 75,
          "clef": "treble",
          "acc": "#",
          "pitch": "D#5"
        },
        {
          "midi": 77,
          "beat": 2.62,
          "dur": 0.54,
          "vel": 77,
          "clef": "treble",
          "pitch": "F5"
        },
        {
          "midi": 80,
          "beat": 2.62,
          "dur": 0.54,
          "vel": 83,
          "clef": "treble",
          "acc": "#",
          "pitch": "G#5"
        },
        {
          "midi": 84,
          "beat": 2.62,
          "dur": 0.54,
          "vel": 112,
          "clef": "treble",
          "pitch": "C6"
        },
        {
          "midi": 51,
          "beat": 2.65,
          "dur": 0.02,
          "vel": 34,
          "clef": "bass",
          "acc": "#",
          "pitch": "D#3"
        },
        {
          "midi": 60,
          "beat": 2.66,
          "dur": 0.53,
          "vel": 95,
          "clef": "treble",
          "pitch": "C4"
        },
        {
          "midi": 68,
          "beat": 2.66,
          "dur": 0.53,
          "vel": 95,
          "clef": "treble",
          "acc": "#",
          "pitch": "G#4"
        },
        {
          "midi": 34,
          "beat": 3,
          "dur": 1,
          "vel": 79,
          "clef": "bass",
          "acc": "#",
          "pitch": "A#1"
        },
        {
          "midi": 40,
          "beat": 3,
          "dur": 0.02,
          "vel": 101,
          "clef": "bass",
          "pitch": "E2"
        },
        {
          "midi": 44,
          "beat": 3,
          "dur": 0.02,
          "vel": 67,
          "clef": "bass",
          "acc": "#",
          "pitch": "G#2"
        },
        {
          "midi": 51,
          "beat": 3,
          "dur": 0.02,
          "vel": 69,
          "clef": "bass",
          "acc": "#",
          "pitch": "D#3"
        },
        {
          "midi": 35,
          "beat": 3.65,
          "dur": 0.02,
          "vel": 80,
          "clef": "bass",
          "pitch": "B1"
        },
        {
          "midi": 51,
          "beat": 3.65,
          "dur": 0.02,
          "vel": 35,
          "clef": "bass",
          "acc": "#",
          "pitch": "D#3"
        }
      ]
    },
    {
      "_": "Treble: 4 notes, Bass: 26 notes",
      "number": 70,
      "notes": [
        {
          "midi": 31,
          "beat": 0,
          "dur": 1.67,
          "vel": 81,
          "clef": "bass",
          "pitch": "G1"
        },
        {
          "midi": 35,
          "beat": 0,
          "dur": 0.02,
          "vel": 119,
          "clef": "bass",
          "pitch": "B1"
        },
        {
          "midi": 43,
          "beat": 0,
          "dur": 4,
          "vel": 91,
          "clef": "bass",
          "pitch": "G2"
        },
        {
          "midi": 49,
          "beat": 0,
          "dur": 0.02,
          "vel": 117,
          "clef": "bass",
          "acc": "#",
          "pitch": "C#3"
        },
        {
          "midi": 51,
          "beat": 0,
          "dur": 0.02,
          "vel": 69,
          "clef": "bass",
          "acc": "#",
          "pitch": "D#3"
        },
        {
          "midi": 62,
          "beat": 0,
          "dur": 4,
          "vel": 95,
          "clef": "treble",
          "pitch": "D4"
        },
        {
          "midi": 65,
          "beat": 0,
          "dur": 4,
          "vel": 64,
          "clef": "treble",
          "pitch": "F4"
        },
        {
          "midi": 70,
          "beat": 0,
          "dur": 4,
          "vel": 97,
          "clef": "treble",
          "acc": "#",
          "pitch": "A#4"
        },
        {
          "midi": 70,
          "beat": 0,
          "dur": 4,
          "vel": 115,
          "clef": "treble",
          "acc": "#",
          "pitch": "A#4"
        },
        {
          "midi": 43,
          "beat": 0.67,
          "dur": 0.54,
          "vel": 112,
          "clef": "bass",
          "pitch": "G2"
        },
        {
          "midi": 50,
          "beat": 0.67,
          "dur": 0.54,
          "vel": 117,
          "clef": "bass",
          "pitch": "D3"
        },
        {
          "midi": 53,
          "beat": 0.67,
          "dur": 0.54,
          "vel": 109,
          "clef": "bass",
          "pitch": "F3"
        },
        {
          "midi": 58,
          "beat": 0.67,
          "dur": 0.54,
          "vel": 113,
          "clef": "bass",
          "acc": "#",
          "pitch": "A#3"
        },
        {
          "midi": 37,
          "beat": 1,
          "dur": 0.02,
          "vel": 95,
          "clef": "bass",
          "acc": "#",
          "pitch": "C#2"
        },
        {
          "midi": 43,
          "beat": 1,
          "dur": 1.67,
          "vel": 83,
          "clef": "bass",
          "pitch": "G2"
        },
        {
          "midi": 44,
          "beat": 1,
          "dur": 0.02,
          "vel": 69,
          "clef": "bass",
          "acc": "#",
          "pitch": "G#2"
        },
        {
          "midi": 51,
          "beat": 1,
          "dur": 0.02,
          "vel": 68,
          "clef": "bass",
          "acc": "#",
          "pitch": "D#3"
        },
        {
          "midi": 35,
          "beat": 1.65,
          "dur": 0.02,
          "vel": 76,
          "clef": "bass",
          "pitch": "B1"
        },
        {
          "midi": 31,
          "beat": 2,
          "dur": 1.67,
          "vel": 85,
          "clef": "bass",
          "pitch": "G1"
        },
        {
          "midi": 35,
          "beat": 2,
          "dur": 0.02,
          "vel": 121,
          "clef": "bass",
          "pitch": "B1"
        },
        {
          "midi": 43,
          "beat": 2,
          "dur": 2,
          "vel": 116,
          "clef": "bass",
          "pitch": "G2"
        },
        {
          "midi": 50,
          "beat": 2,
          "dur": 2,
          "vel": 117,
          "clef": "bass",
          "pitch": "D3"
        },
        {
          "midi": 51,
          "beat": 2,
          "dur": 0.02,
          "vel": 72,
          "clef": "bass",
          "acc": "#",
          "pitch": "D#3"
        },
        {
          "midi": 53,
          "beat": 2,
          "dur": 2,
          "vel": 109,
          "clef": "bass",
          "pitch": "F3"
        },
        {
          "midi": 58,
          "beat": 2.02,
          "dur": 1.98,
          "vel": 113,
          "clef": "bass",
          "acc": "#",
          "pitch": "A#3"
        },
        {
          "midi": 37,
          "beat": 3,
          "dur": 0.02,
          "vel": 93,
          "clef": "bass",
          "acc": "#",
          "pitch": "C#2"
        },
        {
          "midi": 43,
          "beat": 3,
          "dur": 1,
          "vel": 85,
          "clef": "bass",
          "pitch": "G2"
        },
        {
          "midi": 44,
          "beat": 3,
          "dur": 0.02,
          "vel": 72,
          "clef": "bass",
          "acc": "#",
          "pitch": "G#2"
        },
        {
          "midi": 51,
          "beat": 3,
          "dur": 0.02,
          "vel": 69,
          "clef": "bass",
          "acc": "#",
          "pitch": "D#3"
        },
        {
          "midi": 35,
          "beat": 3.65,
          "dur": 0.02,
          "vel": 79,
          "clef": "bass",
          "pitch": "B1"
        }
      ]
    },
    {
      "_": "Treble: 4 notes, Bass: 23 notes",
      "number": 71,
      "notes": [
        {
          "midi": 31,
          "beat": 0,
          "dur": 2.24,
          "vel": 82,
          "clef": "bass",
          "pitch": "G1"
        },
        {
          "midi": 35,
          "beat": 0,
          "dur": 0.02,
          "vel": 119,
          "clef": "bass",
          "pitch": "B1"
        },
        {
          "midi": 43,
          "beat": 0,
          "dur": 4,
          "vel": 88,
          "clef": "bass",
          "pitch": "G2"
        },
        {
          "midi": 51,
          "beat": 0,
          "dur": 0.02,
          "vel": 69,
          "clef": "bass",
          "acc": "#",
          "pitch": "D#3"
        },
        {
          "midi": 63,
          "beat": 0,
          "dur": 4,
          "vel": 95,
          "clef": "treble",
          "acc": "#",
          "pitch": "D#4"
        },
        {
          "midi": 66,
          "beat": 0,
          "dur": 4,
          "vel": 60,
          "clef": "treble",
          "acc": "#",
          "pitch": "F#4"
        },
        {
          "midi": 71,
          "beat": 0,
          "dur": 4,
          "vel": 96,
          "clef": "treble",
          "pitch": "B4"
        },
        {
          "midi": 71,
          "beat": 0,
          "dur": 4,
          "vel": 114,
          "clef": "treble",
          "pitch": "B4"
        },
        {
          "midi": 43,
          "beat": 0.67,
          "dur": 0.54,
          "vel": 117,
          "clef": "bass",
          "pitch": "G2"
        },
        {
          "midi": 51,
          "beat": 0.67,
          "dur": 0.54,
          "vel": 109,
          "clef": "bass",
          "acc": "#",
          "pitch": "D#3"
        },
        {
          "midi": 54,
          "beat": 0.67,
          "dur": 0.54,
          "vel": 114,
          "clef": "bass",
          "acc": "#",
          "pitch": "F#3"
        },
        {
          "midi": 59,
          "beat": 0.67,
          "dur": 0.54,
          "vel": 113,
          "clef": "bass",
          "pitch": "B3"
        },
        {
          "midi": 37,
          "beat": 1,
          "dur": 0.02,
          "vel": 90,
          "clef": "bass",
          "acc": "#",
          "pitch": "C#2"
        },
        {
          "midi": 44,
          "beat": 1,
          "dur": 0.02,
          "vel": 70,
          "clef": "bass",
          "acc": "#",
          "pitch": "G#2"
        },
        {
          "midi": 51,
          "beat": 1,
          "dur": 0.02,
          "vel": 69,
          "clef": "bass",
          "acc": "#",
          "pitch": "D#3"
        },
        {
          "midi": 35,
          "beat": 1.65,
          "dur": 0.02,
          "vel": 76,
          "clef": "bass",
          "pitch": "B1"
        },
        {
          "midi": 43,
          "beat": 1.67,
          "dur": 2.33,
          "vel": 76,
          "clef": "bass",
          "pitch": "G2"
        },
        {
          "midi": 35,
          "beat": 2,
          "dur": 0.02,
          "vel": 119,
          "clef": "bass",
          "pitch": "B1"
        },
        {
          "midi": 43,
          "beat": 2,
          "dur": 2,
          "vel": 109,
          "clef": "bass",
          "pitch": "G2"
        },
        {
          "midi": 51,
          "beat": 2,
          "dur": 0.02,
          "vel": 72,
          "clef": "bass",
          "acc": "#",
          "pitch": "D#3"
        },
        {
          "midi": 51,
          "beat": 2,
          "dur": 2,
          "vel": 110,
          "clef": "bass",
          "acc": "#",
          "pitch": "D#3"
        },
        {
          "midi": 54,
          "beat": 2,
          "dur": 2,
          "vel": 116,
          "clef": "bass",
          "acc": "#",
          "pitch": "F#3"
        },
        {
          "midi": 59,
          "beat": 2,
          "dur": 2,
          "vel": 116,
          "clef": "bass",
          "pitch": "B3"
        },
        {
          "midi": 37,
          "beat": 3,
          "dur": 0.02,
          "vel": 93,
          "clef": "bass",
          "acc": "#",
          "pitch": "C#2"
        },
        {
          "midi": 44,
          "beat": 3,
          "dur": 0.02,
          "vel": 73,
          "clef": "bass",
          "acc": "#",
          "pitch": "G#2"
        },
        {
          "midi": 51,
          "beat": 3,
          "dur": 0.02,
          "vel": 75,
          "clef": "bass",
          "acc": "#",
          "pitch": "D#3"
        },
        {
          "midi": 35,
          "beat": 3.65,
          "dur": 0.02,
          "vel": 79,
          "clef": "bass",
          "pitch": "B1"
        }
      ]
    },
    {
      "_": "Treble: 5 notes, Bass: 1 notes",
      "number": 72,
      "notes": [
        {
          "midi": 35,
          "beat": 0,
          "dur": 0.02,
          "vel": 112,
          "clef": "bass",
          "pitch": "B1"
        },
        {
          "midi": 75,
          "beat": 1.98,
          "dur": 0.66,
          "vel": 100,
          "clef": "treble",
          "acc": "#",
          "pitch": "D#5"
        },
        {
          "midi": 67,
          "beat": 2,
          "dur": 0.66,
          "vel": 102,
          "clef": "treble",
          "pitch": "G4"
        },
        {
          "midi": 76,
          "beat": 2.01,
          "dur": 0.66,
          "vel": 101,
          "clef": "treble",
          "pitch": "E5"
        },
        {
          "midi": 81,
          "beat": 2.01,
          "dur": 0.66,
          "vel": 98,
          "clef": "treble",
          "pitch": "A5"
        },
        {
          "midi": 75,
          "beat": 3.98,
          "dur": 0.02,
          "vel": 99,
          "clef": "treble",
          "acc": "#",
          "pitch": "D#5"
        }
      ]
    },
    {
      "_": "Treble: 8 notes, Bass: 7 notes",
      "number": 73,
      "notes": [
        {
          "midi": 67,
          "beat": -0.01,
          "dur": 0.66,
          "vel": 102,
          "clef": "treble",
          "pitch": "G4"
        },
        {
          "midi": 76,
          "beat": 0.01,
          "dur": 0.66,
          "vel": 98,
          "clef": "treble",
          "pitch": "E5"
        },
        {
          "midi": 81,
          "beat": 0.01,
          "dur": 0.66,
          "vel": 98,
          "clef": "treble",
          "pitch": "A5"
        },
        {
          "midi": 75,
          "beat": 1.69,
          "dur": 0.66,
          "vel": 96,
          "clef": "treble",
          "acc": "#",
          "pitch": "D#5"
        },
        {
          "midi": 67,
          "beat": 1.71,
          "dur": 0.66,
          "vel": 94,
          "clef": "treble",
          "pitch": "G4"
        },
        {
          "midi": 76,
          "beat": 1.71,
          "dur": 0.66,
          "vel": 94,
          "clef": "treble",
          "pitch": "E5"
        },
        {
          "midi": 81,
          "beat": 1.71,
          "dur": 0.66,
          "vel": 95,
          "clef": "treble",
          "pitch": "A5"
        },
        {
          "midi": 35,
          "beat": 3,
          "dur": 0.02,
          "vel": 120,
          "clef": "bass",
          "pitch": "B1"
        },
        {
          "midi": 36,
          "beat": 3,
          "dur": 0.79,
          "vel": 99,
          "clef": "bass",
          "pitch": "C2"
        },
        {
          "midi": 36,
          "beat": 3,
          "dur": 1,
          "vel": 83,
          "clef": "bass",
          "pitch": "C2"
        },
        {
          "midi": 36,
          "beat": 3,
          "dur": 1,
          "vel": 115,
          "clef": "bass",
          "pitch": "C2"
        },
        {
          "midi": 41,
          "beat": 3,
          "dur": 0.02,
          "vel": 120,
          "clef": "bass",
          "pitch": "F2"
        },
        {
          "midi": 48,
          "beat": 3,
          "dur": 1,
          "vel": 115,
          "clef": "bass",
          "pitch": "C3"
        },
        {
          "midi": 72,
          "beat": 3,
          "dur": 0.57,
          "vel": 115,
          "clef": "treble",
          "pitch": "C5"
        },
        {
          "midi": 48,
          "beat": 3.01,
          "dur": 0.79,
          "vel": 95,
          "clef": "bass",
          "pitch": "C3"
        }
      ]
    }
  ],
  "_meta": {
    "source": "MIDI",
    "sourceFile": "fly-me-to-the-moon.mid",
    "totalNotes": 3320,
    "totalMeasures": 74,
    "tracks": 29
  }
}