{
  "title": "Clair de Lune",
  "composer": "Claude Debussy",
  "key": "Db major",
  "tempo": 48,
  "timeSig": "9/8",
  "beatsPerMeasure": 4.5,
  "measures": [
    {
      "_": "Treble: 8 notes, Bass: 0 notes",
      "number": 0,
      "notes": [
        {
          "midi": 65,
          "beat": 0.5,
          "dur": 0.51,
          "vel": 39,
          "clef": "treble",
          "pitch": "F4"
        },
        {
          "midi": 65,
          "beat": 0.5,
          "dur": 3.94,
          "vel": 48,
          "clef": "treble",
          "pitch": "F4"
        },
        {
          "midi": 68,
          "beat": 0.5,
          "dur": 0.51,
          "vel": 39,
          "clef": "treble",
          "pitch": "G#4"
        },
        {
          "midi": 68,
          "beat": 0.5,
          "dur": 3.94,
          "vel": 48,
          "clef": "treble",
          "pitch": "G#4"
        },
        {
          "midi": 77,
          "beat": 1,
          "dur": 1.59,
          "vel": 61,
          "clef": "treble",
          "pitch": "F5"
        },
        {
          "midi": 80,
          "beat": 1,
          "dur": 1.64,
          "vel": 61,
          "clef": "treble",
          "pitch": "G#5"
        },
        {
          "midi": 73,
          "beat": 3,
          "dur": 1.5,
          "vel": 46,
          "clef": "treble",
          "pitch": "C#5"
        },
        {
          "midi": 77,
          "beat": 3,
          "dur": 1.5,
          "vel": 46,
          "clef": "treble",
          "pitch": "F5"
        }
      ]
    },
    {
      "_": "Treble: 8 notes, Bass: 0 notes",
      "number": 1,
      "notes": [
        {
          "midi": 66,
          "beat": 0,
          "dur": 3.5,
          "vel": 55,
          "clef": "treble",
          "pitch": "F#4"
        },
        {
          "midi": 69,
          "beat": 0,
          "dur": 3.5,
          "vel": 55,
          "clef": "treble",
          "pitch": "A4"
        },
        {
          "midi": 72,
          "beat": 0.5,
          "dur": 0.38,
          "vel": 45,
          "clef": "treble",
          "pitch": "C5"
        },
        {
          "midi": 75,
          "beat": 0.5,
          "dur": 0.38,
          "vel": 45,
          "clef": "treble",
          "pitch": "D#5"
        },
        {
          "midi": 73,
          "beat": 1,
          "dur": 0.38,
          "vel": 49,
          "clef": "treble",
          "pitch": "C#5"
        },
        {
          "midi": 77,
          "beat": 1,
          "dur": 0.38,
          "vel": 49,
          "clef": "treble",
          "pitch": "F5"
        },
        {
          "midi": 72,
          "beat": 1.5,
          "dur": 2.29,
          "vel": 51,
          "clef": "treble",
          "pitch": "C5"
        },
        {
          "midi": 75,
          "beat": 1.5,
          "dur": 2.29,
          "vel": 51,
          "clef": "treble",
          "pitch": "D#5"
        }
      ]
    },
    {
      "_": "Treble: 10 notes, Bass: 0 notes",
      "number": 2,
      "notes": [
        {
          "midi": 65,
          "beat": 0,
          "dur": 3.49,
          "vel": 51,
          "clef": "treble",
          "pitch": "F4"
        },
        {
          "midi": 68,
          "beat": 0,
          "dur": 3.49,
          "vel": 51,
          "clef": "treble",
          "pitch": "G#4"
        },
        {
          "midi": 70,
          "beat": 0.5,
          "dur": 0.34,
          "vel": 46,
          "clef": "treble",
          "acc": "#",
          "pitch": "A#4"
        },
        {
          "midi": 73,
          "beat": 0.5,
          "dur": 0.34,
          "vel": 46,
          "clef": "treble",
          "pitch": "C#5"
        },
        {
          "midi": 72,
          "beat": 1,
          "dur": 0.34,
          "vel": 45,
          "clef": "treble",
          "pitch": "C5"
        },
        {
          "midi": 75,
          "beat": 1,
          "dur": 0.34,
          "vel": 45,
          "clef": "treble",
          "pitch": "D#5"
        },
        {
          "midi": 70,
          "beat": 1.5,
          "dur": 2.7,
          "vel": 43,
          "clef": "treble",
          "acc": "#",
          "pitch": "A#4"
        },
        {
          "midi": 73,
          "beat": 1.5,
          "dur": 0.51,
          "vel": 46,
          "clef": "treble",
          "pitch": "C#5"
        },
        {
          "midi": 77,
          "beat": 2.25,
          "dur": 1.02,
          "vel": 53,
          "clef": "treble",
          "pitch": "F5"
        },
        {
          "midi": 73,
          "beat": 3.75,
          "dur": 0.75,
          "vel": 46,
          "clef": "treble",
          "pitch": "C#5"
        }
      ]
    },
    {
      "_": "Treble: 8 notes, Bass: 0 notes",
      "number": 3,
      "notes": [
        {
          "midi": 63,
          "beat": 0,
          "dur": 3.27,
          "vel": 48,
          "clef": "treble",
          "pitch": "D#4"
        },
        {
          "midi": 66,
          "beat": 0,
          "dur": 3.27,
          "vel": 48,
          "clef": "treble",
          "pitch": "F#4"
        },
        {
          "midi": 68,
          "beat": 0.5,
          "dur": 0.32,
          "vel": 46,
          "clef": "treble",
          "pitch": "G#4"
        },
        {
          "midi": 72,
          "beat": 0.5,
          "dur": 0.32,
          "vel": 46,
          "clef": "treble",
          "pitch": "C5"
        },
        {
          "midi": 70,
          "beat": 1,
          "dur": 0.32,
          "vel": 48,
          "clef": "treble",
          "acc": "#",
          "pitch": "A#4"
        },
        {
          "midi": 73,
          "beat": 1,
          "dur": 0.32,
          "vel": 48,
          "clef": "treble",
          "pitch": "C#5"
        },
        {
          "midi": 68,
          "beat": 1.5,
          "dur": 1.88,
          "vel": 47,
          "clef": "treble",
          "pitch": "G#4"
        },
        {
          "midi": 72,
          "beat": 1.5,
          "dur": 2.29,
          "vel": 43,
          "clef": "treble",
          "pitch": "C5"
        }
      ]
    },
    {
      "_": "Treble: 14 notes, Bass: 0 notes",
      "number": 4,
      "notes": [
        {
          "midi": 61,
          "beat": 0,
          "dur": 1.95,
          "vel": 40,
          "clef": "treble",
          "pitch": "C#4"
        },
        {
          "midi": 63,
          "beat": 0,
          "dur": 1.95,
          "vel": 46,
          "clef": "treble",
          "pitch": "D#4"
        },
        {
          "midi": 66,
          "beat": 0,
          "dur": 1.95,
          "vel": 48,
          "clef": "treble",
          "pitch": "F#4"
        },
        {
          "midi": 70,
          "beat": 0.5,
          "dur": 0.31,
          "vel": 50,
          "clef": "treble",
          "acc": "#",
          "pitch": "A#4"
        },
        {
          "midi": 72,
          "beat": 1,
          "dur": 0.31,
          "vel": 58,
          "clef": "treble",
          "pitch": "C5"
        },
        {
          "midi": 70,
          "beat": 1.5,
          "dur": 0.31,
          "vel": 50,
          "clef": "treble",
          "acc": "#",
          "pitch": "A#4"
        },
        {
          "midi": 75,
          "beat": 2,
          "dur": 0.3,
          "vel": 58,
          "clef": "treble",
          "pitch": "D#5"
        },
        {
          "midi": 70,
          "beat": 2.5,
          "dur": 0.3,
          "vel": 48,
          "clef": "treble",
          "acc": "#",
          "pitch": "A#4"
        },
        {
          "midi": 60,
          "beat": 3,
          "dur": 0.89,
          "vel": 50,
          "clef": "treble",
          "pitch": "C4"
        },
        {
          "midi": 63,
          "beat": 3,
          "dur": 0.89,
          "vel": 50,
          "clef": "treble",
          "pitch": "D#4"
        },
        {
          "midi": 66,
          "beat": 3,
          "dur": 0.91,
          "vel": 53,
          "clef": "treble",
          "pitch": "F#4"
        },
        {
          "midi": 68,
          "beat": 3,
          "dur": 0.3,
          "vel": 41,
          "clef": "treble",
          "pitch": "G#4"
        },
        {
          "midi": 70,
          "beat": 3.5,
          "dur": 0.3,
          "vel": 49,
          "clef": "treble",
          "acc": "#",
          "pitch": "A#4"
        },
        {
          "midi": 68,
          "beat": 4,
          "dur": 0.5,
          "vel": 46,
          "clef": "treble",
          "pitch": "G#4"
        }
      ]
    },
    {
      "_": "Treble: 8 notes, Bass: 2 notes",
      "number": 5,
      "notes": [
        {
          "midi": 58,
          "beat": 0,
          "dur": 1.95,
          "vel": 50,
          "clef": "bass",
          "acc": "#",
          "pitch": "A#3"
        },
        {
          "midi": 61,
          "beat": 0,
          "dur": 1.95,
          "vel": 49,
          "clef": "treble",
          "pitch": "C#4"
        },
        {
          "midi": 63,
          "beat": 0,
          "dur": 1.95,
          "vel": 48,
          "clef": "treble",
          "pitch": "D#4"
        },
        {
          "midi": 66,
          "beat": 0.5,
          "dur": 0.3,
          "vel": 50,
          "clef": "treble",
          "pitch": "F#4"
        },
        {
          "midi": 68,
          "beat": 1,
          "dur": 0.31,
          "vel": 54,
          "clef": "treble",
          "pitch": "G#4"
        },
        {
          "midi": 66,
          "beat": 1.5,
          "dur": 0.95,
          "vel": 48,
          "clef": "treble",
          "pitch": "F#4"
        },
        {
          "midi": 57,
          "beat": 3,
          "dur": 1.3,
          "vel": 47,
          "clef": "bass",
          "pitch": "A3"
        },
        {
          "midi": 60,
          "beat": 3,
          "dur": 1.3,
          "vel": 47,
          "clef": "treble",
          "pitch": "C4"
        },
        {
          "midi": 63,
          "beat": 3,
          "dur": 1.23,
          "vel": 52,
          "clef": "treble",
          "pitch": "D#4"
        },
        {
          "midi": 65,
          "beat": 3,
          "dur": 1.5,
          "vel": 46,
          "clef": "treble",
          "pitch": "F4"
        }
      ]
    },
    {
      "_": "Treble: 9 notes, Bass: 3 notes",
      "number": 6,
      "notes": [
        {
          "midi": 56,
          "beat": 0,
          "dur": 2.06,
          "vel": 54,
          "clef": "bass",
          "pitch": "G#3"
        },
        {
          "midi": 58,
          "beat": 0,
          "dur": 3.28,
          "vel": 46,
          "clef": "bass",
          "acc": "#",
          "pitch": "A#3"
        },
        {
          "midi": 61,
          "beat": 0,
          "dur": 3.13,
          "vel": 48,
          "clef": "treble",
          "pitch": "C#4"
        },
        {
          "midi": 65,
          "beat": 0.5,
          "dur": 0.32,
          "vel": 50,
          "clef": "treble",
          "pitch": "F4"
        },
        {
          "midi": 66,
          "beat": 1,
          "dur": 0.32,
          "vel": 52,
          "clef": "treble",
          "pitch": "F#4"
        },
        {
          "midi": 65,
          "beat": 1.5,
          "dur": 0.32,
          "vel": 51,
          "clef": "treble",
          "pitch": "F4"
        },
        {
          "midi": 70,
          "beat": 2,
          "dur": 0.32,
          "vel": 59,
          "clef": "treble",
          "acc": "#",
          "pitch": "A#4"
        },
        {
          "midi": 65,
          "beat": 2.5,
          "dur": 0.32,
          "vel": 45,
          "clef": "treble",
          "pitch": "F4"
        },
        {
          "midi": 54,
          "beat": 3,
          "dur": 0.92,
          "vel": 48,
          "clef": "bass",
          "pitch": "F#3"
        },
        {
          "midi": 63,
          "beat": 3,
          "dur": 0.31,
          "vel": 38,
          "clef": "treble",
          "pitch": "D#4"
        },
        {
          "midi": 65,
          "beat": 3.5,
          "dur": 0.31,
          "vel": 54,
          "clef": "treble",
          "pitch": "F4"
        },
        {
          "midi": 63,
          "beat": 4,
          "dur": 0.5,
          "vel": 52,
          "clef": "treble",
          "pitch": "D#4"
        }
      ]
    },
    {
      "_": "Treble: 4 notes, Bass: 7 notes",
      "number": 7,
      "notes": [
        {
          "midi": 53,
          "beat": 0,
          "dur": 1.94,
          "vel": 49,
          "clef": "bass",
          "pitch": "F3"
        },
        {
          "midi": 56,
          "beat": 0,
          "dur": 1.94,
          "vel": 52,
          "clef": "bass",
          "pitch": "G#3"
        },
        {
          "midi": 58,
          "beat": 0,
          "dur": 2,
          "vel": 51,
          "clef": "bass",
          "acc": "#",
          "pitch": "A#3"
        },
        {
          "midi": 61,
          "beat": 0.5,
          "dur": 0.31,
          "vel": 45,
          "clef": "treble",
          "pitch": "C#4"
        },
        {
          "midi": 63,
          "beat": 1,
          "dur": 0.31,
          "vel": 47,
          "clef": "treble",
          "pitch": "D#4"
        },
        {
          "midi": 61,
          "beat": 1.5,
          "dur": 0.93,
          "vel": 48,
          "clef": "treble",
          "pitch": "C#4"
        },
        {
          "midi": 51,
          "beat": 3,
          "dur": 0.57,
          "vel": 55,
          "clef": "bass",
          "pitch": "D#3"
        },
        {
          "midi": 54,
          "beat": 3,
          "dur": 1.22,
          "vel": 51,
          "clef": "bass",
          "pitch": "F#3"
        },
        {
          "midi": 56,
          "beat": 3,
          "dur": 1.24,
          "vel": 51,
          "clef": "bass",
          "pitch": "G#3"
        },
        {
          "midi": 60,
          "beat": 3,
          "dur": 1.24,
          "vel": 49,
          "clef": "treble",
          "pitch": "C4"
        },
        {
          "midi": 44,
          "beat": 3.75,
          "dur": 0.75,
          "vel": 45,
          "clef": "bass",
          "pitch": "G#2"
        }
      ]
    },
    {
      "_": "Treble: 6 notes, Bass: 3 notes",
      "number": 8,
      "notes": [
        {
          "midi": 37,
          "beat": 0,
          "dur": 0.4,
          "vel": 43,
          "clef": "bass",
          "pitch": "C#2"
        },
        {
          "midi": 53,
          "beat": 0.5,
          "dur": 0.4,
          "vel": 47,
          "clef": "bass",
          "pitch": "F3"
        },
        {
          "midi": 56,
          "beat": 0.5,
          "dur": 0.4,
          "vel": 47,
          "clef": "bass",
          "pitch": "G#3"
        },
        {
          "midi": 65,
          "beat": 1,
          "dur": 2.97,
          "vel": 66,
          "clef": "treble",
          "pitch": "F4"
        },
        {
          "midi": 68,
          "beat": 1,
          "dur": 2.97,
          "vel": 66,
          "clef": "treble",
          "pitch": "G#4"
        },
        {
          "midi": 77,
          "beat": 1.5,
          "dur": 1.14,
          "vel": 65,
          "clef": "treble",
          "pitch": "F5"
        },
        {
          "midi": 80,
          "beat": 1.5,
          "dur": 1.16,
          "vel": 65,
          "clef": "treble",
          "pitch": "G#5"
        },
        {
          "midi": 73,
          "beat": 3,
          "dur": 1.43,
          "vel": 60,
          "clef": "treble",
          "pitch": "C#5"
        },
        {
          "midi": 77,
          "beat": 3,
          "dur": 1.43,
          "vel": 60,
          "clef": "treble",
          "pitch": "F5"
        }
      ]
    },
    {
      "_": "Treble: 6 notes, Bass: 5 notes",
      "number": 9,
      "notes": [
        {
          "midi": 42,
          "beat": 0,
          "dur": 2.19,
          "vel": 48,
          "clef": "bass",
          "pitch": "F#2"
        },
        {
          "midi": 49,
          "beat": 0,
          "dur": 2.19,
          "vel": 48,
          "clef": "bass",
          "pitch": "C#3"
        },
        {
          "midi": 49,
          "beat": 0.5,
          "dur": 2.99,
          "vel": 44,
          "clef": "bass",
          "pitch": "C#3"
        },
        {
          "midi": 54,
          "beat": 0.5,
          "dur": 2.99,
          "vel": 44,
          "clef": "bass",
          "pitch": "F#3"
        },
        {
          "midi": 58,
          "beat": 0.5,
          "dur": 2.99,
          "vel": 44,
          "clef": "bass",
          "acc": "#",
          "pitch": "A#3"
        },
        {
          "midi": 61,
          "beat": 0.5,
          "dur": 2.99,
          "vel": 44,
          "clef": "treble",
          "pitch": "C#4"
        },
        {
          "midi": 66,
          "beat": 0.5,
          "dur": 2.81,
          "vel": 46,
          "clef": "treble",
          "pitch": "F#4"
        },
        {
          "midi": 70,
          "beat": 0.5,
          "dur": 2.81,
          "vel": 46,
          "clef": "treble",
          "acc": "#",
          "pitch": "A#4"
        },
        {
          "midi": 75,
          "beat": 0.5,
          "dur": 0.36,
          "vel": 44,
          "clef": "treble",
          "pitch": "D#5"
        },
        {
          "midi": 77,
          "beat": 1,
          "dur": 0.36,
          "vel": 43,
          "clef": "treble",
          "pitch": "F5"
        },
        {
          "midi": 75,
          "beat": 1.5,
          "dur": 2.31,
          "vel": 48,
          "clef": "treble",
          "pitch": "D#5"
        }
      ]
    },
    {
      "_": "Treble: 14 notes, Bass: 5 notes",
      "number": 10,
      "notes": [
        {
          "midi": 41,
          "beat": 0,
          "dur": 2.37,
          "vel": 49,
          "clef": "bass",
          "pitch": "F2"
        },
        {
          "midi": 49,
          "beat": 0,
          "dur": 2.37,
          "vel": 49,
          "clef": "bass",
          "pitch": "C#3"
        },
        {
          "midi": 53,
          "beat": 0.5,
          "dur": 0.69,
          "vel": 48,
          "clef": "bass",
          "pitch": "F3"
        },
        {
          "midi": 56,
          "beat": 0.5,
          "dur": 0.69,
          "vel": 48,
          "clef": "bass",
          "pitch": "G#3"
        },
        {
          "midi": 61,
          "beat": 0.5,
          "dur": 0.36,
          "vel": 48,
          "clef": "treble",
          "pitch": "C#4"
        },
        {
          "midi": 68,
          "beat": 0.5,
          "dur": 0.69,
          "vel": 47,
          "clef": "treble",
          "pitch": "G#4"
        },
        {
          "midi": 73,
          "beat": 0.5,
          "dur": 0.36,
          "vel": 48,
          "clef": "treble",
          "pitch": "C#5"
        },
        {
          "midi": 63,
          "beat": 1,
          "dur": 0.33,
          "vel": 53,
          "clef": "treble",
          "pitch": "D#4"
        },
        {
          "midi": 75,
          "beat": 1,
          "dur": 0.33,
          "vel": 53,
          "clef": "treble",
          "pitch": "D#5"
        },
        {
          "midi": 61,
          "beat": 1.5,
          "dur": 1.09,
          "vel": 57,
          "clef": "treble",
          "pitch": "C#4"
        },
        {
          "midi": 65,
          "beat": 1.5,
          "dur": 1.11,
          "vel": 57,
          "clef": "treble",
          "pitch": "F4"
        },
        {
          "midi": 68,
          "beat": 1.5,
          "dur": 1.11,
          "vel": 54,
          "clef": "treble",
          "pitch": "G#4"
        },
        {
          "midi": 73,
          "beat": 1.5,
          "dur": 1.09,
          "vel": 54,
          "clef": "treble",
          "pitch": "C#5"
        },
        {
          "midi": 80,
          "beat": 1.5,
          "dur": 1.11,
          "vel": 54,
          "clef": "treble",
          "pitch": "G#5"
        },
        {
          "midi": 56,
          "beat": 3,
          "dur": 1.03,
          "vel": 48,
          "clef": "bass",
          "pitch": "G#3"
        },
        {
          "midi": 61,
          "beat": 3,
          "dur": 1.03,
          "vel": 48,
          "clef": "treble",
          "pitch": "C#4"
        },
        {
          "midi": 65,
          "beat": 3,
          "dur": 1.03,
          "vel": 48,
          "clef": "treble",
          "pitch": "F4"
        },
        {
          "midi": 73,
          "beat": 3,
          "dur": 1.03,
          "vel": 48,
          "clef": "treble",
          "pitch": "C#5"
        },
        {
          "midi": 77,
          "beat": 3,
          "dur": 1.38,
          "vel": 48,
          "clef": "treble",
          "pitch": "F5"
        }
      ]
    },
    {
      "_": "Treble: 7 notes, Bass: 5 notes",
      "number": 11,
      "notes": [
        {
          "midi": 42,
          "beat": 0,
          "dur": 2.29,
          "vel": 47,
          "clef": "bass",
          "pitch": "F#2"
        },
        {
          "midi": 49,
          "beat": 0,
          "dur": 2.29,
          "vel": 47,
          "clef": "bass",
          "pitch": "C#3"
        },
        {
          "midi": 49,
          "beat": 0.5,
          "dur": 3.2,
          "vel": 42,
          "clef": "bass",
          "pitch": "C#3"
        },
        {
          "midi": 54,
          "beat": 0.5,
          "dur": 3.2,
          "vel": 42,
          "clef": "bass",
          "pitch": "F#3"
        },
        {
          "midi": 58,
          "beat": 0.5,
          "dur": 3.2,
          "vel": 42,
          "clef": "bass",
          "acc": "#",
          "pitch": "A#3"
        },
        {
          "midi": 61,
          "beat": 0.5,
          "dur": 3.2,
          "vel": 42,
          "clef": "treble",
          "pitch": "C#4"
        },
        {
          "midi": 66,
          "beat": 0.5,
          "dur": 3.04,
          "vel": 47,
          "clef": "treble",
          "pitch": "F#4"
        },
        {
          "midi": 70,
          "beat": 0.5,
          "dur": 3.04,
          "vel": 47,
          "clef": "treble",
          "acc": "#",
          "pitch": "A#4"
        },
        {
          "midi": 75,
          "beat": 0.5,
          "dur": 0.33,
          "vel": 47,
          "clef": "treble",
          "pitch": "D#5"
        },
        {
          "midi": 77,
          "beat": 1,
          "dur": 0.33,
          "vel": 50,
          "clef": "treble",
          "pitch": "F5"
        },
        {
          "midi": 75,
          "beat": 1.5,
          "dur": 1.06,
          "vel": 44,
          "clef": "treble",
          "pitch": "D#5"
        },
        {
          "midi": 73,
          "beat": 3,
          "dur": 1.32,
          "vel": 45,
          "clef": "treble",
          "pitch": "C#5"
        }
      ]
    },
    {
      "_": "Treble: 14 notes, Bass: 4 notes",
      "number": 12,
      "notes": [
        {
          "midi": 44,
          "beat": 0,
          "dur": 3.48,
          "vel": 48,
          "clef": "bass",
          "pitch": "G#2"
        },
        {
          "midi": 53,
          "beat": 0.5,
          "dur": 0.68,
          "vel": 48,
          "clef": "bass",
          "pitch": "F3"
        },
        {
          "midi": 59,
          "beat": 0.5,
          "dur": 0.68,
          "vel": 48,
          "clef": "bass",
          "pitch": "B3"
        },
        {
          "midi": 61,
          "beat": 0.5,
          "dur": 0.35,
          "vel": 50,
          "clef": "treble",
          "pitch": "C#4"
        },
        {
          "midi": 68,
          "beat": 0.5,
          "dur": 0.69,
          "vel": 46,
          "clef": "treble",
          "pitch": "G#4"
        },
        {
          "midi": 73,
          "beat": 0.5,
          "dur": 0.35,
          "vel": 50,
          "clef": "treble",
          "pitch": "C#5"
        },
        {
          "midi": 63,
          "beat": 1,
          "dur": 0.34,
          "vel": 57,
          "clef": "treble",
          "pitch": "D#4"
        },
        {
          "midi": 75,
          "beat": 1,
          "dur": 0.34,
          "vel": 57,
          "clef": "treble",
          "pitch": "D#5"
        },
        {
          "midi": 59,
          "beat": 1.5,
          "dur": 1.32,
          "vel": 56,
          "clef": "bass",
          "pitch": "B3"
        },
        {
          "midi": 61,
          "beat": 1.5,
          "dur": 1.32,
          "vel": 56,
          "clef": "treble",
          "pitch": "C#4"
        },
        {
          "midi": 65,
          "beat": 1.5,
          "dur": 1.32,
          "vel": 56,
          "clef": "treble",
          "pitch": "F4"
        },
        {
          "midi": 70,
          "beat": 1.5,
          "dur": 0.51,
          "vel": 65,
          "clef": "treble",
          "acc": "#",
          "pitch": "A#4"
        },
        {
          "midi": 77,
          "beat": 1.5,
          "dur": 2.2,
          "vel": 51,
          "clef": "treble",
          "pitch": "F5"
        },
        {
          "midi": 82,
          "beat": 1.5,
          "dur": 0.51,
          "vel": 65,
          "clef": "treble",
          "acc": "#",
          "pitch": "A#5"
        },
        {
          "midi": 68,
          "beat": 2.25,
          "dur": 1,
          "vel": 54,
          "clef": "treble",
          "pitch": "G#4"
        },
        {
          "midi": 80,
          "beat": 2.25,
          "dur": 1,
          "vel": 54,
          "clef": "treble",
          "pitch": "G#5"
        },
        {
          "midi": 65,
          "beat": 3.75,
          "dur": 0.49,
          "vel": 48,
          "clef": "treble",
          "pitch": "F4"
        },
        {
          "midi": 77,
          "beat": 3.75,
          "dur": 0.75,
          "vel": 48,
          "clef": "treble",
          "pitch": "F5"
        }
      ]
    },
    {
      "_": "Treble: 9 notes, Bass: 3 notes",
      "number": 13,
      "notes": [
        {
          "midi": 46,
          "beat": 0,
          "dur": 2.07,
          "vel": 51,
          "clef": "bass",
          "acc": "#",
          "pitch": "A#2"
        },
        {
          "midi": 53,
          "beat": 0.5,
          "dur": 3.02,
          "vel": 46,
          "clef": "bass",
          "pitch": "F3"
        },
        {
          "midi": 58,
          "beat": 0.5,
          "dur": 3.02,
          "vel": 46,
          "clef": "bass",
          "acc": "#",
          "pitch": "A#3"
        },
        {
          "midi": 63,
          "beat": 0.5,
          "dur": 1.12,
          "vel": 44,
          "clef": "treble",
          "pitch": "D#4"
        },
        {
          "midi": 65,
          "beat": 0.5,
          "dur": 2.84,
          "vel": 41,
          "clef": "treble",
          "pitch": "F4"
        },
        {
          "midi": 70,
          "beat": 0.5,
          "dur": 2.84,
          "vel": 41,
          "clef": "treble",
          "acc": "#",
          "pitch": "A#4"
        },
        {
          "midi": 75,
          "beat": 0.5,
          "dur": 0.33,
          "vel": 63,
          "clef": "treble",
          "pitch": "D#5"
        },
        {
          "midi": 77,
          "beat": 1,
          "dur": 0.33,
          "vel": 70,
          "clef": "treble",
          "pitch": "F5"
        },
        {
          "midi": 75,
          "beat": 1.5,
          "dur": 0.48,
          "vel": 58,
          "clef": "treble",
          "pitch": "D#5"
        },
        {
          "midi": 61,
          "beat": 2.25,
          "dur": 1.46,
          "vel": 51,
          "clef": "treble",
          "pitch": "C#4"
        },
        {
          "midi": 73,
          "beat": 2.25,
          "dur": 0.98,
          "vel": 53,
          "clef": "treble",
          "pitch": "C#5"
        },
        {
          "midi": 70,
          "beat": 3.75,
          "dur": 0.47,
          "vel": 54,
          "clef": "treble",
          "acc": "#",
          "pitch": "A#4"
        }
      ]
    },
    {
      "_": "Treble: 36 notes, Bass: 2 notes",
      "number": 14,
      "notes": [
        {
          "midi": 27,
          "beat": 0,
          "dur": 2.35,
          "vel": 47,
          "clef": "bass",
          "pitch": "D#1"
        },
        {
          "midi": 39,
          "beat": 0,
          "dur": 2.35,
          "vel": 47,
          "clef": "bass",
          "pitch": "D#2"
        },
        {
          "midi": 65,
          "beat": 0.75,
          "dur": 0.99,
          "vel": 52,
          "clef": "treble",
          "pitch": "F4"
        },
        {
          "midi": 66,
          "beat": 0.75,
          "dur": 0.98,
          "vel": 52,
          "clef": "treble",
          "pitch": "F#4"
        },
        {
          "midi": 70,
          "beat": 0.75,
          "dur": 0.98,
          "vel": 52,
          "clef": "treble",
          "acc": "#",
          "pitch": "A#4"
        },
        {
          "midi": 77,
          "beat": 0.75,
          "dur": 0.99,
          "vel": 51,
          "clef": "treble",
          "pitch": "F5"
        },
        {
          "midi": 82,
          "beat": 0.75,
          "dur": 0.98,
          "vel": 51,
          "clef": "treble",
          "acc": "#",
          "pitch": "A#5"
        },
        {
          "midi": 89,
          "beat": 0.75,
          "dur": 0.99,
          "vel": 51,
          "clef": "treble",
          "pitch": "F6"
        },
        {
          "midi": 63,
          "beat": 2,
          "dur": 0.28,
          "vel": 59,
          "clef": "treble",
          "pitch": "D#4"
        },
        {
          "midi": 66,
          "beat": 2,
          "dur": 0.28,
          "vel": 59,
          "clef": "treble",
          "pitch": "F#4"
        },
        {
          "midi": 70,
          "beat": 2,
          "dur": 0.28,
          "vel": 59,
          "clef": "treble",
          "acc": "#",
          "pitch": "A#4"
        },
        {
          "midi": 75,
          "beat": 2,
          "dur": 0.28,
          "vel": 53,
          "clef": "treble",
          "pitch": "D#5"
        },
        {
          "midi": 82,
          "beat": 2,
          "dur": 0.28,
          "vel": 53,
          "clef": "treble",
          "acc": "#",
          "pitch": "A#5"
        },
        {
          "midi": 87,
          "beat": 2,
          "dur": 0.28,
          "vel": 53,
          "clef": "treble",
          "pitch": "D#6"
        },
        {
          "midi": 63,
          "beat": 2.5,
          "dur": 0.27,
          "vel": 56,
          "clef": "treble",
          "pitch": "D#4"
        },
        {
          "midi": 66,
          "beat": 2.5,
          "dur": 0.27,
          "vel": 56,
          "clef": "treble",
          "pitch": "F#4"
        },
        {
          "midi": 70,
          "beat": 2.5,
          "dur": 0.27,
          "vel": 56,
          "clef": "treble",
          "acc": "#",
          "pitch": "A#4"
        },
        {
          "midi": 75,
          "beat": 2.5,
          "dur": 0.27,
          "vel": 56,
          "clef": "treble",
          "pitch": "D#5"
        },
        {
          "midi": 82,
          "beat": 2.5,
          "dur": 0.27,
          "vel": 56,
          "clef": "treble",
          "acc": "#",
          "pitch": "A#5"
        },
        {
          "midi": 87,
          "beat": 2.5,
          "dur": 0.27,
          "vel": 56,
          "clef": "treble",
          "pitch": "D#6"
        },
        {
          "midi": 63,
          "beat": 3,
          "dur": 0.27,
          "vel": 58,
          "clef": "treble",
          "pitch": "D#4"
        },
        {
          "midi": 66,
          "beat": 3,
          "dur": 0.27,
          "vel": 58,
          "clef": "treble",
          "pitch": "F#4"
        },
        {
          "midi": 70,
          "beat": 3,
          "dur": 0.27,
          "vel": 58,
          "clef": "treble",
          "acc": "#",
          "pitch": "A#4"
        },
        {
          "midi": 75,
          "beat": 3,
          "dur": 0.27,
          "vel": 55,
          "clef": "treble",
          "pitch": "D#5"
        },
        {
          "midi": 82,
          "beat": 3,
          "dur": 0.27,
          "vel": 55,
          "clef": "treble",
          "acc": "#",
          "pitch": "A#5"
        },
        {
          "midi": 87,
          "beat": 3,
          "dur": 0.27,
          "vel": 55,
          "clef": "treble",
          "pitch": "D#6"
        },
        {
          "midi": 61,
          "beat": 3.5,
          "dur": 0.26,
          "vel": 58,
          "clef": "treble",
          "pitch": "C#4"
        },
        {
          "midi": 66,
          "beat": 3.5,
          "dur": 0.26,
          "vel": 58,
          "clef": "treble",
          "pitch": "F#4"
        },
        {
          "midi": 70,
          "beat": 3.5,
          "dur": 0.26,
          "vel": 58,
          "clef": "treble",
          "acc": "#",
          "pitch": "A#4"
        },
        {
          "midi": 73,
          "beat": 3.5,
          "dur": 0.26,
          "vel": 55,
          "clef": "treble",
          "pitch": "C#5"
        },
        {
          "midi": 82,
          "beat": 3.5,
          "dur": 0.26,
          "vel": 55,
          "clef": "treble",
          "acc": "#",
          "pitch": "A#5"
        },
        {
          "midi": 85,
          "beat": 3.5,
          "dur": 0.26,
          "vel": 55,
          "clef": "treble",
          "pitch": "C#6"
        },
        {
          "midi": 61,
          "beat": 4,
          "dur": 0.26,
          "vel": 59,
          "clef": "treble",
          "pitch": "C#4"
        },
        {
          "midi": 66,
          "beat": 4,
          "dur": 0.26,
          "vel": 59,
          "clef": "treble",
          "pitch": "F#4"
        },
        {
          "midi": 70,
          "beat": 4,
          "dur": 0.26,
          "vel": 59,
          "clef": "treble",
          "acc": "#",
          "pitch": "A#4"
        },
        {
          "midi": 73,
          "beat": 4,
          "dur": 0.26,
          "vel": 60,
          "clef": "treble",
          "pitch": "C#5"
        },
        {
          "midi": 82,
          "beat": 4,
          "dur": 0.26,
          "vel": 60,
          "clef": "treble",
          "acc": "#",
          "pitch": "A#5"
        },
        {
          "midi": 85,
          "beat": 4,
          "dur": 0.26,
          "vel": 60,
          "clef": "treble",
          "pitch": "C#6"
        }
      ]
    },
    {
      "_": "Treble: 38 notes, Bass: 1 notes",
      "number": 15,
      "notes": [
        {
          "midi": 61,
          "beat": 0,
          "dur": 0.27,
          "vel": 58,
          "clef": "treble",
          "pitch": "C#4"
        },
        {
          "midi": 66,
          "beat": 0,
          "dur": 0.27,
          "vel": 58,
          "clef": "treble",
          "pitch": "F#4"
        },
        {
          "midi": 70,
          "beat": 0,
          "dur": 0.27,
          "vel": 58,
          "clef": "treble",
          "acc": "#",
          "pitch": "A#4"
        },
        {
          "midi": 73,
          "beat": 0,
          "dur": 0.27,
          "vel": 59,
          "clef": "treble",
          "pitch": "C#5"
        },
        {
          "midi": 82,
          "beat": 0,
          "dur": 0.27,
          "vel": 59,
          "clef": "treble",
          "acc": "#",
          "pitch": "A#5"
        },
        {
          "midi": 85,
          "beat": 0,
          "dur": 0.27,
          "vel": 59,
          "clef": "treble",
          "pitch": "C#6"
        },
        {
          "midi": 60,
          "beat": 0.5,
          "dur": 0.28,
          "vel": 58,
          "clef": "treble",
          "pitch": "C4"
        },
        {
          "midi": 66,
          "beat": 0.5,
          "dur": 0.28,
          "vel": 58,
          "clef": "treble",
          "pitch": "F#4"
        },
        {
          "midi": 70,
          "beat": 0.5,
          "dur": 0.28,
          "vel": 58,
          "clef": "treble",
          "acc": "#",
          "pitch": "A#4"
        },
        {
          "midi": 72,
          "beat": 0.5,
          "dur": 0.28,
          "vel": 54,
          "clef": "treble",
          "pitch": "C5"
        },
        {
          "midi": 78,
          "beat": 0.5,
          "dur": 0.28,
          "vel": 54,
          "clef": "treble",
          "pitch": "F#5"
        },
        {
          "midi": 82,
          "beat": 0.5,
          "dur": 0.28,
          "vel": 54,
          "clef": "treble",
          "acc": "#",
          "pitch": "A#5"
        },
        {
          "midi": 84,
          "beat": 0.5,
          "dur": 0.28,
          "vel": 54,
          "clef": "treble",
          "pitch": "C6"
        },
        {
          "midi": 60,
          "beat": 1,
          "dur": 0.29,
          "vel": 55,
          "clef": "treble",
          "pitch": "C4"
        },
        {
          "midi": 66,
          "beat": 1,
          "dur": 0.29,
          "vel": 55,
          "clef": "treble",
          "pitch": "F#4"
        },
        {
          "midi": 70,
          "beat": 1,
          "dur": 0.29,
          "vel": 55,
          "clef": "treble",
          "acc": "#",
          "pitch": "A#4"
        },
        {
          "midi": 72,
          "beat": 1,
          "dur": 0.29,
          "vel": 54,
          "clef": "treble",
          "pitch": "C5"
        },
        {
          "midi": 78,
          "beat": 1,
          "dur": 0.29,
          "vel": 54,
          "clef": "treble",
          "pitch": "F#5"
        },
        {
          "midi": 82,
          "beat": 1,
          "dur": 0.29,
          "vel": 54,
          "clef": "treble",
          "acc": "#",
          "pitch": "A#5"
        },
        {
          "midi": 84,
          "beat": 1,
          "dur": 0.29,
          "vel": 54,
          "clef": "treble",
          "pitch": "C6"
        },
        {
          "midi": 60,
          "beat": 1.5,
          "dur": 0.45,
          "vel": 57,
          "clef": "treble",
          "pitch": "C4"
        },
        {
          "midi": 66,
          "beat": 1.5,
          "dur": 0.44,
          "vel": 57,
          "clef": "treble",
          "pitch": "F#4"
        },
        {
          "midi": 70,
          "beat": 1.5,
          "dur": 0.44,
          "vel": 57,
          "clef": "treble",
          "acc": "#",
          "pitch": "A#4"
        },
        {
          "midi": 72,
          "beat": 1.5,
          "dur": 0.45,
          "vel": 59,
          "clef": "treble",
          "pitch": "C5"
        },
        {
          "midi": 78,
          "beat": 1.5,
          "dur": 0.45,
          "vel": 59,
          "clef": "treble",
          "pitch": "F#5"
        },
        {
          "midi": 82,
          "beat": 1.5,
          "dur": 0.44,
          "vel": 59,
          "clef": "treble",
          "acc": "#",
          "pitch": "A#5"
        },
        {
          "midi": 84,
          "beat": 1.5,
          "dur": 0.45,
          "vel": 59,
          "clef": "treble",
          "pitch": "C6"
        },
        {
          "midi": 61,
          "beat": 2.25,
          "dur": 0.45,
          "vel": 58,
          "clef": "treble",
          "pitch": "C#4"
        },
        {
          "midi": 66,
          "beat": 2.25,
          "dur": 0.45,
          "vel": 58,
          "clef": "treble",
          "pitch": "F#4"
        },
        {
          "midi": 70,
          "beat": 2.25,
          "dur": 0.46,
          "vel": 58,
          "clef": "treble",
          "acc": "#",
          "pitch": "A#4"
        },
        {
          "midi": 73,
          "beat": 2.25,
          "dur": 0.46,
          "vel": 62,
          "clef": "treble",
          "pitch": "C#5"
        },
        {
          "midi": 82,
          "beat": 2.25,
          "dur": 0.45,
          "vel": 62,
          "clef": "treble",
          "acc": "#",
          "pitch": "A#5"
        },
        {
          "midi": 85,
          "beat": 2.25,
          "dur": 0.46,
          "vel": 62,
          "clef": "treble",
          "pitch": "C#6"
        },
        {
          "midi": 58,
          "beat": 3,
          "dur": 0.7,
          "vel": 55,
          "clef": "bass",
          "acc": "#",
          "pitch": "A#3"
        },
        {
          "midi": 61,
          "beat": 3,
          "dur": 0.7,
          "vel": 55,
          "clef": "treble",
          "pitch": "C#4"
        },
        {
          "midi": 66,
          "beat": 3,
          "dur": 0.7,
          "vel": 55,
          "clef": "treble",
          "pitch": "F#4"
        },
        {
          "midi": 70,
          "beat": 3,
          "dur": 0.7,
          "vel": 56,
          "clef": "treble",
          "acc": "#",
          "pitch": "A#4"
        },
        {
          "midi": 78,
          "beat": 3,
          "dur": 0.7,
          "vel": 56,
          "clef": "treble",
          "pitch": "F#5"
        },
        {
          "midi": 82,
          "beat": 3,
          "dur": 0.7,
          "vel": 56,
          "clef": "treble",
          "acc": "#",
          "pitch": "A#5"
        }
      ]
    },
    {
      "_": "Treble: 36 notes, Bass: 3 notes",
      "number": 16,
      "notes": [
        {
          "midi": 27,
          "beat": 0,
          "dur": 2.18,
          "vel": 48,
          "clef": "bass",
          "pitch": "D#1"
        },
        {
          "midi": 39,
          "beat": 0,
          "dur": 2.18,
          "vel": 48,
          "clef": "bass",
          "pitch": "D#2"
        },
        {
          "midi": 46,
          "beat": 0,
          "dur": 2.18,
          "vel": 45,
          "clef": "bass",
          "acc": "#",
          "pitch": "A#2"
        },
        {
          "midi": 65,
          "beat": 0.75,
          "dur": 0.88,
          "vel": 52,
          "clef": "treble",
          "pitch": "F4"
        },
        {
          "midi": 66,
          "beat": 0.75,
          "dur": 0.87,
          "vel": 52,
          "clef": "treble",
          "pitch": "F#4"
        },
        {
          "midi": 70,
          "beat": 0.75,
          "dur": 0.87,
          "vel": 52,
          "clef": "treble",
          "acc": "#",
          "pitch": "A#4"
        },
        {
          "midi": 77,
          "beat": 0.75,
          "dur": 0.88,
          "vel": 52,
          "clef": "treble",
          "pitch": "F5"
        },
        {
          "midi": 82,
          "beat": 0.75,
          "dur": 0.87,
          "vel": 52,
          "clef": "treble",
          "acc": "#",
          "pitch": "A#5"
        },
        {
          "midi": 89,
          "beat": 0.75,
          "dur": 0.88,
          "vel": 52,
          "clef": "treble",
          "pitch": "F6"
        },
        {
          "midi": 66,
          "beat": 2,
          "dur": 0.27,
          "vel": 64,
          "clef": "treble",
          "pitch": "F#4"
        },
        {
          "midi": 70,
          "beat": 2,
          "dur": 0.27,
          "vel": 64,
          "clef": "treble",
          "acc": "#",
          "pitch": "A#4"
        },
        {
          "midi": 75,
          "beat": 2,
          "dur": 0.28,
          "vel": 64,
          "clef": "treble",
          "pitch": "D#5"
        },
        {
          "midi": 78,
          "beat": 2,
          "dur": 0.28,
          "vel": 56,
          "clef": "treble",
          "pitch": "F#5"
        },
        {
          "midi": 82,
          "beat": 2,
          "dur": 0.27,
          "vel": 56,
          "clef": "treble",
          "acc": "#",
          "pitch": "A#5"
        },
        {
          "midi": 90,
          "beat": 2,
          "dur": 0.28,
          "vel": 56,
          "clef": "treble",
          "pitch": "F#6"
        },
        {
          "midi": 65,
          "beat": 2.5,
          "dur": 0.28,
          "vel": 50,
          "clef": "treble",
          "pitch": "F4"
        },
        {
          "midi": 66,
          "beat": 2.5,
          "dur": 0.27,
          "vel": 50,
          "clef": "treble",
          "pitch": "F#4"
        },
        {
          "midi": 70,
          "beat": 2.5,
          "dur": 0.27,
          "vel": 50,
          "clef": "treble",
          "acc": "#",
          "pitch": "A#4"
        },
        {
          "midi": 77,
          "beat": 2.5,
          "dur": 0.28,
          "vel": 58,
          "clef": "treble",
          "pitch": "F5"
        },
        {
          "midi": 82,
          "beat": 2.5,
          "dur": 0.27,
          "vel": 58,
          "clef": "treble",
          "acc": "#",
          "pitch": "A#5"
        },
        {
          "midi": 89,
          "beat": 2.5,
          "dur": 0.28,
          "vel": 58,
          "clef": "treble",
          "pitch": "F6"
        },
        {
          "midi": 63,
          "beat": 3,
          "dur": 0.26,
          "vel": 49,
          "clef": "treble",
          "pitch": "D#4"
        },
        {
          "midi": 66,
          "beat": 3,
          "dur": 0.25,
          "vel": 49,
          "clef": "treble",
          "pitch": "F#4"
        },
        {
          "midi": 70,
          "beat": 3,
          "dur": 0.25,
          "vel": 49,
          "clef": "treble",
          "acc": "#",
          "pitch": "A#4"
        },
        {
          "midi": 75,
          "beat": 3,
          "dur": 0.26,
          "vel": 55,
          "clef": "treble",
          "pitch": "D#5"
        },
        {
          "midi": 82,
          "beat": 3,
          "dur": 0.25,
          "vel": 55,
          "clef": "treble",
          "acc": "#",
          "pitch": "A#5"
        },
        {
          "midi": 87,
          "beat": 3,
          "dur": 0.26,
          "vel": 55,
          "clef": "treble",
          "pitch": "D#6"
        },
        {
          "midi": 65,
          "beat": 3.5,
          "dur": 0.26,
          "vel": 56,
          "clef": "treble",
          "pitch": "F4"
        },
        {
          "midi": 66,
          "beat": 3.5,
          "dur": 0.25,
          "vel": 56,
          "clef": "treble",
          "pitch": "F#4"
        },
        {
          "midi": 70,
          "beat": 3.5,
          "dur": 0.25,
          "vel": 56,
          "clef": "treble",
          "acc": "#",
          "pitch": "A#4"
        },
        {
          "midi": 77,
          "beat": 3.5,
          "dur": 0.26,
          "vel": 60,
          "clef": "treble",
          "pitch": "F5"
        },
        {
          "midi": 82,
          "beat": 3.5,
          "dur": 0.25,
          "vel": 60,
          "clef": "treble",
          "acc": "#",
          "pitch": "A#5"
        },
        {
          "midi": 89,
          "beat": 3.5,
          "dur": 0.26,
          "vel": 60,
          "clef": "treble",
          "pitch": "F6"
        },
        {
          "midi": 63,
          "beat": 4,
          "dur": 0.26,
          "vel": 66,
          "clef": "treble",
          "pitch": "D#4"
        },
        {
          "midi": 66,
          "beat": 4,
          "dur": 0.25,
          "vel": 66,
          "clef": "treble",
          "pitch": "F#4"
        },
        {
          "midi": 70,
          "beat": 4,
          "dur": 0.25,
          "vel": 66,
          "clef": "treble",
          "acc": "#",
          "pitch": "A#4"
        },
        {
          "midi": 75,
          "beat": 4,
          "dur": 0.26,
          "vel": 54,
          "clef": "treble",
          "pitch": "D#5"
        },
        {
          "midi": 82,
          "beat": 4,
          "dur": 0.25,
          "vel": 54,
          "clef": "treble",
          "acc": "#",
          "pitch": "A#5"
        },
        {
          "midi": 87,
          "beat": 4,
          "dur": 0.26,
          "vel": 54,
          "clef": "treble",
          "pitch": "D#6"
        }
      ]
    },
    {
      "_": "Treble: 36 notes, Bass: 1 notes",
      "number": 17,
      "notes": [
        {
          "midi": 61,
          "beat": 0,
          "dur": 0.27,
          "vel": 65,
          "clef": "treble",
          "pitch": "C#4"
        },
        {
          "midi": 66,
          "beat": 0,
          "dur": 0.26,
          "vel": 65,
          "clef": "treble",
          "pitch": "F#4"
        },
        {
          "midi": 70,
          "beat": 0,
          "dur": 0.26,
          "vel": 65,
          "clef": "treble",
          "acc": "#",
          "pitch": "A#4"
        },
        {
          "midi": 73,
          "beat": 0,
          "dur": 0.27,
          "vel": 51,
          "clef": "treble",
          "pitch": "C#5"
        },
        {
          "midi": 82,
          "beat": 0,
          "dur": 0.26,
          "vel": 51,
          "clef": "treble",
          "acc": "#",
          "pitch": "A#5"
        },
        {
          "midi": 85,
          "beat": 0,
          "dur": 0.27,
          "vel": 51,
          "clef": "treble",
          "pitch": "C#6"
        },
        {
          "midi": 63,
          "beat": 0.5,
          "dur": 0.28,
          "vel": 64,
          "clef": "treble",
          "pitch": "D#4"
        },
        {
          "midi": 66,
          "beat": 0.5,
          "dur": 0.28,
          "vel": 64,
          "clef": "treble",
          "pitch": "F#4"
        },
        {
          "midi": 70,
          "beat": 0.5,
          "dur": 0.28,
          "vel": 64,
          "clef": "treble",
          "acc": "#",
          "pitch": "A#4"
        },
        {
          "midi": 75,
          "beat": 0.5,
          "dur": 0.28,
          "vel": 64,
          "clef": "treble",
          "pitch": "D#5"
        },
        {
          "midi": 82,
          "beat": 0.5,
          "dur": 0.28,
          "vel": 64,
          "clef": "treble",
          "acc": "#",
          "pitch": "A#5"
        },
        {
          "midi": 87,
          "beat": 0.5,
          "dur": 0.28,
          "vel": 64,
          "clef": "treble",
          "pitch": "D#6"
        },
        {
          "midi": 61,
          "beat": 1,
          "dur": 0.28,
          "vel": 62,
          "clef": "treble",
          "pitch": "C#4"
        },
        {
          "midi": 66,
          "beat": 1,
          "dur": 0.28,
          "vel": 62,
          "clef": "treble",
          "pitch": "F#4"
        },
        {
          "midi": 70,
          "beat": 1,
          "dur": 0.28,
          "vel": 62,
          "clef": "treble",
          "acc": "#",
          "pitch": "A#4"
        },
        {
          "midi": 73,
          "beat": 1,
          "dur": 0.28,
          "vel": 66,
          "clef": "treble",
          "pitch": "C#5"
        },
        {
          "midi": 82,
          "beat": 1,
          "dur": 0.28,
          "vel": 66,
          "clef": "treble",
          "acc": "#",
          "pitch": "A#5"
        },
        {
          "midi": 85,
          "beat": 1,
          "dur": 0.28,
          "vel": 66,
          "clef": "treble",
          "pitch": "C#6"
        },
        {
          "midi": 60,
          "beat": 1.5,
          "dur": 0.44,
          "vel": 61,
          "clef": "treble",
          "pitch": "C4"
        },
        {
          "midi": 66,
          "beat": 1.5,
          "dur": 0.44,
          "vel": 61,
          "clef": "treble",
          "pitch": "F#4"
        },
        {
          "midi": 70,
          "beat": 1.5,
          "dur": 0.44,
          "vel": 61,
          "clef": "treble",
          "acc": "#",
          "pitch": "A#4"
        },
        {
          "midi": 72,
          "beat": 1.5,
          "dur": 0.4,
          "vel": 61,
          "clef": "treble",
          "pitch": "C5"
        },
        {
          "midi": 82,
          "beat": 1.5,
          "dur": 0.4,
          "vel": 61,
          "clef": "treble",
          "acc": "#",
          "pitch": "A#5"
        },
        {
          "midi": 84,
          "beat": 1.5,
          "dur": 0.4,
          "vel": 61,
          "clef": "treble",
          "pitch": "C6"
        },
        {
          "midi": 87,
          "beat": 2.18,
          "dur": 0.04,
          "vel": 58,
          "clef": "treble",
          "pitch": "D#6"
        },
        {
          "midi": 61,
          "beat": 2.25,
          "dur": 0.44,
          "vel": 61,
          "clef": "treble",
          "pitch": "C#4"
        },
        {
          "midi": 66,
          "beat": 2.25,
          "dur": 0.44,
          "vel": 61,
          "clef": "treble",
          "pitch": "F#4"
        },
        {
          "midi": 70,
          "beat": 2.25,
          "dur": 0.44,
          "vel": 61,
          "clef": "treble",
          "acc": "#",
          "pitch": "A#4"
        },
        {
          "midi": 73,
          "beat": 2.25,
          "dur": 0.42,
          "vel": 58,
          "clef": "treble",
          "pitch": "C#5"
        },
        {
          "midi": 82,
          "beat": 2.25,
          "dur": 0.41,
          "vel": 58,
          "clef": "treble",
          "acc": "#",
          "pitch": "A#5"
        },
        {
          "midi": 85,
          "beat": 2.25,
          "dur": 0.42,
          "vel": 58,
          "clef": "treble",
          "pitch": "C#6"
        },
        {
          "midi": 58,
          "beat": 3,
          "dur": 0.65,
          "vel": 56,
          "clef": "bass",
          "acc": "#",
          "pitch": "A#3"
        },
        {
          "midi": 63,
          "beat": 3,
          "dur": 0.65,
          "vel": 56,
          "clef": "treble",
          "pitch": "D#4"
        },
        {
          "midi": 66,
          "beat": 3,
          "dur": 0.65,
          "vel": 56,
          "clef": "treble",
          "pitch": "F#4"
        },
        {
          "midi": 70,
          "beat": 3,
          "dur": 1.02,
          "vel": 51,
          "clef": "treble",
          "acc": "#",
          "pitch": "A#4"
        },
        {
          "midi": 78,
          "beat": 3,
          "dur": 1.02,
          "vel": 51,
          "clef": "treble",
          "pitch": "F#5"
        },
        {
          "midi": 82,
          "beat": 3,
          "dur": 1.02,
          "vel": 51,
          "clef": "treble",
          "acc": "#",
          "pitch": "A#5"
        }
      ]
    },
    {
      "_": "Treble: 29 notes, Bass: 10 notes",
      "number": 18,
      "notes": [
        {
          "midi": 32,
          "beat": 0,
          "dur": 2.94,
          "vel": 66,
          "clef": "bass",
          "pitch": "G#1"
        },
        {
          "midi": 44,
          "beat": 0,
          "dur": 2.94,
          "vel": 66,
          "clef": "bass",
          "pitch": "G#2"
        },
        {
          "midi": 54,
          "beat": 0.5,
          "dur": 0.43,
          "vel": 57,
          "clef": "bass",
          "pitch": "F#3"
        },
        {
          "midi": 66,
          "beat": 0.5,
          "dur": 0.43,
          "vel": 53,
          "clef": "treble",
          "pitch": "F#4"
        },
        {
          "midi": 78,
          "beat": 0.5,
          "dur": 0.43,
          "vel": 53,
          "clef": "treble",
          "pitch": "F#5"
        },
        {
          "midi": 56,
          "beat": 1,
          "dur": 0.43,
          "vel": 54,
          "clef": "bass",
          "pitch": "G#3"
        },
        {
          "midi": 60,
          "beat": 1,
          "dur": 0.85,
          "vel": 52,
          "clef": "treble",
          "pitch": "C4"
        },
        {
          "midi": 63,
          "beat": 1,
          "dur": 0.84,
          "vel": 52,
          "clef": "treble",
          "pitch": "D#4"
        },
        {
          "midi": 68,
          "beat": 1,
          "dur": 0.43,
          "vel": 53,
          "clef": "treble",
          "pitch": "G#4"
        },
        {
          "midi": 75,
          "beat": 1,
          "dur": 0.43,
          "vel": 53,
          "clef": "treble",
          "pitch": "D#5"
        },
        {
          "midi": 80,
          "beat": 1,
          "dur": 0.43,
          "vel": 53,
          "clef": "treble",
          "pitch": "G#5"
        },
        {
          "midi": 60,
          "beat": 1.5,
          "dur": 0.44,
          "vel": 70,
          "clef": "treble",
          "pitch": "C4"
        },
        {
          "midi": 72,
          "beat": 1.5,
          "dur": 0.43,
          "vel": 68,
          "clef": "treble",
          "pitch": "C5"
        },
        {
          "midi": 84,
          "beat": 1.5,
          "dur": 0.43,
          "vel": 68,
          "clef": "treble",
          "pitch": "C6"
        },
        {
          "midi": 58,
          "beat": 2,
          "dur": 0.43,
          "vel": 68,
          "clef": "bass",
          "acc": "#",
          "pitch": "A#3"
        },
        {
          "midi": 63,
          "beat": 2,
          "dur": 0.8,
          "vel": 55,
          "clef": "treble",
          "pitch": "D#4"
        },
        {
          "midi": 66,
          "beat": 2,
          "dur": 0.8,
          "vel": 55,
          "clef": "treble",
          "pitch": "F#4"
        },
        {
          "midi": 70,
          "beat": 2,
          "dur": 0.43,
          "vel": 60,
          "clef": "treble",
          "acc": "#",
          "pitch": "A#4"
        },
        {
          "midi": 78,
          "beat": 2,
          "dur": 0.42,
          "vel": 60,
          "clef": "treble",
          "pitch": "F#5"
        },
        {
          "midi": 82,
          "beat": 2,
          "dur": 0.43,
          "vel": 60,
          "clef": "treble",
          "acc": "#",
          "pitch": "A#5"
        },
        {
          "midi": 54,
          "beat": 2.5,
          "dur": 0.4,
          "vel": 61,
          "clef": "bass",
          "pitch": "F#3"
        },
        {
          "midi": 66,
          "beat": 2.5,
          "dur": 0.4,
          "vel": 55,
          "clef": "treble",
          "pitch": "F#4"
        },
        {
          "midi": 78,
          "beat": 2.5,
          "dur": 0.4,
          "vel": 55,
          "clef": "treble",
          "pitch": "F#5"
        },
        {
          "midi": 33,
          "beat": 3,
          "dur": 1.5,
          "vel": 57,
          "clef": "bass",
          "pitch": "A1"
        },
        {
          "midi": 45,
          "beat": 3,
          "dur": 1.5,
          "vel": 57,
          "clef": "bass",
          "pitch": "A2"
        },
        {
          "midi": 54,
          "beat": 3.5,
          "dur": 0.26,
          "vel": 55,
          "clef": "bass",
          "pitch": "F#3"
        },
        {
          "midi": 60,
          "beat": 3.5,
          "dur": 0.26,
          "vel": 55,
          "clef": "treble",
          "pitch": "C4"
        },
        {
          "midi": 63,
          "beat": 3.5,
          "dur": 0.26,
          "vel": 55,
          "clef": "treble",
          "pitch": "D#4"
        },
        {
          "midi": 66,
          "beat": 3.5,
          "dur": 0.26,
          "vel": 59,
          "clef": "treble",
          "pitch": "F#4"
        },
        {
          "midi": 72,
          "beat": 3.5,
          "dur": 0.26,
          "vel": 59,
          "clef": "treble",
          "pitch": "C5"
        },
        {
          "midi": 75,
          "beat": 3.5,
          "dur": 0.26,
          "vel": 59,
          "clef": "treble",
          "pitch": "D#5"
        },
        {
          "midi": 78,
          "beat": 3.5,
          "dur": 0.26,
          "vel": 59,
          "clef": "treble",
          "pitch": "F#5"
        },
        {
          "midi": 54,
          "beat": 4,
          "dur": 0.26,
          "vel": 58,
          "clef": "bass",
          "pitch": "F#3"
        },
        {
          "midi": 60,
          "beat": 4,
          "dur": 0.26,
          "vel": 58,
          "clef": "treble",
          "pitch": "C4"
        },
        {
          "midi": 63,
          "beat": 4,
          "dur": 0.26,
          "vel": 58,
          "clef": "treble",
          "pitch": "D#4"
        },
        {
          "midi": 66,
          "beat": 4,
          "dur": 0.26,
          "vel": 70,
          "clef": "treble",
          "pitch": "F#4"
        },
        {
          "midi": 72,
          "beat": 4,
          "dur": 0.26,
          "vel": 70,
          "clef": "treble",
          "pitch": "C5"
        },
        {
          "midi": 75,
          "beat": 4,
          "dur": 0.26,
          "vel": 70,
          "clef": "treble",
          "pitch": "D#5"
        },
        {
          "midi": 78,
          "beat": 4,
          "dur": 0.26,
          "vel": 70,
          "clef": "treble",
          "pitch": "F#5"
        }
      ]
    },
    {
      "_": "Treble: 30 notes, Bass: 9 notes",
      "number": 19,
      "notes": [
        {
          "midi": 54,
          "beat": 0,
          "dur": 0.25,
          "vel": 66,
          "clef": "bass",
          "pitch": "F#3"
        },
        {
          "midi": 60,
          "beat": 0,
          "dur": 0.25,
          "vel": 66,
          "clef": "treble",
          "pitch": "C4"
        },
        {
          "midi": 63,
          "beat": 0,
          "dur": 0.25,
          "vel": 66,
          "clef": "treble",
          "pitch": "D#4"
        },
        {
          "midi": 66,
          "beat": 0,
          "dur": 0.25,
          "vel": 68,
          "clef": "treble",
          "pitch": "F#4"
        },
        {
          "midi": 72,
          "beat": 0,
          "dur": 0.25,
          "vel": 68,
          "clef": "treble",
          "pitch": "C5"
        },
        {
          "midi": 75,
          "beat": 0,
          "dur": 0.25,
          "vel": 68,
          "clef": "treble",
          "pitch": "D#5"
        },
        {
          "midi": 78,
          "beat": 0,
          "dur": 0.25,
          "vel": 68,
          "clef": "treble",
          "pitch": "F#5"
        },
        {
          "midi": 54,
          "beat": 0.5,
          "dur": 0.25,
          "vel": 63,
          "clef": "bass",
          "pitch": "F#3"
        },
        {
          "midi": 60,
          "beat": 0.5,
          "dur": 0.25,
          "vel": 63,
          "clef": "treble",
          "pitch": "C4"
        },
        {
          "midi": 63,
          "beat": 0.5,
          "dur": 0.25,
          "vel": 63,
          "clef": "treble",
          "pitch": "D#4"
        },
        {
          "midi": 66,
          "beat": 0.5,
          "dur": 0.25,
          "vel": 76,
          "clef": "treble",
          "pitch": "F#4"
        },
        {
          "midi": 72,
          "beat": 0.5,
          "dur": 0.25,
          "vel": 76,
          "clef": "treble",
          "pitch": "C5"
        },
        {
          "midi": 75,
          "beat": 0.5,
          "dur": 0.25,
          "vel": 76,
          "clef": "treble",
          "pitch": "D#5"
        },
        {
          "midi": 78,
          "beat": 0.5,
          "dur": 0.25,
          "vel": 76,
          "clef": "treble",
          "pitch": "F#5"
        },
        {
          "midi": 56,
          "beat": 1,
          "dur": 0.25,
          "vel": 60,
          "clef": "bass",
          "pitch": "G#3"
        },
        {
          "midi": 60,
          "beat": 1,
          "dur": 0.25,
          "vel": 60,
          "clef": "treble",
          "pitch": "C4"
        },
        {
          "midi": 63,
          "beat": 1,
          "dur": 0.25,
          "vel": 60,
          "clef": "treble",
          "pitch": "D#4"
        },
        {
          "midi": 68,
          "beat": 1,
          "dur": 0.25,
          "vel": 74,
          "clef": "treble",
          "pitch": "G#4"
        },
        {
          "midi": 72,
          "beat": 1,
          "dur": 0.25,
          "vel": 74,
          "clef": "treble",
          "pitch": "C5"
        },
        {
          "midi": 75,
          "beat": 1,
          "dur": 0.25,
          "vel": 74,
          "clef": "treble",
          "pitch": "D#5"
        },
        {
          "midi": 80,
          "beat": 1,
          "dur": 0.25,
          "vel": 74,
          "clef": "treble",
          "pitch": "G#5"
        },
        {
          "midi": 54,
          "beat": 1.5,
          "dur": 0.78,
          "vel": 59,
          "clef": "bass",
          "pitch": "F#3"
        },
        {
          "midi": 60,
          "beat": 1.5,
          "dur": 0.78,
          "vel": 59,
          "clef": "treble",
          "pitch": "C4"
        },
        {
          "midi": 63,
          "beat": 1.5,
          "dur": 0.78,
          "vel": 59,
          "clef": "treble",
          "pitch": "D#4"
        },
        {
          "midi": 66,
          "beat": 1.5,
          "dur": 0.78,
          "vel": 70,
          "clef": "treble",
          "pitch": "F#4"
        },
        {
          "midi": 72,
          "beat": 1.5,
          "dur": 0.78,
          "vel": 70,
          "clef": "treble",
          "pitch": "C5"
        },
        {
          "midi": 75,
          "beat": 1.5,
          "dur": 0.78,
          "vel": 70,
          "clef": "treble",
          "pitch": "D#5"
        },
        {
          "midi": 78,
          "beat": 1.5,
          "dur": 0.78,
          "vel": 70,
          "clef": "treble",
          "pitch": "F#5"
        },
        {
          "midi": 34,
          "beat": 3,
          "dur": 1.5,
          "vel": 77,
          "clef": "bass",
          "acc": "#",
          "pitch": "A#1"
        },
        {
          "midi": 46,
          "beat": 3,
          "dur": 1.5,
          "vel": 77,
          "clef": "bass",
          "acc": "#",
          "pitch": "A#2"
        },
        {
          "midi": 54,
          "beat": 3.5,
          "dur": 0.4,
          "vel": 59,
          "clef": "bass",
          "pitch": "F#3"
        },
        {
          "midi": 58,
          "beat": 3.5,
          "dur": 0.8,
          "vel": 52,
          "clef": "bass",
          "acc": "#",
          "pitch": "A#3"
        },
        {
          "midi": 61,
          "beat": 3.5,
          "dur": 0.78,
          "vel": 52,
          "clef": "treble",
          "pitch": "C#4"
        },
        {
          "midi": 66,
          "beat": 3.5,
          "dur": 0.4,
          "vel": 62,
          "clef": "treble",
          "pitch": "F#4"
        },
        {
          "midi": 73,
          "beat": 3.5,
          "dur": 1,
          "vel": 94,
          "clef": "treble",
          "pitch": "C#5"
        },
        {
          "midi": 78,
          "beat": 3.5,
          "dur": 0.4,
          "vel": 62,
          "clef": "treble",
          "pitch": "F#5"
        },
        {
          "midi": 56,
          "beat": 4,
          "dur": 0.4,
          "vel": 63,
          "clef": "bass",
          "pitch": "G#3"
        },
        {
          "midi": 68,
          "beat": 4,
          "dur": 0.4,
          "vel": 63,
          "clef": "treble",
          "pitch": "G#4"
        },
        {
          "midi": 80,
          "beat": 4,
          "dur": 0.4,
          "vel": 63,
          "clef": "treble",
          "pitch": "G#5"
        }
      ]
    },
    {
      "_": "Treble: 36 notes, Bass: 13 notes",
      "number": 20,
      "notes": [
        {
          "midi": 61,
          "beat": 0,
          "dur": 0.4,
          "vel": 71,
          "clef": "treble",
          "pitch": "C#4"
        },
        {
          "midi": 73,
          "beat": 0,
          "dur": 0.41,
          "vel": 76,
          "clef": "treble",
          "pitch": "C#5"
        },
        {
          "midi": 85,
          "beat": 0,
          "dur": 0.4,
          "vel": 76,
          "clef": "treble",
          "pitch": "C#6"
        },
        {
          "midi": 58,
          "beat": 0.5,
          "dur": 0.4,
          "vel": 73,
          "clef": "bass",
          "acc": "#",
          "pitch": "A#3"
        },
        {
          "midi": 61,
          "beat": 0.5,
          "dur": 0.74,
          "vel": 65,
          "clef": "treble",
          "pitch": "C#4"
        },
        {
          "midi": 66,
          "beat": 0.5,
          "dur": 0.74,
          "vel": 65,
          "clef": "treble",
          "pitch": "F#4"
        },
        {
          "midi": 70,
          "beat": 0.5,
          "dur": 0.4,
          "vel": 70,
          "clef": "treble",
          "acc": "#",
          "pitch": "A#4"
        },
        {
          "midi": 78,
          "beat": 0.5,
          "dur": 0.74,
          "vel": 110,
          "clef": "treble",
          "pitch": "F#5"
        },
        {
          "midi": 82,
          "beat": 0.5,
          "dur": 0.4,
          "vel": 70,
          "clef": "treble",
          "acc": "#",
          "pitch": "A#5"
        },
        {
          "midi": 54,
          "beat": 1,
          "dur": 0.37,
          "vel": 57,
          "clef": "bass",
          "pitch": "F#3"
        },
        {
          "midi": 66,
          "beat": 1,
          "dur": 0.37,
          "vel": 64,
          "clef": "treble",
          "pitch": "F#4"
        },
        {
          "midi": 78,
          "beat": 1,
          "dur": 0.37,
          "vel": 64,
          "clef": "treble",
          "pitch": "F#5"
        },
        {
          "midi": 36,
          "beat": 1.5,
          "dur": 1.48,
          "vel": 70,
          "clef": "bass",
          "pitch": "C2"
        },
        {
          "midi": 48,
          "beat": 1.5,
          "dur": 1.48,
          "vel": 70,
          "clef": "bass",
          "pitch": "C3"
        },
        {
          "midi": 54,
          "beat": 2,
          "dur": 0.25,
          "vel": 57,
          "clef": "bass",
          "pitch": "F#3"
        },
        {
          "midi": 58,
          "beat": 2,
          "dur": 0.25,
          "vel": 57,
          "clef": "bass",
          "acc": "#",
          "pitch": "A#3"
        },
        {
          "midi": 63,
          "beat": 2,
          "dur": 0.25,
          "vel": 57,
          "clef": "treble",
          "pitch": "D#4"
        },
        {
          "midi": 66,
          "beat": 2,
          "dur": 0.25,
          "vel": 68,
          "clef": "treble",
          "pitch": "F#4"
        },
        {
          "midi": 70,
          "beat": 2,
          "dur": 0.25,
          "vel": 68,
          "clef": "treble",
          "acc": "#",
          "pitch": "A#4"
        },
        {
          "midi": 75,
          "beat": 2,
          "dur": 0.25,
          "vel": 68,
          "clef": "treble",
          "pitch": "D#5"
        },
        {
          "midi": 78,
          "beat": 2,
          "dur": 0.25,
          "vel": 68,
          "clef": "treble",
          "pitch": "F#5"
        },
        {
          "midi": 54,
          "beat": 2.5,
          "dur": 0.25,
          "vel": 65,
          "clef": "bass",
          "pitch": "F#3"
        },
        {
          "midi": 58,
          "beat": 2.5,
          "dur": 0.25,
          "vel": 65,
          "clef": "bass",
          "acc": "#",
          "pitch": "A#3"
        },
        {
          "midi": 63,
          "beat": 2.5,
          "dur": 0.25,
          "vel": 65,
          "clef": "treble",
          "pitch": "D#4"
        },
        {
          "midi": 66,
          "beat": 2.5,
          "dur": 0.25,
          "vel": 76,
          "clef": "treble",
          "pitch": "F#4"
        },
        {
          "midi": 70,
          "beat": 2.5,
          "dur": 0.25,
          "vel": 76,
          "clef": "treble",
          "acc": "#",
          "pitch": "A#4"
        },
        {
          "midi": 75,
          "beat": 2.5,
          "dur": 0.25,
          "vel": 76,
          "clef": "treble",
          "pitch": "D#5"
        },
        {
          "midi": 78,
          "beat": 2.5,
          "dur": 0.25,
          "vel": 76,
          "clef": "treble",
          "pitch": "F#5"
        },
        {
          "midi": 54,
          "beat": 3,
          "dur": 0.24,
          "vel": 64,
          "clef": "bass",
          "pitch": "F#3"
        },
        {
          "midi": 58,
          "beat": 3,
          "dur": 0.24,
          "vel": 64,
          "clef": "bass",
          "acc": "#",
          "pitch": "A#3"
        },
        {
          "midi": 63,
          "beat": 3,
          "dur": 0.24,
          "vel": 64,
          "clef": "treble",
          "pitch": "D#4"
        },
        {
          "midi": 66,
          "beat": 3,
          "dur": 0.24,
          "vel": 82,
          "clef": "treble",
          "pitch": "F#4"
        },
        {
          "midi": 70,
          "beat": 3,
          "dur": 0.24,
          "vel": 82,
          "clef": "treble",
          "acc": "#",
          "pitch": "A#4"
        },
        {
          "midi": 75,
          "beat": 3,
          "dur": 0.24,
          "vel": 82,
          "clef": "treble",
          "pitch": "D#5"
        },
        {
          "midi": 78,
          "beat": 3,
          "dur": 0.24,
          "vel": 82,
          "clef": "treble",
          "pitch": "F#5"
        },
        {
          "midi": 54,
          "beat": 3.5,
          "dur": 0.25,
          "vel": 69,
          "clef": "bass",
          "pitch": "F#3"
        },
        {
          "midi": 58,
          "beat": 3.5,
          "dur": 0.25,
          "vel": 69,
          "clef": "bass",
          "acc": "#",
          "pitch": "A#3"
        },
        {
          "midi": 63,
          "beat": 3.5,
          "dur": 0.25,
          "vel": 69,
          "clef": "treble",
          "pitch": "D#4"
        },
        {
          "midi": 66,
          "beat": 3.5,
          "dur": 0.25,
          "vel": 81,
          "clef": "treble",
          "pitch": "F#4"
        },
        {
          "midi": 70,
          "beat": 3.5,
          "dur": 0.25,
          "vel": 81,
          "clef": "treble",
          "acc": "#",
          "pitch": "A#4"
        },
        {
          "midi": 75,
          "beat": 3.5,
          "dur": 0.25,
          "vel": 81,
          "clef": "treble",
          "pitch": "D#5"
        },
        {
          "midi": 78,
          "beat": 3.5,
          "dur": 0.25,
          "vel": 81,
          "clef": "treble",
          "pitch": "F#5"
        },
        {
          "midi": 56,
          "beat": 4,
          "dur": 0.25,
          "vel": 78,
          "clef": "bass",
          "pitch": "G#3"
        },
        {
          "midi": 60,
          "beat": 4,
          "dur": 0.25,
          "vel": 78,
          "clef": "treble",
          "pitch": "C4"
        },
        {
          "midi": 65,
          "beat": 4,
          "dur": 0.25,
          "vel": 78,
          "clef": "treble",
          "pitch": "F4"
        },
        {
          "midi": 68,
          "beat": 4,
          "dur": 0.25,
          "vel": 95,
          "clef": "treble",
          "pitch": "G#4"
        },
        {
          "midi": 72,
          "beat": 4,
          "dur": 0.25,
          "vel": 95,
          "clef": "treble",
          "pitch": "C5"
        },
        {
          "midi": 77,
          "beat": 4,
          "dur": 0.25,
          "vel": 95,
          "clef": "treble",
          "pitch": "F5"
        },
        {
          "midi": 80,
          "beat": 4,
          "dur": 0.25,
          "vel": 95,
          "clef": "treble",
          "pitch": "G#5"
        }
      ]
    },
    {
      "_": "Treble: 24 notes, Bass: 8 notes",
      "number": 21,
      "notes": [
        {
          "midi": 54,
          "beat": 0,
          "dur": 0.72,
          "vel": 60,
          "clef": "bass",
          "pitch": "F#3"
        },
        {
          "midi": 58,
          "beat": 0,
          "dur": 0.72,
          "vel": 60,
          "clef": "bass",
          "acc": "#",
          "pitch": "A#3"
        },
        {
          "midi": 63,
          "beat": 0,
          "dur": 0.72,
          "vel": 60,
          "clef": "treble",
          "pitch": "D#4"
        },
        {
          "midi": 66,
          "beat": 0,
          "dur": 0.72,
          "vel": 73,
          "clef": "treble",
          "pitch": "F#4"
        },
        {
          "midi": 70,
          "beat": 0,
          "dur": 0.72,
          "vel": 73,
          "clef": "treble",
          "acc": "#",
          "pitch": "A#4"
        },
        {
          "midi": 75,
          "beat": 0,
          "dur": 0.72,
          "vel": 73,
          "clef": "treble",
          "pitch": "D#5"
        },
        {
          "midi": 78,
          "beat": 0,
          "dur": 0.72,
          "vel": 73,
          "clef": "treble",
          "pitch": "F#5"
        },
        {
          "midi": 37,
          "beat": 1.5,
          "dur": 2.6,
          "vel": 75,
          "clef": "bass",
          "pitch": "C#2"
        },
        {
          "midi": 49,
          "beat": 1.5,
          "dur": 2.6,
          "vel": 75,
          "clef": "bass",
          "pitch": "C#3"
        },
        {
          "midi": 54,
          "beat": 2,
          "dur": 0.39,
          "vel": 69,
          "clef": "bass",
          "pitch": "F#3"
        },
        {
          "midi": 58,
          "beat": 2,
          "dur": 0.78,
          "vel": 66,
          "clef": "bass",
          "acc": "#",
          "pitch": "A#3"
        },
        {
          "midi": 61,
          "beat": 2,
          "dur": 0.78,
          "vel": 66,
          "clef": "treble",
          "pitch": "C#4"
        },
        {
          "midi": 66,
          "beat": 2,
          "dur": 0.39,
          "vel": 66,
          "clef": "treble",
          "pitch": "F#4"
        },
        {
          "midi": 70,
          "beat": 2,
          "dur": 1.16,
          "vel": 65,
          "clef": "treble",
          "acc": "#",
          "pitch": "A#4"
        },
        {
          "midi": 73,
          "beat": 2,
          "dur": 1.16,
          "vel": 65,
          "clef": "treble",
          "pitch": "C#5"
        },
        {
          "midi": 78,
          "beat": 2,
          "dur": 0.39,
          "vel": 66,
          "clef": "treble",
          "pitch": "F#5"
        },
        {
          "midi": 56,
          "beat": 2.5,
          "dur": 0.39,
          "vel": 73,
          "clef": "bass",
          "pitch": "G#3"
        },
        {
          "midi": 68,
          "beat": 2.5,
          "dur": 0.39,
          "vel": 77,
          "clef": "treble",
          "pitch": "G#4"
        },
        {
          "midi": 80,
          "beat": 2.5,
          "dur": 0.39,
          "vel": 77,
          "clef": "treble",
          "pitch": "G#5"
        },
        {
          "midi": 63,
          "beat": 3,
          "dur": 0.39,
          "vel": 83,
          "clef": "treble",
          "pitch": "D#4"
        },
        {
          "midi": 75,
          "beat": 3,
          "dur": 0.39,
          "vel": 87,
          "clef": "treble",
          "pitch": "D#5"
        },
        {
          "midi": 87,
          "beat": 3,
          "dur": 0.39,
          "vel": 87,
          "clef": "treble",
          "pitch": "D#6"
        },
        {
          "midi": 61,
          "beat": 3.5,
          "dur": 0.39,
          "vel": 80,
          "clef": "treble",
          "pitch": "C#4"
        },
        {
          "midi": 66,
          "beat": 3.5,
          "dur": 0.72,
          "vel": 63,
          "clef": "treble",
          "pitch": "F#4"
        },
        {
          "midi": 70,
          "beat": 3.5,
          "dur": 0.72,
          "vel": 63,
          "clef": "treble",
          "acc": "#",
          "pitch": "A#4"
        },
        {
          "midi": 73,
          "beat": 3.5,
          "dur": 0.39,
          "vel": 72,
          "clef": "treble",
          "pitch": "C#5"
        },
        {
          "midi": 78,
          "beat": 3.5,
          "dur": 0.72,
          "vel": 81,
          "clef": "treble",
          "pitch": "F#5"
        },
        {
          "midi": 82,
          "beat": 3.5,
          "dur": 0.72,
          "vel": 81,
          "clef": "treble",
          "acc": "#",
          "pitch": "A#5"
        },
        {
          "midi": 85,
          "beat": 3.5,
          "dur": 0.39,
          "vel": 72,
          "clef": "treble",
          "pitch": "C#6"
        },
        {
          "midi": 58,
          "beat": 4,
          "dur": 0.36,
          "vel": 68,
          "clef": "bass",
          "acc": "#",
          "pitch": "A#3"
        },
        {
          "midi": 70,
          "beat": 4,
          "dur": 0.36,
          "vel": 67,
          "clef": "treble",
          "acc": "#",
          "pitch": "A#4"
        },
        {
          "midi": 82,
          "beat": 4,
          "dur": 0.36,
          "vel": 67,
          "clef": "treble",
          "acc": "#",
          "pitch": "A#5"
        }
      ]
    },
    {
      "_": "Treble: 43 notes, Bass: 7 notes",
      "number": 22,
      "notes": [
        {
          "midi": 39,
          "beat": 0,
          "dur": 1.45,
          "vel": 74,
          "clef": "bass",
          "pitch": "D#2"
        },
        {
          "midi": 51,
          "beat": 0,
          "dur": 1.45,
          "vel": 74,
          "clef": "bass",
          "pitch": "D#3"
        },
        {
          "midi": 58,
          "beat": 0.5,
          "dur": 0.25,
          "vel": 64,
          "clef": "bass",
          "acc": "#",
          "pitch": "A#3"
        },
        {
          "midi": 61,
          "beat": 0.5,
          "dur": 0.25,
          "vel": 64,
          "clef": "treble",
          "pitch": "C#4"
        },
        {
          "midi": 66,
          "beat": 0.5,
          "dur": 0.25,
          "vel": 64,
          "clef": "treble",
          "pitch": "F#4"
        },
        {
          "midi": 70,
          "beat": 0.5,
          "dur": 0.25,
          "vel": 63,
          "clef": "treble",
          "acc": "#",
          "pitch": "A#4"
        },
        {
          "midi": 78,
          "beat": 0.5,
          "dur": 0.25,
          "vel": 63,
          "clef": "treble",
          "pitch": "F#5"
        },
        {
          "midi": 82,
          "beat": 0.5,
          "dur": 0.25,
          "vel": 63,
          "clef": "treble",
          "acc": "#",
          "pitch": "A#5"
        },
        {
          "midi": 58,
          "beat": 1,
          "dur": 0.24,
          "vel": 76,
          "clef": "bass",
          "acc": "#",
          "pitch": "A#3"
        },
        {
          "midi": 61,
          "beat": 1,
          "dur": 0.24,
          "vel": 76,
          "clef": "treble",
          "pitch": "C#4"
        },
        {
          "midi": 66,
          "beat": 1,
          "dur": 0.24,
          "vel": 76,
          "clef": "treble",
          "pitch": "F#4"
        },
        {
          "midi": 70,
          "beat": 1,
          "dur": 0.24,
          "vel": 77,
          "clef": "treble",
          "acc": "#",
          "pitch": "A#4"
        },
        {
          "midi": 78,
          "beat": 1,
          "dur": 0.24,
          "vel": 77,
          "clef": "treble",
          "pitch": "F#5"
        },
        {
          "midi": 82,
          "beat": 1,
          "dur": 0.24,
          "vel": 77,
          "clef": "treble",
          "acc": "#",
          "pitch": "A#5"
        },
        {
          "midi": 58,
          "beat": 1.5,
          "dur": 0.24,
          "vel": 68,
          "clef": "bass",
          "acc": "#",
          "pitch": "A#3"
        },
        {
          "midi": 61,
          "beat": 1.5,
          "dur": 0.24,
          "vel": 68,
          "clef": "treble",
          "pitch": "C#4"
        },
        {
          "midi": 66,
          "beat": 1.5,
          "dur": 0.24,
          "vel": 68,
          "clef": "treble",
          "pitch": "F#4"
        },
        {
          "midi": 70,
          "beat": 1.5,
          "dur": 0.24,
          "vel": 74,
          "clef": "treble",
          "acc": "#",
          "pitch": "A#4"
        },
        {
          "midi": 78,
          "beat": 1.5,
          "dur": 0.24,
          "vel": 74,
          "clef": "treble",
          "pitch": "F#5"
        },
        {
          "midi": 82,
          "beat": 1.5,
          "dur": 0.24,
          "vel": 74,
          "clef": "treble",
          "acc": "#",
          "pitch": "A#5"
        },
        {
          "midi": 58,
          "beat": 2,
          "dur": 0.24,
          "vel": 68,
          "clef": "bass",
          "acc": "#",
          "pitch": "A#3"
        },
        {
          "midi": 61,
          "beat": 2,
          "dur": 0.24,
          "vel": 68,
          "clef": "treble",
          "pitch": "C#4"
        },
        {
          "midi": 66,
          "beat": 2,
          "dur": 0.24,
          "vel": 68,
          "clef": "treble",
          "pitch": "F#4"
        },
        {
          "midi": 70,
          "beat": 2,
          "dur": 0.24,
          "vel": 78,
          "clef": "treble",
          "acc": "#",
          "pitch": "A#4"
        },
        {
          "midi": 78,
          "beat": 2,
          "dur": 0.24,
          "vel": 78,
          "clef": "treble",
          "pitch": "F#5"
        },
        {
          "midi": 82,
          "beat": 2,
          "dur": 0.24,
          "vel": 78,
          "clef": "treble",
          "acc": "#",
          "pitch": "A#5"
        },
        {
          "midi": 60,
          "beat": 2.5,
          "dur": 0.24,
          "vel": 73,
          "clef": "treble",
          "pitch": "C4"
        },
        {
          "midi": 63,
          "beat": 2.5,
          "dur": 0.24,
          "vel": 73,
          "clef": "treble",
          "pitch": "D#4"
        },
        {
          "midi": 68,
          "beat": 2.5,
          "dur": 0.24,
          "vel": 73,
          "clef": "treble",
          "pitch": "G#4"
        },
        {
          "midi": 72,
          "beat": 2.5,
          "dur": 0.24,
          "vel": 86,
          "clef": "treble",
          "pitch": "C5"
        },
        {
          "midi": 80,
          "beat": 2.5,
          "dur": 0.24,
          "vel": 86,
          "clef": "treble",
          "pitch": "G#5"
        },
        {
          "midi": 84,
          "beat": 2.5,
          "dur": 0.24,
          "vel": 86,
          "clef": "treble",
          "pitch": "C6"
        },
        {
          "midi": 58,
          "beat": 3,
          "dur": 0.26,
          "vel": 70,
          "clef": "bass",
          "acc": "#",
          "pitch": "A#3"
        },
        {
          "midi": 61,
          "beat": 3,
          "dur": 0.25,
          "vel": 70,
          "clef": "treble",
          "pitch": "C#4"
        },
        {
          "midi": 66,
          "beat": 3,
          "dur": 0.25,
          "vel": 70,
          "clef": "treble",
          "pitch": "F#4"
        },
        {
          "midi": 70,
          "beat": 3,
          "dur": 0.26,
          "vel": 76,
          "clef": "treble",
          "acc": "#",
          "pitch": "A#4"
        },
        {
          "midi": 78,
          "beat": 3,
          "dur": 0.26,
          "vel": 76,
          "clef": "treble",
          "pitch": "F#5"
        },
        {
          "midi": 82,
          "beat": 3,
          "dur": 0.25,
          "vel": 76,
          "clef": "treble",
          "acc": "#",
          "pitch": "A#5"
        },
        {
          "midi": 61,
          "beat": 3.5,
          "dur": 0.27,
          "vel": 73,
          "clef": "treble",
          "pitch": "C#4"
        },
        {
          "midi": 66,
          "beat": 3.5,
          "dur": 0.26,
          "vel": 73,
          "clef": "treble",
          "pitch": "F#4"
        },
        {
          "midi": 70,
          "beat": 3.5,
          "dur": 0.26,
          "vel": 73,
          "clef": "treble",
          "acc": "#",
          "pitch": "A#4"
        },
        {
          "midi": 73,
          "beat": 3.5,
          "dur": 0.27,
          "vel": 89,
          "clef": "treble",
          "pitch": "C#5"
        },
        {
          "midi": 82,
          "beat": 3.5,
          "dur": 0.26,
          "vel": 89,
          "clef": "treble",
          "acc": "#",
          "pitch": "A#5"
        },
        {
          "midi": 85,
          "beat": 3.5,
          "dur": 0.27,
          "vel": 89,
          "clef": "treble",
          "pitch": "C#6"
        },
        {
          "midi": 63,
          "beat": 4,
          "dur": 0.25,
          "vel": 73,
          "clef": "treble",
          "pitch": "D#4"
        },
        {
          "midi": 66,
          "beat": 4,
          "dur": 0.25,
          "vel": 73,
          "clef": "treble",
          "pitch": "F#4"
        },
        {
          "midi": 70,
          "beat": 4,
          "dur": 0.25,
          "vel": 73,
          "clef": "treble",
          "acc": "#",
          "pitch": "A#4"
        },
        {
          "midi": 75,
          "beat": 4,
          "dur": 0.25,
          "vel": 89,
          "clef": "treble",
          "pitch": "D#5"
        },
        {
          "midi": 82,
          "beat": 4,
          "dur": 0.25,
          "vel": 89,
          "clef": "treble",
          "acc": "#",
          "pitch": "A#5"
        },
        {
          "midi": 87,
          "beat": 4,
          "dur": 0.25,
          "vel": 89,
          "clef": "treble",
          "pitch": "D#6"
        }
      ]
    },
    {
      "_": "Treble: 15 notes, Bass: 0 notes",
      "number": 23,
      "notes": [
        {
          "midi": 65,
          "beat": 0,
          "dur": 1.65,
          "vel": 107,
          "clef": "treble",
          "pitch": "F4"
        },
        {
          "midi": 80,
          "beat": 0,
          "dur": 1.6,
          "vel": 78,
          "clef": "treble",
          "pitch": "G#5"
        },
        {
          "midi": 68,
          "beat": 0.12,
          "dur": 1.51,
          "vel": 107,
          "clef": "treble",
          "pitch": "G#4"
        },
        {
          "midi": 85,
          "beat": 0.12,
          "dur": 1.51,
          "vel": 78,
          "clef": "treble",
          "pitch": "C#6"
        },
        {
          "midi": 73,
          "beat": 0.24,
          "dur": 1.45,
          "vel": 107,
          "clef": "treble",
          "pitch": "C#5"
        },
        {
          "midi": 92,
          "beat": 0.24,
          "dur": 1.45,
          "vel": 78,
          "clef": "treble",
          "pitch": "G#6"
        },
        {
          "midi": 77,
          "beat": 0.36,
          "dur": 1.41,
          "vel": 107,
          "clef": "treble",
          "pitch": "F5"
        },
        {
          "midi": 64,
          "beat": 3,
          "dur": 0.84,
          "vel": 79,
          "clef": "treble",
          "pitch": "E4"
        },
        {
          "midi": 80,
          "beat": 3,
          "dur": 0.83,
          "vel": 77,
          "clef": "treble",
          "pitch": "G#5"
        },
        {
          "midi": 68,
          "beat": 3.11,
          "dur": 0.77,
          "vel": 79,
          "clef": "treble",
          "pitch": "G#4"
        },
        {
          "midi": 85,
          "beat": 3.11,
          "dur": 0.77,
          "vel": 77,
          "clef": "treble",
          "pitch": "C#6"
        },
        {
          "midi": 70,
          "beat": 3.23,
          "dur": 0.72,
          "vel": 79,
          "clef": "treble",
          "acc": "#",
          "pitch": "A#4"
        },
        {
          "midi": 92,
          "beat": 3.23,
          "dur": 0.7,
          "vel": 77,
          "clef": "treble",
          "pitch": "G#6"
        },
        {
          "midi": 73,
          "beat": 3.34,
          "dur": 0.64,
          "vel": 79,
          "clef": "treble",
          "pitch": "C#5"
        },
        {
          "midi": 76,
          "beat": 3.45,
          "dur": 0.59,
          "vel": 79,
          "clef": "treble",
          "pitch": "E5"
        }
      ]
    },
    {
      "_": "Treble: 14 notes, Bass: 1 notes",
      "number": 24,
      "notes": [
        {
          "midi": 63,
          "beat": 0,
          "dur": 1.72,
          "vel": 62,
          "clef": "treble",
          "pitch": "D#4"
        },
        {
          "midi": 80,
          "beat": 0,
          "dur": 1.85,
          "vel": 69,
          "clef": "treble",
          "pitch": "G#5"
        },
        {
          "midi": 66,
          "beat": 0.11,
          "dur": 1.64,
          "vel": 62,
          "clef": "treble",
          "pitch": "F#4"
        },
        {
          "midi": 85,
          "beat": 0.11,
          "dur": 1.76,
          "vel": 69,
          "clef": "treble",
          "pitch": "C#6"
        },
        {
          "midi": 68,
          "beat": 0.22,
          "dur": 1.55,
          "vel": 62,
          "clef": "treble",
          "pitch": "G#4"
        },
        {
          "midi": 92,
          "beat": 0.22,
          "dur": 1.67,
          "vel": 69,
          "clef": "treble",
          "pitch": "G#6"
        },
        {
          "midi": 73,
          "beat": 0.33,
          "dur": 1.47,
          "vel": 62,
          "clef": "treble",
          "pitch": "C#5"
        },
        {
          "midi": 75,
          "beat": 0.44,
          "dur": 1.42,
          "vel": 62,
          "clef": "treble",
          "pitch": "D#5"
        },
        {
          "midi": 56,
          "beat": 3,
          "dur": 1.3,
          "vel": 57,
          "clef": "bass",
          "pitch": "G#3"
        },
        {
          "midi": 68,
          "beat": 3,
          "dur": 1.3,
          "vel": 59,
          "clef": "treble",
          "pitch": "G#4"
        },
        {
          "midi": 63,
          "beat": 3.07,
          "dur": 1.24,
          "vel": 52,
          "clef": "treble",
          "pitch": "D#4"
        },
        {
          "midi": 75,
          "beat": 3.07,
          "dur": 1.24,
          "vel": 59,
          "clef": "treble",
          "pitch": "D#5"
        },
        {
          "midi": 66,
          "beat": 3.14,
          "dur": 1.18,
          "vel": 51,
          "clef": "treble",
          "pitch": "F#4"
        },
        {
          "midi": 80,
          "beat": 3.14,
          "dur": 1.18,
          "vel": 59,
          "clef": "treble",
          "pitch": "G#5"
        },
        {
          "midi": 72,
          "beat": 3.21,
          "dur": 1.11,
          "vel": 51,
          "clef": "treble",
          "pitch": "C5"
        }
      ]
    },
    {
      "_": "Treble: 10 notes, Bass: 13 notes",
      "number": 25,
      "notes": [
        {
          "midi": 37,
          "beat": 0,
          "dur": 0.71,
          "vel": 35,
          "clef": "bass",
          "pitch": "C#2"
        },
        {
          "midi": 65,
          "beat": 0,
          "dur": 1.49,
          "vel": 34,
          "clef": "treble",
          "pitch": "F4"
        },
        {
          "midi": 68,
          "beat": 0,
          "dur": 1.5,
          "vel": 34,
          "clef": "treble",
          "pitch": "G#4"
        },
        {
          "midi": 44,
          "beat": 0.25,
          "dur": 0.13,
          "vel": 40,
          "clef": "bass",
          "pitch": "G#2"
        },
        {
          "midi": 49,
          "beat": 0.5,
          "dur": 0.13,
          "vel": 40,
          "clef": "bass",
          "pitch": "C#3"
        },
        {
          "midi": 53,
          "beat": 0.75,
          "dur": 0.13,
          "vel": 42,
          "clef": "bass",
          "pitch": "F3"
        },
        {
          "midi": 56,
          "beat": 1,
          "dur": 0.13,
          "vel": 43,
          "clef": "bass",
          "pitch": "G#3"
        },
        {
          "midi": 61,
          "beat": 1.25,
          "dur": 0.12,
          "vel": 52,
          "clef": "treble",
          "pitch": "C#4"
        },
        {
          "midi": 41,
          "beat": 1.5,
          "dur": 0.71,
          "vel": 36,
          "clef": "bass",
          "pitch": "F2"
        },
        {
          "midi": 48,
          "beat": 1.75,
          "dur": 0.13,
          "vel": 41,
          "clef": "bass",
          "pitch": "C3"
        },
        {
          "midi": 53,
          "beat": 2,
          "dur": 0.13,
          "vel": 46,
          "clef": "bass",
          "pitch": "F3"
        },
        {
          "midi": 56,
          "beat": 2.25,
          "dur": 0.13,
          "vel": 42,
          "clef": "bass",
          "pitch": "G#3"
        },
        {
          "midi": 60,
          "beat": 2.5,
          "dur": 0.13,
          "vel": 49,
          "clef": "treble",
          "pitch": "C4"
        },
        {
          "midi": 65,
          "beat": 2.75,
          "dur": 0.16,
          "vel": 48,
          "clef": "treble",
          "pitch": "F4"
        },
        {
          "midi": 44,
          "beat": 3,
          "dur": 0.77,
          "vel": 38,
          "clef": "bass",
          "pitch": "G#2"
        },
        {
          "midi": 68,
          "beat": 3,
          "dur": 0.55,
          "vel": 60,
          "clef": "treble",
          "pitch": "G#4"
        },
        {
          "midi": 71,
          "beat": 3,
          "dur": 0.55,
          "vel": 60,
          "clef": "treble",
          "pitch": "B4"
        },
        {
          "midi": 52,
          "beat": 3.25,
          "dur": 0.14,
          "vel": 42,
          "clef": "bass",
          "pitch": "E3"
        },
        {
          "midi": 56,
          "beat": 3.5,
          "dur": 0.14,
          "vel": 44,
          "clef": "bass",
          "pitch": "G#3"
        },
        {
          "midi": 59,
          "beat": 3.75,
          "dur": 0.14,
          "vel": 45,
          "clef": "bass",
          "pitch": "B3"
        },
        {
          "midi": 64,
          "beat": 4,
          "dur": 0.14,
          "vel": 51,
          "clef": "treble",
          "pitch": "E4"
        },
        {
          "midi": 73,
          "beat": 4,
          "dur": 0.26,
          "vel": 65,
          "clef": "treble",
          "pitch": "C#5"
        },
        {
          "midi": 68,
          "beat": 4.25,
          "dur": 0.13,
          "vel": 48,
          "clef": "treble",
          "pitch": "G#4"
        }
      ]
    },
    {
      "_": "Treble: 10 notes, Bass: 13 notes",
      "number": 26,
      "notes": [
        {
          "midi": 37,
          "beat": 0,
          "dur": 0.72,
          "vel": 38,
          "clef": "bass",
          "pitch": "C#2"
        },
        {
          "midi": 65,
          "beat": 0,
          "dur": 1.5,
          "vel": 50,
          "clef": "treble",
          "pitch": "F4"
        },
        {
          "midi": 68,
          "beat": 0,
          "dur": 1.51,
          "vel": 50,
          "clef": "treble",
          "pitch": "G#4"
        },
        {
          "midi": 44,
          "beat": 0.25,
          "dur": 0.13,
          "vel": 46,
          "clef": "bass",
          "pitch": "G#2"
        },
        {
          "midi": 49,
          "beat": 0.5,
          "dur": 0.13,
          "vel": 52,
          "clef": "bass",
          "pitch": "C#3"
        },
        {
          "midi": 53,
          "beat": 0.75,
          "dur": 0.13,
          "vel": 46,
          "clef": "bass",
          "pitch": "F3"
        },
        {
          "midi": 56,
          "beat": 1,
          "dur": 0.13,
          "vel": 52,
          "clef": "bass",
          "pitch": "G#3"
        },
        {
          "midi": 61,
          "beat": 1.25,
          "dur": 0.12,
          "vel": 49,
          "clef": "treble",
          "pitch": "C#4"
        },
        {
          "midi": 41,
          "beat": 1.5,
          "dur": 0.71,
          "vel": 41,
          "clef": "bass",
          "pitch": "F2"
        },
        {
          "midi": 48,
          "beat": 1.75,
          "dur": 0.13,
          "vel": 46,
          "clef": "bass",
          "pitch": "C3"
        },
        {
          "midi": 53,
          "beat": 2,
          "dur": 0.13,
          "vel": 50,
          "clef": "bass",
          "pitch": "F3"
        },
        {
          "midi": 56,
          "beat": 2.25,
          "dur": 0.13,
          "vel": 49,
          "clef": "bass",
          "pitch": "G#3"
        },
        {
          "midi": 60,
          "beat": 2.5,
          "dur": 0.13,
          "vel": 54,
          "clef": "treble",
          "pitch": "C4"
        },
        {
          "midi": 65,
          "beat": 2.75,
          "dur": 0.15,
          "vel": 46,
          "clef": "treble",
          "pitch": "F4"
        },
        {
          "midi": 44,
          "beat": 3,
          "dur": 0.72,
          "vel": 35,
          "clef": "bass",
          "pitch": "G#2"
        },
        {
          "midi": 68,
          "beat": 3,
          "dur": 0.51,
          "vel": 70,
          "clef": "treble",
          "pitch": "G#4"
        },
        {
          "midi": 71,
          "beat": 3,
          "dur": 0.52,
          "vel": 70,
          "clef": "treble",
          "pitch": "B4"
        },
        {
          "midi": 52,
          "beat": 3.25,
          "dur": 0.13,
          "vel": 44,
          "clef": "bass",
          "pitch": "E3"
        },
        {
          "midi": 56,
          "beat": 3.5,
          "dur": 0.13,
          "vel": 47,
          "clef": "bass",
          "pitch": "G#3"
        },
        {
          "midi": 59,
          "beat": 3.75,
          "dur": 0.13,
          "vel": 40,
          "clef": "bass",
          "pitch": "B3"
        },
        {
          "midi": 68,
          "beat": 4,
          "dur": 0.13,
          "vel": 64,
          "clef": "treble",
          "pitch": "G#4"
        },
        {
          "midi": 68,
          "beat": 4,
          "dur": 0.24,
          "vel": 50,
          "clef": "treble",
          "pitch": "G#4"
        },
        {
          "midi": 64,
          "beat": 4.25,
          "dur": 0.12,
          "vel": 37,
          "clef": "treble",
          "pitch": "E4"
        }
      ]
    },
    {
      "_": "Treble: 15 notes, Bass: 13 notes",
      "number": 27,
      "notes": [
        {
          "midi": 37,
          "beat": 0,
          "dur": 0.13,
          "vel": 40,
          "clef": "bass",
          "pitch": "C#2"
        },
        {
          "midi": 65,
          "beat": 0,
          "dur": 0.52,
          "vel": 75,
          "clef": "treble",
          "pitch": "F4"
        },
        {
          "midi": 73,
          "beat": 0,
          "dur": 0.52,
          "vel": 75,
          "clef": "treble",
          "pitch": "C#5"
        },
        {
          "midi": 44,
          "beat": 0.25,
          "dur": 0.13,
          "vel": 46,
          "clef": "bass",
          "pitch": "G#2"
        },
        {
          "midi": 49,
          "beat": 0.5,
          "dur": 0.13,
          "vel": 49,
          "clef": "bass",
          "pitch": "C#3"
        },
        {
          "midi": 53,
          "beat": 0.75,
          "dur": 0.13,
          "vel": 52,
          "clef": "bass",
          "pitch": "F3"
        },
        {
          "midi": 56,
          "beat": 1,
          "dur": 0.13,
          "vel": 45,
          "clef": "bass",
          "pitch": "G#3"
        },
        {
          "midi": 68,
          "beat": 1,
          "dur": 0.26,
          "vel": 69,
          "clef": "treble",
          "pitch": "G#4"
        },
        {
          "midi": 75,
          "beat": 1,
          "dur": 0.26,
          "vel": 69,
          "clef": "treble",
          "pitch": "D#5"
        },
        {
          "midi": 61,
          "beat": 1.25,
          "dur": 0.13,
          "vel": 49,
          "clef": "treble",
          "pitch": "C#4"
        },
        {
          "midi": 65,
          "beat": 1.5,
          "dur": 0.13,
          "vel": 50,
          "clef": "treble",
          "pitch": "F4"
        },
        {
          "midi": 73,
          "beat": 1.5,
          "dur": 0.75,
          "vel": 69,
          "clef": "treble",
          "pitch": "C#5"
        },
        {
          "midi": 77,
          "beat": 1.5,
          "dur": 0.76,
          "vel": 69,
          "clef": "treble",
          "pitch": "F5"
        },
        {
          "midi": 68,
          "beat": 1.75,
          "dur": 0.13,
          "vel": 60,
          "clef": "treble",
          "pitch": "G#4"
        },
        {
          "midi": 65,
          "beat": 2,
          "dur": 0.13,
          "vel": 44,
          "clef": "treble",
          "pitch": "F4"
        },
        {
          "midi": 61,
          "beat": 2.25,
          "dur": 0.13,
          "vel": 40,
          "clef": "treble",
          "pitch": "C#4"
        },
        {
          "midi": 56,
          "beat": 2.5,
          "dur": 0.13,
          "vel": 40,
          "clef": "bass",
          "pitch": "G#3"
        },
        {
          "midi": 53,
          "beat": 2.75,
          "dur": 0.12,
          "vel": 41,
          "clef": "bass",
          "pitch": "F3"
        },
        {
          "midi": 56,
          "beat": 3,
          "dur": 0.12,
          "vel": 40,
          "clef": "bass",
          "pitch": "G#3"
        },
        {
          "midi": 65,
          "beat": 3,
          "dur": 0.5,
          "vel": 59,
          "clef": "treble",
          "pitch": "F4"
        },
        {
          "midi": 73,
          "beat": 3,
          "dur": 0.49,
          "vel": 59,
          "clef": "treble",
          "pitch": "C#5"
        },
        {
          "midi": 53,
          "beat": 3.25,
          "dur": 0.12,
          "vel": 41,
          "clef": "bass",
          "pitch": "F3"
        },
        {
          "midi": 49,
          "beat": 3.5,
          "dur": 0.12,
          "vel": 41,
          "clef": "bass",
          "pitch": "C#3"
        },
        {
          "midi": 44,
          "beat": 3.75,
          "dur": 0.12,
          "vel": 34,
          "clef": "bass",
          "pitch": "G#2"
        },
        {
          "midi": 49,
          "beat": 4,
          "dur": 0.12,
          "vel": 42,
          "clef": "bass",
          "pitch": "C#3"
        },
        {
          "midi": 73,
          "beat": 4,
          "dur": 0.23,
          "vel": 76,
          "clef": "treble",
          "pitch": "C#5"
        },
        {
          "midi": 77,
          "beat": 4,
          "dur": 0.23,
          "vel": 76,
          "clef": "treble",
          "pitch": "F5"
        },
        {
          "midi": 44,
          "beat": 4.25,
          "dur": 0.12,
          "vel": 41,
          "clef": "bass",
          "pitch": "G#2"
        }
      ]
    },
    {
      "_": "Treble: 15 notes, Bass: 16 notes",
      "number": 28,
      "notes": [
        {
          "midi": 39,
          "beat": 0,
          "dur": 0.12,
          "vel": 38,
          "clef": "bass",
          "pitch": "D#2"
        },
        {
          "midi": 75,
          "beat": 0,
          "dur": 0.25,
          "vel": 79,
          "clef": "treble",
          "pitch": "D#5"
        },
        {
          "midi": 79,
          "beat": 0,
          "dur": 0.25,
          "vel": 79,
          "clef": "treble",
          "pitch": "G5"
        },
        {
          "midi": 46,
          "beat": 0.25,
          "dur": 0.12,
          "vel": 47,
          "clef": "bass",
          "acc": "#",
          "pitch": "A#2"
        },
        {
          "midi": 51,
          "beat": 0.5,
          "dur": 0.12,
          "vel": 44,
          "clef": "bass",
          "pitch": "D#3"
        },
        {
          "midi": 73,
          "beat": 0.5,
          "dur": 0.25,
          "vel": 71,
          "clef": "treble",
          "pitch": "C#5"
        },
        {
          "midi": 77,
          "beat": 0.5,
          "dur": 0.25,
          "vel": 71,
          "clef": "treble",
          "pitch": "F5"
        },
        {
          "midi": 55,
          "beat": 0.75,
          "dur": 0.12,
          "vel": 45,
          "clef": "bass",
          "pitch": "G3"
        },
        {
          "midi": 58,
          "beat": 1,
          "dur": 0.12,
          "vel": 41,
          "clef": "bass",
          "acc": "#",
          "pitch": "A#3"
        },
        {
          "midi": 70,
          "beat": 1,
          "dur": 0.25,
          "vel": 63,
          "clef": "treble",
          "acc": "#",
          "pitch": "A#4"
        },
        {
          "midi": 73,
          "beat": 1,
          "dur": 0.25,
          "vel": 63,
          "clef": "treble",
          "pitch": "C#5"
        },
        {
          "midi": 63,
          "beat": 1.25,
          "dur": 0.13,
          "vel": 50,
          "clef": "treble",
          "pitch": "D#4"
        },
        {
          "midi": 67,
          "beat": 1.5,
          "dur": 0.13,
          "vel": 45,
          "clef": "treble",
          "pitch": "G4"
        },
        {
          "midi": 67,
          "beat": 1.5,
          "dur": 0.24,
          "vel": 47,
          "clef": "treble",
          "pitch": "G4"
        },
        {
          "midi": 70,
          "beat": 1.5,
          "dur": 0.68,
          "vel": 69,
          "clef": "treble",
          "acc": "#",
          "pitch": "A#4"
        },
        {
          "midi": 73,
          "beat": 1.5,
          "dur": 0.68,
          "vel": 69,
          "clef": "treble",
          "pitch": "C#5"
        },
        {
          "midi": 63,
          "beat": 1.75,
          "dur": 0.13,
          "vel": 45,
          "clef": "treble",
          "pitch": "D#4"
        },
        {
          "midi": 58,
          "beat": 2,
          "dur": 0.13,
          "vel": 38,
          "clef": "bass",
          "acc": "#",
          "pitch": "A#3"
        },
        {
          "midi": 65,
          "beat": 2,
          "dur": 0.25,
          "vel": 55,
          "clef": "treble",
          "pitch": "F4"
        },
        {
          "midi": 55,
          "beat": 2.25,
          "dur": 0.13,
          "vel": 37,
          "clef": "bass",
          "pitch": "G3"
        },
        {
          "midi": 51,
          "beat": 2.5,
          "dur": 0.13,
          "vel": 40,
          "clef": "bass",
          "pitch": "D#3"
        },
        {
          "midi": 61,
          "beat": 2.5,
          "dur": 0.26,
          "vel": 47,
          "clef": "treble",
          "pitch": "C#4"
        },
        {
          "midi": 46,
          "beat": 2.75,
          "dur": 0.13,
          "vel": 38,
          "clef": "bass",
          "acc": "#",
          "pitch": "A#2"
        },
        {
          "midi": 39,
          "beat": 3,
          "dur": 0.13,
          "vel": 38,
          "clef": "bass",
          "pitch": "D#2"
        },
        {
          "midi": 61,
          "beat": 3,
          "dur": 0.4,
          "vel": 58,
          "clef": "treble",
          "pitch": "C#4"
        },
        {
          "midi": 46,
          "beat": 3.25,
          "dur": 0.13,
          "vel": 44,
          "clef": "bass",
          "acc": "#",
          "pitch": "A#2"
        },
        {
          "midi": 51,
          "beat": 3.5,
          "dur": 0.14,
          "vel": 44,
          "clef": "bass",
          "pitch": "D#3"
        },
        {
          "midi": 55,
          "beat": 3.75,
          "dur": 0.14,
          "vel": 42,
          "clef": "bass",
          "pitch": "G3"
        },
        {
          "midi": 58,
          "beat": 3.75,
          "dur": 0.38,
          "vel": 55,
          "clef": "bass",
          "acc": "#",
          "pitch": "A#3"
        },
        {
          "midi": 51,
          "beat": 4,
          "dur": 0.14,
          "vel": 41,
          "clef": "bass",
          "pitch": "D#3"
        },
        {
          "midi": 46,
          "beat": 4.25,
          "dur": 0.12,
          "vel": 36,
          "clef": "bass",
          "acc": "#",
          "pitch": "A#2"
        }
      ]
    },
    {
      "_": "Treble: 10 notes, Bass: 12 notes",
      "number": 29,
      "notes": [
        {
          "midi": 44,
          "beat": 0,
          "dur": 0.72,
          "vel": 50,
          "clef": "bass",
          "pitch": "G#2"
        },
        {
          "midi": 70,
          "beat": 0,
          "dur": 1.55,
          "vel": 53,
          "clef": "treble",
          "acc": "#",
          "pitch": "A#4"
        },
        {
          "midi": 51,
          "beat": 0.25,
          "dur": 0.13,
          "vel": 54,
          "clef": "bass",
          "pitch": "D#3"
        },
        {
          "midi": 54,
          "beat": 0.5,
          "dur": 0.13,
          "vel": 55,
          "clef": "bass",
          "pitch": "F#3"
        },
        {
          "midi": 58,
          "beat": 0.75,
          "dur": 0.13,
          "vel": 53,
          "clef": "bass",
          "acc": "#",
          "pitch": "A#3"
        },
        {
          "midi": 60,
          "beat": 1,
          "dur": 0.13,
          "vel": 55,
          "clef": "treble",
          "pitch": "C4"
        },
        {
          "midi": 66,
          "beat": 1.25,
          "dur": 0.12,
          "vel": 63,
          "clef": "treble",
          "pitch": "F#4"
        },
        {
          "midi": 42,
          "beat": 1.5,
          "dur": 0.71,
          "vel": 44,
          "clef": "bass",
          "pitch": "F#2"
        },
        {
          "midi": 49,
          "beat": 1.75,
          "dur": 0.13,
          "vel": 48,
          "clef": "bass",
          "pitch": "C#3"
        },
        {
          "midi": 54,
          "beat": 2,
          "dur": 0.13,
          "vel": 51,
          "clef": "bass",
          "pitch": "F#3"
        },
        {
          "midi": 58,
          "beat": 2.25,
          "dur": 0.13,
          "vel": 48,
          "clef": "bass",
          "acc": "#",
          "pitch": "A#3"
        },
        {
          "midi": 61,
          "beat": 2.5,
          "dur": 0.13,
          "vel": 56,
          "clef": "treble",
          "pitch": "C#4"
        },
        {
          "midi": 66,
          "beat": 2.75,
          "dur": 0.12,
          "vel": 55,
          "clef": "treble",
          "pitch": "F#4"
        },
        {
          "midi": 41,
          "beat": 3,
          "dur": 0.73,
          "vel": 51,
          "clef": "bass",
          "pitch": "F2"
        },
        {
          "midi": 72,
          "beat": 3,
          "dur": 0.52,
          "vel": 76,
          "clef": "treble",
          "pitch": "C5"
        },
        {
          "midi": 48,
          "beat": 3.25,
          "dur": 0.13,
          "vel": 53,
          "clef": "bass",
          "pitch": "C3"
        },
        {
          "midi": 53,
          "beat": 3.5,
          "dur": 0.13,
          "vel": 58,
          "clef": "bass",
          "pitch": "F3"
        },
        {
          "midi": 56,
          "beat": 3.75,
          "dur": 0.13,
          "vel": 62,
          "clef": "bass",
          "pitch": "G#3"
        },
        {
          "midi": 60,
          "beat": 4,
          "dur": 0.12,
          "vel": 67,
          "clef": "treble",
          "pitch": "C4"
        },
        {
          "midi": 68,
          "beat": 4,
          "dur": 0.12,
          "vel": 63,
          "clef": "treble",
          "pitch": "G#4"
        },
        {
          "midi": 77,
          "beat": 4,
          "dur": 0.24,
          "vel": 86,
          "clef": "treble",
          "pitch": "F5"
        },
        {
          "midi": 65,
          "beat": 4.25,
          "dur": 0.13,
          "vel": 46,
          "clef": "treble",
          "pitch": "F4"
        }
      ]
    },
    {
      "_": "Treble: 10 notes, Bass: 12 notes",
      "number": 30,
      "notes": [
        {
          "midi": 44,
          "beat": 0,
          "dur": 0.72,
          "vel": 41,
          "clef": "bass",
          "pitch": "G#2"
        },
        {
          "midi": 70,
          "beat": 0,
          "dur": 1.55,
          "vel": 60,
          "clef": "treble",
          "acc": "#",
          "pitch": "A#4"
        },
        {
          "midi": 51,
          "beat": 0.25,
          "dur": 0.13,
          "vel": 55,
          "clef": "bass",
          "pitch": "D#3"
        },
        {
          "midi": 54,
          "beat": 0.5,
          "dur": 0.13,
          "vel": 57,
          "clef": "bass",
          "pitch": "F#3"
        },
        {
          "midi": 58,
          "beat": 0.75,
          "dur": 0.13,
          "vel": 52,
          "clef": "bass",
          "acc": "#",
          "pitch": "A#3"
        },
        {
          "midi": 60,
          "beat": 1,
          "dur": 0.13,
          "vel": 56,
          "clef": "treble",
          "pitch": "C4"
        },
        {
          "midi": 66,
          "beat": 1.25,
          "dur": 0.12,
          "vel": 62,
          "clef": "treble",
          "pitch": "F#4"
        },
        {
          "midi": 42,
          "beat": 1.5,
          "dur": 0.7,
          "vel": 43,
          "clef": "bass",
          "pitch": "F#2"
        },
        {
          "midi": 49,
          "beat": 1.75,
          "dur": 0.12,
          "vel": 46,
          "clef": "bass",
          "pitch": "C#3"
        },
        {
          "midi": 54,
          "beat": 2,
          "dur": 0.12,
          "vel": 48,
          "clef": "bass",
          "pitch": "F#3"
        },
        {
          "midi": 58,
          "beat": 2.25,
          "dur": 0.12,
          "vel": 44,
          "clef": "bass",
          "acc": "#",
          "pitch": "A#3"
        },
        {
          "midi": 61,
          "beat": 2.5,
          "dur": 0.12,
          "vel": 47,
          "clef": "treble",
          "pitch": "C#4"
        },
        {
          "midi": 66,
          "beat": 2.75,
          "dur": 0.12,
          "vel": 50,
          "clef": "treble",
          "pitch": "F#4"
        },
        {
          "midi": 41,
          "beat": 3,
          "dur": 0.71,
          "vel": 49,
          "clef": "bass",
          "pitch": "F2"
        },
        {
          "midi": 72,
          "beat": 3,
          "dur": 0.51,
          "vel": 72,
          "clef": "treble",
          "pitch": "C5"
        },
        {
          "midi": 48,
          "beat": 3.25,
          "dur": 0.13,
          "vel": 54,
          "clef": "bass",
          "pitch": "C3"
        },
        {
          "midi": 53,
          "beat": 3.5,
          "dur": 0.13,
          "vel": 59,
          "clef": "bass",
          "pitch": "F3"
        },
        {
          "midi": 56,
          "beat": 3.75,
          "dur": 0.13,
          "vel": 51,
          "clef": "bass",
          "pitch": "G#3"
        },
        {
          "midi": 60,
          "beat": 4,
          "dur": 0.12,
          "vel": 59,
          "clef": "treble",
          "pitch": "C4"
        },
        {
          "midi": 68,
          "beat": 4,
          "dur": 0.12,
          "vel": 52,
          "clef": "treble",
          "pitch": "G#4"
        },
        {
          "midi": 77,
          "beat": 4,
          "dur": 0.24,
          "vel": 82,
          "clef": "treble",
          "pitch": "F5"
        },
        {
          "midi": 65,
          "beat": 4.25,
          "dur": 0.13,
          "vel": 48,
          "clef": "treble",
          "pitch": "F4"
        }
      ]
    },
    {
      "_": "Treble: 17 notes, Bass: 5 notes",
      "number": 31,
      "notes": [
        {
          "midi": 39,
          "beat": 0,
          "dur": 0.72,
          "vel": 59,
          "clef": "bass",
          "pitch": "D#2"
        },
        {
          "midi": 78,
          "beat": 0,
          "dur": 0.79,
          "vel": 76,
          "clef": "treble",
          "pitch": "F#5"
        },
        {
          "midi": 46,
          "beat": 0.25,
          "dur": 0.13,
          "vel": 64,
          "clef": "bass",
          "acc": "#",
          "pitch": "A#2"
        },
        {
          "midi": 51,
          "beat": 0.5,
          "dur": 0.13,
          "vel": 69,
          "clef": "bass",
          "pitch": "D#3"
        },
        {
          "midi": 54,
          "beat": 0.75,
          "dur": 0.13,
          "vel": 67,
          "clef": "bass",
          "pitch": "F#3"
        },
        {
          "midi": 58,
          "beat": 1,
          "dur": 0.13,
          "vel": 74,
          "clef": "bass",
          "acc": "#",
          "pitch": "A#3"
        },
        {
          "midi": 63,
          "beat": 1.25,
          "dur": 0.12,
          "vel": 62,
          "clef": "treble",
          "pitch": "D#4"
        },
        {
          "midi": 66,
          "beat": 1.5,
          "dur": 0.25,
          "vel": 66,
          "clef": "treble",
          "pitch": "F#4"
        },
        {
          "midi": 66,
          "beat": 1.75,
          "dur": 0.27,
          "vel": 76,
          "clef": "treble",
          "pitch": "F#4"
        },
        {
          "midi": 70,
          "beat": 2,
          "dur": 0.13,
          "vel": 78,
          "clef": "treble",
          "acc": "#",
          "pitch": "A#4"
        },
        {
          "midi": 65,
          "beat": 2.25,
          "dur": 0.4,
          "vel": 67,
          "clef": "treble",
          "pitch": "F4"
        },
        {
          "midi": 77,
          "beat": 2.25,
          "dur": 0.4,
          "vel": 83,
          "clef": "treble",
          "pitch": "F5"
        },
        {
          "midi": 66,
          "beat": 2.5,
          "dur": 0.13,
          "vel": 56,
          "clef": "treble",
          "pitch": "F#4"
        },
        {
          "midi": 70,
          "beat": 2.75,
          "dur": 0.13,
          "vel": 63,
          "clef": "treble",
          "acc": "#",
          "pitch": "A#4"
        },
        {
          "midi": 62,
          "beat": 3,
          "dur": 0.4,
          "vel": 53,
          "clef": "treble",
          "pitch": "D4"
        },
        {
          "midi": 74,
          "beat": 3,
          "dur": 0.4,
          "vel": 80,
          "clef": "treble",
          "pitch": "D5"
        },
        {
          "midi": 66,
          "beat": 3.25,
          "dur": 0.14,
          "vel": 59,
          "clef": "treble",
          "pitch": "F#4"
        },
        {
          "midi": 70,
          "beat": 3.5,
          "dur": 0.14,
          "vel": 67,
          "clef": "treble",
          "acc": "#",
          "pitch": "A#4"
        },
        {
          "midi": 63,
          "beat": 3.75,
          "dur": 0.38,
          "vel": 54,
          "clef": "treble",
          "pitch": "D#4"
        },
        {
          "midi": 75,
          "beat": 3.75,
          "dur": 0.38,
          "vel": 87,
          "clef": "treble",
          "pitch": "D#5"
        },
        {
          "midi": 66,
          "beat": 4,
          "dur": 0.12,
          "vel": 58,
          "clef": "treble",
          "pitch": "F#4"
        },
        {
          "midi": 70,
          "beat": 4.25,
          "dur": 0.13,
          "vel": 75,
          "clef": "treble",
          "acc": "#",
          "pitch": "A#4"
        }
      ]
    },
    {
      "_": "Treble: 20 notes, Bass: 1 notes",
      "number": 32,
      "notes": [
        {
          "midi": 62,
          "beat": 0,
          "dur": 0.75,
          "vel": 58,
          "clef": "treble",
          "pitch": "D4"
        },
        {
          "midi": 82,
          "beat": 0,
          "dur": 0.78,
          "vel": 104,
          "clef": "treble",
          "acc": "#",
          "pitch": "A#5"
        },
        {
          "midi": 66,
          "beat": 0.25,
          "dur": 0.13,
          "vel": 65,
          "clef": "treble",
          "pitch": "F#4"
        },
        {
          "midi": 70,
          "beat": 0.5,
          "dur": 0.13,
          "vel": 72,
          "clef": "treble",
          "acc": "#",
          "pitch": "A#4"
        },
        {
          "midi": 70,
          "beat": 0.75,
          "dur": 0.13,
          "vel": 57,
          "clef": "treble",
          "acc": "#",
          "pitch": "A#4"
        },
        {
          "midi": 78,
          "beat": 1,
          "dur": 0.13,
          "vel": 66,
          "clef": "treble",
          "pitch": "F#5"
        },
        {
          "midi": 82,
          "beat": 1.25,
          "dur": 0.95,
          "vel": 67,
          "clef": "treble",
          "acc": "#",
          "pitch": "A#5"
        },
        {
          "midi": 63,
          "beat": 1.5,
          "dur": 0.78,
          "vel": 48,
          "clef": "treble",
          "pitch": "D#4"
        },
        {
          "midi": 66,
          "beat": 1.75,
          "dur": 0.14,
          "vel": 51,
          "clef": "treble",
          "pitch": "F#4"
        },
        {
          "midi": 70,
          "beat": 2,
          "dur": 0.14,
          "vel": 54,
          "clef": "treble",
          "acc": "#",
          "pitch": "A#4"
        },
        {
          "midi": 70,
          "beat": 2.25,
          "dur": 0.14,
          "vel": 53,
          "clef": "treble",
          "acc": "#",
          "pitch": "A#4"
        },
        {
          "midi": 78,
          "beat": 2.5,
          "dur": 0.14,
          "vel": 64,
          "clef": "treble",
          "pitch": "F#5"
        },
        {
          "midi": 82,
          "beat": 2.75,
          "dur": 0.17,
          "vel": 49,
          "clef": "treble",
          "acc": "#",
          "pitch": "A#5"
        },
        {
          "midi": 56,
          "beat": 3,
          "dur": 0.8,
          "vel": 47,
          "clef": "bass",
          "pitch": "G#3"
        },
        {
          "midi": 60,
          "beat": 3,
          "dur": 0.14,
          "vel": 44,
          "clef": "treble",
          "pitch": "C4"
        },
        {
          "midi": 80,
          "beat": 3,
          "dur": 0.8,
          "vel": 100,
          "clef": "treble",
          "pitch": "G#5"
        },
        {
          "midi": 64,
          "beat": 3.25,
          "dur": 0.14,
          "vel": 48,
          "clef": "treble",
          "pitch": "E4"
        },
        {
          "midi": 68,
          "beat": 3.5,
          "dur": 0.14,
          "vel": 70,
          "clef": "treble",
          "pitch": "G#4"
        },
        {
          "midi": 72,
          "beat": 3.75,
          "dur": 0.15,
          "vel": 77,
          "clef": "treble",
          "pitch": "C5"
        },
        {
          "midi": 76,
          "beat": 4,
          "dur": 0.15,
          "vel": 70,
          "clef": "treble",
          "pitch": "E5"
        },
        {
          "midi": 80,
          "beat": 4.25,
          "dur": 0.13,
          "vel": 76,
          "clef": "treble",
          "pitch": "G#5"
        }
      ]
    },
    {
      "_": "Treble: 19 notes, Bass: 6 notes",
      "number": 33,
      "notes": [
        {
          "midi": 49,
          "beat": 0,
          "dur": 0.73,
          "vel": 57,
          "clef": "bass",
          "pitch": "C#3"
        },
        {
          "midi": 77,
          "beat": 0,
          "dur": 1.53,
          "vel": 78,
          "clef": "treble",
          "pitch": "F5"
        },
        {
          "midi": 80,
          "beat": 0,
          "dur": 1.54,
          "vel": 78,
          "clef": "treble",
          "pitch": "G#5"
        },
        {
          "midi": 56,
          "beat": 0.25,
          "dur": 0.13,
          "vel": 65,
          "clef": "bass",
          "pitch": "G#3"
        },
        {
          "midi": 61,
          "beat": 0.5,
          "dur": 0.13,
          "vel": 68,
          "clef": "treble",
          "pitch": "C#4"
        },
        {
          "midi": 65,
          "beat": 0.75,
          "dur": 0.13,
          "vel": 69,
          "clef": "treble",
          "pitch": "F4"
        },
        {
          "midi": 68,
          "beat": 1,
          "dur": 0.13,
          "vel": 77,
          "clef": "treble",
          "pitch": "G#4"
        },
        {
          "midi": 73,
          "beat": 1.25,
          "dur": 0.12,
          "vel": 76,
          "clef": "treble",
          "pitch": "C#5"
        },
        {
          "midi": 53,
          "beat": 1.5,
          "dur": 0.72,
          "vel": 52,
          "clef": "bass",
          "pitch": "F3"
        },
        {
          "midi": 56,
          "beat": 1.5,
          "dur": 0.13,
          "vel": 54,
          "clef": "bass",
          "pitch": "G#3"
        },
        {
          "midi": 60,
          "beat": 1.75,
          "dur": 0.13,
          "vel": 65,
          "clef": "treble",
          "pitch": "C4"
        },
        {
          "midi": 65,
          "beat": 2,
          "dur": 0.13,
          "vel": 75,
          "clef": "treble",
          "pitch": "F4"
        },
        {
          "midi": 68,
          "beat": 2.25,
          "dur": 0.13,
          "vel": 65,
          "clef": "treble",
          "pitch": "G#4"
        },
        {
          "midi": 72,
          "beat": 2.5,
          "dur": 0.13,
          "vel": 72,
          "clef": "treble",
          "pitch": "C5"
        },
        {
          "midi": 77,
          "beat": 2.75,
          "dur": 0.16,
          "vel": 74,
          "clef": "treble",
          "pitch": "F5"
        },
        {
          "midi": 56,
          "beat": 3,
          "dur": 0.73,
          "vel": 50,
          "clef": "bass",
          "pitch": "G#3"
        },
        {
          "midi": 59,
          "beat": 3,
          "dur": 0.13,
          "vel": 52,
          "clef": "bass",
          "pitch": "B3"
        },
        {
          "midi": 80,
          "beat": 3,
          "dur": 0.53,
          "vel": 94,
          "clef": "treble",
          "pitch": "G#5"
        },
        {
          "midi": 83,
          "beat": 3,
          "dur": 0.53,
          "vel": 94,
          "clef": "treble",
          "pitch": "B5"
        },
        {
          "midi": 64,
          "beat": 3.25,
          "dur": 0.13,
          "vel": 68,
          "clef": "treble",
          "pitch": "E4"
        },
        {
          "midi": 68,
          "beat": 3.5,
          "dur": 0.13,
          "vel": 77,
          "clef": "treble",
          "pitch": "G#4"
        },
        {
          "midi": 71,
          "beat": 3.75,
          "dur": 0.13,
          "vel": 72,
          "clef": "treble",
          "pitch": "B4"
        },
        {
          "midi": 76,
          "beat": 4,
          "dur": 0.13,
          "vel": 80,
          "clef": "treble",
          "pitch": "E5"
        },
        {
          "midi": 85,
          "beat": 4,
          "dur": 0.24,
          "vel": 92,
          "clef": "treble",
          "pitch": "C#6"
        },
        {
          "midi": 80,
          "beat": 4.25,
          "dur": 0.12,
          "vel": 72,
          "clef": "treble",
          "pitch": "G#5"
        }
      ]
    },
    {
      "_": "Treble: 19 notes, Bass: 6 notes",
      "number": 34,
      "notes": [
        {
          "midi": 49,
          "beat": 0,
          "dur": 0.73,
          "vel": 52,
          "clef": "bass",
          "pitch": "C#3"
        },
        {
          "midi": 77,
          "beat": 0,
          "dur": 1.53,
          "vel": 74,
          "clef": "treble",
          "pitch": "F5"
        },
        {
          "midi": 80,
          "beat": 0,
          "dur": 1.54,
          "vel": 74,
          "clef": "treble",
          "pitch": "G#5"
        },
        {
          "midi": 56,
          "beat": 0.25,
          "dur": 0.13,
          "vel": 53,
          "clef": "bass",
          "pitch": "G#3"
        },
        {
          "midi": 61,
          "beat": 0.5,
          "dur": 0.13,
          "vel": 62,
          "clef": "treble",
          "pitch": "C#4"
        },
        {
          "midi": 65,
          "beat": 0.75,
          "dur": 0.13,
          "vel": 64,
          "clef": "treble",
          "pitch": "F4"
        },
        {
          "midi": 68,
          "beat": 1,
          "dur": 0.13,
          "vel": 68,
          "clef": "treble",
          "pitch": "G#4"
        },
        {
          "midi": 73,
          "beat": 1.25,
          "dur": 0.12,
          "vel": 77,
          "clef": "treble",
          "pitch": "C#5"
        },
        {
          "midi": 53,
          "beat": 1.5,
          "dur": 0.72,
          "vel": 52,
          "clef": "bass",
          "pitch": "F3"
        },
        {
          "midi": 56,
          "beat": 1.5,
          "dur": 0.13,
          "vel": 54,
          "clef": "bass",
          "pitch": "G#3"
        },
        {
          "midi": 60,
          "beat": 1.75,
          "dur": 0.13,
          "vel": 64,
          "clef": "treble",
          "pitch": "C4"
        },
        {
          "midi": 65,
          "beat": 2,
          "dur": 0.13,
          "vel": 70,
          "clef": "treble",
          "pitch": "F4"
        },
        {
          "midi": 68,
          "beat": 2.25,
          "dur": 0.13,
          "vel": 80,
          "clef": "treble",
          "pitch": "G#4"
        },
        {
          "midi": 72,
          "beat": 2.5,
          "dur": 0.13,
          "vel": 68,
          "clef": "treble",
          "pitch": "C5"
        },
        {
          "midi": 77,
          "beat": 2.75,
          "dur": 0.16,
          "vel": 77,
          "clef": "treble",
          "pitch": "F5"
        },
        {
          "midi": 56,
          "beat": 3,
          "dur": 0.73,
          "vel": 49,
          "clef": "bass",
          "pitch": "G#3"
        },
        {
          "midi": 59,
          "beat": 3,
          "dur": 0.13,
          "vel": 54,
          "clef": "bass",
          "pitch": "B3"
        },
        {
          "midi": 80,
          "beat": 3,
          "dur": 0.51,
          "vel": 87,
          "clef": "treble",
          "pitch": "G#5"
        },
        {
          "midi": 83,
          "beat": 3,
          "dur": 0.52,
          "vel": 87,
          "clef": "treble",
          "pitch": "B5"
        },
        {
          "midi": 64,
          "beat": 3.25,
          "dur": 0.13,
          "vel": 63,
          "clef": "treble",
          "pitch": "E4"
        },
        {
          "midi": 68,
          "beat": 3.5,
          "dur": 0.13,
          "vel": 71,
          "clef": "treble",
          "pitch": "G#4"
        },
        {
          "midi": 71,
          "beat": 3.75,
          "dur": 0.13,
          "vel": 68,
          "clef": "treble",
          "pitch": "B4"
        },
        {
          "midi": 80,
          "beat": 4,
          "dur": 0.13,
          "vel": 81,
          "clef": "treble",
          "pitch": "G#5"
        },
        {
          "midi": 80,
          "beat": 4,
          "dur": 0.24,
          "vel": 86,
          "clef": "treble",
          "pitch": "G#5"
        },
        {
          "midi": 76,
          "beat": 4.25,
          "dur": 0.12,
          "vel": 60,
          "clef": "treble",
          "pitch": "E5"
        }
      ]
    },
    {
      "_": "Treble: 26 notes, Bass: 1 notes",
      "number": 35,
      "notes": [
        {
          "midi": 59,
          "beat": 0,
          "dur": 0.71,
          "vel": 53,
          "clef": "bass",
          "pitch": "B3"
        },
        {
          "midi": 61,
          "beat": 0,
          "dur": 0.13,
          "vel": 31,
          "clef": "treble",
          "pitch": "C#4"
        },
        {
          "midi": 85,
          "beat": 0,
          "dur": 0.51,
          "vel": 80,
          "clef": "treble",
          "pitch": "C#6"
        },
        {
          "midi": 64,
          "beat": 0.25,
          "dur": 0.13,
          "vel": 59,
          "clef": "treble",
          "pitch": "E4"
        },
        {
          "midi": 68,
          "beat": 0.5,
          "dur": 0.13,
          "vel": 64,
          "clef": "treble",
          "pitch": "G#4"
        },
        {
          "midi": 71,
          "beat": 0.75,
          "dur": 0.35,
          "vel": 58,
          "clef": "treble",
          "pitch": "B4"
        },
        {
          "midi": 73,
          "beat": 0.75,
          "dur": 0.13,
          "vel": 46,
          "clef": "treble",
          "pitch": "C#5"
        },
        {
          "midi": 80,
          "beat": 1,
          "dur": 0.23,
          "vel": 60,
          "clef": "treble",
          "pitch": "G#5"
        },
        {
          "midi": 76,
          "beat": 1.25,
          "dur": 0.12,
          "vel": 58,
          "clef": "treble",
          "pitch": "E5"
        },
        {
          "midi": 61,
          "beat": 1.5,
          "dur": 0.7,
          "vel": 59,
          "clef": "treble",
          "pitch": "C#4"
        },
        {
          "midi": 64,
          "beat": 1.5,
          "dur": 0.12,
          "vel": 44,
          "clef": "treble",
          "pitch": "E4"
        },
        {
          "midi": 88,
          "beat": 1.5,
          "dur": 0.5,
          "vel": 96,
          "clef": "treble",
          "pitch": "E6"
        },
        {
          "midi": 68,
          "beat": 1.75,
          "dur": 0.12,
          "vel": 59,
          "clef": "treble",
          "pitch": "G#4"
        },
        {
          "midi": 71,
          "beat": 2,
          "dur": 0.12,
          "vel": 65,
          "clef": "treble",
          "pitch": "B4"
        },
        {
          "midi": 73,
          "beat": 2.25,
          "dur": 0.35,
          "vel": 65,
          "clef": "treble",
          "pitch": "C#5"
        },
        {
          "midi": 76,
          "beat": 2.25,
          "dur": 0.12,
          "vel": 52,
          "clef": "treble",
          "pitch": "E5"
        },
        {
          "midi": 85,
          "beat": 2.5,
          "dur": 0.23,
          "vel": 75,
          "clef": "treble",
          "pitch": "C#6"
        },
        {
          "midi": 80,
          "beat": 2.75,
          "dur": 0.12,
          "vel": 63,
          "clef": "treble",
          "pitch": "G#5"
        },
        {
          "midi": 64,
          "beat": 3,
          "dur": 0.69,
          "vel": 64,
          "clef": "treble",
          "pitch": "E4"
        },
        {
          "midi": 68,
          "beat": 3,
          "dur": 0.12,
          "vel": 52,
          "clef": "treble",
          "pitch": "G#4"
        },
        {
          "midi": 92,
          "beat": 3,
          "dur": 0.49,
          "vel": 100,
          "clef": "treble",
          "pitch": "G#6"
        },
        {
          "midi": 71,
          "beat": 3.25,
          "dur": 0.12,
          "vel": 59,
          "clef": "treble",
          "pitch": "B4"
        },
        {
          "midi": 73,
          "beat": 3.5,
          "dur": 0.12,
          "vel": 63,
          "clef": "treble",
          "pitch": "C#5"
        },
        {
          "midi": 76,
          "beat": 3.75,
          "dur": 0.34,
          "vel": 64,
          "clef": "treble",
          "pitch": "E5"
        },
        {
          "midi": 80,
          "beat": 3.75,
          "dur": 0.12,
          "vel": 56,
          "clef": "treble",
          "pitch": "G#5"
        },
        {
          "midi": 88,
          "beat": 4,
          "dur": 0.23,
          "vel": 94,
          "clef": "treble",
          "pitch": "E6"
        },
        {
          "midi": 83,
          "beat": 4.25,
          "dur": 0.12,
          "vel": 64,
          "clef": "treble",
          "pitch": "B5"
        }
      ]
    },
    {
      "_": "Treble: 21 notes, Bass: 0 notes",
      "number": 36,
      "notes": [
        {
          "midi": 68,
          "beat": 0,
          "dur": 0.7,
          "vel": 46,
          "clef": "treble",
          "pitch": "G#4"
        },
        {
          "midi": 92,
          "beat": 0,
          "dur": 0.75,
          "vel": 92,
          "clef": "treble",
          "pitch": "G#6"
        },
        {
          "midi": 69,
          "beat": 0.25,
          "dur": 0.12,
          "vel": 47,
          "clef": "treble",
          "pitch": "A4"
        },
        {
          "midi": 73,
          "beat": 0.5,
          "dur": 0.12,
          "vel": 56,
          "clef": "treble",
          "pitch": "C#5"
        },
        {
          "midi": 80,
          "beat": 0.75,
          "dur": 0.12,
          "vel": 55,
          "clef": "treble",
          "pitch": "G#5"
        },
        {
          "midi": 85,
          "beat": 1,
          "dur": 0.12,
          "vel": 63,
          "clef": "treble",
          "pitch": "C#6"
        },
        {
          "midi": 81,
          "beat": 1.25,
          "dur": 0.12,
          "vel": 43,
          "clef": "treble",
          "pitch": "A5"
        },
        {
          "midi": 66,
          "beat": 1.5,
          "dur": 0.71,
          "vel": 46,
          "clef": "treble",
          "pitch": "F#4"
        },
        {
          "midi": 90,
          "beat": 1.5,
          "dur": 1.42,
          "vel": 94,
          "clef": "treble",
          "pitch": "F#6"
        },
        {
          "midi": 69,
          "beat": 1.75,
          "dur": 0.13,
          "vel": 46,
          "clef": "treble",
          "pitch": "A4"
        },
        {
          "midi": 73,
          "beat": 2,
          "dur": 0.13,
          "vel": 53,
          "clef": "treble",
          "pitch": "C#5"
        },
        {
          "midi": 78,
          "beat": 2.25,
          "dur": 0.13,
          "vel": 59,
          "clef": "treble",
          "pitch": "F#5"
        },
        {
          "midi": 85,
          "beat": 2.5,
          "dur": 0.13,
          "vel": 70,
          "clef": "treble",
          "pitch": "C#6"
        },
        {
          "midi": 81,
          "beat": 2.75,
          "dur": 0.12,
          "vel": 36,
          "clef": "treble",
          "pitch": "A5"
        },
        {
          "midi": 65,
          "beat": 3,
          "dur": 0.71,
          "vel": 63,
          "clef": "treble",
          "pitch": "F4"
        },
        {
          "midi": 66,
          "beat": 3,
          "dur": 0.13,
          "vel": 50,
          "clef": "treble",
          "pitch": "F#4"
        },
        {
          "midi": 69,
          "beat": 3.25,
          "dur": 0.13,
          "vel": 53,
          "clef": "treble",
          "pitch": "A4"
        },
        {
          "midi": 73,
          "beat": 3.5,
          "dur": 0.13,
          "vel": 72,
          "clef": "treble",
          "pitch": "C#5"
        },
        {
          "midi": 78,
          "beat": 3.75,
          "dur": 0.13,
          "vel": 84,
          "clef": "treble",
          "pitch": "F#5"
        },
        {
          "midi": 85,
          "beat": 4,
          "dur": 0.13,
          "vel": 76,
          "clef": "treble",
          "pitch": "C#6"
        },
        {
          "midi": 81,
          "beat": 4.25,
          "dur": 0.12,
          "vel": 70,
          "clef": "treble",
          "pitch": "A5"
        }
      ]
    },
    {
      "_": "Treble: 24 notes, Bass: 0 notes",
      "number": 37,
      "notes": [
        {
          "midi": 64,
          "beat": 0,
          "dur": 0.71,
          "vel": 56,
          "clef": "treble",
          "pitch": "E4"
        },
        {
          "midi": 66,
          "beat": 0,
          "dur": 0.13,
          "vel": 43,
          "clef": "treble",
          "pitch": "F#4"
        },
        {
          "midi": 90,
          "beat": 0,
          "dur": 1.55,
          "vel": 83,
          "clef": "treble",
          "pitch": "F#6"
        },
        {
          "midi": 69,
          "beat": 0.25,
          "dur": 0.13,
          "vel": 61,
          "clef": "treble",
          "pitch": "A4"
        },
        {
          "midi": 73,
          "beat": 0.5,
          "dur": 0.13,
          "vel": 68,
          "clef": "treble",
          "pitch": "C#5"
        },
        {
          "midi": 78,
          "beat": 0.75,
          "dur": 0.13,
          "vel": 72,
          "clef": "treble",
          "pitch": "F#5"
        },
        {
          "midi": 85,
          "beat": 1,
          "dur": 0.13,
          "vel": 69,
          "clef": "treble",
          "pitch": "C#6"
        },
        {
          "midi": 81,
          "beat": 1.25,
          "dur": 0.12,
          "vel": 68,
          "clef": "treble",
          "pitch": "A5"
        },
        {
          "midi": 63,
          "beat": 1.5,
          "dur": 0.72,
          "vel": 57,
          "clef": "treble",
          "pitch": "D#4"
        },
        {
          "midi": 66,
          "beat": 1.5,
          "dur": 0.13,
          "vel": 41,
          "clef": "treble",
          "pitch": "F#4"
        },
        {
          "midi": 69,
          "beat": 1.75,
          "dur": 0.13,
          "vel": 63,
          "clef": "treble",
          "pitch": "A4"
        },
        {
          "midi": 73,
          "beat": 2,
          "dur": 0.13,
          "vel": 69,
          "clef": "treble",
          "pitch": "C#5"
        },
        {
          "midi": 78,
          "beat": 2.25,
          "dur": 0.13,
          "vel": 66,
          "clef": "treble",
          "pitch": "F#5"
        },
        {
          "midi": 85,
          "beat": 2.5,
          "dur": 0.13,
          "vel": 74,
          "clef": "treble",
          "pitch": "C#6"
        },
        {
          "midi": 81,
          "beat": 2.75,
          "dur": 0.12,
          "vel": 74,
          "clef": "treble",
          "pitch": "A5"
        },
        {
          "midi": 61,
          "beat": 3,
          "dur": 0.72,
          "vel": 53,
          "clef": "treble",
          "pitch": "C#4"
        },
        {
          "midi": 64,
          "beat": 3,
          "dur": 0.13,
          "vel": 47,
          "clef": "treble",
          "pitch": "E4"
        },
        {
          "midi": 93,
          "beat": 3,
          "dur": 0.52,
          "vel": 99,
          "clef": "treble",
          "pitch": "A6"
        },
        {
          "midi": 69,
          "beat": 3.25,
          "dur": 0.13,
          "vel": 66,
          "clef": "treble",
          "pitch": "A4"
        },
        {
          "midi": 73,
          "beat": 3.5,
          "dur": 0.13,
          "vel": 75,
          "clef": "treble",
          "pitch": "C#5"
        },
        {
          "midi": 76,
          "beat": 3.75,
          "dur": 0.13,
          "vel": 69,
          "clef": "treble",
          "pitch": "E5"
        },
        {
          "midi": 97,
          "beat": 4,
          "dur": 0.13,
          "vel": 91,
          "clef": "treble",
          "pitch": "C#7"
        },
        {
          "midi": 97,
          "beat": 4,
          "dur": 0.24,
          "vel": 91,
          "clef": "treble",
          "pitch": "C#7"
        },
        {
          "midi": 85,
          "beat": 4.25,
          "dur": 0.12,
          "vel": 46,
          "clef": "treble",
          "pitch": "C#6"
        }
      ]
    },
    {
      "_": "Treble: 18 notes, Bass: 3 notes",
      "number": 38,
      "notes": [
        {
          "midi": 59,
          "beat": 0,
          "dur": 0.76,
          "vel": 50,
          "clef": "bass",
          "pitch": "B3"
        },
        {
          "midi": 78,
          "beat": 0,
          "dur": 1.58,
          "vel": 74,
          "clef": "treble",
          "pitch": "F#5"
        },
        {
          "midi": 63,
          "beat": 0.25,
          "dur": 0.13,
          "vel": 71,
          "clef": "treble",
          "pitch": "D#4"
        },
        {
          "midi": 66,
          "beat": 0.5,
          "dur": 0.13,
          "vel": 65,
          "clef": "treble",
          "pitch": "F#4"
        },
        {
          "midi": 66,
          "beat": 0.75,
          "dur": 0.13,
          "vel": 63,
          "clef": "treble",
          "pitch": "F#4"
        },
        {
          "midi": 73,
          "beat": 1,
          "dur": 0.13,
          "vel": 72,
          "clef": "treble",
          "pitch": "C#5"
        },
        {
          "midi": 69,
          "beat": 1.25,
          "dur": 0.13,
          "vel": 55,
          "clef": "treble",
          "pitch": "A4"
        },
        {
          "midi": 57,
          "beat": 1.5,
          "dur": 0.76,
          "vel": 53,
          "clef": "bass",
          "pitch": "A3"
        },
        {
          "midi": 61,
          "beat": 1.75,
          "dur": 0.13,
          "vel": 74,
          "clef": "treble",
          "pitch": "C#4"
        },
        {
          "midi": 64,
          "beat": 2,
          "dur": 0.13,
          "vel": 64,
          "clef": "treble",
          "pitch": "E4"
        },
        {
          "midi": 66,
          "beat": 2.25,
          "dur": 0.13,
          "vel": 67,
          "clef": "treble",
          "pitch": "F#4"
        },
        {
          "midi": 73,
          "beat": 2.5,
          "dur": 0.13,
          "vel": 74,
          "clef": "treble",
          "pitch": "C#5"
        },
        {
          "midi": 69,
          "beat": 2.75,
          "dur": 0.13,
          "vel": 58,
          "clef": "treble",
          "pitch": "A4"
        },
        {
          "midi": 56,
          "beat": 3,
          "dur": 0.86,
          "vel": 54,
          "clef": "bass",
          "pitch": "G#3"
        },
        {
          "midi": 81,
          "beat": 3,
          "dur": 0.58,
          "vel": 97,
          "clef": "treble",
          "pitch": "A5"
        },
        {
          "midi": 61,
          "beat": 3.25,
          "dur": 0.14,
          "vel": 67,
          "clef": "treble",
          "pitch": "C#4"
        },
        {
          "midi": 64,
          "beat": 3.5,
          "dur": 0.14,
          "vel": 65,
          "clef": "treble",
          "pitch": "E4"
        },
        {
          "midi": 69,
          "beat": 3.75,
          "dur": 0.14,
          "vel": 72,
          "clef": "treble",
          "pitch": "A4"
        },
        {
          "midi": 76,
          "beat": 4,
          "dur": 0.14,
          "vel": 73,
          "clef": "treble",
          "pitch": "E5"
        },
        {
          "midi": 85,
          "beat": 4,
          "dur": 0.27,
          "vel": 107,
          "clef": "treble",
          "pitch": "C#6"
        },
        {
          "midi": 81,
          "beat": 4.25,
          "dur": 0.14,
          "vel": 73,
          "clef": "treble",
          "pitch": "A5"
        }
      ]
    },
    {
      "_": "Treble: 29 notes, Bass: 3 notes",
      "number": 39,
      "notes": [
        {
          "midi": 54,
          "beat": 0,
          "dur": 2.52,
          "vel": 58,
          "clef": "bass",
          "pitch": "F#3"
        },
        {
          "midi": 85,
          "beat": 0,
          "dur": 0.24,
          "vel": 111,
          "clef": "treble",
          "pitch": "C#6"
        },
        {
          "midi": 88,
          "beat": 0,
          "dur": 0.24,
          "vel": 111,
          "clef": "treble",
          "pitch": "E6"
        },
        {
          "midi": 61,
          "beat": 0.25,
          "dur": 0.12,
          "vel": 69,
          "clef": "treble",
          "pitch": "C#4"
        },
        {
          "midi": 64,
          "beat": 0.5,
          "dur": 0.12,
          "vel": 74,
          "clef": "treble",
          "pitch": "E4"
        },
        {
          "midi": 83,
          "beat": 0.5,
          "dur": 0.24,
          "vel": 95,
          "clef": "treble",
          "pitch": "B5"
        },
        {
          "midi": 87,
          "beat": 0.5,
          "dur": 0.24,
          "vel": 95,
          "clef": "treble",
          "pitch": "D#6"
        },
        {
          "midi": 66,
          "beat": 0.75,
          "dur": 0.12,
          "vel": 69,
          "clef": "treble",
          "pitch": "F#4"
        },
        {
          "midi": 69,
          "beat": 1,
          "dur": 0.12,
          "vel": 78,
          "clef": "treble",
          "pitch": "A4"
        },
        {
          "midi": 81,
          "beat": 1,
          "dur": 0.25,
          "vel": 89,
          "clef": "treble",
          "pitch": "A5"
        },
        {
          "midi": 85,
          "beat": 1,
          "dur": 0.25,
          "vel": 89,
          "clef": "treble",
          "pitch": "C#6"
        },
        {
          "midi": 73,
          "beat": 1.25,
          "dur": 0.12,
          "vel": 67,
          "clef": "treble",
          "pitch": "C#5"
        },
        {
          "midi": 76,
          "beat": 1.5,
          "dur": 0.12,
          "vel": 76,
          "clef": "treble",
          "pitch": "E5"
        },
        {
          "midi": 80,
          "beat": 1.5,
          "dur": 0.37,
          "vel": 84,
          "clef": "treble",
          "pitch": "G#5"
        },
        {
          "midi": 83,
          "beat": 1.5,
          "dur": 0.37,
          "vel": 84,
          "clef": "treble",
          "pitch": "B5"
        },
        {
          "midi": 78,
          "beat": 1.75,
          "dur": 0.13,
          "vel": 66,
          "clef": "treble",
          "pitch": "F#5"
        },
        {
          "midi": 76,
          "beat": 2,
          "dur": 0.13,
          "vel": 63,
          "clef": "treble",
          "pitch": "E5"
        },
        {
          "midi": 73,
          "beat": 2.25,
          "dur": 0.13,
          "vel": 56,
          "clef": "treble",
          "pitch": "C#5"
        },
        {
          "midi": 78,
          "beat": 2.25,
          "dur": 0.63,
          "vel": 77,
          "clef": "treble",
          "pitch": "F#5"
        },
        {
          "midi": 81,
          "beat": 2.25,
          "dur": 0.63,
          "vel": 77,
          "clef": "treble",
          "pitch": "A5"
        },
        {
          "midi": 69,
          "beat": 2.5,
          "dur": 0.13,
          "vel": 47,
          "clef": "treble",
          "pitch": "A4"
        },
        {
          "midi": 66,
          "beat": 2.75,
          "dur": 0.12,
          "vel": 56,
          "clef": "treble",
          "pitch": "F#4"
        },
        {
          "midi": 64,
          "beat": 3,
          "dur": 0.13,
          "vel": 54,
          "clef": "treble",
          "pitch": "E4"
        },
        {
          "midi": 66,
          "beat": 3.25,
          "dur": 0.13,
          "vel": 61,
          "clef": "treble",
          "pitch": "F#4"
        },
        {
          "midi": 64,
          "beat": 3.5,
          "dur": 0.13,
          "vel": 57,
          "clef": "treble",
          "pitch": "E4"
        },
        {
          "midi": 76,
          "beat": 3.5,
          "dur": 0.25,
          "vel": 69,
          "clef": "treble",
          "pitch": "E5"
        },
        {
          "midi": 80,
          "beat": 3.5,
          "dur": 0.25,
          "vel": 69,
          "clef": "treble",
          "pitch": "G#5"
        },
        {
          "midi": 61,
          "beat": 3.75,
          "dur": 0.13,
          "vel": 53,
          "clef": "treble",
          "pitch": "C#4"
        },
        {
          "midi": 57,
          "beat": 4,
          "dur": 0.13,
          "vel": 57,
          "clef": "bass",
          "pitch": "A3"
        },
        {
          "midi": 75,
          "beat": 4,
          "dur": 0.25,
          "vel": 70,
          "clef": "treble",
          "pitch": "D#5"
        },
        {
          "midi": 78,
          "beat": 4,
          "dur": 0.25,
          "vel": 70,
          "clef": "treble",
          "pitch": "F#5"
        },
        {
          "midi": 54,
          "beat": 4.25,
          "dur": 0.13,
          "vel": 58,
          "clef": "bass",
          "pitch": "F#3"
        }
      ]
    },
    {
      "_": "Treble: 19 notes, Bass: 16 notes",
      "number": 40,
      "notes": [
        {
          "midi": 42,
          "beat": 0,
          "dur": 0.13,
          "vel": 41,
          "clef": "bass",
          "pitch": "F#2"
        },
        {
          "midi": 73,
          "beat": 0,
          "dur": 0.25,
          "vel": 66,
          "clef": "treble",
          "pitch": "C#5"
        },
        {
          "midi": 76,
          "beat": 0,
          "dur": 0.25,
          "vel": 66,
          "clef": "treble",
          "pitch": "E5"
        },
        {
          "midi": 49,
          "beat": 0.25,
          "dur": 0.13,
          "vel": 47,
          "clef": "bass",
          "pitch": "C#3"
        },
        {
          "midi": 52,
          "beat": 0.5,
          "dur": 0.13,
          "vel": 56,
          "clef": "bass",
          "pitch": "E3"
        },
        {
          "midi": 71,
          "beat": 0.5,
          "dur": 0.25,
          "vel": 62,
          "clef": "treble",
          "pitch": "B4"
        },
        {
          "midi": 75,
          "beat": 0.5,
          "dur": 0.25,
          "vel": 62,
          "clef": "treble",
          "pitch": "D#5"
        },
        {
          "midi": 54,
          "beat": 0.75,
          "dur": 0.13,
          "vel": 59,
          "clef": "bass",
          "pitch": "F#3"
        },
        {
          "midi": 57,
          "beat": 1,
          "dur": 0.13,
          "vel": 56,
          "clef": "bass",
          "pitch": "A3"
        },
        {
          "midi": 69,
          "beat": 1,
          "dur": 0.25,
          "vel": 64,
          "clef": "treble",
          "pitch": "A4"
        },
        {
          "midi": 73,
          "beat": 1,
          "dur": 0.25,
          "vel": 64,
          "clef": "treble",
          "pitch": "C#5"
        },
        {
          "midi": 61,
          "beat": 1.25,
          "dur": 0.13,
          "vel": 61,
          "clef": "treble",
          "pitch": "C#4"
        },
        {
          "midi": 64,
          "beat": 1.5,
          "dur": 0.13,
          "vel": 55,
          "clef": "treble",
          "pitch": "E4"
        },
        {
          "midi": 68,
          "beat": 1.5,
          "dur": 0.26,
          "vel": 60,
          "clef": "treble",
          "pitch": "G#4"
        },
        {
          "midi": 71,
          "beat": 1.5,
          "dur": 0.26,
          "vel": 60,
          "clef": "treble",
          "pitch": "B4"
        },
        {
          "midi": 61,
          "beat": 1.75,
          "dur": 0.13,
          "vel": 51,
          "clef": "treble",
          "pitch": "C#4"
        },
        {
          "midi": 57,
          "beat": 2,
          "dur": 0.13,
          "vel": 50,
          "clef": "bass",
          "pitch": "A3"
        },
        {
          "midi": 66,
          "beat": 2,
          "dur": 0.26,
          "vel": 65,
          "clef": "treble",
          "pitch": "F#4"
        },
        {
          "midi": 69,
          "beat": 2,
          "dur": 0.26,
          "vel": 65,
          "clef": "treble",
          "pitch": "A4"
        },
        {
          "midi": 54,
          "beat": 2.25,
          "dur": 0.13,
          "vel": 46,
          "clef": "bass",
          "pitch": "F#3"
        },
        {
          "midi": 52,
          "beat": 2.5,
          "dur": 0.13,
          "vel": 48,
          "clef": "bass",
          "pitch": "E3"
        },
        {
          "midi": 64,
          "beat": 2.5,
          "dur": 0.52,
          "vel": 61,
          "clef": "treble",
          "pitch": "E4"
        },
        {
          "midi": 68,
          "beat": 2.5,
          "dur": 0.52,
          "vel": 61,
          "clef": "treble",
          "pitch": "G#4"
        },
        {
          "midi": 49,
          "beat": 2.75,
          "dur": 0.12,
          "vel": 51,
          "clef": "bass",
          "pitch": "C#3"
        },
        {
          "midi": 42,
          "beat": 3,
          "dur": 0.13,
          "vel": 42,
          "clef": "bass",
          "pitch": "F#2"
        },
        {
          "midi": 57,
          "beat": 3,
          "dur": 0.81,
          "vel": 50,
          "clef": "bass",
          "pitch": "A3"
        },
        {
          "midi": 49,
          "beat": 3.25,
          "dur": 0.13,
          "vel": 46,
          "clef": "bass",
          "pitch": "C#3"
        },
        {
          "midi": 42,
          "beat": 3.5,
          "dur": 0.13,
          "vel": 47,
          "clef": "bass",
          "pitch": "F#2"
        },
        {
          "midi": 63,
          "beat": 3.5,
          "dur": 0.27,
          "vel": 59,
          "clef": "treble",
          "pitch": "D#4"
        },
        {
          "midi": 66,
          "beat": 3.5,
          "dur": 0.27,
          "vel": 59,
          "clef": "treble",
          "pitch": "F#4"
        },
        {
          "midi": 49,
          "beat": 3.75,
          "dur": 0.14,
          "vel": 52,
          "clef": "bass",
          "pitch": "C#3"
        },
        {
          "midi": 42,
          "beat": 4,
          "dur": 0.14,
          "vel": 47,
          "clef": "bass",
          "pitch": "F#2"
        },
        {
          "midi": 61,
          "beat": 4,
          "dur": 0.28,
          "vel": 58,
          "clef": "treble",
          "pitch": "C#4"
        },
        {
          "midi": 64,
          "beat": 4,
          "dur": 0.28,
          "vel": 58,
          "clef": "treble",
          "pitch": "E4"
        },
        {
          "midi": 49,
          "beat": 4.25,
          "dur": 0.13,
          "vel": 50,
          "clef": "bass",
          "pitch": "C#3"
        }
      ]
    },
    {
      "_": "Treble: 9 notes, Bass: 21 notes",
      "number": 41,
      "notes": [
        {
          "midi": 44,
          "beat": 0,
          "dur": 0.14,
          "vel": 48,
          "clef": "bass",
          "pitch": "G#2"
        },
        {
          "midi": 54,
          "beat": 0,
          "dur": 0.57,
          "vel": 61,
          "clef": "bass",
          "pitch": "F#3"
        },
        {
          "midi": 61,
          "beat": 0,
          "dur": 1.73,
          "vel": 59,
          "clef": "treble",
          "pitch": "C#4"
        },
        {
          "midi": 63,
          "beat": 0,
          "dur": 1.72,
          "vel": 59,
          "clef": "treble",
          "pitch": "D#4"
        },
        {
          "midi": 51,
          "beat": 0.25,
          "dur": 0.14,
          "vel": 57,
          "clef": "bass",
          "pitch": "D#3"
        },
        {
          "midi": 44,
          "beat": 0.5,
          "dur": 0.14,
          "vel": 50,
          "clef": "bass",
          "pitch": "G#2"
        },
        {
          "midi": 51,
          "beat": 0.75,
          "dur": 0.14,
          "vel": 55,
          "clef": "bass",
          "pitch": "D#3"
        },
        {
          "midi": 44,
          "beat": 1,
          "dur": 0.14,
          "vel": 46,
          "clef": "bass",
          "pitch": "G#2"
        },
        {
          "midi": 56,
          "beat": 1,
          "dur": 0.28,
          "vel": 58,
          "clef": "bass",
          "pitch": "G#3"
        },
        {
          "midi": 51,
          "beat": 1.25,
          "dur": 0.14,
          "vel": 51,
          "clef": "bass",
          "pitch": "D#3"
        },
        {
          "midi": 44,
          "beat": 1.5,
          "dur": 0.14,
          "vel": 50,
          "clef": "bass",
          "pitch": "G#2"
        },
        {
          "midi": 58,
          "beat": 1.5,
          "dur": 0.57,
          "vel": 60,
          "clef": "bass",
          "acc": "#",
          "pitch": "A#3"
        },
        {
          "midi": 51,
          "beat": 1.75,
          "dur": 0.14,
          "vel": 46,
          "clef": "bass",
          "pitch": "D#3"
        },
        {
          "midi": 44,
          "beat": 2,
          "dur": 0.14,
          "vel": 50,
          "clef": "bass",
          "pitch": "G#2"
        },
        {
          "midi": 51,
          "beat": 2.25,
          "dur": 0.14,
          "vel": 59,
          "clef": "bass",
          "pitch": "D#3"
        },
        {
          "midi": 44,
          "beat": 2.5,
          "dur": 0.14,
          "vel": 46,
          "clef": "bass",
          "pitch": "G#2"
        },
        {
          "midi": 61,
          "beat": 2.5,
          "dur": 0.34,
          "vel": 64,
          "clef": "treble",
          "pitch": "C#4"
        },
        {
          "midi": 51,
          "beat": 2.75,
          "dur": 0.14,
          "vel": 49,
          "clef": "bass",
          "pitch": "D#3"
        },
        {
          "midi": 44,
          "beat": 3,
          "dur": 0.14,
          "vel": 44,
          "clef": "bass",
          "pitch": "G#2"
        },
        {
          "midi": 60,
          "beat": 3,
          "dur": 0.74,
          "vel": 59,
          "clef": "treble",
          "pitch": "C4"
        },
        {
          "midi": 63,
          "beat": 3,
          "dur": 0.52,
          "vel": 64,
          "clef": "treble",
          "pitch": "D#4"
        },
        {
          "midi": 66,
          "beat": 3,
          "dur": 0.52,
          "vel": 64,
          "clef": "treble",
          "pitch": "F#4"
        },
        {
          "midi": 51,
          "beat": 3.25,
          "dur": 0.14,
          "vel": 46,
          "clef": "bass",
          "pitch": "D#3"
        },
        {
          "midi": 44,
          "beat": 3.5,
          "dur": 0.14,
          "vel": 49,
          "clef": "bass",
          "pitch": "G#2"
        },
        {
          "midi": 51,
          "beat": 3.75,
          "dur": 0.14,
          "vel": 50,
          "clef": "bass",
          "pitch": "D#3"
        },
        {
          "midi": 44,
          "beat": 4,
          "dur": 0.14,
          "vel": 48,
          "clef": "bass",
          "pitch": "G#2"
        },
        {
          "midi": 63,
          "beat": 4,
          "dur": 0.26,
          "vel": 64,
          "clef": "treble",
          "pitch": "D#4"
        },
        {
          "midi": 66,
          "beat": 4,
          "dur": 0.26,
          "vel": 64,
          "clef": "treble",
          "pitch": "F#4"
        },
        {
          "midi": 70,
          "beat": 4,
          "dur": 0.26,
          "vel": 64,
          "clef": "treble",
          "acc": "#",
          "pitch": "A#4"
        },
        {
          "midi": 51,
          "beat": 4.25,
          "dur": 0.14,
          "vel": 49,
          "clef": "bass",
          "pitch": "D#3"
        }
      ]
    },
    {
      "_": "Treble: 9 notes, Bass: 21 notes",
      "number": 42,
      "notes": [
        {
          "midi": 44,
          "beat": 0,
          "dur": 0.14,
          "vel": 42,
          "clef": "bass",
          "pitch": "G#2"
        },
        {
          "midi": 54,
          "beat": 0,
          "dur": 0.57,
          "vel": 52,
          "clef": "bass",
          "pitch": "F#3"
        },
        {
          "midi": 61,
          "beat": 0,
          "dur": 1.73,
          "vel": 47,
          "clef": "treble",
          "pitch": "C#4"
        },
        {
          "midi": 63,
          "beat": 0,
          "dur": 1.72,
          "vel": 47,
          "clef": "treble",
          "pitch": "D#4"
        },
        {
          "midi": 51,
          "beat": 0.25,
          "dur": 0.14,
          "vel": 49,
          "clef": "bass",
          "pitch": "D#3"
        },
        {
          "midi": 44,
          "beat": 0.5,
          "dur": 0.14,
          "vel": 45,
          "clef": "bass",
          "pitch": "G#2"
        },
        {
          "midi": 51,
          "beat": 0.75,
          "dur": 0.14,
          "vel": 47,
          "clef": "bass",
          "pitch": "D#3"
        },
        {
          "midi": 44,
          "beat": 1,
          "dur": 0.14,
          "vel": 48,
          "clef": "bass",
          "pitch": "G#2"
        },
        {
          "midi": 56,
          "beat": 1,
          "dur": 0.28,
          "vel": 54,
          "clef": "bass",
          "pitch": "G#3"
        },
        {
          "midi": 51,
          "beat": 1.25,
          "dur": 0.14,
          "vel": 50,
          "clef": "bass",
          "pitch": "D#3"
        },
        {
          "midi": 44,
          "beat": 1.5,
          "dur": 0.14,
          "vel": 48,
          "clef": "bass",
          "pitch": "G#2"
        },
        {
          "midi": 58,
          "beat": 1.5,
          "dur": 0.57,
          "vel": 62,
          "clef": "bass",
          "acc": "#",
          "pitch": "A#3"
        },
        {
          "midi": 51,
          "beat": 1.75,
          "dur": 0.14,
          "vel": 54,
          "clef": "bass",
          "pitch": "D#3"
        },
        {
          "midi": 44,
          "beat": 2,
          "dur": 0.14,
          "vel": 44,
          "clef": "bass",
          "pitch": "G#2"
        },
        {
          "midi": 51,
          "beat": 2.25,
          "dur": 0.14,
          "vel": 51,
          "clef": "bass",
          "pitch": "D#3"
        },
        {
          "midi": 44,
          "beat": 2.5,
          "dur": 0.14,
          "vel": 49,
          "clef": "bass",
          "pitch": "G#2"
        },
        {
          "midi": 61,
          "beat": 2.5,
          "dur": 0.34,
          "vel": 65,
          "clef": "treble",
          "pitch": "C#4"
        },
        {
          "midi": 51,
          "beat": 2.75,
          "dur": 0.14,
          "vel": 50,
          "clef": "bass",
          "pitch": "D#3"
        },
        {
          "midi": 44,
          "beat": 3,
          "dur": 0.14,
          "vel": 52,
          "clef": "bass",
          "pitch": "G#2"
        },
        {
          "midi": 60,
          "beat": 3,
          "dur": 0.72,
          "vel": 63,
          "clef": "treble",
          "pitch": "C4"
        },
        {
          "midi": 63,
          "beat": 3,
          "dur": 0.51,
          "vel": 50,
          "clef": "treble",
          "pitch": "D#4"
        },
        {
          "midi": 66,
          "beat": 3,
          "dur": 0.51,
          "vel": 50,
          "clef": "treble",
          "pitch": "F#4"
        },
        {
          "midi": 51,
          "beat": 3.25,
          "dur": 0.14,
          "vel": 56,
          "clef": "bass",
          "pitch": "D#3"
        },
        {
          "midi": 44,
          "beat": 3.5,
          "dur": 0.13,
          "vel": 47,
          "clef": "bass",
          "pitch": "G#2"
        },
        {
          "midi": 51,
          "beat": 3.75,
          "dur": 0.13,
          "vel": 48,
          "clef": "bass",
          "pitch": "D#3"
        },
        {
          "midi": 44,
          "beat": 4,
          "dur": 0.13,
          "vel": 49,
          "clef": "bass",
          "pitch": "G#2"
        },
        {
          "midi": 63,
          "beat": 4,
          "dur": 0.25,
          "vel": 70,
          "clef": "treble",
          "pitch": "D#4"
        },
        {
          "midi": 66,
          "beat": 4,
          "dur": 0.5,
          "vel": 70,
          "clef": "treble",
          "pitch": "F#4"
        },
        {
          "midi": 70,
          "beat": 4,
          "dur": 0.5,
          "vel": 70,
          "clef": "treble",
          "acc": "#",
          "pitch": "A#4"
        },
        {
          "midi": 51,
          "beat": 4.25,
          "dur": 0.12,
          "vel": 48,
          "clef": "bass",
          "pitch": "D#3"
        }
      ]
    },
    {
      "_": "Treble: 16 notes, Bass: 19 notes",
      "number": 43,
      "notes": [
        {
          "midi": 44,
          "beat": 0,
          "dur": 0.13,
          "vel": 59,
          "clef": "bass",
          "pitch": "G#2"
        },
        {
          "midi": 61,
          "beat": 0,
          "dur": 0.27,
          "vel": 51,
          "clef": "treble",
          "pitch": "C#4"
        },
        {
          "midi": 39,
          "beat": 0.25,
          "dur": 0.13,
          "vel": 56,
          "clef": "bass",
          "pitch": "D#2"
        },
        {
          "midi": 44,
          "beat": 0.5,
          "dur": 0.13,
          "vel": 64,
          "clef": "bass",
          "pitch": "G#2"
        },
        {
          "midi": 68,
          "beat": 0.5,
          "dur": 0.27,
          "vel": 72,
          "clef": "treble",
          "pitch": "G#4"
        },
        {
          "midi": 72,
          "beat": 0.5,
          "dur": 0.27,
          "vel": 72,
          "clef": "treble",
          "pitch": "C5"
        },
        {
          "midi": 77,
          "beat": 0.5,
          "dur": 0.27,
          "vel": 72,
          "clef": "treble",
          "pitch": "F5"
        },
        {
          "midi": 51,
          "beat": 0.75,
          "dur": 0.13,
          "vel": 68,
          "clef": "bass",
          "pitch": "D#3"
        },
        {
          "midi": 44,
          "beat": 1,
          "dur": 0.13,
          "vel": 57,
          "clef": "bass",
          "pitch": "G#2"
        },
        {
          "midi": 66,
          "beat": 1,
          "dur": 0.26,
          "vel": 68,
          "clef": "treble",
          "pitch": "F#4"
        },
        {
          "midi": 70,
          "beat": 1,
          "dur": 0.26,
          "vel": 68,
          "clef": "treble",
          "acc": "#",
          "pitch": "A#4"
        },
        {
          "midi": 75,
          "beat": 1,
          "dur": 0.27,
          "vel": 68,
          "clef": "treble",
          "pitch": "D#5"
        },
        {
          "midi": 51,
          "beat": 1.25,
          "dur": 0.13,
          "vel": 60,
          "clef": "bass",
          "pitch": "D#3"
        },
        {
          "midi": 56,
          "beat": 1.5,
          "dur": 0.13,
          "vel": 65,
          "clef": "bass",
          "pitch": "G#3"
        },
        {
          "midi": 61,
          "beat": 1.5,
          "dur": 0.27,
          "vel": 52,
          "clef": "treble",
          "pitch": "C#4"
        },
        {
          "midi": 66,
          "beat": 1.5,
          "dur": 0.79,
          "vel": 54,
          "clef": "treble",
          "pitch": "F#4"
        },
        {
          "midi": 70,
          "beat": 1.5,
          "dur": 0.8,
          "vel": 54,
          "clef": "treble",
          "acc": "#",
          "pitch": "A#4"
        },
        {
          "midi": 51,
          "beat": 1.75,
          "dur": 0.13,
          "vel": 58,
          "clef": "bass",
          "pitch": "D#3"
        },
        {
          "midi": 56,
          "beat": 2,
          "dur": 0.13,
          "vel": 67,
          "clef": "bass",
          "pitch": "G#3"
        },
        {
          "midi": 58,
          "beat": 2,
          "dur": 0.27,
          "vel": 49,
          "clef": "bass",
          "acc": "#",
          "pitch": "A#3"
        },
        {
          "midi": 63,
          "beat": 2.25,
          "dur": 0.13,
          "vel": 77,
          "clef": "treble",
          "pitch": "D#4"
        },
        {
          "midi": 56,
          "beat": 2.5,
          "dur": 0.13,
          "vel": 56,
          "clef": "bass",
          "pitch": "G#3"
        },
        {
          "midi": 61,
          "beat": 2.5,
          "dur": 0.27,
          "vel": 51,
          "clef": "treble",
          "pitch": "C#4"
        },
        {
          "midi": 51,
          "beat": 2.75,
          "dur": 0.13,
          "vel": 52,
          "clef": "bass",
          "pitch": "D#3"
        },
        {
          "midi": 56,
          "beat": 3,
          "dur": 0.13,
          "vel": 66,
          "clef": "bass",
          "pitch": "G#3"
        },
        {
          "midi": 58,
          "beat": 3,
          "dur": 0.25,
          "vel": 50,
          "clef": "bass",
          "acc": "#",
          "pitch": "A#3"
        },
        {
          "midi": 66,
          "beat": 3,
          "dur": 0.75,
          "vel": 45,
          "clef": "treble",
          "pitch": "F#4"
        },
        {
          "midi": 68,
          "beat": 3,
          "dur": 0.75,
          "vel": 45,
          "clef": "treble",
          "pitch": "G#4"
        },
        {
          "midi": 51,
          "beat": 3.25,
          "dur": 0.13,
          "vel": 61,
          "clef": "bass",
          "pitch": "D#3"
        },
        {
          "midi": 44,
          "beat": 3.5,
          "dur": 0.13,
          "vel": 55,
          "clef": "bass",
          "pitch": "G#2"
        },
        {
          "midi": 60,
          "beat": 3.5,
          "dur": 0.26,
          "vel": 54,
          "clef": "treble",
          "pitch": "C4"
        },
        {
          "midi": 51,
          "beat": 3.75,
          "dur": 0.13,
          "vel": 60,
          "clef": "bass",
          "pitch": "D#3"
        },
        {
          "midi": 44,
          "beat": 4,
          "dur": 0.13,
          "vel": 60,
          "clef": "bass",
          "pitch": "G#2"
        },
        {
          "midi": 63,
          "beat": 4,
          "dur": 0.26,
          "vel": 56,
          "clef": "treble",
          "pitch": "D#4"
        },
        {
          "midi": 39,
          "beat": 4.25,
          "dur": 0.12,
          "vel": 54,
          "clef": "bass",
          "pitch": "D#2"
        }
      ]
    },
    {
      "_": "Treble: 18 notes, Bass: 19 notes",
      "number": 44,
      "notes": [
        {
          "midi": 44,
          "beat": 0,
          "dur": 0.13,
          "vel": 57,
          "clef": "bass",
          "pitch": "G#2"
        },
        {
          "midi": 61,
          "beat": 0,
          "dur": 0.27,
          "vel": 63,
          "clef": "treble",
          "pitch": "C#4"
        },
        {
          "midi": 66,
          "beat": 0,
          "dur": 0.27,
          "vel": 63,
          "clef": "treble",
          "pitch": "F#4"
        },
        {
          "midi": 70,
          "beat": 0,
          "dur": 0.27,
          "vel": 63,
          "clef": "treble",
          "acc": "#",
          "pitch": "A#4"
        },
        {
          "midi": 39,
          "beat": 0.25,
          "dur": 0.13,
          "vel": 55,
          "clef": "bass",
          "pitch": "D#2"
        },
        {
          "midi": 44,
          "beat": 0.5,
          "dur": 0.13,
          "vel": 63,
          "clef": "bass",
          "pitch": "G#2"
        },
        {
          "midi": 68,
          "beat": 0.5,
          "dur": 0.27,
          "vel": 75,
          "clef": "treble",
          "pitch": "G#4"
        },
        {
          "midi": 72,
          "beat": 0.5,
          "dur": 0.27,
          "vel": 75,
          "clef": "treble",
          "pitch": "C5"
        },
        {
          "midi": 77,
          "beat": 0.5,
          "dur": 0.27,
          "vel": 75,
          "clef": "treble",
          "pitch": "F5"
        },
        {
          "midi": 51,
          "beat": 0.75,
          "dur": 0.13,
          "vel": 71,
          "clef": "bass",
          "pitch": "D#3"
        },
        {
          "midi": 44,
          "beat": 1,
          "dur": 0.13,
          "vel": 58,
          "clef": "bass",
          "pitch": "G#2"
        },
        {
          "midi": 66,
          "beat": 1,
          "dur": 0.26,
          "vel": 62,
          "clef": "treble",
          "pitch": "F#4"
        },
        {
          "midi": 70,
          "beat": 1,
          "dur": 0.26,
          "vel": 62,
          "clef": "treble",
          "acc": "#",
          "pitch": "A#4"
        },
        {
          "midi": 75,
          "beat": 1,
          "dur": 0.27,
          "vel": 62,
          "clef": "treble",
          "pitch": "D#5"
        },
        {
          "midi": 51,
          "beat": 1.25,
          "dur": 0.13,
          "vel": 58,
          "clef": "bass",
          "pitch": "D#3"
        },
        {
          "midi": 56,
          "beat": 1.5,
          "dur": 0.13,
          "vel": 66,
          "clef": "bass",
          "pitch": "G#3"
        },
        {
          "midi": 61,
          "beat": 1.5,
          "dur": 0.27,
          "vel": 48,
          "clef": "treble",
          "pitch": "C#4"
        },
        {
          "midi": 66,
          "beat": 1.5,
          "dur": 0.79,
          "vel": 56,
          "clef": "treble",
          "pitch": "F#4"
        },
        {
          "midi": 70,
          "beat": 1.5,
          "dur": 0.8,
          "vel": 56,
          "clef": "treble",
          "acc": "#",
          "pitch": "A#4"
        },
        {
          "midi": 51,
          "beat": 1.75,
          "dur": 0.13,
          "vel": 65,
          "clef": "bass",
          "pitch": "D#3"
        },
        {
          "midi": 56,
          "beat": 2,
          "dur": 0.13,
          "vel": 65,
          "clef": "bass",
          "pitch": "G#3"
        },
        {
          "midi": 58,
          "beat": 2,
          "dur": 0.27,
          "vel": 46,
          "clef": "bass",
          "acc": "#",
          "pitch": "A#3"
        },
        {
          "midi": 63,
          "beat": 2.25,
          "dur": 0.13,
          "vel": 76,
          "clef": "treble",
          "pitch": "D#4"
        },
        {
          "midi": 56,
          "beat": 2.5,
          "dur": 0.13,
          "vel": 58,
          "clef": "bass",
          "pitch": "G#3"
        },
        {
          "midi": 61,
          "beat": 2.5,
          "dur": 0.27,
          "vel": 54,
          "clef": "treble",
          "pitch": "C#4"
        },
        {
          "midi": 51,
          "beat": 2.75,
          "dur": 0.13,
          "vel": 53,
          "clef": "bass",
          "pitch": "D#3"
        },
        {
          "midi": 56,
          "beat": 3,
          "dur": 0.13,
          "vel": 60,
          "clef": "bass",
          "pitch": "G#3"
        },
        {
          "midi": 58,
          "beat": 3,
          "dur": 0.25,
          "vel": 52,
          "clef": "bass",
          "acc": "#",
          "pitch": "A#3"
        },
        {
          "midi": 66,
          "beat": 3,
          "dur": 0.74,
          "vel": 53,
          "clef": "treble",
          "pitch": "F#4"
        },
        {
          "midi": 68,
          "beat": 3,
          "dur": 0.74,
          "vel": 53,
          "clef": "treble",
          "pitch": "G#4"
        },
        {
          "midi": 51,
          "beat": 3.25,
          "dur": 0.13,
          "vel": 60,
          "clef": "bass",
          "pitch": "D#3"
        },
        {
          "midi": 56,
          "beat": 3.5,
          "dur": 0.13,
          "vel": 65,
          "clef": "bass",
          "pitch": "G#3"
        },
        {
          "midi": 60,
          "beat": 3.5,
          "dur": 0.26,
          "vel": 51,
          "clef": "treble",
          "pitch": "C4"
        },
        {
          "midi": 51,
          "beat": 3.75,
          "dur": 0.13,
          "vel": 60,
          "clef": "bass",
          "pitch": "D#3"
        },
        {
          "midi": 56,
          "beat": 4,
          "dur": 0.13,
          "vel": 64,
          "clef": "bass",
          "pitch": "G#3"
        },
        {
          "midi": 63,
          "beat": 4,
          "dur": 0.26,
          "vel": 55,
          "clef": "treble",
          "pitch": "D#4"
        },
        {
          "midi": 51,
          "beat": 4.25,
          "dur": 0.12,
          "vel": 61,
          "clef": "bass",
          "pitch": "D#3"
        }
      ]
    },
    {
      "_": "Treble: 21 notes, Bass: 3 notes",
      "number": 45,
      "notes": [
        {
          "midi": 54,
          "beat": 0,
          "dur": 0.53,
          "vel": 58,
          "clef": "bass",
          "pitch": "F#3"
        },
        {
          "midi": 61,
          "beat": 0,
          "dur": 1.57,
          "vel": 77,
          "clef": "treble",
          "pitch": "C#4"
        },
        {
          "midi": 75,
          "beat": 0,
          "dur": 1.61,
          "vel": 84,
          "clef": "treble",
          "pitch": "D#5"
        },
        {
          "midi": 63,
          "beat": 0.25,
          "dur": 0.13,
          "vel": 52,
          "clef": "treble",
          "pitch": "D#4"
        },
        {
          "midi": 66,
          "beat": 0.5,
          "dur": 0.13,
          "vel": 52,
          "clef": "treble",
          "pitch": "F#4"
        },
        {
          "midi": 70,
          "beat": 0.75,
          "dur": 0.13,
          "vel": 70,
          "clef": "treble",
          "acc": "#",
          "pitch": "A#4"
        },
        {
          "midi": 56,
          "beat": 1,
          "dur": 0.26,
          "vel": 59,
          "clef": "bass",
          "pitch": "G#3"
        },
        {
          "midi": 66,
          "beat": 1,
          "dur": 0.13,
          "vel": 62,
          "clef": "treble",
          "pitch": "F#4"
        },
        {
          "midi": 63,
          "beat": 1.25,
          "dur": 0.12,
          "vel": 57,
          "clef": "treble",
          "pitch": "D#4"
        },
        {
          "midi": 58,
          "beat": 1.5,
          "dur": 0.53,
          "vel": 64,
          "clef": "bass",
          "acc": "#",
          "pitch": "A#3"
        },
        {
          "midi": 63,
          "beat": 1.75,
          "dur": 0.13,
          "vel": 57,
          "clef": "treble",
          "pitch": "D#4"
        },
        {
          "midi": 66,
          "beat": 2,
          "dur": 0.13,
          "vel": 61,
          "clef": "treble",
          "pitch": "F#4"
        },
        {
          "midi": 70,
          "beat": 2.25,
          "dur": 0.13,
          "vel": 69,
          "clef": "treble",
          "acc": "#",
          "pitch": "A#4"
        },
        {
          "midi": 61,
          "beat": 2.5,
          "dur": 0.29,
          "vel": 67,
          "clef": "treble",
          "pitch": "C#4"
        },
        {
          "midi": 66,
          "beat": 2.5,
          "dur": 0.13,
          "vel": 62,
          "clef": "treble",
          "pitch": "F#4"
        },
        {
          "midi": 63,
          "beat": 2.75,
          "dur": 0.12,
          "vel": 55,
          "clef": "treble",
          "pitch": "D#4"
        },
        {
          "midi": 60,
          "beat": 3,
          "dur": 0.68,
          "vel": 76,
          "clef": "treble",
          "pitch": "C4"
        },
        {
          "midi": 78,
          "beat": 3,
          "dur": 0.52,
          "vel": 94,
          "clef": "treble",
          "pitch": "F#5"
        },
        {
          "midi": 63,
          "beat": 3.25,
          "dur": 0.13,
          "vel": 70,
          "clef": "treble",
          "pitch": "D#4"
        },
        {
          "midi": 66,
          "beat": 3.5,
          "dur": 0.13,
          "vel": 80,
          "clef": "treble",
          "pitch": "F#4"
        },
        {
          "midi": 70,
          "beat": 3.75,
          "dur": 0.13,
          "vel": 69,
          "clef": "treble",
          "acc": "#",
          "pitch": "A#4"
        },
        {
          "midi": 72,
          "beat": 4,
          "dur": 0.13,
          "vel": 73,
          "clef": "treble",
          "pitch": "C5"
        },
        {
          "midi": 82,
          "beat": 4,
          "dur": 0.24,
          "vel": 84,
          "clef": "treble",
          "acc": "#",
          "pitch": "A#5"
        },
        {
          "midi": 75,
          "beat": 4.25,
          "dur": 0.12,
          "vel": 70,
          "clef": "treble",
          "pitch": "D#5"
        }
      ]
    },
    {
      "_": "Treble: 21 notes, Bass: 3 notes",
      "number": 46,
      "notes": [
        {
          "midi": 54,
          "beat": 0,
          "dur": 0.52,
          "vel": 57,
          "clef": "bass",
          "pitch": "F#3"
        },
        {
          "midi": 61,
          "beat": 0,
          "dur": 1.54,
          "vel": 46,
          "clef": "treble",
          "pitch": "C#4"
        },
        {
          "midi": 75,
          "beat": 0,
          "dur": 1.58,
          "vel": 59,
          "clef": "treble",
          "pitch": "D#5"
        },
        {
          "midi": 63,
          "beat": 0.25,
          "dur": 0.13,
          "vel": 47,
          "clef": "treble",
          "pitch": "D#4"
        },
        {
          "midi": 66,
          "beat": 0.5,
          "dur": 0.13,
          "vel": 50,
          "clef": "treble",
          "pitch": "F#4"
        },
        {
          "midi": 70,
          "beat": 0.75,
          "dur": 0.13,
          "vel": 69,
          "clef": "treble",
          "acc": "#",
          "pitch": "A#4"
        },
        {
          "midi": 56,
          "beat": 1,
          "dur": 0.26,
          "vel": 59,
          "clef": "bass",
          "pitch": "G#3"
        },
        {
          "midi": 66,
          "beat": 1,
          "dur": 0.13,
          "vel": 60,
          "clef": "treble",
          "pitch": "F#4"
        },
        {
          "midi": 63,
          "beat": 1.25,
          "dur": 0.12,
          "vel": 55,
          "clef": "treble",
          "pitch": "D#4"
        },
        {
          "midi": 58,
          "beat": 1.5,
          "dur": 0.52,
          "vel": 62,
          "clef": "bass",
          "acc": "#",
          "pitch": "A#3"
        },
        {
          "midi": 63,
          "beat": 1.75,
          "dur": 0.13,
          "vel": 57,
          "clef": "treble",
          "pitch": "D#4"
        },
        {
          "midi": 66,
          "beat": 2,
          "dur": 0.13,
          "vel": 60,
          "clef": "treble",
          "pitch": "F#4"
        },
        {
          "midi": 70,
          "beat": 2.25,
          "dur": 0.13,
          "vel": 68,
          "clef": "treble",
          "acc": "#",
          "pitch": "A#4"
        },
        {
          "midi": 61,
          "beat": 2.5,
          "dur": 0.28,
          "vel": 67,
          "clef": "treble",
          "pitch": "C#4"
        },
        {
          "midi": 66,
          "beat": 2.5,
          "dur": 0.13,
          "vel": 59,
          "clef": "treble",
          "pitch": "F#4"
        },
        {
          "midi": 63,
          "beat": 2.75,
          "dur": 0.12,
          "vel": 55,
          "clef": "treble",
          "pitch": "D#4"
        },
        {
          "midi": 60,
          "beat": 3,
          "dur": 0.68,
          "vel": 45,
          "clef": "treble",
          "pitch": "C4"
        },
        {
          "midi": 78,
          "beat": 3,
          "dur": 0.51,
          "vel": 63,
          "clef": "treble",
          "pitch": "F#5"
        },
        {
          "midi": 63,
          "beat": 3.25,
          "dur": 0.13,
          "vel": 67,
          "clef": "treble",
          "pitch": "D#4"
        },
        {
          "midi": 66,
          "beat": 3.5,
          "dur": 0.13,
          "vel": 70,
          "clef": "treble",
          "pitch": "F#4"
        },
        {
          "midi": 70,
          "beat": 3.75,
          "dur": 0.13,
          "vel": 66,
          "clef": "treble",
          "acc": "#",
          "pitch": "A#4"
        },
        {
          "midi": 72,
          "beat": 4,
          "dur": 0.13,
          "vel": 73,
          "clef": "treble",
          "pitch": "C5"
        },
        {
          "midi": 82,
          "beat": 4,
          "dur": 0.24,
          "vel": 76,
          "clef": "treble",
          "acc": "#",
          "pitch": "A#5"
        },
        {
          "midi": 75,
          "beat": 4.25,
          "dur": 0.12,
          "vel": 68,
          "clef": "treble",
          "pitch": "D#5"
        }
      ]
    },
    {
      "_": "Treble: 19 notes, Bass: 0 notes",
      "number": 47,
      "notes": [
        {
          "midi": 66,
          "beat": 0,
          "dur": 0.88,
          "vel": 43,
          "clef": "treble",
          "pitch": "F#4"
        },
        {
          "midi": 87,
          "beat": 0,
          "dur": 3.63,
          "vel": 84,
          "clef": "treble",
          "pitch": "D#6"
        },
        {
          "midi": 70,
          "beat": 0.25,
          "dur": 0.13,
          "vel": 46,
          "clef": "treble",
          "acc": "#",
          "pitch": "A#4"
        },
        {
          "midi": 73,
          "beat": 0.5,
          "dur": 0.13,
          "vel": 46,
          "clef": "treble",
          "pitch": "C#5"
        },
        {
          "midi": 75,
          "beat": 0.75,
          "dur": 0.13,
          "vel": 43,
          "clef": "treble",
          "pitch": "D#5"
        },
        {
          "midi": 78,
          "beat": 1,
          "dur": 0.13,
          "vel": 44,
          "clef": "treble",
          "pitch": "F#5"
        },
        {
          "midi": 82,
          "beat": 1.25,
          "dur": 0.12,
          "vel": 52,
          "clef": "treble",
          "acc": "#",
          "pitch": "A#5"
        },
        {
          "midi": 66,
          "beat": 1.5,
          "dur": 0.8,
          "vel": 26,
          "clef": "treble",
          "pitch": "F#4"
        },
        {
          "midi": 70,
          "beat": 1.75,
          "dur": 0.13,
          "vel": 32,
          "clef": "treble",
          "acc": "#",
          "pitch": "A#4"
        },
        {
          "midi": 73,
          "beat": 2,
          "dur": 0.13,
          "vel": 48,
          "clef": "treble",
          "pitch": "C#5"
        },
        {
          "midi": 75,
          "beat": 2.25,
          "dur": 0.13,
          "vel": 48,
          "clef": "treble",
          "pitch": "D#5"
        },
        {
          "midi": 78,
          "beat": 2.5,
          "dur": 0.12,
          "vel": 43,
          "clef": "treble",
          "pitch": "F#5"
        },
        {
          "midi": 84,
          "beat": 2.75,
          "dur": 0.13,
          "vel": 54,
          "clef": "treble",
          "pitch": "C6"
        },
        {
          "midi": 66,
          "beat": 3,
          "dur": 0.73,
          "vel": 61,
          "clef": "treble",
          "pitch": "F#4"
        },
        {
          "midi": 70,
          "beat": 3.25,
          "dur": 0.13,
          "vel": 55,
          "clef": "treble",
          "acc": "#",
          "pitch": "A#4"
        },
        {
          "midi": 73,
          "beat": 3.5,
          "dur": 0.13,
          "vel": 63,
          "clef": "treble",
          "pitch": "C#5"
        },
        {
          "midi": 75,
          "beat": 3.75,
          "dur": 0.13,
          "vel": 51,
          "clef": "treble",
          "pitch": "D#5"
        },
        {
          "midi": 78,
          "beat": 4,
          "dur": 0.13,
          "vel": 56,
          "clef": "treble",
          "pitch": "F#5"
        },
        {
          "midi": 82,
          "beat": 4.25,
          "dur": 0.12,
          "vel": 55,
          "clef": "treble",
          "acc": "#",
          "pitch": "A#5"
        }
      ]
    },
    {
      "_": "Treble: 20 notes, Bass: 0 notes",
      "number": 48,
      "notes": [
        {
          "midi": 66,
          "beat": 0,
          "dur": 0.92,
          "vel": 35,
          "clef": "treble",
          "pitch": "F#4"
        },
        {
          "midi": 69,
          "beat": 0.25,
          "dur": 0.13,
          "vel": 39,
          "clef": "treble",
          "pitch": "A4"
        },
        {
          "midi": 73,
          "beat": 0.5,
          "dur": 0.13,
          "vel": 46,
          "clef": "treble",
          "pitch": "C#5"
        },
        {
          "midi": 75,
          "beat": 0.75,
          "dur": 0.13,
          "vel": 36,
          "clef": "treble",
          "pitch": "D#5"
        },
        {
          "midi": 78,
          "beat": 1,
          "dur": 0.13,
          "vel": 49,
          "clef": "treble",
          "pitch": "F#5"
        },
        {
          "midi": 81,
          "beat": 1.25,
          "dur": 0.12,
          "vel": 37,
          "clef": "treble",
          "pitch": "A5"
        },
        {
          "midi": 66,
          "beat": 1.5,
          "dur": 0.72,
          "vel": 23,
          "clef": "treble",
          "pitch": "F#4"
        },
        {
          "midi": 85,
          "beat": 1.5,
          "dur": 0.81,
          "vel": 81,
          "clef": "treble",
          "pitch": "C#6"
        },
        {
          "midi": 69,
          "beat": 1.75,
          "dur": 0.14,
          "vel": 30,
          "clef": "treble",
          "pitch": "A4"
        },
        {
          "midi": 73,
          "beat": 2,
          "dur": 0.14,
          "vel": 37,
          "clef": "treble",
          "pitch": "C#5"
        },
        {
          "midi": 75,
          "beat": 2.25,
          "dur": 0.14,
          "vel": 42,
          "clef": "treble",
          "pitch": "D#5"
        },
        {
          "midi": 78,
          "beat": 2.5,
          "dur": 0.14,
          "vel": 38,
          "clef": "treble",
          "pitch": "F#5"
        },
        {
          "midi": 83,
          "beat": 2.75,
          "dur": 0.12,
          "vel": 42,
          "clef": "treble",
          "pitch": "B5"
        },
        {
          "midi": 66,
          "beat": 3,
          "dur": 0.77,
          "vel": 34,
          "clef": "treble",
          "pitch": "F#4"
        },
        {
          "midi": 87,
          "beat": 3,
          "dur": 0.77,
          "vel": 63,
          "clef": "treble",
          "pitch": "D#6"
        },
        {
          "midi": 69,
          "beat": 3.25,
          "dur": 0.14,
          "vel": 35,
          "clef": "treble",
          "pitch": "A4"
        },
        {
          "midi": 73,
          "beat": 3.5,
          "dur": 0.14,
          "vel": 38,
          "clef": "treble",
          "pitch": "C#5"
        },
        {
          "midi": 75,
          "beat": 3.75,
          "dur": 0.14,
          "vel": 38,
          "clef": "treble",
          "pitch": "D#5"
        },
        {
          "midi": 78,
          "beat": 4,
          "dur": 0.14,
          "vel": 46,
          "clef": "treble",
          "pitch": "F#5"
        },
        {
          "midi": 81,
          "beat": 4.25,
          "dur": 0.13,
          "vel": 38,
          "clef": "treble",
          "pitch": "A5"
        }
      ]
    },
    {
      "_": "Treble: 10 notes, Bass: 0 notes",
      "number": 49,
      "notes": [
        {
          "midi": 65,
          "beat": 0,
          "dur": 1.76,
          "vel": 33,
          "clef": "treble",
          "pitch": "F4"
        },
        {
          "midi": 68,
          "beat": 0.25,
          "dur": 0.15,
          "vel": 37,
          "clef": "treble",
          "pitch": "G#4"
        },
        {
          "midi": 72,
          "beat": 0.5,
          "dur": 0.15,
          "vel": 45,
          "clef": "treble",
          "pitch": "C5"
        },
        {
          "midi": 77,
          "beat": 0.75,
          "dur": 0.15,
          "vel": 39,
          "clef": "treble",
          "pitch": "F5"
        },
        {
          "midi": 80,
          "beat": 1,
          "dur": 0.15,
          "vel": 40,
          "clef": "treble",
          "pitch": "G#5"
        },
        {
          "midi": 84,
          "beat": 1.25,
          "dur": 0.14,
          "vel": 38,
          "clef": "treble",
          "pitch": "C6"
        },
        {
          "midi": 89,
          "beat": 1.5,
          "dur": 0.89,
          "vel": 45,
          "clef": "treble",
          "pitch": "F6"
        },
        {
          "midi": 92,
          "beat": 1.5,
          "dur": 0.91,
          "vel": 45,
          "clef": "treble",
          "pitch": "G#6"
        },
        {
          "midi": 65,
          "beat": 3,
          "dur": 0.89,
          "vel": 50,
          "clef": "treble",
          "pitch": "F4"
        },
        {
          "midi": 89,
          "beat": 3,
          "dur": 1.21,
          "vel": 41,
          "clef": "treble",
          "pitch": "F6"
        }
      ]
    },
    {
      "_": "Treble: 13 notes, Bass: 0 notes",
      "number": 50,
      "notes": [
        {
          "midi": 65,
          "beat": 0,
          "dur": 1.76,
          "vel": 45,
          "clef": "treble",
          "pitch": "F4"
        },
        {
          "midi": 69,
          "beat": 0.25,
          "dur": 0.15,
          "vel": 50,
          "clef": "treble",
          "pitch": "A4"
        },
        {
          "midi": 72,
          "beat": 0.5,
          "dur": 0.15,
          "vel": 54,
          "clef": "treble",
          "pitch": "C5"
        },
        {
          "midi": 84,
          "beat": 0.5,
          "dur": 0.3,
          "vel": 45,
          "clef": "treble",
          "pitch": "C6"
        },
        {
          "midi": 87,
          "beat": 0.5,
          "dur": 0.3,
          "vel": 45,
          "clef": "treble",
          "pitch": "D#6"
        },
        {
          "midi": 75,
          "beat": 0.75,
          "dur": 0.15,
          "vel": 52,
          "clef": "treble",
          "pitch": "D#5"
        },
        {
          "midi": 77,
          "beat": 1,
          "dur": 0.15,
          "vel": 59,
          "clef": "treble",
          "pitch": "F5"
        },
        {
          "midi": 85,
          "beat": 1,
          "dur": 0.3,
          "vel": 46,
          "clef": "treble",
          "pitch": "C#6"
        },
        {
          "midi": 89,
          "beat": 1,
          "dur": 0.3,
          "vel": 46,
          "clef": "treble",
          "pitch": "F6"
        },
        {
          "midi": 81,
          "beat": 1.25,
          "dur": 0.14,
          "vel": 47,
          "clef": "treble",
          "pitch": "A5"
        },
        {
          "midi": 84,
          "beat": 1.5,
          "dur": 2.16,
          "vel": 45,
          "clef": "treble",
          "pitch": "C6"
        },
        {
          "midi": 87,
          "beat": 1.5,
          "dur": 2.16,
          "vel": 45,
          "clef": "treble",
          "pitch": "D#6"
        },
        {
          "midi": 65,
          "beat": 3,
          "dur": 0.89,
          "vel": 54,
          "clef": "treble",
          "pitch": "F4"
        }
      ]
    },
    {
      "_": "Treble: 17 notes, Bass: 0 notes",
      "number": 51,
      "notes": [
        {
          "midi": 65,
          "beat": 0,
          "dur": 1.72,
          "vel": 48,
          "clef": "treble",
          "pitch": "F4"
        },
        {
          "midi": 68,
          "beat": 0.25,
          "dur": 0.15,
          "vel": 50,
          "clef": "treble",
          "pitch": "G#4"
        },
        {
          "midi": 70,
          "beat": 0.5,
          "dur": 0.15,
          "vel": 54,
          "clef": "treble",
          "acc": "#",
          "pitch": "A#4"
        },
        {
          "midi": 82,
          "beat": 0.5,
          "dur": 0.3,
          "vel": 49,
          "clef": "treble",
          "acc": "#",
          "pitch": "A#5"
        },
        {
          "midi": 85,
          "beat": 0.5,
          "dur": 0.3,
          "vel": 49,
          "clef": "treble",
          "pitch": "C#6"
        },
        {
          "midi": 73,
          "beat": 0.75,
          "dur": 0.15,
          "vel": 49,
          "clef": "treble",
          "pitch": "C#5"
        },
        {
          "midi": 77,
          "beat": 1,
          "dur": 0.15,
          "vel": 56,
          "clef": "treble",
          "pitch": "F5"
        },
        {
          "midi": 84,
          "beat": 1,
          "dur": 0.3,
          "vel": 49,
          "clef": "treble",
          "pitch": "C6"
        },
        {
          "midi": 87,
          "beat": 1,
          "dur": 0.3,
          "vel": 49,
          "clef": "treble",
          "pitch": "D#6"
        },
        {
          "midi": 80,
          "beat": 1.25,
          "dur": 0.14,
          "vel": 48,
          "clef": "treble",
          "pitch": "G#5"
        },
        {
          "midi": 82,
          "beat": 1.5,
          "dur": 0.44,
          "vel": 47,
          "clef": "treble",
          "acc": "#",
          "pitch": "A#5"
        },
        {
          "midi": 85,
          "beat": 1.5,
          "dur": 0.44,
          "vel": 47,
          "clef": "treble",
          "pitch": "C#6"
        },
        {
          "midi": 85,
          "beat": 2.25,
          "dur": 0.87,
          "vel": 51,
          "clef": "treble",
          "pitch": "C#6"
        },
        {
          "midi": 89,
          "beat": 2.25,
          "dur": 0.89,
          "vel": 51,
          "clef": "treble",
          "pitch": "F6"
        },
        {
          "midi": 65,
          "beat": 3,
          "dur": 0.87,
          "vel": 60,
          "clef": "treble",
          "pitch": "F4"
        },
        {
          "midi": 82,
          "beat": 3.75,
          "dur": 0.74,
          "vel": 42,
          "clef": "treble",
          "acc": "#",
          "pitch": "A#5"
        },
        {
          "midi": 85,
          "beat": 3.75,
          "dur": 0.74,
          "vel": 42,
          "clef": "treble",
          "pitch": "C#6"
        }
      ]
    },
    {
      "_": "Treble: 13 notes, Bass: 0 notes",
      "number": 52,
      "notes": [
        {
          "midi": 63,
          "beat": 0,
          "dur": 1.7,
          "vel": 45,
          "clef": "treble",
          "pitch": "D#4"
        },
        {
          "midi": 66,
          "beat": 0.25,
          "dur": 0.15,
          "vel": 43,
          "clef": "treble",
          "pitch": "F#4"
        },
        {
          "midi": 68,
          "beat": 0.5,
          "dur": 0.15,
          "vel": 47,
          "clef": "treble",
          "pitch": "G#4"
        },
        {
          "midi": 80,
          "beat": 0.5,
          "dur": 0.29,
          "vel": 36,
          "clef": "treble",
          "pitch": "G#5"
        },
        {
          "midi": 84,
          "beat": 0.5,
          "dur": 0.29,
          "vel": 36,
          "clef": "treble",
          "pitch": "C6"
        },
        {
          "midi": 72,
          "beat": 0.75,
          "dur": 0.15,
          "vel": 48,
          "clef": "treble",
          "pitch": "C5"
        },
        {
          "midi": 75,
          "beat": 1,
          "dur": 0.15,
          "vel": 55,
          "clef": "treble",
          "pitch": "D#5"
        },
        {
          "midi": 82,
          "beat": 1,
          "dur": 0.29,
          "vel": 54,
          "clef": "treble",
          "acc": "#",
          "pitch": "A#5"
        },
        {
          "midi": 85,
          "beat": 1,
          "dur": 0.29,
          "vel": 54,
          "clef": "treble",
          "pitch": "C#6"
        },
        {
          "midi": 78,
          "beat": 1.25,
          "dur": 0.13,
          "vel": 46,
          "clef": "treble",
          "pitch": "F#5"
        },
        {
          "midi": 80,
          "beat": 1.5,
          "dur": 1.72,
          "vel": 55,
          "clef": "treble",
          "pitch": "G#5"
        },
        {
          "midi": 84,
          "beat": 1.5,
          "dur": 1.72,
          "vel": 55,
          "clef": "treble",
          "pitch": "C6"
        },
        {
          "midi": 63,
          "beat": 3,
          "dur": 0.87,
          "vel": 50,
          "clef": "treble",
          "pitch": "D#4"
        }
      ]
    },
    {
      "_": "Treble: 23 notes, Bass: 0 notes",
      "number": 53,
      "notes": [
        {
          "midi": 61,
          "beat": 0,
          "dur": 1.82,
          "vel": 52,
          "clef": "treble",
          "pitch": "C#4"
        },
        {
          "midi": 63,
          "beat": 0.25,
          "dur": 0.15,
          "vel": 52,
          "clef": "treble",
          "pitch": "D#4"
        },
        {
          "midi": 66,
          "beat": 0.5,
          "dur": 0.15,
          "vel": 58,
          "clef": "treble",
          "pitch": "F#4"
        },
        {
          "midi": 78,
          "beat": 0.5,
          "dur": 0.29,
          "vel": 55,
          "clef": "treble",
          "pitch": "F#5"
        },
        {
          "midi": 82,
          "beat": 0.5,
          "dur": 0.29,
          "vel": 47,
          "clef": "treble",
          "acc": "#",
          "pitch": "A#5"
        },
        {
          "midi": 70,
          "beat": 0.75,
          "dur": 0.15,
          "vel": 59,
          "clef": "treble",
          "acc": "#",
          "pitch": "A#4"
        },
        {
          "midi": 73,
          "beat": 1,
          "dur": 0.15,
          "vel": 61,
          "clef": "treble",
          "pitch": "C#5"
        },
        {
          "midi": 80,
          "beat": 1,
          "dur": 0.29,
          "vel": 57,
          "clef": "treble",
          "pitch": "G#5"
        },
        {
          "midi": 84,
          "beat": 1,
          "dur": 0.29,
          "vel": 47,
          "clef": "treble",
          "pitch": "C6"
        },
        {
          "midi": 75,
          "beat": 1.25,
          "dur": 0.14,
          "vel": 55,
          "clef": "treble",
          "pitch": "D#5"
        },
        {
          "midi": 78,
          "beat": 1.5,
          "dur": 0.94,
          "vel": 53,
          "clef": "treble",
          "pitch": "F#5"
        },
        {
          "midi": 82,
          "beat": 1.5,
          "dur": 0.31,
          "vel": 47,
          "clef": "treble",
          "acc": "#",
          "pitch": "A#5"
        },
        {
          "midi": 87,
          "beat": 2,
          "dur": 0.31,
          "vel": 57,
          "clef": "treble",
          "pitch": "D#6"
        },
        {
          "midi": 82,
          "beat": 2.5,
          "dur": 0.31,
          "vel": 43,
          "clef": "treble",
          "acc": "#",
          "pitch": "A#5"
        },
        {
          "midi": 60,
          "beat": 3,
          "dur": 0.84,
          "vel": 53,
          "clef": "treble",
          "pitch": "C4"
        },
        {
          "midi": 63,
          "beat": 3,
          "dur": 0.84,
          "vel": 42,
          "clef": "treble",
          "pitch": "D#4"
        },
        {
          "midi": 77,
          "beat": 3,
          "dur": 1.12,
          "vel": 51,
          "clef": "treble",
          "pitch": "F5"
        },
        {
          "midi": 80,
          "beat": 3,
          "dur": 0.31,
          "vel": 36,
          "clef": "treble",
          "pitch": "G#5"
        },
        {
          "midi": 65,
          "beat": 3.1,
          "dur": 0.79,
          "vel": 42,
          "clef": "treble",
          "pitch": "F4"
        },
        {
          "midi": 68,
          "beat": 3.2,
          "dur": 0.73,
          "vel": 42,
          "clef": "treble",
          "pitch": "G#4"
        },
        {
          "midi": 72,
          "beat": 3.3,
          "dur": 0.67,
          "vel": 42,
          "clef": "treble",
          "pitch": "C5"
        },
        {
          "midi": 82,
          "beat": 3.5,
          "dur": 0.3,
          "vel": 55,
          "clef": "treble",
          "acc": "#",
          "pitch": "A#5"
        },
        {
          "midi": 80,
          "beat": 4,
          "dur": 0.5,
          "vel": 55,
          "clef": "treble",
          "pitch": "G#5"
        }
      ]
    },
    {
      "_": "Treble: 14 notes, Bass: 4 notes",
      "number": 54,
      "notes": [
        {
          "midi": 48,
          "beat": 0,
          "dur": 1.77,
          "vel": 38,
          "clef": "bass",
          "pitch": "C3"
        },
        {
          "midi": 54,
          "beat": 0.25,
          "dur": 0.15,
          "vel": 43,
          "clef": "bass",
          "pitch": "F#3"
        },
        {
          "midi": 58,
          "beat": 0.5,
          "dur": 0.15,
          "vel": 48,
          "clef": "bass",
          "acc": "#",
          "pitch": "A#3"
        },
        {
          "midi": 75,
          "beat": 0.5,
          "dur": 0.3,
          "vel": 55,
          "clef": "treble",
          "pitch": "D#5"
        },
        {
          "midi": 78,
          "beat": 0.5,
          "dur": 0.3,
          "vel": 43,
          "clef": "treble",
          "pitch": "F#5"
        },
        {
          "midi": 60,
          "beat": 0.75,
          "dur": 0.15,
          "vel": 41,
          "clef": "treble",
          "pitch": "C4"
        },
        {
          "midi": 63,
          "beat": 1,
          "dur": 0.15,
          "vel": 46,
          "clef": "treble",
          "pitch": "D#4"
        },
        {
          "midi": 77,
          "beat": 1,
          "dur": 0.3,
          "vel": 57,
          "clef": "treble",
          "pitch": "F5"
        },
        {
          "midi": 80,
          "beat": 1,
          "dur": 0.3,
          "vel": 43,
          "clef": "treble",
          "pitch": "G#5"
        },
        {
          "midi": 66,
          "beat": 1.25,
          "dur": 0.14,
          "vel": 43,
          "clef": "treble",
          "pitch": "F#4"
        },
        {
          "midi": 70,
          "beat": 1.5,
          "dur": 0.89,
          "vel": 44,
          "clef": "treble",
          "acc": "#",
          "pitch": "A#4"
        },
        {
          "midi": 75,
          "beat": 1.5,
          "dur": 0.89,
          "vel": 61,
          "clef": "treble",
          "pitch": "D#5"
        },
        {
          "midi": 78,
          "beat": 1.5,
          "dur": 0.89,
          "vel": 52,
          "clef": "treble",
          "pitch": "F#5"
        },
        {
          "midi": 53,
          "beat": 3,
          "dur": 0.83,
          "vel": 51,
          "clef": "bass",
          "pitch": "F3"
        },
        {
          "midi": 60,
          "beat": 3,
          "dur": 0.83,
          "vel": 47,
          "clef": "treble",
          "pitch": "C4"
        },
        {
          "midi": 63,
          "beat": 3,
          "dur": 0.83,
          "vel": 47,
          "clef": "treble",
          "pitch": "D#4"
        },
        {
          "midi": 69,
          "beat": 3,
          "dur": 0.83,
          "vel": 55,
          "clef": "treble",
          "pitch": "A4"
        },
        {
          "midi": 77,
          "beat": 3,
          "dur": 1.1,
          "vel": 53,
          "clef": "treble",
          "pitch": "F5"
        }
      ]
    },
    {
      "_": "Treble: 18 notes, Bass: 4 notes",
      "number": 55,
      "notes": [
        {
          "midi": 56,
          "beat": 0,
          "dur": 1.82,
          "vel": 49,
          "clef": "bass",
          "pitch": "G#3"
        },
        {
          "midi": 58,
          "beat": 0.25,
          "dur": 0.15,
          "vel": 49,
          "clef": "bass",
          "acc": "#",
          "pitch": "A#3"
        },
        {
          "midi": 61,
          "beat": 0.5,
          "dur": 0.15,
          "vel": 53,
          "clef": "treble",
          "pitch": "C#4"
        },
        {
          "midi": 73,
          "beat": 0.5,
          "dur": 0.3,
          "vel": 54,
          "clef": "treble",
          "pitch": "C#5"
        },
        {
          "midi": 77,
          "beat": 0.5,
          "dur": 0.3,
          "vel": 56,
          "clef": "treble",
          "pitch": "F5"
        },
        {
          "midi": 65,
          "beat": 0.75,
          "dur": 0.15,
          "vel": 49,
          "clef": "treble",
          "pitch": "F4"
        },
        {
          "midi": 68,
          "beat": 1,
          "dur": 0.15,
          "vel": 53,
          "clef": "treble",
          "pitch": "G#4"
        },
        {
          "midi": 75,
          "beat": 1,
          "dur": 0.3,
          "vel": 57,
          "clef": "treble",
          "pitch": "D#5"
        },
        {
          "midi": 78,
          "beat": 1,
          "dur": 0.3,
          "vel": 58,
          "clef": "treble",
          "pitch": "F#5"
        },
        {
          "midi": 70,
          "beat": 1.25,
          "dur": 0.14,
          "vel": 53,
          "clef": "treble",
          "acc": "#",
          "pitch": "A#4"
        },
        {
          "midi": 73,
          "beat": 1.5,
          "dur": 0.91,
          "vel": 56,
          "clef": "treble",
          "pitch": "C#5"
        },
        {
          "midi": 77,
          "beat": 1.5,
          "dur": 0.31,
          "vel": 48,
          "clef": "treble",
          "pitch": "F5"
        },
        {
          "midi": 82,
          "beat": 2,
          "dur": 0.31,
          "vel": 53,
          "clef": "treble",
          "acc": "#",
          "pitch": "A#5"
        },
        {
          "midi": 77,
          "beat": 2.5,
          "dur": 0.31,
          "vel": 44,
          "clef": "treble",
          "pitch": "F5"
        },
        {
          "midi": 54,
          "beat": 3,
          "dur": 0.85,
          "vel": 46,
          "clef": "bass",
          "pitch": "F#3"
        },
        {
          "midi": 73,
          "beat": 3,
          "dur": 0.85,
          "vel": 61,
          "clef": "treble",
          "pitch": "C#5"
        },
        {
          "midi": 75,
          "beat": 3,
          "dur": 0.31,
          "vel": 38,
          "clef": "treble",
          "pitch": "D#5"
        },
        {
          "midi": 58,
          "beat": 3.1,
          "dur": 0.8,
          "vel": 46,
          "clef": "bass",
          "acc": "#",
          "pitch": "A#3"
        },
        {
          "midi": 61,
          "beat": 3.2,
          "dur": 0.74,
          "vel": 46,
          "clef": "treble",
          "pitch": "C#4"
        },
        {
          "midi": 63,
          "beat": 3.3,
          "dur": 0.68,
          "vel": 46,
          "clef": "treble",
          "pitch": "D#4"
        },
        {
          "midi": 77,
          "beat": 3.5,
          "dur": 0.3,
          "vel": 54,
          "clef": "treble",
          "pitch": "F5"
        },
        {
          "midi": 75,
          "beat": 4,
          "dur": 0.5,
          "vel": 52,
          "clef": "treble",
          "pitch": "D#5"
        }
      ]
    },
    {
      "_": "Treble: 12 notes, Bass: 6 notes",
      "number": 56,
      "notes": [
        {
          "midi": 53,
          "beat": 0,
          "dur": 1.9,
          "vel": 48,
          "clef": "bass",
          "pitch": "F3"
        },
        {
          "midi": 56,
          "beat": 0.25,
          "dur": 0.16,
          "vel": 46,
          "clef": "bass",
          "pitch": "G#3"
        },
        {
          "midi": 58,
          "beat": 0.5,
          "dur": 0.16,
          "vel": 50,
          "clef": "bass",
          "acc": "#",
          "pitch": "A#3"
        },
        {
          "midi": 70,
          "beat": 0.5,
          "dur": 0.32,
          "vel": 55,
          "clef": "treble",
          "acc": "#",
          "pitch": "A#4"
        },
        {
          "midi": 73,
          "beat": 0.5,
          "dur": 0.32,
          "vel": 55,
          "clef": "treble",
          "pitch": "C#5"
        },
        {
          "midi": 61,
          "beat": 0.75,
          "dur": 0.16,
          "vel": 51,
          "clef": "treble",
          "pitch": "C#4"
        },
        {
          "midi": 65,
          "beat": 1,
          "dur": 0.16,
          "vel": 61,
          "clef": "treble",
          "pitch": "F4"
        },
        {
          "midi": 72,
          "beat": 1,
          "dur": 0.32,
          "vel": 58,
          "clef": "treble",
          "pitch": "C5"
        },
        {
          "midi": 75,
          "beat": 1,
          "dur": 0.32,
          "vel": 58,
          "clef": "treble",
          "pitch": "D#5"
        },
        {
          "midi": 68,
          "beat": 1.25,
          "dur": 0.15,
          "vel": 50,
          "clef": "treble",
          "pitch": "G#4"
        },
        {
          "midi": 70,
          "beat": 1.5,
          "dur": 0.96,
          "vel": 54,
          "clef": "treble",
          "acc": "#",
          "pitch": "A#4"
        },
        {
          "midi": 73,
          "beat": 1.5,
          "dur": 0.96,
          "vel": 54,
          "clef": "treble",
          "pitch": "C#5"
        },
        {
          "midi": 51,
          "beat": 3,
          "dur": 0.52,
          "vel": 39,
          "clef": "bass",
          "pitch": "D#3"
        },
        {
          "midi": 54,
          "beat": 3,
          "dur": 1.04,
          "vel": 48,
          "clef": "bass",
          "pitch": "F#3"
        },
        {
          "midi": 60,
          "beat": 3,
          "dur": 1.04,
          "vel": 48,
          "clef": "treble",
          "pitch": "C4"
        },
        {
          "midi": 68,
          "beat": 3,
          "dur": 0.99,
          "vel": 51,
          "clef": "treble",
          "pitch": "G#4"
        },
        {
          "midi": 72,
          "beat": 3,
          "dur": 0.99,
          "vel": 51,
          "clef": "treble",
          "pitch": "C5"
        },
        {
          "midi": 44,
          "beat": 3.75,
          "dur": 0.52,
          "vel": 41,
          "clef": "bass",
          "pitch": "G#2"
        }
      ]
    },
    {
      "_": "Treble: 6 notes, Bass: 5 notes",
      "number": 57,
      "notes": [
        {
          "midi": 37,
          "beat": 0,
          "dur": 0.35,
          "vel": 38,
          "clef": "bass",
          "pitch": "C#2"
        },
        {
          "midi": 44,
          "beat": 0,
          "dur": 0.35,
          "vel": 38,
          "clef": "bass",
          "pitch": "G#2"
        },
        {
          "midi": 53,
          "beat": 0.5,
          "dur": 0.35,
          "vel": 43,
          "clef": "bass",
          "pitch": "F3"
        },
        {
          "midi": 56,
          "beat": 0.5,
          "dur": 0.35,
          "vel": 43,
          "clef": "bass",
          "pitch": "G#3"
        },
        {
          "midi": 65,
          "beat": 1,
          "dur": 2.62,
          "vel": 61,
          "clef": "treble",
          "pitch": "F4"
        },
        {
          "midi": 68,
          "beat": 1,
          "dur": 2.62,
          "vel": 61,
          "clef": "treble",
          "pitch": "G#4"
        },
        {
          "midi": 59,
          "beat": 1.5,
          "dur": 2.15,
          "vel": 53,
          "clef": "bass",
          "pitch": "B3"
        },
        {
          "midi": 77,
          "beat": 1.5,
          "dur": 1.04,
          "vel": 38,
          "clef": "treble",
          "pitch": "F5"
        },
        {
          "midi": 80,
          "beat": 1.5,
          "dur": 1.06,
          "vel": 38,
          "clef": "treble",
          "pitch": "G#5"
        },
        {
          "midi": 73,
          "beat": 3,
          "dur": 1.39,
          "vel": 33,
          "clef": "treble",
          "pitch": "C#5"
        },
        {
          "midi": 77,
          "beat": 3,
          "dur": 1.39,
          "vel": 33,
          "clef": "treble",
          "pitch": "F5"
        }
      ]
    },
    {
      "_": "Treble: 6 notes, Bass: 5 notes",
      "number": 58,
      "notes": [
        {
          "midi": 42,
          "beat": 0,
          "dur": 2.23,
          "vel": 33,
          "clef": "bass",
          "pitch": "F#2"
        },
        {
          "midi": 49,
          "beat": 0,
          "dur": 2.23,
          "vel": 33,
          "clef": "bass",
          "pitch": "C#3"
        },
        {
          "midi": 49,
          "beat": 0.5,
          "dur": 3.13,
          "vel": 38,
          "clef": "bass",
          "pitch": "C#3"
        },
        {
          "midi": 54,
          "beat": 0.5,
          "dur": 3.13,
          "vel": 38,
          "clef": "bass",
          "pitch": "F#3"
        },
        {
          "midi": 58,
          "beat": 0.5,
          "dur": 3.13,
          "vel": 38,
          "clef": "bass",
          "acc": "#",
          "pitch": "A#3"
        },
        {
          "midi": 61,
          "beat": 0.5,
          "dur": 3.13,
          "vel": 38,
          "clef": "treble",
          "pitch": "C#4"
        },
        {
          "midi": 66,
          "beat": 0.5,
          "dur": 2.97,
          "vel": 59,
          "clef": "treble",
          "pitch": "F#4"
        },
        {
          "midi": 70,
          "beat": 0.5,
          "dur": 2.97,
          "vel": 59,
          "clef": "treble",
          "acc": "#",
          "pitch": "A#4"
        },
        {
          "midi": 75,
          "beat": 0.5,
          "dur": 0.35,
          "vel": 47,
          "clef": "treble",
          "pitch": "D#5"
        },
        {
          "midi": 77,
          "beat": 1,
          "dur": 0.35,
          "vel": 52,
          "clef": "treble",
          "pitch": "F5"
        },
        {
          "midi": 75,
          "beat": 1.5,
          "dur": 2.51,
          "vel": 44,
          "clef": "treble",
          "pitch": "D#5"
        }
      ]
    },
    {
      "_": "Treble: 14 notes, Bass: 4 notes",
      "number": 59,
      "notes": [
        {
          "midi": 44,
          "beat": 0,
          "dur": 2.26,
          "vel": 48,
          "clef": "bass",
          "pitch": "G#2"
        },
        {
          "midi": 53,
          "beat": 0.5,
          "dur": 0.68,
          "vel": 36,
          "clef": "bass",
          "pitch": "F3"
        },
        {
          "midi": 56,
          "beat": 0.5,
          "dur": 0.68,
          "vel": 36,
          "clef": "bass",
          "pitch": "G#3"
        },
        {
          "midi": 61,
          "beat": 0.5,
          "dur": 0.35,
          "vel": 43,
          "clef": "treble",
          "pitch": "C#4"
        },
        {
          "midi": 68,
          "beat": 0.5,
          "dur": 0.69,
          "vel": 58,
          "clef": "treble",
          "pitch": "G#4"
        },
        {
          "midi": 73,
          "beat": 0.5,
          "dur": 0.35,
          "vel": 43,
          "clef": "treble",
          "pitch": "C#5"
        },
        {
          "midi": 63,
          "beat": 1,
          "dur": 0.35,
          "vel": 43,
          "clef": "treble",
          "pitch": "D#4"
        },
        {
          "midi": 75,
          "beat": 1,
          "dur": 0.35,
          "vel": 43,
          "clef": "treble",
          "pitch": "D#5"
        },
        {
          "midi": 59,
          "beat": 1.5,
          "dur": 2.23,
          "vel": 56,
          "clef": "bass",
          "pitch": "B3"
        },
        {
          "midi": 61,
          "beat": 1.5,
          "dur": 1.02,
          "vel": 54,
          "clef": "treble",
          "pitch": "C#4"
        },
        {
          "midi": 65,
          "beat": 1.5,
          "dur": 1.02,
          "vel": 54,
          "clef": "treble",
          "pitch": "F4"
        },
        {
          "midi": 68,
          "beat": 1.5,
          "dur": 1.04,
          "vel": 46,
          "clef": "treble",
          "pitch": "G#4"
        },
        {
          "midi": 77,
          "beat": 1.5,
          "dur": 1.02,
          "vel": 46,
          "clef": "treble",
          "pitch": "F5"
        },
        {
          "midi": 80,
          "beat": 1.5,
          "dur": 1.04,
          "vel": 46,
          "clef": "treble",
          "pitch": "G#5"
        },
        {
          "midi": 61,
          "beat": 3,
          "dur": 1,
          "vel": 38,
          "clef": "treble",
          "pitch": "C#4"
        },
        {
          "midi": 65,
          "beat": 3,
          "dur": 1.02,
          "vel": 37,
          "clef": "treble",
          "pitch": "F4"
        },
        {
          "midi": 73,
          "beat": 3,
          "dur": 1.02,
          "vel": 37,
          "clef": "treble",
          "pitch": "C#5"
        },
        {
          "midi": 77,
          "beat": 3,
          "dur": 1.36,
          "vel": 37,
          "clef": "treble",
          "pitch": "F5"
        }
      ]
    },
    {
      "_": "Treble: 8 notes, Bass: 3 notes",
      "number": 60,
      "notes": [
        {
          "midi": 46,
          "beat": 0,
          "dur": 2.2,
          "vel": 51,
          "clef": "bass",
          "acc": "#",
          "pitch": "A#2"
        },
        {
          "midi": 53,
          "beat": 0.5,
          "dur": 3.14,
          "vel": 50,
          "clef": "bass",
          "pitch": "F3"
        },
        {
          "midi": 58,
          "beat": 0.5,
          "dur": 3.14,
          "vel": 50,
          "clef": "bass",
          "acc": "#",
          "pitch": "A#3"
        },
        {
          "midi": 63,
          "beat": 0.5,
          "dur": 1.73,
          "vel": 40,
          "clef": "treble",
          "pitch": "D#4"
        },
        {
          "midi": 65,
          "beat": 0.5,
          "dur": 2.98,
          "vel": 57,
          "clef": "treble",
          "pitch": "F4"
        },
        {
          "midi": 70,
          "beat": 0.5,
          "dur": 2.98,
          "vel": 57,
          "clef": "treble",
          "acc": "#",
          "pitch": "A#4"
        },
        {
          "midi": 75,
          "beat": 0.5,
          "dur": 0.34,
          "vel": 40,
          "clef": "treble",
          "pitch": "D#5"
        },
        {
          "midi": 77,
          "beat": 1,
          "dur": 0.34,
          "vel": 39,
          "clef": "treble",
          "pitch": "F5"
        },
        {
          "midi": 75,
          "beat": 1.5,
          "dur": 1.02,
          "vel": 41,
          "clef": "treble",
          "pitch": "D#5"
        },
        {
          "midi": 61,
          "beat": 3,
          "dur": 1.02,
          "vel": 40,
          "clef": "treble",
          "pitch": "C#4"
        },
        {
          "midi": 73,
          "beat": 3,
          "dur": 0.97,
          "vel": 39,
          "clef": "treble",
          "pitch": "C#5"
        }
      ]
    },
    {
      "_": "Treble: 7 notes, Bass: 3 notes",
      "number": 61,
      "notes": [
        {
          "midi": 41,
          "beat": 0,
          "dur": 3.63,
          "vel": 53,
          "clef": "bass",
          "pitch": "F2"
        },
        {
          "midi": 56,
          "beat": 0.5,
          "dur": 0.72,
          "vel": 54,
          "clef": "bass",
          "pitch": "G#3"
        },
        {
          "midi": 61,
          "beat": 0.5,
          "dur": 0.36,
          "vel": 36,
          "clef": "treble",
          "pitch": "C#4"
        },
        {
          "midi": 63,
          "beat": 1,
          "dur": 0.36,
          "vel": 39,
          "clef": "treble",
          "pitch": "D#4"
        },
        {
          "midi": 61,
          "beat": 1.5,
          "dur": 1.04,
          "vel": 50,
          "clef": "treble",
          "pitch": "C#4"
        },
        {
          "midi": 65,
          "beat": 1.5,
          "dur": 1.04,
          "vel": 50,
          "clef": "treble",
          "pitch": "F4"
        },
        {
          "midi": 70,
          "beat": 1.5,
          "dur": 1.08,
          "vel": 50,
          "clef": "treble",
          "acc": "#",
          "pitch": "A#4"
        },
        {
          "midi": 56,
          "beat": 3,
          "dur": 0.94,
          "vel": 46,
          "clef": "bass",
          "pitch": "G#3"
        },
        {
          "midi": 61,
          "beat": 3,
          "dur": 0.94,
          "vel": 46,
          "clef": "treble",
          "pitch": "C#4"
        },
        {
          "midi": 65,
          "beat": 3,
          "dur": 0.94,
          "vel": 46,
          "clef": "treble",
          "pitch": "F4"
        }
      ]
    },
    {
      "_": "Treble: 10 notes, Bass: 3 notes",
      "number": 62,
      "notes": [
        {
          "midi": 39,
          "beat": 0,
          "dur": 2.39,
          "vel": 58,
          "clef": "bass",
          "pitch": "D#2"
        },
        {
          "midi": 58,
          "beat": 0.5,
          "dur": 0.74,
          "vel": 65,
          "clef": "bass",
          "acc": "#",
          "pitch": "A#3"
        },
        {
          "midi": 61,
          "beat": 0.5,
          "dur": 0.74,
          "vel": 65,
          "clef": "treble",
          "pitch": "C#4"
        },
        {
          "midi": 66,
          "beat": 0.5,
          "dur": 0.37,
          "vel": 41,
          "clef": "treble",
          "pitch": "F#4"
        },
        {
          "midi": 68,
          "beat": 1,
          "dur": 0.37,
          "vel": 42,
          "clef": "treble",
          "pitch": "G#4"
        },
        {
          "midi": 51,
          "beat": 1.5,
          "dur": 1.09,
          "vel": 56,
          "clef": "bass",
          "pitch": "D#3"
        },
        {
          "midi": 66,
          "beat": 1.5,
          "dur": 1.01,
          "vel": 54,
          "clef": "treble",
          "pitch": "F#4"
        },
        {
          "midi": 70,
          "beat": 1.5,
          "dur": 1.03,
          "vel": 54,
          "clef": "treble",
          "acc": "#",
          "pitch": "A#4"
        },
        {
          "midi": 73,
          "beat": 1.5,
          "dur": 1.03,
          "vel": 58,
          "clef": "treble",
          "pitch": "C#5"
        },
        {
          "midi": 61,
          "beat": 3,
          "dur": 1.01,
          "vel": 40,
          "clef": "treble",
          "pitch": "C#4"
        },
        {
          "midi": 63,
          "beat": 3,
          "dur": 1.01,
          "vel": 52,
          "clef": "treble",
          "pitch": "D#4"
        },
        {
          "midi": 66,
          "beat": 3,
          "dur": 1.01,
          "vel": 40,
          "clef": "treble",
          "pitch": "F#4"
        },
        {
          "midi": 70,
          "beat": 3,
          "dur": 1.01,
          "vel": 53,
          "clef": "treble",
          "acc": "#",
          "pitch": "A#4"
        }
      ]
    },
    {
      "_": "Treble: 11 notes, Bass: 3 notes",
      "number": 63,
      "notes": [
        {
          "midi": 44,
          "beat": 0,
          "dur": 2.53,
          "vel": 48,
          "clef": "bass",
          "pitch": "G#2"
        },
        {
          "midi": 60,
          "beat": 0.5,
          "dur": 0.74,
          "vel": 43,
          "clef": "treble",
          "pitch": "C4"
        },
        {
          "midi": 66,
          "beat": 0.5,
          "dur": 0.74,
          "vel": 43,
          "clef": "treble",
          "pitch": "F#4"
        },
        {
          "midi": 70,
          "beat": 0.5,
          "dur": 0.37,
          "vel": 46,
          "clef": "treble",
          "acc": "#",
          "pitch": "A#4"
        },
        {
          "midi": 51,
          "beat": 0.75,
          "dur": 0.55,
          "vel": 45,
          "clef": "bass",
          "pitch": "D#3"
        },
        {
          "midi": 72,
          "beat": 1,
          "dur": 0.37,
          "vel": 49,
          "clef": "treble",
          "pitch": "C5"
        },
        {
          "midi": 68,
          "beat": 1.5,
          "dur": 1.16,
          "vel": 55,
          "clef": "treble",
          "pitch": "G#4"
        },
        {
          "midi": 72,
          "beat": 1.5,
          "dur": 1.16,
          "vel": 55,
          "clef": "treble",
          "pitch": "C5"
        },
        {
          "midi": 77,
          "beat": 1.5,
          "dur": 1.16,
          "vel": 68,
          "clef": "treble",
          "pitch": "F5"
        },
        {
          "midi": 80,
          "beat": 1.5,
          "dur": 1.14,
          "vel": 80,
          "clef": "treble",
          "pitch": "G#5"
        },
        {
          "midi": 56,
          "beat": 3,
          "dur": 1.14,
          "vel": 45,
          "clef": "bass",
          "pitch": "G#3"
        },
        {
          "midi": 60,
          "beat": 3,
          "dur": 1.08,
          "vel": 52,
          "clef": "treble",
          "pitch": "C4"
        },
        {
          "midi": 66,
          "beat": 3,
          "dur": 1.08,
          "vel": 52,
          "clef": "treble",
          "pitch": "F#4"
        },
        {
          "midi": 68,
          "beat": 3,
          "dur": 1.08,
          "vel": 54,
          "clef": "treble",
          "pitch": "G#4"
        }
      ]
    },
    {
      "_": "Treble: 4 notes, Bass: 14 notes",
      "number": 64,
      "notes": [
        {
          "midi": 37,
          "beat": 0,
          "dur": 0.79,
          "vel": 43,
          "clef": "bass",
          "pitch": "C#2"
        },
        {
          "midi": 44,
          "beat": 0.25,
          "dur": 0.14,
          "vel": 46,
          "clef": "bass",
          "pitch": "G#2"
        },
        {
          "midi": 49,
          "beat": 0.5,
          "dur": 0.14,
          "vel": 48,
          "clef": "bass",
          "pitch": "C#3"
        },
        {
          "midi": 53,
          "beat": 0.75,
          "dur": 0.14,
          "vel": 51,
          "clef": "bass",
          "pitch": "F3"
        },
        {
          "midi": 56,
          "beat": 1,
          "dur": 0.13,
          "vel": 54,
          "clef": "bass",
          "pitch": "G#3"
        },
        {
          "midi": 61,
          "beat": 1.25,
          "dur": 0.14,
          "vel": 51,
          "clef": "treble",
          "pitch": "C#4"
        },
        {
          "midi": 41,
          "beat": 1.5,
          "dur": 0.77,
          "vel": 43,
          "clef": "bass",
          "pitch": "F2"
        },
        {
          "midi": 48,
          "beat": 1.75,
          "dur": 0.14,
          "vel": 41,
          "clef": "bass",
          "pitch": "C3"
        },
        {
          "midi": 53,
          "beat": 2,
          "dur": 0.14,
          "vel": 48,
          "clef": "bass",
          "pitch": "F3"
        },
        {
          "midi": 56,
          "beat": 2.25,
          "dur": 0.14,
          "vel": 46,
          "clef": "bass",
          "pitch": "G#3"
        },
        {
          "midi": 60,
          "beat": 2.5,
          "dur": 0.14,
          "vel": 51,
          "clef": "treble",
          "pitch": "C4"
        },
        {
          "midi": 65,
          "beat": 2.75,
          "dur": 0.13,
          "vel": 49,
          "clef": "treble",
          "pitch": "F4"
        },
        {
          "midi": 37,
          "beat": 3,
          "dur": 0.78,
          "vel": 42,
          "clef": "bass",
          "pitch": "C#2"
        },
        {
          "midi": 44,
          "beat": 3.25,
          "dur": 0.14,
          "vel": 42,
          "clef": "bass",
          "pitch": "G#2"
        },
        {
          "midi": 49,
          "beat": 3.5,
          "dur": 0.14,
          "vel": 45,
          "clef": "bass",
          "pitch": "C#3"
        },
        {
          "midi": 53,
          "beat": 3.75,
          "dur": 0.14,
          "vel": 43,
          "clef": "bass",
          "pitch": "F3"
        },
        {
          "midi": 56,
          "beat": 4,
          "dur": 0.14,
          "vel": 45,
          "clef": "bass",
          "pitch": "G#3"
        },
        {
          "midi": 61,
          "beat": 4.25,
          "dur": 0.13,
          "vel": 49,
          "clef": "treble",
          "pitch": "C#4"
        }
      ]
    },
    {
      "_": "Treble: 9 notes, Bass: 8 notes",
      "number": 65,
      "notes": [
        {
          "midi": 41,
          "beat": 0,
          "dur": 0.77,
          "vel": 42,
          "clef": "bass",
          "pitch": "F2"
        },
        {
          "midi": 48,
          "beat": 0.25,
          "dur": 0.14,
          "vel": 45,
          "clef": "bass",
          "pitch": "C3"
        },
        {
          "midi": 53,
          "beat": 0.5,
          "dur": 0.14,
          "vel": 51,
          "clef": "bass",
          "pitch": "F3"
        },
        {
          "midi": 56,
          "beat": 0.75,
          "dur": 0.14,
          "vel": 44,
          "clef": "bass",
          "pitch": "G#3"
        },
        {
          "midi": 60,
          "beat": 1,
          "dur": 0.14,
          "vel": 50,
          "clef": "treble",
          "pitch": "C4"
        },
        {
          "midi": 65,
          "beat": 1.25,
          "dur": 0.13,
          "vel": 48,
          "clef": "treble",
          "pitch": "F4"
        },
        {
          "midi": 44,
          "beat": 1.5,
          "dur": 1.59,
          "vel": 44,
          "clef": "bass",
          "pitch": "G#2"
        },
        {
          "midi": 68,
          "beat": 1.5,
          "dur": 0.83,
          "vel": 50,
          "clef": "treble",
          "pitch": "G#4"
        },
        {
          "midi": 71,
          "beat": 1.5,
          "dur": 0.83,
          "vel": 67,
          "clef": "treble",
          "pitch": "B4"
        },
        {
          "midi": 52,
          "beat": 1.75,
          "dur": 0.14,
          "vel": 54,
          "clef": "bass",
          "pitch": "E3"
        },
        {
          "midi": 56,
          "beat": 2,
          "dur": 0.14,
          "vel": 60,
          "clef": "bass",
          "pitch": "G#3"
        },
        {
          "midi": 59,
          "beat": 2.25,
          "dur": 0.14,
          "vel": 46,
          "clef": "bass",
          "pitch": "B3"
        },
        {
          "midi": 64,
          "beat": 2.5,
          "dur": 0.14,
          "vel": 50,
          "clef": "treble",
          "pitch": "E4"
        },
        {
          "midi": 66,
          "beat": 2.75,
          "dur": 0.14,
          "vel": 45,
          "clef": "treble",
          "pitch": "F#4"
        },
        {
          "midi": 64,
          "beat": 3,
          "dur": 0.78,
          "vel": 50,
          "clef": "treble",
          "pitch": "E4"
        },
        {
          "midi": 68,
          "beat": 3,
          "dur": 0.78,
          "vel": 48,
          "clef": "treble",
          "pitch": "G#4"
        },
        {
          "midi": 73,
          "beat": 3,
          "dur": 0.78,
          "vel": 72,
          "clef": "treble",
          "pitch": "C#5"
        }
      ]
    },
    {
      "_": "Treble: 13 notes, Bass: 5 notes",
      "number": 66,
      "notes": [
        {
          "midi": 49,
          "beat": 0,
          "dur": 0.77,
          "vel": 43,
          "clef": "bass",
          "pitch": "C#3"
        },
        {
          "midi": 56,
          "beat": 0.25,
          "dur": 0.14,
          "vel": 45,
          "clef": "bass",
          "pitch": "G#3"
        },
        {
          "midi": 61,
          "beat": 0.5,
          "dur": 0.14,
          "vel": 47,
          "clef": "treble",
          "pitch": "C#4"
        },
        {
          "midi": 65,
          "beat": 0.75,
          "dur": 0.14,
          "vel": 45,
          "clef": "treble",
          "pitch": "F4"
        },
        {
          "midi": 68,
          "beat": 1,
          "dur": 0.14,
          "vel": 55,
          "clef": "treble",
          "pitch": "G#4"
        },
        {
          "midi": 73,
          "beat": 1.25,
          "dur": 0.13,
          "vel": 54,
          "clef": "treble",
          "pitch": "C#5"
        },
        {
          "midi": 53,
          "beat": 1.5,
          "dur": 0.76,
          "vel": 45,
          "clef": "bass",
          "pitch": "F3"
        },
        {
          "midi": 60,
          "beat": 1.75,
          "dur": 0.14,
          "vel": 50,
          "clef": "treble",
          "pitch": "C4"
        },
        {
          "midi": 65,
          "beat": 2,
          "dur": 0.14,
          "vel": 57,
          "clef": "treble",
          "pitch": "F4"
        },
        {
          "midi": 68,
          "beat": 2.25,
          "dur": 0.14,
          "vel": 55,
          "clef": "treble",
          "pitch": "G#4"
        },
        {
          "midi": 72,
          "beat": 2.5,
          "dur": 0.14,
          "vel": 60,
          "clef": "treble",
          "pitch": "C5"
        },
        {
          "midi": 77,
          "beat": 2.75,
          "dur": 0.12,
          "vel": 52,
          "clef": "treble",
          "pitch": "F5"
        },
        {
          "midi": 49,
          "beat": 3,
          "dur": 0.76,
          "vel": 46,
          "clef": "bass",
          "pitch": "C#3"
        },
        {
          "midi": 56,
          "beat": 3.25,
          "dur": 0.14,
          "vel": 49,
          "clef": "bass",
          "pitch": "G#3"
        },
        {
          "midi": 61,
          "beat": 3.5,
          "dur": 0.14,
          "vel": 54,
          "clef": "treble",
          "pitch": "C#4"
        },
        {
          "midi": 65,
          "beat": 3.75,
          "dur": 0.14,
          "vel": 49,
          "clef": "treble",
          "pitch": "F4"
        },
        {
          "midi": 68,
          "beat": 4,
          "dur": 0.14,
          "vel": 51,
          "clef": "treble",
          "pitch": "G#4"
        },
        {
          "midi": 73,
          "beat": 4.25,
          "dur": 0.12,
          "vel": 56,
          "clef": "treble",
          "pitch": "C#5"
        }
      ]
    },
    {
      "_": "Treble: 12 notes, Bass: 3 notes",
      "number": 67,
      "notes": [
        {
          "midi": 53,
          "beat": 0,
          "dur": 0.76,
          "vel": 42,
          "clef": "bass",
          "pitch": "F3"
        },
        {
          "midi": 60,
          "beat": 0.25,
          "dur": 0.14,
          "vel": 48,
          "clef": "treble",
          "pitch": "C4"
        },
        {
          "midi": 65,
          "beat": 0.5,
          "dur": 0.14,
          "vel": 50,
          "clef": "treble",
          "pitch": "F4"
        },
        {
          "midi": 68,
          "beat": 0.75,
          "dur": 0.14,
          "vel": 46,
          "clef": "treble",
          "pitch": "G#4"
        },
        {
          "midi": 72,
          "beat": 1,
          "dur": 0.14,
          "vel": 52,
          "clef": "treble",
          "pitch": "C5"
        },
        {
          "midi": 77,
          "beat": 1.25,
          "dur": 0.12,
          "vel": 50,
          "clef": "treble",
          "pitch": "F5"
        },
        {
          "midi": 56,
          "beat": 1.5,
          "dur": 1.53,
          "vel": 49,
          "clef": "bass",
          "pitch": "G#3"
        },
        {
          "midi": 80,
          "beat": 1.5,
          "dur": 1.53,
          "vel": 62,
          "clef": "treble",
          "pitch": "G#5"
        },
        {
          "midi": 83,
          "beat": 1.5,
          "dur": 0.81,
          "vel": 73,
          "clef": "treble",
          "pitch": "B5"
        },
        {
          "midi": 59,
          "beat": 1.75,
          "dur": 0.14,
          "vel": 53,
          "clef": "bass",
          "pitch": "B3"
        },
        {
          "midi": 64,
          "beat": 2,
          "dur": 0.14,
          "vel": 62,
          "clef": "treble",
          "pitch": "E4"
        },
        {
          "midi": 68,
          "beat": 2.25,
          "dur": 0.14,
          "vel": 54,
          "clef": "treble",
          "pitch": "G#4"
        },
        {
          "midi": 71,
          "beat": 2.5,
          "dur": 0.14,
          "vel": 59,
          "clef": "treble",
          "pitch": "B4"
        },
        {
          "midi": 76,
          "beat": 2.75,
          "dur": 0.89,
          "vel": 56,
          "clef": "treble",
          "pitch": "E5"
        },
        {
          "midi": 85,
          "beat": 3,
          "dur": 0.76,
          "vel": 82,
          "clef": "treble",
          "pitch": "C#6"
        }
      ]
    },
    {
      "_": "Treble: 8 notes, Bass: 3 notes",
      "number": 68,
      "notes": [
        {
          "midi": 56,
          "beat": 0,
          "dur": 1.58,
          "vel": 45,
          "clef": "bass",
          "pitch": "G#3"
        },
        {
          "midi": 80,
          "beat": 0,
          "dur": 1.75,
          "vel": 56,
          "clef": "treble",
          "pitch": "G#5"
        },
        {
          "midi": 83,
          "beat": 0,
          "dur": 0.83,
          "vel": 59,
          "clef": "treble",
          "pitch": "B5"
        },
        {
          "midi": 59,
          "beat": 0.25,
          "dur": 0.14,
          "vel": 40,
          "clef": "bass",
          "pitch": "B3"
        },
        {
          "midi": 64,
          "beat": 0.5,
          "dur": 0.14,
          "vel": 49,
          "clef": "treble",
          "pitch": "E4"
        },
        {
          "midi": 68,
          "beat": 0.75,
          "dur": 0.14,
          "vel": 50,
          "clef": "treble",
          "pitch": "G#4"
        },
        {
          "midi": 71,
          "beat": 1,
          "dur": 0.14,
          "vel": 57,
          "clef": "treble",
          "pitch": "B4"
        },
        {
          "midi": 76,
          "beat": 1.25,
          "dur": 0.91,
          "vel": 52,
          "clef": "treble",
          "pitch": "E5"
        },
        {
          "midi": 85,
          "beat": 1.5,
          "dur": 0.84,
          "vel": 59,
          "clef": "treble",
          "pitch": "C#6"
        },
        {
          "midi": 44,
          "beat": 3,
          "dur": 0.87,
          "vel": 43,
          "clef": "bass",
          "pitch": "G#2"
        },
        {
          "midi": 88,
          "beat": 3,
          "dur": 0.83,
          "vel": 67,
          "clef": "treble",
          "pitch": "E6"
        }
      ]
    },
    {
      "_": "Treble: 9 notes, Bass: 5 notes",
      "number": 69,
      "notes": [
        {
          "midi": 37,
          "beat": 0,
          "dur": 2.06,
          "vel": 45,
          "clef": "bass",
          "pitch": "C#2"
        },
        {
          "midi": 89,
          "beat": 0,
          "dur": 3.51,
          "vel": 72,
          "clef": "treble",
          "pitch": "F6"
        },
        {
          "midi": 92,
          "beat": 0,
          "dur": 3.51,
          "vel": 72,
          "clef": "treble",
          "pitch": "G#6"
        },
        {
          "midi": 44,
          "beat": 0.25,
          "dur": 0.15,
          "vel": 52,
          "clef": "bass",
          "pitch": "G#2"
        },
        {
          "midi": 49,
          "beat": 0.5,
          "dur": 0.15,
          "vel": 56,
          "clef": "bass",
          "pitch": "C#3"
        },
        {
          "midi": 53,
          "beat": 0.75,
          "dur": 0.15,
          "vel": 48,
          "clef": "bass",
          "pitch": "F3"
        },
        {
          "midi": 56,
          "beat": 1,
          "dur": 0.15,
          "vel": 46,
          "clef": "bass",
          "pitch": "G#3"
        },
        {
          "midi": 61,
          "beat": 1.25,
          "dur": 0.15,
          "vel": 53,
          "clef": "treble",
          "pitch": "C#4"
        },
        {
          "midi": 65,
          "beat": 1.5,
          "dur": 0.31,
          "vel": 54,
          "clef": "treble",
          "pitch": "F4"
        },
        {
          "midi": 68,
          "beat": 2,
          "dur": 0.33,
          "vel": 52,
          "clef": "treble",
          "pitch": "G#4"
        },
        {
          "midi": 73,
          "beat": 2.5,
          "dur": 0.34,
          "vel": 64,
          "clef": "treble",
          "pitch": "C#5"
        },
        {
          "midi": 77,
          "beat": 3,
          "dur": 0.35,
          "vel": 52,
          "clef": "treble",
          "pitch": "F5"
        },
        {
          "midi": 80,
          "beat": 3.5,
          "dur": 0.38,
          "vel": 54,
          "clef": "treble",
          "pitch": "G#5"
        },
        {
          "midi": 85,
          "beat": 4,
          "dur": 0.42,
          "vel": 64,
          "clef": "treble",
          "pitch": "C#6"
        }
      ]
    },
    {
      "_": "Treble: 8 notes, Bass: 0 notes",
      "number": 70,
      "notes": [
        {
          "midi": 61,
          "beat": 0,
          "dur": 3.11,
          "vel": 38,
          "clef": "treble",
          "pitch": "C#4"
        },
        {
          "midi": 80,
          "beat": 0,
          "dur": 3.11,
          "vel": 42,
          "clef": "treble",
          "pitch": "G#5"
        },
        {
          "midi": 68,
          "beat": 0.07,
          "dur": 3.04,
          "vel": 38,
          "clef": "treble",
          "pitch": "G#4"
        },
        {
          "midi": 85,
          "beat": 0.07,
          "dur": 3.04,
          "vel": 42,
          "clef": "treble",
          "pitch": "C#6"
        },
        {
          "midi": 73,
          "beat": 0.14,
          "dur": 2.96,
          "vel": 38,
          "clef": "treble",
          "pitch": "C#5"
        },
        {
          "midi": 89,
          "beat": 0.14,
          "dur": 2.96,
          "vel": 42,
          "clef": "treble",
          "pitch": "F6"
        },
        {
          "midi": 77,
          "beat": 0.21,
          "dur": 2.88,
          "vel": 38,
          "clef": "treble",
          "pitch": "F5"
        },
        {
          "midi": 92,
          "beat": 0.21,
          "dur": 2.88,
          "vel": 42,
          "clef": "treble",
          "pitch": "G#6"
        }
      ]
    }
  ],
  "_meta": {
    "source": "MIDI",
    "sourceFile": "clair-de-lune.mid",
    "totalNotes": 1498,
    "totalMeasures": 71,
    "tracks": 1
  }
}