{
  "title": "Fantaisie-Impromptu, Op. 66",
  "composer": "Frédéric Chopin",
  "key": "C# minor",
  "tempo": 168,
  "timeSig": "4/4",
  "beatsPerMeasure": 4,
  "measures": [
    {
      "_": "Treble: 0 notes, Bass: 2 notes",
      "number": 0,
      "notes": [
        {
          "midi": 44,
          "beat": 0,
          "dur": 4,
          "vel": 127,
          "clef": "bass",
          "pitch": "G#2"
        },
        {
          "midi": 56,
          "beat": 0,
          "dur": 4,
          "vel": 127,
          "clef": "bass",
          "pitch": "G#3"
        }
      ]
    },
    {
      "_": "Bass: 2 notes (G# octave pair, whole notes — tied from measure 0)",
      "number": 1,
      "notes": [
        {
          "midi": 44,
          "beat": 0,
          "dur": 4,
          "vel": 100,
          "clef": "bass",
          "pitch": "G#2"
        },
        {
          "midi": 56,
          "beat": 0,
          "dur": 4,
          "vel": 100,
          "clef": "bass",
          "pitch": "G#3"
        }
      ]
    },
    {
      "_": "Treble: 0 notes, Bass: 13 notes",
      "number": 2,
      "notes": [
        {
          "midi": 37,
          "beat": 0,
          "dur": 0.33,
          "vel": 127,
          "clef": "bass",
          "pitch": "C#2"
        },
        {
          "midi": 49,
          "beat": 0,
          "dur": 0.33,
          "vel": 127,
          "clef": "bass",
          "pitch": "C#3"
        },
        {
          "midi": 56,
          "beat": 0.33,
          "dur": 0.33,
          "vel": 127,
          "clef": "bass",
          "pitch": "G#3"
        },
        {
          "midi": 61,
          "beat": 0.67,
          "dur": 0.33,
          "vel": 127,
          "clef": "bass",
          "pitch": "C#4"
        },
        {
          "midi": 64,
          "beat": 1,
          "dur": 0.33,
          "vel": 127,
          "clef": "bass",
          "pitch": "E4"
        },
        {
          "midi": 61,
          "beat": 1.33,
          "dur": 0.33,
          "vel": 127,
          "clef": "bass",
          "pitch": "C#4"
        },
        {
          "midi": 56,
          "beat": 1.67,
          "dur": 0.33,
          "vel": 127,
          "clef": "bass",
          "pitch": "G#3"
        },
        {
          "midi": 49,
          "beat": 2,
          "dur": 0.33,
          "vel": 127,
          "clef": "bass",
          "pitch": "C#3"
        },
        {
          "midi": 56,
          "beat": 2.33,
          "dur": 0.33,
          "vel": 127,
          "clef": "bass",
          "pitch": "G#3"
        },
        {
          "midi": 61,
          "beat": 2.67,
          "dur": 0.33,
          "vel": 127,
          "clef": "bass",
          "pitch": "C#4"
        },
        {
          "midi": 64,
          "beat": 3,
          "dur": 0.33,
          "vel": 127,
          "clef": "bass",
          "pitch": "E4"
        },
        {
          "midi": 61,
          "beat": 3.33,
          "dur": 0.33,
          "vel": 127,
          "clef": "bass",
          "pitch": "C#4"
        },
        {
          "midi": 56,
          "beat": 3.67,
          "dur": 0.33,
          "vel": 127,
          "clef": "bass",
          "pitch": "G#3"
        }
      ]
    },
    {
      "_": "Treble: 0 notes, Bass: 12 notes",
      "number": 3,
      "notes": [
        {
          "midi": 49,
          "beat": 0,
          "dur": 0.33,
          "vel": 127,
          "clef": "bass",
          "pitch": "C#3"
        },
        {
          "midi": 56,
          "beat": 0.33,
          "dur": 0.33,
          "vel": 127,
          "clef": "bass",
          "pitch": "G#3"
        },
        {
          "midi": 61,
          "beat": 0.67,
          "dur": 0.33,
          "vel": 127,
          "clef": "bass",
          "pitch": "C#4"
        },
        {
          "midi": 64,
          "beat": 1,
          "dur": 0.33,
          "vel": 127,
          "clef": "bass",
          "pitch": "E4"
        },
        {
          "midi": 61,
          "beat": 1.33,
          "dur": 0.33,
          "vel": 127,
          "clef": "bass",
          "pitch": "C#4"
        },
        {
          "midi": 56,
          "beat": 1.67,
          "dur": 0.33,
          "vel": 127,
          "clef": "bass",
          "pitch": "G#3"
        },
        {
          "midi": 49,
          "beat": 2,
          "dur": 0.33,
          "vel": 127,
          "clef": "bass",
          "pitch": "C#3"
        },
        {
          "midi": 56,
          "beat": 2.33,
          "dur": 0.33,
          "vel": 127,
          "clef": "bass",
          "pitch": "G#3"
        },
        {
          "midi": 61,
          "beat": 2.67,
          "dur": 0.33,
          "vel": 127,
          "clef": "bass",
          "pitch": "C#4"
        },
        {
          "midi": 64,
          "beat": 3,
          "dur": 0.33,
          "vel": 127,
          "clef": "bass",
          "pitch": "E4"
        },
        {
          "midi": 61,
          "beat": 3.33,
          "dur": 0.33,
          "vel": 127,
          "clef": "bass",
          "pitch": "C#4"
        },
        {
          "midi": 56,
          "beat": 3.67,
          "dur": 0.33,
          "vel": 127,
          "clef": "bass",
          "pitch": "G#3"
        }
      ]
    },
    {
      "_": "Treble: 15 notes, Bass: 12 notes",
      "number": 4,
      "notes": [
        {
          "midi": 49,
          "beat": 0,
          "dur": 0.33,
          "vel": 127,
          "clef": "bass",
          "pitch": "C#3"
        },
        {
          "midi": 68,
          "beat": 0.25,
          "dur": 0.25,
          "vel": 127,
          "clef": "treble",
          "pitch": "G#4"
        },
        {
          "midi": 56,
          "beat": 0.33,
          "dur": 0.33,
          "vel": 127,
          "clef": "bass",
          "pitch": "G#3"
        },
        {
          "midi": 69,
          "beat": 0.5,
          "dur": 0.25,
          "vel": 127,
          "clef": "treble",
          "pitch": "A4"
        },
        {
          "midi": 61,
          "beat": 0.67,
          "dur": 0.33,
          "vel": 127,
          "clef": "bass",
          "pitch": "C#4"
        },
        {
          "midi": 68,
          "beat": 0.75,
          "dur": 0.25,
          "vel": 127,
          "clef": "treble",
          "pitch": "G#4"
        },
        {
          "midi": 64,
          "beat": 1,
          "dur": 0.33,
          "vel": 127,
          "clef": "bass",
          "pitch": "E4"
        },
        {
          "midi": 67,
          "beat": 1,
          "dur": 0.25,
          "vel": 127,
          "clef": "treble",
          "pitch": "G4"
        },
        {
          "midi": 68,
          "beat": 1.25,
          "dur": 0.25,
          "vel": 127,
          "clef": "treble",
          "pitch": "G#4"
        },
        {
          "midi": 61,
          "beat": 1.33,
          "dur": 0.33,
          "vel": 127,
          "clef": "bass",
          "pitch": "C#4"
        },
        {
          "midi": 73,
          "beat": 1.5,
          "dur": 0.25,
          "vel": 127,
          "clef": "treble",
          "pitch": "C#5"
        },
        {
          "midi": 56,
          "beat": 1.67,
          "dur": 0.33,
          "vel": 127,
          "clef": "bass",
          "pitch": "G#3"
        },
        {
          "midi": 76,
          "beat": 1.75,
          "dur": 0.25,
          "vel": 127,
          "clef": "treble",
          "pitch": "E5"
        },
        {
          "midi": 52,
          "beat": 2,
          "dur": 0.33,
          "vel": 127,
          "clef": "bass",
          "pitch": "E3"
        },
        {
          "midi": 75,
          "beat": 2,
          "dur": 0.25,
          "vel": 127,
          "clef": "treble",
          "pitch": "D#5"
        },
        {
          "midi": 73,
          "beat": 2.25,
          "dur": 0.25,
          "vel": 127,
          "clef": "treble",
          "pitch": "C#5"
        },
        {
          "midi": 56,
          "beat": 2.33,
          "dur": 0.33,
          "vel": 127,
          "clef": "bass",
          "pitch": "G#3"
        },
        {
          "midi": 75,
          "beat": 2.5,
          "dur": 0.25,
          "vel": 127,
          "clef": "treble",
          "pitch": "D#5"
        },
        {
          "midi": 61,
          "beat": 2.67,
          "dur": 0.33,
          "vel": 127,
          "clef": "bass",
          "pitch": "C#4"
        },
        {
          "midi": 73,
          "beat": 2.75,
          "dur": 0.25,
          "vel": 127,
          "clef": "treble",
          "pitch": "C#5"
        },
        {
          "midi": 64,
          "beat": 3,
          "dur": 0.33,
          "vel": 127,
          "clef": "bass",
          "pitch": "E4"
        },
        {
          "midi": 72,
          "beat": 3,
          "dur": 0.25,
          "vel": 127,
          "clef": "treble",
          "pitch": "C5"
        },
        {
          "midi": 73,
          "beat": 3.25,
          "dur": 0.25,
          "vel": 127,
          "clef": "treble",
          "pitch": "C#5"
        },
        {
          "midi": 61,
          "beat": 3.33,
          "dur": 0.33,
          "vel": 127,
          "clef": "bass",
          "pitch": "C#4"
        },
        {
          "midi": 76,
          "beat": 3.5,
          "dur": 0.25,
          "vel": 127,
          "clef": "treble",
          "pitch": "E5"
        },
        {
          "midi": 56,
          "beat": 3.67,
          "dur": 0.33,
          "vel": 127,
          "clef": "bass",
          "pitch": "G#3"
        },
        {
          "midi": 80,
          "beat": 3.75,
          "dur": 0.25,
          "vel": 127,
          "clef": "treble",
          "pitch": "G#5"
        }
      ]
    },
    {
      "_": "Treble: 15 notes, Bass: 12 notes",
      "number": 5,
      "notes": [
        {
          "midi": 49,
          "beat": 0,
          "dur": 0.33,
          "vel": 127,
          "clef": "bass",
          "pitch": "C#3"
        },
        {
          "midi": 68,
          "beat": 0.25,
          "dur": 0.25,
          "vel": 127,
          "clef": "treble",
          "pitch": "G#4"
        },
        {
          "midi": 56,
          "beat": 0.33,
          "dur": 0.33,
          "vel": 127,
          "clef": "bass",
          "pitch": "G#3"
        },
        {
          "midi": 69,
          "beat": 0.5,
          "dur": 0.25,
          "vel": 127,
          "clef": "treble",
          "pitch": "A4"
        },
        {
          "midi": 61,
          "beat": 0.67,
          "dur": 0.33,
          "vel": 127,
          "clef": "bass",
          "pitch": "C#4"
        },
        {
          "midi": 68,
          "beat": 0.75,
          "dur": 0.25,
          "vel": 127,
          "clef": "treble",
          "pitch": "G#4"
        },
        {
          "midi": 64,
          "beat": 1,
          "dur": 0.33,
          "vel": 127,
          "clef": "bass",
          "pitch": "E4"
        },
        {
          "midi": 67,
          "beat": 1,
          "dur": 0.25,
          "vel": 127,
          "clef": "treble",
          "pitch": "G4"
        },
        {
          "midi": 68,
          "beat": 1.25,
          "dur": 0.25,
          "vel": 127,
          "clef": "treble",
          "pitch": "G#4"
        },
        {
          "midi": 61,
          "beat": 1.33,
          "dur": 0.33,
          "vel": 127,
          "clef": "bass",
          "pitch": "C#4"
        },
        {
          "midi": 73,
          "beat": 1.5,
          "dur": 0.25,
          "vel": 127,
          "clef": "treble",
          "pitch": "C#5"
        },
        {
          "midi": 56,
          "beat": 1.67,
          "dur": 0.33,
          "vel": 127,
          "clef": "bass",
          "pitch": "G#3"
        },
        {
          "midi": 76,
          "beat": 1.75,
          "dur": 0.25,
          "vel": 127,
          "clef": "treble",
          "pitch": "E5"
        },
        {
          "midi": 52,
          "beat": 2,
          "dur": 0.33,
          "vel": 127,
          "clef": "bass",
          "pitch": "E3"
        },
        {
          "midi": 75,
          "beat": 2,
          "dur": 0.25,
          "vel": 127,
          "clef": "treble",
          "pitch": "D#5"
        },
        {
          "midi": 73,
          "beat": 2.25,
          "dur": 0.25,
          "vel": 127,
          "clef": "treble",
          "pitch": "C#5"
        },
        {
          "midi": 56,
          "beat": 2.33,
          "dur": 0.33,
          "vel": 127,
          "clef": "bass",
          "pitch": "G#3"
        },
        {
          "midi": 75,
          "beat": 2.5,
          "dur": 0.25,
          "vel": 127,
          "clef": "treble",
          "pitch": "D#5"
        },
        {
          "midi": 61,
          "beat": 2.67,
          "dur": 0.33,
          "vel": 127,
          "clef": "bass",
          "pitch": "C#4"
        },
        {
          "midi": 73,
          "beat": 2.75,
          "dur": 0.25,
          "vel": 127,
          "clef": "treble",
          "pitch": "C#5"
        },
        {
          "midi": 64,
          "beat": 3,
          "dur": 0.33,
          "vel": 127,
          "clef": "bass",
          "pitch": "E4"
        },
        {
          "midi": 72,
          "beat": 3,
          "dur": 0.25,
          "vel": 127,
          "clef": "treble",
          "pitch": "C5"
        },
        {
          "midi": 73,
          "beat": 3.25,
          "dur": 0.25,
          "vel": 127,
          "clef": "treble",
          "pitch": "C#5"
        },
        {
          "midi": 61,
          "beat": 3.33,
          "dur": 0.33,
          "vel": 127,
          "clef": "bass",
          "pitch": "C#4"
        },
        {
          "midi": 76,
          "beat": 3.5,
          "dur": 0.25,
          "vel": 127,
          "clef": "treble",
          "pitch": "E5"
        },
        {
          "midi": 56,
          "beat": 3.67,
          "dur": 0.33,
          "vel": 127,
          "clef": "bass",
          "pitch": "G#3"
        },
        {
          "midi": 80,
          "beat": 3.75,
          "dur": 0.25,
          "vel": 127,
          "clef": "treble",
          "pitch": "G#5"
        }
      ]
    },
    {
      "_": "Treble: 15 notes, Bass: 12 notes",
      "number": 6,
      "notes": [
        {
          "midi": 51,
          "beat": 0,
          "dur": 0.33,
          "vel": 127,
          "clef": "bass",
          "pitch": "D#3"
        },
        {
          "midi": 69,
          "beat": 0.25,
          "dur": 0.25,
          "vel": 127,
          "clef": "treble",
          "pitch": "A4"
        },
        {
          "midi": 57,
          "beat": 0.33,
          "dur": 0.33,
          "vel": 127,
          "clef": "bass",
          "pitch": "A3"
        },
        {
          "midi": 73,
          "beat": 0.5,
          "dur": 0.25,
          "vel": 127,
          "clef": "treble",
          "pitch": "C#5"
        },
        {
          "midi": 61,
          "beat": 0.67,
          "dur": 0.33,
          "vel": 127,
          "clef": "bass",
          "pitch": "C#4"
        },
        {
          "midi": 75,
          "beat": 0.75,
          "dur": 0.25,
          "vel": 127,
          "clef": "treble",
          "pitch": "D#5"
        },
        {
          "midi": 66,
          "beat": 1,
          "dur": 0.33,
          "vel": 127,
          "clef": "bass",
          "pitch": "F#4"
        },
        {
          "midi": 78,
          "beat": 1,
          "dur": 0.25,
          "vel": 127,
          "clef": "treble",
          "pitch": "F#5"
        },
        {
          "midi": 81,
          "beat": 1.25,
          "dur": 0.25,
          "vel": 127,
          "clef": "treble",
          "pitch": "A5"
        },
        {
          "midi": 61,
          "beat": 1.33,
          "dur": 0.33,
          "vel": 127,
          "clef": "bass",
          "pitch": "C#4"
        },
        {
          "midi": 85,
          "beat": 1.5,
          "dur": 0.25,
          "vel": 127,
          "clef": "treble",
          "pitch": "C#6"
        },
        {
          "midi": 57,
          "beat": 1.67,
          "dur": 0.33,
          "vel": 127,
          "clef": "bass",
          "pitch": "A3"
        },
        {
          "midi": 87,
          "beat": 1.75,
          "dur": 0.25,
          "vel": 127,
          "clef": "treble",
          "pitch": "D#6"
        },
        {
          "midi": 54,
          "beat": 2,
          "dur": 0.33,
          "vel": 127,
          "clef": "bass",
          "pitch": "F#3"
        },
        {
          "midi": 95,
          "beat": 2,
          "dur": 0.25,
          "vel": 127,
          "clef": "treble",
          "pitch": "B6"
        },
        {
          "midi": 93,
          "beat": 2.25,
          "dur": 0.25,
          "vel": 127,
          "clef": "treble",
          "pitch": "A6"
        },
        {
          "midi": 61,
          "beat": 2.33,
          "dur": 0.33,
          "vel": 127,
          "clef": "bass",
          "pitch": "C#4"
        },
        {
          "midi": 92,
          "beat": 2.5,
          "dur": 0.25,
          "vel": 127,
          "clef": "treble",
          "pitch": "G#6"
        },
        {
          "midi": 63,
          "beat": 2.67,
          "dur": 0.33,
          "vel": 127,
          "clef": "bass",
          "pitch": "D#4"
        },
        {
          "midi": 90,
          "beat": 2.75,
          "dur": 0.25,
          "vel": 127,
          "clef": "treble",
          "pitch": "F#6"
        },
        {
          "midi": 69,
          "beat": 3,
          "dur": 0.33,
          "vel": 127,
          "clef": "bass",
          "pitch": "A4"
        },
        {
          "midi": 88,
          "beat": 3,
          "dur": 0.25,
          "vel": 127,
          "clef": "treble",
          "pitch": "E6"
        },
        {
          "midi": 87,
          "beat": 3.25,
          "dur": 0.25,
          "vel": 127,
          "clef": "treble",
          "pitch": "D#6"
        },
        {
          "midi": 63,
          "beat": 3.33,
          "dur": 0.33,
          "vel": 127,
          "clef": "bass",
          "pitch": "D#4"
        },
        {
          "midi": 90,
          "beat": 3.5,
          "dur": 0.25,
          "vel": 127,
          "clef": "treble",
          "pitch": "F#6"
        },
        {
          "midi": 61,
          "beat": 3.67,
          "dur": 0.33,
          "vel": 127,
          "clef": "bass",
          "pitch": "C#4"
        },
        {
          "midi": 85,
          "beat": 3.75,
          "dur": 0.25,
          "vel": 127,
          "clef": "treble",
          "pitch": "C#6"
        }
      ]
    },
    {
      "_": "Treble: 16 notes, Bass: 12 notes",
      "number": 7,
      "notes": [
        {
          "midi": 44,
          "beat": 0,
          "dur": 0.33,
          "vel": 127,
          "clef": "bass",
          "pitch": "G#2"
        },
        {
          "midi": 84,
          "beat": 0,
          "dur": 0.25,
          "vel": 127,
          "clef": "treble",
          "pitch": "C6"
        },
        {
          "midi": 87,
          "beat": 0.25,
          "dur": 0.25,
          "vel": 127,
          "clef": "treble",
          "pitch": "D#6"
        },
        {
          "midi": 51,
          "beat": 0.33,
          "dur": 0.33,
          "vel": 127,
          "clef": "bass",
          "pitch": "D#3"
        },
        {
          "midi": 81,
          "beat": 0.5,
          "dur": 0.25,
          "vel": 127,
          "clef": "treble",
          "pitch": "A5"
        },
        {
          "midi": 54,
          "beat": 0.67,
          "dur": 0.33,
          "vel": 127,
          "clef": "bass",
          "pitch": "F#3"
        },
        {
          "midi": 80,
          "beat": 0.75,
          "dur": 0.25,
          "vel": 127,
          "clef": "treble",
          "pitch": "G#5"
        },
        {
          "midi": 60,
          "beat": 1,
          "dur": 0.33,
          "vel": 127,
          "clef": "bass",
          "pitch": "C4"
        },
        {
          "midi": 78,
          "beat": 1,
          "dur": 0.25,
          "vel": 127,
          "clef": "treble",
          "pitch": "F#5"
        },
        {
          "midi": 81,
          "beat": 1.25,
          "dur": 0.25,
          "vel": 127,
          "clef": "treble",
          "pitch": "A5"
        },
        {
          "midi": 54,
          "beat": 1.33,
          "dur": 0.33,
          "vel": 127,
          "clef": "bass",
          "pitch": "F#3"
        },
        {
          "midi": 76,
          "beat": 1.5,
          "dur": 0.25,
          "vel": 127,
          "clef": "treble",
          "pitch": "E5"
        },
        {
          "midi": 51,
          "beat": 1.67,
          "dur": 0.33,
          "vel": 127,
          "clef": "bass",
          "pitch": "D#3"
        },
        {
          "midi": 75,
          "beat": 1.75,
          "dur": 0.25,
          "vel": 127,
          "clef": "treble",
          "pitch": "D#5"
        },
        {
          "midi": 44,
          "beat": 2,
          "dur": 0.33,
          "vel": 127,
          "clef": "bass",
          "pitch": "G#2"
        },
        {
          "midi": 78,
          "beat": 2,
          "dur": 0.25,
          "vel": 127,
          "clef": "treble",
          "pitch": "F#5"
        },
        {
          "midi": 73,
          "beat": 2.25,
          "dur": 0.25,
          "vel": 127,
          "clef": "treble",
          "pitch": "C#5"
        },
        {
          "midi": 51,
          "beat": 2.33,
          "dur": 0.33,
          "vel": 127,
          "clef": "bass",
          "pitch": "D#3"
        },
        {
          "midi": 72,
          "beat": 2.5,
          "dur": 0.25,
          "vel": 127,
          "clef": "treble",
          "pitch": "C5"
        },
        {
          "midi": 54,
          "beat": 2.67,
          "dur": 0.33,
          "vel": 127,
          "clef": "bass",
          "pitch": "F#3"
        },
        {
          "midi": 75,
          "beat": 2.75,
          "dur": 0.25,
          "vel": 127,
          "clef": "treble",
          "pitch": "D#5"
        },
        {
          "midi": 60,
          "beat": 3,
          "dur": 0.33,
          "vel": 127,
          "clef": "bass",
          "pitch": "C4"
        },
        {
          "midi": 69,
          "beat": 3,
          "dur": 0.25,
          "vel": 127,
          "clef": "treble",
          "pitch": "A4"
        },
        {
          "midi": 68,
          "beat": 3.25,
          "dur": 0.25,
          "vel": 127,
          "clef": "treble",
          "pitch": "G#4"
        },
        {
          "midi": 54,
          "beat": 3.33,
          "dur": 0.33,
          "vel": 127,
          "clef": "bass",
          "pitch": "F#3"
        },
        {
          "midi": 71,
          "beat": 3.5,
          "dur": 0.25,
          "vel": 127,
          "clef": "treble",
          "pitch": "B4"
        },
        {
          "midi": 51,
          "beat": 3.67,
          "dur": 0.33,
          "vel": 127,
          "clef": "bass",
          "pitch": "D#3"
        },
        {
          "midi": 69,
          "beat": 3.75,
          "dur": 0.25,
          "vel": 127,
          "clef": "treble",
          "pitch": "A4"
        }
      ]
    },
    {
      "_": "Treble: 15 notes, Bass: 12 notes",
      "number": 8,
      "notes": [
        {
          "midi": 49,
          "beat": 0,
          "dur": 0.33,
          "vel": 127,
          "clef": "bass",
          "pitch": "C#3"
        },
        {
          "midi": 68,
          "beat": 0.25,
          "dur": 0.25,
          "vel": 127,
          "clef": "treble",
          "pitch": "G#4"
        },
        {
          "midi": 56,
          "beat": 0.33,
          "dur": 0.33,
          "vel": 127,
          "clef": "bass",
          "pitch": "G#3"
        },
        {
          "midi": 69,
          "beat": 0.5,
          "dur": 0.25,
          "vel": 127,
          "clef": "treble",
          "pitch": "A4"
        },
        {
          "midi": 61,
          "beat": 0.67,
          "dur": 0.33,
          "vel": 127,
          "clef": "bass",
          "pitch": "C#4"
        },
        {
          "midi": 68,
          "beat": 0.75,
          "dur": 0.25,
          "vel": 127,
          "clef": "treble",
          "pitch": "G#4"
        },
        {
          "midi": 64,
          "beat": 1,
          "dur": 0.33,
          "vel": 127,
          "clef": "bass",
          "pitch": "E4"
        },
        {
          "midi": 67,
          "beat": 1,
          "dur": 0.25,
          "vel": 127,
          "clef": "treble",
          "pitch": "G4"
        },
        {
          "midi": 68,
          "beat": 1.25,
          "dur": 0.25,
          "vel": 127,
          "clef": "treble",
          "pitch": "G#4"
        },
        {
          "midi": 61,
          "beat": 1.33,
          "dur": 0.33,
          "vel": 127,
          "clef": "bass",
          "pitch": "C#4"
        },
        {
          "midi": 73,
          "beat": 1.5,
          "dur": 0.25,
          "vel": 127,
          "clef": "treble",
          "pitch": "C#5"
        },
        {
          "midi": 56,
          "beat": 1.67,
          "dur": 0.33,
          "vel": 127,
          "clef": "bass",
          "pitch": "G#3"
        },
        {
          "midi": 76,
          "beat": 1.75,
          "dur": 0.25,
          "vel": 127,
          "clef": "treble",
          "pitch": "E5"
        },
        {
          "midi": 52,
          "beat": 2,
          "dur": 0.33,
          "vel": 127,
          "clef": "bass",
          "pitch": "E3"
        },
        {
          "midi": 75,
          "beat": 2,
          "dur": 0.25,
          "vel": 127,
          "clef": "treble",
          "pitch": "D#5"
        },
        {
          "midi": 73,
          "beat": 2.25,
          "dur": 0.25,
          "vel": 127,
          "clef": "treble",
          "pitch": "C#5"
        },
        {
          "midi": 56,
          "beat": 2.33,
          "dur": 0.33,
          "vel": 127,
          "clef": "bass",
          "pitch": "G#3"
        },
        {
          "midi": 75,
          "beat": 2.5,
          "dur": 0.25,
          "vel": 127,
          "clef": "treble",
          "pitch": "D#5"
        },
        {
          "midi": 61,
          "beat": 2.67,
          "dur": 0.33,
          "vel": 127,
          "clef": "bass",
          "pitch": "C#4"
        },
        {
          "midi": 73,
          "beat": 2.75,
          "dur": 0.25,
          "vel": 127,
          "clef": "treble",
          "pitch": "C#5"
        },
        {
          "midi": 64,
          "beat": 3,
          "dur": 0.33,
          "vel": 127,
          "clef": "bass",
          "pitch": "E4"
        },
        {
          "midi": 72,
          "beat": 3,
          "dur": 0.25,
          "vel": 127,
          "clef": "treble",
          "pitch": "C5"
        },
        {
          "midi": 73,
          "beat": 3.25,
          "dur": 0.25,
          "vel": 127,
          "clef": "treble",
          "pitch": "C#5"
        },
        {
          "midi": 61,
          "beat": 3.33,
          "dur": 0.33,
          "vel": 127,
          "clef": "bass",
          "pitch": "C#4"
        },
        {
          "midi": 76,
          "beat": 3.5,
          "dur": 0.25,
          "vel": 127,
          "clef": "treble",
          "pitch": "E5"
        },
        {
          "midi": 56,
          "beat": 3.67,
          "dur": 0.33,
          "vel": 127,
          "clef": "bass",
          "pitch": "G#3"
        },
        {
          "midi": 80,
          "beat": 3.75,
          "dur": 0.25,
          "vel": 127,
          "clef": "treble",
          "pitch": "G#5"
        }
      ]
    },
    {
      "_": "Treble: 15 notes, Bass: 12 notes",
      "number": 9,
      "notes": [
        {
          "midi": 49,
          "beat": 0,
          "dur": 0.33,
          "vel": 127,
          "clef": "bass",
          "pitch": "C#3"
        },
        {
          "midi": 68,
          "beat": 0.25,
          "dur": 0.25,
          "vel": 127,
          "clef": "treble",
          "pitch": "G#4"
        },
        {
          "midi": 56,
          "beat": 0.33,
          "dur": 0.33,
          "vel": 127,
          "clef": "bass",
          "pitch": "G#3"
        },
        {
          "midi": 70,
          "beat": 0.5,
          "dur": 0.25,
          "vel": 127,
          "clef": "treble",
          "acc": "#",
          "pitch": "A#4"
        },
        {
          "midi": 58,
          "beat": 0.67,
          "dur": 0.33,
          "vel": 127,
          "clef": "bass",
          "acc": "#",
          "pitch": "A#3"
        },
        {
          "midi": 68,
          "beat": 0.75,
          "dur": 0.25,
          "vel": 127,
          "clef": "treble",
          "pitch": "G#4"
        },
        {
          "midi": 64,
          "beat": 1,
          "dur": 0.33,
          "vel": 127,
          "clef": "bass",
          "pitch": "E4"
        },
        {
          "midi": 67,
          "beat": 1,
          "dur": 0.25,
          "vel": 127,
          "clef": "treble",
          "pitch": "G4"
        },
        {
          "midi": 68,
          "beat": 1.25,
          "dur": 0.25,
          "vel": 127,
          "clef": "treble",
          "pitch": "G#4"
        },
        {
          "midi": 58,
          "beat": 1.33,
          "dur": 0.33,
          "vel": 127,
          "clef": "bass",
          "acc": "#",
          "pitch": "A#3"
        },
        {
          "midi": 73,
          "beat": 1.5,
          "dur": 0.25,
          "vel": 127,
          "clef": "treble",
          "pitch": "C#5"
        },
        {
          "midi": 56,
          "beat": 1.67,
          "dur": 0.33,
          "vel": 127,
          "clef": "bass",
          "pitch": "G#3"
        },
        {
          "midi": 76,
          "beat": 1.75,
          "dur": 0.25,
          "vel": 127,
          "clef": "treble",
          "pitch": "E5"
        },
        {
          "midi": 52,
          "beat": 2,
          "dur": 0.33,
          "vel": 127,
          "clef": "bass",
          "pitch": "E3"
        },
        {
          "midi": 75,
          "beat": 2,
          "dur": 0.25,
          "vel": 127,
          "clef": "treble",
          "pitch": "D#5"
        },
        {
          "midi": 73,
          "beat": 2.25,
          "dur": 0.25,
          "vel": 127,
          "clef": "treble",
          "pitch": "C#5"
        },
        {
          "midi": 56,
          "beat": 2.33,
          "dur": 0.33,
          "vel": 127,
          "clef": "bass",
          "pitch": "G#3"
        },
        {
          "midi": 75,
          "beat": 2.5,
          "dur": 0.25,
          "vel": 127,
          "clef": "treble",
          "pitch": "D#5"
        },
        {
          "midi": 58,
          "beat": 2.67,
          "dur": 0.33,
          "vel": 127,
          "clef": "bass",
          "acc": "#",
          "pitch": "A#3"
        },
        {
          "midi": 73,
          "beat": 2.75,
          "dur": 0.25,
          "vel": 127,
          "clef": "treble",
          "pitch": "C#5"
        },
        {
          "midi": 61,
          "beat": 3,
          "dur": 0.33,
          "vel": 127,
          "clef": "bass",
          "pitch": "C#4"
        },
        {
          "midi": 72,
          "beat": 3,
          "dur": 0.25,
          "vel": 127,
          "clef": "treble",
          "pitch": "C5"
        },
        {
          "midi": 73,
          "beat": 3.25,
          "dur": 0.25,
          "vel": 127,
          "clef": "treble",
          "pitch": "C#5"
        },
        {
          "midi": 58,
          "beat": 3.33,
          "dur": 0.33,
          "vel": 127,
          "clef": "bass",
          "acc": "#",
          "pitch": "A#3"
        },
        {
          "midi": 76,
          "beat": 3.5,
          "dur": 0.25,
          "vel": 127,
          "clef": "treble",
          "pitch": "E5"
        },
        {
          "midi": 56,
          "beat": 3.67,
          "dur": 0.33,
          "vel": 127,
          "clef": "bass",
          "pitch": "G#3"
        },
        {
          "midi": 80,
          "beat": 3.75,
          "dur": 0.25,
          "vel": 127,
          "clef": "treble",
          "pitch": "G#5"
        }
      ]
    },
    {
      "_": "Treble: 16 notes, Bass: 12 notes",
      "number": 10,
      "notes": [
        {
          "midi": 51,
          "beat": 0,
          "dur": 0.33,
          "vel": 127,
          "clef": "bass",
          "pitch": "D#3"
        },
        {
          "midi": 75,
          "beat": 0,
          "dur": 0.25,
          "vel": 127,
          "clef": "treble",
          "pitch": "D#5"
        },
        {
          "midi": 76,
          "beat": 0.25,
          "dur": 0.25,
          "vel": 127,
          "clef": "treble",
          "pitch": "E5"
        },
        {
          "midi": 56,
          "beat": 0.33,
          "dur": 0.33,
          "vel": 127,
          "clef": "bass",
          "pitch": "G#3"
        },
        {
          "midi": 75,
          "beat": 0.5,
          "dur": 0.25,
          "vel": 127,
          "clef": "treble",
          "pitch": "D#5"
        },
        {
          "midi": 59,
          "beat": 0.67,
          "dur": 0.33,
          "vel": 127,
          "clef": "bass",
          "pitch": "B3"
        },
        {
          "midi": 74,
          "beat": 0.75,
          "dur": 0.25,
          "vel": 127,
          "clef": "treble",
          "pitch": "D5"
        },
        {
          "midi": 63,
          "beat": 1,
          "dur": 0.33,
          "vel": 127,
          "clef": "bass",
          "pitch": "D#4"
        },
        {
          "midi": 75,
          "beat": 1,
          "dur": 0.25,
          "vel": 127,
          "clef": "treble",
          "pitch": "D#5"
        },
        {
          "midi": 83,
          "beat": 1.25,
          "dur": 0.25,
          "vel": 127,
          "clef": "treble",
          "pitch": "B5"
        },
        {
          "midi": 59,
          "beat": 1.33,
          "dur": 0.33,
          "vel": 127,
          "clef": "bass",
          "pitch": "B3"
        },
        {
          "midi": 82,
          "beat": 1.5,
          "dur": 0.25,
          "vel": 127,
          "clef": "treble",
          "acc": "#",
          "pitch": "A#5"
        },
        {
          "midi": 56,
          "beat": 1.67,
          "dur": 0.33,
          "vel": 127,
          "clef": "bass",
          "pitch": "G#3"
        },
        {
          "midi": 80,
          "beat": 1.75,
          "dur": 0.25,
          "vel": 127,
          "clef": "treble",
          "pitch": "G#5"
        },
        {
          "midi": 51,
          "beat": 2,
          "dur": 0.33,
          "vel": 127,
          "clef": "bass",
          "pitch": "D#3"
        },
        {
          "midi": 79,
          "beat": 2,
          "dur": 0.25,
          "vel": 127,
          "clef": "treble",
          "pitch": "G5"
        },
        {
          "midi": 88,
          "beat": 2.25,
          "dur": 0.25,
          "vel": 127,
          "clef": "treble",
          "pitch": "E6"
        },
        {
          "midi": 58,
          "beat": 2.33,
          "dur": 0.33,
          "vel": 127,
          "clef": "bass",
          "acc": "#",
          "pitch": "A#3"
        },
        {
          "midi": 87,
          "beat": 2.5,
          "dur": 0.25,
          "vel": 127,
          "clef": "treble",
          "pitch": "D#6"
        },
        {
          "midi": 61,
          "beat": 2.67,
          "dur": 0.33,
          "vel": 127,
          "clef": "bass",
          "pitch": "C#4"
        },
        {
          "midi": 85,
          "beat": 2.75,
          "dur": 0.25,
          "vel": 127,
          "clef": "treble",
          "pitch": "C#6"
        },
        {
          "midi": 67,
          "beat": 3,
          "dur": 0.33,
          "vel": 127,
          "clef": "bass",
          "pitch": "G4"
        },
        {
          "midi": 83,
          "beat": 3,
          "dur": 0.25,
          "vel": 127,
          "clef": "treble",
          "pitch": "B5"
        },
        {
          "midi": 82,
          "beat": 3.25,
          "dur": 0.25,
          "vel": 127,
          "clef": "treble",
          "acc": "#",
          "pitch": "A#5"
        },
        {
          "midi": 61,
          "beat": 3.33,
          "dur": 0.33,
          "vel": 127,
          "clef": "bass",
          "pitch": "C#4"
        },
        {
          "midi": 80,
          "beat": 3.5,
          "dur": 0.25,
          "vel": 127,
          "clef": "treble",
          "pitch": "G#5"
        },
        {
          "midi": 58,
          "beat": 3.67,
          "dur": 0.33,
          "vel": 127,
          "clef": "bass",
          "acc": "#",
          "pitch": "A#3"
        },
        {
          "midi": 79,
          "beat": 3.75,
          "dur": 0.25,
          "vel": 127,
          "clef": "treble",
          "pitch": "G5"
        }
      ]
    },
    {
      "_": "Treble: 16 notes, Bass: 12 notes",
      "number": 11,
      "notes": [
        {
          "midi": 44,
          "beat": 0,
          "dur": 0.33,
          "vel": 127,
          "clef": "bass",
          "pitch": "G#2"
        },
        {
          "midi": 82,
          "beat": 0,
          "dur": 0.25,
          "vel": 127,
          "clef": "treble",
          "acc": "#",
          "pitch": "A#5"
        },
        {
          "midi": 80,
          "beat": 0.25,
          "dur": 0.25,
          "vel": 127,
          "clef": "treble",
          "pitch": "G#5"
        },
        {
          "midi": 51,
          "beat": 0.33,
          "dur": 0.33,
          "vel": 127,
          "clef": "bass",
          "pitch": "D#3"
        },
        {
          "midi": 83,
          "beat": 0.5,
          "dur": 0.25,
          "vel": 127,
          "clef": "treble",
          "pitch": "B5"
        },
        {
          "midi": 56,
          "beat": 0.67,
          "dur": 0.33,
          "vel": 127,
          "clef": "bass",
          "pitch": "G#3"
        },
        {
          "midi": 74,
          "beat": 0.75,
          "dur": 0.25,
          "vel": 127,
          "clef": "treble",
          "pitch": "D5"
        },
        {
          "midi": 59,
          "beat": 1,
          "dur": 0.33,
          "vel": 127,
          "clef": "bass",
          "pitch": "B3"
        },
        {
          "midi": 76,
          "beat": 1,
          "dur": 0.25,
          "vel": 127,
          "clef": "treble",
          "pitch": "E5"
        },
        {
          "midi": 75,
          "beat": 1.25,
          "dur": 0.25,
          "vel": 127,
          "clef": "treble",
          "pitch": "D#5"
        },
        {
          "midi": 56,
          "beat": 1.33,
          "dur": 0.33,
          "vel": 127,
          "clef": "bass",
          "pitch": "G#3"
        },
        {
          "midi": 80,
          "beat": 1.5,
          "dur": 0.25,
          "vel": 127,
          "clef": "treble",
          "pitch": "G#5"
        },
        {
          "midi": 51,
          "beat": 1.67,
          "dur": 0.33,
          "vel": 127,
          "clef": "bass",
          "pitch": "D#3"
        },
        {
          "midi": 70,
          "beat": 1.75,
          "dur": 0.25,
          "vel": 127,
          "clef": "treble",
          "acc": "#",
          "pitch": "A#4"
        },
        {
          "midi": 44,
          "beat": 2,
          "dur": 0.33,
          "vel": 127,
          "clef": "bass",
          "pitch": "G#2"
        },
        {
          "midi": 73,
          "beat": 2,
          "dur": 0.25,
          "vel": 127,
          "clef": "treble",
          "pitch": "C#5"
        },
        {
          "midi": 71,
          "beat": 2.25,
          "dur": 0.25,
          "vel": 127,
          "clef": "treble",
          "pitch": "B4"
        },
        {
          "midi": 51,
          "beat": 2.33,
          "dur": 0.33,
          "vel": 127,
          "clef": "bass",
          "pitch": "D#3"
        },
        {
          "midi": 75,
          "beat": 2.5,
          "dur": 0.25,
          "vel": 127,
          "clef": "treble",
          "pitch": "D#5"
        },
        {
          "midi": 56,
          "beat": 2.67,
          "dur": 0.33,
          "vel": 127,
          "clef": "bass",
          "pitch": "G#3"
        },
        {
          "midi": 67,
          "beat": 2.75,
          "dur": 0.25,
          "vel": 127,
          "clef": "treble",
          "pitch": "G4"
        },
        {
          "midi": 59,
          "beat": 3,
          "dur": 0.33,
          "vel": 127,
          "clef": "bass",
          "pitch": "B3"
        },
        {
          "midi": 70,
          "beat": 3,
          "dur": 0.25,
          "vel": 127,
          "clef": "treble",
          "acc": "#",
          "pitch": "A#4"
        },
        {
          "midi": 68,
          "beat": 3.25,
          "dur": 0.25,
          "vel": 127,
          "clef": "treble",
          "pitch": "G#4"
        },
        {
          "midi": 56,
          "beat": 3.33,
          "dur": 0.33,
          "vel": 127,
          "clef": "bass",
          "pitch": "G#3"
        },
        {
          "midi": 67,
          "beat": 3.5,
          "dur": 0.25,
          "vel": 127,
          "clef": "treble",
          "pitch": "G4"
        },
        {
          "midi": 51,
          "beat": 3.67,
          "dur": 0.33,
          "vel": 127,
          "clef": "bass",
          "pitch": "D#3"
        },
        {
          "midi": 68,
          "beat": 3.75,
          "dur": 0.25,
          "vel": 127,
          "clef": "treble",
          "pitch": "G#4"
        }
      ]
    },
    {
      "_": "Treble: 16 notes, Bass: 12 notes",
      "number": 12,
      "notes": [
        {
          "midi": 45,
          "beat": 0,
          "dur": 0.33,
          "vel": 127,
          "clef": "bass",
          "pitch": "A2"
        },
        {
          "midi": 68,
          "beat": 0,
          "dur": 0.25,
          "vel": 127,
          "clef": "treble",
          "pitch": "G#4"
        },
        {
          "midi": 80,
          "beat": 0.25,
          "dur": 0.25,
          "vel": 127,
          "clef": "treble",
          "pitch": "G#5"
        },
        {
          "midi": 49,
          "beat": 0.33,
          "dur": 0.33,
          "vel": 127,
          "clef": "bass",
          "pitch": "C#3"
        },
        {
          "midi": 72,
          "beat": 0.5,
          "dur": 0.25,
          "vel": 127,
          "clef": "treble",
          "pitch": "C5"
        },
        {
          "midi": 54,
          "beat": 0.67,
          "dur": 0.33,
          "vel": 127,
          "clef": "bass",
          "pitch": "F#3"
        },
        {
          "midi": 73,
          "beat": 0.75,
          "dur": 0.25,
          "vel": 127,
          "clef": "treble",
          "pitch": "C#5"
        },
        {
          "midi": 57,
          "beat": 1,
          "dur": 0.33,
          "vel": 127,
          "clef": "bass",
          "pitch": "A3"
        },
        {
          "midi": 66,
          "beat": 1,
          "dur": 0.25,
          "vel": 127,
          "clef": "treble",
          "pitch": "F#4"
        },
        {
          "midi": 78,
          "beat": 1.25,
          "dur": 0.25,
          "vel": 127,
          "clef": "treble",
          "pitch": "F#5"
        },
        {
          "midi": 54,
          "beat": 1.33,
          "dur": 0.33,
          "vel": 127,
          "clef": "bass",
          "pitch": "F#3"
        },
        {
          "midi": 72,
          "beat": 1.5,
          "dur": 0.25,
          "vel": 127,
          "clef": "treble",
          "pitch": "C5"
        },
        {
          "midi": 49,
          "beat": 1.67,
          "dur": 0.33,
          "vel": 127,
          "clef": "bass",
          "pitch": "C#3"
        },
        {
          "midi": 73,
          "beat": 1.75,
          "dur": 0.25,
          "vel": 127,
          "clef": "treble",
          "pitch": "C#5"
        },
        {
          "midi": 45,
          "beat": 2,
          "dur": 0.33,
          "vel": 127,
          "clef": "bass",
          "pitch": "A2"
        },
        {
          "midi": 65,
          "beat": 2,
          "dur": 0.25,
          "vel": 127,
          "clef": "treble",
          "pitch": "F4"
        },
        {
          "midi": 77,
          "beat": 2.25,
          "dur": 0.25,
          "vel": 127,
          "clef": "treble",
          "pitch": "F5"
        },
        {
          "midi": 49,
          "beat": 2.33,
          "dur": 0.33,
          "vel": 127,
          "clef": "bass",
          "pitch": "C#3"
        },
        {
          "midi": 72,
          "beat": 2.5,
          "dur": 0.25,
          "vel": 127,
          "clef": "treble",
          "pitch": "C5"
        },
        {
          "midi": 54,
          "beat": 2.67,
          "dur": 0.33,
          "vel": 127,
          "clef": "bass",
          "pitch": "F#3"
        },
        {
          "midi": 73,
          "beat": 2.75,
          "dur": 0.25,
          "vel": 127,
          "clef": "treble",
          "pitch": "C#5"
        },
        {
          "midi": 57,
          "beat": 3,
          "dur": 0.33,
          "vel": 127,
          "clef": "bass",
          "pitch": "A3"
        },
        {
          "midi": 66,
          "beat": 3,
          "dur": 0.25,
          "vel": 127,
          "clef": "treble",
          "pitch": "F#4"
        },
        {
          "midi": 78,
          "beat": 3.25,
          "dur": 0.25,
          "vel": 127,
          "clef": "treble",
          "pitch": "F#5"
        },
        {
          "midi": 54,
          "beat": 3.33,
          "dur": 0.33,
          "vel": 127,
          "clef": "bass",
          "pitch": "F#3"
        },
        {
          "midi": 72,
          "beat": 3.5,
          "dur": 0.25,
          "vel": 127,
          "clef": "treble",
          "pitch": "C5"
        },
        {
          "midi": 49,
          "beat": 3.67,
          "dur": 0.33,
          "vel": 127,
          "clef": "bass",
          "pitch": "C#3"
        },
        {
          "midi": 73,
          "beat": 3.75,
          "dur": 0.25,
          "vel": 127,
          "clef": "treble",
          "pitch": "C#5"
        }
      ]
    },
    {
      "_": "Treble: 16 notes, Bass: 12 notes",
      "number": 13,
      "notes": [
        {
          "midi": 47,
          "beat": 0,
          "dur": 0.33,
          "vel": 127,
          "clef": "bass",
          "pitch": "B2"
        },
        {
          "midi": 61,
          "beat": 0,
          "dur": 0.25,
          "vel": 127,
          "clef": "treble",
          "pitch": "C#4"
        },
        {
          "midi": 73,
          "beat": 0.25,
          "dur": 0.25,
          "vel": 127,
          "clef": "treble",
          "pitch": "C#5"
        },
        {
          "midi": 54,
          "beat": 0.33,
          "dur": 0.33,
          "vel": 127,
          "clef": "bass",
          "pitch": "F#3"
        },
        {
          "midi": 66,
          "beat": 0.5,
          "dur": 0.25,
          "vel": 127,
          "clef": "treble",
          "pitch": "F#4"
        },
        {
          "midi": 57,
          "beat": 0.67,
          "dur": 0.33,
          "vel": 127,
          "clef": "bass",
          "pitch": "A3"
        },
        {
          "midi": 69,
          "beat": 0.75,
          "dur": 0.25,
          "vel": 127,
          "clef": "treble",
          "pitch": "A4"
        },
        {
          "midi": 59,
          "beat": 1,
          "dur": 0.33,
          "vel": 127,
          "clef": "bass",
          "pitch": "B3"
        },
        {
          "midi": 63,
          "beat": 1,
          "dur": 0.25,
          "vel": 127,
          "clef": "treble",
          "pitch": "D#4"
        },
        {
          "midi": 75,
          "beat": 1.25,
          "dur": 0.25,
          "vel": 127,
          "clef": "treble",
          "pitch": "D#5"
        },
        {
          "midi": 57,
          "beat": 1.33,
          "dur": 0.33,
          "vel": 127,
          "clef": "bass",
          "pitch": "A3"
        },
        {
          "midi": 66,
          "beat": 1.5,
          "dur": 0.25,
          "vel": 127,
          "clef": "treble",
          "pitch": "F#4"
        },
        {
          "midi": 54,
          "beat": 1.67,
          "dur": 0.33,
          "vel": 127,
          "clef": "bass",
          "pitch": "F#3"
        },
        {
          "midi": 69,
          "beat": 1.75,
          "dur": 0.25,
          "vel": 127,
          "clef": "treble",
          "pitch": "A4"
        },
        {
          "midi": 40,
          "beat": 2,
          "dur": 0.33,
          "vel": 127,
          "clef": "bass",
          "pitch": "E2"
        },
        {
          "midi": 64,
          "beat": 2,
          "dur": 0.25,
          "vel": 127,
          "clef": "treble",
          "pitch": "E4"
        },
        {
          "midi": 76,
          "beat": 2.25,
          "dur": 0.25,
          "vel": 127,
          "clef": "treble",
          "pitch": "E5"
        },
        {
          "midi": 47,
          "beat": 2.33,
          "dur": 0.33,
          "vel": 127,
          "clef": "bass",
          "pitch": "B2"
        },
        {
          "midi": 68,
          "beat": 2.5,
          "dur": 0.25,
          "vel": 127,
          "clef": "treble",
          "pitch": "G#4"
        },
        {
          "midi": 52,
          "beat": 2.67,
          "dur": 0.33,
          "vel": 127,
          "clef": "bass",
          "pitch": "E3"
        },
        {
          "midi": 71,
          "beat": 2.75,
          "dur": 0.25,
          "vel": 127,
          "clef": "treble",
          "pitch": "B4"
        },
        {
          "midi": 56,
          "beat": 3,
          "dur": 0.33,
          "vel": 127,
          "clef": "bass",
          "pitch": "G#3"
        },
        {
          "midi": 68,
          "beat": 3,
          "dur": 0.25,
          "vel": 127,
          "clef": "treble",
          "pitch": "G#4"
        },
        {
          "midi": 80,
          "beat": 3.25,
          "dur": 0.25,
          "vel": 127,
          "clef": "treble",
          "pitch": "G#5"
        },
        {
          "midi": 52,
          "beat": 3.33,
          "dur": 0.33,
          "vel": 127,
          "clef": "bass",
          "pitch": "E3"
        },
        {
          "midi": 71,
          "beat": 3.5,
          "dur": 0.25,
          "vel": 127,
          "clef": "treble",
          "pitch": "B4"
        },
        {
          "midi": 47,
          "beat": 3.67,
          "dur": 0.33,
          "vel": 127,
          "clef": "bass",
          "pitch": "B2"
        },
        {
          "midi": 76,
          "beat": 3.75,
          "dur": 0.25,
          "vel": 127,
          "clef": "treble",
          "pitch": "E5"
        }
      ]
    },
    {
      "_": "Treble: 16 notes, Bass: 12 notes",
      "number": 14,
      "notes": [
        {
          "midi": 45,
          "beat": 0,
          "dur": 0.33,
          "vel": 127,
          "clef": "bass",
          "pitch": "A2"
        },
        {
          "midi": 68,
          "beat": 0,
          "dur": 0.25,
          "vel": 127,
          "clef": "treble",
          "pitch": "G#4"
        },
        {
          "midi": 80,
          "beat": 0.25,
          "dur": 0.25,
          "vel": 127,
          "clef": "treble",
          "pitch": "G#5"
        },
        {
          "midi": 49,
          "beat": 0.33,
          "dur": 0.33,
          "vel": 127,
          "clef": "bass",
          "pitch": "C#3"
        },
        {
          "midi": 72,
          "beat": 0.5,
          "dur": 0.25,
          "vel": 127,
          "clef": "treble",
          "pitch": "C5"
        },
        {
          "midi": 54,
          "beat": 0.67,
          "dur": 0.33,
          "vel": 127,
          "clef": "bass",
          "pitch": "F#3"
        },
        {
          "midi": 73,
          "beat": 0.75,
          "dur": 0.25,
          "vel": 127,
          "clef": "treble",
          "pitch": "C#5"
        },
        {
          "midi": 57,
          "beat": 1,
          "dur": 0.33,
          "vel": 127,
          "clef": "bass",
          "pitch": "A3"
        },
        {
          "midi": 66,
          "beat": 1,
          "dur": 0.25,
          "vel": 127,
          "clef": "treble",
          "pitch": "F#4"
        },
        {
          "midi": 78,
          "beat": 1.25,
          "dur": 0.25,
          "vel": 127,
          "clef": "treble",
          "pitch": "F#5"
        },
        {
          "midi": 54,
          "beat": 1.33,
          "dur": 0.33,
          "vel": 127,
          "clef": "bass",
          "pitch": "F#3"
        },
        {
          "midi": 72,
          "beat": 1.5,
          "dur": 0.25,
          "vel": 127,
          "clef": "treble",
          "pitch": "C5"
        },
        {
          "midi": 49,
          "beat": 1.67,
          "dur": 0.33,
          "vel": 127,
          "clef": "bass",
          "pitch": "C#3"
        },
        {
          "midi": 73,
          "beat": 1.75,
          "dur": 0.25,
          "vel": 127,
          "clef": "treble",
          "pitch": "C#5"
        },
        {
          "midi": 45,
          "beat": 2,
          "dur": 0.33,
          "vel": 127,
          "clef": "bass",
          "pitch": "A2"
        },
        {
          "midi": 65,
          "beat": 2,
          "dur": 0.25,
          "vel": 127,
          "clef": "treble",
          "pitch": "F4"
        },
        {
          "midi": 77,
          "beat": 2.25,
          "dur": 0.25,
          "vel": 127,
          "clef": "treble",
          "pitch": "F5"
        },
        {
          "midi": 49,
          "beat": 2.33,
          "dur": 0.33,
          "vel": 127,
          "clef": "bass",
          "pitch": "C#3"
        },
        {
          "midi": 72,
          "beat": 2.5,
          "dur": 0.25,
          "vel": 127,
          "clef": "treble",
          "pitch": "C5"
        },
        {
          "midi": 54,
          "beat": 2.67,
          "dur": 0.33,
          "vel": 127,
          "clef": "bass",
          "pitch": "F#3"
        },
        {
          "midi": 73,
          "beat": 2.75,
          "dur": 0.25,
          "vel": 127,
          "clef": "treble",
          "pitch": "C#5"
        },
        {
          "midi": 57,
          "beat": 3,
          "dur": 0.33,
          "vel": 127,
          "clef": "bass",
          "pitch": "A3"
        },
        {
          "midi": 66,
          "beat": 3,
          "dur": 0.25,
          "vel": 127,
          "clef": "treble",
          "pitch": "F#4"
        },
        {
          "midi": 78,
          "beat": 3.25,
          "dur": 0.25,
          "vel": 127,
          "clef": "treble",
          "pitch": "F#5"
        },
        {
          "midi": 54,
          "beat": 3.33,
          "dur": 0.33,
          "vel": 127,
          "clef": "bass",
          "pitch": "F#3"
        },
        {
          "midi": 72,
          "beat": 3.5,
          "dur": 0.25,
          "vel": 127,
          "clef": "treble",
          "pitch": "C5"
        },
        {
          "midi": 49,
          "beat": 3.67,
          "dur": 0.33,
          "vel": 127,
          "clef": "bass",
          "pitch": "C#3"
        },
        {
          "midi": 73,
          "beat": 3.75,
          "dur": 0.25,
          "vel": 127,
          "clef": "treble",
          "pitch": "C#5"
        }
      ]
    },
    {
      "_": "Treble: 16 notes, Bass: 12 notes",
      "number": 15,
      "notes": [
        {
          "midi": 47,
          "beat": 0,
          "dur": 0.33,
          "vel": 127,
          "clef": "bass",
          "pitch": "B2"
        },
        {
          "midi": 65,
          "beat": 0,
          "dur": 0.25,
          "vel": 127,
          "clef": "treble",
          "pitch": "F4"
        },
        {
          "midi": 77,
          "beat": 0.25,
          "dur": 0.25,
          "vel": 127,
          "clef": "treble",
          "pitch": "F5"
        },
        {
          "midi": 54,
          "beat": 0.33,
          "dur": 0.33,
          "vel": 127,
          "clef": "bass",
          "pitch": "F#3"
        },
        {
          "midi": 71,
          "beat": 0.5,
          "dur": 0.25,
          "vel": 127,
          "clef": "treble",
          "pitch": "B4"
        },
        {
          "midi": 57,
          "beat": 0.67,
          "dur": 0.33,
          "vel": 127,
          "clef": "bass",
          "pitch": "A3"
        },
        {
          "midi": 75,
          "beat": 0.75,
          "dur": 0.25,
          "vel": 127,
          "clef": "treble",
          "pitch": "D#5"
        },
        {
          "midi": 59,
          "beat": 1,
          "dur": 0.33,
          "vel": 127,
          "clef": "bass",
          "pitch": "B3"
        },
        {
          "midi": 66,
          "beat": 1,
          "dur": 0.25,
          "vel": 127,
          "clef": "treble",
          "pitch": "F#4"
        },
        {
          "midi": 78,
          "beat": 1.25,
          "dur": 0.25,
          "vel": 127,
          "clef": "treble",
          "pitch": "F#5"
        },
        {
          "midi": 57,
          "beat": 1.33,
          "dur": 0.33,
          "vel": 127,
          "clef": "bass",
          "pitch": "A3"
        },
        {
          "midi": 71,
          "beat": 1.5,
          "dur": 0.25,
          "vel": 127,
          "clef": "treble",
          "pitch": "B4"
        },
        {
          "midi": 54,
          "beat": 1.67,
          "dur": 0.33,
          "vel": 127,
          "clef": "bass",
          "pitch": "F#3"
        },
        {
          "midi": 75,
          "beat": 1.75,
          "dur": 0.25,
          "vel": 127,
          "clef": "treble",
          "pitch": "D#5"
        },
        {
          "midi": 40,
          "beat": 2,
          "dur": 0.33,
          "vel": 127,
          "clef": "bass",
          "pitch": "E2"
        },
        {
          "midi": 69,
          "beat": 2,
          "dur": 0.25,
          "vel": 127,
          "clef": "treble",
          "pitch": "A4"
        },
        {
          "midi": 81,
          "beat": 2.25,
          "dur": 0.25,
          "vel": 127,
          "clef": "treble",
          "pitch": "A5"
        },
        {
          "midi": 47,
          "beat": 2.33,
          "dur": 0.33,
          "vel": 127,
          "clef": "bass",
          "pitch": "B2"
        },
        {
          "midi": 71,
          "beat": 2.5,
          "dur": 0.25,
          "vel": 127,
          "clef": "treble",
          "pitch": "B4"
        },
        {
          "midi": 52,
          "beat": 2.67,
          "dur": 0.33,
          "vel": 127,
          "clef": "bass",
          "pitch": "E3"
        },
        {
          "midi": 76,
          "beat": 2.75,
          "dur": 0.25,
          "vel": 127,
          "clef": "treble",
          "pitch": "E5"
        },
        {
          "midi": 56,
          "beat": 3,
          "dur": 0.33,
          "vel": 127,
          "clef": "bass",
          "pitch": "G#3"
        },
        {
          "midi": 68,
          "beat": 3,
          "dur": 0.25,
          "vel": 127,
          "clef": "treble",
          "pitch": "G#4"
        },
        {
          "midi": 80,
          "beat": 3.25,
          "dur": 0.25,
          "vel": 127,
          "clef": "treble",
          "pitch": "G#5"
        },
        {
          "midi": 52,
          "beat": 3.33,
          "dur": 0.33,
          "vel": 127,
          "clef": "bass",
          "pitch": "E3"
        },
        {
          "midi": 71,
          "beat": 3.5,
          "dur": 0.25,
          "vel": 127,
          "clef": "treble",
          "pitch": "B4"
        },
        {
          "midi": 47,
          "beat": 3.67,
          "dur": 0.33,
          "vel": 127,
          "clef": "bass",
          "pitch": "B2"
        },
        {
          "midi": 76,
          "beat": 3.75,
          "dur": 0.25,
          "vel": 127,
          "clef": "treble",
          "pitch": "E5"
        }
      ]
    },
    {
      "_": "Treble: 16 notes, Bass: 12 notes",
      "number": 16,
      "notes": [
        {
          "midi": 45,
          "beat": 0,
          "dur": 0.33,
          "vel": 127,
          "clef": "bass",
          "pitch": "A2"
        },
        {
          "midi": 68,
          "beat": 0,
          "dur": 0.25,
          "vel": 127,
          "clef": "treble",
          "pitch": "G#4"
        },
        {
          "midi": 80,
          "beat": 0.25,
          "dur": 0.25,
          "vel": 127,
          "clef": "treble",
          "pitch": "G#5"
        },
        {
          "midi": 49,
          "beat": 0.33,
          "dur": 0.33,
          "vel": 127,
          "clef": "bass",
          "pitch": "C#3"
        },
        {
          "midi": 72,
          "beat": 0.5,
          "dur": 0.25,
          "vel": 127,
          "clef": "treble",
          "pitch": "C5"
        },
        {
          "midi": 54,
          "beat": 0.67,
          "dur": 0.33,
          "vel": 127,
          "clef": "bass",
          "pitch": "F#3"
        },
        {
          "midi": 73,
          "beat": 0.75,
          "dur": 0.25,
          "vel": 127,
          "clef": "treble",
          "pitch": "C#5"
        },
        {
          "midi": 57,
          "beat": 1,
          "dur": 0.33,
          "vel": 127,
          "clef": "bass",
          "pitch": "A3"
        },
        {
          "midi": 66,
          "beat": 1,
          "dur": 0.25,
          "vel": 127,
          "clef": "treble",
          "pitch": "F#4"
        },
        {
          "midi": 78,
          "beat": 1.25,
          "dur": 0.25,
          "vel": 127,
          "clef": "treble",
          "pitch": "F#5"
        },
        {
          "midi": 54,
          "beat": 1.33,
          "dur": 0.33,
          "vel": 127,
          "clef": "bass",
          "pitch": "F#3"
        },
        {
          "midi": 72,
          "beat": 1.5,
          "dur": 0.25,
          "vel": 127,
          "clef": "treble",
          "pitch": "C5"
        },
        {
          "midi": 49,
          "beat": 1.67,
          "dur": 0.33,
          "vel": 127,
          "clef": "bass",
          "pitch": "C#3"
        },
        {
          "midi": 73,
          "beat": 1.75,
          "dur": 0.25,
          "vel": 127,
          "clef": "treble",
          "pitch": "C#5"
        },
        {
          "midi": 45,
          "beat": 2,
          "dur": 0.33,
          "vel": 127,
          "clef": "bass",
          "pitch": "A2"
        },
        {
          "midi": 65,
          "beat": 2,
          "dur": 0.25,
          "vel": 127,
          "clef": "treble",
          "pitch": "F4"
        },
        {
          "midi": 77,
          "beat": 2.25,
          "dur": 0.25,
          "vel": 127,
          "clef": "treble",
          "pitch": "F5"
        },
        {
          "midi": 49,
          "beat": 2.33,
          "dur": 0.33,
          "vel": 127,
          "clef": "bass",
          "pitch": "C#3"
        },
        {
          "midi": 72,
          "beat": 2.5,
          "dur": 0.25,
          "vel": 127,
          "clef": "treble",
          "pitch": "C5"
        },
        {
          "midi": 54,
          "beat": 2.67,
          "dur": 0.33,
          "vel": 127,
          "clef": "bass",
          "pitch": "F#3"
        },
        {
          "midi": 73,
          "beat": 2.75,
          "dur": 0.25,
          "vel": 127,
          "clef": "treble",
          "pitch": "C#5"
        },
        {
          "midi": 57,
          "beat": 3,
          "dur": 0.33,
          "vel": 127,
          "clef": "bass",
          "pitch": "A3"
        },
        {
          "midi": 66,
          "beat": 3,
          "dur": 0.25,
          "vel": 127,
          "clef": "treble",
          "pitch": "F#4"
        },
        {
          "midi": 78,
          "beat": 3.25,
          "dur": 0.25,
          "vel": 127,
          "clef": "treble",
          "pitch": "F#5"
        },
        {
          "midi": 54,
          "beat": 3.33,
          "dur": 0.33,
          "vel": 127,
          "clef": "bass",
          "pitch": "F#3"
        },
        {
          "midi": 72,
          "beat": 3.5,
          "dur": 0.25,
          "vel": 127,
          "clef": "treble",
          "pitch": "C5"
        },
        {
          "midi": 49,
          "beat": 3.67,
          "dur": 0.33,
          "vel": 127,
          "clef": "bass",
          "pitch": "C#3"
        },
        {
          "midi": 73,
          "beat": 3.75,
          "dur": 0.25,
          "vel": 127,
          "clef": "treble",
          "pitch": "C#5"
        }
      ]
    },
    {
      "_": "Treble: 16 notes, Bass: 12 notes",
      "number": 17,
      "notes": [
        {
          "midi": 47,
          "beat": 0,
          "dur": 0.33,
          "vel": 127,
          "clef": "bass",
          "pitch": "B2"
        },
        {
          "midi": 61,
          "beat": 0,
          "dur": 0.25,
          "vel": 127,
          "clef": "treble",
          "pitch": "C#4"
        },
        {
          "midi": 73,
          "beat": 0.25,
          "dur": 0.25,
          "vel": 127,
          "clef": "treble",
          "pitch": "C#5"
        },
        {
          "midi": 54,
          "beat": 0.33,
          "dur": 0.33,
          "vel": 127,
          "clef": "bass",
          "pitch": "F#3"
        },
        {
          "midi": 66,
          "beat": 0.5,
          "dur": 0.25,
          "vel": 127,
          "clef": "treble",
          "pitch": "F#4"
        },
        {
          "midi": 57,
          "beat": 0.67,
          "dur": 0.33,
          "vel": 127,
          "clef": "bass",
          "pitch": "A3"
        },
        {
          "midi": 69,
          "beat": 0.75,
          "dur": 0.25,
          "vel": 127,
          "clef": "treble",
          "pitch": "A4"
        },
        {
          "midi": 59,
          "beat": 1,
          "dur": 0.33,
          "vel": 127,
          "clef": "bass",
          "pitch": "B3"
        },
        {
          "midi": 63,
          "beat": 1,
          "dur": 0.25,
          "vel": 127,
          "clef": "treble",
          "pitch": "D#4"
        },
        {
          "midi": 75,
          "beat": 1.25,
          "dur": 0.25,
          "vel": 127,
          "clef": "treble",
          "pitch": "D#5"
        },
        {
          "midi": 57,
          "beat": 1.33,
          "dur": 0.33,
          "vel": 127,
          "clef": "bass",
          "pitch": "A3"
        },
        {
          "midi": 66,
          "beat": 1.5,
          "dur": 0.25,
          "vel": 127,
          "clef": "treble",
          "pitch": "F#4"
        },
        {
          "midi": 54,
          "beat": 1.67,
          "dur": 0.33,
          "vel": 127,
          "clef": "bass",
          "pitch": "F#3"
        },
        {
          "midi": 69,
          "beat": 1.75,
          "dur": 0.25,
          "vel": 127,
          "clef": "treble",
          "pitch": "A4"
        },
        {
          "midi": 40,
          "beat": 2,
          "dur": 0.33,
          "vel": 127,
          "clef": "bass",
          "pitch": "E2"
        },
        {
          "midi": 64,
          "beat": 2,
          "dur": 0.25,
          "vel": 127,
          "clef": "treble",
          "pitch": "E4"
        },
        {
          "midi": 76,
          "beat": 2.25,
          "dur": 0.25,
          "vel": 127,
          "clef": "treble",
          "pitch": "E5"
        },
        {
          "midi": 47,
          "beat": 2.33,
          "dur": 0.33,
          "vel": 127,
          "clef": "bass",
          "pitch": "B2"
        },
        {
          "midi": 68,
          "beat": 2.5,
          "dur": 0.25,
          "vel": 127,
          "clef": "treble",
          "pitch": "G#4"
        },
        {
          "midi": 52,
          "beat": 2.67,
          "dur": 0.33,
          "vel": 127,
          "clef": "bass",
          "pitch": "E3"
        },
        {
          "midi": 71,
          "beat": 2.75,
          "dur": 0.25,
          "vel": 127,
          "clef": "treble",
          "pitch": "B4"
        },
        {
          "midi": 56,
          "beat": 3,
          "dur": 0.33,
          "vel": 127,
          "clef": "bass",
          "pitch": "G#3"
        },
        {
          "midi": 68,
          "beat": 3,
          "dur": 0.25,
          "vel": 127,
          "clef": "treble",
          "pitch": "G#4"
        },
        {
          "midi": 80,
          "beat": 3.25,
          "dur": 0.25,
          "vel": 127,
          "clef": "treble",
          "pitch": "G#5"
        },
        {
          "midi": 52,
          "beat": 3.33,
          "dur": 0.33,
          "vel": 127,
          "clef": "bass",
          "pitch": "E3"
        },
        {
          "midi": 71,
          "beat": 3.5,
          "dur": 0.25,
          "vel": 127,
          "clef": "treble",
          "pitch": "B4"
        },
        {
          "midi": 47,
          "beat": 3.67,
          "dur": 0.33,
          "vel": 127,
          "clef": "bass",
          "pitch": "B2"
        },
        {
          "midi": 76,
          "beat": 3.75,
          "dur": 0.25,
          "vel": 127,
          "clef": "treble",
          "pitch": "E5"
        }
      ]
    },
    {
      "_": "Treble: 16 notes, Bass: 12 notes",
      "number": 18,
      "notes": [
        {
          "midi": 45,
          "beat": 0,
          "dur": 0.33,
          "vel": 127,
          "clef": "bass",
          "pitch": "A2"
        },
        {
          "midi": 68,
          "beat": 0,
          "dur": 0.25,
          "vel": 127,
          "clef": "treble",
          "pitch": "G#4"
        },
        {
          "midi": 80,
          "beat": 0.25,
          "dur": 0.25,
          "vel": 127,
          "clef": "treble",
          "pitch": "G#5"
        },
        {
          "midi": 49,
          "beat": 0.33,
          "dur": 0.33,
          "vel": 127,
          "clef": "bass",
          "pitch": "C#3"
        },
        {
          "midi": 72,
          "beat": 0.5,
          "dur": 0.25,
          "vel": 127,
          "clef": "treble",
          "pitch": "C5"
        },
        {
          "midi": 54,
          "beat": 0.67,
          "dur": 0.33,
          "vel": 127,
          "clef": "bass",
          "pitch": "F#3"
        },
        {
          "midi": 73,
          "beat": 0.75,
          "dur": 0.25,
          "vel": 127,
          "clef": "treble",
          "pitch": "C#5"
        },
        {
          "midi": 57,
          "beat": 1,
          "dur": 0.33,
          "vel": 127,
          "clef": "bass",
          "pitch": "A3"
        },
        {
          "midi": 66,
          "beat": 1,
          "dur": 0.25,
          "vel": 127,
          "clef": "treble",
          "pitch": "F#4"
        },
        {
          "midi": 78,
          "beat": 1.25,
          "dur": 0.25,
          "vel": 127,
          "clef": "treble",
          "pitch": "F#5"
        },
        {
          "midi": 54,
          "beat": 1.33,
          "dur": 0.33,
          "vel": 127,
          "clef": "bass",
          "pitch": "F#3"
        },
        {
          "midi": 72,
          "beat": 1.5,
          "dur": 0.25,
          "vel": 127,
          "clef": "treble",
          "pitch": "C5"
        },
        {
          "midi": 49,
          "beat": 1.67,
          "dur": 0.33,
          "vel": 127,
          "clef": "bass",
          "pitch": "C#3"
        },
        {
          "midi": 73,
          "beat": 1.75,
          "dur": 0.25,
          "vel": 127,
          "clef": "treble",
          "pitch": "C#5"
        },
        {
          "midi": 45,
          "beat": 2,
          "dur": 0.33,
          "vel": 127,
          "clef": "bass",
          "pitch": "A2"
        },
        {
          "midi": 75,
          "beat": 2,
          "dur": 0.25,
          "vel": 127,
          "clef": "treble",
          "pitch": "D#5"
        },
        {
          "midi": 87,
          "beat": 2.25,
          "dur": 0.25,
          "vel": 127,
          "clef": "treble",
          "pitch": "D#6"
        },
        {
          "midi": 51,
          "beat": 2.33,
          "dur": 0.33,
          "vel": 127,
          "clef": "bass",
          "pitch": "D#3"
        },
        {
          "midi": 78,
          "beat": 2.5,
          "dur": 0.25,
          "vel": 127,
          "clef": "treble",
          "pitch": "F#5"
        },
        {
          "midi": 54,
          "beat": 2.67,
          "dur": 0.33,
          "vel": 127,
          "clef": "bass",
          "pitch": "F#3"
        },
        {
          "midi": 81,
          "beat": 2.75,
          "dur": 0.25,
          "vel": 127,
          "clef": "treble",
          "pitch": "A5"
        },
        {
          "midi": 57,
          "beat": 3,
          "dur": 0.33,
          "vel": 127,
          "clef": "bass",
          "pitch": "A3"
        },
        {
          "midi": 73,
          "beat": 3,
          "dur": 0.25,
          "vel": 127,
          "clef": "treble",
          "pitch": "C#5"
        },
        {
          "midi": 85,
          "beat": 3.25,
          "dur": 0.25,
          "vel": 127,
          "clef": "treble",
          "pitch": "C#6"
        },
        {
          "midi": 54,
          "beat": 3.33,
          "dur": 0.33,
          "vel": 127,
          "clef": "bass",
          "pitch": "F#3"
        },
        {
          "midi": 78,
          "beat": 3.5,
          "dur": 0.25,
          "vel": 127,
          "clef": "treble",
          "pitch": "F#5"
        },
        {
          "midi": 51,
          "beat": 3.67,
          "dur": 0.33,
          "vel": 127,
          "clef": "bass",
          "pitch": "D#3"
        },
        {
          "midi": 81,
          "beat": 3.75,
          "dur": 0.25,
          "vel": 127,
          "clef": "treble",
          "pitch": "A5"
        }
      ]
    },
    {
      "_": "Treble: 16 notes, Bass: 12 notes",
      "number": 19,
      "notes": [
        {
          "midi": 44,
          "beat": 0,
          "dur": 0.33,
          "vel": 127,
          "clef": "bass",
          "pitch": "G#2"
        },
        {
          "midi": 73,
          "beat": 0,
          "dur": 0.25,
          "vel": 127,
          "clef": "treble",
          "pitch": "C#5"
        },
        {
          "midi": 85,
          "beat": 0.25,
          "dur": 0.25,
          "vel": 127,
          "clef": "treble",
          "pitch": "C#6"
        },
        {
          "midi": 51,
          "beat": 0.33,
          "dur": 0.33,
          "vel": 127,
          "clef": "bass",
          "pitch": "D#3"
        },
        {
          "midi": 75,
          "beat": 0.5,
          "dur": 0.25,
          "vel": 127,
          "clef": "treble",
          "pitch": "D#5"
        },
        {
          "midi": 54,
          "beat": 0.67,
          "dur": 0.33,
          "vel": 127,
          "clef": "bass",
          "pitch": "F#3"
        },
        {
          "midi": 78,
          "beat": 0.75,
          "dur": 0.25,
          "vel": 127,
          "clef": "treble",
          "pitch": "F#5"
        },
        {
          "midi": 60,
          "beat": 1,
          "dur": 0.33,
          "vel": 127,
          "clef": "bass",
          "pitch": "C4"
        },
        {
          "midi": 72,
          "beat": 1,
          "dur": 0.25,
          "vel": 127,
          "clef": "treble",
          "pitch": "C5"
        },
        {
          "midi": 84,
          "beat": 1.25,
          "dur": 0.25,
          "vel": 127,
          "clef": "treble",
          "pitch": "C6"
        },
        {
          "midi": 54,
          "beat": 1.33,
          "dur": 0.33,
          "vel": 127,
          "clef": "bass",
          "pitch": "F#3"
        },
        {
          "midi": 75,
          "beat": 1.5,
          "dur": 0.25,
          "vel": 127,
          "clef": "treble",
          "pitch": "D#5"
        },
        {
          "midi": 51,
          "beat": 1.67,
          "dur": 0.33,
          "vel": 127,
          "clef": "bass",
          "pitch": "D#3"
        },
        {
          "midi": 78,
          "beat": 1.75,
          "dur": 0.25,
          "vel": 127,
          "clef": "treble",
          "pitch": "F#5"
        },
        {
          "midi": 44,
          "beat": 2,
          "dur": 0.33,
          "vel": 127,
          "clef": "bass",
          "pitch": "G#2"
        },
        {
          "midi": 72,
          "beat": 2,
          "dur": 0.25,
          "vel": 127,
          "clef": "treble",
          "pitch": "C5"
        },
        {
          "midi": 84,
          "beat": 2.25,
          "dur": 0.25,
          "vel": 127,
          "clef": "treble",
          "pitch": "C6"
        },
        {
          "midi": 51,
          "beat": 2.33,
          "dur": 0.33,
          "vel": 127,
          "clef": "bass",
          "pitch": "D#3"
        },
        {
          "midi": 75,
          "beat": 2.5,
          "dur": 0.25,
          "vel": 127,
          "clef": "treble",
          "pitch": "D#5"
        },
        {
          "midi": 54,
          "beat": 2.67,
          "dur": 0.33,
          "vel": 127,
          "clef": "bass",
          "pitch": "F#3"
        },
        {
          "midi": 78,
          "beat": 2.75,
          "dur": 0.25,
          "vel": 127,
          "clef": "treble",
          "pitch": "F#5"
        },
        {
          "midi": 60,
          "beat": 3,
          "dur": 0.33,
          "vel": 127,
          "clef": "bass",
          "pitch": "C4"
        },
        {
          "midi": 72,
          "beat": 3,
          "dur": 0.25,
          "vel": 127,
          "clef": "treble",
          "pitch": "C5"
        },
        {
          "midi": 84,
          "beat": 3.25,
          "dur": 0.25,
          "vel": 127,
          "clef": "treble",
          "pitch": "C6"
        },
        {
          "midi": 54,
          "beat": 3.33,
          "dur": 0.33,
          "vel": 127,
          "clef": "bass",
          "pitch": "F#3"
        },
        {
          "midi": 75,
          "beat": 3.5,
          "dur": 0.25,
          "vel": 127,
          "clef": "treble",
          "pitch": "D#5"
        },
        {
          "midi": 51,
          "beat": 3.67,
          "dur": 0.33,
          "vel": 127,
          "clef": "bass",
          "pitch": "D#3"
        },
        {
          "midi": 78,
          "beat": 3.75,
          "dur": 0.25,
          "vel": 127,
          "clef": "treble",
          "pitch": "F#5"
        }
      ]
    },
    {
      "_": "Treble: 16 notes, Bass: 12 notes",
      "number": 20,
      "notes": [
        {
          "midi": 45,
          "beat": 0,
          "dur": 0.33,
          "vel": 127,
          "clef": "bass",
          "pitch": "A2"
        },
        {
          "midi": 72,
          "beat": 0,
          "dur": 0.25,
          "vel": 127,
          "clef": "treble",
          "pitch": "C5"
        },
        {
          "midi": 84,
          "beat": 0.25,
          "dur": 0.25,
          "vel": 127,
          "clef": "treble",
          "pitch": "C6"
        },
        {
          "midi": 51,
          "beat": 0.33,
          "dur": 0.33,
          "vel": 127,
          "clef": "bass",
          "pitch": "D#3"
        },
        {
          "midi": 75,
          "beat": 0.5,
          "dur": 0.25,
          "vel": 127,
          "clef": "treble",
          "pitch": "D#5"
        },
        {
          "midi": 54,
          "beat": 0.67,
          "dur": 0.33,
          "vel": 127,
          "clef": "bass",
          "pitch": "F#3"
        },
        {
          "midi": 78,
          "beat": 0.75,
          "dur": 0.25,
          "vel": 127,
          "clef": "treble",
          "pitch": "F#5"
        },
        {
          "midi": 59,
          "beat": 1,
          "dur": 0.33,
          "vel": 127,
          "clef": "bass",
          "pitch": "B3"
        },
        {
          "midi": 71,
          "beat": 1,
          "dur": 0.25,
          "vel": 127,
          "clef": "treble",
          "pitch": "B4"
        },
        {
          "midi": 83,
          "beat": 1.25,
          "dur": 0.25,
          "vel": 127,
          "clef": "treble",
          "pitch": "B5"
        },
        {
          "midi": 54,
          "beat": 1.33,
          "dur": 0.33,
          "vel": 127,
          "clef": "bass",
          "pitch": "F#3"
        },
        {
          "midi": 75,
          "beat": 1.5,
          "dur": 0.25,
          "vel": 127,
          "clef": "treble",
          "pitch": "D#5"
        },
        {
          "midi": 51,
          "beat": 1.67,
          "dur": 0.33,
          "vel": 127,
          "clef": "bass",
          "pitch": "D#3"
        },
        {
          "midi": 78,
          "beat": 1.75,
          "dur": 0.25,
          "vel": 127,
          "clef": "treble",
          "pitch": "F#5"
        },
        {
          "midi": 46,
          "beat": 2,
          "dur": 0.33,
          "vel": 127,
          "clef": "bass",
          "acc": "#",
          "pitch": "A#2"
        },
        {
          "midi": 71,
          "beat": 2,
          "dur": 0.25,
          "vel": 127,
          "clef": "treble",
          "pitch": "B4"
        },
        {
          "midi": 83,
          "beat": 2.25,
          "dur": 0.25,
          "vel": 127,
          "clef": "treble",
          "pitch": "B5"
        },
        {
          "midi": 51,
          "beat": 2.33,
          "dur": 0.33,
          "vel": 127,
          "clef": "bass",
          "pitch": "D#3"
        },
        {
          "midi": 75,
          "beat": 2.5,
          "dur": 0.25,
          "vel": 127,
          "clef": "treble",
          "pitch": "D#5"
        },
        {
          "midi": 54,
          "beat": 2.67,
          "dur": 0.33,
          "vel": 127,
          "clef": "bass",
          "pitch": "F#3"
        },
        {
          "midi": 78,
          "beat": 2.75,
          "dur": 0.25,
          "vel": 127,
          "clef": "treble",
          "pitch": "F#5"
        },
        {
          "midi": 58,
          "beat": 3,
          "dur": 0.33,
          "vel": 127,
          "clef": "bass",
          "acc": "#",
          "pitch": "A#3"
        },
        {
          "midi": 70,
          "beat": 3,
          "dur": 0.25,
          "vel": 127,
          "clef": "treble",
          "acc": "#",
          "pitch": "A#4"
        },
        {
          "midi": 82,
          "beat": 3.25,
          "dur": 0.25,
          "vel": 127,
          "clef": "treble",
          "acc": "#",
          "pitch": "A#5"
        },
        {
          "midi": 54,
          "beat": 3.33,
          "dur": 0.33,
          "vel": 127,
          "clef": "bass",
          "pitch": "F#3"
        },
        {
          "midi": 75,
          "beat": 3.5,
          "dur": 0.25,
          "vel": 127,
          "clef": "treble",
          "pitch": "D#5"
        },
        {
          "midi": 51,
          "beat": 3.67,
          "dur": 0.33,
          "vel": 127,
          "clef": "bass",
          "pitch": "D#3"
        },
        {
          "midi": 78,
          "beat": 3.75,
          "dur": 0.25,
          "vel": 127,
          "clef": "treble",
          "pitch": "F#5"
        }
      ]
    },
    {
      "_": "Treble: 16 notes, Bass: 12 notes",
      "number": 21,
      "notes": [
        {
          "midi": 48,
          "beat": 0,
          "dur": 0.33,
          "vel": 127,
          "clef": "bass",
          "pitch": "C3"
        },
        {
          "midi": 70,
          "beat": 0,
          "dur": 0.25,
          "vel": 127,
          "clef": "treble",
          "acc": "#",
          "pitch": "A#4"
        },
        {
          "midi": 82,
          "beat": 0.25,
          "dur": 0.25,
          "vel": 127,
          "clef": "treble",
          "acc": "#",
          "pitch": "A#5"
        },
        {
          "midi": 51,
          "beat": 0.33,
          "dur": 0.33,
          "vel": 127,
          "clef": "bass",
          "pitch": "D#3"
        },
        {
          "midi": 75,
          "beat": 0.5,
          "dur": 0.25,
          "vel": 127,
          "clef": "treble",
          "pitch": "D#5"
        },
        {
          "midi": 54,
          "beat": 0.67,
          "dur": 0.33,
          "vel": 127,
          "clef": "bass",
          "pitch": "F#3"
        },
        {
          "midi": 78,
          "beat": 0.75,
          "dur": 0.25,
          "vel": 127,
          "clef": "treble",
          "pitch": "F#5"
        },
        {
          "midi": 57,
          "beat": 1,
          "dur": 0.33,
          "vel": 127,
          "clef": "bass",
          "pitch": "A3"
        },
        {
          "midi": 69,
          "beat": 1,
          "dur": 0.25,
          "vel": 127,
          "clef": "treble",
          "pitch": "A4"
        },
        {
          "midi": 81,
          "beat": 1.25,
          "dur": 0.25,
          "vel": 127,
          "clef": "treble",
          "pitch": "A5"
        },
        {
          "midi": 54,
          "beat": 1.33,
          "dur": 0.33,
          "vel": 127,
          "clef": "bass",
          "pitch": "F#3"
        },
        {
          "midi": 75,
          "beat": 1.5,
          "dur": 0.25,
          "vel": 127,
          "clef": "treble",
          "pitch": "D#5"
        },
        {
          "midi": 51,
          "beat": 1.67,
          "dur": 0.33,
          "vel": 127,
          "clef": "bass",
          "pitch": "D#3"
        },
        {
          "midi": 78,
          "beat": 1.75,
          "dur": 0.25,
          "vel": 127,
          "clef": "treble",
          "pitch": "F#5"
        },
        {
          "midi": 48,
          "beat": 2,
          "dur": 0.33,
          "vel": 127,
          "clef": "bass",
          "pitch": "C3"
        },
        {
          "midi": 69,
          "beat": 2,
          "dur": 0.25,
          "vel": 127,
          "clef": "treble",
          "pitch": "A4"
        },
        {
          "midi": 81,
          "beat": 2.25,
          "dur": 0.25,
          "vel": 127,
          "clef": "treble",
          "pitch": "A5"
        },
        {
          "midi": 51,
          "beat": 2.33,
          "dur": 0.33,
          "vel": 127,
          "clef": "bass",
          "pitch": "D#3"
        },
        {
          "midi": 75,
          "beat": 2.5,
          "dur": 0.25,
          "vel": 127,
          "clef": "treble",
          "pitch": "D#5"
        },
        {
          "midi": 54,
          "beat": 2.67,
          "dur": 0.33,
          "vel": 127,
          "clef": "bass",
          "pitch": "F#3"
        },
        {
          "midi": 78,
          "beat": 2.75,
          "dur": 0.25,
          "vel": 127,
          "clef": "treble",
          "pitch": "F#5"
        },
        {
          "midi": 57,
          "beat": 3,
          "dur": 0.33,
          "vel": 127,
          "clef": "bass",
          "pitch": "A3"
        },
        {
          "midi": 69,
          "beat": 3,
          "dur": 0.25,
          "vel": 127,
          "clef": "treble",
          "pitch": "A4"
        },
        {
          "midi": 81,
          "beat": 3.25,
          "dur": 0.25,
          "vel": 127,
          "clef": "treble",
          "pitch": "A5"
        },
        {
          "midi": 54,
          "beat": 3.33,
          "dur": 0.33,
          "vel": 127,
          "clef": "bass",
          "pitch": "F#3"
        },
        {
          "midi": 75,
          "beat": 3.5,
          "dur": 0.25,
          "vel": 127,
          "clef": "treble",
          "pitch": "D#5"
        },
        {
          "midi": 51,
          "beat": 3.67,
          "dur": 0.33,
          "vel": 127,
          "clef": "bass",
          "pitch": "D#3"
        },
        {
          "midi": 78,
          "beat": 3.75,
          "dur": 0.25,
          "vel": 127,
          "clef": "treble",
          "pitch": "F#5"
        }
      ]
    },
    {
      "_": "Treble: 16 notes, Bass: 12 notes",
      "number": 22,
      "notes": [
        {
          "midi": 45,
          "beat": 0,
          "dur": 0.33,
          "vel": 127,
          "clef": "bass",
          "pitch": "A2"
        },
        {
          "midi": 72,
          "beat": 0,
          "dur": 0.25,
          "vel": 127,
          "clef": "treble",
          "pitch": "C5"
        },
        {
          "midi": 84,
          "beat": 0.25,
          "dur": 0.25,
          "vel": 127,
          "clef": "treble",
          "pitch": "C6"
        },
        {
          "midi": 51,
          "beat": 0.33,
          "dur": 0.33,
          "vel": 127,
          "clef": "bass",
          "pitch": "D#3"
        },
        {
          "midi": 75,
          "beat": 0.5,
          "dur": 0.25,
          "vel": 127,
          "clef": "treble",
          "pitch": "D#5"
        },
        {
          "midi": 54,
          "beat": 0.67,
          "dur": 0.33,
          "vel": 127,
          "clef": "bass",
          "pitch": "F#3"
        },
        {
          "midi": 78,
          "beat": 0.75,
          "dur": 0.25,
          "vel": 127,
          "clef": "treble",
          "pitch": "F#5"
        },
        {
          "midi": 59,
          "beat": 1,
          "dur": 0.33,
          "vel": 127,
          "clef": "bass",
          "pitch": "B3"
        },
        {
          "midi": 71,
          "beat": 1,
          "dur": 0.25,
          "vel": 127,
          "clef": "treble",
          "pitch": "B4"
        },
        {
          "midi": 83,
          "beat": 1.25,
          "dur": 0.25,
          "vel": 127,
          "clef": "treble",
          "pitch": "B5"
        },
        {
          "midi": 54,
          "beat": 1.33,
          "dur": 0.33,
          "vel": 127,
          "clef": "bass",
          "pitch": "F#3"
        },
        {
          "midi": 75,
          "beat": 1.5,
          "dur": 0.25,
          "vel": 127,
          "clef": "treble",
          "pitch": "D#5"
        },
        {
          "midi": 51,
          "beat": 1.67,
          "dur": 0.33,
          "vel": 127,
          "clef": "bass",
          "pitch": "D#3"
        },
        {
          "midi": 78,
          "beat": 1.75,
          "dur": 0.25,
          "vel": 127,
          "clef": "treble",
          "pitch": "F#5"
        },
        {
          "midi": 46,
          "beat": 2,
          "dur": 0.33,
          "vel": 127,
          "clef": "bass",
          "acc": "#",
          "pitch": "A#2"
        },
        {
          "midi": 71,
          "beat": 2,
          "dur": 0.25,
          "vel": 127,
          "clef": "treble",
          "pitch": "B4"
        },
        {
          "midi": 83,
          "beat": 2.25,
          "dur": 0.25,
          "vel": 127,
          "clef": "treble",
          "pitch": "B5"
        },
        {
          "midi": 51,
          "beat": 2.33,
          "dur": 0.33,
          "vel": 127,
          "clef": "bass",
          "pitch": "D#3"
        },
        {
          "midi": 75,
          "beat": 2.5,
          "dur": 0.25,
          "vel": 127,
          "clef": "treble",
          "pitch": "D#5"
        },
        {
          "midi": 54,
          "beat": 2.67,
          "dur": 0.33,
          "vel": 127,
          "clef": "bass",
          "pitch": "F#3"
        },
        {
          "midi": 78,
          "beat": 2.75,
          "dur": 0.25,
          "vel": 127,
          "clef": "treble",
          "pitch": "F#5"
        },
        {
          "midi": 58,
          "beat": 3,
          "dur": 0.33,
          "vel": 127,
          "clef": "bass",
          "acc": "#",
          "pitch": "A#3"
        },
        {
          "midi": 70,
          "beat": 3,
          "dur": 0.25,
          "vel": 127,
          "clef": "treble",
          "acc": "#",
          "pitch": "A#4"
        },
        {
          "midi": 82,
          "beat": 3.25,
          "dur": 0.25,
          "vel": 127,
          "clef": "treble",
          "acc": "#",
          "pitch": "A#5"
        },
        {
          "midi": 54,
          "beat": 3.33,
          "dur": 0.33,
          "vel": 127,
          "clef": "bass",
          "pitch": "F#3"
        },
        {
          "midi": 75,
          "beat": 3.5,
          "dur": 0.25,
          "vel": 127,
          "clef": "treble",
          "pitch": "D#5"
        },
        {
          "midi": 51,
          "beat": 3.67,
          "dur": 0.33,
          "vel": 127,
          "clef": "bass",
          "pitch": "D#3"
        },
        {
          "midi": 78,
          "beat": 3.75,
          "dur": 0.25,
          "vel": 127,
          "clef": "treble",
          "pitch": "F#5"
        }
      ]
    },
    {
      "_": "Treble: 16 notes, Bass: 12 notes",
      "number": 23,
      "notes": [
        {
          "midi": 47,
          "beat": 0,
          "dur": 0.33,
          "vel": 127,
          "clef": "bass",
          "pitch": "B2"
        },
        {
          "midi": 70,
          "beat": 0,
          "dur": 0.25,
          "vel": 127,
          "clef": "treble",
          "acc": "#",
          "pitch": "A#4"
        },
        {
          "midi": 82,
          "beat": 0.25,
          "dur": 0.25,
          "vel": 127,
          "clef": "treble",
          "acc": "#",
          "pitch": "A#5"
        },
        {
          "midi": 51,
          "beat": 0.33,
          "dur": 0.33,
          "vel": 127,
          "clef": "bass",
          "pitch": "D#3"
        },
        {
          "midi": 75,
          "beat": 0.5,
          "dur": 0.25,
          "vel": 127,
          "clef": "treble",
          "pitch": "D#5"
        },
        {
          "midi": 54,
          "beat": 0.67,
          "dur": 0.33,
          "vel": 127,
          "clef": "bass",
          "pitch": "F#3"
        },
        {
          "midi": 78,
          "beat": 0.75,
          "dur": 0.25,
          "vel": 127,
          "clef": "treble",
          "pitch": "F#5"
        },
        {
          "midi": 57,
          "beat": 1,
          "dur": 0.33,
          "vel": 127,
          "clef": "bass",
          "pitch": "A3"
        },
        {
          "midi": 69,
          "beat": 1,
          "dur": 0.25,
          "vel": 127,
          "clef": "treble",
          "pitch": "A4"
        },
        {
          "midi": 81,
          "beat": 1.25,
          "dur": 0.25,
          "vel": 127,
          "clef": "treble",
          "pitch": "A5"
        },
        {
          "midi": 54,
          "beat": 1.33,
          "dur": 0.33,
          "vel": 127,
          "clef": "bass",
          "pitch": "F#3"
        },
        {
          "midi": 75,
          "beat": 1.5,
          "dur": 0.25,
          "vel": 127,
          "clef": "treble",
          "pitch": "D#5"
        },
        {
          "midi": 51,
          "beat": 1.67,
          "dur": 0.33,
          "vel": 127,
          "clef": "bass",
          "pitch": "D#3"
        },
        {
          "midi": 78,
          "beat": 1.75,
          "dur": 0.25,
          "vel": 127,
          "clef": "treble",
          "pitch": "F#5"
        },
        {
          "midi": 48,
          "beat": 2,
          "dur": 0.33,
          "vel": 127,
          "clef": "bass",
          "pitch": "C3"
        },
        {
          "midi": 69,
          "beat": 2,
          "dur": 0.25,
          "vel": 127,
          "clef": "treble",
          "pitch": "A4"
        },
        {
          "midi": 81,
          "beat": 2.25,
          "dur": 0.25,
          "vel": 127,
          "clef": "treble",
          "pitch": "A5"
        },
        {
          "midi": 51,
          "beat": 2.33,
          "dur": 0.33,
          "vel": 127,
          "clef": "bass",
          "pitch": "D#3"
        },
        {
          "midi": 75,
          "beat": 2.5,
          "dur": 0.25,
          "vel": 127,
          "clef": "treble",
          "pitch": "D#5"
        },
        {
          "midi": 54,
          "beat": 2.67,
          "dur": 0.33,
          "vel": 127,
          "clef": "bass",
          "pitch": "F#3"
        },
        {
          "midi": 78,
          "beat": 2.75,
          "dur": 0.25,
          "vel": 127,
          "clef": "treble",
          "pitch": "F#5"
        },
        {
          "midi": 56,
          "beat": 3,
          "dur": 0.33,
          "vel": 127,
          "clef": "bass",
          "pitch": "G#3"
        },
        {
          "midi": 68,
          "beat": 3,
          "dur": 0.25,
          "vel": 127,
          "clef": "treble",
          "pitch": "G#4"
        },
        {
          "midi": 80,
          "beat": 3.25,
          "dur": 0.25,
          "vel": 127,
          "clef": "treble",
          "pitch": "G#5"
        },
        {
          "midi": 54,
          "beat": 3.33,
          "dur": 0.33,
          "vel": 127,
          "clef": "bass",
          "pitch": "F#3"
        },
        {
          "midi": 75,
          "beat": 3.5,
          "dur": 0.25,
          "vel": 127,
          "clef": "treble",
          "pitch": "D#5"
        },
        {
          "midi": 51,
          "beat": 3.67,
          "dur": 0.33,
          "vel": 127,
          "clef": "bass",
          "pitch": "D#3"
        },
        {
          "midi": 78,
          "beat": 3.75,
          "dur": 0.25,
          "vel": 127,
          "clef": "treble",
          "pitch": "F#5"
        }
      ]
    },
    {
      "_": "Treble: 15 notes, Bass: 12 notes",
      "number": 24,
      "notes": [
        {
          "midi": 49,
          "beat": 0,
          "dur": 0.33,
          "vel": 127,
          "clef": "bass",
          "pitch": "C#3"
        },
        {
          "midi": 68,
          "beat": 0.25,
          "dur": 0.25,
          "vel": 127,
          "clef": "treble",
          "pitch": "G#4"
        },
        {
          "midi": 56,
          "beat": 0.33,
          "dur": 0.33,
          "vel": 127,
          "clef": "bass",
          "pitch": "G#3"
        },
        {
          "midi": 69,
          "beat": 0.5,
          "dur": 0.25,
          "vel": 127,
          "clef": "treble",
          "pitch": "A4"
        },
        {
          "midi": 61,
          "beat": 0.67,
          "dur": 0.33,
          "vel": 127,
          "clef": "bass",
          "pitch": "C#4"
        },
        {
          "midi": 68,
          "beat": 0.75,
          "dur": 0.25,
          "vel": 127,
          "clef": "treble",
          "pitch": "G#4"
        },
        {
          "midi": 64,
          "beat": 1,
          "dur": 0.33,
          "vel": 127,
          "clef": "bass",
          "pitch": "E4"
        },
        {
          "midi": 67,
          "beat": 1,
          "dur": 0.25,
          "vel": 127,
          "clef": "treble",
          "pitch": "G4"
        },
        {
          "midi": 68,
          "beat": 1.25,
          "dur": 0.25,
          "vel": 127,
          "clef": "treble",
          "pitch": "G#4"
        },
        {
          "midi": 61,
          "beat": 1.33,
          "dur": 0.33,
          "vel": 127,
          "clef": "bass",
          "pitch": "C#4"
        },
        {
          "midi": 73,
          "beat": 1.5,
          "dur": 0.25,
          "vel": 127,
          "clef": "treble",
          "pitch": "C#5"
        },
        {
          "midi": 56,
          "beat": 1.67,
          "dur": 0.33,
          "vel": 127,
          "clef": "bass",
          "pitch": "G#3"
        },
        {
          "midi": 76,
          "beat": 1.75,
          "dur": 0.25,
          "vel": 127,
          "clef": "treble",
          "pitch": "E5"
        },
        {
          "midi": 52,
          "beat": 2,
          "dur": 0.33,
          "vel": 127,
          "clef": "bass",
          "pitch": "E3"
        },
        {
          "midi": 75,
          "beat": 2,
          "dur": 0.25,
          "vel": 127,
          "clef": "treble",
          "pitch": "D#5"
        },
        {
          "midi": 73,
          "beat": 2.25,
          "dur": 0.25,
          "vel": 127,
          "clef": "treble",
          "pitch": "C#5"
        },
        {
          "midi": 56,
          "beat": 2.33,
          "dur": 0.33,
          "vel": 127,
          "clef": "bass",
          "pitch": "G#3"
        },
        {
          "midi": 75,
          "beat": 2.5,
          "dur": 0.25,
          "vel": 127,
          "clef": "treble",
          "pitch": "D#5"
        },
        {
          "midi": 61,
          "beat": 2.67,
          "dur": 0.33,
          "vel": 127,
          "clef": "bass",
          "pitch": "C#4"
        },
        {
          "midi": 73,
          "beat": 2.75,
          "dur": 0.25,
          "vel": 127,
          "clef": "treble",
          "pitch": "C#5"
        },
        {
          "midi": 64,
          "beat": 3,
          "dur": 0.33,
          "vel": 127,
          "clef": "bass",
          "pitch": "E4"
        },
        {
          "midi": 72,
          "beat": 3,
          "dur": 0.25,
          "vel": 127,
          "clef": "treble",
          "pitch": "C5"
        },
        {
          "midi": 73,
          "beat": 3.25,
          "dur": 0.25,
          "vel": 127,
          "clef": "treble",
          "pitch": "C#5"
        },
        {
          "midi": 61,
          "beat": 3.33,
          "dur": 0.33,
          "vel": 127,
          "clef": "bass",
          "pitch": "C#4"
        },
        {
          "midi": 76,
          "beat": 3.5,
          "dur": 0.25,
          "vel": 127,
          "clef": "treble",
          "pitch": "E5"
        },
        {
          "midi": 56,
          "beat": 3.67,
          "dur": 0.33,
          "vel": 127,
          "clef": "bass",
          "pitch": "G#3"
        },
        {
          "midi": 80,
          "beat": 3.75,
          "dur": 0.25,
          "vel": 127,
          "clef": "treble",
          "pitch": "G#5"
        }
      ]
    },
    {
      "_": "Treble: 15 notes, Bass: 12 notes",
      "number": 25,
      "notes": [
        {
          "midi": 49,
          "beat": 0,
          "dur": 0.33,
          "vel": 127,
          "clef": "bass",
          "pitch": "C#3"
        },
        {
          "midi": 68,
          "beat": 0.25,
          "dur": 0.25,
          "vel": 127,
          "clef": "treble",
          "pitch": "G#4"
        },
        {
          "midi": 56,
          "beat": 0.33,
          "dur": 0.33,
          "vel": 127,
          "clef": "bass",
          "pitch": "G#3"
        },
        {
          "midi": 69,
          "beat": 0.5,
          "dur": 0.25,
          "vel": 127,
          "clef": "treble",
          "pitch": "A4"
        },
        {
          "midi": 61,
          "beat": 0.67,
          "dur": 0.33,
          "vel": 127,
          "clef": "bass",
          "pitch": "C#4"
        },
        {
          "midi": 68,
          "beat": 0.75,
          "dur": 0.25,
          "vel": 127,
          "clef": "treble",
          "pitch": "G#4"
        },
        {
          "midi": 64,
          "beat": 1,
          "dur": 0.33,
          "vel": 127,
          "clef": "bass",
          "pitch": "E4"
        },
        {
          "midi": 67,
          "beat": 1,
          "dur": 0.25,
          "vel": 127,
          "clef": "treble",
          "pitch": "G4"
        },
        {
          "midi": 68,
          "beat": 1.25,
          "dur": 0.25,
          "vel": 127,
          "clef": "treble",
          "pitch": "G#4"
        },
        {
          "midi": 61,
          "beat": 1.33,
          "dur": 0.33,
          "vel": 127,
          "clef": "bass",
          "pitch": "C#4"
        },
        {
          "midi": 73,
          "beat": 1.5,
          "dur": 0.25,
          "vel": 127,
          "clef": "treble",
          "pitch": "C#5"
        },
        {
          "midi": 56,
          "beat": 1.67,
          "dur": 0.33,
          "vel": 127,
          "clef": "bass",
          "pitch": "G#3"
        },
        {
          "midi": 76,
          "beat": 1.75,
          "dur": 0.25,
          "vel": 127,
          "clef": "treble",
          "pitch": "E5"
        },
        {
          "midi": 52,
          "beat": 2,
          "dur": 0.33,
          "vel": 127,
          "clef": "bass",
          "pitch": "E3"
        },
        {
          "midi": 75,
          "beat": 2,
          "dur": 0.25,
          "vel": 127,
          "clef": "treble",
          "pitch": "D#5"
        },
        {
          "midi": 73,
          "beat": 2.25,
          "dur": 0.25,
          "vel": 127,
          "clef": "treble",
          "pitch": "C#5"
        },
        {
          "midi": 56,
          "beat": 2.33,
          "dur": 0.33,
          "vel": 127,
          "clef": "bass",
          "pitch": "G#3"
        },
        {
          "midi": 75,
          "beat": 2.5,
          "dur": 0.25,
          "vel": 127,
          "clef": "treble",
          "pitch": "D#5"
        },
        {
          "midi": 61,
          "beat": 2.67,
          "dur": 0.33,
          "vel": 127,
          "clef": "bass",
          "pitch": "C#4"
        },
        {
          "midi": 73,
          "beat": 2.75,
          "dur": 0.25,
          "vel": 127,
          "clef": "treble",
          "pitch": "C#5"
        },
        {
          "midi": 64,
          "beat": 3,
          "dur": 0.33,
          "vel": 127,
          "clef": "bass",
          "pitch": "E4"
        },
        {
          "midi": 72,
          "beat": 3,
          "dur": 0.25,
          "vel": 127,
          "clef": "treble",
          "pitch": "C5"
        },
        {
          "midi": 73,
          "beat": 3.25,
          "dur": 0.25,
          "vel": 127,
          "clef": "treble",
          "pitch": "C#5"
        },
        {
          "midi": 61,
          "beat": 3.33,
          "dur": 0.33,
          "vel": 127,
          "clef": "bass",
          "pitch": "C#4"
        },
        {
          "midi": 76,
          "beat": 3.5,
          "dur": 0.25,
          "vel": 127,
          "clef": "treble",
          "pitch": "E5"
        },
        {
          "midi": 56,
          "beat": 3.67,
          "dur": 0.33,
          "vel": 127,
          "clef": "bass",
          "pitch": "G#3"
        },
        {
          "midi": 80,
          "beat": 3.75,
          "dur": 0.25,
          "vel": 127,
          "clef": "treble",
          "pitch": "G#5"
        }
      ]
    },
    {
      "_": "Treble: 15 notes, Bass: 12 notes",
      "number": 26,
      "notes": [
        {
          "midi": 51,
          "beat": 0,
          "dur": 0.33,
          "vel": 127,
          "clef": "bass",
          "pitch": "D#3"
        },
        {
          "midi": 69,
          "beat": 0.25,
          "dur": 0.25,
          "vel": 127,
          "clef": "treble",
          "pitch": "A4"
        },
        {
          "midi": 57,
          "beat": 0.33,
          "dur": 0.33,
          "vel": 127,
          "clef": "bass",
          "pitch": "A3"
        },
        {
          "midi": 73,
          "beat": 0.5,
          "dur": 0.25,
          "vel": 127,
          "clef": "treble",
          "pitch": "C#5"
        },
        {
          "midi": 61,
          "beat": 0.67,
          "dur": 0.33,
          "vel": 127,
          "clef": "bass",
          "pitch": "C#4"
        },
        {
          "midi": 75,
          "beat": 0.75,
          "dur": 0.25,
          "vel": 127,
          "clef": "treble",
          "pitch": "D#5"
        },
        {
          "midi": 66,
          "beat": 1,
          "dur": 0.33,
          "vel": 127,
          "clef": "bass",
          "pitch": "F#4"
        },
        {
          "midi": 78,
          "beat": 1,
          "dur": 0.25,
          "vel": 127,
          "clef": "treble",
          "pitch": "F#5"
        },
        {
          "midi": 81,
          "beat": 1.25,
          "dur": 0.25,
          "vel": 127,
          "clef": "treble",
          "pitch": "A5"
        },
        {
          "midi": 61,
          "beat": 1.33,
          "dur": 0.33,
          "vel": 127,
          "clef": "bass",
          "pitch": "C#4"
        },
        {
          "midi": 85,
          "beat": 1.5,
          "dur": 0.25,
          "vel": 127,
          "clef": "treble",
          "pitch": "C#6"
        },
        {
          "midi": 57,
          "beat": 1.67,
          "dur": 0.33,
          "vel": 127,
          "clef": "bass",
          "pitch": "A3"
        },
        {
          "midi": 87,
          "beat": 1.75,
          "dur": 0.25,
          "vel": 127,
          "clef": "treble",
          "pitch": "D#6"
        },
        {
          "midi": 54,
          "beat": 2,
          "dur": 0.33,
          "vel": 127,
          "clef": "bass",
          "pitch": "F#3"
        },
        {
          "midi": 95,
          "beat": 2,
          "dur": 0.25,
          "vel": 127,
          "clef": "treble",
          "pitch": "B6"
        },
        {
          "midi": 93,
          "beat": 2.25,
          "dur": 0.25,
          "vel": 127,
          "clef": "treble",
          "pitch": "A6"
        },
        {
          "midi": 61,
          "beat": 2.33,
          "dur": 0.33,
          "vel": 127,
          "clef": "bass",
          "pitch": "C#4"
        },
        {
          "midi": 92,
          "beat": 2.5,
          "dur": 0.25,
          "vel": 127,
          "clef": "treble",
          "pitch": "G#6"
        },
        {
          "midi": 63,
          "beat": 2.67,
          "dur": 0.33,
          "vel": 127,
          "clef": "bass",
          "pitch": "D#4"
        },
        {
          "midi": 90,
          "beat": 2.75,
          "dur": 0.25,
          "vel": 127,
          "clef": "treble",
          "pitch": "F#6"
        },
        {
          "midi": 69,
          "beat": 3,
          "dur": 0.33,
          "vel": 127,
          "clef": "bass",
          "pitch": "A4"
        },
        {
          "midi": 88,
          "beat": 3,
          "dur": 0.25,
          "vel": 127,
          "clef": "treble",
          "pitch": "E6"
        },
        {
          "midi": 87,
          "beat": 3.25,
          "dur": 0.25,
          "vel": 127,
          "clef": "treble",
          "pitch": "D#6"
        },
        {
          "midi": 63,
          "beat": 3.33,
          "dur": 0.33,
          "vel": 127,
          "clef": "bass",
          "pitch": "D#4"
        },
        {
          "midi": 90,
          "beat": 3.5,
          "dur": 0.25,
          "vel": 127,
          "clef": "treble",
          "pitch": "F#6"
        },
        {
          "midi": 61,
          "beat": 3.67,
          "dur": 0.33,
          "vel": 127,
          "clef": "bass",
          "pitch": "C#4"
        },
        {
          "midi": 85,
          "beat": 3.75,
          "dur": 0.25,
          "vel": 127,
          "clef": "treble",
          "pitch": "C#6"
        }
      ]
    },
    {
      "_": "Treble: 16 notes, Bass: 12 notes",
      "number": 27,
      "notes": [
        {
          "midi": 44,
          "beat": 0,
          "dur": 0.33,
          "vel": 127,
          "clef": "bass",
          "pitch": "G#2"
        },
        {
          "midi": 84,
          "beat": 0,
          "dur": 0.25,
          "vel": 127,
          "clef": "treble",
          "pitch": "C6"
        },
        {
          "midi": 87,
          "beat": 0.25,
          "dur": 0.25,
          "vel": 127,
          "clef": "treble",
          "pitch": "D#6"
        },
        {
          "midi": 51,
          "beat": 0.33,
          "dur": 0.33,
          "vel": 127,
          "clef": "bass",
          "pitch": "D#3"
        },
        {
          "midi": 81,
          "beat": 0.5,
          "dur": 0.25,
          "vel": 127,
          "clef": "treble",
          "pitch": "A5"
        },
        {
          "midi": 54,
          "beat": 0.67,
          "dur": 0.33,
          "vel": 127,
          "clef": "bass",
          "pitch": "F#3"
        },
        {
          "midi": 80,
          "beat": 0.75,
          "dur": 0.25,
          "vel": 127,
          "clef": "treble",
          "pitch": "G#5"
        },
        {
          "midi": 60,
          "beat": 1,
          "dur": 0.33,
          "vel": 127,
          "clef": "bass",
          "pitch": "C4"
        },
        {
          "midi": 78,
          "beat": 1,
          "dur": 0.25,
          "vel": 127,
          "clef": "treble",
          "pitch": "F#5"
        },
        {
          "midi": 81,
          "beat": 1.25,
          "dur": 0.25,
          "vel": 127,
          "clef": "treble",
          "pitch": "A5"
        },
        {
          "midi": 54,
          "beat": 1.33,
          "dur": 0.33,
          "vel": 127,
          "clef": "bass",
          "pitch": "F#3"
        },
        {
          "midi": 76,
          "beat": 1.5,
          "dur": 0.25,
          "vel": 127,
          "clef": "treble",
          "pitch": "E5"
        },
        {
          "midi": 51,
          "beat": 1.67,
          "dur": 0.33,
          "vel": 127,
          "clef": "bass",
          "pitch": "D#3"
        },
        {
          "midi": 75,
          "beat": 1.75,
          "dur": 0.25,
          "vel": 127,
          "clef": "treble",
          "pitch": "D#5"
        },
        {
          "midi": 44,
          "beat": 2,
          "dur": 0.33,
          "vel": 127,
          "clef": "bass",
          "pitch": "G#2"
        },
        {
          "midi": 78,
          "beat": 2,
          "dur": 0.25,
          "vel": 127,
          "clef": "treble",
          "pitch": "F#5"
        },
        {
          "midi": 73,
          "beat": 2.25,
          "dur": 0.25,
          "vel": 127,
          "clef": "treble",
          "pitch": "C#5"
        },
        {
          "midi": 51,
          "beat": 2.33,
          "dur": 0.33,
          "vel": 127,
          "clef": "bass",
          "pitch": "D#3"
        },
        {
          "midi": 72,
          "beat": 2.5,
          "dur": 0.25,
          "vel": 127,
          "clef": "treble",
          "pitch": "C5"
        },
        {
          "midi": 54,
          "beat": 2.67,
          "dur": 0.33,
          "vel": 127,
          "clef": "bass",
          "pitch": "F#3"
        },
        {
          "midi": 75,
          "beat": 2.75,
          "dur": 0.25,
          "vel": 127,
          "clef": "treble",
          "pitch": "D#5"
        },
        {
          "midi": 60,
          "beat": 3,
          "dur": 0.33,
          "vel": 127,
          "clef": "bass",
          "pitch": "C4"
        },
        {
          "midi": 69,
          "beat": 3,
          "dur": 0.25,
          "vel": 127,
          "clef": "treble",
          "pitch": "A4"
        },
        {
          "midi": 68,
          "beat": 3.25,
          "dur": 0.25,
          "vel": 127,
          "clef": "treble",
          "pitch": "G#4"
        },
        {
          "midi": 54,
          "beat": 3.33,
          "dur": 0.33,
          "vel": 127,
          "clef": "bass",
          "pitch": "F#3"
        },
        {
          "midi": 71,
          "beat": 3.5,
          "dur": 0.25,
          "vel": 127,
          "clef": "treble",
          "pitch": "B4"
        },
        {
          "midi": 51,
          "beat": 3.67,
          "dur": 0.33,
          "vel": 127,
          "clef": "bass",
          "pitch": "D#3"
        },
        {
          "midi": 69,
          "beat": 3.75,
          "dur": 0.25,
          "vel": 127,
          "clef": "treble",
          "pitch": "A4"
        }
      ]
    },
    {
      "_": "Treble: 15 notes, Bass: 12 notes",
      "number": 28,
      "notes": [
        {
          "midi": 49,
          "beat": 0,
          "dur": 0.33,
          "vel": 127,
          "clef": "bass",
          "pitch": "C#3"
        },
        {
          "midi": 68,
          "beat": 0.25,
          "dur": 0.25,
          "vel": 127,
          "clef": "treble",
          "pitch": "G#4"
        },
        {
          "midi": 56,
          "beat": 0.33,
          "dur": 0.33,
          "vel": 127,
          "clef": "bass",
          "pitch": "G#3"
        },
        {
          "midi": 69,
          "beat": 0.5,
          "dur": 0.25,
          "vel": 127,
          "clef": "treble",
          "pitch": "A4"
        },
        {
          "midi": 61,
          "beat": 0.67,
          "dur": 0.33,
          "vel": 127,
          "clef": "bass",
          "pitch": "C#4"
        },
        {
          "midi": 68,
          "beat": 0.75,
          "dur": 0.25,
          "vel": 127,
          "clef": "treble",
          "pitch": "G#4"
        },
        {
          "midi": 64,
          "beat": 1,
          "dur": 0.33,
          "vel": 127,
          "clef": "bass",
          "pitch": "E4"
        },
        {
          "midi": 67,
          "beat": 1,
          "dur": 0.25,
          "vel": 127,
          "clef": "treble",
          "pitch": "G4"
        },
        {
          "midi": 68,
          "beat": 1.25,
          "dur": 0.25,
          "vel": 127,
          "clef": "treble",
          "pitch": "G#4"
        },
        {
          "midi": 61,
          "beat": 1.33,
          "dur": 0.33,
          "vel": 127,
          "clef": "bass",
          "pitch": "C#4"
        },
        {
          "midi": 73,
          "beat": 1.5,
          "dur": 0.25,
          "vel": 127,
          "clef": "treble",
          "pitch": "C#5"
        },
        {
          "midi": 56,
          "beat": 1.67,
          "dur": 0.33,
          "vel": 127,
          "clef": "bass",
          "pitch": "G#3"
        },
        {
          "midi": 76,
          "beat": 1.75,
          "dur": 0.25,
          "vel": 127,
          "clef": "treble",
          "pitch": "E5"
        },
        {
          "midi": 52,
          "beat": 2,
          "dur": 0.33,
          "vel": 127,
          "clef": "bass",
          "pitch": "E3"
        },
        {
          "midi": 75,
          "beat": 2,
          "dur": 0.25,
          "vel": 127,
          "clef": "treble",
          "pitch": "D#5"
        },
        {
          "midi": 73,
          "beat": 2.25,
          "dur": 0.25,
          "vel": 127,
          "clef": "treble",
          "pitch": "C#5"
        },
        {
          "midi": 56,
          "beat": 2.33,
          "dur": 0.33,
          "vel": 127,
          "clef": "bass",
          "pitch": "G#3"
        },
        {
          "midi": 75,
          "beat": 2.5,
          "dur": 0.25,
          "vel": 127,
          "clef": "treble",
          "pitch": "D#5"
        },
        {
          "midi": 61,
          "beat": 2.67,
          "dur": 0.33,
          "vel": 127,
          "clef": "bass",
          "pitch": "C#4"
        },
        {
          "midi": 73,
          "beat": 2.75,
          "dur": 0.25,
          "vel": 127,
          "clef": "treble",
          "pitch": "C#5"
        },
        {
          "midi": 64,
          "beat": 3,
          "dur": 0.33,
          "vel": 127,
          "clef": "bass",
          "pitch": "E4"
        },
        {
          "midi": 72,
          "beat": 3,
          "dur": 0.25,
          "vel": 127,
          "clef": "treble",
          "pitch": "C5"
        },
        {
          "midi": 73,
          "beat": 3.25,
          "dur": 0.25,
          "vel": 127,
          "clef": "treble",
          "pitch": "C#5"
        },
        {
          "midi": 61,
          "beat": 3.33,
          "dur": 0.33,
          "vel": 127,
          "clef": "bass",
          "pitch": "C#4"
        },
        {
          "midi": 76,
          "beat": 3.5,
          "dur": 0.25,
          "vel": 127,
          "clef": "treble",
          "pitch": "E5"
        },
        {
          "midi": 56,
          "beat": 3.67,
          "dur": 0.33,
          "vel": 127,
          "clef": "bass",
          "pitch": "G#3"
        },
        {
          "midi": 80,
          "beat": 3.75,
          "dur": 0.25,
          "vel": 127,
          "clef": "treble",
          "pitch": "G#5"
        }
      ]
    },
    {
      "_": "Treble: 16 notes, Bass: 12 notes",
      "number": 29,
      "notes": [
        {
          "midi": 54,
          "beat": 0,
          "dur": 0.33,
          "vel": 127,
          "clef": "bass",
          "pitch": "F#3"
        },
        {
          "midi": 76,
          "beat": 0,
          "dur": 0.25,
          "vel": 127,
          "clef": "treble",
          "pitch": "E5"
        },
        {
          "midi": 75,
          "beat": 0.25,
          "dur": 0.25,
          "vel": 127,
          "clef": "treble",
          "pitch": "D#5"
        },
        {
          "midi": 61,
          "beat": 0.33,
          "dur": 0.33,
          "vel": 127,
          "clef": "bass",
          "pitch": "C#4"
        },
        {
          "midi": 76,
          "beat": 0.5,
          "dur": 0.25,
          "vel": 127,
          "clef": "treble",
          "pitch": "E5"
        },
        {
          "midi": 63,
          "beat": 0.67,
          "dur": 0.33,
          "vel": 127,
          "clef": "bass",
          "pitch": "D#4"
        },
        {
          "midi": 75,
          "beat": 0.75,
          "dur": 0.25,
          "vel": 127,
          "clef": "treble",
          "pitch": "D#5"
        },
        {
          "midi": 69,
          "beat": 1,
          "dur": 0.33,
          "vel": 127,
          "clef": "bass",
          "pitch": "A4"
        },
        {
          "midi": 74,
          "beat": 1,
          "dur": 0.25,
          "vel": 127,
          "clef": "treble",
          "acc": "n",
          "pitch": "D5"
        },
        {
          "midi": 75,
          "beat": 1.25,
          "dur": 0.25,
          "vel": 127,
          "clef": "treble",
          "pitch": "D#5"
        },
        {
          "midi": 63,
          "beat": 1.33,
          "dur": 0.33,
          "vel": 127,
          "clef": "bass",
          "pitch": "D#4"
        },
        {
          "midi": 78,
          "beat": 1.5,
          "dur": 0.25,
          "vel": 127,
          "clef": "treble",
          "pitch": "F#5"
        },
        {
          "midi": 61,
          "beat": 1.67,
          "dur": 0.33,
          "vel": 127,
          "clef": "bass",
          "pitch": "C#4"
        },
        {
          "midi": 81,
          "beat": 1.75,
          "dur": 0.25,
          "vel": 127,
          "clef": "treble",
          "pitch": "A5"
        },
        {
          "midi": 56,
          "beat": 2,
          "dur": 0.33,
          "vel": 127,
          "clef": "bass",
          "pitch": "G#3"
        },
        {
          "midi": 78,
          "beat": 2,
          "dur": 0.25,
          "vel": 127,
          "clef": "treble",
          "pitch": "F#5"
        },
        {
          "midi": 77,
          "beat": 2.25,
          "dur": 0.25,
          "vel": 127,
          "clef": "treble",
          "acc": "n",
          "pitch": "F5"
        },
        {
          "midi": 61,
          "beat": 2.33,
          "dur": 0.33,
          "vel": 127,
          "clef": "bass",
          "pitch": "C#4"
        },
        {
          "midi": 78,
          "beat": 2.5,
          "dur": 0.25,
          "vel": 127,
          "clef": "treble",
          "pitch": "F#5"
        },
        {
          "midi": 65,
          "beat": 2.67,
          "dur": 0.33,
          "vel": 127,
          "clef": "bass",
          "pitch": "F4"
        },
        {
          "midi": 77,
          "beat": 2.75,
          "dur": 0.25,
          "vel": 127,
          "clef": "treble",
          "acc": "n",
          "pitch": "F5"
        },
        {
          "midi": 71,
          "beat": 3,
          "dur": 0.33,
          "vel": 127,
          "clef": "bass",
          "pitch": "B4"
        },
        {
          "midi": 76,
          "beat": 3,
          "dur": 0.25,
          "vel": 127,
          "clef": "treble",
          "pitch": "E5"
        },
        {
          "midi": 77,
          "beat": 3.25,
          "dur": 0.25,
          "vel": 127,
          "clef": "treble",
          "acc": "n",
          "pitch": "F5"
        },
        {
          "midi": 65,
          "beat": 3.33,
          "dur": 0.33,
          "vel": 127,
          "clef": "bass",
          "pitch": "F4"
        },
        {
          "midi": 80,
          "beat": 3.5,
          "dur": 0.25,
          "vel": 127,
          "clef": "treble",
          "pitch": "G#5"
        },
        {
          "midi": 61,
          "beat": 3.67,
          "dur": 0.33,
          "vel": 127,
          "clef": "bass",
          "pitch": "C#4"
        },
        {
          "midi": 85,
          "beat": 3.75,
          "dur": 0.25,
          "vel": 127,
          "clef": "treble",
          "pitch": "C#6"
        }
      ]
    },
    {
      "_": "Treble: 15 notes, Bass: 12 notes",
      "number": 30,
      "notes": [
        {
          "midi": 57,
          "beat": 0,
          "dur": 0.33,
          "vel": 127,
          "clef": "bass",
          "pitch": "A3"
        },
        {
          "midi": 73,
          "beat": 0.25,
          "dur": 0.25,
          "vel": 127,
          "clef": "treble",
          "pitch": "C#5"
        },
        {
          "midi": 61,
          "beat": 0.33,
          "dur": 0.33,
          "vel": 127,
          "clef": "bass",
          "pitch": "C#4"
        },
        {
          "midi": 74,
          "beat": 0.5,
          "dur": 0.25,
          "vel": 127,
          "clef": "treble",
          "acc": "n",
          "pitch": "D5"
        },
        {
          "midi": 66,
          "beat": 0.67,
          "dur": 0.33,
          "vel": 127,
          "clef": "bass",
          "pitch": "F#4"
        },
        {
          "midi": 73,
          "beat": 0.75,
          "dur": 0.25,
          "vel": 127,
          "clef": "treble",
          "pitch": "C#5"
        },
        {
          "midi": 69,
          "beat": 1,
          "dur": 0.33,
          "vel": 127,
          "clef": "bass",
          "pitch": "A4"
        },
        {
          "midi": 72,
          "beat": 1,
          "dur": 0.25,
          "vel": 127,
          "clef": "treble",
          "acc": "n",
          "pitch": "C5"
        },
        {
          "midi": 73,
          "beat": 1.25,
          "dur": 0.25,
          "vel": 127,
          "clef": "treble",
          "pitch": "C#5"
        },
        {
          "midi": 66,
          "beat": 1.33,
          "dur": 0.33,
          "vel": 127,
          "clef": "bass",
          "pitch": "F#4"
        },
        {
          "midi": 78,
          "beat": 1.5,
          "dur": 0.25,
          "vel": 127,
          "clef": "treble",
          "pitch": "F#5"
        },
        {
          "midi": 61,
          "beat": 1.67,
          "dur": 0.33,
          "vel": 127,
          "clef": "bass",
          "pitch": "C#4"
        },
        {
          "midi": 81,
          "beat": 1.75,
          "dur": 0.25,
          "vel": 127,
          "clef": "treble",
          "pitch": "A5"
        },
        {
          "midi": 56,
          "beat": 2,
          "dur": 0.33,
          "vel": 127,
          "clef": "bass",
          "pitch": "G#3"
        },
        {
          "midi": 78,
          "beat": 2,
          "dur": 0.25,
          "vel": 127,
          "clef": "treble",
          "pitch": "F#5"
        },
        {
          "midi": 77,
          "beat": 2.25,
          "dur": 0.25,
          "vel": 127,
          "clef": "treble",
          "acc": "n",
          "pitch": "F5"
        },
        {
          "midi": 61,
          "beat": 2.33,
          "dur": 0.33,
          "vel": 127,
          "clef": "bass",
          "pitch": "C#4"
        },
        {
          "midi": 78,
          "beat": 2.5,
          "dur": 0.25,
          "vel": 127,
          "clef": "treble",
          "pitch": "F#5"
        },
        {
          "midi": 65,
          "beat": 2.67,
          "dur": 0.33,
          "vel": 127,
          "clef": "bass",
          "pitch": "F4"
        },
        {
          "midi": 77,
          "beat": 2.75,
          "dur": 0.25,
          "vel": 127,
          "clef": "treble",
          "acc": "n",
          "pitch": "F5"
        },
        {
          "midi": 71,
          "beat": 3,
          "dur": 0.33,
          "vel": 127,
          "clef": "bass",
          "pitch": "B4"
        },
        {
          "midi": 76,
          "beat": 3,
          "dur": 0.25,
          "vel": 127,
          "clef": "treble",
          "pitch": "E5"
        },
        {
          "midi": 77,
          "beat": 3.25,
          "dur": 0.25,
          "vel": 127,
          "clef": "treble",
          "acc": "n",
          "pitch": "F5"
        },
        {
          "midi": 65,
          "beat": 3.33,
          "dur": 0.33,
          "vel": 127,
          "clef": "bass",
          "pitch": "F4"
        },
        {
          "midi": 80,
          "beat": 3.5,
          "dur": 0.25,
          "vel": 127,
          "clef": "treble",
          "pitch": "G#5"
        },
        {
          "midi": 61,
          "beat": 3.67,
          "dur": 0.33,
          "vel": 127,
          "clef": "bass",
          "pitch": "C#4"
        },
        {
          "midi": 85,
          "beat": 3.75,
          "dur": 0.25,
          "vel": 127,
          "clef": "treble",
          "pitch": "C#6"
        }
      ]
    },
    {
      "_": "Treble: 16 notes, Bass: 12 notes",
      "number": 31,
      "notes": [
        {
          "midi": 57,
          "beat": 0,
          "dur": 0.33,
          "vel": 127,
          "clef": "bass",
          "pitch": "A3"
        },
        {
          "midi": 80,
          "beat": 0,
          "dur": 0.25,
          "vel": 127,
          "clef": "treble",
          "pitch": "G#5"
        },
        {
          "midi": 78,
          "beat": 0.25,
          "dur": 0.25,
          "vel": 127,
          "clef": "treble",
          "pitch": "F#5"
        },
        {
          "midi": 61,
          "beat": 0.33,
          "dur": 0.33,
          "vel": 127,
          "clef": "bass",
          "pitch": "C#4"
        },
        {
          "midi": 80,
          "beat": 0.5,
          "dur": 0.25,
          "vel": 127,
          "clef": "treble",
          "pitch": "G#5"
        },
        {
          "midi": 66,
          "beat": 0.67,
          "dur": 0.33,
          "vel": 127,
          "clef": "bass",
          "pitch": "F#4"
        },
        {
          "midi": 78,
          "beat": 0.75,
          "dur": 0.25,
          "vel": 127,
          "clef": "treble",
          "pitch": "F#5"
        },
        {
          "midi": 69,
          "beat": 1,
          "dur": 0.33,
          "vel": 127,
          "clef": "bass",
          "pitch": "A4"
        },
        {
          "midi": 77,
          "beat": 1,
          "dur": 0.25,
          "vel": 127,
          "clef": "treble",
          "pitch": "F5"
        },
        {
          "midi": 78,
          "beat": 1.25,
          "dur": 0.25,
          "vel": 127,
          "clef": "treble",
          "pitch": "F#5"
        },
        {
          "midi": 66,
          "beat": 1.33,
          "dur": 0.33,
          "vel": 127,
          "clef": "bass",
          "pitch": "F#4"
        },
        {
          "midi": 81,
          "beat": 1.5,
          "dur": 0.25,
          "vel": 127,
          "clef": "treble",
          "pitch": "A5"
        },
        {
          "midi": 61,
          "beat": 1.67,
          "dur": 0.33,
          "vel": 127,
          "clef": "bass",
          "pitch": "C#4"
        },
        {
          "midi": 85,
          "beat": 1.75,
          "dur": 0.25,
          "vel": 127,
          "clef": "treble",
          "pitch": "C#6"
        },
        {
          "midi": 48,
          "beat": 2,
          "dur": 0.33,
          "vel": 127,
          "clef": "bass",
          "pitch": "C3"
        },
        {
          "midi": 81,
          "beat": 2,
          "dur": 0.25,
          "vel": 127,
          "clef": "treble",
          "pitch": "A5"
        },
        {
          "midi": 80,
          "beat": 2.25,
          "dur": 0.25,
          "vel": 127,
          "clef": "treble",
          "pitch": "G#5"
        },
        {
          "midi": 54,
          "beat": 2.33,
          "dur": 0.33,
          "vel": 127,
          "clef": "bass",
          "pitch": "F#3"
        },
        {
          "midi": 81,
          "beat": 2.5,
          "dur": 0.25,
          "vel": 127,
          "clef": "treble",
          "pitch": "A5"
        },
        {
          "midi": 56,
          "beat": 2.67,
          "dur": 0.33,
          "vel": 127,
          "clef": "bass",
          "pitch": "G#3"
        },
        {
          "midi": 80,
          "beat": 2.75,
          "dur": 0.25,
          "vel": 127,
          "clef": "treble",
          "pitch": "G#5"
        },
        {
          "midi": 63,
          "beat": 3,
          "dur": 0.33,
          "vel": 127,
          "clef": "bass",
          "pitch": "D#4"
        },
        {
          "midi": 79,
          "beat": 3,
          "dur": 0.25,
          "vel": 127,
          "clef": "treble",
          "pitch": "G5"
        },
        {
          "midi": 80,
          "beat": 3.25,
          "dur": 0.25,
          "vel": 127,
          "clef": "treble",
          "pitch": "G#5"
        },
        {
          "midi": 56,
          "beat": 3.33,
          "dur": 0.33,
          "vel": 127,
          "clef": "bass",
          "pitch": "G#3"
        },
        {
          "midi": 84,
          "beat": 3.5,
          "dur": 0.25,
          "vel": 127,
          "clef": "treble",
          "pitch": "C6"
        },
        {
          "midi": 54,
          "beat": 3.67,
          "dur": 0.33,
          "vel": 127,
          "clef": "bass",
          "pitch": "F#3"
        },
        {
          "midi": 87,
          "beat": 3.75,
          "dur": 0.25,
          "vel": 127,
          "clef": "treble",
          "pitch": "D#6"
        }
      ]
    },
    {
      "_": "Treble: 16 notes, Bass: 12 notes",
      "number": 32,
      "notes": [
        {
          "midi": 49,
          "beat": 0,
          "dur": 0.33,
          "vel": 127,
          "clef": "bass",
          "pitch": "C#3"
        },
        {
          "midi": 80,
          "beat": 0,
          "dur": 0.25,
          "vel": 127,
          "clef": "treble",
          "pitch": "G#5"
        },
        {
          "midi": 81,
          "beat": 0.25,
          "dur": 0.25,
          "vel": 127,
          "clef": "treble",
          "pitch": "A5"
        },
        {
          "midi": 56,
          "beat": 0.33,
          "dur": 0.33,
          "vel": 127,
          "clef": "bass",
          "pitch": "G#3"
        },
        {
          "midi": 80,
          "beat": 0.5,
          "dur": 0.25,
          "vel": 127,
          "clef": "treble",
          "pitch": "G#5"
        },
        {
          "midi": 61,
          "beat": 0.67,
          "dur": 0.33,
          "vel": 127,
          "clef": "bass",
          "pitch": "C#4"
        },
        {
          "midi": 79,
          "beat": 0.75,
          "dur": 0.25,
          "vel": 127,
          "clef": "treble",
          "acc": "n",
          "pitch": "G5"
        },
        {
          "midi": 64,
          "beat": 1,
          "dur": 0.33,
          "vel": 127,
          "clef": "bass",
          "pitch": "E4"
        },
        {
          "midi": 80,
          "beat": 1,
          "dur": 0.25,
          "vel": 127,
          "clef": "treble",
          "pitch": "G#5"
        },
        {
          "midi": 88,
          "beat": 1.25,
          "dur": 0.25,
          "vel": 127,
          "clef": "treble",
          "pitch": "E6"
        },
        {
          "midi": 61,
          "beat": 1.33,
          "dur": 0.33,
          "vel": 127,
          "clef": "bass",
          "pitch": "C#4"
        },
        {
          "midi": 87,
          "beat": 1.5,
          "dur": 0.25,
          "vel": 127,
          "clef": "treble",
          "pitch": "D#6"
        },
        {
          "midi": 56,
          "beat": 1.67,
          "dur": 0.33,
          "vel": 127,
          "clef": "bass",
          "pitch": "G#3"
        },
        {
          "midi": 86,
          "beat": 1.75,
          "dur": 0.25,
          "vel": 127,
          "clef": "treble",
          "acc": "n",
          "pitch": "D6"
        },
        {
          "midi": 51,
          "beat": 2,
          "dur": 0.33,
          "vel": 127,
          "clef": "bass",
          "pitch": "D#3"
        },
        {
          "midi": 85,
          "beat": 2,
          "dur": 0.25,
          "vel": 127,
          "clef": "treble",
          "pitch": "C#6"
        },
        {
          "midi": 84,
          "beat": 2.25,
          "dur": 0.25,
          "vel": 127,
          "clef": "treble",
          "acc": "n",
          "pitch": "C6"
        },
        {
          "midi": 56,
          "beat": 2.33,
          "dur": 0.33,
          "vel": 127,
          "clef": "bass",
          "pitch": "G#3"
        },
        {
          "midi": 83,
          "beat": 2.5,
          "dur": 0.25,
          "vel": 127,
          "clef": "treble",
          "pitch": "B5"
        },
        {
          "midi": 60,
          "beat": 2.67,
          "dur": 0.33,
          "vel": 127,
          "clef": "bass",
          "pitch": "C4"
        },
        {
          "midi": 82,
          "beat": 2.75,
          "dur": 0.25,
          "vel": 127,
          "clef": "treble",
          "acc": "#",
          "pitch": "A#5"
        },
        {
          "midi": 66,
          "beat": 3,
          "dur": 0.33,
          "vel": 127,
          "clef": "bass",
          "pitch": "F#4"
        },
        {
          "midi": 81,
          "beat": 3,
          "dur": 0.25,
          "vel": 127,
          "clef": "treble",
          "pitch": "A5"
        },
        {
          "midi": 80,
          "beat": 3.25,
          "dur": 0.25,
          "vel": 127,
          "clef": "treble",
          "pitch": "G#5"
        },
        {
          "midi": 60,
          "beat": 3.33,
          "dur": 0.33,
          "vel": 127,
          "clef": "bass",
          "pitch": "C4"
        },
        {
          "midi": 79,
          "beat": 3.5,
          "dur": 0.25,
          "vel": 127,
          "clef": "treble",
          "acc": "n",
          "pitch": "G5"
        },
        {
          "midi": 56,
          "beat": 3.67,
          "dur": 0.33,
          "vel": 127,
          "clef": "bass",
          "pitch": "G#3"
        },
        {
          "midi": 78,
          "beat": 3.75,
          "dur": 0.25,
          "vel": 127,
          "clef": "treble",
          "pitch": "F#5"
        }
      ]
    },
    {
      "_": "Treble: 16 notes, Bass: 12 notes",
      "number": 33,
      "notes": [
        {
          "midi": 49,
          "beat": 0,
          "dur": 0.33,
          "vel": 127,
          "clef": "bass",
          "pitch": "C#3"
        },
        {
          "midi": 76,
          "beat": 0,
          "dur": 0.25,
          "vel": 127,
          "clef": "treble",
          "pitch": "E5"
        },
        {
          "midi": 78,
          "beat": 0.25,
          "dur": 0.25,
          "vel": 127,
          "clef": "treble",
          "pitch": "F#5"
        },
        {
          "midi": 56,
          "beat": 0.33,
          "dur": 0.33,
          "vel": 127,
          "clef": "bass",
          "pitch": "G#3"
        },
        {
          "midi": 76,
          "beat": 0.5,
          "dur": 0.25,
          "vel": 127,
          "clef": "treble",
          "pitch": "E5"
        },
        {
          "midi": 61,
          "beat": 0.67,
          "dur": 0.33,
          "vel": 127,
          "clef": "bass",
          "pitch": "C#4"
        },
        {
          "midi": 75,
          "beat": 0.75,
          "dur": 0.25,
          "vel": 127,
          "clef": "treble",
          "pitch": "D#5"
        },
        {
          "midi": 64,
          "beat": 1,
          "dur": 0.33,
          "vel": 127,
          "clef": "bass",
          "pitch": "E4"
        },
        {
          "midi": 76,
          "beat": 1,
          "dur": 0.25,
          "vel": 127,
          "clef": "treble",
          "pitch": "E5"
        },
        {
          "midi": 88,
          "beat": 1.25,
          "dur": 0.25,
          "vel": 127,
          "clef": "treble",
          "pitch": "E6"
        },
        {
          "midi": 61,
          "beat": 1.33,
          "dur": 0.33,
          "vel": 127,
          "clef": "bass",
          "pitch": "C#4"
        },
        {
          "midi": 87,
          "beat": 1.5,
          "dur": 0.25,
          "vel": 127,
          "clef": "treble",
          "pitch": "D#6"
        },
        {
          "midi": 56,
          "beat": 1.67,
          "dur": 0.33,
          "vel": 127,
          "clef": "bass",
          "pitch": "G#3"
        },
        {
          "midi": 86,
          "beat": 1.75,
          "dur": 0.25,
          "vel": 127,
          "clef": "treble",
          "acc": "n",
          "pitch": "D6"
        },
        {
          "midi": 54,
          "beat": 2,
          "dur": 0.33,
          "vel": 127,
          "clef": "bass",
          "pitch": "F#3"
        },
        {
          "midi": 85,
          "beat": 2,
          "dur": 0.25,
          "vel": 127,
          "clef": "treble",
          "pitch": "C#6"
        },
        {
          "midi": 84,
          "beat": 2.25,
          "dur": 0.25,
          "vel": 127,
          "clef": "treble",
          "acc": "n",
          "pitch": "C6"
        },
        {
          "midi": 61,
          "beat": 2.33,
          "dur": 0.33,
          "vel": 127,
          "clef": "bass",
          "pitch": "C#4"
        },
        {
          "midi": 83,
          "beat": 2.5,
          "dur": 0.25,
          "vel": 127,
          "clef": "treble",
          "pitch": "B5"
        },
        {
          "midi": 63,
          "beat": 2.67,
          "dur": 0.33,
          "vel": 127,
          "clef": "bass",
          "pitch": "D#4"
        },
        {
          "midi": 82,
          "beat": 2.75,
          "dur": 0.25,
          "vel": 127,
          "clef": "treble",
          "acc": "#",
          "pitch": "A#5"
        },
        {
          "midi": 69,
          "beat": 3,
          "dur": 0.33,
          "vel": 127,
          "clef": "bass",
          "pitch": "A4"
        },
        {
          "midi": 81,
          "beat": 3,
          "dur": 0.25,
          "vel": 127,
          "clef": "treble",
          "pitch": "A5"
        },
        {
          "midi": 80,
          "beat": 3.25,
          "dur": 0.25,
          "vel": 127,
          "clef": "treble",
          "pitch": "G#5"
        },
        {
          "midi": 63,
          "beat": 3.33,
          "dur": 0.33,
          "vel": 127,
          "clef": "bass",
          "pitch": "D#4"
        },
        {
          "midi": 79,
          "beat": 3.5,
          "dur": 0.25,
          "vel": 127,
          "clef": "treble",
          "acc": "n",
          "pitch": "G5"
        },
        {
          "midi": 61,
          "beat": 3.67,
          "dur": 0.33,
          "vel": 127,
          "clef": "bass",
          "pitch": "C#4"
        },
        {
          "midi": 78,
          "beat": 3.75,
          "dur": 0.25,
          "vel": 127,
          "clef": "treble",
          "pitch": "F#5"
        }
      ]
    },
    {
      "_": "Treble: 15 notes, Bass: 8 notes",
      "number": 34,
      "notes": [
        {
          "midi": 56,
          "beat": 0,
          "dur": 0.5,
          "vel": 127,
          "clef": "bass",
          "pitch": "G#3"
        },
        {
          "midi": 61,
          "beat": 0,
          "dur": 0.5,
          "vel": 127,
          "clef": "bass",
          "pitch": "C#4"
        },
        {
          "midi": 64,
          "beat": 0,
          "dur": 0.5,
          "vel": 127,
          "clef": "bass",
          "pitch": "E4"
        },
        {
          "midi": 68,
          "beat": 0,
          "dur": 0.5,
          "vel": 127,
          "clef": "bass",
          "pitch": "G#4"
        },
        {
          "midi": 80,
          "beat": 0,
          "dur": 0.25,
          "vel": 127,
          "clef": "treble",
          "pitch": "G#5"
        },
        {
          "midi": 92,
          "beat": 0.5,
          "dur": 0.25,
          "vel": 127,
          "clef": "treble",
          "pitch": "G#6"
        },
        {
          "midi": 91,
          "beat": 0.75,
          "dur": 0.25,
          "vel": 127,
          "clef": "treble",
          "acc": "n",
          "pitch": "G6"
        },
        {
          "midi": 90,
          "beat": 1,
          "dur": 0.25,
          "vel": 127,
          "clef": "treble",
          "pitch": "F#6"
        },
        {
          "midi": 89,
          "beat": 1.25,
          "dur": 0.25,
          "vel": 127,
          "clef": "treble",
          "acc": "n",
          "pitch": "F6"
        },
        {
          "midi": 88,
          "beat": 1.5,
          "dur": 0.25,
          "vel": 127,
          "clef": "treble",
          "pitch": "E6"
        },
        {
          "midi": 87,
          "beat": 1.75,
          "dur": 0.25,
          "vel": 127,
          "clef": "treble",
          "pitch": "D#6"
        },
        {
          "midi": 55,
          "beat": 2,
          "dur": 1,
          "vel": 127,
          "clef": "bass",
          "acc": "n",
          "pitch": "G3"
        },
        {
          "midi": 61,
          "beat": 2,
          "dur": 1,
          "vel": 127,
          "clef": "bass",
          "pitch": "C#4"
        },
        {
          "midi": 64,
          "beat": 2,
          "dur": 1,
          "vel": 127,
          "clef": "bass",
          "pitch": "E4"
        },
        {
          "midi": 69,
          "beat": 2,
          "dur": 1,
          "vel": 127,
          "clef": "bass",
          "pitch": "A4"
        },
        {
          "midi": 86,
          "beat": 2,
          "dur": 0.25,
          "vel": 127,
          "clef": "treble",
          "acc": "n",
          "pitch": "D6"
        },
        {
          "midi": 85,
          "beat": 2.25,
          "dur": 0.25,
          "vel": 127,
          "clef": "treble",
          "pitch": "C#6"
        },
        {
          "midi": 84,
          "beat": 2.5,
          "dur": 0.25,
          "vel": 127,
          "clef": "treble",
          "acc": "n",
          "pitch": "C6"
        },
        {
          "midi": 83,
          "beat": 2.75,
          "dur": 0.25,
          "vel": 127,
          "clef": "treble",
          "pitch": "B5"
        },
        {
          "midi": 82,
          "beat": 3,
          "dur": 0.25,
          "vel": 127,
          "clef": "treble",
          "acc": "#",
          "pitch": "A#5"
        },
        {
          "midi": 81,
          "beat": 3.25,
          "dur": 0.25,
          "vel": 127,
          "clef": "treble",
          "pitch": "A5"
        },
        {
          "midi": 80,
          "beat": 3.5,
          "dur": 0.25,
          "vel": 127,
          "clef": "treble",
          "pitch": "G#5"
        },
        {
          "midi": 79,
          "beat": 3.75,
          "dur": 0.25,
          "vel": 127,
          "clef": "treble",
          "acc": "n",
          "pitch": "G5"
        }
      ]
    },
    {
      "_": "Treble: 16 notes, Bass: 0 notes",
      "number": 35,
      "notes": [
        {
          "midi": 78,
          "beat": 0,
          "dur": 0.25,
          "vel": 127,
          "clef": "treble",
          "pitch": "F#5"
        },
        {
          "midi": 77,
          "beat": 0.25,
          "dur": 0.25,
          "vel": 127,
          "clef": "treble",
          "acc": "n",
          "pitch": "F5"
        },
        {
          "midi": 76,
          "beat": 0.5,
          "dur": 0.25,
          "vel": 127,
          "clef": "treble",
          "pitch": "E5"
        },
        {
          "midi": 75,
          "beat": 0.75,
          "dur": 0.25,
          "vel": 127,
          "clef": "treble",
          "pitch": "D#5"
        },
        {
          "midi": 74,
          "beat": 1,
          "dur": 0.25,
          "vel": 127,
          "clef": "treble",
          "acc": "n",
          "pitch": "D5"
        },
        {
          "midi": 73,
          "beat": 1.25,
          "dur": 0.25,
          "vel": 127,
          "clef": "treble",
          "pitch": "C#5"
        },
        {
          "midi": 72,
          "beat": 1.5,
          "dur": 0.25,
          "vel": 127,
          "clef": "treble",
          "acc": "n",
          "pitch": "C5"
        },
        {
          "midi": 71,
          "beat": 1.75,
          "dur": 0.25,
          "vel": 127,
          "clef": "treble",
          "pitch": "B4"
        },
        {
          "midi": 70,
          "beat": 2,
          "dur": 0.25,
          "vel": 127,
          "clef": "treble",
          "acc": "#",
          "pitch": "A#4"
        },
        {
          "midi": 69,
          "beat": 2.25,
          "dur": 0.25,
          "vel": 127,
          "clef": "treble",
          "pitch": "A4"
        },
        {
          "midi": 68,
          "beat": 2.5,
          "dur": 0.25,
          "vel": 127,
          "clef": "treble",
          "pitch": "G#4"
        },
        {
          "midi": 67,
          "beat": 2.75,
          "dur": 0.25,
          "vel": 127,
          "clef": "treble",
          "acc": "n",
          "pitch": "G4"
        },
        {
          "midi": 66,
          "beat": 3,
          "dur": 0.25,
          "vel": 127,
          "clef": "treble",
          "pitch": "F#4"
        },
        {
          "midi": 64,
          "beat": 3.25,
          "dur": 0.25,
          "vel": 127,
          "clef": "treble",
          "pitch": "E4"
        },
        {
          "midi": 63,
          "beat": 3.5,
          "dur": 0.25,
          "vel": 127,
          "clef": "treble",
          "pitch": "D#4"
        },
        {
          "midi": 61,
          "beat": 3.75,
          "dur": 0.25,
          "vel": 127,
          "clef": "treble",
          "pitch": "C#4"
        }
      ]
    },
    {
      "_": "Treble: 13 notes, Bass: 8 notes",
      "number": 36,
      "notes": [
        {
          "midi": 32,
          "beat": 0,
          "dur": 0.5,
          "vel": 127,
          "clef": "bass",
          "pitch": "G#1"
        },
        {
          "midi": 44,
          "beat": 0,
          "dur": 0.5,
          "vel": 127,
          "clef": "bass",
          "pitch": "G#2"
        },
        {
          "midi": 56,
          "beat": 0,
          "dur": 0.5,
          "vel": 127,
          "clef": "treble",
          "pitch": "G#3"
        },
        {
          "midi": 64,
          "beat": 1,
          "dur": 1,
          "vel": 127,
          "clef": "bass",
          "pitch": "E4"
        },
        {
          "midi": 76,
          "beat": 1,
          "dur": 1,
          "vel": 127,
          "clef": "bass",
          "pitch": "E5"
        },
        {
          "midi": 93,
          "beat": 1,
          "dur": 0.25,
          "vel": 127,
          "clef": "treble",
          "pitch": "A6"
        },
        {
          "midi": 92,
          "beat": 1.25,
          "dur": 0.25,
          "vel": 127,
          "clef": "treble",
          "pitch": "G#6"
        },
        {
          "midi": 100,
          "beat": 1.5,
          "dur": 0.25,
          "vel": 127,
          "clef": "treble",
          "pitch": "E7"
        },
        {
          "midi": 88,
          "beat": 1.75,
          "dur": 0.25,
          "vel": 127,
          "clef": "treble",
          "pitch": "E6"
        },
        {
          "midi": 61,
          "beat": 2,
          "dur": 1,
          "vel": 127,
          "clef": "bass",
          "pitch": "C#4"
        },
        {
          "midi": 73,
          "beat": 2,
          "dur": 1,
          "vel": 127,
          "clef": "bass",
          "pitch": "C#5"
        },
        {
          "midi": 90,
          "beat": 2,
          "dur": 0.25,
          "vel": 127,
          "clef": "treble",
          "pitch": "F#6"
        },
        {
          "midi": 88,
          "beat": 2.25,
          "dur": 0.25,
          "vel": 127,
          "clef": "treble",
          "pitch": "E6"
        },
        {
          "midi": 97,
          "beat": 2.5,
          "dur": 0.25,
          "vel": 127,
          "clef": "treble",
          "pitch": "C#7"
        },
        {
          "midi": 85,
          "beat": 2.75,
          "dur": 0.25,
          "vel": 127,
          "clef": "treble",
          "pitch": "C#6"
        },
        {
          "midi": 56,
          "beat": 3,
          "dur": 1,
          "vel": 127,
          "clef": "bass",
          "pitch": "G#3"
        },
        {
          "midi": 68,
          "beat": 3,
          "dur": 1,
          "vel": 127,
          "clef": "bass",
          "pitch": "G#4"
        },
        {
          "midi": 87,
          "beat": 3,
          "dur": 0.25,
          "vel": 127,
          "clef": "treble",
          "pitch": "D#6"
        },
        {
          "midi": 85,
          "beat": 3.25,
          "dur": 0.25,
          "vel": 127,
          "clef": "treble",
          "pitch": "C#6"
        },
        {
          "midi": 92,
          "beat": 3.5,
          "dur": 0.25,
          "vel": 127,
          "clef": "treble",
          "pitch": "G#6"
        },
        {
          "midi": 80,
          "beat": 3.75,
          "dur": 0.25,
          "vel": 127,
          "clef": "treble",
          "pitch": "G#5"
        }
      ]
    },
    {
      "_": "Treble: 16 notes, Bass: 8 notes",
      "number": 37,
      "notes": [
        {
          "midi": 52,
          "beat": 0,
          "dur": 1,
          "vel": 127,
          "clef": "bass",
          "pitch": "E3"
        },
        {
          "midi": 64,
          "beat": 0,
          "dur": 1,
          "vel": 127,
          "clef": "bass",
          "pitch": "E4"
        },
        {
          "midi": 81,
          "beat": 0,
          "dur": 0.25,
          "vel": 127,
          "clef": "treble",
          "pitch": "A5"
        },
        {
          "midi": 80,
          "beat": 0.25,
          "dur": 0.25,
          "vel": 127,
          "clef": "treble",
          "pitch": "G#5"
        },
        {
          "midi": 88,
          "beat": 0.5,
          "dur": 0.25,
          "vel": 127,
          "clef": "treble",
          "pitch": "E6"
        },
        {
          "midi": 76,
          "beat": 0.75,
          "dur": 0.25,
          "vel": 127,
          "clef": "treble",
          "pitch": "E5"
        },
        {
          "midi": 49,
          "beat": 1,
          "dur": 1,
          "vel": 127,
          "clef": "bass",
          "pitch": "C#3"
        },
        {
          "midi": 61,
          "beat": 1,
          "dur": 1,
          "vel": 127,
          "clef": "bass",
          "pitch": "C#4"
        },
        {
          "midi": 78,
          "beat": 1,
          "dur": 0.25,
          "vel": 127,
          "clef": "treble",
          "pitch": "F#5"
        },
        {
          "midi": 76,
          "beat": 1.25,
          "dur": 0.25,
          "vel": 127,
          "clef": "treble",
          "pitch": "E5"
        },
        {
          "midi": 85,
          "beat": 1.5,
          "dur": 0.25,
          "vel": 127,
          "clef": "treble",
          "pitch": "C#6"
        },
        {
          "midi": 73,
          "beat": 1.75,
          "dur": 0.25,
          "vel": 127,
          "clef": "treble",
          "pitch": "C#5"
        },
        {
          "midi": 44,
          "beat": 2,
          "dur": 1,
          "vel": 127,
          "clef": "bass",
          "pitch": "G#2"
        },
        {
          "midi": 56,
          "beat": 2,
          "dur": 1,
          "vel": 127,
          "clef": "bass",
          "pitch": "G#3"
        },
        {
          "midi": 75,
          "beat": 2,
          "dur": 0.25,
          "vel": 127,
          "clef": "treble",
          "pitch": "D#5"
        },
        {
          "midi": 73,
          "beat": 2.25,
          "dur": 0.25,
          "vel": 127,
          "clef": "treble",
          "pitch": "C#5"
        },
        {
          "midi": 80,
          "beat": 2.5,
          "dur": 0.25,
          "vel": 127,
          "clef": "treble",
          "pitch": "G#5"
        },
        {
          "midi": 68,
          "beat": 2.75,
          "dur": 0.25,
          "vel": 127,
          "clef": "treble",
          "pitch": "G#4"
        },
        {
          "midi": 40,
          "beat": 3,
          "dur": 1,
          "vel": 127,
          "clef": "bass",
          "pitch": "E2"
        },
        {
          "midi": 52,
          "beat": 3,
          "dur": 1,
          "vel": 127,
          "clef": "bass",
          "pitch": "E3"
        },
        {
          "midi": 69,
          "beat": 3,
          "dur": 0.25,
          "vel": 127,
          "clef": "treble",
          "pitch": "A4"
        },
        {
          "midi": 68,
          "beat": 3.25,
          "dur": 0.25,
          "vel": 127,
          "clef": "treble",
          "pitch": "G#4"
        },
        {
          "midi": 76,
          "beat": 3.5,
          "dur": 0.25,
          "vel": 127,
          "clef": "treble",
          "pitch": "E5"
        },
        {
          "midi": 64,
          "beat": 3.75,
          "dur": 0.25,
          "vel": 127,
          "clef": "treble",
          "pitch": "E4"
        }
      ]
    },
    {
      "_": "Treble: 16 notes, Bass: 8 notes",
      "number": 38,
      "notes": [
        {
          "midi": 37,
          "beat": 0,
          "dur": 1,
          "vel": 127,
          "clef": "bass",
          "pitch": "C#2"
        },
        {
          "midi": 49,
          "beat": 0,
          "dur": 1,
          "vel": 127,
          "clef": "bass",
          "pitch": "C#3"
        },
        {
          "midi": 66,
          "beat": 0,
          "dur": 0.25,
          "vel": 127,
          "clef": "treble",
          "pitch": "F#4"
        },
        {
          "midi": 64,
          "beat": 0.25,
          "dur": 0.25,
          "vel": 127,
          "clef": "treble",
          "pitch": "E4"
        },
        {
          "midi": 73,
          "beat": 0.5,
          "dur": 0.25,
          "vel": 127,
          "clef": "treble",
          "pitch": "C#5"
        },
        {
          "midi": 61,
          "beat": 0.75,
          "dur": 0.25,
          "vel": 127,
          "clef": "treble",
          "pitch": "C#4"
        },
        {
          "midi": 32,
          "beat": 1,
          "dur": 1,
          "vel": 127,
          "clef": "bass",
          "pitch": "G#1"
        },
        {
          "midi": 44,
          "beat": 1,
          "dur": 1,
          "vel": 127,
          "clef": "bass",
          "pitch": "G#2"
        },
        {
          "midi": 63,
          "beat": 1,
          "dur": 0.25,
          "vel": 127,
          "clef": "treble",
          "pitch": "D#4"
        },
        {
          "midi": 61,
          "beat": 1.25,
          "dur": 0.25,
          "vel": 127,
          "clef": "treble",
          "pitch": "C#4"
        },
        {
          "midi": 68,
          "beat": 1.5,
          "dur": 0.25,
          "vel": 127,
          "clef": "treble",
          "pitch": "G#4"
        },
        {
          "midi": 56,
          "beat": 1.75,
          "dur": 0.25,
          "vel": 127,
          "clef": "treble",
          "pitch": "G#3"
        },
        {
          "midi": 32,
          "beat": 2,
          "dur": 1,
          "vel": 127,
          "clef": "bass",
          "pitch": "G#1"
        },
        {
          "midi": 44,
          "beat": 2,
          "dur": 1,
          "vel": 127,
          "clef": "bass",
          "pitch": "G#2"
        },
        {
          "midi": 63,
          "beat": 2,
          "dur": 0.25,
          "vel": 127,
          "clef": "treble",
          "pitch": "D#4"
        },
        {
          "midi": 61,
          "beat": 2.25,
          "dur": 0.25,
          "vel": 127,
          "clef": "treble",
          "pitch": "C#4"
        },
        {
          "midi": 68,
          "beat": 2.5,
          "dur": 0.25,
          "vel": 127,
          "clef": "treble",
          "pitch": "G#4"
        },
        {
          "midi": 56,
          "beat": 2.75,
          "dur": 0.25,
          "vel": 127,
          "clef": "treble",
          "pitch": "G#3"
        },
        {
          "midi": 33,
          "beat": 3,
          "dur": 1,
          "vel": 127,
          "clef": "bass",
          "pitch": "A1"
        },
        {
          "midi": 45,
          "beat": 3,
          "dur": 1,
          "vel": 127,
          "clef": "bass",
          "pitch": "A2"
        },
        {
          "midi": 63,
          "beat": 3,
          "dur": 0.25,
          "vel": 127,
          "clef": "treble",
          "pitch": "D#4"
        },
        {
          "midi": 61,
          "beat": 3.25,
          "dur": 0.25,
          "vel": 127,
          "clef": "treble",
          "pitch": "C#4"
        },
        {
          "midi": 69,
          "beat": 3.5,
          "dur": 0.25,
          "vel": 127,
          "clef": "treble",
          "pitch": "A4"
        },
        {
          "midi": 57,
          "beat": 3.75,
          "dur": 0.25,
          "vel": 127,
          "clef": "treble",
          "pitch": "A3"
        }
      ]
    },
    {
      "_": "Treble: 16 notes, Bass: 6 notes",
      "number": 39,
      "notes": [
        {
          "midi": 32,
          "beat": 0,
          "dur": 1,
          "vel": 127,
          "clef": "bass",
          "pitch": "G#1"
        },
        {
          "midi": 44,
          "beat": 0,
          "dur": 1,
          "vel": 127,
          "clef": "bass",
          "pitch": "G#2"
        },
        {
          "midi": 63,
          "beat": 0,
          "dur": 0.25,
          "vel": 127,
          "clef": "treble",
          "pitch": "D#4"
        },
        {
          "midi": 61,
          "beat": 0.25,
          "dur": 0.25,
          "vel": 127,
          "clef": "treble",
          "pitch": "C#4"
        },
        {
          "midi": 68,
          "beat": 0.5,
          "dur": 0.25,
          "vel": 127,
          "clef": "treble",
          "pitch": "G#4"
        },
        {
          "midi": 56,
          "beat": 0.75,
          "dur": 0.25,
          "vel": 127,
          "clef": "treble",
          "pitch": "G#3"
        },
        {
          "midi": 31,
          "beat": 1,
          "dur": 1,
          "vel": 127,
          "clef": "bass",
          "pitch": "G1"
        },
        {
          "midi": 43,
          "beat": 1,
          "dur": 1,
          "vel": 127,
          "clef": "bass",
          "pitch": "G2"
        },
        {
          "midi": 63,
          "beat": 1,
          "dur": 0.25,
          "vel": 127,
          "clef": "treble",
          "pitch": "D#4"
        },
        {
          "midi": 61,
          "beat": 1.25,
          "dur": 0.25,
          "vel": 127,
          "clef": "treble",
          "pitch": "C#4"
        },
        {
          "midi": 67,
          "beat": 1.5,
          "dur": 0.25,
          "vel": 127,
          "clef": "treble",
          "pitch": "G4"
        },
        {
          "midi": 55,
          "beat": 1.75,
          "dur": 0.25,
          "vel": 127,
          "clef": "treble",
          "pitch": "G3"
        },
        {
          "midi": 32,
          "beat": 2,
          "dur": 2,
          "vel": 127,
          "clef": "bass",
          "pitch": "G#1"
        },
        {
          "midi": 44,
          "beat": 2,
          "dur": 2,
          "vel": 127,
          "clef": "bass",
          "pitch": "G#2"
        },
        {
          "midi": 63,
          "beat": 2,
          "dur": 0.25,
          "vel": 127,
          "clef": "treble",
          "pitch": "D#4"
        },
        {
          "midi": 61,
          "beat": 2.25,
          "dur": 0.25,
          "vel": 127,
          "clef": "treble",
          "pitch": "C#4"
        },
        {
          "midi": 68,
          "beat": 2.5,
          "dur": 0.25,
          "vel": 127,
          "clef": "treble",
          "pitch": "G#4"
        },
        {
          "midi": 56,
          "beat": 2.75,
          "dur": 0.25,
          "vel": 127,
          "clef": "treble",
          "pitch": "G#3"
        },
        {
          "midi": 63,
          "beat": 3,
          "dur": 0.25,
          "vel": 127,
          "clef": "treble",
          "pitch": "D#4"
        },
        {
          "midi": 60,
          "beat": 3.25,
          "dur": 0.25,
          "vel": 127,
          "clef": "treble",
          "pitch": "C4"
        },
        {
          "midi": 68,
          "beat": 3.5,
          "dur": 0.25,
          "vel": 127,
          "clef": "treble",
          "pitch": "G#4"
        },
        {
          "midi": 56,
          "beat": 3.75,
          "dur": 0.25,
          "vel": 127,
          "clef": "treble",
          "pitch": "G#3"
        }
      ]
    },
    {
      "_": "Treble: 0 notes, Bass: 12 notes",
      "number": 40,
      "notes": [
        {
          "midi": 37,
          "beat": 0,
          "dur": 0.93,
          "vel": 127,
          "clef": "bass",
          "pitch": "C#2"
        },
        {
          "midi": 44,
          "beat": 0.33,
          "dur": 0.93,
          "vel": 127,
          "clef": "bass",
          "pitch": "G#2"
        },
        {
          "midi": 49,
          "beat": 0.67,
          "dur": 0.93,
          "vel": 127,
          "clef": "bass",
          "pitch": "C#3"
        },
        {
          "midi": 53,
          "beat": 1,
          "dur": 0.93,
          "vel": 127,
          "clef": "bass",
          "pitch": "F3"
        },
        {
          "midi": 56,
          "beat": 1.33,
          "dur": 0.93,
          "vel": 127,
          "clef": "bass",
          "pitch": "G#3"
        },
        {
          "midi": 61,
          "beat": 1.67,
          "dur": 0.93,
          "vel": 127,
          "clef": "bass",
          "pitch": "C#4"
        },
        {
          "midi": 65,
          "beat": 2,
          "dur": 0.93,
          "vel": 127,
          "clef": "bass",
          "pitch": "F4"
        },
        {
          "midi": 61,
          "beat": 2.33,
          "dur": 0.93,
          "vel": 127,
          "clef": "bass",
          "pitch": "C#4"
        },
        {
          "midi": 56,
          "beat": 2.67,
          "dur": 0.93,
          "vel": 127,
          "clef": "bass",
          "pitch": "G#3"
        },
        {
          "midi": 53,
          "beat": 3,
          "dur": 0.93,
          "vel": 127,
          "clef": "bass",
          "pitch": "F3"
        },
        {
          "midi": 49,
          "beat": 3.33,
          "dur": 0.67,
          "vel": 127,
          "clef": "bass",
          "pitch": "C#3"
        },
        {
          "midi": 44,
          "beat": 3.67,
          "dur": 0.33,
          "vel": 127,
          "clef": "bass",
          "pitch": "G#2"
        }
      ]
    },
    {
      "_": "Treble: 0 notes, Bass: 12 notes",
      "number": 41,
      "notes": [
        {
          "midi": 37,
          "beat": 0,
          "dur": 0.93,
          "vel": 127,
          "clef": "bass",
          "pitch": "C#2"
        },
        {
          "midi": 44,
          "beat": 0.33,
          "dur": 0.93,
          "vel": 127,
          "clef": "bass",
          "pitch": "G#2"
        },
        {
          "midi": 49,
          "beat": 0.67,
          "dur": 0.93,
          "vel": 127,
          "clef": "bass",
          "pitch": "C#3"
        },
        {
          "midi": 53,
          "beat": 1,
          "dur": 0.93,
          "vel": 127,
          "clef": "bass",
          "pitch": "F3"
        },
        {
          "midi": 56,
          "beat": 1.33,
          "dur": 0.93,
          "vel": 127,
          "clef": "bass",
          "pitch": "G#3"
        },
        {
          "midi": 61,
          "beat": 1.67,
          "dur": 0.93,
          "vel": 127,
          "clef": "bass",
          "pitch": "C#4"
        },
        {
          "midi": 65,
          "beat": 2,
          "dur": 0.93,
          "vel": 127,
          "clef": "bass",
          "pitch": "F4"
        },
        {
          "midi": 61,
          "beat": 2.33,
          "dur": 0.93,
          "vel": 127,
          "clef": "bass",
          "pitch": "C#4"
        },
        {
          "midi": 56,
          "beat": 2.67,
          "dur": 0.93,
          "vel": 127,
          "clef": "bass",
          "pitch": "G#3"
        },
        {
          "midi": 53,
          "beat": 3,
          "dur": 0.93,
          "vel": 127,
          "clef": "bass",
          "pitch": "F3"
        },
        {
          "midi": 49,
          "beat": 3.33,
          "dur": 0.67,
          "vel": 127,
          "clef": "bass",
          "pitch": "C#3"
        },
        {
          "midi": 44,
          "beat": 3.67,
          "dur": 0.33,
          "vel": 127,
          "clef": "bass",
          "pitch": "G#2"
        }
      ]
    },
    {
      "_": "Treble: 5 notes, Bass: 12 notes",
      "number": 42,
      "notes": [
        {
          "midi": 37,
          "beat": 0,
          "dur": 0.62,
          "vel": 127,
          "clef": "bass",
          "pitch": "C#2"
        },
        {
          "midi": 68,
          "beat": 0,
          "dur": 3.73,
          "vel": 127,
          "clef": "treble",
          "pitch": "G#4"
        },
        {
          "midi": 56,
          "beat": 0.33,
          "dur": 0.62,
          "vel": 127,
          "clef": "bass",
          "pitch": "G#3"
        },
        {
          "midi": 60,
          "beat": 0.67,
          "dur": 0.62,
          "vel": 127,
          "clef": "bass",
          "pitch": "C4"
        },
        {
          "midi": 63,
          "beat": 1,
          "dur": 0.62,
          "vel": 127,
          "clef": "bass",
          "pitch": "D#4"
        },
        {
          "midi": 60,
          "beat": 1.33,
          "dur": 0.62,
          "vel": 127,
          "clef": "bass",
          "pitch": "C4"
        },
        {
          "midi": 56,
          "beat": 1.67,
          "dur": 0.62,
          "vel": 127,
          "clef": "bass",
          "pitch": "G#3"
        },
        {
          "midi": 49,
          "beat": 2,
          "dur": 0.62,
          "vel": 127,
          "clef": "bass",
          "pitch": "C#3"
        },
        {
          "midi": 70,
          "beat": 2,
          "dur": 0.93,
          "vel": 127,
          "clef": "treble",
          "acc": "#",
          "pitch": "A#4"
        },
        {
          "midi": 56,
          "beat": 2.33,
          "dur": 0.62,
          "vel": 127,
          "clef": "bass",
          "pitch": "G#3"
        },
        {
          "midi": 68,
          "beat": 2.5,
          "dur": 0.93,
          "vel": 127,
          "clef": "treble",
          "pitch": "G#4"
        },
        {
          "midi": 60,
          "beat": 2.67,
          "dur": 0.62,
          "vel": 127,
          "clef": "bass",
          "pitch": "C4"
        },
        {
          "midi": 66,
          "beat": 3,
          "dur": 0.62,
          "vel": 127,
          "clef": "bass",
          "pitch": "F#4"
        },
        {
          "midi": 73,
          "beat": 3,
          "dur": 0.93,
          "vel": 127,
          "clef": "treble",
          "pitch": "C#5"
        },
        {
          "midi": 60,
          "beat": 3.33,
          "dur": 0.62,
          "vel": 127,
          "clef": "bass",
          "pitch": "C4"
        },
        {
          "midi": 75,
          "beat": 3.5,
          "dur": 0.5,
          "vel": 127,
          "clef": "treble",
          "pitch": "D#5"
        },
        {
          "midi": 56,
          "beat": 3.67,
          "dur": 0.33,
          "vel": 127,
          "clef": "bass",
          "pitch": "G#3"
        }
      ]
    },
    {
      "_": "Treble: 3 notes, Bass: 11 notes",
      "number": 43,
      "notes": [
        {
          "midi": 49,
          "beat": 0,
          "dur": 0.62,
          "vel": 127,
          "clef": "bass",
          "pitch": "C#3"
        },
        {
          "midi": 77,
          "beat": 0,
          "dur": 3.73,
          "vel": 127,
          "clef": "treble",
          "pitch": "F5"
        },
        {
          "midi": 56,
          "beat": 0.33,
          "dur": 0.62,
          "vel": 127,
          "clef": "bass",
          "pitch": "G#3"
        },
        {
          "midi": 61,
          "beat": 0.67,
          "dur": 0.62,
          "vel": 127,
          "clef": "bass",
          "pitch": "C#4"
        },
        {
          "midi": 65,
          "beat": 1,
          "dur": 0.62,
          "vel": 127,
          "clef": "bass",
          "pitch": "F4"
        },
        {
          "midi": 61,
          "beat": 1.33,
          "dur": 0.62,
          "vel": 127,
          "clef": "bass",
          "pitch": "C#4"
        },
        {
          "midi": 56,
          "beat": 1.67,
          "dur": 0.62,
          "vel": 127,
          "clef": "bass",
          "pitch": "G#3"
        },
        {
          "midi": 49,
          "beat": 2,
          "dur": 0.62,
          "vel": 127,
          "clef": "bass",
          "pitch": "C#3"
        },
        {
          "midi": 80,
          "beat": 2,
          "dur": 2,
          "vel": 127,
          "clef": "treble",
          "pitch": "G#5"
        },
        {
          "midi": 56,
          "beat": 2.33,
          "dur": 0.62,
          "vel": 127,
          "clef": "bass",
          "pitch": "G#3"
        },
        {
          "midi": 65,
          "beat": 2.67,
          "dur": 0.62,
          "vel": 127,
          "clef": "bass",
          "pitch": "F4"
        },
        {
          "midi": 68,
          "beat": 3,
          "dur": 1,
          "vel": 127,
          "clef": "treble",
          "pitch": "G#4"
        },
        {
          "midi": 65,
          "beat": 3.33,
          "dur": 0.62,
          "vel": 127,
          "clef": "bass",
          "pitch": "F4"
        },
        {
          "midi": 56,
          "beat": 3.67,
          "dur": 0.33,
          "vel": 127,
          "clef": "bass",
          "pitch": "G#3"
        }
      ]
    },
    {
      "_": "Treble: 5 notes, Bass: 12 notes",
      "number": 44,
      "notes": [
        {
          "midi": 66,
          "beat": 0,
          "dur": 1.87,
          "vel": 127,
          "clef": "bass",
          "pitch": "F#4"
        },
        {
          "midi": 78,
          "beat": 0,
          "dur": 1.87,
          "vel": 127,
          "clef": "treble",
          "pitch": "F#5"
        },
        {
          "midi": 63,
          "beat": 0.33,
          "dur": 0.62,
          "vel": 127,
          "clef": "bass",
          "pitch": "D#4"
        },
        {
          "midi": 56,
          "beat": 0.67,
          "dur": 0.62,
          "vel": 127,
          "clef": "bass",
          "pitch": "G#3"
        },
        {
          "midi": 65,
          "beat": 1,
          "dur": 1.87,
          "vel": 127,
          "clef": "bass",
          "pitch": "F4"
        },
        {
          "midi": 77,
          "beat": 1,
          "dur": 1.87,
          "vel": 127,
          "clef": "treble",
          "pitch": "F5"
        },
        {
          "midi": 61,
          "beat": 1.33,
          "dur": 0.62,
          "vel": 127,
          "clef": "bass",
          "pitch": "C#4"
        },
        {
          "midi": 56,
          "beat": 1.67,
          "dur": 0.62,
          "vel": 127,
          "clef": "bass",
          "pitch": "G#3"
        },
        {
          "midi": 63,
          "beat": 2,
          "dur": 1.87,
          "vel": 127,
          "clef": "bass",
          "pitch": "D#4"
        },
        {
          "midi": 75,
          "beat": 2,
          "dur": 1.87,
          "vel": 127,
          "clef": "treble",
          "pitch": "D#5"
        },
        {
          "midi": 60,
          "beat": 2.33,
          "dur": 0.62,
          "vel": 127,
          "clef": "bass",
          "pitch": "C4"
        },
        {
          "midi": 56,
          "beat": 2.67,
          "dur": 0.62,
          "vel": 127,
          "clef": "bass",
          "pitch": "G#3"
        },
        {
          "midi": 61,
          "beat": 3,
          "dur": 1,
          "vel": 127,
          "clef": "bass",
          "pitch": "C#4"
        },
        {
          "midi": 77,
          "beat": 3,
          "dur": 1,
          "vel": 127,
          "clef": "treble",
          "pitch": "F5"
        },
        {
          "midi": 56,
          "beat": 3.33,
          "dur": 0.62,
          "vel": 127,
          "clef": "bass",
          "pitch": "G#3"
        },
        {
          "midi": 53,
          "beat": 3.67,
          "dur": 0.33,
          "vel": 127,
          "clef": "bass",
          "pitch": "F3"
        },
        {
          "midi": 73,
          "beat": 3.75,
          "dur": 0.25,
          "vel": 127,
          "clef": "treble",
          "pitch": "C#5"
        }
      ]
    },
    {
      "_": "Treble: 2 notes, Bass: 12 notes",
      "number": 45,
      "notes": [
        {
          "midi": 44,
          "beat": 0,
          "dur": 0.62,
          "vel": 127,
          "clef": "bass",
          "pitch": "G#2"
        },
        {
          "midi": 68,
          "beat": 0,
          "dur": 3.73,
          "vel": 127,
          "clef": "treble",
          "pitch": "G#4"
        },
        {
          "midi": 51,
          "beat": 0.33,
          "dur": 0.62,
          "vel": 127,
          "clef": "bass",
          "pitch": "D#3"
        },
        {
          "midi": 56,
          "beat": 0.67,
          "dur": 0.62,
          "vel": 127,
          "clef": "bass",
          "pitch": "G#3"
        },
        {
          "midi": 60,
          "beat": 1,
          "dur": 0.62,
          "vel": 127,
          "clef": "bass",
          "pitch": "C4"
        },
        {
          "midi": 56,
          "beat": 1.33,
          "dur": 0.62,
          "vel": 127,
          "clef": "bass",
          "pitch": "G#3"
        },
        {
          "midi": 51,
          "beat": 1.67,
          "dur": 0.62,
          "vel": 127,
          "clef": "bass",
          "pitch": "D#3"
        },
        {
          "midi": 42,
          "beat": 2,
          "dur": 0.62,
          "vel": 127,
          "clef": "bass",
          "pitch": "F#2"
        },
        {
          "midi": 70,
          "beat": 2,
          "dur": 2,
          "vel": 127,
          "clef": "treble",
          "acc": "#",
          "pitch": "A#4"
        },
        {
          "midi": 54,
          "beat": 2.33,
          "dur": 0.62,
          "vel": 127,
          "clef": "bass",
          "pitch": "F#3"
        },
        {
          "midi": 58,
          "beat": 2.67,
          "dur": 0.62,
          "vel": 127,
          "clef": "bass",
          "acc": "#",
          "pitch": "A#3"
        },
        {
          "midi": 61,
          "beat": 3,
          "dur": 0.62,
          "vel": 127,
          "clef": "bass",
          "pitch": "C#4"
        },
        {
          "midi": 58,
          "beat": 3.33,
          "dur": 0.62,
          "vel": 127,
          "clef": "bass",
          "acc": "#",
          "pitch": "A#3"
        },
        {
          "midi": 54,
          "beat": 3.67,
          "dur": 0.33,
          "vel": 127,
          "clef": "bass",
          "pitch": "F#3"
        }
      ]
    },
    {
      "_": "Treble: 4 notes, Bass: 12 notes",
      "number": 46,
      "notes": [
        {
          "midi": 46,
          "beat": 0,
          "dur": 0.62,
          "vel": 127,
          "clef": "bass",
          "acc": "#",
          "pitch": "A#2"
        },
        {
          "midi": 53,
          "beat": 0.33,
          "dur": 0.62,
          "vel": 127,
          "clef": "bass",
          "pitch": "F3"
        },
        {
          "midi": 58,
          "beat": 0.67,
          "dur": 0.62,
          "vel": 127,
          "clef": "bass",
          "acc": "#",
          "pitch": "A#3"
        },
        {
          "midi": 62,
          "beat": 1,
          "dur": 0.62,
          "vel": 127,
          "clef": "bass",
          "pitch": "D4"
        },
        {
          "midi": 58,
          "beat": 1.33,
          "dur": 0.62,
          "vel": 127,
          "clef": "bass",
          "acc": "#",
          "pitch": "A#3"
        },
        {
          "midi": 53,
          "beat": 1.67,
          "dur": 0.62,
          "vel": 127,
          "clef": "bass",
          "pitch": "F3"
        },
        {
          "midi": 46,
          "beat": 2,
          "dur": 0.62,
          "vel": 127,
          "clef": "bass",
          "acc": "#",
          "pitch": "A#2"
        },
        {
          "midi": 71,
          "beat": 2,
          "dur": 0.93,
          "vel": 127,
          "clef": "treble",
          "pitch": "B4"
        },
        {
          "midi": 58,
          "beat": 2.33,
          "dur": 0.62,
          "vel": 127,
          "clef": "bass",
          "acc": "#",
          "pitch": "A#3"
        },
        {
          "midi": 70,
          "beat": 2.5,
          "dur": 0.93,
          "vel": 127,
          "clef": "treble",
          "acc": "#",
          "pitch": "A#4"
        },
        {
          "midi": 62,
          "beat": 2.67,
          "dur": 0.62,
          "vel": 127,
          "clef": "bass",
          "pitch": "D4"
        },
        {
          "midi": 68,
          "beat": 3,
          "dur": 0.62,
          "vel": 127,
          "clef": "bass",
          "pitch": "G#4"
        },
        {
          "midi": 75,
          "beat": 3,
          "dur": 0.93,
          "vel": 127,
          "clef": "treble",
          "pitch": "D#5"
        },
        {
          "midi": 62,
          "beat": 3.33,
          "dur": 0.62,
          "vel": 127,
          "clef": "bass",
          "pitch": "D4"
        },
        {
          "midi": 77,
          "beat": 3.5,
          "dur": 0.5,
          "vel": 127,
          "clef": "treble",
          "pitch": "F5"
        },
        {
          "midi": 58,
          "beat": 3.67,
          "dur": 0.33,
          "vel": 127,
          "clef": "bass",
          "acc": "#",
          "pitch": "A#3"
        }
      ]
    },
    {
      "_": "Treble: 4 notes, Bass: 12 notes",
      "number": 47,
      "notes": [
        {
          "midi": 51,
          "beat": 0,
          "dur": 0.62,
          "vel": 127,
          "clef": "bass",
          "pitch": "D#3"
        },
        {
          "midi": 78,
          "beat": 0,
          "dur": 1.87,
          "vel": 127,
          "clef": "treble",
          "pitch": "F#5"
        },
        {
          "midi": 66,
          "beat": 0.33,
          "dur": 0.62,
          "vel": 127,
          "clef": "bass",
          "pitch": "F#4"
        },
        {
          "midi": 58,
          "beat": 0.67,
          "dur": 0.62,
          "vel": 127,
          "clef": "bass",
          "acc": "#",
          "pitch": "A#3"
        },
        {
          "midi": 53,
          "beat": 1,
          "dur": 0.62,
          "vel": 127,
          "clef": "bass",
          "pitch": "F3"
        },
        {
          "midi": 77,
          "beat": 1,
          "dur": 1.87,
          "vel": 127,
          "clef": "treble",
          "pitch": "F5"
        },
        {
          "midi": 65,
          "beat": 1.33,
          "dur": 0.62,
          "vel": 127,
          "clef": "bass",
          "pitch": "F4"
        },
        {
          "midi": 57,
          "beat": 1.67,
          "dur": 0.62,
          "vel": 127,
          "clef": "bass",
          "pitch": "A3"
        },
        {
          "midi": 54,
          "beat": 2,
          "dur": 0.62,
          "vel": 127,
          "clef": "bass",
          "pitch": "F#3"
        },
        {
          "midi": 75,
          "beat": 2,
          "dur": 1.87,
          "vel": 127,
          "clef": "treble",
          "pitch": "D#5"
        },
        {
          "midi": 63,
          "beat": 2.33,
          "dur": 0.62,
          "vel": 127,
          "clef": "bass",
          "pitch": "D#4"
        },
        {
          "midi": 58,
          "beat": 2.67,
          "dur": 0.62,
          "vel": 127,
          "clef": "bass",
          "acc": "#",
          "pitch": "A#3"
        },
        {
          "midi": 56,
          "beat": 3,
          "dur": 0.62,
          "vel": 127,
          "clef": "bass",
          "pitch": "G#3"
        },
        {
          "midi": 77,
          "beat": 3,
          "dur": 1,
          "vel": 127,
          "clef": "treble",
          "pitch": "F5"
        },
        {
          "midi": 66,
          "beat": 3.33,
          "dur": 0.62,
          "vel": 127,
          "clef": "bass",
          "pitch": "F#4"
        },
        {
          "midi": 60,
          "beat": 3.67,
          "dur": 0.33,
          "vel": 127,
          "clef": "bass",
          "pitch": "C4"
        }
      ]
    },
    {
      "_": "Treble: 7 notes, Bass: 12 notes",
      "number": 48,
      "notes": [
        {
          "midi": 49,
          "beat": 0,
          "dur": 0.62,
          "vel": 127,
          "clef": "bass",
          "pitch": "C#3"
        },
        {
          "midi": 73,
          "beat": 0,
          "dur": 3.52,
          "vel": 127,
          "clef": "treble",
          "pitch": "C#5"
        },
        {
          "midi": 56,
          "beat": 0.33,
          "dur": 0.62,
          "vel": 127,
          "clef": "bass",
          "pitch": "G#3"
        },
        {
          "midi": 61,
          "beat": 0.67,
          "dur": 0.62,
          "vel": 127,
          "clef": "bass",
          "pitch": "C#4"
        },
        {
          "midi": 65,
          "beat": 1,
          "dur": 0.62,
          "vel": 127,
          "clef": "bass",
          "pitch": "F4"
        },
        {
          "midi": 61,
          "beat": 1.33,
          "dur": 0.62,
          "vel": 127,
          "clef": "bass",
          "pitch": "C#4"
        },
        {
          "midi": 56,
          "beat": 1.67,
          "dur": 0.62,
          "vel": 127,
          "clef": "bass",
          "pitch": "G#3"
        },
        {
          "midi": 72,
          "beat": 1.89,
          "dur": 0.05,
          "vel": 127,
          "clef": "treble",
          "pitch": "C5"
        },
        {
          "midi": 73,
          "beat": 1.91,
          "dur": 0.05,
          "vel": 127,
          "clef": "treble",
          "pitch": "C#5"
        },
        {
          "midi": 75,
          "beat": 1.94,
          "dur": 0.05,
          "vel": 127,
          "clef": "treble",
          "pitch": "D#5"
        },
        {
          "midi": 73,
          "beat": 1.97,
          "dur": 0.05,
          "vel": 127,
          "clef": "treble",
          "pitch": "C#5"
        },
        {
          "midi": 51,
          "beat": 2,
          "dur": 0.62,
          "vel": 127,
          "clef": "bass",
          "pitch": "D#3"
        },
        {
          "midi": 77,
          "beat": 2,
          "dur": 2,
          "vel": 127,
          "clef": "treble",
          "pitch": "F5"
        },
        {
          "midi": 55,
          "beat": 2.33,
          "dur": 0.62,
          "vel": 127,
          "clef": "bass",
          "pitch": "G3"
        },
        {
          "midi": 61,
          "beat": 2.67,
          "dur": 0.62,
          "vel": 127,
          "clef": "bass",
          "pitch": "C#4"
        },
        {
          "midi": 63,
          "beat": 3,
          "dur": 0.62,
          "vel": 127,
          "clef": "bass",
          "pitch": "D#4"
        },
        {
          "midi": 61,
          "beat": 3.33,
          "dur": 0.62,
          "vel": 127,
          "clef": "bass",
          "pitch": "C#4"
        },
        {
          "midi": 75,
          "beat": 3.5,
          "dur": 0.5,
          "vel": 127,
          "clef": "treble",
          "pitch": "D#5"
        },
        {
          "midi": 55,
          "beat": 3.67,
          "dur": 0.33,
          "vel": 127,
          "clef": "bass",
          "pitch": "G3"
        }
      ]
    },
    {
      "_": "Treble: 1 notes, Bass: 12 notes",
      "number": 49,
      "notes": [
        {
          "midi": 44,
          "beat": 0,
          "dur": 0.62,
          "vel": 127,
          "clef": "bass",
          "pitch": "G#2"
        },
        {
          "midi": 75,
          "beat": 0,
          "dur": 4,
          "vel": 127,
          "clef": "treble",
          "pitch": "D#5"
        },
        {
          "midi": 51,
          "beat": 0.33,
          "dur": 0.62,
          "vel": 127,
          "clef": "bass",
          "pitch": "D#3"
        },
        {
          "midi": 56,
          "beat": 0.67,
          "dur": 0.62,
          "vel": 127,
          "clef": "bass",
          "pitch": "G#3"
        },
        {
          "midi": 60,
          "beat": 1,
          "dur": 0.62,
          "vel": 127,
          "clef": "bass",
          "pitch": "C4"
        },
        {
          "midi": 56,
          "beat": 1.33,
          "dur": 0.62,
          "vel": 127,
          "clef": "bass",
          "pitch": "G#3"
        },
        {
          "midi": 51,
          "beat": 1.67,
          "dur": 0.62,
          "vel": 127,
          "clef": "bass",
          "pitch": "D#3"
        },
        {
          "midi": 44,
          "beat": 2,
          "dur": 0.62,
          "vel": 127,
          "clef": "bass",
          "pitch": "G#2"
        },
        {
          "midi": 51,
          "beat": 2.33,
          "dur": 0.62,
          "vel": 127,
          "clef": "bass",
          "pitch": "D#3"
        },
        {
          "midi": 54,
          "beat": 2.67,
          "dur": 0.62,
          "vel": 127,
          "clef": "bass",
          "pitch": "F#3"
        },
        {
          "midi": 58,
          "beat": 3,
          "dur": 1,
          "vel": 127,
          "clef": "bass",
          "acc": "#",
          "pitch": "A#3"
        },
        {
          "midi": 54,
          "beat": 3.33,
          "dur": 0.62,
          "vel": 127,
          "clef": "bass",
          "pitch": "F#3"
        },
        {
          "midi": 51,
          "beat": 3.67,
          "dur": 0.33,
          "vel": 127,
          "clef": "bass",
          "pitch": "D#3"
        }
      ]
    },
    {
      "_": "Treble: 5 notes, Bass: 12 notes",
      "number": 50,
      "notes": [
        {
          "midi": 44,
          "beat": 0,
          "dur": 0.62,
          "vel": 127,
          "clef": "bass",
          "pitch": "G#2"
        },
        {
          "midi": 68,
          "beat": 0,
          "dur": 3.73,
          "vel": 127,
          "clef": "treble",
          "pitch": "G#4"
        },
        {
          "midi": 51,
          "beat": 0.33,
          "dur": 0.62,
          "vel": 127,
          "clef": "bass",
          "pitch": "D#3"
        },
        {
          "midi": 56,
          "beat": 0.67,
          "dur": 0.62,
          "vel": 127,
          "clef": "bass",
          "pitch": "G#3"
        },
        {
          "midi": 60,
          "beat": 1,
          "dur": 0.62,
          "vel": 127,
          "clef": "bass",
          "pitch": "C4"
        },
        {
          "midi": 56,
          "beat": 1.33,
          "dur": 0.62,
          "vel": 127,
          "clef": "bass",
          "pitch": "G#3"
        },
        {
          "midi": 51,
          "beat": 1.67,
          "dur": 0.62,
          "vel": 127,
          "clef": "bass",
          "pitch": "D#3"
        },
        {
          "midi": 44,
          "beat": 2,
          "dur": 0.62,
          "vel": 127,
          "clef": "bass",
          "pitch": "G#2"
        },
        {
          "midi": 70,
          "beat": 2,
          "dur": 0.93,
          "vel": 127,
          "clef": "treble",
          "acc": "#",
          "pitch": "A#4"
        },
        {
          "midi": 56,
          "beat": 2.33,
          "dur": 0.62,
          "vel": 127,
          "clef": "bass",
          "pitch": "G#3"
        },
        {
          "midi": 68,
          "beat": 2.5,
          "dur": 0.93,
          "vel": 127,
          "clef": "treble",
          "pitch": "G#4"
        },
        {
          "midi": 60,
          "beat": 2.67,
          "dur": 0.62,
          "vel": 127,
          "clef": "bass",
          "pitch": "C4"
        },
        {
          "midi": 66,
          "beat": 3,
          "dur": 0.62,
          "vel": 127,
          "clef": "bass",
          "pitch": "F#4"
        },
        {
          "midi": 73,
          "beat": 3,
          "dur": 0.93,
          "vel": 127,
          "clef": "treble",
          "pitch": "C#5"
        },
        {
          "midi": 60,
          "beat": 3.33,
          "dur": 0.62,
          "vel": 127,
          "clef": "bass",
          "pitch": "C4"
        },
        {
          "midi": 75,
          "beat": 3.5,
          "dur": 0.5,
          "vel": 127,
          "clef": "treble",
          "pitch": "D#5"
        },
        {
          "midi": 56,
          "beat": 3.67,
          "dur": 0.33,
          "vel": 127,
          "clef": "bass",
          "pitch": "G#3"
        }
      ]
    },
    {
      "_": "Treble: 3 notes, Bass: 11 notes",
      "number": 51,
      "notes": [
        {
          "midi": 49,
          "beat": 0,
          "dur": 0.62,
          "vel": 127,
          "clef": "bass",
          "pitch": "C#3"
        },
        {
          "midi": 77,
          "beat": 0,
          "dur": 3.73,
          "vel": 127,
          "clef": "treble",
          "pitch": "F5"
        },
        {
          "midi": 56,
          "beat": 0.33,
          "dur": 0.62,
          "vel": 127,
          "clef": "bass",
          "pitch": "G#3"
        },
        {
          "midi": 61,
          "beat": 0.67,
          "dur": 0.62,
          "vel": 127,
          "clef": "bass",
          "pitch": "C#4"
        },
        {
          "midi": 65,
          "beat": 1,
          "dur": 0.62,
          "vel": 127,
          "clef": "bass",
          "pitch": "F4"
        },
        {
          "midi": 61,
          "beat": 1.33,
          "dur": 0.62,
          "vel": 127,
          "clef": "bass",
          "pitch": "C#4"
        },
        {
          "midi": 56,
          "beat": 1.67,
          "dur": 0.62,
          "vel": 127,
          "clef": "bass",
          "pitch": "G#3"
        },
        {
          "midi": 49,
          "beat": 2,
          "dur": 0.62,
          "vel": 127,
          "clef": "bass",
          "pitch": "C#3"
        },
        {
          "midi": 80,
          "beat": 2,
          "dur": 2,
          "vel": 127,
          "clef": "treble",
          "pitch": "G#5"
        },
        {
          "midi": 56,
          "beat": 2.33,
          "dur": 0.62,
          "vel": 127,
          "clef": "bass",
          "pitch": "G#3"
        },
        {
          "midi": 65,
          "beat": 2.67,
          "dur": 0.62,
          "vel": 127,
          "clef": "bass",
          "pitch": "F4"
        },
        {
          "midi": 68,
          "beat": 3,
          "dur": 1,
          "vel": 127,
          "clef": "treble",
          "pitch": "G#4"
        },
        {
          "midi": 65,
          "beat": 3.33,
          "dur": 0.62,
          "vel": 127,
          "clef": "bass",
          "pitch": "F4"
        },
        {
          "midi": 56,
          "beat": 3.67,
          "dur": 0.33,
          "vel": 127,
          "clef": "bass",
          "pitch": "G#3"
        }
      ]
    },
    {
      "_": "Treble: 9 notes, Bass: 12 notes",
      "number": 52,
      "notes": [
        {
          "midi": 66,
          "beat": 0,
          "dur": 1.87,
          "vel": 127,
          "clef": "bass",
          "pitch": "F#4"
        },
        {
          "midi": 78,
          "beat": 0,
          "dur": 1.87,
          "vel": 127,
          "clef": "treble",
          "pitch": "F#5"
        },
        {
          "midi": 63,
          "beat": 0.33,
          "dur": 0.62,
          "vel": 127,
          "clef": "bass",
          "pitch": "D#4"
        },
        {
          "midi": 56,
          "beat": 0.67,
          "dur": 0.62,
          "vel": 127,
          "clef": "bass",
          "pitch": "G#3"
        },
        {
          "midi": 65,
          "beat": 1,
          "dur": 1.87,
          "vel": 127,
          "clef": "bass",
          "pitch": "F4"
        },
        {
          "midi": 77,
          "beat": 1,
          "dur": 1.87,
          "vel": 127,
          "clef": "treble",
          "pitch": "F5"
        },
        {
          "midi": 61,
          "beat": 1.33,
          "dur": 0.62,
          "vel": 127,
          "clef": "bass",
          "pitch": "C#4"
        },
        {
          "midi": 56,
          "beat": 1.67,
          "dur": 0.62,
          "vel": 127,
          "clef": "bass",
          "pitch": "G#3"
        },
        {
          "midi": 63,
          "beat": 2,
          "dur": 1.87,
          "vel": 127,
          "clef": "bass",
          "pitch": "D#4"
        },
        {
          "midi": 75,
          "beat": 2,
          "dur": 1.44,
          "vel": 127,
          "clef": "treble",
          "pitch": "D#5"
        },
        {
          "midi": 60,
          "beat": 2.33,
          "dur": 0.62,
          "vel": 127,
          "clef": "bass",
          "pitch": "C4"
        },
        {
          "midi": 56,
          "beat": 2.67,
          "dur": 0.62,
          "vel": 127,
          "clef": "bass",
          "pitch": "G#3"
        },
        {
          "midi": 77,
          "beat": 2.77,
          "dur": 0.1,
          "vel": 127,
          "clef": "treble",
          "pitch": "F5"
        },
        {
          "midi": 75,
          "beat": 2.83,
          "dur": 0.1,
          "vel": 127,
          "clef": "treble",
          "pitch": "D#5"
        },
        {
          "midi": 73,
          "beat": 2.89,
          "dur": 0.1,
          "vel": 127,
          "clef": "treble",
          "pitch": "C#5"
        },
        {
          "midi": 75,
          "beat": 2.94,
          "dur": 0.1,
          "vel": 127,
          "clef": "treble",
          "pitch": "D#5"
        },
        {
          "midi": 61,
          "beat": 3,
          "dur": 1,
          "vel": 127,
          "clef": "bass",
          "pitch": "C#4"
        },
        {
          "midi": 77,
          "beat": 3,
          "dur": 1,
          "vel": 127,
          "clef": "treble",
          "pitch": "F5"
        },
        {
          "midi": 56,
          "beat": 3.33,
          "dur": 0.62,
          "vel": 127,
          "clef": "bass",
          "pitch": "G#3"
        },
        {
          "midi": 53,
          "beat": 3.67,
          "dur": 0.33,
          "vel": 127,
          "clef": "bass",
          "pitch": "F3"
        },
        {
          "midi": 73,
          "beat": 3.75,
          "dur": 0.25,
          "vel": 127,
          "clef": "treble",
          "pitch": "C#5"
        }
      ]
    },
    {
      "_": "Treble: 2 notes, Bass: 12 notes",
      "number": 53,
      "notes": [
        {
          "midi": 44,
          "beat": 0,
          "dur": 0.62,
          "vel": 127,
          "clef": "bass",
          "pitch": "G#2"
        },
        {
          "midi": 68,
          "beat": 0,
          "dur": 3.73,
          "vel": 127,
          "clef": "treble",
          "pitch": "G#4"
        },
        {
          "midi": 51,
          "beat": 0.33,
          "dur": 0.62,
          "vel": 127,
          "clef": "bass",
          "pitch": "D#3"
        },
        {
          "midi": 56,
          "beat": 0.67,
          "dur": 0.62,
          "vel": 127,
          "clef": "bass",
          "pitch": "G#3"
        },
        {
          "midi": 60,
          "beat": 1,
          "dur": 0.62,
          "vel": 127,
          "clef": "bass",
          "pitch": "C4"
        },
        {
          "midi": 56,
          "beat": 1.33,
          "dur": 0.62,
          "vel": 127,
          "clef": "bass",
          "pitch": "G#3"
        },
        {
          "midi": 51,
          "beat": 1.67,
          "dur": 0.62,
          "vel": 127,
          "clef": "bass",
          "pitch": "D#3"
        },
        {
          "midi": 42,
          "beat": 2,
          "dur": 0.62,
          "vel": 127,
          "clef": "bass",
          "pitch": "F#2"
        },
        {
          "midi": 70,
          "beat": 2,
          "dur": 2,
          "vel": 127,
          "clef": "treble",
          "acc": "#",
          "pitch": "A#4"
        },
        {
          "midi": 54,
          "beat": 2.33,
          "dur": 0.62,
          "vel": 127,
          "clef": "bass",
          "pitch": "F#3"
        },
        {
          "midi": 58,
          "beat": 2.67,
          "dur": 0.62,
          "vel": 127,
          "clef": "bass",
          "acc": "#",
          "pitch": "A#3"
        },
        {
          "midi": 61,
          "beat": 3,
          "dur": 0.62,
          "vel": 127,
          "clef": "bass",
          "pitch": "C#4"
        },
        {
          "midi": 58,
          "beat": 3.33,
          "dur": 0.62,
          "vel": 127,
          "clef": "bass",
          "acc": "#",
          "pitch": "A#3"
        },
        {
          "midi": 54,
          "beat": 3.67,
          "dur": 0.33,
          "vel": 127,
          "clef": "bass",
          "pitch": "F#3"
        }
      ]
    },
    {
      "_": "Treble: 4 notes, Bass: 12 notes",
      "number": 54,
      "notes": [
        {
          "midi": 46,
          "beat": 0,
          "dur": 0.62,
          "vel": 127,
          "clef": "bass",
          "acc": "#",
          "pitch": "A#2"
        },
        {
          "midi": 53,
          "beat": 0.33,
          "dur": 0.62,
          "vel": 127,
          "clef": "bass",
          "pitch": "F3"
        },
        {
          "midi": 58,
          "beat": 0.67,
          "dur": 0.62,
          "vel": 127,
          "clef": "bass",
          "acc": "#",
          "pitch": "A#3"
        },
        {
          "midi": 62,
          "beat": 1,
          "dur": 0.62,
          "vel": 127,
          "clef": "bass",
          "pitch": "D4"
        },
        {
          "midi": 58,
          "beat": 1.33,
          "dur": 0.62,
          "vel": 127,
          "clef": "bass",
          "acc": "#",
          "pitch": "A#3"
        },
        {
          "midi": 53,
          "beat": 1.67,
          "dur": 0.62,
          "vel": 127,
          "clef": "bass",
          "pitch": "F3"
        },
        {
          "midi": 46,
          "beat": 2,
          "dur": 0.62,
          "vel": 127,
          "clef": "bass",
          "acc": "#",
          "pitch": "A#2"
        },
        {
          "midi": 71,
          "beat": 2,
          "dur": 0.93,
          "vel": 127,
          "clef": "treble",
          "pitch": "B4"
        },
        {
          "midi": 58,
          "beat": 2.33,
          "dur": 0.62,
          "vel": 127,
          "clef": "bass",
          "acc": "#",
          "pitch": "A#3"
        },
        {
          "midi": 70,
          "beat": 2.5,
          "dur": 0.93,
          "vel": 127,
          "clef": "treble",
          "acc": "#",
          "pitch": "A#4"
        },
        {
          "midi": 62,
          "beat": 2.67,
          "dur": 0.62,
          "vel": 127,
          "clef": "bass",
          "pitch": "D4"
        },
        {
          "midi": 68,
          "beat": 3,
          "dur": 0.62,
          "vel": 127,
          "clef": "bass",
          "pitch": "G#4"
        },
        {
          "midi": 75,
          "beat": 3,
          "dur": 0.93,
          "vel": 127,
          "clef": "treble",
          "pitch": "D#5"
        },
        {
          "midi": 62,
          "beat": 3.33,
          "dur": 0.62,
          "vel": 127,
          "clef": "bass",
          "pitch": "D4"
        },
        {
          "midi": 77,
          "beat": 3.5,
          "dur": 0.5,
          "vel": 127,
          "clef": "treble",
          "pitch": "F5"
        },
        {
          "midi": 58,
          "beat": 3.67,
          "dur": 0.33,
          "vel": 127,
          "clef": "bass",
          "acc": "#",
          "pitch": "A#3"
        }
      ]
    },
    {
      "_": "Treble: 4 notes, Bass: 12 notes",
      "number": 55,
      "notes": [
        {
          "midi": 51,
          "beat": 0,
          "dur": 0.62,
          "vel": 127,
          "clef": "bass",
          "pitch": "D#3"
        },
        {
          "midi": 78,
          "beat": 0,
          "dur": 1.87,
          "vel": 127,
          "clef": "treble",
          "pitch": "F#5"
        },
        {
          "midi": 66,
          "beat": 0.33,
          "dur": 0.62,
          "vel": 127,
          "clef": "bass",
          "pitch": "F#4"
        },
        {
          "midi": 58,
          "beat": 0.67,
          "dur": 0.62,
          "vel": 127,
          "clef": "bass",
          "acc": "#",
          "pitch": "A#3"
        },
        {
          "midi": 53,
          "beat": 1,
          "dur": 0.62,
          "vel": 127,
          "clef": "bass",
          "pitch": "F3"
        },
        {
          "midi": 77,
          "beat": 1,
          "dur": 1.87,
          "vel": 127,
          "clef": "treble",
          "pitch": "F5"
        },
        {
          "midi": 65,
          "beat": 1.33,
          "dur": 0.62,
          "vel": 127,
          "clef": "bass",
          "pitch": "F4"
        },
        {
          "midi": 57,
          "beat": 1.67,
          "dur": 0.62,
          "vel": 127,
          "clef": "bass",
          "pitch": "A3"
        },
        {
          "midi": 54,
          "beat": 2,
          "dur": 0.62,
          "vel": 127,
          "clef": "bass",
          "pitch": "F#3"
        },
        {
          "midi": 75,
          "beat": 2,
          "dur": 1.87,
          "vel": 127,
          "clef": "treble",
          "pitch": "D#5"
        },
        {
          "midi": 63,
          "beat": 2.33,
          "dur": 0.62,
          "vel": 127,
          "clef": "bass",
          "pitch": "D#4"
        },
        {
          "midi": 58,
          "beat": 2.67,
          "dur": 0.62,
          "vel": 127,
          "clef": "bass",
          "acc": "#",
          "pitch": "A#3"
        },
        {
          "midi": 56,
          "beat": 3,
          "dur": 0.62,
          "vel": 127,
          "clef": "bass",
          "pitch": "G#3"
        },
        {
          "midi": 77,
          "beat": 3,
          "dur": 1,
          "vel": 127,
          "clef": "treble",
          "pitch": "F5"
        },
        {
          "midi": 66,
          "beat": 3.33,
          "dur": 0.62,
          "vel": 127,
          "clef": "bass",
          "pitch": "F#4"
        },
        {
          "midi": 60,
          "beat": 3.67,
          "dur": 0.33,
          "vel": 127,
          "clef": "bass",
          "pitch": "C4"
        }
      ]
    },
    {
      "_": "Treble: 7 notes, Bass: 12 notes",
      "number": 56,
      "notes": [
        {
          "midi": 49,
          "beat": 0,
          "dur": 0.62,
          "vel": 127,
          "clef": "bass",
          "pitch": "C#3"
        },
        {
          "midi": 73,
          "beat": 0,
          "dur": 2.8,
          "vel": 127,
          "clef": "treble",
          "pitch": "C#5"
        },
        {
          "midi": 56,
          "beat": 0.33,
          "dur": 0.62,
          "vel": 127,
          "clef": "bass",
          "pitch": "G#3"
        },
        {
          "midi": 61,
          "beat": 0.67,
          "dur": 0.62,
          "vel": 127,
          "clef": "bass",
          "pitch": "C#4"
        },
        {
          "midi": 65,
          "beat": 1,
          "dur": 0.62,
          "vel": 127,
          "clef": "bass",
          "pitch": "F4"
        },
        {
          "midi": 61,
          "beat": 1.33,
          "dur": 0.62,
          "vel": 127,
          "clef": "bass",
          "pitch": "C#4"
        },
        {
          "midi": 67,
          "beat": 1.5,
          "dur": 0.23,
          "vel": 127,
          "clef": "treble",
          "pitch": "G4"
        },
        {
          "midi": 68,
          "beat": 1.63,
          "dur": 0.23,
          "vel": 127,
          "clef": "treble",
          "pitch": "G#4"
        },
        {
          "midi": 56,
          "beat": 1.67,
          "dur": 0.62,
          "vel": 127,
          "clef": "bass",
          "pitch": "G#3"
        },
        {
          "midi": 70,
          "beat": 1.75,
          "dur": 0.23,
          "vel": 127,
          "clef": "treble",
          "acc": "#",
          "pitch": "A#4"
        },
        {
          "midi": 68,
          "beat": 1.88,
          "dur": 0.23,
          "vel": 127,
          "clef": "treble",
          "pitch": "G#4"
        },
        {
          "midi": 49,
          "beat": 2,
          "dur": 0.62,
          "vel": 127,
          "clef": "bass",
          "pitch": "C#3"
        },
        {
          "midi": 77,
          "beat": 2,
          "dur": 2,
          "vel": 127,
          "clef": "treble",
          "pitch": "F5"
        },
        {
          "midi": 56,
          "beat": 2.33,
          "dur": 0.62,
          "vel": 127,
          "clef": "bass",
          "pitch": "G#3"
        },
        {
          "midi": 60,
          "beat": 2.67,
          "dur": 0.62,
          "vel": 127,
          "clef": "bass",
          "pitch": "C4"
        },
        {
          "midi": 66,
          "beat": 3,
          "dur": 0.62,
          "vel": 127,
          "clef": "bass",
          "pitch": "F#4"
        },
        {
          "midi": 60,
          "beat": 3.33,
          "dur": 0.62,
          "vel": 127,
          "clef": "bass",
          "pitch": "C4"
        },
        {
          "midi": 75,
          "beat": 3.5,
          "dur": 0.5,
          "vel": 127,
          "clef": "treble",
          "pitch": "D#5"
        },
        {
          "midi": 56,
          "beat": 3.67,
          "dur": 0.33,
          "vel": 127,
          "clef": "bass",
          "pitch": "G#3"
        }
      ]
    },
    {
      "_": "Treble: 3 notes, Bass: 12 notes",
      "number": 57,
      "notes": [
        {
          "midi": 49,
          "beat": 0,
          "dur": 0.62,
          "vel": 127,
          "clef": "bass",
          "pitch": "C#3"
        },
        {
          "midi": 75,
          "beat": 0,
          "dur": 3.73,
          "vel": 127,
          "clef": "treble",
          "pitch": "D#5"
        },
        {
          "midi": 56,
          "beat": 0.33,
          "dur": 0.62,
          "vel": 127,
          "clef": "bass",
          "pitch": "G#3"
        },
        {
          "midi": 60,
          "beat": 0.67,
          "dur": 0.62,
          "vel": 127,
          "clef": "bass",
          "pitch": "C4"
        },
        {
          "midi": 66,
          "beat": 1,
          "dur": 0.62,
          "vel": 127,
          "clef": "bass",
          "pitch": "F#4"
        },
        {
          "midi": 60,
          "beat": 1.33,
          "dur": 0.62,
          "vel": 127,
          "clef": "bass",
          "pitch": "C4"
        },
        {
          "midi": 56,
          "beat": 1.67,
          "dur": 0.62,
          "vel": 127,
          "clef": "bass",
          "pitch": "G#3"
        },
        {
          "midi": 49,
          "beat": 2,
          "dur": 0.62,
          "vel": 127,
          "clef": "bass",
          "pitch": "C#3"
        },
        {
          "midi": 73,
          "beat": 2,
          "dur": 1.87,
          "vel": 127,
          "clef": "treble",
          "pitch": "C#5"
        },
        {
          "midi": 56,
          "beat": 2.33,
          "dur": 0.62,
          "vel": 127,
          "clef": "bass",
          "pitch": "G#3"
        },
        {
          "midi": 61,
          "beat": 2.67,
          "dur": 0.62,
          "vel": 127,
          "clef": "bass",
          "pitch": "C#4"
        },
        {
          "midi": 65,
          "beat": 3,
          "dur": 0.62,
          "vel": 127,
          "clef": "bass",
          "pitch": "F4"
        },
        {
          "midi": 61,
          "beat": 3.33,
          "dur": 0.62,
          "vel": 127,
          "clef": "bass",
          "pitch": "C#4"
        },
        {
          "midi": 80,
          "beat": 3.5,
          "dur": 0.5,
          "vel": 127,
          "clef": "treble",
          "pitch": "G#5"
        },
        {
          "midi": 56,
          "beat": 3.67,
          "dur": 0.33,
          "vel": 127,
          "clef": "bass",
          "pitch": "G#3"
        }
      ]
    },
    {
      "_": "Treble: 5 notes, Bass: 12 notes",
      "number": 58,
      "notes": [
        {
          "midi": 44,
          "beat": 0,
          "dur": 0.62,
          "vel": 127,
          "clef": "bass",
          "pitch": "G#2"
        },
        {
          "midi": 68,
          "beat": 0,
          "dur": 3.73,
          "vel": 127,
          "clef": "treble",
          "pitch": "G#4"
        },
        {
          "midi": 51,
          "beat": 0.33,
          "dur": 0.62,
          "vel": 127,
          "clef": "bass",
          "pitch": "D#3"
        },
        {
          "midi": 56,
          "beat": 0.67,
          "dur": 0.62,
          "vel": 127,
          "clef": "bass",
          "pitch": "G#3"
        },
        {
          "midi": 60,
          "beat": 1,
          "dur": 0.62,
          "vel": 127,
          "clef": "bass",
          "pitch": "C4"
        },
        {
          "midi": 56,
          "beat": 1.33,
          "dur": 0.62,
          "vel": 127,
          "clef": "bass",
          "pitch": "G#3"
        },
        {
          "midi": 51,
          "beat": 1.67,
          "dur": 0.62,
          "vel": 127,
          "clef": "bass",
          "pitch": "D#3"
        },
        {
          "midi": 44,
          "beat": 2,
          "dur": 0.62,
          "vel": 127,
          "clef": "bass",
          "pitch": "G#2"
        },
        {
          "midi": 70,
          "beat": 2,
          "dur": 1.4,
          "vel": 127,
          "clef": "treble",
          "acc": "#",
          "pitch": "A#4"
        },
        {
          "midi": 51,
          "beat": 2.33,
          "dur": 0.62,
          "vel": 127,
          "clef": "bass",
          "pitch": "D#3"
        },
        {
          "midi": 55,
          "beat": 2.67,
          "dur": 0.62,
          "vel": 127,
          "clef": "bass",
          "pitch": "G3"
        },
        {
          "midi": 69,
          "beat": 2.75,
          "dur": 0.47,
          "vel": 127,
          "clef": "treble",
          "pitch": "A4"
        },
        {
          "midi": 61,
          "beat": 3,
          "dur": 0.62,
          "vel": 127,
          "clef": "bass",
          "pitch": "C#4"
        },
        {
          "midi": 70,
          "beat": 3,
          "dur": 1,
          "vel": 127,
          "clef": "treble",
          "acc": "#",
          "pitch": "A#4"
        },
        {
          "midi": 55,
          "beat": 3.33,
          "dur": 0.62,
          "vel": 127,
          "clef": "bass",
          "pitch": "G3"
        },
        {
          "midi": 51,
          "beat": 3.67,
          "dur": 0.33,
          "vel": 127,
          "clef": "bass",
          "pitch": "D#3"
        },
        {
          "midi": 72,
          "beat": 3.75,
          "dur": 0.25,
          "vel": 127,
          "clef": "treble",
          "pitch": "C5"
        }
      ]
    },
    {
      "_": "Treble: 8 notes, Bass: 12 notes",
      "number": 59,
      "notes": [
        {
          "midi": 44,
          "beat": 0,
          "dur": 0.62,
          "vel": 127,
          "clef": "bass",
          "pitch": "G#2"
        },
        {
          "midi": 68,
          "beat": 0,
          "dur": 0.93,
          "vel": 127,
          "clef": "treble",
          "pitch": "G#4"
        },
        {
          "midi": 51,
          "beat": 0.33,
          "dur": 0.62,
          "vel": 127,
          "clef": "bass",
          "pitch": "D#3"
        },
        {
          "midi": 56,
          "beat": 0.67,
          "dur": 0.62,
          "vel": 127,
          "clef": "bass",
          "pitch": "G#3"
        },
        {
          "midi": 60,
          "beat": 1,
          "dur": 0.62,
          "vel": 127,
          "clef": "bass",
          "pitch": "C4"
        },
        {
          "midi": 84,
          "beat": 1,
          "dur": 2.4,
          "vel": 127,
          "clef": "treble",
          "pitch": "C6"
        },
        {
          "midi": 56,
          "beat": 1.33,
          "dur": 0.62,
          "vel": 127,
          "clef": "bass",
          "pitch": "G#3"
        },
        {
          "midi": 51,
          "beat": 1.67,
          "dur": 0.62,
          "vel": 127,
          "clef": "bass",
          "pitch": "D#3"
        },
        {
          "midi": 49,
          "beat": 2,
          "dur": 0.62,
          "vel": 127,
          "clef": "bass",
          "pitch": "C#3"
        },
        {
          "midi": 82,
          "beat": 2.28,
          "dur": 0.53,
          "vel": 127,
          "clef": "treble",
          "acc": "#",
          "pitch": "A#5"
        },
        {
          "midi": 56,
          "beat": 2.33,
          "dur": 0.62,
          "vel": 127,
          "clef": "bass",
          "pitch": "G#3"
        },
        {
          "midi": 80,
          "beat": 2.57,
          "dur": 0.53,
          "vel": 127,
          "clef": "treble",
          "pitch": "G#5"
        },
        {
          "midi": 61,
          "beat": 2.67,
          "dur": 0.62,
          "vel": 127,
          "clef": "bass",
          "pitch": "C#4"
        },
        {
          "midi": 76,
          "beat": 2.86,
          "dur": 0.53,
          "vel": 127,
          "clef": "treble",
          "pitch": "E5"
        },
        {
          "midi": 64,
          "beat": 3,
          "dur": 0.62,
          "vel": 127,
          "clef": "bass",
          "pitch": "E4"
        },
        {
          "midi": 73,
          "beat": 3.14,
          "dur": 0.53,
          "vel": 127,
          "clef": "treble",
          "pitch": "C#5"
        },
        {
          "midi": 61,
          "beat": 3.33,
          "dur": 0.62,
          "vel": 127,
          "clef": "bass",
          "pitch": "C#4"
        },
        {
          "midi": 70,
          "beat": 3.43,
          "dur": 0.57,
          "vel": 127,
          "clef": "treble",
          "acc": "#",
          "pitch": "A#4"
        },
        {
          "midi": 56,
          "beat": 3.67,
          "dur": 0.33,
          "vel": 127,
          "clef": "bass",
          "pitch": "G#3"
        },
        {
          "midi": 80,
          "beat": 3.86,
          "dur": 0.14,
          "vel": 127,
          "clef": "treble",
          "pitch": "G#5"
        }
      ]
    },
    {
      "_": "Treble: 6 notes, Bass: 12 notes",
      "number": 60,
      "notes": [
        {
          "midi": 39,
          "beat": 0,
          "dur": 0.62,
          "vel": 127,
          "clef": "bass",
          "pitch": "D#2"
        },
        {
          "midi": 63,
          "beat": 0,
          "dur": 3.52,
          "vel": 127,
          "clef": "treble",
          "pitch": "D#4"
        },
        {
          "midi": 51,
          "beat": 0.33,
          "dur": 0.62,
          "vel": 127,
          "clef": "bass",
          "pitch": "D#3"
        },
        {
          "midi": 56,
          "beat": 0.67,
          "dur": 0.62,
          "vel": 127,
          "clef": "bass",
          "pitch": "G#3"
        },
        {
          "midi": 60,
          "beat": 1,
          "dur": 0.62,
          "vel": 127,
          "clef": "bass",
          "pitch": "C4"
        },
        {
          "midi": 56,
          "beat": 1.33,
          "dur": 0.62,
          "vel": 127,
          "clef": "bass",
          "pitch": "G#3"
        },
        {
          "midi": 51,
          "beat": 1.67,
          "dur": 0.62,
          "vel": 127,
          "clef": "bass",
          "pitch": "D#3"
        },
        {
          "midi": 72,
          "beat": 1.89,
          "dur": 0.21,
          "vel": 127,
          "clef": "treble",
          "pitch": "C5"
        },
        {
          "midi": 39,
          "beat": 2,
          "dur": 0.62,
          "vel": 127,
          "clef": "bass",
          "pitch": "D#2"
        },
        {
          "midi": 70,
          "beat": 2,
          "dur": 1.4,
          "vel": 127,
          "clef": "treble",
          "acc": "#",
          "pitch": "A#4"
        },
        {
          "midi": 51,
          "beat": 2.33,
          "dur": 0.62,
          "vel": 127,
          "clef": "bass",
          "pitch": "D#3"
        },
        {
          "midi": 55,
          "beat": 2.67,
          "dur": 0.62,
          "vel": 127,
          "clef": "bass",
          "pitch": "G3"
        },
        {
          "midi": 69,
          "beat": 2.75,
          "dur": 0.47,
          "vel": 127,
          "clef": "treble",
          "pitch": "A4"
        },
        {
          "midi": 61,
          "beat": 3,
          "dur": 0.62,
          "vel": 127,
          "clef": "bass",
          "pitch": "C#4"
        },
        {
          "midi": 70,
          "beat": 3,
          "dur": 1,
          "vel": 127,
          "clef": "treble",
          "acc": "#",
          "pitch": "A#4"
        },
        {
          "midi": 55,
          "beat": 3.33,
          "dur": 0.62,
          "vel": 127,
          "clef": "bass",
          "pitch": "G3"
        },
        {
          "midi": 51,
          "beat": 3.67,
          "dur": 0.33,
          "vel": 127,
          "clef": "bass",
          "pitch": "D#3"
        },
        {
          "midi": 75,
          "beat": 3.75,
          "dur": 0.25,
          "vel": 127,
          "clef": "treble",
          "pitch": "D#5"
        }
      ]
    },
    {
      "_": "Treble: 5 notes, Bass: 12 notes",
      "number": 61,
      "notes": [
        {
          "midi": 44,
          "beat": 0,
          "dur": 0.62,
          "vel": 127,
          "clef": "bass",
          "pitch": "G#2"
        },
        {
          "midi": 68,
          "beat": 0,
          "dur": 1.87,
          "vel": 127,
          "clef": "treble",
          "pitch": "G#4"
        },
        {
          "midi": 51,
          "beat": 0.33,
          "dur": 0.62,
          "vel": 127,
          "clef": "bass",
          "pitch": "D#3"
        },
        {
          "midi": 56,
          "beat": 0.67,
          "dur": 0.62,
          "vel": 127,
          "clef": "bass",
          "pitch": "G#3"
        },
        {
          "midi": 60,
          "beat": 1,
          "dur": 0.62,
          "vel": 127,
          "clef": "bass",
          "pitch": "C4"
        },
        {
          "midi": 56,
          "beat": 1.33,
          "dur": 0.62,
          "vel": 127,
          "clef": "bass",
          "pitch": "G#3"
        },
        {
          "midi": 51,
          "beat": 1.67,
          "dur": 0.62,
          "vel": 127,
          "clef": "bass",
          "pitch": "D#3"
        },
        {
          "midi": 42,
          "beat": 2,
          "dur": 0.62,
          "vel": 127,
          "clef": "bass",
          "pitch": "F#2"
        },
        {
          "midi": 70,
          "beat": 2,
          "dur": 1.87,
          "vel": 127,
          "clef": "treble",
          "acc": "#",
          "pitch": "A#4"
        },
        {
          "midi": 54,
          "beat": 2.33,
          "dur": 0.62,
          "vel": 127,
          "clef": "bass",
          "pitch": "F#3"
        },
        {
          "midi": 58,
          "beat": 2.67,
          "dur": 0.62,
          "vel": 127,
          "clef": "bass",
          "acc": "#",
          "pitch": "A#3"
        },
        {
          "midi": 61,
          "beat": 3,
          "dur": 0.62,
          "vel": 127,
          "clef": "bass",
          "pitch": "C#4"
        },
        {
          "midi": 73,
          "beat": 3,
          "dur": 0.62,
          "vel": 127,
          "clef": "treble",
          "pitch": "C#5"
        },
        {
          "midi": 58,
          "beat": 3.33,
          "dur": 0.62,
          "vel": 127,
          "clef": "bass",
          "acc": "#",
          "pitch": "A#3"
        },
        {
          "midi": 72,
          "beat": 3.33,
          "dur": 0.62,
          "vel": 127,
          "clef": "treble",
          "pitch": "C5"
        },
        {
          "midi": 54,
          "beat": 3.67,
          "dur": 0.33,
          "vel": 127,
          "clef": "bass",
          "pitch": "F#3"
        },
        {
          "midi": 70,
          "beat": 3.67,
          "dur": 0.33,
          "vel": 127,
          "clef": "treble",
          "acc": "#",
          "pitch": "A#4"
        }
      ]
    },
    {
      "_": "Treble: 5 notes, Bass: 12 notes",
      "number": 62,
      "notes": [
        {
          "midi": 44,
          "beat": 0,
          "dur": 0.62,
          "vel": 127,
          "clef": "bass",
          "pitch": "G#2"
        },
        {
          "midi": 68,
          "beat": 0,
          "dur": 3.73,
          "vel": 127,
          "clef": "treble",
          "pitch": "G#4"
        },
        {
          "midi": 56,
          "beat": 0.33,
          "dur": 0.62,
          "vel": 127,
          "clef": "bass",
          "pitch": "G#3"
        },
        {
          "midi": 60,
          "beat": 0.67,
          "dur": 0.62,
          "vel": 127,
          "clef": "bass",
          "pitch": "C4"
        },
        {
          "midi": 63,
          "beat": 1,
          "dur": 0.62,
          "vel": 127,
          "clef": "bass",
          "pitch": "D#4"
        },
        {
          "midi": 60,
          "beat": 1.33,
          "dur": 0.62,
          "vel": 127,
          "clef": "bass",
          "pitch": "C4"
        },
        {
          "midi": 56,
          "beat": 1.67,
          "dur": 0.62,
          "vel": 127,
          "clef": "bass",
          "pitch": "G#3"
        },
        {
          "midi": 51,
          "beat": 2,
          "dur": 0.62,
          "vel": 127,
          "clef": "bass",
          "pitch": "D#3"
        },
        {
          "midi": 70,
          "beat": 2,
          "dur": 0.93,
          "vel": 127,
          "clef": "treble",
          "acc": "#",
          "pitch": "A#4"
        },
        {
          "midi": 56,
          "beat": 2.33,
          "dur": 0.62,
          "vel": 127,
          "clef": "bass",
          "pitch": "G#3"
        },
        {
          "midi": 68,
          "beat": 2.5,
          "dur": 0.93,
          "vel": 127,
          "clef": "treble",
          "pitch": "G#4"
        },
        {
          "midi": 60,
          "beat": 2.67,
          "dur": 0.62,
          "vel": 127,
          "clef": "bass",
          "pitch": "C4"
        },
        {
          "midi": 66,
          "beat": 3,
          "dur": 0.62,
          "vel": 127,
          "clef": "bass",
          "pitch": "F#4"
        },
        {
          "midi": 73,
          "beat": 3,
          "dur": 0.93,
          "vel": 127,
          "clef": "treble",
          "pitch": "C#5"
        },
        {
          "midi": 60,
          "beat": 3.33,
          "dur": 0.62,
          "vel": 127,
          "clef": "bass",
          "pitch": "C4"
        },
        {
          "midi": 75,
          "beat": 3.5,
          "dur": 0.5,
          "vel": 127,
          "clef": "treble",
          "pitch": "D#5"
        },
        {
          "midi": 56,
          "beat": 3.67,
          "dur": 0.33,
          "vel": 127,
          "clef": "bass",
          "pitch": "G#3"
        }
      ]
    },
    {
      "_": "Treble: 3 notes, Bass: 11 notes",
      "number": 63,
      "notes": [
        {
          "midi": 49,
          "beat": 0,
          "dur": 0.62,
          "vel": 127,
          "clef": "bass",
          "pitch": "C#3"
        },
        {
          "midi": 77,
          "beat": 0,
          "dur": 3.73,
          "vel": 127,
          "clef": "treble",
          "pitch": "F5"
        },
        {
          "midi": 56,
          "beat": 0.33,
          "dur": 0.62,
          "vel": 127,
          "clef": "bass",
          "pitch": "G#3"
        },
        {
          "midi": 61,
          "beat": 0.67,
          "dur": 0.62,
          "vel": 127,
          "clef": "bass",
          "pitch": "C#4"
        },
        {
          "midi": 65,
          "beat": 1,
          "dur": 0.62,
          "vel": 127,
          "clef": "bass",
          "pitch": "F4"
        },
        {
          "midi": 61,
          "beat": 1.33,
          "dur": 0.62,
          "vel": 127,
          "clef": "bass",
          "pitch": "C#4"
        },
        {
          "midi": 56,
          "beat": 1.67,
          "dur": 0.62,
          "vel": 127,
          "clef": "bass",
          "pitch": "G#3"
        },
        {
          "midi": 49,
          "beat": 2,
          "dur": 0.62,
          "vel": 127,
          "clef": "bass",
          "pitch": "C#3"
        },
        {
          "midi": 80,
          "beat": 2,
          "dur": 2,
          "vel": 127,
          "clef": "treble",
          "pitch": "G#5"
        },
        {
          "midi": 56,
          "beat": 2.33,
          "dur": 0.62,
          "vel": 127,
          "clef": "bass",
          "pitch": "G#3"
        },
        {
          "midi": 65,
          "beat": 2.67,
          "dur": 0.62,
          "vel": 127,
          "clef": "bass",
          "pitch": "F4"
        },
        {
          "midi": 68,
          "beat": 3,
          "dur": 1,
          "vel": 127,
          "clef": "treble",
          "pitch": "G#4"
        },
        {
          "midi": 65,
          "beat": 3.33,
          "dur": 0.62,
          "vel": 127,
          "clef": "bass",
          "pitch": "F4"
        },
        {
          "midi": 56,
          "beat": 3.67,
          "dur": 0.33,
          "vel": 127,
          "clef": "bass",
          "pitch": "G#3"
        }
      ]
    },
    {
      "_": "Treble: 9 notes, Bass: 12 notes",
      "number": 64,
      "notes": [
        {
          "midi": 66,
          "beat": 0,
          "dur": 1.87,
          "vel": 127,
          "clef": "bass",
          "pitch": "F#4"
        },
        {
          "midi": 78,
          "beat": 0,
          "dur": 1.87,
          "vel": 127,
          "clef": "treble",
          "pitch": "F#5"
        },
        {
          "midi": 63,
          "beat": 0.33,
          "dur": 0.62,
          "vel": 127,
          "clef": "bass",
          "pitch": "D#4"
        },
        {
          "midi": 56,
          "beat": 0.67,
          "dur": 0.62,
          "vel": 127,
          "clef": "bass",
          "pitch": "G#3"
        },
        {
          "midi": 65,
          "beat": 1,
          "dur": 1.87,
          "vel": 127,
          "clef": "bass",
          "pitch": "F4"
        },
        {
          "midi": 77,
          "beat": 1,
          "dur": 1.87,
          "vel": 127,
          "clef": "treble",
          "pitch": "F5"
        },
        {
          "midi": 61,
          "beat": 1.33,
          "dur": 0.62,
          "vel": 127,
          "clef": "bass",
          "pitch": "C#4"
        },
        {
          "midi": 56,
          "beat": 1.67,
          "dur": 0.62,
          "vel": 127,
          "clef": "bass",
          "pitch": "G#3"
        },
        {
          "midi": 63,
          "beat": 2,
          "dur": 1.87,
          "vel": 127,
          "clef": "bass",
          "pitch": "D#4"
        },
        {
          "midi": 75,
          "beat": 2,
          "dur": 1.44,
          "vel": 127,
          "clef": "treble",
          "pitch": "D#5"
        },
        {
          "midi": 60,
          "beat": 2.33,
          "dur": 0.62,
          "vel": 127,
          "clef": "bass",
          "pitch": "C4"
        },
        {
          "midi": 56,
          "beat": 2.67,
          "dur": 0.62,
          "vel": 127,
          "clef": "bass",
          "pitch": "G#3"
        },
        {
          "midi": 77,
          "beat": 2.77,
          "dur": 0.1,
          "vel": 127,
          "clef": "treble",
          "pitch": "F5"
        },
        {
          "midi": 75,
          "beat": 2.83,
          "dur": 0.1,
          "vel": 127,
          "clef": "treble",
          "pitch": "D#5"
        },
        {
          "midi": 73,
          "beat": 2.89,
          "dur": 0.1,
          "vel": 127,
          "clef": "treble",
          "pitch": "C#5"
        },
        {
          "midi": 75,
          "beat": 2.94,
          "dur": 0.1,
          "vel": 127,
          "clef": "treble",
          "pitch": "D#5"
        },
        {
          "midi": 61,
          "beat": 3,
          "dur": 1,
          "vel": 127,
          "clef": "bass",
          "pitch": "C#4"
        },
        {
          "midi": 77,
          "beat": 3,
          "dur": 1,
          "vel": 127,
          "clef": "treble",
          "pitch": "F5"
        },
        {
          "midi": 56,
          "beat": 3.33,
          "dur": 0.62,
          "vel": 127,
          "clef": "bass",
          "pitch": "G#3"
        },
        {
          "midi": 53,
          "beat": 3.67,
          "dur": 0.33,
          "vel": 127,
          "clef": "bass",
          "pitch": "F3"
        },
        {
          "midi": 73,
          "beat": 3.75,
          "dur": 0.25,
          "vel": 127,
          "clef": "treble",
          "pitch": "C#5"
        }
      ]
    },
    {
      "_": "Treble: 2 notes, Bass: 12 notes",
      "number": 65,
      "notes": [
        {
          "midi": 44,
          "beat": 0,
          "dur": 0.62,
          "vel": 127,
          "clef": "bass",
          "pitch": "G#2"
        },
        {
          "midi": 68,
          "beat": 0,
          "dur": 3.73,
          "vel": 127,
          "clef": "treble",
          "pitch": "G#4"
        },
        {
          "midi": 51,
          "beat": 0.33,
          "dur": 0.62,
          "vel": 127,
          "clef": "bass",
          "pitch": "D#3"
        },
        {
          "midi": 56,
          "beat": 0.67,
          "dur": 0.62,
          "vel": 127,
          "clef": "bass",
          "pitch": "G#3"
        },
        {
          "midi": 60,
          "beat": 1,
          "dur": 0.62,
          "vel": 127,
          "clef": "bass",
          "pitch": "C4"
        },
        {
          "midi": 56,
          "beat": 1.33,
          "dur": 0.62,
          "vel": 127,
          "clef": "bass",
          "pitch": "G#3"
        },
        {
          "midi": 51,
          "beat": 1.67,
          "dur": 0.62,
          "vel": 127,
          "clef": "bass",
          "pitch": "D#3"
        },
        {
          "midi": 42,
          "beat": 2,
          "dur": 0.62,
          "vel": 127,
          "clef": "bass",
          "pitch": "F#2"
        },
        {
          "midi": 70,
          "beat": 2,
          "dur": 2,
          "vel": 127,
          "clef": "treble",
          "acc": "#",
          "pitch": "A#4"
        },
        {
          "midi": 54,
          "beat": 2.33,
          "dur": 0.62,
          "vel": 127,
          "clef": "bass",
          "pitch": "F#3"
        },
        {
          "midi": 58,
          "beat": 2.67,
          "dur": 0.62,
          "vel": 127,
          "clef": "bass",
          "acc": "#",
          "pitch": "A#3"
        },
        {
          "midi": 61,
          "beat": 3,
          "dur": 0.62,
          "vel": 127,
          "clef": "bass",
          "pitch": "C#4"
        },
        {
          "midi": 58,
          "beat": 3.33,
          "dur": 0.62,
          "vel": 127,
          "clef": "bass",
          "acc": "#",
          "pitch": "A#3"
        },
        {
          "midi": 54,
          "beat": 3.67,
          "dur": 0.33,
          "vel": 127,
          "clef": "bass",
          "pitch": "F#3"
        }
      ]
    },
    {
      "_": "Treble: 4 notes, Bass: 12 notes",
      "number": 66,
      "notes": [
        {
          "midi": 46,
          "beat": 0,
          "dur": 0.62,
          "vel": 127,
          "clef": "bass",
          "acc": "#",
          "pitch": "A#2"
        },
        {
          "midi": 53,
          "beat": 0.33,
          "dur": 0.62,
          "vel": 127,
          "clef": "bass",
          "pitch": "F3"
        },
        {
          "midi": 58,
          "beat": 0.67,
          "dur": 0.62,
          "vel": 127,
          "clef": "bass",
          "acc": "#",
          "pitch": "A#3"
        },
        {
          "midi": 62,
          "beat": 1,
          "dur": 0.62,
          "vel": 127,
          "clef": "bass",
          "pitch": "D4"
        },
        {
          "midi": 58,
          "beat": 1.33,
          "dur": 0.62,
          "vel": 127,
          "clef": "bass",
          "acc": "#",
          "pitch": "A#3"
        },
        {
          "midi": 53,
          "beat": 1.67,
          "dur": 0.62,
          "vel": 127,
          "clef": "bass",
          "pitch": "F3"
        },
        {
          "midi": 46,
          "beat": 2,
          "dur": 0.62,
          "vel": 127,
          "clef": "bass",
          "acc": "#",
          "pitch": "A#2"
        },
        {
          "midi": 71,
          "beat": 2,
          "dur": 0.93,
          "vel": 127,
          "clef": "treble",
          "pitch": "B4"
        },
        {
          "midi": 58,
          "beat": 2.33,
          "dur": 0.62,
          "vel": 127,
          "clef": "bass",
          "acc": "#",
          "pitch": "A#3"
        },
        {
          "midi": 70,
          "beat": 2.5,
          "dur": 0.93,
          "vel": 127,
          "clef": "treble",
          "acc": "#",
          "pitch": "A#4"
        },
        {
          "midi": 62,
          "beat": 2.67,
          "dur": 0.62,
          "vel": 127,
          "clef": "bass",
          "pitch": "D4"
        },
        {
          "midi": 68,
          "beat": 3,
          "dur": 0.62,
          "vel": 127,
          "clef": "bass",
          "pitch": "G#4"
        },
        {
          "midi": 75,
          "beat": 3,
          "dur": 0.93,
          "vel": 127,
          "clef": "treble",
          "pitch": "D#5"
        },
        {
          "midi": 62,
          "beat": 3.33,
          "dur": 0.62,
          "vel": 127,
          "clef": "bass",
          "pitch": "D4"
        },
        {
          "midi": 77,
          "beat": 3.5,
          "dur": 0.5,
          "vel": 127,
          "clef": "treble",
          "pitch": "F5"
        },
        {
          "midi": 58,
          "beat": 3.67,
          "dur": 0.33,
          "vel": 127,
          "clef": "bass",
          "acc": "#",
          "pitch": "A#3"
        }
      ]
    },
    {
      "_": "Treble: 4 notes, Bass: 12 notes",
      "number": 67,
      "notes": [
        {
          "midi": 51,
          "beat": 0,
          "dur": 0.62,
          "vel": 127,
          "clef": "bass",
          "pitch": "D#3"
        },
        {
          "midi": 78,
          "beat": 0,
          "dur": 1.87,
          "vel": 127,
          "clef": "treble",
          "pitch": "F#5"
        },
        {
          "midi": 66,
          "beat": 0.33,
          "dur": 0.62,
          "vel": 127,
          "clef": "bass",
          "pitch": "F#4"
        },
        {
          "midi": 58,
          "beat": 0.67,
          "dur": 0.62,
          "vel": 127,
          "clef": "bass",
          "acc": "#",
          "pitch": "A#3"
        },
        {
          "midi": 53,
          "beat": 1,
          "dur": 0.62,
          "vel": 127,
          "clef": "bass",
          "pitch": "F3"
        },
        {
          "midi": 77,
          "beat": 1,
          "dur": 1.87,
          "vel": 127,
          "clef": "treble",
          "pitch": "F5"
        },
        {
          "midi": 65,
          "beat": 1.33,
          "dur": 0.62,
          "vel": 127,
          "clef": "bass",
          "pitch": "F4"
        },
        {
          "midi": 57,
          "beat": 1.67,
          "dur": 0.62,
          "vel": 127,
          "clef": "bass",
          "pitch": "A3"
        },
        {
          "midi": 54,
          "beat": 2,
          "dur": 0.62,
          "vel": 127,
          "clef": "bass",
          "pitch": "F#3"
        },
        {
          "midi": 75,
          "beat": 2,
          "dur": 1.87,
          "vel": 127,
          "clef": "treble",
          "pitch": "D#5"
        },
        {
          "midi": 63,
          "beat": 2.33,
          "dur": 0.62,
          "vel": 127,
          "clef": "bass",
          "pitch": "D#4"
        },
        {
          "midi": 58,
          "beat": 2.67,
          "dur": 0.62,
          "vel": 127,
          "clef": "bass",
          "acc": "#",
          "pitch": "A#3"
        },
        {
          "midi": 56,
          "beat": 3,
          "dur": 0.62,
          "vel": 127,
          "clef": "bass",
          "pitch": "G#3"
        },
        {
          "midi": 77,
          "beat": 3,
          "dur": 1,
          "vel": 127,
          "clef": "treble",
          "pitch": "F5"
        },
        {
          "midi": 66,
          "beat": 3.33,
          "dur": 0.62,
          "vel": 127,
          "clef": "bass",
          "pitch": "F#4"
        },
        {
          "midi": 60,
          "beat": 3.67,
          "dur": 0.33,
          "vel": 127,
          "clef": "bass",
          "pitch": "C4"
        }
      ]
    },
    {
      "_": "Treble: 7 notes, Bass: 12 notes",
      "number": 68,
      "notes": [
        {
          "midi": 49,
          "beat": 0,
          "dur": 0.62,
          "vel": 127,
          "clef": "bass",
          "pitch": "C#3"
        },
        {
          "midi": 73,
          "beat": 0,
          "dur": 2.8,
          "vel": 127,
          "clef": "treble",
          "pitch": "C#5"
        },
        {
          "midi": 56,
          "beat": 0.33,
          "dur": 0.62,
          "vel": 127,
          "clef": "bass",
          "pitch": "G#3"
        },
        {
          "midi": 61,
          "beat": 0.67,
          "dur": 0.62,
          "vel": 127,
          "clef": "bass",
          "pitch": "C#4"
        },
        {
          "midi": 65,
          "beat": 1,
          "dur": 0.62,
          "vel": 127,
          "clef": "bass",
          "pitch": "F4"
        },
        {
          "midi": 61,
          "beat": 1.33,
          "dur": 0.62,
          "vel": 127,
          "clef": "bass",
          "pitch": "C#4"
        },
        {
          "midi": 67,
          "beat": 1.5,
          "dur": 0.23,
          "vel": 127,
          "clef": "treble",
          "pitch": "G4"
        },
        {
          "midi": 68,
          "beat": 1.63,
          "dur": 0.23,
          "vel": 127,
          "clef": "treble",
          "pitch": "G#4"
        },
        {
          "midi": 56,
          "beat": 1.67,
          "dur": 0.62,
          "vel": 127,
          "clef": "bass",
          "pitch": "G#3"
        },
        {
          "midi": 70,
          "beat": 1.75,
          "dur": 0.23,
          "vel": 127,
          "clef": "treble",
          "acc": "#",
          "pitch": "A#4"
        },
        {
          "midi": 68,
          "beat": 1.88,
          "dur": 0.23,
          "vel": 127,
          "clef": "treble",
          "pitch": "G#4"
        },
        {
          "midi": 49,
          "beat": 2,
          "dur": 0.62,
          "vel": 127,
          "clef": "bass",
          "pitch": "C#3"
        },
        {
          "midi": 77,
          "beat": 2,
          "dur": 2,
          "vel": 127,
          "clef": "treble",
          "pitch": "F5"
        },
        {
          "midi": 56,
          "beat": 2.33,
          "dur": 0.62,
          "vel": 127,
          "clef": "bass",
          "pitch": "G#3"
        },
        {
          "midi": 60,
          "beat": 2.67,
          "dur": 0.62,
          "vel": 127,
          "clef": "bass",
          "pitch": "C4"
        },
        {
          "midi": 66,
          "beat": 3,
          "dur": 0.62,
          "vel": 127,
          "clef": "bass",
          "pitch": "F#4"
        },
        {
          "midi": 60,
          "beat": 3.33,
          "dur": 0.62,
          "vel": 127,
          "clef": "bass",
          "pitch": "C4"
        },
        {
          "midi": 75,
          "beat": 3.5,
          "dur": 0.5,
          "vel": 127,
          "clef": "treble",
          "pitch": "D#5"
        },
        {
          "midi": 56,
          "beat": 3.67,
          "dur": 0.33,
          "vel": 127,
          "clef": "bass",
          "pitch": "G#3"
        }
      ]
    },
    {
      "_": "Treble: 3 notes, Bass: 12 notes",
      "number": 69,
      "notes": [
        {
          "midi": 49,
          "beat": 0,
          "dur": 0.62,
          "vel": 127,
          "clef": "bass",
          "pitch": "C#3"
        },
        {
          "midi": 75,
          "beat": 0,
          "dur": 3.73,
          "vel": 127,
          "clef": "treble",
          "pitch": "D#5"
        },
        {
          "midi": 56,
          "beat": 0.33,
          "dur": 0.62,
          "vel": 127,
          "clef": "bass",
          "pitch": "G#3"
        },
        {
          "midi": 60,
          "beat": 0.67,
          "dur": 0.62,
          "vel": 127,
          "clef": "bass",
          "pitch": "C4"
        },
        {
          "midi": 66,
          "beat": 1,
          "dur": 0.62,
          "vel": 127,
          "clef": "bass",
          "pitch": "F#4"
        },
        {
          "midi": 60,
          "beat": 1.33,
          "dur": 0.62,
          "vel": 127,
          "clef": "bass",
          "pitch": "C4"
        },
        {
          "midi": 56,
          "beat": 1.67,
          "dur": 0.62,
          "vel": 127,
          "clef": "bass",
          "pitch": "G#3"
        },
        {
          "midi": 49,
          "beat": 2,
          "dur": 0.62,
          "vel": 127,
          "clef": "bass",
          "pitch": "C#3"
        },
        {
          "midi": 73,
          "beat": 2,
          "dur": 1.87,
          "vel": 127,
          "clef": "treble",
          "pitch": "C#5"
        },
        {
          "midi": 56,
          "beat": 2.33,
          "dur": 0.62,
          "vel": 127,
          "clef": "bass",
          "pitch": "G#3"
        },
        {
          "midi": 61,
          "beat": 2.67,
          "dur": 0.62,
          "vel": 127,
          "clef": "bass",
          "pitch": "C#4"
        },
        {
          "midi": 65,
          "beat": 3,
          "dur": 0.62,
          "vel": 127,
          "clef": "bass",
          "pitch": "F4"
        },
        {
          "midi": 61,
          "beat": 3.33,
          "dur": 0.62,
          "vel": 127,
          "clef": "bass",
          "pitch": "C#4"
        },
        {
          "midi": 80,
          "beat": 3.5,
          "dur": 0.5,
          "vel": 127,
          "clef": "treble",
          "pitch": "G#5"
        },
        {
          "midi": 56,
          "beat": 3.67,
          "dur": 0.33,
          "vel": 127,
          "clef": "bass",
          "pitch": "G#3"
        }
      ]
    },
    {
      "_": "Treble: 5 notes, Bass: 12 notes",
      "number": 70,
      "notes": [
        {
          "midi": 44,
          "beat": 0,
          "dur": 0.62,
          "vel": 127,
          "clef": "bass",
          "pitch": "G#2"
        },
        {
          "midi": 68,
          "beat": 0,
          "dur": 3.73,
          "vel": 127,
          "clef": "treble",
          "pitch": "G#4"
        },
        {
          "midi": 51,
          "beat": 0.33,
          "dur": 0.62,
          "vel": 127,
          "clef": "bass",
          "pitch": "D#3"
        },
        {
          "midi": 56,
          "beat": 0.67,
          "dur": 0.62,
          "vel": 127,
          "clef": "bass",
          "pitch": "G#3"
        },
        {
          "midi": 60,
          "beat": 1,
          "dur": 0.62,
          "vel": 127,
          "clef": "bass",
          "pitch": "C4"
        },
        {
          "midi": 56,
          "beat": 1.33,
          "dur": 0.62,
          "vel": 127,
          "clef": "bass",
          "pitch": "G#3"
        },
        {
          "midi": 51,
          "beat": 1.67,
          "dur": 0.62,
          "vel": 127,
          "clef": "bass",
          "pitch": "D#3"
        },
        {
          "midi": 44,
          "beat": 2,
          "dur": 0.62,
          "vel": 127,
          "clef": "bass",
          "pitch": "G#2"
        },
        {
          "midi": 70,
          "beat": 2,
          "dur": 1.4,
          "vel": 127,
          "clef": "treble",
          "acc": "#",
          "pitch": "A#4"
        },
        {
          "midi": 51,
          "beat": 2.33,
          "dur": 0.62,
          "vel": 127,
          "clef": "bass",
          "pitch": "D#3"
        },
        {
          "midi": 55,
          "beat": 2.67,
          "dur": 0.62,
          "vel": 127,
          "clef": "bass",
          "pitch": "G3"
        },
        {
          "midi": 69,
          "beat": 2.75,
          "dur": 0.47,
          "vel": 127,
          "clef": "treble",
          "pitch": "A4"
        },
        {
          "midi": 61,
          "beat": 3,
          "dur": 0.62,
          "vel": 127,
          "clef": "bass",
          "pitch": "C#4"
        },
        {
          "midi": 70,
          "beat": 3,
          "dur": 1,
          "vel": 127,
          "clef": "treble",
          "acc": "#",
          "pitch": "A#4"
        },
        {
          "midi": 55,
          "beat": 3.33,
          "dur": 0.62,
          "vel": 127,
          "clef": "bass",
          "pitch": "G3"
        },
        {
          "midi": 51,
          "beat": 3.67,
          "dur": 0.33,
          "vel": 127,
          "clef": "bass",
          "pitch": "D#3"
        },
        {
          "midi": 72,
          "beat": 3.75,
          "dur": 0.25,
          "vel": 127,
          "clef": "treble",
          "pitch": "C5"
        }
      ]
    },
    {
      "_": "Treble: 8 notes, Bass: 12 notes",
      "number": 71,
      "notes": [
        {
          "midi": 44,
          "beat": 0,
          "dur": 0.62,
          "vel": 127,
          "clef": "bass",
          "pitch": "G#2"
        },
        {
          "midi": 68,
          "beat": 0,
          "dur": 0.93,
          "vel": 127,
          "clef": "treble",
          "pitch": "G#4"
        },
        {
          "midi": 51,
          "beat": 0.33,
          "dur": 0.62,
          "vel": 127,
          "clef": "bass",
          "pitch": "D#3"
        },
        {
          "midi": 56,
          "beat": 0.67,
          "dur": 0.62,
          "vel": 127,
          "clef": "bass",
          "pitch": "G#3"
        },
        {
          "midi": 60,
          "beat": 1,
          "dur": 0.62,
          "vel": 127,
          "clef": "bass",
          "pitch": "C4"
        },
        {
          "midi": 84,
          "beat": 1,
          "dur": 2.4,
          "vel": 127,
          "clef": "treble",
          "pitch": "C6"
        },
        {
          "midi": 56,
          "beat": 1.33,
          "dur": 0.62,
          "vel": 127,
          "clef": "bass",
          "pitch": "G#3"
        },
        {
          "midi": 51,
          "beat": 1.67,
          "dur": 0.62,
          "vel": 127,
          "clef": "bass",
          "pitch": "D#3"
        },
        {
          "midi": 49,
          "beat": 2,
          "dur": 0.62,
          "vel": 127,
          "clef": "bass",
          "pitch": "C#3"
        },
        {
          "midi": 82,
          "beat": 2.28,
          "dur": 0.53,
          "vel": 127,
          "clef": "treble",
          "acc": "#",
          "pitch": "A#5"
        },
        {
          "midi": 56,
          "beat": 2.33,
          "dur": 0.62,
          "vel": 127,
          "clef": "bass",
          "pitch": "G#3"
        },
        {
          "midi": 80,
          "beat": 2.57,
          "dur": 0.53,
          "vel": 127,
          "clef": "treble",
          "pitch": "G#5"
        },
        {
          "midi": 61,
          "beat": 2.67,
          "dur": 0.62,
          "vel": 127,
          "clef": "bass",
          "pitch": "C#4"
        },
        {
          "midi": 76,
          "beat": 2.86,
          "dur": 0.53,
          "vel": 127,
          "clef": "treble",
          "pitch": "E5"
        },
        {
          "midi": 64,
          "beat": 3,
          "dur": 0.62,
          "vel": 127,
          "clef": "bass",
          "pitch": "E4"
        },
        {
          "midi": 73,
          "beat": 3.14,
          "dur": 0.53,
          "vel": 127,
          "clef": "treble",
          "pitch": "C#5"
        },
        {
          "midi": 61,
          "beat": 3.33,
          "dur": 0.62,
          "vel": 127,
          "clef": "bass",
          "pitch": "C#4"
        },
        {
          "midi": 70,
          "beat": 3.43,
          "dur": 0.57,
          "vel": 127,
          "clef": "treble",
          "acc": "#",
          "pitch": "A#4"
        },
        {
          "midi": 56,
          "beat": 3.67,
          "dur": 0.33,
          "vel": 127,
          "clef": "bass",
          "pitch": "G#3"
        },
        {
          "midi": 80,
          "beat": 3.86,
          "dur": 0.14,
          "vel": 127,
          "clef": "treble",
          "pitch": "G#5"
        }
      ]
    },
    {
      "_": "Treble: 6 notes, Bass: 12 notes",
      "number": 72,
      "notes": [
        {
          "midi": 39,
          "beat": 0,
          "dur": 0.62,
          "vel": 127,
          "clef": "bass",
          "pitch": "D#2"
        },
        {
          "midi": 63,
          "beat": 0,
          "dur": 3.52,
          "vel": 127,
          "clef": "treble",
          "pitch": "D#4"
        },
        {
          "midi": 51,
          "beat": 0.33,
          "dur": 0.62,
          "vel": 127,
          "clef": "bass",
          "pitch": "D#3"
        },
        {
          "midi": 56,
          "beat": 0.67,
          "dur": 0.62,
          "vel": 127,
          "clef": "bass",
          "pitch": "G#3"
        },
        {
          "midi": 60,
          "beat": 1,
          "dur": 0.62,
          "vel": 127,
          "clef": "bass",
          "pitch": "C4"
        },
        {
          "midi": 56,
          "beat": 1.33,
          "dur": 0.62,
          "vel": 127,
          "clef": "bass",
          "pitch": "G#3"
        },
        {
          "midi": 51,
          "beat": 1.67,
          "dur": 0.62,
          "vel": 127,
          "clef": "bass",
          "pitch": "D#3"
        },
        {
          "midi": 72,
          "beat": 1.89,
          "dur": 0.21,
          "vel": 127,
          "clef": "treble",
          "pitch": "C5"
        },
        {
          "midi": 39,
          "beat": 2,
          "dur": 0.62,
          "vel": 127,
          "clef": "bass",
          "pitch": "D#2"
        },
        {
          "midi": 70,
          "beat": 2,
          "dur": 1.4,
          "vel": 127,
          "clef": "treble",
          "acc": "#",
          "pitch": "A#4"
        },
        {
          "midi": 51,
          "beat": 2.33,
          "dur": 0.62,
          "vel": 127,
          "clef": "bass",
          "pitch": "D#3"
        },
        {
          "midi": 55,
          "beat": 2.67,
          "dur": 0.62,
          "vel": 127,
          "clef": "bass",
          "pitch": "G3"
        },
        {
          "midi": 69,
          "beat": 2.75,
          "dur": 0.47,
          "vel": 127,
          "clef": "treble",
          "pitch": "A4"
        },
        {
          "midi": 61,
          "beat": 3,
          "dur": 0.62,
          "vel": 127,
          "clef": "bass",
          "pitch": "C#4"
        },
        {
          "midi": 70,
          "beat": 3,
          "dur": 1,
          "vel": 127,
          "clef": "treble",
          "acc": "#",
          "pitch": "A#4"
        },
        {
          "midi": 55,
          "beat": 3.33,
          "dur": 0.62,
          "vel": 127,
          "clef": "bass",
          "pitch": "G3"
        },
        {
          "midi": 51,
          "beat": 3.67,
          "dur": 0.33,
          "vel": 127,
          "clef": "bass",
          "pitch": "D#3"
        },
        {
          "midi": 75,
          "beat": 3.75,
          "dur": 0.25,
          "vel": 127,
          "clef": "treble",
          "pitch": "D#5"
        }
      ]
    },
    {
      "_": "Treble: 5 notes, Bass: 12 notes",
      "number": 73,
      "notes": [
        {
          "midi": 44,
          "beat": 0,
          "dur": 0.62,
          "vel": 127,
          "clef": "bass",
          "pitch": "G#2"
        },
        {
          "midi": 68,
          "beat": 0,
          "dur": 1.87,
          "vel": 127,
          "clef": "treble",
          "pitch": "G#4"
        },
        {
          "midi": 51,
          "beat": 0.33,
          "dur": 0.62,
          "vel": 127,
          "clef": "bass",
          "pitch": "D#3"
        },
        {
          "midi": 56,
          "beat": 0.67,
          "dur": 0.62,
          "vel": 127,
          "clef": "bass",
          "pitch": "G#3"
        },
        {
          "midi": 60,
          "beat": 1,
          "dur": 0.62,
          "vel": 127,
          "clef": "bass",
          "pitch": "C4"
        },
        {
          "midi": 56,
          "beat": 1.33,
          "dur": 0.62,
          "vel": 127,
          "clef": "bass",
          "pitch": "G#3"
        },
        {
          "midi": 51,
          "beat": 1.67,
          "dur": 0.62,
          "vel": 127,
          "clef": "bass",
          "pitch": "D#3"
        },
        {
          "midi": 42,
          "beat": 2,
          "dur": 0.62,
          "vel": 127,
          "clef": "bass",
          "pitch": "F#2"
        },
        {
          "midi": 70,
          "beat": 2,
          "dur": 1.87,
          "vel": 127,
          "clef": "treble",
          "acc": "#",
          "pitch": "A#4"
        },
        {
          "midi": 54,
          "beat": 2.33,
          "dur": 0.62,
          "vel": 127,
          "clef": "bass",
          "pitch": "F#3"
        },
        {
          "midi": 58,
          "beat": 2.67,
          "dur": 0.62,
          "vel": 127,
          "clef": "bass",
          "acc": "#",
          "pitch": "A#3"
        },
        {
          "midi": 61,
          "beat": 3,
          "dur": 0.62,
          "vel": 127,
          "clef": "bass",
          "pitch": "C#4"
        },
        {
          "midi": 73,
          "beat": 3,
          "dur": 0.62,
          "vel": 127,
          "clef": "treble",
          "pitch": "C#5"
        },
        {
          "midi": 58,
          "beat": 3.33,
          "dur": 0.62,
          "vel": 127,
          "clef": "bass",
          "acc": "#",
          "pitch": "A#3"
        },
        {
          "midi": 72,
          "beat": 3.33,
          "dur": 0.62,
          "vel": 127,
          "clef": "treble",
          "pitch": "C5"
        },
        {
          "midi": 54,
          "beat": 3.67,
          "dur": 0.33,
          "vel": 127,
          "clef": "bass",
          "pitch": "F#3"
        },
        {
          "midi": 70,
          "beat": 3.67,
          "dur": 0.33,
          "vel": 127,
          "clef": "treble",
          "acc": "#",
          "pitch": "A#4"
        }
      ]
    },
    {
      "_": "Treble: 5 notes, Bass: 12 notes",
      "number": 74,
      "notes": [
        {
          "midi": 44,
          "beat": 0,
          "dur": 0.62,
          "vel": 127,
          "clef": "bass",
          "pitch": "G#2"
        },
        {
          "midi": 68,
          "beat": 0,
          "dur": 3.73,
          "vel": 127,
          "clef": "treble",
          "pitch": "G#4"
        },
        {
          "midi": 51,
          "beat": 0.33,
          "dur": 0.62,
          "vel": 127,
          "clef": "bass",
          "pitch": "D#3"
        },
        {
          "midi": 56,
          "beat": 0.67,
          "dur": 0.62,
          "vel": 127,
          "clef": "bass",
          "pitch": "G#3"
        },
        {
          "midi": 60,
          "beat": 1,
          "dur": 0.62,
          "vel": 127,
          "clef": "bass",
          "pitch": "C4"
        },
        {
          "midi": 56,
          "beat": 1.33,
          "dur": 0.62,
          "vel": 127,
          "clef": "bass",
          "pitch": "G#3"
        },
        {
          "midi": 51,
          "beat": 1.67,
          "dur": 0.62,
          "vel": 127,
          "clef": "bass",
          "pitch": "D#3"
        },
        {
          "midi": 44,
          "beat": 2,
          "dur": 0.62,
          "vel": 127,
          "clef": "bass",
          "pitch": "G#2"
        },
        {
          "midi": 70,
          "beat": 2,
          "dur": 0.93,
          "vel": 127,
          "clef": "treble",
          "acc": "#",
          "pitch": "A#4"
        },
        {
          "midi": 56,
          "beat": 2.33,
          "dur": 0.62,
          "vel": 127,
          "clef": "bass",
          "pitch": "G#3"
        },
        {
          "midi": 68,
          "beat": 2.5,
          "dur": 0.93,
          "vel": 127,
          "clef": "treble",
          "pitch": "G#4"
        },
        {
          "midi": 60,
          "beat": 2.67,
          "dur": 0.62,
          "vel": 127,
          "clef": "bass",
          "pitch": "C4"
        },
        {
          "midi": 66,
          "beat": 3,
          "dur": 0.62,
          "vel": 127,
          "clef": "bass",
          "pitch": "F#4"
        },
        {
          "midi": 73,
          "beat": 3,
          "dur": 0.93,
          "vel": 127,
          "clef": "treble",
          "pitch": "C#5"
        },
        {
          "midi": 60,
          "beat": 3.33,
          "dur": 0.62,
          "vel": 127,
          "clef": "bass",
          "pitch": "C4"
        },
        {
          "midi": 75,
          "beat": 3.5,
          "dur": 0.5,
          "vel": 127,
          "clef": "treble",
          "pitch": "D#5"
        },
        {
          "midi": 56,
          "beat": 3.67,
          "dur": 0.33,
          "vel": 127,
          "clef": "bass",
          "pitch": "G#3"
        }
      ]
    },
    {
      "_": "Treble: 3 notes, Bass: 11 notes",
      "number": 75,
      "notes": [
        {
          "midi": 49,
          "beat": 0,
          "dur": 0.62,
          "vel": 127,
          "clef": "bass",
          "pitch": "C#3"
        },
        {
          "midi": 77,
          "beat": 0,
          "dur": 3.73,
          "vel": 127,
          "clef": "treble",
          "pitch": "F5"
        },
        {
          "midi": 56,
          "beat": 0.33,
          "dur": 0.62,
          "vel": 127,
          "clef": "bass",
          "pitch": "G#3"
        },
        {
          "midi": 61,
          "beat": 0.67,
          "dur": 0.62,
          "vel": 127,
          "clef": "bass",
          "pitch": "C#4"
        },
        {
          "midi": 65,
          "beat": 1,
          "dur": 0.62,
          "vel": 127,
          "clef": "bass",
          "pitch": "F4"
        },
        {
          "midi": 61,
          "beat": 1.33,
          "dur": 0.62,
          "vel": 127,
          "clef": "bass",
          "pitch": "C#4"
        },
        {
          "midi": 56,
          "beat": 1.67,
          "dur": 0.62,
          "vel": 127,
          "clef": "bass",
          "pitch": "G#3"
        },
        {
          "midi": 49,
          "beat": 2,
          "dur": 0.62,
          "vel": 127,
          "clef": "bass",
          "pitch": "C#3"
        },
        {
          "midi": 80,
          "beat": 2,
          "dur": 2,
          "vel": 127,
          "clef": "treble",
          "pitch": "G#5"
        },
        {
          "midi": 56,
          "beat": 2.33,
          "dur": 0.62,
          "vel": 127,
          "clef": "bass",
          "pitch": "G#3"
        },
        {
          "midi": 65,
          "beat": 2.67,
          "dur": 0.62,
          "vel": 127,
          "clef": "bass",
          "pitch": "F4"
        },
        {
          "midi": 68,
          "beat": 3,
          "dur": 1,
          "vel": 127,
          "clef": "treble",
          "pitch": "G#4"
        },
        {
          "midi": 65,
          "beat": 3.33,
          "dur": 0.62,
          "vel": 127,
          "clef": "bass",
          "pitch": "F4"
        },
        {
          "midi": 56,
          "beat": 3.67,
          "dur": 0.33,
          "vel": 127,
          "clef": "bass",
          "pitch": "G#3"
        }
      ]
    },
    {
      "_": "Treble: 9 notes, Bass: 12 notes",
      "number": 76,
      "notes": [
        {
          "midi": 66,
          "beat": 0,
          "dur": 1.87,
          "vel": 127,
          "clef": "bass",
          "pitch": "F#4"
        },
        {
          "midi": 78,
          "beat": 0,
          "dur": 1.87,
          "vel": 127,
          "clef": "treble",
          "pitch": "F#5"
        },
        {
          "midi": 63,
          "beat": 0.33,
          "dur": 0.62,
          "vel": 127,
          "clef": "bass",
          "pitch": "D#4"
        },
        {
          "midi": 56,
          "beat": 0.67,
          "dur": 0.62,
          "vel": 127,
          "clef": "bass",
          "pitch": "G#3"
        },
        {
          "midi": 65,
          "beat": 1,
          "dur": 1.87,
          "vel": 127,
          "clef": "bass",
          "pitch": "F4"
        },
        {
          "midi": 77,
          "beat": 1,
          "dur": 1.87,
          "vel": 127,
          "clef": "treble",
          "pitch": "F5"
        },
        {
          "midi": 61,
          "beat": 1.33,
          "dur": 0.62,
          "vel": 127,
          "clef": "bass",
          "pitch": "C#4"
        },
        {
          "midi": 56,
          "beat": 1.67,
          "dur": 0.62,
          "vel": 127,
          "clef": "bass",
          "pitch": "G#3"
        },
        {
          "midi": 63,
          "beat": 2,
          "dur": 1.87,
          "vel": 127,
          "clef": "bass",
          "pitch": "D#4"
        },
        {
          "midi": 75,
          "beat": 2,
          "dur": 1.44,
          "vel": 127,
          "clef": "treble",
          "pitch": "D#5"
        },
        {
          "midi": 60,
          "beat": 2.33,
          "dur": 0.62,
          "vel": 127,
          "clef": "bass",
          "pitch": "C4"
        },
        {
          "midi": 56,
          "beat": 2.67,
          "dur": 0.62,
          "vel": 127,
          "clef": "bass",
          "pitch": "G#3"
        },
        {
          "midi": 77,
          "beat": 2.77,
          "dur": 0.1,
          "vel": 127,
          "clef": "treble",
          "pitch": "F5"
        },
        {
          "midi": 75,
          "beat": 2.83,
          "dur": 0.1,
          "vel": 127,
          "clef": "treble",
          "pitch": "D#5"
        },
        {
          "midi": 73,
          "beat": 2.89,
          "dur": 0.1,
          "vel": 127,
          "clef": "treble",
          "pitch": "C#5"
        },
        {
          "midi": 75,
          "beat": 2.94,
          "dur": 0.1,
          "vel": 127,
          "clef": "treble",
          "pitch": "D#5"
        },
        {
          "midi": 61,
          "beat": 3,
          "dur": 1,
          "vel": 127,
          "clef": "bass",
          "pitch": "C#4"
        },
        {
          "midi": 77,
          "beat": 3,
          "dur": 1,
          "vel": 127,
          "clef": "treble",
          "pitch": "F5"
        },
        {
          "midi": 56,
          "beat": 3.33,
          "dur": 0.62,
          "vel": 127,
          "clef": "bass",
          "pitch": "G#3"
        },
        {
          "midi": 53,
          "beat": 3.67,
          "dur": 0.33,
          "vel": 127,
          "clef": "bass",
          "pitch": "F3"
        },
        {
          "midi": 73,
          "beat": 3.75,
          "dur": 0.25,
          "vel": 127,
          "clef": "treble",
          "pitch": "C#5"
        }
      ]
    },
    {
      "_": "Treble: 2 notes, Bass: 12 notes",
      "number": 77,
      "notes": [
        {
          "midi": 44,
          "beat": 0,
          "dur": 0.62,
          "vel": 127,
          "clef": "bass",
          "pitch": "G#2"
        },
        {
          "midi": 68,
          "beat": 0,
          "dur": 3.73,
          "vel": 127,
          "clef": "treble",
          "pitch": "G#4"
        },
        {
          "midi": 51,
          "beat": 0.33,
          "dur": 0.62,
          "vel": 127,
          "clef": "bass",
          "pitch": "D#3"
        },
        {
          "midi": 56,
          "beat": 0.67,
          "dur": 0.62,
          "vel": 127,
          "clef": "bass",
          "pitch": "G#3"
        },
        {
          "midi": 60,
          "beat": 1,
          "dur": 0.62,
          "vel": 127,
          "clef": "bass",
          "pitch": "C4"
        },
        {
          "midi": 56,
          "beat": 1.33,
          "dur": 0.62,
          "vel": 127,
          "clef": "bass",
          "pitch": "G#3"
        },
        {
          "midi": 51,
          "beat": 1.67,
          "dur": 0.62,
          "vel": 127,
          "clef": "bass",
          "pitch": "D#3"
        },
        {
          "midi": 42,
          "beat": 2,
          "dur": 0.62,
          "vel": 127,
          "clef": "bass",
          "pitch": "F#2"
        },
        {
          "midi": 70,
          "beat": 2,
          "dur": 2,
          "vel": 127,
          "clef": "treble",
          "acc": "#",
          "pitch": "A#4"
        },
        {
          "midi": 54,
          "beat": 2.33,
          "dur": 0.62,
          "vel": 127,
          "clef": "bass",
          "pitch": "F#3"
        },
        {
          "midi": 58,
          "beat": 2.67,
          "dur": 0.62,
          "vel": 127,
          "clef": "bass",
          "acc": "#",
          "pitch": "A#3"
        },
        {
          "midi": 61,
          "beat": 3,
          "dur": 0.62,
          "vel": 127,
          "clef": "bass",
          "pitch": "C#4"
        },
        {
          "midi": 58,
          "beat": 3.33,
          "dur": 0.62,
          "vel": 127,
          "clef": "bass",
          "acc": "#",
          "pitch": "A#3"
        },
        {
          "midi": 54,
          "beat": 3.67,
          "dur": 0.33,
          "vel": 127,
          "clef": "bass",
          "pitch": "F#3"
        }
      ]
    },
    {
      "_": "Treble: 4 notes, Bass: 12 notes",
      "number": 78,
      "notes": [
        {
          "midi": 46,
          "beat": 0,
          "dur": 0.62,
          "vel": 127,
          "clef": "bass",
          "acc": "#",
          "pitch": "A#2"
        },
        {
          "midi": 53,
          "beat": 0.33,
          "dur": 0.62,
          "vel": 127,
          "clef": "bass",
          "pitch": "F3"
        },
        {
          "midi": 58,
          "beat": 0.67,
          "dur": 0.62,
          "vel": 127,
          "clef": "bass",
          "acc": "#",
          "pitch": "A#3"
        },
        {
          "midi": 62,
          "beat": 1,
          "dur": 0.62,
          "vel": 127,
          "clef": "bass",
          "pitch": "D4"
        },
        {
          "midi": 58,
          "beat": 1.33,
          "dur": 0.62,
          "vel": 127,
          "clef": "bass",
          "acc": "#",
          "pitch": "A#3"
        },
        {
          "midi": 53,
          "beat": 1.67,
          "dur": 0.62,
          "vel": 127,
          "clef": "bass",
          "pitch": "F3"
        },
        {
          "midi": 46,
          "beat": 2,
          "dur": 0.62,
          "vel": 127,
          "clef": "bass",
          "acc": "#",
          "pitch": "A#2"
        },
        {
          "midi": 71,
          "beat": 2,
          "dur": 0.93,
          "vel": 127,
          "clef": "treble",
          "pitch": "B4"
        },
        {
          "midi": 58,
          "beat": 2.33,
          "dur": 0.62,
          "vel": 127,
          "clef": "bass",
          "acc": "#",
          "pitch": "A#3"
        },
        {
          "midi": 70,
          "beat": 2.5,
          "dur": 0.93,
          "vel": 127,
          "clef": "treble",
          "acc": "#",
          "pitch": "A#4"
        },
        {
          "midi": 62,
          "beat": 2.67,
          "dur": 0.62,
          "vel": 127,
          "clef": "bass",
          "pitch": "D4"
        },
        {
          "midi": 68,
          "beat": 3,
          "dur": 0.62,
          "vel": 127,
          "clef": "bass",
          "pitch": "G#4"
        },
        {
          "midi": 75,
          "beat": 3,
          "dur": 0.93,
          "vel": 127,
          "clef": "treble",
          "pitch": "D#5"
        },
        {
          "midi": 62,
          "beat": 3.33,
          "dur": 0.62,
          "vel": 127,
          "clef": "bass",
          "pitch": "D4"
        },
        {
          "midi": 77,
          "beat": 3.5,
          "dur": 0.5,
          "vel": 127,
          "clef": "treble",
          "pitch": "F5"
        },
        {
          "midi": 58,
          "beat": 3.67,
          "dur": 0.33,
          "vel": 127,
          "clef": "bass",
          "acc": "#",
          "pitch": "A#3"
        }
      ]
    },
    {
      "_": "Treble: 4 notes, Bass: 12 notes",
      "number": 79,
      "notes": [
        {
          "midi": 51,
          "beat": 0,
          "dur": 0.62,
          "vel": 127,
          "clef": "bass",
          "pitch": "D#3"
        },
        {
          "midi": 78,
          "beat": 0,
          "dur": 1.87,
          "vel": 127,
          "clef": "treble",
          "pitch": "F#5"
        },
        {
          "midi": 66,
          "beat": 0.33,
          "dur": 0.62,
          "vel": 127,
          "clef": "bass",
          "pitch": "F#4"
        },
        {
          "midi": 58,
          "beat": 0.67,
          "dur": 0.62,
          "vel": 127,
          "clef": "bass",
          "acc": "#",
          "pitch": "A#3"
        },
        {
          "midi": 53,
          "beat": 1,
          "dur": 0.62,
          "vel": 127,
          "clef": "bass",
          "pitch": "F3"
        },
        {
          "midi": 77,
          "beat": 1,
          "dur": 1.87,
          "vel": 127,
          "clef": "treble",
          "pitch": "F5"
        },
        {
          "midi": 65,
          "beat": 1.33,
          "dur": 0.62,
          "vel": 127,
          "clef": "bass",
          "pitch": "F4"
        },
        {
          "midi": 57,
          "beat": 1.67,
          "dur": 0.62,
          "vel": 127,
          "clef": "bass",
          "pitch": "A3"
        },
        {
          "midi": 54,
          "beat": 2,
          "dur": 0.62,
          "vel": 127,
          "clef": "bass",
          "pitch": "F#3"
        },
        {
          "midi": 75,
          "beat": 2,
          "dur": 1.87,
          "vel": 127,
          "clef": "treble",
          "pitch": "D#5"
        },
        {
          "midi": 63,
          "beat": 2.33,
          "dur": 0.62,
          "vel": 127,
          "clef": "bass",
          "pitch": "D#4"
        },
        {
          "midi": 58,
          "beat": 2.67,
          "dur": 0.62,
          "vel": 127,
          "clef": "bass",
          "acc": "#",
          "pitch": "A#3"
        },
        {
          "midi": 56,
          "beat": 3,
          "dur": 0.62,
          "vel": 127,
          "clef": "bass",
          "pitch": "G#3"
        },
        {
          "midi": 77,
          "beat": 3,
          "dur": 1,
          "vel": 127,
          "clef": "treble",
          "pitch": "F5"
        },
        {
          "midi": 66,
          "beat": 3.33,
          "dur": 0.62,
          "vel": 127,
          "clef": "bass",
          "pitch": "F#4"
        },
        {
          "midi": 60,
          "beat": 3.67,
          "dur": 0.33,
          "vel": 127,
          "clef": "bass",
          "pitch": "C4"
        }
      ]
    },
    {
      "_": "Treble: 7 notes, Bass: 12 notes",
      "number": 80,
      "notes": [
        {
          "midi": 49,
          "beat": 0,
          "dur": 0.62,
          "vel": 127,
          "clef": "bass",
          "pitch": "C#3"
        },
        {
          "midi": 73,
          "beat": 0,
          "dur": 2.8,
          "vel": 127,
          "clef": "treble",
          "pitch": "C#5"
        },
        {
          "midi": 56,
          "beat": 0.33,
          "dur": 0.62,
          "vel": 127,
          "clef": "bass",
          "pitch": "G#3"
        },
        {
          "midi": 61,
          "beat": 0.67,
          "dur": 0.62,
          "vel": 127,
          "clef": "bass",
          "pitch": "C#4"
        },
        {
          "midi": 65,
          "beat": 1,
          "dur": 0.62,
          "vel": 127,
          "clef": "bass",
          "pitch": "F4"
        },
        {
          "midi": 61,
          "beat": 1.33,
          "dur": 0.62,
          "vel": 127,
          "clef": "bass",
          "pitch": "C#4"
        },
        {
          "midi": 67,
          "beat": 1.5,
          "dur": 0.23,
          "vel": 127,
          "clef": "treble",
          "pitch": "G4"
        },
        {
          "midi": 68,
          "beat": 1.63,
          "dur": 0.23,
          "vel": 127,
          "clef": "treble",
          "pitch": "G#4"
        },
        {
          "midi": 56,
          "beat": 1.67,
          "dur": 0.62,
          "vel": 127,
          "clef": "bass",
          "pitch": "G#3"
        },
        {
          "midi": 70,
          "beat": 1.75,
          "dur": 0.23,
          "vel": 127,
          "clef": "treble",
          "acc": "#",
          "pitch": "A#4"
        },
        {
          "midi": 68,
          "beat": 1.88,
          "dur": 0.23,
          "vel": 127,
          "clef": "treble",
          "pitch": "G#4"
        },
        {
          "midi": 49,
          "beat": 2,
          "dur": 0.62,
          "vel": 127,
          "clef": "bass",
          "pitch": "C#3"
        },
        {
          "midi": 77,
          "beat": 2,
          "dur": 2,
          "vel": 127,
          "clef": "treble",
          "pitch": "F5"
        },
        {
          "midi": 56,
          "beat": 2.33,
          "dur": 0.62,
          "vel": 127,
          "clef": "bass",
          "pitch": "G#3"
        },
        {
          "midi": 60,
          "beat": 2.67,
          "dur": 0.62,
          "vel": 127,
          "clef": "bass",
          "pitch": "C4"
        },
        {
          "midi": 66,
          "beat": 3,
          "dur": 0.62,
          "vel": 127,
          "clef": "bass",
          "pitch": "F#4"
        },
        {
          "midi": 60,
          "beat": 3.33,
          "dur": 0.62,
          "vel": 127,
          "clef": "bass",
          "pitch": "C4"
        },
        {
          "midi": 75,
          "beat": 3.5,
          "dur": 0.5,
          "vel": 127,
          "clef": "treble",
          "pitch": "D#5"
        },
        {
          "midi": 56,
          "beat": 3.67,
          "dur": 0.33,
          "vel": 127,
          "clef": "bass",
          "pitch": "G#3"
        }
      ]
    },
    {
      "_": "Treble: 1 notes, Bass: 12 notes",
      "number": 81,
      "notes": [
        {
          "midi": 49,
          "beat": 0,
          "dur": 0.62,
          "vel": 127,
          "clef": "bass",
          "pitch": "C#3"
        },
        {
          "midi": 75,
          "beat": 0,
          "dur": 4,
          "vel": 127,
          "clef": "treble",
          "pitch": "D#5"
        },
        {
          "midi": 56,
          "beat": 0.33,
          "dur": 0.62,
          "vel": 127,
          "clef": "bass",
          "pitch": "G#3"
        },
        {
          "midi": 60,
          "beat": 0.67,
          "dur": 0.62,
          "vel": 127,
          "clef": "bass",
          "pitch": "C4"
        },
        {
          "midi": 66,
          "beat": 1,
          "dur": 0.62,
          "vel": 127,
          "clef": "bass",
          "pitch": "F#4"
        },
        {
          "midi": 60,
          "beat": 1.33,
          "dur": 0.62,
          "vel": 127,
          "clef": "bass",
          "pitch": "C4"
        },
        {
          "midi": 56,
          "beat": 1.67,
          "dur": 0.62,
          "vel": 127,
          "clef": "bass",
          "pitch": "G#3"
        },
        {
          "midi": 49,
          "beat": 2,
          "dur": 0.62,
          "vel": 127,
          "clef": "bass",
          "pitch": "C#3"
        },
        {
          "midi": 56,
          "beat": 2.33,
          "dur": 0.62,
          "vel": 127,
          "clef": "bass",
          "pitch": "G#3"
        },
        {
          "midi": 60,
          "beat": 2.67,
          "dur": 0.62,
          "vel": 127,
          "clef": "bass",
          "pitch": "C4"
        },
        {
          "midi": 66,
          "beat": 3,
          "dur": 0.62,
          "vel": 127,
          "clef": "bass",
          "pitch": "F#4"
        },
        {
          "midi": 60,
          "beat": 3.33,
          "dur": 0.62,
          "vel": 127,
          "clef": "bass",
          "pitch": "C4"
        },
        {
          "midi": 56,
          "beat": 3.67,
          "dur": 0.33,
          "vel": 127,
          "clef": "bass",
          "pitch": "G#3"
        }
      ]
    },
    {
      "_": "Treble: 15 notes, Bass: 12 notes",
      "number": 82,
      "notes": [
        {
          "midi": 49,
          "beat": 0,
          "dur": 0.33,
          "vel": 127,
          "clef": "bass",
          "pitch": "C#3"
        },
        {
          "midi": 68,
          "beat": 0.25,
          "dur": 0.25,
          "vel": 127,
          "clef": "treble",
          "pitch": "G#4"
        },
        {
          "midi": 56,
          "beat": 0.33,
          "dur": 0.33,
          "vel": 127,
          "clef": "bass",
          "pitch": "G#3"
        },
        {
          "midi": 69,
          "beat": 0.5,
          "dur": 0.25,
          "vel": 127,
          "clef": "treble",
          "pitch": "A4"
        },
        {
          "midi": 61,
          "beat": 0.67,
          "dur": 0.33,
          "vel": 127,
          "clef": "bass",
          "pitch": "C#4"
        },
        {
          "midi": 68,
          "beat": 0.75,
          "dur": 0.25,
          "vel": 127,
          "clef": "treble",
          "pitch": "G#4"
        },
        {
          "midi": 64,
          "beat": 1,
          "dur": 0.33,
          "vel": 127,
          "clef": "bass",
          "pitch": "E4"
        },
        {
          "midi": 67,
          "beat": 1,
          "dur": 0.25,
          "vel": 127,
          "clef": "treble",
          "pitch": "G4"
        },
        {
          "midi": 68,
          "beat": 1.25,
          "dur": 0.25,
          "vel": 127,
          "clef": "treble",
          "pitch": "G#4"
        },
        {
          "midi": 61,
          "beat": 1.33,
          "dur": 0.33,
          "vel": 127,
          "clef": "bass",
          "pitch": "C#4"
        },
        {
          "midi": 73,
          "beat": 1.5,
          "dur": 0.25,
          "vel": 127,
          "clef": "treble",
          "pitch": "C#5"
        },
        {
          "midi": 56,
          "beat": 1.67,
          "dur": 0.33,
          "vel": 127,
          "clef": "bass",
          "pitch": "G#3"
        },
        {
          "midi": 76,
          "beat": 1.75,
          "dur": 0.25,
          "vel": 127,
          "clef": "treble",
          "pitch": "E5"
        },
        {
          "midi": 52,
          "beat": 2,
          "dur": 0.33,
          "vel": 127,
          "clef": "bass",
          "pitch": "E3"
        },
        {
          "midi": 75,
          "beat": 2,
          "dur": 0.25,
          "vel": 127,
          "clef": "treble",
          "pitch": "D#5"
        },
        {
          "midi": 73,
          "beat": 2.25,
          "dur": 0.25,
          "vel": 127,
          "clef": "treble",
          "pitch": "C#5"
        },
        {
          "midi": 56,
          "beat": 2.33,
          "dur": 0.33,
          "vel": 127,
          "clef": "bass",
          "pitch": "G#3"
        },
        {
          "midi": 75,
          "beat": 2.5,
          "dur": 0.25,
          "vel": 127,
          "clef": "treble",
          "pitch": "D#5"
        },
        {
          "midi": 61,
          "beat": 2.67,
          "dur": 0.33,
          "vel": 127,
          "clef": "bass",
          "pitch": "C#4"
        },
        {
          "midi": 73,
          "beat": 2.75,
          "dur": 0.25,
          "vel": 127,
          "clef": "treble",
          "pitch": "C#5"
        },
        {
          "midi": 64,
          "beat": 3,
          "dur": 0.33,
          "vel": 127,
          "clef": "bass",
          "pitch": "E4"
        },
        {
          "midi": 72,
          "beat": 3,
          "dur": 0.25,
          "vel": 127,
          "clef": "treble",
          "pitch": "C5"
        },
        {
          "midi": 73,
          "beat": 3.25,
          "dur": 0.25,
          "vel": 127,
          "clef": "treble",
          "pitch": "C#5"
        },
        {
          "midi": 61,
          "beat": 3.33,
          "dur": 0.33,
          "vel": 127,
          "clef": "bass",
          "pitch": "C#4"
        },
        {
          "midi": 76,
          "beat": 3.5,
          "dur": 0.25,
          "vel": 127,
          "clef": "treble",
          "pitch": "E5"
        },
        {
          "midi": 56,
          "beat": 3.67,
          "dur": 0.33,
          "vel": 127,
          "clef": "bass",
          "pitch": "G#3"
        },
        {
          "midi": 80,
          "beat": 3.75,
          "dur": 0.25,
          "vel": 127,
          "clef": "treble",
          "pitch": "G#5"
        }
      ]
    },
    {
      "_": "Treble: 15 notes, Bass: 12 notes",
      "number": 83,
      "notes": [
        {
          "midi": 49,
          "beat": 0,
          "dur": 0.33,
          "vel": 127,
          "clef": "bass",
          "pitch": "C#3"
        },
        {
          "midi": 68,
          "beat": 0.25,
          "dur": 0.25,
          "vel": 127,
          "clef": "treble",
          "pitch": "G#4"
        },
        {
          "midi": 56,
          "beat": 0.33,
          "dur": 0.33,
          "vel": 127,
          "clef": "bass",
          "pitch": "G#3"
        },
        {
          "midi": 69,
          "beat": 0.5,
          "dur": 0.25,
          "vel": 127,
          "clef": "treble",
          "pitch": "A4"
        },
        {
          "midi": 61,
          "beat": 0.67,
          "dur": 0.33,
          "vel": 127,
          "clef": "bass",
          "pitch": "C#4"
        },
        {
          "midi": 68,
          "beat": 0.75,
          "dur": 0.25,
          "vel": 127,
          "clef": "treble",
          "pitch": "G#4"
        },
        {
          "midi": 64,
          "beat": 1,
          "dur": 0.33,
          "vel": 127,
          "clef": "bass",
          "pitch": "E4"
        },
        {
          "midi": 67,
          "beat": 1,
          "dur": 0.25,
          "vel": 127,
          "clef": "treble",
          "pitch": "G4"
        },
        {
          "midi": 68,
          "beat": 1.25,
          "dur": 0.25,
          "vel": 127,
          "clef": "treble",
          "pitch": "G#4"
        },
        {
          "midi": 61,
          "beat": 1.33,
          "dur": 0.33,
          "vel": 127,
          "clef": "bass",
          "pitch": "C#4"
        },
        {
          "midi": 73,
          "beat": 1.5,
          "dur": 0.25,
          "vel": 127,
          "clef": "treble",
          "pitch": "C#5"
        },
        {
          "midi": 56,
          "beat": 1.67,
          "dur": 0.33,
          "vel": 127,
          "clef": "bass",
          "pitch": "G#3"
        },
        {
          "midi": 76,
          "beat": 1.75,
          "dur": 0.25,
          "vel": 127,
          "clef": "treble",
          "pitch": "E5"
        },
        {
          "midi": 52,
          "beat": 2,
          "dur": 0.33,
          "vel": 127,
          "clef": "bass",
          "pitch": "E3"
        },
        {
          "midi": 75,
          "beat": 2,
          "dur": 0.25,
          "vel": 127,
          "clef": "treble",
          "pitch": "D#5"
        },
        {
          "midi": 73,
          "beat": 2.25,
          "dur": 0.25,
          "vel": 127,
          "clef": "treble",
          "pitch": "C#5"
        },
        {
          "midi": 56,
          "beat": 2.33,
          "dur": 0.33,
          "vel": 127,
          "clef": "bass",
          "pitch": "G#3"
        },
        {
          "midi": 75,
          "beat": 2.5,
          "dur": 0.25,
          "vel": 127,
          "clef": "treble",
          "pitch": "D#5"
        },
        {
          "midi": 61,
          "beat": 2.67,
          "dur": 0.33,
          "vel": 127,
          "clef": "bass",
          "pitch": "C#4"
        },
        {
          "midi": 73,
          "beat": 2.75,
          "dur": 0.25,
          "vel": 127,
          "clef": "treble",
          "pitch": "C#5"
        },
        {
          "midi": 64,
          "beat": 3,
          "dur": 0.33,
          "vel": 127,
          "clef": "bass",
          "pitch": "E4"
        },
        {
          "midi": 72,
          "beat": 3,
          "dur": 0.25,
          "vel": 127,
          "clef": "treble",
          "pitch": "C5"
        },
        {
          "midi": 73,
          "beat": 3.25,
          "dur": 0.25,
          "vel": 127,
          "clef": "treble",
          "pitch": "C#5"
        },
        {
          "midi": 61,
          "beat": 3.33,
          "dur": 0.33,
          "vel": 127,
          "clef": "bass",
          "pitch": "C#4"
        },
        {
          "midi": 76,
          "beat": 3.5,
          "dur": 0.25,
          "vel": 127,
          "clef": "treble",
          "pitch": "E5"
        },
        {
          "midi": 56,
          "beat": 3.67,
          "dur": 0.33,
          "vel": 127,
          "clef": "bass",
          "pitch": "G#3"
        },
        {
          "midi": 80,
          "beat": 3.75,
          "dur": 0.25,
          "vel": 127,
          "clef": "treble",
          "pitch": "G#5"
        }
      ]
    },
    {
      "_": "Treble: 15 notes, Bass: 12 notes",
      "number": 84,
      "notes": [
        {
          "midi": 51,
          "beat": 0,
          "dur": 0.33,
          "vel": 127,
          "clef": "bass",
          "pitch": "D#3"
        },
        {
          "midi": 69,
          "beat": 0.25,
          "dur": 0.25,
          "vel": 127,
          "clef": "treble",
          "pitch": "A4"
        },
        {
          "midi": 57,
          "beat": 0.33,
          "dur": 0.33,
          "vel": 127,
          "clef": "bass",
          "pitch": "A3"
        },
        {
          "midi": 73,
          "beat": 0.5,
          "dur": 0.25,
          "vel": 127,
          "clef": "treble",
          "pitch": "C#5"
        },
        {
          "midi": 61,
          "beat": 0.67,
          "dur": 0.33,
          "vel": 127,
          "clef": "bass",
          "pitch": "C#4"
        },
        {
          "midi": 75,
          "beat": 0.75,
          "dur": 0.25,
          "vel": 127,
          "clef": "treble",
          "pitch": "D#5"
        },
        {
          "midi": 66,
          "beat": 1,
          "dur": 0.33,
          "vel": 127,
          "clef": "bass",
          "pitch": "F#4"
        },
        {
          "midi": 78,
          "beat": 1,
          "dur": 0.25,
          "vel": 127,
          "clef": "treble",
          "pitch": "F#5"
        },
        {
          "midi": 81,
          "beat": 1.25,
          "dur": 0.25,
          "vel": 127,
          "clef": "treble",
          "pitch": "A5"
        },
        {
          "midi": 61,
          "beat": 1.33,
          "dur": 0.33,
          "vel": 127,
          "clef": "bass",
          "pitch": "C#4"
        },
        {
          "midi": 85,
          "beat": 1.5,
          "dur": 0.25,
          "vel": 127,
          "clef": "treble",
          "pitch": "C#6"
        },
        {
          "midi": 57,
          "beat": 1.67,
          "dur": 0.33,
          "vel": 127,
          "clef": "bass",
          "pitch": "A3"
        },
        {
          "midi": 87,
          "beat": 1.75,
          "dur": 0.25,
          "vel": 127,
          "clef": "treble",
          "pitch": "D#6"
        },
        {
          "midi": 54,
          "beat": 2,
          "dur": 0.33,
          "vel": 127,
          "clef": "bass",
          "pitch": "F#3"
        },
        {
          "midi": 95,
          "beat": 2,
          "dur": 0.25,
          "vel": 127,
          "clef": "treble",
          "pitch": "B6"
        },
        {
          "midi": 93,
          "beat": 2.25,
          "dur": 0.25,
          "vel": 127,
          "clef": "treble",
          "pitch": "A6"
        },
        {
          "midi": 61,
          "beat": 2.33,
          "dur": 0.33,
          "vel": 127,
          "clef": "bass",
          "pitch": "C#4"
        },
        {
          "midi": 92,
          "beat": 2.5,
          "dur": 0.25,
          "vel": 127,
          "clef": "treble",
          "pitch": "G#6"
        },
        {
          "midi": 63,
          "beat": 2.67,
          "dur": 0.33,
          "vel": 127,
          "clef": "bass",
          "pitch": "D#4"
        },
        {
          "midi": 90,
          "beat": 2.75,
          "dur": 0.25,
          "vel": 127,
          "clef": "treble",
          "pitch": "F#6"
        },
        {
          "midi": 69,
          "beat": 3,
          "dur": 0.33,
          "vel": 127,
          "clef": "bass",
          "pitch": "A4"
        },
        {
          "midi": 88,
          "beat": 3,
          "dur": 0.25,
          "vel": 127,
          "clef": "treble",
          "pitch": "E6"
        },
        {
          "midi": 87,
          "beat": 3.25,
          "dur": 0.25,
          "vel": 127,
          "clef": "treble",
          "pitch": "D#6"
        },
        {
          "midi": 63,
          "beat": 3.33,
          "dur": 0.33,
          "vel": 127,
          "clef": "bass",
          "pitch": "D#4"
        },
        {
          "midi": 90,
          "beat": 3.5,
          "dur": 0.25,
          "vel": 127,
          "clef": "treble",
          "pitch": "F#6"
        },
        {
          "midi": 61,
          "beat": 3.67,
          "dur": 0.33,
          "vel": 127,
          "clef": "bass",
          "pitch": "C#4"
        },
        {
          "midi": 85,
          "beat": 3.75,
          "dur": 0.25,
          "vel": 127,
          "clef": "treble",
          "pitch": "C#6"
        }
      ]
    },
    {
      "_": "Treble: 16 notes, Bass: 12 notes",
      "number": 85,
      "notes": [
        {
          "midi": 44,
          "beat": 0,
          "dur": 0.33,
          "vel": 127,
          "clef": "bass",
          "pitch": "G#2"
        },
        {
          "midi": 84,
          "beat": 0,
          "dur": 0.25,
          "vel": 127,
          "clef": "treble",
          "pitch": "C6"
        },
        {
          "midi": 87,
          "beat": 0.25,
          "dur": 0.25,
          "vel": 127,
          "clef": "treble",
          "pitch": "D#6"
        },
        {
          "midi": 51,
          "beat": 0.33,
          "dur": 0.33,
          "vel": 127,
          "clef": "bass",
          "pitch": "D#3"
        },
        {
          "midi": 81,
          "beat": 0.5,
          "dur": 0.25,
          "vel": 127,
          "clef": "treble",
          "pitch": "A5"
        },
        {
          "midi": 54,
          "beat": 0.67,
          "dur": 0.33,
          "vel": 127,
          "clef": "bass",
          "pitch": "F#3"
        },
        {
          "midi": 80,
          "beat": 0.75,
          "dur": 0.25,
          "vel": 127,
          "clef": "treble",
          "pitch": "G#5"
        },
        {
          "midi": 60,
          "beat": 1,
          "dur": 0.33,
          "vel": 127,
          "clef": "bass",
          "pitch": "C4"
        },
        {
          "midi": 78,
          "beat": 1,
          "dur": 0.25,
          "vel": 127,
          "clef": "treble",
          "pitch": "F#5"
        },
        {
          "midi": 81,
          "beat": 1.25,
          "dur": 0.25,
          "vel": 127,
          "clef": "treble",
          "pitch": "A5"
        },
        {
          "midi": 54,
          "beat": 1.33,
          "dur": 0.33,
          "vel": 127,
          "clef": "bass",
          "pitch": "F#3"
        },
        {
          "midi": 76,
          "beat": 1.5,
          "dur": 0.25,
          "vel": 127,
          "clef": "treble",
          "pitch": "E5"
        },
        {
          "midi": 51,
          "beat": 1.67,
          "dur": 0.33,
          "vel": 127,
          "clef": "bass",
          "pitch": "D#3"
        },
        {
          "midi": 75,
          "beat": 1.75,
          "dur": 0.25,
          "vel": 127,
          "clef": "treble",
          "pitch": "D#5"
        },
        {
          "midi": 44,
          "beat": 2,
          "dur": 0.33,
          "vel": 127,
          "clef": "bass",
          "pitch": "G#2"
        },
        {
          "midi": 78,
          "beat": 2,
          "dur": 0.25,
          "vel": 127,
          "clef": "treble",
          "pitch": "F#5"
        },
        {
          "midi": 73,
          "beat": 2.25,
          "dur": 0.25,
          "vel": 127,
          "clef": "treble",
          "pitch": "C#5"
        },
        {
          "midi": 51,
          "beat": 2.33,
          "dur": 0.33,
          "vel": 127,
          "clef": "bass",
          "pitch": "D#3"
        },
        {
          "midi": 72,
          "beat": 2.5,
          "dur": 0.25,
          "vel": 127,
          "clef": "treble",
          "pitch": "C5"
        },
        {
          "midi": 54,
          "beat": 2.67,
          "dur": 0.33,
          "vel": 127,
          "clef": "bass",
          "pitch": "F#3"
        },
        {
          "midi": 75,
          "beat": 2.75,
          "dur": 0.25,
          "vel": 127,
          "clef": "treble",
          "pitch": "D#5"
        },
        {
          "midi": 60,
          "beat": 3,
          "dur": 0.33,
          "vel": 127,
          "clef": "bass",
          "pitch": "C4"
        },
        {
          "midi": 69,
          "beat": 3,
          "dur": 0.25,
          "vel": 127,
          "clef": "treble",
          "pitch": "A4"
        },
        {
          "midi": 68,
          "beat": 3.25,
          "dur": 0.25,
          "vel": 127,
          "clef": "treble",
          "pitch": "G#4"
        },
        {
          "midi": 54,
          "beat": 3.33,
          "dur": 0.33,
          "vel": 127,
          "clef": "bass",
          "pitch": "F#3"
        },
        {
          "midi": 71,
          "beat": 3.5,
          "dur": 0.25,
          "vel": 127,
          "clef": "treble",
          "pitch": "B4"
        },
        {
          "midi": 51,
          "beat": 3.67,
          "dur": 0.33,
          "vel": 127,
          "clef": "bass",
          "pitch": "D#3"
        },
        {
          "midi": 69,
          "beat": 3.75,
          "dur": 0.25,
          "vel": 127,
          "clef": "treble",
          "pitch": "A4"
        }
      ]
    },
    {
      "_": "Treble: 15 notes, Bass: 12 notes",
      "number": 86,
      "notes": [
        {
          "midi": 49,
          "beat": 0,
          "dur": 0.33,
          "vel": 127,
          "clef": "bass",
          "pitch": "C#3"
        },
        {
          "midi": 68,
          "beat": 0.25,
          "dur": 0.25,
          "vel": 127,
          "clef": "treble",
          "pitch": "G#4"
        },
        {
          "midi": 56,
          "beat": 0.33,
          "dur": 0.33,
          "vel": 127,
          "clef": "bass",
          "pitch": "G#3"
        },
        {
          "midi": 69,
          "beat": 0.5,
          "dur": 0.25,
          "vel": 127,
          "clef": "treble",
          "pitch": "A4"
        },
        {
          "midi": 61,
          "beat": 0.67,
          "dur": 0.33,
          "vel": 127,
          "clef": "bass",
          "pitch": "C#4"
        },
        {
          "midi": 68,
          "beat": 0.75,
          "dur": 0.25,
          "vel": 127,
          "clef": "treble",
          "pitch": "G#4"
        },
        {
          "midi": 64,
          "beat": 1,
          "dur": 0.33,
          "vel": 127,
          "clef": "bass",
          "pitch": "E4"
        },
        {
          "midi": 67,
          "beat": 1,
          "dur": 0.25,
          "vel": 127,
          "clef": "treble",
          "pitch": "G4"
        },
        {
          "midi": 68,
          "beat": 1.25,
          "dur": 0.25,
          "vel": 127,
          "clef": "treble",
          "pitch": "G#4"
        },
        {
          "midi": 61,
          "beat": 1.33,
          "dur": 0.33,
          "vel": 127,
          "clef": "bass",
          "pitch": "C#4"
        },
        {
          "midi": 73,
          "beat": 1.5,
          "dur": 0.25,
          "vel": 127,
          "clef": "treble",
          "pitch": "C#5"
        },
        {
          "midi": 56,
          "beat": 1.67,
          "dur": 0.33,
          "vel": 127,
          "clef": "bass",
          "pitch": "G#3"
        },
        {
          "midi": 76,
          "beat": 1.75,
          "dur": 0.25,
          "vel": 127,
          "clef": "treble",
          "pitch": "E5"
        },
        {
          "midi": 52,
          "beat": 2,
          "dur": 0.33,
          "vel": 127,
          "clef": "bass",
          "pitch": "E3"
        },
        {
          "midi": 75,
          "beat": 2,
          "dur": 0.25,
          "vel": 127,
          "clef": "treble",
          "pitch": "D#5"
        },
        {
          "midi": 73,
          "beat": 2.25,
          "dur": 0.25,
          "vel": 127,
          "clef": "treble",
          "pitch": "C#5"
        },
        {
          "midi": 56,
          "beat": 2.33,
          "dur": 0.33,
          "vel": 127,
          "clef": "bass",
          "pitch": "G#3"
        },
        {
          "midi": 75,
          "beat": 2.5,
          "dur": 0.25,
          "vel": 127,
          "clef": "treble",
          "pitch": "D#5"
        },
        {
          "midi": 61,
          "beat": 2.67,
          "dur": 0.33,
          "vel": 127,
          "clef": "bass",
          "pitch": "C#4"
        },
        {
          "midi": 73,
          "beat": 2.75,
          "dur": 0.25,
          "vel": 127,
          "clef": "treble",
          "pitch": "C#5"
        },
        {
          "midi": 64,
          "beat": 3,
          "dur": 0.33,
          "vel": 127,
          "clef": "bass",
          "pitch": "E4"
        },
        {
          "midi": 72,
          "beat": 3,
          "dur": 0.25,
          "vel": 127,
          "clef": "treble",
          "pitch": "C5"
        },
        {
          "midi": 73,
          "beat": 3.25,
          "dur": 0.25,
          "vel": 127,
          "clef": "treble",
          "pitch": "C#5"
        },
        {
          "midi": 61,
          "beat": 3.33,
          "dur": 0.33,
          "vel": 127,
          "clef": "bass",
          "pitch": "C#4"
        },
        {
          "midi": 76,
          "beat": 3.5,
          "dur": 0.25,
          "vel": 127,
          "clef": "treble",
          "pitch": "E5"
        },
        {
          "midi": 56,
          "beat": 3.67,
          "dur": 0.33,
          "vel": 127,
          "clef": "bass",
          "pitch": "G#3"
        },
        {
          "midi": 80,
          "beat": 3.75,
          "dur": 0.25,
          "vel": 127,
          "clef": "treble",
          "pitch": "G#5"
        }
      ]
    },
    {
      "_": "Treble: 15 notes, Bass: 12 notes",
      "number": 87,
      "notes": [
        {
          "midi": 49,
          "beat": 0,
          "dur": 0.33,
          "vel": 127,
          "clef": "bass",
          "pitch": "C#3"
        },
        {
          "midi": 68,
          "beat": 0.25,
          "dur": 0.25,
          "vel": 127,
          "clef": "treble",
          "pitch": "G#4"
        },
        {
          "midi": 56,
          "beat": 0.33,
          "dur": 0.33,
          "vel": 127,
          "clef": "bass",
          "pitch": "G#3"
        },
        {
          "midi": 70,
          "beat": 0.5,
          "dur": 0.25,
          "vel": 127,
          "clef": "treble",
          "acc": "#",
          "pitch": "A#4"
        },
        {
          "midi": 58,
          "beat": 0.67,
          "dur": 0.33,
          "vel": 127,
          "clef": "bass",
          "acc": "#",
          "pitch": "A#3"
        },
        {
          "midi": 68,
          "beat": 0.75,
          "dur": 0.25,
          "vel": 127,
          "clef": "treble",
          "pitch": "G#4"
        },
        {
          "midi": 64,
          "beat": 1,
          "dur": 0.33,
          "vel": 127,
          "clef": "bass",
          "pitch": "E4"
        },
        {
          "midi": 67,
          "beat": 1,
          "dur": 0.25,
          "vel": 127,
          "clef": "treble",
          "pitch": "G4"
        },
        {
          "midi": 68,
          "beat": 1.25,
          "dur": 0.25,
          "vel": 127,
          "clef": "treble",
          "pitch": "G#4"
        },
        {
          "midi": 58,
          "beat": 1.33,
          "dur": 0.33,
          "vel": 127,
          "clef": "bass",
          "acc": "#",
          "pitch": "A#3"
        },
        {
          "midi": 73,
          "beat": 1.5,
          "dur": 0.25,
          "vel": 127,
          "clef": "treble",
          "pitch": "C#5"
        },
        {
          "midi": 56,
          "beat": 1.67,
          "dur": 0.33,
          "vel": 127,
          "clef": "bass",
          "pitch": "G#3"
        },
        {
          "midi": 76,
          "beat": 1.75,
          "dur": 0.25,
          "vel": 127,
          "clef": "treble",
          "pitch": "E5"
        },
        {
          "midi": 52,
          "beat": 2,
          "dur": 0.33,
          "vel": 127,
          "clef": "bass",
          "pitch": "E3"
        },
        {
          "midi": 75,
          "beat": 2,
          "dur": 0.25,
          "vel": 127,
          "clef": "treble",
          "pitch": "D#5"
        },
        {
          "midi": 73,
          "beat": 2.25,
          "dur": 0.25,
          "vel": 127,
          "clef": "treble",
          "pitch": "C#5"
        },
        {
          "midi": 56,
          "beat": 2.33,
          "dur": 0.33,
          "vel": 127,
          "clef": "bass",
          "pitch": "G#3"
        },
        {
          "midi": 75,
          "beat": 2.5,
          "dur": 0.25,
          "vel": 127,
          "clef": "treble",
          "pitch": "D#5"
        },
        {
          "midi": 58,
          "beat": 2.67,
          "dur": 0.33,
          "vel": 127,
          "clef": "bass",
          "acc": "#",
          "pitch": "A#3"
        },
        {
          "midi": 73,
          "beat": 2.75,
          "dur": 0.25,
          "vel": 127,
          "clef": "treble",
          "pitch": "C#5"
        },
        {
          "midi": 61,
          "beat": 3,
          "dur": 0.33,
          "vel": 127,
          "clef": "bass",
          "pitch": "C#4"
        },
        {
          "midi": 72,
          "beat": 3,
          "dur": 0.25,
          "vel": 127,
          "clef": "treble",
          "pitch": "C5"
        },
        {
          "midi": 73,
          "beat": 3.25,
          "dur": 0.25,
          "vel": 127,
          "clef": "treble",
          "pitch": "C#5"
        },
        {
          "midi": 58,
          "beat": 3.33,
          "dur": 0.33,
          "vel": 127,
          "clef": "bass",
          "acc": "#",
          "pitch": "A#3"
        },
        {
          "midi": 76,
          "beat": 3.5,
          "dur": 0.25,
          "vel": 127,
          "clef": "treble",
          "pitch": "E5"
        },
        {
          "midi": 56,
          "beat": 3.67,
          "dur": 0.33,
          "vel": 127,
          "clef": "bass",
          "pitch": "G#3"
        },
        {
          "midi": 80,
          "beat": 3.75,
          "dur": 0.25,
          "vel": 127,
          "clef": "treble",
          "pitch": "G#5"
        }
      ]
    },
    {
      "_": "Treble: 16 notes, Bass: 12 notes",
      "number": 88,
      "notes": [
        {
          "midi": 51,
          "beat": 0,
          "dur": 0.33,
          "vel": 127,
          "clef": "bass",
          "pitch": "D#3"
        },
        {
          "midi": 75,
          "beat": 0,
          "dur": 0.25,
          "vel": 127,
          "clef": "treble",
          "pitch": "D#5"
        },
        {
          "midi": 76,
          "beat": 0.25,
          "dur": 0.25,
          "vel": 127,
          "clef": "treble",
          "pitch": "E5"
        },
        {
          "midi": 56,
          "beat": 0.33,
          "dur": 0.33,
          "vel": 127,
          "clef": "bass",
          "pitch": "G#3"
        },
        {
          "midi": 75,
          "beat": 0.5,
          "dur": 0.25,
          "vel": 127,
          "clef": "treble",
          "pitch": "D#5"
        },
        {
          "midi": 59,
          "beat": 0.67,
          "dur": 0.33,
          "vel": 127,
          "clef": "bass",
          "pitch": "B3"
        },
        {
          "midi": 74,
          "beat": 0.75,
          "dur": 0.25,
          "vel": 127,
          "clef": "treble",
          "pitch": "D5"
        },
        {
          "midi": 63,
          "beat": 1,
          "dur": 0.33,
          "vel": 127,
          "clef": "bass",
          "pitch": "D#4"
        },
        {
          "midi": 75,
          "beat": 1,
          "dur": 0.25,
          "vel": 127,
          "clef": "treble",
          "pitch": "D#5"
        },
        {
          "midi": 83,
          "beat": 1.25,
          "dur": 0.25,
          "vel": 127,
          "clef": "treble",
          "pitch": "B5"
        },
        {
          "midi": 59,
          "beat": 1.33,
          "dur": 0.33,
          "vel": 127,
          "clef": "bass",
          "pitch": "B3"
        },
        {
          "midi": 82,
          "beat": 1.5,
          "dur": 0.25,
          "vel": 127,
          "clef": "treble",
          "acc": "#",
          "pitch": "A#5"
        },
        {
          "midi": 56,
          "beat": 1.67,
          "dur": 0.33,
          "vel": 127,
          "clef": "bass",
          "pitch": "G#3"
        },
        {
          "midi": 80,
          "beat": 1.75,
          "dur": 0.25,
          "vel": 127,
          "clef": "treble",
          "pitch": "G#5"
        },
        {
          "midi": 51,
          "beat": 2,
          "dur": 0.33,
          "vel": 127,
          "clef": "bass",
          "pitch": "D#3"
        },
        {
          "midi": 79,
          "beat": 2,
          "dur": 0.25,
          "vel": 127,
          "clef": "treble",
          "pitch": "G5"
        },
        {
          "midi": 88,
          "beat": 2.25,
          "dur": 0.25,
          "vel": 127,
          "clef": "treble",
          "pitch": "E6"
        },
        {
          "midi": 58,
          "beat": 2.33,
          "dur": 0.33,
          "vel": 127,
          "clef": "bass",
          "acc": "#",
          "pitch": "A#3"
        },
        {
          "midi": 87,
          "beat": 2.5,
          "dur": 0.25,
          "vel": 127,
          "clef": "treble",
          "pitch": "D#6"
        },
        {
          "midi": 61,
          "beat": 2.67,
          "dur": 0.33,
          "vel": 127,
          "clef": "bass",
          "pitch": "C#4"
        },
        {
          "midi": 85,
          "beat": 2.75,
          "dur": 0.25,
          "vel": 127,
          "clef": "treble",
          "pitch": "C#6"
        },
        {
          "midi": 67,
          "beat": 3,
          "dur": 0.33,
          "vel": 127,
          "clef": "bass",
          "pitch": "G4"
        },
        {
          "midi": 83,
          "beat": 3,
          "dur": 0.25,
          "vel": 127,
          "clef": "treble",
          "pitch": "B5"
        },
        {
          "midi": 82,
          "beat": 3.25,
          "dur": 0.25,
          "vel": 127,
          "clef": "treble",
          "acc": "#",
          "pitch": "A#5"
        },
        {
          "midi": 61,
          "beat": 3.33,
          "dur": 0.33,
          "vel": 127,
          "clef": "bass",
          "pitch": "C#4"
        },
        {
          "midi": 80,
          "beat": 3.5,
          "dur": 0.25,
          "vel": 127,
          "clef": "treble",
          "pitch": "G#5"
        },
        {
          "midi": 58,
          "beat": 3.67,
          "dur": 0.33,
          "vel": 127,
          "clef": "bass",
          "acc": "#",
          "pitch": "A#3"
        },
        {
          "midi": 79,
          "beat": 3.75,
          "dur": 0.25,
          "vel": 127,
          "clef": "treble",
          "pitch": "G5"
        }
      ]
    },
    {
      "_": "Treble: 16 notes, Bass: 12 notes",
      "number": 89,
      "notes": [
        {
          "midi": 44,
          "beat": 0,
          "dur": 0.33,
          "vel": 127,
          "clef": "bass",
          "pitch": "G#2"
        },
        {
          "midi": 82,
          "beat": 0,
          "dur": 0.25,
          "vel": 127,
          "clef": "treble",
          "acc": "#",
          "pitch": "A#5"
        },
        {
          "midi": 80,
          "beat": 0.25,
          "dur": 0.25,
          "vel": 127,
          "clef": "treble",
          "pitch": "G#5"
        },
        {
          "midi": 51,
          "beat": 0.33,
          "dur": 0.33,
          "vel": 127,
          "clef": "bass",
          "pitch": "D#3"
        },
        {
          "midi": 83,
          "beat": 0.5,
          "dur": 0.25,
          "vel": 127,
          "clef": "treble",
          "pitch": "B5"
        },
        {
          "midi": 56,
          "beat": 0.67,
          "dur": 0.33,
          "vel": 127,
          "clef": "bass",
          "pitch": "G#3"
        },
        {
          "midi": 74,
          "beat": 0.75,
          "dur": 0.25,
          "vel": 127,
          "clef": "treble",
          "pitch": "D5"
        },
        {
          "midi": 59,
          "beat": 1,
          "dur": 0.33,
          "vel": 127,
          "clef": "bass",
          "pitch": "B3"
        },
        {
          "midi": 76,
          "beat": 1,
          "dur": 0.25,
          "vel": 127,
          "clef": "treble",
          "pitch": "E5"
        },
        {
          "midi": 75,
          "beat": 1.25,
          "dur": 0.25,
          "vel": 127,
          "clef": "treble",
          "pitch": "D#5"
        },
        {
          "midi": 56,
          "beat": 1.33,
          "dur": 0.33,
          "vel": 127,
          "clef": "bass",
          "pitch": "G#3"
        },
        {
          "midi": 80,
          "beat": 1.5,
          "dur": 0.25,
          "vel": 127,
          "clef": "treble",
          "pitch": "G#5"
        },
        {
          "midi": 51,
          "beat": 1.67,
          "dur": 0.33,
          "vel": 127,
          "clef": "bass",
          "pitch": "D#3"
        },
        {
          "midi": 70,
          "beat": 1.75,
          "dur": 0.25,
          "vel": 127,
          "clef": "treble",
          "acc": "#",
          "pitch": "A#4"
        },
        {
          "midi": 44,
          "beat": 2,
          "dur": 0.33,
          "vel": 127,
          "clef": "bass",
          "pitch": "G#2"
        },
        {
          "midi": 73,
          "beat": 2,
          "dur": 0.25,
          "vel": 127,
          "clef": "treble",
          "pitch": "C#5"
        },
        {
          "midi": 71,
          "beat": 2.25,
          "dur": 0.25,
          "vel": 127,
          "clef": "treble",
          "pitch": "B4"
        },
        {
          "midi": 51,
          "beat": 2.33,
          "dur": 0.33,
          "vel": 127,
          "clef": "bass",
          "pitch": "D#3"
        },
        {
          "midi": 75,
          "beat": 2.5,
          "dur": 0.25,
          "vel": 127,
          "clef": "treble",
          "pitch": "D#5"
        },
        {
          "midi": 56,
          "beat": 2.67,
          "dur": 0.33,
          "vel": 127,
          "clef": "bass",
          "pitch": "G#3"
        },
        {
          "midi": 67,
          "beat": 2.75,
          "dur": 0.25,
          "vel": 127,
          "clef": "treble",
          "pitch": "G4"
        },
        {
          "midi": 59,
          "beat": 3,
          "dur": 0.33,
          "vel": 127,
          "clef": "bass",
          "pitch": "B3"
        },
        {
          "midi": 70,
          "beat": 3,
          "dur": 0.25,
          "vel": 127,
          "clef": "treble",
          "acc": "#",
          "pitch": "A#4"
        },
        {
          "midi": 68,
          "beat": 3.25,
          "dur": 0.25,
          "vel": 127,
          "clef": "treble",
          "pitch": "G#4"
        },
        {
          "midi": 56,
          "beat": 3.33,
          "dur": 0.33,
          "vel": 127,
          "clef": "bass",
          "pitch": "G#3"
        },
        {
          "midi": 67,
          "beat": 3.5,
          "dur": 0.25,
          "vel": 127,
          "clef": "treble",
          "pitch": "G4"
        },
        {
          "midi": 51,
          "beat": 3.67,
          "dur": 0.33,
          "vel": 127,
          "clef": "bass",
          "pitch": "D#3"
        },
        {
          "midi": 68,
          "beat": 3.75,
          "dur": 0.25,
          "vel": 127,
          "clef": "treble",
          "pitch": "G#4"
        }
      ]
    },
    {
      "_": "Treble: 16 notes, Bass: 12 notes",
      "number": 90,
      "notes": [
        {
          "midi": 45,
          "beat": 0,
          "dur": 0.33,
          "vel": 127,
          "clef": "bass",
          "pitch": "A2"
        },
        {
          "midi": 68,
          "beat": 0,
          "dur": 0.25,
          "vel": 127,
          "clef": "treble",
          "pitch": "G#4"
        },
        {
          "midi": 80,
          "beat": 0.25,
          "dur": 0.25,
          "vel": 127,
          "clef": "treble",
          "pitch": "G#5"
        },
        {
          "midi": 49,
          "beat": 0.33,
          "dur": 0.33,
          "vel": 127,
          "clef": "bass",
          "pitch": "C#3"
        },
        {
          "midi": 72,
          "beat": 0.5,
          "dur": 0.25,
          "vel": 127,
          "clef": "treble",
          "pitch": "C5"
        },
        {
          "midi": 54,
          "beat": 0.67,
          "dur": 0.33,
          "vel": 127,
          "clef": "bass",
          "pitch": "F#3"
        },
        {
          "midi": 73,
          "beat": 0.75,
          "dur": 0.25,
          "vel": 127,
          "clef": "treble",
          "pitch": "C#5"
        },
        {
          "midi": 57,
          "beat": 1,
          "dur": 0.33,
          "vel": 127,
          "clef": "bass",
          "pitch": "A3"
        },
        {
          "midi": 66,
          "beat": 1,
          "dur": 0.25,
          "vel": 127,
          "clef": "treble",
          "pitch": "F#4"
        },
        {
          "midi": 78,
          "beat": 1.25,
          "dur": 0.25,
          "vel": 127,
          "clef": "treble",
          "pitch": "F#5"
        },
        {
          "midi": 54,
          "beat": 1.33,
          "dur": 0.33,
          "vel": 127,
          "clef": "bass",
          "pitch": "F#3"
        },
        {
          "midi": 72,
          "beat": 1.5,
          "dur": 0.25,
          "vel": 127,
          "clef": "treble",
          "pitch": "C5"
        },
        {
          "midi": 49,
          "beat": 1.67,
          "dur": 0.33,
          "vel": 127,
          "clef": "bass",
          "pitch": "C#3"
        },
        {
          "midi": 73,
          "beat": 1.75,
          "dur": 0.25,
          "vel": 127,
          "clef": "treble",
          "pitch": "C#5"
        },
        {
          "midi": 45,
          "beat": 2,
          "dur": 0.33,
          "vel": 127,
          "clef": "bass",
          "pitch": "A2"
        },
        {
          "midi": 65,
          "beat": 2,
          "dur": 0.25,
          "vel": 127,
          "clef": "treble",
          "pitch": "F4"
        },
        {
          "midi": 77,
          "beat": 2.25,
          "dur": 0.25,
          "vel": 127,
          "clef": "treble",
          "pitch": "F5"
        },
        {
          "midi": 49,
          "beat": 2.33,
          "dur": 0.33,
          "vel": 127,
          "clef": "bass",
          "pitch": "C#3"
        },
        {
          "midi": 72,
          "beat": 2.5,
          "dur": 0.25,
          "vel": 127,
          "clef": "treble",
          "pitch": "C5"
        },
        {
          "midi": 54,
          "beat": 2.67,
          "dur": 0.33,
          "vel": 127,
          "clef": "bass",
          "pitch": "F#3"
        },
        {
          "midi": 73,
          "beat": 2.75,
          "dur": 0.25,
          "vel": 127,
          "clef": "treble",
          "pitch": "C#5"
        },
        {
          "midi": 57,
          "beat": 3,
          "dur": 0.33,
          "vel": 127,
          "clef": "bass",
          "pitch": "A3"
        },
        {
          "midi": 66,
          "beat": 3,
          "dur": 0.25,
          "vel": 127,
          "clef": "treble",
          "pitch": "F#4"
        },
        {
          "midi": 78,
          "beat": 3.25,
          "dur": 0.25,
          "vel": 127,
          "clef": "treble",
          "pitch": "F#5"
        },
        {
          "midi": 54,
          "beat": 3.33,
          "dur": 0.33,
          "vel": 127,
          "clef": "bass",
          "pitch": "F#3"
        },
        {
          "midi": 72,
          "beat": 3.5,
          "dur": 0.25,
          "vel": 127,
          "clef": "treble",
          "pitch": "C5"
        },
        {
          "midi": 49,
          "beat": 3.67,
          "dur": 0.33,
          "vel": 127,
          "clef": "bass",
          "pitch": "C#3"
        },
        {
          "midi": 73,
          "beat": 3.75,
          "dur": 0.25,
          "vel": 127,
          "clef": "treble",
          "pitch": "C#5"
        }
      ]
    },
    {
      "_": "Treble: 16 notes, Bass: 12 notes",
      "number": 91,
      "notes": [
        {
          "midi": 47,
          "beat": 0,
          "dur": 0.33,
          "vel": 127,
          "clef": "bass",
          "pitch": "B2"
        },
        {
          "midi": 61,
          "beat": 0,
          "dur": 0.25,
          "vel": 127,
          "clef": "treble",
          "pitch": "C#4"
        },
        {
          "midi": 73,
          "beat": 0.25,
          "dur": 0.25,
          "vel": 127,
          "clef": "treble",
          "pitch": "C#5"
        },
        {
          "midi": 54,
          "beat": 0.33,
          "dur": 0.33,
          "vel": 127,
          "clef": "bass",
          "pitch": "F#3"
        },
        {
          "midi": 66,
          "beat": 0.5,
          "dur": 0.25,
          "vel": 127,
          "clef": "treble",
          "pitch": "F#4"
        },
        {
          "midi": 57,
          "beat": 0.67,
          "dur": 0.33,
          "vel": 127,
          "clef": "bass",
          "pitch": "A3"
        },
        {
          "midi": 69,
          "beat": 0.75,
          "dur": 0.25,
          "vel": 127,
          "clef": "treble",
          "pitch": "A4"
        },
        {
          "midi": 59,
          "beat": 1,
          "dur": 0.33,
          "vel": 127,
          "clef": "bass",
          "pitch": "B3"
        },
        {
          "midi": 63,
          "beat": 1,
          "dur": 0.25,
          "vel": 127,
          "clef": "treble",
          "pitch": "D#4"
        },
        {
          "midi": 75,
          "beat": 1.25,
          "dur": 0.25,
          "vel": 127,
          "clef": "treble",
          "pitch": "D#5"
        },
        {
          "midi": 57,
          "beat": 1.33,
          "dur": 0.33,
          "vel": 127,
          "clef": "bass",
          "pitch": "A3"
        },
        {
          "midi": 66,
          "beat": 1.5,
          "dur": 0.25,
          "vel": 127,
          "clef": "treble",
          "pitch": "F#4"
        },
        {
          "midi": 54,
          "beat": 1.67,
          "dur": 0.33,
          "vel": 127,
          "clef": "bass",
          "pitch": "F#3"
        },
        {
          "midi": 69,
          "beat": 1.75,
          "dur": 0.25,
          "vel": 127,
          "clef": "treble",
          "pitch": "A4"
        },
        {
          "midi": 40,
          "beat": 2,
          "dur": 0.33,
          "vel": 127,
          "clef": "bass",
          "pitch": "E2"
        },
        {
          "midi": 64,
          "beat": 2,
          "dur": 0.25,
          "vel": 127,
          "clef": "treble",
          "pitch": "E4"
        },
        {
          "midi": 76,
          "beat": 2.25,
          "dur": 0.25,
          "vel": 127,
          "clef": "treble",
          "pitch": "E5"
        },
        {
          "midi": 47,
          "beat": 2.33,
          "dur": 0.33,
          "vel": 127,
          "clef": "bass",
          "pitch": "B2"
        },
        {
          "midi": 68,
          "beat": 2.5,
          "dur": 0.25,
          "vel": 127,
          "clef": "treble",
          "pitch": "G#4"
        },
        {
          "midi": 52,
          "beat": 2.67,
          "dur": 0.33,
          "vel": 127,
          "clef": "bass",
          "pitch": "E3"
        },
        {
          "midi": 71,
          "beat": 2.75,
          "dur": 0.25,
          "vel": 127,
          "clef": "treble",
          "pitch": "B4"
        },
        {
          "midi": 56,
          "beat": 3,
          "dur": 0.33,
          "vel": 127,
          "clef": "bass",
          "pitch": "G#3"
        },
        {
          "midi": 68,
          "beat": 3,
          "dur": 0.25,
          "vel": 127,
          "clef": "treble",
          "pitch": "G#4"
        },
        {
          "midi": 80,
          "beat": 3.25,
          "dur": 0.25,
          "vel": 127,
          "clef": "treble",
          "pitch": "G#5"
        },
        {
          "midi": 52,
          "beat": 3.33,
          "dur": 0.33,
          "vel": 127,
          "clef": "bass",
          "pitch": "E3"
        },
        {
          "midi": 71,
          "beat": 3.5,
          "dur": 0.25,
          "vel": 127,
          "clef": "treble",
          "pitch": "B4"
        },
        {
          "midi": 47,
          "beat": 3.67,
          "dur": 0.33,
          "vel": 127,
          "clef": "bass",
          "pitch": "B2"
        },
        {
          "midi": 76,
          "beat": 3.75,
          "dur": 0.25,
          "vel": 127,
          "clef": "treble",
          "pitch": "E5"
        }
      ]
    },
    {
      "_": "Treble: 16 notes, Bass: 12 notes",
      "number": 92,
      "notes": [
        {
          "midi": 45,
          "beat": 0,
          "dur": 0.33,
          "vel": 127,
          "clef": "bass",
          "pitch": "A2"
        },
        {
          "midi": 68,
          "beat": 0,
          "dur": 0.25,
          "vel": 127,
          "clef": "treble",
          "pitch": "G#4"
        },
        {
          "midi": 80,
          "beat": 0.25,
          "dur": 0.25,
          "vel": 127,
          "clef": "treble",
          "pitch": "G#5"
        },
        {
          "midi": 49,
          "beat": 0.33,
          "dur": 0.33,
          "vel": 127,
          "clef": "bass",
          "pitch": "C#3"
        },
        {
          "midi": 72,
          "beat": 0.5,
          "dur": 0.25,
          "vel": 127,
          "clef": "treble",
          "pitch": "C5"
        },
        {
          "midi": 54,
          "beat": 0.67,
          "dur": 0.33,
          "vel": 127,
          "clef": "bass",
          "pitch": "F#3"
        },
        {
          "midi": 73,
          "beat": 0.75,
          "dur": 0.25,
          "vel": 127,
          "clef": "treble",
          "pitch": "C#5"
        },
        {
          "midi": 57,
          "beat": 1,
          "dur": 0.33,
          "vel": 127,
          "clef": "bass",
          "pitch": "A3"
        },
        {
          "midi": 66,
          "beat": 1,
          "dur": 0.25,
          "vel": 127,
          "clef": "treble",
          "pitch": "F#4"
        },
        {
          "midi": 78,
          "beat": 1.25,
          "dur": 0.25,
          "vel": 127,
          "clef": "treble",
          "pitch": "F#5"
        },
        {
          "midi": 54,
          "beat": 1.33,
          "dur": 0.33,
          "vel": 127,
          "clef": "bass",
          "pitch": "F#3"
        },
        {
          "midi": 72,
          "beat": 1.5,
          "dur": 0.25,
          "vel": 127,
          "clef": "treble",
          "pitch": "C5"
        },
        {
          "midi": 49,
          "beat": 1.67,
          "dur": 0.33,
          "vel": 127,
          "clef": "bass",
          "pitch": "C#3"
        },
        {
          "midi": 73,
          "beat": 1.75,
          "dur": 0.25,
          "vel": 127,
          "clef": "treble",
          "pitch": "C#5"
        },
        {
          "midi": 45,
          "beat": 2,
          "dur": 0.33,
          "vel": 127,
          "clef": "bass",
          "pitch": "A2"
        },
        {
          "midi": 65,
          "beat": 2,
          "dur": 0.25,
          "vel": 127,
          "clef": "treble",
          "pitch": "F4"
        },
        {
          "midi": 77,
          "beat": 2.25,
          "dur": 0.25,
          "vel": 127,
          "clef": "treble",
          "pitch": "F5"
        },
        {
          "midi": 49,
          "beat": 2.33,
          "dur": 0.33,
          "vel": 127,
          "clef": "bass",
          "pitch": "C#3"
        },
        {
          "midi": 72,
          "beat": 2.5,
          "dur": 0.25,
          "vel": 127,
          "clef": "treble",
          "pitch": "C5"
        },
        {
          "midi": 54,
          "beat": 2.67,
          "dur": 0.33,
          "vel": 127,
          "clef": "bass",
          "pitch": "F#3"
        },
        {
          "midi": 73,
          "beat": 2.75,
          "dur": 0.25,
          "vel": 127,
          "clef": "treble",
          "pitch": "C#5"
        },
        {
          "midi": 57,
          "beat": 3,
          "dur": 0.33,
          "vel": 127,
          "clef": "bass",
          "pitch": "A3"
        },
        {
          "midi": 66,
          "beat": 3,
          "dur": 0.25,
          "vel": 127,
          "clef": "treble",
          "pitch": "F#4"
        },
        {
          "midi": 78,
          "beat": 3.25,
          "dur": 0.25,
          "vel": 127,
          "clef": "treble",
          "pitch": "F#5"
        },
        {
          "midi": 54,
          "beat": 3.33,
          "dur": 0.33,
          "vel": 127,
          "clef": "bass",
          "pitch": "F#3"
        },
        {
          "midi": 72,
          "beat": 3.5,
          "dur": 0.25,
          "vel": 127,
          "clef": "treble",
          "pitch": "C5"
        },
        {
          "midi": 49,
          "beat": 3.67,
          "dur": 0.33,
          "vel": 127,
          "clef": "bass",
          "pitch": "C#3"
        },
        {
          "midi": 73,
          "beat": 3.75,
          "dur": 0.25,
          "vel": 127,
          "clef": "treble",
          "pitch": "C#5"
        }
      ]
    },
    {
      "_": "Treble: 16 notes, Bass: 12 notes",
      "number": 93,
      "notes": [
        {
          "midi": 47,
          "beat": 0,
          "dur": 0.33,
          "vel": 127,
          "clef": "bass",
          "pitch": "B2"
        },
        {
          "midi": 65,
          "beat": 0,
          "dur": 0.25,
          "vel": 127,
          "clef": "treble",
          "pitch": "F4"
        },
        {
          "midi": 77,
          "beat": 0.25,
          "dur": 0.25,
          "vel": 127,
          "clef": "treble",
          "pitch": "F5"
        },
        {
          "midi": 54,
          "beat": 0.33,
          "dur": 0.33,
          "vel": 127,
          "clef": "bass",
          "pitch": "F#3"
        },
        {
          "midi": 71,
          "beat": 0.5,
          "dur": 0.25,
          "vel": 127,
          "clef": "treble",
          "pitch": "B4"
        },
        {
          "midi": 57,
          "beat": 0.67,
          "dur": 0.33,
          "vel": 127,
          "clef": "bass",
          "pitch": "A3"
        },
        {
          "midi": 75,
          "beat": 0.75,
          "dur": 0.25,
          "vel": 127,
          "clef": "treble",
          "pitch": "D#5"
        },
        {
          "midi": 59,
          "beat": 1,
          "dur": 0.33,
          "vel": 127,
          "clef": "bass",
          "pitch": "B3"
        },
        {
          "midi": 66,
          "beat": 1,
          "dur": 0.25,
          "vel": 127,
          "clef": "treble",
          "pitch": "F#4"
        },
        {
          "midi": 78,
          "beat": 1.25,
          "dur": 0.25,
          "vel": 127,
          "clef": "treble",
          "pitch": "F#5"
        },
        {
          "midi": 57,
          "beat": 1.33,
          "dur": 0.33,
          "vel": 127,
          "clef": "bass",
          "pitch": "A3"
        },
        {
          "midi": 71,
          "beat": 1.5,
          "dur": 0.25,
          "vel": 127,
          "clef": "treble",
          "pitch": "B4"
        },
        {
          "midi": 54,
          "beat": 1.67,
          "dur": 0.33,
          "vel": 127,
          "clef": "bass",
          "pitch": "F#3"
        },
        {
          "midi": 75,
          "beat": 1.75,
          "dur": 0.25,
          "vel": 127,
          "clef": "treble",
          "pitch": "D#5"
        },
        {
          "midi": 40,
          "beat": 2,
          "dur": 0.33,
          "vel": 127,
          "clef": "bass",
          "pitch": "E2"
        },
        {
          "midi": 69,
          "beat": 2,
          "dur": 0.25,
          "vel": 127,
          "clef": "treble",
          "pitch": "A4"
        },
        {
          "midi": 81,
          "beat": 2.25,
          "dur": 0.25,
          "vel": 127,
          "clef": "treble",
          "pitch": "A5"
        },
        {
          "midi": 47,
          "beat": 2.33,
          "dur": 0.33,
          "vel": 127,
          "clef": "bass",
          "pitch": "B2"
        },
        {
          "midi": 71,
          "beat": 2.5,
          "dur": 0.25,
          "vel": 127,
          "clef": "treble",
          "pitch": "B4"
        },
        {
          "midi": 52,
          "beat": 2.67,
          "dur": 0.33,
          "vel": 127,
          "clef": "bass",
          "pitch": "E3"
        },
        {
          "midi": 76,
          "beat": 2.75,
          "dur": 0.25,
          "vel": 127,
          "clef": "treble",
          "pitch": "E5"
        },
        {
          "midi": 56,
          "beat": 3,
          "dur": 0.33,
          "vel": 127,
          "clef": "bass",
          "pitch": "G#3"
        },
        {
          "midi": 68,
          "beat": 3,
          "dur": 0.25,
          "vel": 127,
          "clef": "treble",
          "pitch": "G#4"
        },
        {
          "midi": 80,
          "beat": 3.25,
          "dur": 0.25,
          "vel": 127,
          "clef": "treble",
          "pitch": "G#5"
        },
        {
          "midi": 52,
          "beat": 3.33,
          "dur": 0.33,
          "vel": 127,
          "clef": "bass",
          "pitch": "E3"
        },
        {
          "midi": 71,
          "beat": 3.5,
          "dur": 0.25,
          "vel": 127,
          "clef": "treble",
          "pitch": "B4"
        },
        {
          "midi": 47,
          "beat": 3.67,
          "dur": 0.33,
          "vel": 127,
          "clef": "bass",
          "pitch": "B2"
        },
        {
          "midi": 76,
          "beat": 3.75,
          "dur": 0.25,
          "vel": 127,
          "clef": "treble",
          "pitch": "E5"
        }
      ]
    },
    {
      "_": "Treble: 16 notes, Bass: 12 notes",
      "number": 94,
      "notes": [
        {
          "midi": 45,
          "beat": 0,
          "dur": 0.33,
          "vel": 127,
          "clef": "bass",
          "pitch": "A2"
        },
        {
          "midi": 68,
          "beat": 0,
          "dur": 0.25,
          "vel": 127,
          "clef": "treble",
          "pitch": "G#4"
        },
        {
          "midi": 80,
          "beat": 0.25,
          "dur": 0.25,
          "vel": 127,
          "clef": "treble",
          "pitch": "G#5"
        },
        {
          "midi": 49,
          "beat": 0.33,
          "dur": 0.33,
          "vel": 127,
          "clef": "bass",
          "pitch": "C#3"
        },
        {
          "midi": 72,
          "beat": 0.5,
          "dur": 0.25,
          "vel": 127,
          "clef": "treble",
          "pitch": "C5"
        },
        {
          "midi": 54,
          "beat": 0.67,
          "dur": 0.33,
          "vel": 127,
          "clef": "bass",
          "pitch": "F#3"
        },
        {
          "midi": 73,
          "beat": 0.75,
          "dur": 0.25,
          "vel": 127,
          "clef": "treble",
          "pitch": "C#5"
        },
        {
          "midi": 57,
          "beat": 1,
          "dur": 0.33,
          "vel": 127,
          "clef": "bass",
          "pitch": "A3"
        },
        {
          "midi": 66,
          "beat": 1,
          "dur": 0.25,
          "vel": 127,
          "clef": "treble",
          "pitch": "F#4"
        },
        {
          "midi": 78,
          "beat": 1.25,
          "dur": 0.25,
          "vel": 127,
          "clef": "treble",
          "pitch": "F#5"
        },
        {
          "midi": 54,
          "beat": 1.33,
          "dur": 0.33,
          "vel": 127,
          "clef": "bass",
          "pitch": "F#3"
        },
        {
          "midi": 72,
          "beat": 1.5,
          "dur": 0.25,
          "vel": 127,
          "clef": "treble",
          "pitch": "C5"
        },
        {
          "midi": 49,
          "beat": 1.67,
          "dur": 0.33,
          "vel": 127,
          "clef": "bass",
          "pitch": "C#3"
        },
        {
          "midi": 73,
          "beat": 1.75,
          "dur": 0.25,
          "vel": 127,
          "clef": "treble",
          "pitch": "C#5"
        },
        {
          "midi": 45,
          "beat": 2,
          "dur": 0.33,
          "vel": 127,
          "clef": "bass",
          "pitch": "A2"
        },
        {
          "midi": 65,
          "beat": 2,
          "dur": 0.25,
          "vel": 127,
          "clef": "treble",
          "pitch": "F4"
        },
        {
          "midi": 77,
          "beat": 2.25,
          "dur": 0.25,
          "vel": 127,
          "clef": "treble",
          "pitch": "F5"
        },
        {
          "midi": 49,
          "beat": 2.33,
          "dur": 0.33,
          "vel": 127,
          "clef": "bass",
          "pitch": "C#3"
        },
        {
          "midi": 72,
          "beat": 2.5,
          "dur": 0.25,
          "vel": 127,
          "clef": "treble",
          "pitch": "C5"
        },
        {
          "midi": 54,
          "beat": 2.67,
          "dur": 0.33,
          "vel": 127,
          "clef": "bass",
          "pitch": "F#3"
        },
        {
          "midi": 73,
          "beat": 2.75,
          "dur": 0.25,
          "vel": 127,
          "clef": "treble",
          "pitch": "C#5"
        },
        {
          "midi": 57,
          "beat": 3,
          "dur": 0.33,
          "vel": 127,
          "clef": "bass",
          "pitch": "A3"
        },
        {
          "midi": 66,
          "beat": 3,
          "dur": 0.25,
          "vel": 127,
          "clef": "treble",
          "pitch": "F#4"
        },
        {
          "midi": 78,
          "beat": 3.25,
          "dur": 0.25,
          "vel": 127,
          "clef": "treble",
          "pitch": "F#5"
        },
        {
          "midi": 54,
          "beat": 3.33,
          "dur": 0.33,
          "vel": 127,
          "clef": "bass",
          "pitch": "F#3"
        },
        {
          "midi": 72,
          "beat": 3.5,
          "dur": 0.25,
          "vel": 127,
          "clef": "treble",
          "pitch": "C5"
        },
        {
          "midi": 49,
          "beat": 3.67,
          "dur": 0.33,
          "vel": 127,
          "clef": "bass",
          "pitch": "C#3"
        },
        {
          "midi": 73,
          "beat": 3.75,
          "dur": 0.25,
          "vel": 127,
          "clef": "treble",
          "pitch": "C#5"
        }
      ]
    },
    {
      "_": "Treble: 16 notes, Bass: 12 notes",
      "number": 95,
      "notes": [
        {
          "midi": 47,
          "beat": 0,
          "dur": 0.33,
          "vel": 127,
          "clef": "bass",
          "pitch": "B2"
        },
        {
          "midi": 61,
          "beat": 0,
          "dur": 0.25,
          "vel": 127,
          "clef": "treble",
          "pitch": "C#4"
        },
        {
          "midi": 73,
          "beat": 0.25,
          "dur": 0.25,
          "vel": 127,
          "clef": "treble",
          "pitch": "C#5"
        },
        {
          "midi": 54,
          "beat": 0.33,
          "dur": 0.33,
          "vel": 127,
          "clef": "bass",
          "pitch": "F#3"
        },
        {
          "midi": 66,
          "beat": 0.5,
          "dur": 0.25,
          "vel": 127,
          "clef": "treble",
          "pitch": "F#4"
        },
        {
          "midi": 57,
          "beat": 0.67,
          "dur": 0.33,
          "vel": 127,
          "clef": "bass",
          "pitch": "A3"
        },
        {
          "midi": 69,
          "beat": 0.75,
          "dur": 0.25,
          "vel": 127,
          "clef": "treble",
          "pitch": "A4"
        },
        {
          "midi": 59,
          "beat": 1,
          "dur": 0.33,
          "vel": 127,
          "clef": "bass",
          "pitch": "B3"
        },
        {
          "midi": 63,
          "beat": 1,
          "dur": 0.25,
          "vel": 127,
          "clef": "treble",
          "pitch": "D#4"
        },
        {
          "midi": 75,
          "beat": 1.25,
          "dur": 0.25,
          "vel": 127,
          "clef": "treble",
          "pitch": "D#5"
        },
        {
          "midi": 57,
          "beat": 1.33,
          "dur": 0.33,
          "vel": 127,
          "clef": "bass",
          "pitch": "A3"
        },
        {
          "midi": 66,
          "beat": 1.5,
          "dur": 0.25,
          "vel": 127,
          "clef": "treble",
          "pitch": "F#4"
        },
        {
          "midi": 54,
          "beat": 1.67,
          "dur": 0.33,
          "vel": 127,
          "clef": "bass",
          "pitch": "F#3"
        },
        {
          "midi": 69,
          "beat": 1.75,
          "dur": 0.25,
          "vel": 127,
          "clef": "treble",
          "pitch": "A4"
        },
        {
          "midi": 40,
          "beat": 2,
          "dur": 0.33,
          "vel": 127,
          "clef": "bass",
          "pitch": "E2"
        },
        {
          "midi": 64,
          "beat": 2,
          "dur": 0.25,
          "vel": 127,
          "clef": "treble",
          "pitch": "E4"
        },
        {
          "midi": 76,
          "beat": 2.25,
          "dur": 0.25,
          "vel": 127,
          "clef": "treble",
          "pitch": "E5"
        },
        {
          "midi": 47,
          "beat": 2.33,
          "dur": 0.33,
          "vel": 127,
          "clef": "bass",
          "pitch": "B2"
        },
        {
          "midi": 68,
          "beat": 2.5,
          "dur": 0.25,
          "vel": 127,
          "clef": "treble",
          "pitch": "G#4"
        },
        {
          "midi": 52,
          "beat": 2.67,
          "dur": 0.33,
          "vel": 127,
          "clef": "bass",
          "pitch": "E3"
        },
        {
          "midi": 71,
          "beat": 2.75,
          "dur": 0.25,
          "vel": 127,
          "clef": "treble",
          "pitch": "B4"
        },
        {
          "midi": 56,
          "beat": 3,
          "dur": 0.33,
          "vel": 127,
          "clef": "bass",
          "pitch": "G#3"
        },
        {
          "midi": 68,
          "beat": 3,
          "dur": 0.25,
          "vel": 127,
          "clef": "treble",
          "pitch": "G#4"
        },
        {
          "midi": 80,
          "beat": 3.25,
          "dur": 0.25,
          "vel": 127,
          "clef": "treble",
          "pitch": "G#5"
        },
        {
          "midi": 52,
          "beat": 3.33,
          "dur": 0.33,
          "vel": 127,
          "clef": "bass",
          "pitch": "E3"
        },
        {
          "midi": 71,
          "beat": 3.5,
          "dur": 0.25,
          "vel": 127,
          "clef": "treble",
          "pitch": "B4"
        },
        {
          "midi": 47,
          "beat": 3.67,
          "dur": 0.33,
          "vel": 127,
          "clef": "bass",
          "pitch": "B2"
        },
        {
          "midi": 76,
          "beat": 3.75,
          "dur": 0.25,
          "vel": 127,
          "clef": "treble",
          "pitch": "E5"
        }
      ]
    },
    {
      "_": "Treble: 16 notes, Bass: 12 notes",
      "number": 96,
      "notes": [
        {
          "midi": 45,
          "beat": 0,
          "dur": 0.33,
          "vel": 127,
          "clef": "bass",
          "pitch": "A2"
        },
        {
          "midi": 68,
          "beat": 0,
          "dur": 0.25,
          "vel": 127,
          "clef": "treble",
          "pitch": "G#4"
        },
        {
          "midi": 80,
          "beat": 0.25,
          "dur": 0.25,
          "vel": 127,
          "clef": "treble",
          "pitch": "G#5"
        },
        {
          "midi": 49,
          "beat": 0.33,
          "dur": 0.33,
          "vel": 127,
          "clef": "bass",
          "pitch": "C#3"
        },
        {
          "midi": 72,
          "beat": 0.5,
          "dur": 0.25,
          "vel": 127,
          "clef": "treble",
          "pitch": "C5"
        },
        {
          "midi": 54,
          "beat": 0.67,
          "dur": 0.33,
          "vel": 127,
          "clef": "bass",
          "pitch": "F#3"
        },
        {
          "midi": 73,
          "beat": 0.75,
          "dur": 0.25,
          "vel": 127,
          "clef": "treble",
          "pitch": "C#5"
        },
        {
          "midi": 57,
          "beat": 1,
          "dur": 0.33,
          "vel": 127,
          "clef": "bass",
          "pitch": "A3"
        },
        {
          "midi": 66,
          "beat": 1,
          "dur": 0.25,
          "vel": 127,
          "clef": "treble",
          "pitch": "F#4"
        },
        {
          "midi": 78,
          "beat": 1.25,
          "dur": 0.25,
          "vel": 127,
          "clef": "treble",
          "pitch": "F#5"
        },
        {
          "midi": 54,
          "beat": 1.33,
          "dur": 0.33,
          "vel": 127,
          "clef": "bass",
          "pitch": "F#3"
        },
        {
          "midi": 72,
          "beat": 1.5,
          "dur": 0.25,
          "vel": 127,
          "clef": "treble",
          "pitch": "C5"
        },
        {
          "midi": 49,
          "beat": 1.67,
          "dur": 0.33,
          "vel": 127,
          "clef": "bass",
          "pitch": "C#3"
        },
        {
          "midi": 73,
          "beat": 1.75,
          "dur": 0.25,
          "vel": 127,
          "clef": "treble",
          "pitch": "C#5"
        },
        {
          "midi": 45,
          "beat": 2,
          "dur": 0.33,
          "vel": 127,
          "clef": "bass",
          "pitch": "A2"
        },
        {
          "midi": 75,
          "beat": 2,
          "dur": 0.25,
          "vel": 127,
          "clef": "treble",
          "pitch": "D#5"
        },
        {
          "midi": 87,
          "beat": 2.25,
          "dur": 0.25,
          "vel": 127,
          "clef": "treble",
          "pitch": "D#6"
        },
        {
          "midi": 51,
          "beat": 2.33,
          "dur": 0.33,
          "vel": 127,
          "clef": "bass",
          "pitch": "D#3"
        },
        {
          "midi": 78,
          "beat": 2.5,
          "dur": 0.25,
          "vel": 127,
          "clef": "treble",
          "pitch": "F#5"
        },
        {
          "midi": 54,
          "beat": 2.67,
          "dur": 0.33,
          "vel": 127,
          "clef": "bass",
          "pitch": "F#3"
        },
        {
          "midi": 81,
          "beat": 2.75,
          "dur": 0.25,
          "vel": 127,
          "clef": "treble",
          "pitch": "A5"
        },
        {
          "midi": 57,
          "beat": 3,
          "dur": 0.33,
          "vel": 127,
          "clef": "bass",
          "pitch": "A3"
        },
        {
          "midi": 73,
          "beat": 3,
          "dur": 0.25,
          "vel": 127,
          "clef": "treble",
          "pitch": "C#5"
        },
        {
          "midi": 85,
          "beat": 3.25,
          "dur": 0.25,
          "vel": 127,
          "clef": "treble",
          "pitch": "C#6"
        },
        {
          "midi": 54,
          "beat": 3.33,
          "dur": 0.33,
          "vel": 127,
          "clef": "bass",
          "pitch": "F#3"
        },
        {
          "midi": 78,
          "beat": 3.5,
          "dur": 0.25,
          "vel": 127,
          "clef": "treble",
          "pitch": "F#5"
        },
        {
          "midi": 51,
          "beat": 3.67,
          "dur": 0.33,
          "vel": 127,
          "clef": "bass",
          "pitch": "D#3"
        },
        {
          "midi": 81,
          "beat": 3.75,
          "dur": 0.25,
          "vel": 127,
          "clef": "treble",
          "pitch": "A5"
        }
      ]
    },
    {
      "_": "Treble: 16 notes, Bass: 12 notes",
      "number": 97,
      "notes": [
        {
          "midi": 44,
          "beat": 0,
          "dur": 0.33,
          "vel": 127,
          "clef": "bass",
          "pitch": "G#2"
        },
        {
          "midi": 73,
          "beat": 0,
          "dur": 0.25,
          "vel": 127,
          "clef": "treble",
          "pitch": "C#5"
        },
        {
          "midi": 85,
          "beat": 0.25,
          "dur": 0.25,
          "vel": 127,
          "clef": "treble",
          "pitch": "C#6"
        },
        {
          "midi": 51,
          "beat": 0.33,
          "dur": 0.33,
          "vel": 127,
          "clef": "bass",
          "pitch": "D#3"
        },
        {
          "midi": 75,
          "beat": 0.5,
          "dur": 0.25,
          "vel": 127,
          "clef": "treble",
          "pitch": "D#5"
        },
        {
          "midi": 54,
          "beat": 0.67,
          "dur": 0.33,
          "vel": 127,
          "clef": "bass",
          "pitch": "F#3"
        },
        {
          "midi": 78,
          "beat": 0.75,
          "dur": 0.25,
          "vel": 127,
          "clef": "treble",
          "pitch": "F#5"
        },
        {
          "midi": 60,
          "beat": 1,
          "dur": 0.33,
          "vel": 127,
          "clef": "bass",
          "pitch": "C4"
        },
        {
          "midi": 72,
          "beat": 1,
          "dur": 0.25,
          "vel": 127,
          "clef": "treble",
          "pitch": "C5"
        },
        {
          "midi": 84,
          "beat": 1.25,
          "dur": 0.25,
          "vel": 127,
          "clef": "treble",
          "pitch": "C6"
        },
        {
          "midi": 54,
          "beat": 1.33,
          "dur": 0.33,
          "vel": 127,
          "clef": "bass",
          "pitch": "F#3"
        },
        {
          "midi": 75,
          "beat": 1.5,
          "dur": 0.25,
          "vel": 127,
          "clef": "treble",
          "pitch": "D#5"
        },
        {
          "midi": 51,
          "beat": 1.67,
          "dur": 0.33,
          "vel": 127,
          "clef": "bass",
          "pitch": "D#3"
        },
        {
          "midi": 78,
          "beat": 1.75,
          "dur": 0.25,
          "vel": 127,
          "clef": "treble",
          "pitch": "F#5"
        },
        {
          "midi": 44,
          "beat": 2,
          "dur": 0.33,
          "vel": 127,
          "clef": "bass",
          "pitch": "G#2"
        },
        {
          "midi": 72,
          "beat": 2,
          "dur": 0.25,
          "vel": 127,
          "clef": "treble",
          "pitch": "C5"
        },
        {
          "midi": 84,
          "beat": 2.25,
          "dur": 0.25,
          "vel": 127,
          "clef": "treble",
          "pitch": "C6"
        },
        {
          "midi": 51,
          "beat": 2.33,
          "dur": 0.33,
          "vel": 127,
          "clef": "bass",
          "pitch": "D#3"
        },
        {
          "midi": 75,
          "beat": 2.5,
          "dur": 0.25,
          "vel": 127,
          "clef": "treble",
          "pitch": "D#5"
        },
        {
          "midi": 54,
          "beat": 2.67,
          "dur": 0.33,
          "vel": 127,
          "clef": "bass",
          "pitch": "F#3"
        },
        {
          "midi": 78,
          "beat": 2.75,
          "dur": 0.25,
          "vel": 127,
          "clef": "treble",
          "pitch": "F#5"
        },
        {
          "midi": 60,
          "beat": 3,
          "dur": 0.33,
          "vel": 127,
          "clef": "bass",
          "pitch": "C4"
        },
        {
          "midi": 72,
          "beat": 3,
          "dur": 0.25,
          "vel": 127,
          "clef": "treble",
          "pitch": "C5"
        },
        {
          "midi": 84,
          "beat": 3.25,
          "dur": 0.25,
          "vel": 127,
          "clef": "treble",
          "pitch": "C6"
        },
        {
          "midi": 54,
          "beat": 3.33,
          "dur": 0.33,
          "vel": 127,
          "clef": "bass",
          "pitch": "F#3"
        },
        {
          "midi": 75,
          "beat": 3.5,
          "dur": 0.25,
          "vel": 127,
          "clef": "treble",
          "pitch": "D#5"
        },
        {
          "midi": 51,
          "beat": 3.67,
          "dur": 0.33,
          "vel": 127,
          "clef": "bass",
          "pitch": "D#3"
        },
        {
          "midi": 78,
          "beat": 3.75,
          "dur": 0.25,
          "vel": 127,
          "clef": "treble",
          "pitch": "F#5"
        }
      ]
    },
    {
      "_": "Treble: 16 notes, Bass: 12 notes",
      "number": 98,
      "notes": [
        {
          "midi": 45,
          "beat": 0,
          "dur": 0.33,
          "vel": 127,
          "clef": "bass",
          "pitch": "A2"
        },
        {
          "midi": 72,
          "beat": 0,
          "dur": 0.25,
          "vel": 127,
          "clef": "treble",
          "pitch": "C5"
        },
        {
          "midi": 84,
          "beat": 0.25,
          "dur": 0.25,
          "vel": 127,
          "clef": "treble",
          "pitch": "C6"
        },
        {
          "midi": 51,
          "beat": 0.33,
          "dur": 0.33,
          "vel": 127,
          "clef": "bass",
          "pitch": "D#3"
        },
        {
          "midi": 75,
          "beat": 0.5,
          "dur": 0.25,
          "vel": 127,
          "clef": "treble",
          "pitch": "D#5"
        },
        {
          "midi": 54,
          "beat": 0.67,
          "dur": 0.33,
          "vel": 127,
          "clef": "bass",
          "pitch": "F#3"
        },
        {
          "midi": 78,
          "beat": 0.75,
          "dur": 0.25,
          "vel": 127,
          "clef": "treble",
          "pitch": "F#5"
        },
        {
          "midi": 59,
          "beat": 1,
          "dur": 0.33,
          "vel": 127,
          "clef": "bass",
          "pitch": "B3"
        },
        {
          "midi": 71,
          "beat": 1,
          "dur": 0.25,
          "vel": 127,
          "clef": "treble",
          "pitch": "B4"
        },
        {
          "midi": 83,
          "beat": 1.25,
          "dur": 0.25,
          "vel": 127,
          "clef": "treble",
          "pitch": "B5"
        },
        {
          "midi": 54,
          "beat": 1.33,
          "dur": 0.33,
          "vel": 127,
          "clef": "bass",
          "pitch": "F#3"
        },
        {
          "midi": 75,
          "beat": 1.5,
          "dur": 0.25,
          "vel": 127,
          "clef": "treble",
          "pitch": "D#5"
        },
        {
          "midi": 51,
          "beat": 1.67,
          "dur": 0.33,
          "vel": 127,
          "clef": "bass",
          "pitch": "D#3"
        },
        {
          "midi": 78,
          "beat": 1.75,
          "dur": 0.25,
          "vel": 127,
          "clef": "treble",
          "pitch": "F#5"
        },
        {
          "midi": 46,
          "beat": 2,
          "dur": 0.33,
          "vel": 127,
          "clef": "bass",
          "acc": "#",
          "pitch": "A#2"
        },
        {
          "midi": 71,
          "beat": 2,
          "dur": 0.25,
          "vel": 127,
          "clef": "treble",
          "pitch": "B4"
        },
        {
          "midi": 83,
          "beat": 2.25,
          "dur": 0.25,
          "vel": 127,
          "clef": "treble",
          "pitch": "B5"
        },
        {
          "midi": 51,
          "beat": 2.33,
          "dur": 0.33,
          "vel": 127,
          "clef": "bass",
          "pitch": "D#3"
        },
        {
          "midi": 75,
          "beat": 2.5,
          "dur": 0.25,
          "vel": 127,
          "clef": "treble",
          "pitch": "D#5"
        },
        {
          "midi": 54,
          "beat": 2.67,
          "dur": 0.33,
          "vel": 127,
          "clef": "bass",
          "pitch": "F#3"
        },
        {
          "midi": 78,
          "beat": 2.75,
          "dur": 0.25,
          "vel": 127,
          "clef": "treble",
          "pitch": "F#5"
        },
        {
          "midi": 58,
          "beat": 3,
          "dur": 0.33,
          "vel": 127,
          "clef": "bass",
          "acc": "#",
          "pitch": "A#3"
        },
        {
          "midi": 70,
          "beat": 3,
          "dur": 0.25,
          "vel": 127,
          "clef": "treble",
          "acc": "#",
          "pitch": "A#4"
        },
        {
          "midi": 82,
          "beat": 3.25,
          "dur": 0.25,
          "vel": 127,
          "clef": "treble",
          "acc": "#",
          "pitch": "A#5"
        },
        {
          "midi": 54,
          "beat": 3.33,
          "dur": 0.33,
          "vel": 127,
          "clef": "bass",
          "pitch": "F#3"
        },
        {
          "midi": 75,
          "beat": 3.5,
          "dur": 0.25,
          "vel": 127,
          "clef": "treble",
          "pitch": "D#5"
        },
        {
          "midi": 51,
          "beat": 3.67,
          "dur": 0.33,
          "vel": 127,
          "clef": "bass",
          "pitch": "D#3"
        },
        {
          "midi": 78,
          "beat": 3.75,
          "dur": 0.25,
          "vel": 127,
          "clef": "treble",
          "pitch": "F#5"
        }
      ]
    },
    {
      "_": "Treble: 16 notes, Bass: 12 notes",
      "number": 99,
      "notes": [
        {
          "midi": 48,
          "beat": 0,
          "dur": 0.33,
          "vel": 127,
          "clef": "bass",
          "pitch": "C3"
        },
        {
          "midi": 70,
          "beat": 0,
          "dur": 0.25,
          "vel": 127,
          "clef": "treble",
          "acc": "#",
          "pitch": "A#4"
        },
        {
          "midi": 82,
          "beat": 0.25,
          "dur": 0.25,
          "vel": 127,
          "clef": "treble",
          "acc": "#",
          "pitch": "A#5"
        },
        {
          "midi": 51,
          "beat": 0.33,
          "dur": 0.33,
          "vel": 127,
          "clef": "bass",
          "pitch": "D#3"
        },
        {
          "midi": 75,
          "beat": 0.5,
          "dur": 0.25,
          "vel": 127,
          "clef": "treble",
          "pitch": "D#5"
        },
        {
          "midi": 54,
          "beat": 0.67,
          "dur": 0.33,
          "vel": 127,
          "clef": "bass",
          "pitch": "F#3"
        },
        {
          "midi": 78,
          "beat": 0.75,
          "dur": 0.25,
          "vel": 127,
          "clef": "treble",
          "pitch": "F#5"
        },
        {
          "midi": 57,
          "beat": 1,
          "dur": 0.33,
          "vel": 127,
          "clef": "bass",
          "pitch": "A3"
        },
        {
          "midi": 69,
          "beat": 1,
          "dur": 0.25,
          "vel": 127,
          "clef": "treble",
          "pitch": "A4"
        },
        {
          "midi": 81,
          "beat": 1.25,
          "dur": 0.25,
          "vel": 127,
          "clef": "treble",
          "pitch": "A5"
        },
        {
          "midi": 54,
          "beat": 1.33,
          "dur": 0.33,
          "vel": 127,
          "clef": "bass",
          "pitch": "F#3"
        },
        {
          "midi": 75,
          "beat": 1.5,
          "dur": 0.25,
          "vel": 127,
          "clef": "treble",
          "pitch": "D#5"
        },
        {
          "midi": 51,
          "beat": 1.67,
          "dur": 0.33,
          "vel": 127,
          "clef": "bass",
          "pitch": "D#3"
        },
        {
          "midi": 78,
          "beat": 1.75,
          "dur": 0.25,
          "vel": 127,
          "clef": "treble",
          "pitch": "F#5"
        },
        {
          "midi": 48,
          "beat": 2,
          "dur": 0.33,
          "vel": 127,
          "clef": "bass",
          "pitch": "C3"
        },
        {
          "midi": 69,
          "beat": 2,
          "dur": 0.25,
          "vel": 127,
          "clef": "treble",
          "pitch": "A4"
        },
        {
          "midi": 81,
          "beat": 2.25,
          "dur": 0.25,
          "vel": 127,
          "clef": "treble",
          "pitch": "A5"
        },
        {
          "midi": 51,
          "beat": 2.33,
          "dur": 0.33,
          "vel": 127,
          "clef": "bass",
          "pitch": "D#3"
        },
        {
          "midi": 75,
          "beat": 2.5,
          "dur": 0.25,
          "vel": 127,
          "clef": "treble",
          "pitch": "D#5"
        },
        {
          "midi": 54,
          "beat": 2.67,
          "dur": 0.33,
          "vel": 127,
          "clef": "bass",
          "pitch": "F#3"
        },
        {
          "midi": 78,
          "beat": 2.75,
          "dur": 0.25,
          "vel": 127,
          "clef": "treble",
          "pitch": "F#5"
        },
        {
          "midi": 57,
          "beat": 3,
          "dur": 0.33,
          "vel": 127,
          "clef": "bass",
          "pitch": "A3"
        },
        {
          "midi": 69,
          "beat": 3,
          "dur": 0.25,
          "vel": 127,
          "clef": "treble",
          "pitch": "A4"
        },
        {
          "midi": 81,
          "beat": 3.25,
          "dur": 0.25,
          "vel": 127,
          "clef": "treble",
          "pitch": "A5"
        },
        {
          "midi": 54,
          "beat": 3.33,
          "dur": 0.33,
          "vel": 127,
          "clef": "bass",
          "pitch": "F#3"
        },
        {
          "midi": 75,
          "beat": 3.5,
          "dur": 0.25,
          "vel": 127,
          "clef": "treble",
          "pitch": "D#5"
        },
        {
          "midi": 51,
          "beat": 3.67,
          "dur": 0.33,
          "vel": 127,
          "clef": "bass",
          "pitch": "D#3"
        },
        {
          "midi": 78,
          "beat": 3.75,
          "dur": 0.25,
          "vel": 127,
          "clef": "treble",
          "pitch": "F#5"
        }
      ]
    },
    {
      "_": "Treble: 16 notes, Bass: 12 notes",
      "number": 100,
      "notes": [
        {
          "midi": 45,
          "beat": 0,
          "dur": 0.33,
          "vel": 127,
          "clef": "bass",
          "pitch": "A2"
        },
        {
          "midi": 72,
          "beat": 0,
          "dur": 0.25,
          "vel": 127,
          "clef": "treble",
          "pitch": "C5"
        },
        {
          "midi": 84,
          "beat": 0.25,
          "dur": 0.25,
          "vel": 127,
          "clef": "treble",
          "pitch": "C6"
        },
        {
          "midi": 51,
          "beat": 0.33,
          "dur": 0.33,
          "vel": 127,
          "clef": "bass",
          "pitch": "D#3"
        },
        {
          "midi": 75,
          "beat": 0.5,
          "dur": 0.25,
          "vel": 127,
          "clef": "treble",
          "pitch": "D#5"
        },
        {
          "midi": 54,
          "beat": 0.67,
          "dur": 0.33,
          "vel": 127,
          "clef": "bass",
          "pitch": "F#3"
        },
        {
          "midi": 78,
          "beat": 0.75,
          "dur": 0.25,
          "vel": 127,
          "clef": "treble",
          "pitch": "F#5"
        },
        {
          "midi": 59,
          "beat": 1,
          "dur": 0.33,
          "vel": 127,
          "clef": "bass",
          "pitch": "B3"
        },
        {
          "midi": 71,
          "beat": 1,
          "dur": 0.25,
          "vel": 127,
          "clef": "treble",
          "pitch": "B4"
        },
        {
          "midi": 83,
          "beat": 1.25,
          "dur": 0.25,
          "vel": 127,
          "clef": "treble",
          "pitch": "B5"
        },
        {
          "midi": 54,
          "beat": 1.33,
          "dur": 0.33,
          "vel": 127,
          "clef": "bass",
          "pitch": "F#3"
        },
        {
          "midi": 75,
          "beat": 1.5,
          "dur": 0.25,
          "vel": 127,
          "clef": "treble",
          "pitch": "D#5"
        },
        {
          "midi": 51,
          "beat": 1.67,
          "dur": 0.33,
          "vel": 127,
          "clef": "bass",
          "pitch": "D#3"
        },
        {
          "midi": 78,
          "beat": 1.75,
          "dur": 0.25,
          "vel": 127,
          "clef": "treble",
          "pitch": "F#5"
        },
        {
          "midi": 46,
          "beat": 2,
          "dur": 0.33,
          "vel": 127,
          "clef": "bass",
          "acc": "#",
          "pitch": "A#2"
        },
        {
          "midi": 71,
          "beat": 2,
          "dur": 0.25,
          "vel": 127,
          "clef": "treble",
          "pitch": "B4"
        },
        {
          "midi": 83,
          "beat": 2.25,
          "dur": 0.25,
          "vel": 127,
          "clef": "treble",
          "pitch": "B5"
        },
        {
          "midi": 51,
          "beat": 2.33,
          "dur": 0.33,
          "vel": 127,
          "clef": "bass",
          "pitch": "D#3"
        },
        {
          "midi": 75,
          "beat": 2.5,
          "dur": 0.25,
          "vel": 127,
          "clef": "treble",
          "pitch": "D#5"
        },
        {
          "midi": 54,
          "beat": 2.67,
          "dur": 0.33,
          "vel": 127,
          "clef": "bass",
          "pitch": "F#3"
        },
        {
          "midi": 78,
          "beat": 2.75,
          "dur": 0.25,
          "vel": 127,
          "clef": "treble",
          "pitch": "F#5"
        },
        {
          "midi": 58,
          "beat": 3,
          "dur": 0.33,
          "vel": 127,
          "clef": "bass",
          "acc": "#",
          "pitch": "A#3"
        },
        {
          "midi": 70,
          "beat": 3,
          "dur": 0.25,
          "vel": 127,
          "clef": "treble",
          "acc": "#",
          "pitch": "A#4"
        },
        {
          "midi": 82,
          "beat": 3.25,
          "dur": 0.25,
          "vel": 127,
          "clef": "treble",
          "acc": "#",
          "pitch": "A#5"
        },
        {
          "midi": 54,
          "beat": 3.33,
          "dur": 0.33,
          "vel": 127,
          "clef": "bass",
          "pitch": "F#3"
        },
        {
          "midi": 75,
          "beat": 3.5,
          "dur": 0.25,
          "vel": 127,
          "clef": "treble",
          "pitch": "D#5"
        },
        {
          "midi": 51,
          "beat": 3.67,
          "dur": 0.33,
          "vel": 127,
          "clef": "bass",
          "pitch": "D#3"
        },
        {
          "midi": 78,
          "beat": 3.75,
          "dur": 0.25,
          "vel": 127,
          "clef": "treble",
          "pitch": "F#5"
        }
      ]
    },
    {
      "_": "Treble: 16 notes, Bass: 12 notes",
      "number": 101,
      "notes": [
        {
          "midi": 47,
          "beat": 0,
          "dur": 0.33,
          "vel": 127,
          "clef": "bass",
          "pitch": "B2"
        },
        {
          "midi": 70,
          "beat": 0,
          "dur": 0.25,
          "vel": 127,
          "clef": "treble",
          "acc": "#",
          "pitch": "A#4"
        },
        {
          "midi": 82,
          "beat": 0.25,
          "dur": 0.25,
          "vel": 127,
          "clef": "treble",
          "acc": "#",
          "pitch": "A#5"
        },
        {
          "midi": 51,
          "beat": 0.33,
          "dur": 0.33,
          "vel": 127,
          "clef": "bass",
          "pitch": "D#3"
        },
        {
          "midi": 75,
          "beat": 0.5,
          "dur": 0.25,
          "vel": 127,
          "clef": "treble",
          "pitch": "D#5"
        },
        {
          "midi": 54,
          "beat": 0.67,
          "dur": 0.33,
          "vel": 127,
          "clef": "bass",
          "pitch": "F#3"
        },
        {
          "midi": 78,
          "beat": 0.75,
          "dur": 0.25,
          "vel": 127,
          "clef": "treble",
          "pitch": "F#5"
        },
        {
          "midi": 57,
          "beat": 1,
          "dur": 0.33,
          "vel": 127,
          "clef": "bass",
          "pitch": "A3"
        },
        {
          "midi": 69,
          "beat": 1,
          "dur": 0.25,
          "vel": 127,
          "clef": "treble",
          "pitch": "A4"
        },
        {
          "midi": 81,
          "beat": 1.25,
          "dur": 0.25,
          "vel": 127,
          "clef": "treble",
          "pitch": "A5"
        },
        {
          "midi": 54,
          "beat": 1.33,
          "dur": 0.33,
          "vel": 127,
          "clef": "bass",
          "pitch": "F#3"
        },
        {
          "midi": 75,
          "beat": 1.5,
          "dur": 0.25,
          "vel": 127,
          "clef": "treble",
          "pitch": "D#5"
        },
        {
          "midi": 51,
          "beat": 1.67,
          "dur": 0.33,
          "vel": 127,
          "clef": "bass",
          "pitch": "D#3"
        },
        {
          "midi": 78,
          "beat": 1.75,
          "dur": 0.25,
          "vel": 127,
          "clef": "treble",
          "pitch": "F#5"
        },
        {
          "midi": 48,
          "beat": 2,
          "dur": 0.33,
          "vel": 127,
          "clef": "bass",
          "pitch": "C3"
        },
        {
          "midi": 69,
          "beat": 2,
          "dur": 0.25,
          "vel": 127,
          "clef": "treble",
          "pitch": "A4"
        },
        {
          "midi": 81,
          "beat": 2.25,
          "dur": 0.25,
          "vel": 127,
          "clef": "treble",
          "pitch": "A5"
        },
        {
          "midi": 51,
          "beat": 2.33,
          "dur": 0.33,
          "vel": 127,
          "clef": "bass",
          "pitch": "D#3"
        },
        {
          "midi": 75,
          "beat": 2.5,
          "dur": 0.25,
          "vel": 127,
          "clef": "treble",
          "pitch": "D#5"
        },
        {
          "midi": 54,
          "beat": 2.67,
          "dur": 0.33,
          "vel": 127,
          "clef": "bass",
          "pitch": "F#3"
        },
        {
          "midi": 78,
          "beat": 2.75,
          "dur": 0.25,
          "vel": 127,
          "clef": "treble",
          "pitch": "F#5"
        },
        {
          "midi": 56,
          "beat": 3,
          "dur": 0.33,
          "vel": 127,
          "clef": "bass",
          "pitch": "G#3"
        },
        {
          "midi": 68,
          "beat": 3,
          "dur": 0.25,
          "vel": 127,
          "clef": "treble",
          "pitch": "G#4"
        },
        {
          "midi": 80,
          "beat": 3.25,
          "dur": 0.25,
          "vel": 127,
          "clef": "treble",
          "pitch": "G#5"
        },
        {
          "midi": 54,
          "beat": 3.33,
          "dur": 0.33,
          "vel": 127,
          "clef": "bass",
          "pitch": "F#3"
        },
        {
          "midi": 75,
          "beat": 3.5,
          "dur": 0.25,
          "vel": 127,
          "clef": "treble",
          "pitch": "D#5"
        },
        {
          "midi": 51,
          "beat": 3.67,
          "dur": 0.33,
          "vel": 127,
          "clef": "bass",
          "pitch": "D#3"
        },
        {
          "midi": 78,
          "beat": 3.75,
          "dur": 0.25,
          "vel": 127,
          "clef": "treble",
          "pitch": "F#5"
        }
      ]
    },
    {
      "_": "Treble: 15 notes, Bass: 12 notes",
      "number": 102,
      "notes": [
        {
          "midi": 49,
          "beat": 0,
          "dur": 0.33,
          "vel": 127,
          "clef": "bass",
          "pitch": "C#3"
        },
        {
          "midi": 68,
          "beat": 0.25,
          "dur": 0.25,
          "vel": 127,
          "clef": "treble",
          "pitch": "G#4"
        },
        {
          "midi": 56,
          "beat": 0.33,
          "dur": 0.33,
          "vel": 127,
          "clef": "bass",
          "pitch": "G#3"
        },
        {
          "midi": 69,
          "beat": 0.5,
          "dur": 0.25,
          "vel": 127,
          "clef": "treble",
          "pitch": "A4"
        },
        {
          "midi": 61,
          "beat": 0.67,
          "dur": 0.33,
          "vel": 127,
          "clef": "bass",
          "pitch": "C#4"
        },
        {
          "midi": 68,
          "beat": 0.75,
          "dur": 0.25,
          "vel": 127,
          "clef": "treble",
          "pitch": "G#4"
        },
        {
          "midi": 64,
          "beat": 1,
          "dur": 0.33,
          "vel": 127,
          "clef": "bass",
          "pitch": "E4"
        },
        {
          "midi": 67,
          "beat": 1,
          "dur": 0.25,
          "vel": 127,
          "clef": "treble",
          "pitch": "G4"
        },
        {
          "midi": 68,
          "beat": 1.25,
          "dur": 0.25,
          "vel": 127,
          "clef": "treble",
          "pitch": "G#4"
        },
        {
          "midi": 61,
          "beat": 1.33,
          "dur": 0.33,
          "vel": 127,
          "clef": "bass",
          "pitch": "C#4"
        },
        {
          "midi": 73,
          "beat": 1.5,
          "dur": 0.25,
          "vel": 127,
          "clef": "treble",
          "pitch": "C#5"
        },
        {
          "midi": 56,
          "beat": 1.67,
          "dur": 0.33,
          "vel": 127,
          "clef": "bass",
          "pitch": "G#3"
        },
        {
          "midi": 76,
          "beat": 1.75,
          "dur": 0.25,
          "vel": 127,
          "clef": "treble",
          "pitch": "E5"
        },
        {
          "midi": 52,
          "beat": 2,
          "dur": 0.33,
          "vel": 127,
          "clef": "bass",
          "pitch": "E3"
        },
        {
          "midi": 75,
          "beat": 2,
          "dur": 0.25,
          "vel": 127,
          "clef": "treble",
          "pitch": "D#5"
        },
        {
          "midi": 73,
          "beat": 2.25,
          "dur": 0.25,
          "vel": 127,
          "clef": "treble",
          "pitch": "C#5"
        },
        {
          "midi": 56,
          "beat": 2.33,
          "dur": 0.33,
          "vel": 127,
          "clef": "bass",
          "pitch": "G#3"
        },
        {
          "midi": 75,
          "beat": 2.5,
          "dur": 0.25,
          "vel": 127,
          "clef": "treble",
          "pitch": "D#5"
        },
        {
          "midi": 61,
          "beat": 2.67,
          "dur": 0.33,
          "vel": 127,
          "clef": "bass",
          "pitch": "C#4"
        },
        {
          "midi": 73,
          "beat": 2.75,
          "dur": 0.25,
          "vel": 127,
          "clef": "treble",
          "pitch": "C#5"
        },
        {
          "midi": 64,
          "beat": 3,
          "dur": 0.33,
          "vel": 127,
          "clef": "bass",
          "pitch": "E4"
        },
        {
          "midi": 72,
          "beat": 3,
          "dur": 0.25,
          "vel": 127,
          "clef": "treble",
          "pitch": "C5"
        },
        {
          "midi": 73,
          "beat": 3.25,
          "dur": 0.25,
          "vel": 127,
          "clef": "treble",
          "pitch": "C#5"
        },
        {
          "midi": 61,
          "beat": 3.33,
          "dur": 0.33,
          "vel": 127,
          "clef": "bass",
          "pitch": "C#4"
        },
        {
          "midi": 76,
          "beat": 3.5,
          "dur": 0.25,
          "vel": 127,
          "clef": "treble",
          "pitch": "E5"
        },
        {
          "midi": 56,
          "beat": 3.67,
          "dur": 0.33,
          "vel": 127,
          "clef": "bass",
          "pitch": "G#3"
        },
        {
          "midi": 80,
          "beat": 3.75,
          "dur": 0.25,
          "vel": 127,
          "clef": "treble",
          "pitch": "G#5"
        }
      ]
    },
    {
      "_": "Treble: 15 notes, Bass: 12 notes",
      "number": 103,
      "notes": [
        {
          "midi": 49,
          "beat": 0,
          "dur": 0.33,
          "vel": 127,
          "clef": "bass",
          "pitch": "C#3"
        },
        {
          "midi": 68,
          "beat": 0.25,
          "dur": 0.25,
          "vel": 127,
          "clef": "treble",
          "pitch": "G#4"
        },
        {
          "midi": 56,
          "beat": 0.33,
          "dur": 0.33,
          "vel": 127,
          "clef": "bass",
          "pitch": "G#3"
        },
        {
          "midi": 69,
          "beat": 0.5,
          "dur": 0.25,
          "vel": 127,
          "clef": "treble",
          "pitch": "A4"
        },
        {
          "midi": 61,
          "beat": 0.67,
          "dur": 0.33,
          "vel": 127,
          "clef": "bass",
          "pitch": "C#4"
        },
        {
          "midi": 68,
          "beat": 0.75,
          "dur": 0.25,
          "vel": 127,
          "clef": "treble",
          "pitch": "G#4"
        },
        {
          "midi": 64,
          "beat": 1,
          "dur": 0.33,
          "vel": 127,
          "clef": "bass",
          "pitch": "E4"
        },
        {
          "midi": 67,
          "beat": 1,
          "dur": 0.25,
          "vel": 127,
          "clef": "treble",
          "pitch": "G4"
        },
        {
          "midi": 68,
          "beat": 1.25,
          "dur": 0.25,
          "vel": 127,
          "clef": "treble",
          "pitch": "G#4"
        },
        {
          "midi": 61,
          "beat": 1.33,
          "dur": 0.33,
          "vel": 127,
          "clef": "bass",
          "pitch": "C#4"
        },
        {
          "midi": 73,
          "beat": 1.5,
          "dur": 0.25,
          "vel": 127,
          "clef": "treble",
          "pitch": "C#5"
        },
        {
          "midi": 56,
          "beat": 1.67,
          "dur": 0.33,
          "vel": 127,
          "clef": "bass",
          "pitch": "G#3"
        },
        {
          "midi": 76,
          "beat": 1.75,
          "dur": 0.25,
          "vel": 127,
          "clef": "treble",
          "pitch": "E5"
        },
        {
          "midi": 52,
          "beat": 2,
          "dur": 0.33,
          "vel": 127,
          "clef": "bass",
          "pitch": "E3"
        },
        {
          "midi": 75,
          "beat": 2,
          "dur": 0.25,
          "vel": 127,
          "clef": "treble",
          "pitch": "D#5"
        },
        {
          "midi": 73,
          "beat": 2.25,
          "dur": 0.25,
          "vel": 127,
          "clef": "treble",
          "pitch": "C#5"
        },
        {
          "midi": 56,
          "beat": 2.33,
          "dur": 0.33,
          "vel": 127,
          "clef": "bass",
          "pitch": "G#3"
        },
        {
          "midi": 75,
          "beat": 2.5,
          "dur": 0.25,
          "vel": 127,
          "clef": "treble",
          "pitch": "D#5"
        },
        {
          "midi": 61,
          "beat": 2.67,
          "dur": 0.33,
          "vel": 127,
          "clef": "bass",
          "pitch": "C#4"
        },
        {
          "midi": 73,
          "beat": 2.75,
          "dur": 0.25,
          "vel": 127,
          "clef": "treble",
          "pitch": "C#5"
        },
        {
          "midi": 64,
          "beat": 3,
          "dur": 0.33,
          "vel": 127,
          "clef": "bass",
          "pitch": "E4"
        },
        {
          "midi": 72,
          "beat": 3,
          "dur": 0.25,
          "vel": 127,
          "clef": "treble",
          "pitch": "C5"
        },
        {
          "midi": 73,
          "beat": 3.25,
          "dur": 0.25,
          "vel": 127,
          "clef": "treble",
          "pitch": "C#5"
        },
        {
          "midi": 61,
          "beat": 3.33,
          "dur": 0.33,
          "vel": 127,
          "clef": "bass",
          "pitch": "C#4"
        },
        {
          "midi": 76,
          "beat": 3.5,
          "dur": 0.25,
          "vel": 127,
          "clef": "treble",
          "pitch": "E5"
        },
        {
          "midi": 56,
          "beat": 3.67,
          "dur": 0.33,
          "vel": 127,
          "clef": "bass",
          "pitch": "G#3"
        },
        {
          "midi": 80,
          "beat": 3.75,
          "dur": 0.25,
          "vel": 127,
          "clef": "treble",
          "pitch": "G#5"
        }
      ]
    },
    {
      "_": "Treble: 15 notes, Bass: 12 notes",
      "number": 104,
      "notes": [
        {
          "midi": 51,
          "beat": 0,
          "dur": 0.33,
          "vel": 127,
          "clef": "bass",
          "pitch": "D#3"
        },
        {
          "midi": 69,
          "beat": 0.25,
          "dur": 0.25,
          "vel": 127,
          "clef": "treble",
          "pitch": "A4"
        },
        {
          "midi": 57,
          "beat": 0.33,
          "dur": 0.33,
          "vel": 127,
          "clef": "bass",
          "pitch": "A3"
        },
        {
          "midi": 73,
          "beat": 0.5,
          "dur": 0.25,
          "vel": 127,
          "clef": "treble",
          "pitch": "C#5"
        },
        {
          "midi": 61,
          "beat": 0.67,
          "dur": 0.33,
          "vel": 127,
          "clef": "bass",
          "pitch": "C#4"
        },
        {
          "midi": 75,
          "beat": 0.75,
          "dur": 0.25,
          "vel": 127,
          "clef": "treble",
          "pitch": "D#5"
        },
        {
          "midi": 66,
          "beat": 1,
          "dur": 0.33,
          "vel": 127,
          "clef": "bass",
          "pitch": "F#4"
        },
        {
          "midi": 78,
          "beat": 1,
          "dur": 0.25,
          "vel": 127,
          "clef": "treble",
          "pitch": "F#5"
        },
        {
          "midi": 81,
          "beat": 1.25,
          "dur": 0.25,
          "vel": 127,
          "clef": "treble",
          "pitch": "A5"
        },
        {
          "midi": 61,
          "beat": 1.33,
          "dur": 0.33,
          "vel": 127,
          "clef": "bass",
          "pitch": "C#4"
        },
        {
          "midi": 85,
          "beat": 1.5,
          "dur": 0.25,
          "vel": 127,
          "clef": "treble",
          "pitch": "C#6"
        },
        {
          "midi": 57,
          "beat": 1.67,
          "dur": 0.33,
          "vel": 127,
          "clef": "bass",
          "pitch": "A3"
        },
        {
          "midi": 87,
          "beat": 1.75,
          "dur": 0.25,
          "vel": 127,
          "clef": "treble",
          "pitch": "D#6"
        },
        {
          "midi": 54,
          "beat": 2,
          "dur": 0.33,
          "vel": 127,
          "clef": "bass",
          "pitch": "F#3"
        },
        {
          "midi": 95,
          "beat": 2,
          "dur": 0.25,
          "vel": 127,
          "clef": "treble",
          "pitch": "B6"
        },
        {
          "midi": 93,
          "beat": 2.25,
          "dur": 0.25,
          "vel": 127,
          "clef": "treble",
          "pitch": "A6"
        },
        {
          "midi": 61,
          "beat": 2.33,
          "dur": 0.33,
          "vel": 127,
          "clef": "bass",
          "pitch": "C#4"
        },
        {
          "midi": 92,
          "beat": 2.5,
          "dur": 0.25,
          "vel": 127,
          "clef": "treble",
          "pitch": "G#6"
        },
        {
          "midi": 63,
          "beat": 2.67,
          "dur": 0.33,
          "vel": 127,
          "clef": "bass",
          "pitch": "D#4"
        },
        {
          "midi": 90,
          "beat": 2.75,
          "dur": 0.25,
          "vel": 127,
          "clef": "treble",
          "pitch": "F#6"
        },
        {
          "midi": 69,
          "beat": 3,
          "dur": 0.33,
          "vel": 127,
          "clef": "bass",
          "pitch": "A4"
        },
        {
          "midi": 88,
          "beat": 3,
          "dur": 0.25,
          "vel": 127,
          "clef": "treble",
          "pitch": "E6"
        },
        {
          "midi": 87,
          "beat": 3.25,
          "dur": 0.25,
          "vel": 127,
          "clef": "treble",
          "pitch": "D#6"
        },
        {
          "midi": 63,
          "beat": 3.33,
          "dur": 0.33,
          "vel": 127,
          "clef": "bass",
          "pitch": "D#4"
        },
        {
          "midi": 90,
          "beat": 3.5,
          "dur": 0.25,
          "vel": 127,
          "clef": "treble",
          "pitch": "F#6"
        },
        {
          "midi": 61,
          "beat": 3.67,
          "dur": 0.33,
          "vel": 127,
          "clef": "bass",
          "pitch": "C#4"
        },
        {
          "midi": 85,
          "beat": 3.75,
          "dur": 0.25,
          "vel": 127,
          "clef": "treble",
          "pitch": "C#6"
        }
      ]
    },
    {
      "_": "Treble: 16 notes, Bass: 12 notes",
      "number": 105,
      "notes": [
        {
          "midi": 44,
          "beat": 0,
          "dur": 0.33,
          "vel": 127,
          "clef": "bass",
          "pitch": "G#2"
        },
        {
          "midi": 84,
          "beat": 0,
          "dur": 0.25,
          "vel": 127,
          "clef": "treble",
          "pitch": "C6"
        },
        {
          "midi": 87,
          "beat": 0.25,
          "dur": 0.25,
          "vel": 127,
          "clef": "treble",
          "pitch": "D#6"
        },
        {
          "midi": 51,
          "beat": 0.33,
          "dur": 0.33,
          "vel": 127,
          "clef": "bass",
          "pitch": "D#3"
        },
        {
          "midi": 81,
          "beat": 0.5,
          "dur": 0.25,
          "vel": 127,
          "clef": "treble",
          "pitch": "A5"
        },
        {
          "midi": 54,
          "beat": 0.67,
          "dur": 0.33,
          "vel": 127,
          "clef": "bass",
          "pitch": "F#3"
        },
        {
          "midi": 80,
          "beat": 0.75,
          "dur": 0.25,
          "vel": 127,
          "clef": "treble",
          "pitch": "G#5"
        },
        {
          "midi": 60,
          "beat": 1,
          "dur": 0.33,
          "vel": 127,
          "clef": "bass",
          "pitch": "C4"
        },
        {
          "midi": 78,
          "beat": 1,
          "dur": 0.25,
          "vel": 127,
          "clef": "treble",
          "pitch": "F#5"
        },
        {
          "midi": 81,
          "beat": 1.25,
          "dur": 0.25,
          "vel": 127,
          "clef": "treble",
          "pitch": "A5"
        },
        {
          "midi": 54,
          "beat": 1.33,
          "dur": 0.33,
          "vel": 127,
          "clef": "bass",
          "pitch": "F#3"
        },
        {
          "midi": 76,
          "beat": 1.5,
          "dur": 0.25,
          "vel": 127,
          "clef": "treble",
          "pitch": "E5"
        },
        {
          "midi": 51,
          "beat": 1.67,
          "dur": 0.33,
          "vel": 127,
          "clef": "bass",
          "pitch": "D#3"
        },
        {
          "midi": 75,
          "beat": 1.75,
          "dur": 0.25,
          "vel": 127,
          "clef": "treble",
          "pitch": "D#5"
        },
        {
          "midi": 44,
          "beat": 2,
          "dur": 0.33,
          "vel": 127,
          "clef": "bass",
          "pitch": "G#2"
        },
        {
          "midi": 78,
          "beat": 2,
          "dur": 0.25,
          "vel": 127,
          "clef": "treble",
          "pitch": "F#5"
        },
        {
          "midi": 73,
          "beat": 2.25,
          "dur": 0.25,
          "vel": 127,
          "clef": "treble",
          "pitch": "C#5"
        },
        {
          "midi": 51,
          "beat": 2.33,
          "dur": 0.33,
          "vel": 127,
          "clef": "bass",
          "pitch": "D#3"
        },
        {
          "midi": 72,
          "beat": 2.5,
          "dur": 0.25,
          "vel": 127,
          "clef": "treble",
          "pitch": "C5"
        },
        {
          "midi": 54,
          "beat": 2.67,
          "dur": 0.33,
          "vel": 127,
          "clef": "bass",
          "pitch": "F#3"
        },
        {
          "midi": 75,
          "beat": 2.75,
          "dur": 0.25,
          "vel": 127,
          "clef": "treble",
          "pitch": "D#5"
        },
        {
          "midi": 60,
          "beat": 3,
          "dur": 0.33,
          "vel": 127,
          "clef": "bass",
          "pitch": "C4"
        },
        {
          "midi": 69,
          "beat": 3,
          "dur": 0.25,
          "vel": 127,
          "clef": "treble",
          "pitch": "A4"
        },
        {
          "midi": 68,
          "beat": 3.25,
          "dur": 0.25,
          "vel": 127,
          "clef": "treble",
          "pitch": "G#4"
        },
        {
          "midi": 54,
          "beat": 3.33,
          "dur": 0.33,
          "vel": 127,
          "clef": "bass",
          "pitch": "F#3"
        },
        {
          "midi": 71,
          "beat": 3.5,
          "dur": 0.25,
          "vel": 127,
          "clef": "treble",
          "pitch": "B4"
        },
        {
          "midi": 51,
          "beat": 3.67,
          "dur": 0.33,
          "vel": 127,
          "clef": "bass",
          "pitch": "D#3"
        },
        {
          "midi": 69,
          "beat": 3.75,
          "dur": 0.25,
          "vel": 127,
          "clef": "treble",
          "pitch": "A4"
        }
      ]
    },
    {
      "_": "Treble: 15 notes, Bass: 12 notes",
      "number": 106,
      "notes": [
        {
          "midi": 49,
          "beat": 0,
          "dur": 0.33,
          "vel": 127,
          "clef": "bass",
          "pitch": "C#3"
        },
        {
          "midi": 68,
          "beat": 0.25,
          "dur": 0.25,
          "vel": 127,
          "clef": "treble",
          "pitch": "G#4"
        },
        {
          "midi": 56,
          "beat": 0.33,
          "dur": 0.33,
          "vel": 127,
          "clef": "bass",
          "pitch": "G#3"
        },
        {
          "midi": 69,
          "beat": 0.5,
          "dur": 0.25,
          "vel": 127,
          "clef": "treble",
          "pitch": "A4"
        },
        {
          "midi": 61,
          "beat": 0.67,
          "dur": 0.33,
          "vel": 127,
          "clef": "bass",
          "pitch": "C#4"
        },
        {
          "midi": 68,
          "beat": 0.75,
          "dur": 0.25,
          "vel": 127,
          "clef": "treble",
          "pitch": "G#4"
        },
        {
          "midi": 64,
          "beat": 1,
          "dur": 0.33,
          "vel": 127,
          "clef": "bass",
          "pitch": "E4"
        },
        {
          "midi": 67,
          "beat": 1,
          "dur": 0.25,
          "vel": 127,
          "clef": "treble",
          "pitch": "G4"
        },
        {
          "midi": 68,
          "beat": 1.25,
          "dur": 0.25,
          "vel": 127,
          "clef": "treble",
          "pitch": "G#4"
        },
        {
          "midi": 61,
          "beat": 1.33,
          "dur": 0.33,
          "vel": 127,
          "clef": "bass",
          "pitch": "C#4"
        },
        {
          "midi": 73,
          "beat": 1.5,
          "dur": 0.25,
          "vel": 127,
          "clef": "treble",
          "pitch": "C#5"
        },
        {
          "midi": 56,
          "beat": 1.67,
          "dur": 0.33,
          "vel": 127,
          "clef": "bass",
          "pitch": "G#3"
        },
        {
          "midi": 76,
          "beat": 1.75,
          "dur": 0.25,
          "vel": 127,
          "clef": "treble",
          "pitch": "E5"
        },
        {
          "midi": 52,
          "beat": 2,
          "dur": 0.33,
          "vel": 127,
          "clef": "bass",
          "pitch": "E3"
        },
        {
          "midi": 75,
          "beat": 2,
          "dur": 0.25,
          "vel": 127,
          "clef": "treble",
          "pitch": "D#5"
        },
        {
          "midi": 73,
          "beat": 2.25,
          "dur": 0.25,
          "vel": 127,
          "clef": "treble",
          "pitch": "C#5"
        },
        {
          "midi": 56,
          "beat": 2.33,
          "dur": 0.33,
          "vel": 127,
          "clef": "bass",
          "pitch": "G#3"
        },
        {
          "midi": 75,
          "beat": 2.5,
          "dur": 0.25,
          "vel": 127,
          "clef": "treble",
          "pitch": "D#5"
        },
        {
          "midi": 61,
          "beat": 2.67,
          "dur": 0.33,
          "vel": 127,
          "clef": "bass",
          "pitch": "C#4"
        },
        {
          "midi": 73,
          "beat": 2.75,
          "dur": 0.25,
          "vel": 127,
          "clef": "treble",
          "pitch": "C#5"
        },
        {
          "midi": 64,
          "beat": 3,
          "dur": 0.33,
          "vel": 127,
          "clef": "bass",
          "pitch": "E4"
        },
        {
          "midi": 72,
          "beat": 3,
          "dur": 0.25,
          "vel": 127,
          "clef": "treble",
          "pitch": "C5"
        },
        {
          "midi": 73,
          "beat": 3.25,
          "dur": 0.25,
          "vel": 127,
          "clef": "treble",
          "pitch": "C#5"
        },
        {
          "midi": 61,
          "beat": 3.33,
          "dur": 0.33,
          "vel": 127,
          "clef": "bass",
          "pitch": "C#4"
        },
        {
          "midi": 76,
          "beat": 3.5,
          "dur": 0.25,
          "vel": 127,
          "clef": "treble",
          "pitch": "E5"
        },
        {
          "midi": 56,
          "beat": 3.67,
          "dur": 0.33,
          "vel": 127,
          "clef": "bass",
          "pitch": "G#3"
        },
        {
          "midi": 80,
          "beat": 3.75,
          "dur": 0.25,
          "vel": 127,
          "clef": "treble",
          "pitch": "G#5"
        }
      ]
    },
    {
      "_": "Treble: 16 notes, Bass: 12 notes",
      "number": 107,
      "notes": [
        {
          "midi": 54,
          "beat": 0,
          "dur": 0.33,
          "vel": 127,
          "clef": "bass",
          "pitch": "F#3"
        },
        {
          "midi": 76,
          "beat": 0,
          "dur": 0.25,
          "vel": 127,
          "clef": "treble",
          "pitch": "E5"
        },
        {
          "midi": 75,
          "beat": 0.25,
          "dur": 0.25,
          "vel": 127,
          "clef": "treble",
          "pitch": "D#5"
        },
        {
          "midi": 61,
          "beat": 0.33,
          "dur": 0.33,
          "vel": 127,
          "clef": "bass",
          "pitch": "C#4"
        },
        {
          "midi": 76,
          "beat": 0.5,
          "dur": 0.25,
          "vel": 127,
          "clef": "treble",
          "pitch": "E5"
        },
        {
          "midi": 63,
          "beat": 0.67,
          "dur": 0.33,
          "vel": 127,
          "clef": "bass",
          "pitch": "D#4"
        },
        {
          "midi": 75,
          "beat": 0.75,
          "dur": 0.25,
          "vel": 127,
          "clef": "treble",
          "pitch": "D#5"
        },
        {
          "midi": 69,
          "beat": 1,
          "dur": 0.33,
          "vel": 127,
          "clef": "bass",
          "pitch": "A4"
        },
        {
          "midi": 74,
          "beat": 1,
          "dur": 0.25,
          "vel": 127,
          "clef": "treble",
          "pitch": "D5"
        },
        {
          "midi": 75,
          "beat": 1.25,
          "dur": 0.25,
          "vel": 127,
          "clef": "treble",
          "pitch": "D#5"
        },
        {
          "midi": 63,
          "beat": 1.33,
          "dur": 0.33,
          "vel": 127,
          "clef": "bass",
          "pitch": "D#4"
        },
        {
          "midi": 78,
          "beat": 1.5,
          "dur": 0.25,
          "vel": 127,
          "clef": "treble",
          "pitch": "F#5"
        },
        {
          "midi": 61,
          "beat": 1.67,
          "dur": 0.33,
          "vel": 127,
          "clef": "bass",
          "pitch": "C#4"
        },
        {
          "midi": 81,
          "beat": 1.75,
          "dur": 0.25,
          "vel": 127,
          "clef": "treble",
          "pitch": "A5"
        },
        {
          "midi": 56,
          "beat": 2,
          "dur": 0.33,
          "vel": 127,
          "clef": "bass",
          "pitch": "G#3"
        },
        {
          "midi": 78,
          "beat": 2,
          "dur": 0.25,
          "vel": 127,
          "clef": "treble",
          "pitch": "F#5"
        },
        {
          "midi": 77,
          "beat": 2.25,
          "dur": 0.25,
          "vel": 127,
          "clef": "treble",
          "pitch": "F5"
        },
        {
          "midi": 61,
          "beat": 2.33,
          "dur": 0.33,
          "vel": 127,
          "clef": "bass",
          "pitch": "C#4"
        },
        {
          "midi": 78,
          "beat": 2.5,
          "dur": 0.25,
          "vel": 127,
          "clef": "treble",
          "pitch": "F#5"
        },
        {
          "midi": 65,
          "beat": 2.67,
          "dur": 0.33,
          "vel": 127,
          "clef": "bass",
          "pitch": "F4"
        },
        {
          "midi": 77,
          "beat": 2.75,
          "dur": 0.25,
          "vel": 127,
          "clef": "treble",
          "pitch": "F5"
        },
        {
          "midi": 71,
          "beat": 3,
          "dur": 0.33,
          "vel": 127,
          "clef": "bass",
          "pitch": "B4"
        },
        {
          "midi": 76,
          "beat": 3,
          "dur": 0.25,
          "vel": 127,
          "clef": "treble",
          "pitch": "E5"
        },
        {
          "midi": 77,
          "beat": 3.25,
          "dur": 0.25,
          "vel": 127,
          "clef": "treble",
          "pitch": "F5"
        },
        {
          "midi": 65,
          "beat": 3.33,
          "dur": 0.33,
          "vel": 127,
          "clef": "bass",
          "pitch": "F4"
        },
        {
          "midi": 80,
          "beat": 3.5,
          "dur": 0.25,
          "vel": 127,
          "clef": "treble",
          "pitch": "G#5"
        },
        {
          "midi": 61,
          "beat": 3.67,
          "dur": 0.33,
          "vel": 127,
          "clef": "bass",
          "pitch": "C#4"
        },
        {
          "midi": 85,
          "beat": 3.75,
          "dur": 0.25,
          "vel": 127,
          "clef": "treble",
          "pitch": "C#6"
        }
      ]
    },
    {
      "_": "Treble: 15 notes, Bass: 12 notes",
      "number": 108,
      "notes": [
        {
          "midi": 57,
          "beat": 0,
          "dur": 0.33,
          "vel": 127,
          "clef": "bass",
          "pitch": "A3"
        },
        {
          "midi": 73,
          "beat": 0.25,
          "dur": 0.25,
          "vel": 127,
          "clef": "treble",
          "pitch": "C#5"
        },
        {
          "midi": 61,
          "beat": 0.33,
          "dur": 0.33,
          "vel": 127,
          "clef": "bass",
          "pitch": "C#4"
        },
        {
          "midi": 74,
          "beat": 0.5,
          "dur": 0.25,
          "vel": 127,
          "clef": "treble",
          "pitch": "D5"
        },
        {
          "midi": 66,
          "beat": 0.67,
          "dur": 0.33,
          "vel": 127,
          "clef": "bass",
          "pitch": "F#4"
        },
        {
          "midi": 73,
          "beat": 0.75,
          "dur": 0.25,
          "vel": 127,
          "clef": "treble",
          "pitch": "C#5"
        },
        {
          "midi": 69,
          "beat": 1,
          "dur": 0.33,
          "vel": 127,
          "clef": "bass",
          "pitch": "A4"
        },
        {
          "midi": 72,
          "beat": 1,
          "dur": 0.25,
          "vel": 127,
          "clef": "treble",
          "pitch": "C5"
        },
        {
          "midi": 73,
          "beat": 1.25,
          "dur": 0.25,
          "vel": 127,
          "clef": "treble",
          "pitch": "C#5"
        },
        {
          "midi": 66,
          "beat": 1.33,
          "dur": 0.33,
          "vel": 127,
          "clef": "bass",
          "pitch": "F#4"
        },
        {
          "midi": 78,
          "beat": 1.5,
          "dur": 0.25,
          "vel": 127,
          "clef": "treble",
          "pitch": "F#5"
        },
        {
          "midi": 61,
          "beat": 1.67,
          "dur": 0.33,
          "vel": 127,
          "clef": "bass",
          "pitch": "C#4"
        },
        {
          "midi": 81,
          "beat": 1.75,
          "dur": 0.25,
          "vel": 127,
          "clef": "treble",
          "pitch": "A5"
        },
        {
          "midi": 56,
          "beat": 2,
          "dur": 0.33,
          "vel": 127,
          "clef": "bass",
          "pitch": "G#3"
        },
        {
          "midi": 78,
          "beat": 2,
          "dur": 0.25,
          "vel": 127,
          "clef": "treble",
          "pitch": "F#5"
        },
        {
          "midi": 77,
          "beat": 2.25,
          "dur": 0.25,
          "vel": 127,
          "clef": "treble",
          "pitch": "F5"
        },
        {
          "midi": 61,
          "beat": 2.33,
          "dur": 0.33,
          "vel": 127,
          "clef": "bass",
          "pitch": "C#4"
        },
        {
          "midi": 78,
          "beat": 2.5,
          "dur": 0.25,
          "vel": 127,
          "clef": "treble",
          "pitch": "F#5"
        },
        {
          "midi": 65,
          "beat": 2.67,
          "dur": 0.33,
          "vel": 127,
          "clef": "bass",
          "pitch": "F4"
        },
        {
          "midi": 77,
          "beat": 2.75,
          "dur": 0.25,
          "vel": 127,
          "clef": "treble",
          "pitch": "F5"
        },
        {
          "midi": 71,
          "beat": 3,
          "dur": 0.33,
          "vel": 127,
          "clef": "bass",
          "pitch": "B4"
        },
        {
          "midi": 76,
          "beat": 3,
          "dur": 0.25,
          "vel": 127,
          "clef": "treble",
          "pitch": "E5"
        },
        {
          "midi": 77,
          "beat": 3.25,
          "dur": 0.25,
          "vel": 127,
          "clef": "treble",
          "pitch": "F5"
        },
        {
          "midi": 65,
          "beat": 3.33,
          "dur": 0.33,
          "vel": 127,
          "clef": "bass",
          "pitch": "F4"
        },
        {
          "midi": 80,
          "beat": 3.5,
          "dur": 0.25,
          "vel": 127,
          "clef": "treble",
          "pitch": "G#5"
        },
        {
          "midi": 61,
          "beat": 3.67,
          "dur": 0.33,
          "vel": 127,
          "clef": "bass",
          "pitch": "C#4"
        },
        {
          "midi": 85,
          "beat": 3.75,
          "dur": 0.25,
          "vel": 127,
          "clef": "treble",
          "pitch": "C#6"
        }
      ]
    },
    {
      "_": "Treble: 16 notes, Bass: 12 notes",
      "number": 109,
      "notes": [
        {
          "midi": 57,
          "beat": 0,
          "dur": 0.33,
          "vel": 127,
          "clef": "bass",
          "pitch": "A3"
        },
        {
          "midi": 80,
          "beat": 0,
          "dur": 0.25,
          "vel": 127,
          "clef": "treble",
          "pitch": "G#5"
        },
        {
          "midi": 78,
          "beat": 0.25,
          "dur": 0.25,
          "vel": 127,
          "clef": "treble",
          "pitch": "F#5"
        },
        {
          "midi": 61,
          "beat": 0.33,
          "dur": 0.33,
          "vel": 127,
          "clef": "bass",
          "pitch": "C#4"
        },
        {
          "midi": 80,
          "beat": 0.5,
          "dur": 0.25,
          "vel": 127,
          "clef": "treble",
          "pitch": "G#5"
        },
        {
          "midi": 66,
          "beat": 0.67,
          "dur": 0.33,
          "vel": 127,
          "clef": "bass",
          "pitch": "F#4"
        },
        {
          "midi": 78,
          "beat": 0.75,
          "dur": 0.25,
          "vel": 127,
          "clef": "treble",
          "pitch": "F#5"
        },
        {
          "midi": 69,
          "beat": 1,
          "dur": 0.33,
          "vel": 127,
          "clef": "bass",
          "pitch": "A4"
        },
        {
          "midi": 77,
          "beat": 1,
          "dur": 0.25,
          "vel": 127,
          "clef": "treble",
          "pitch": "F5"
        },
        {
          "midi": 78,
          "beat": 1.25,
          "dur": 0.25,
          "vel": 127,
          "clef": "treble",
          "pitch": "F#5"
        },
        {
          "midi": 66,
          "beat": 1.33,
          "dur": 0.33,
          "vel": 127,
          "clef": "bass",
          "pitch": "F#4"
        },
        {
          "midi": 81,
          "beat": 1.5,
          "dur": 0.25,
          "vel": 127,
          "clef": "treble",
          "pitch": "A5"
        },
        {
          "midi": 61,
          "beat": 1.67,
          "dur": 0.33,
          "vel": 127,
          "clef": "bass",
          "pitch": "C#4"
        },
        {
          "midi": 85,
          "beat": 1.75,
          "dur": 0.25,
          "vel": 127,
          "clef": "treble",
          "pitch": "C#6"
        },
        {
          "midi": 48,
          "beat": 2,
          "dur": 0.33,
          "vel": 127,
          "clef": "bass",
          "pitch": "C3"
        },
        {
          "midi": 81,
          "beat": 2,
          "dur": 0.25,
          "vel": 127,
          "clef": "treble",
          "pitch": "A5"
        },
        {
          "midi": 80,
          "beat": 2.25,
          "dur": 0.25,
          "vel": 127,
          "clef": "treble",
          "pitch": "G#5"
        },
        {
          "midi": 54,
          "beat": 2.33,
          "dur": 0.33,
          "vel": 127,
          "clef": "bass",
          "pitch": "F#3"
        },
        {
          "midi": 81,
          "beat": 2.5,
          "dur": 0.25,
          "vel": 127,
          "clef": "treble",
          "pitch": "A5"
        },
        {
          "midi": 56,
          "beat": 2.67,
          "dur": 0.33,
          "vel": 127,
          "clef": "bass",
          "pitch": "G#3"
        },
        {
          "midi": 80,
          "beat": 2.75,
          "dur": 0.25,
          "vel": 127,
          "clef": "treble",
          "pitch": "G#5"
        },
        {
          "midi": 63,
          "beat": 3,
          "dur": 0.33,
          "vel": 127,
          "clef": "bass",
          "pitch": "D#4"
        },
        {
          "midi": 79,
          "beat": 3,
          "dur": 0.25,
          "vel": 127,
          "clef": "treble",
          "pitch": "G5"
        },
        {
          "midi": 80,
          "beat": 3.25,
          "dur": 0.25,
          "vel": 127,
          "clef": "treble",
          "pitch": "G#5"
        },
        {
          "midi": 56,
          "beat": 3.33,
          "dur": 0.33,
          "vel": 127,
          "clef": "bass",
          "pitch": "G#3"
        },
        {
          "midi": 84,
          "beat": 3.5,
          "dur": 0.25,
          "vel": 127,
          "clef": "treble",
          "pitch": "C6"
        },
        {
          "midi": 54,
          "beat": 3.67,
          "dur": 0.33,
          "vel": 127,
          "clef": "bass",
          "pitch": "F#3"
        },
        {
          "midi": 87,
          "beat": 3.75,
          "dur": 0.25,
          "vel": 127,
          "clef": "treble",
          "pitch": "D#6"
        }
      ]
    },
    {
      "_": "Treble: 16 notes, Bass: 12 notes",
      "number": 110,
      "notes": [
        {
          "midi": 49,
          "beat": 0,
          "dur": 0.33,
          "vel": 127,
          "clef": "bass",
          "pitch": "C#3"
        },
        {
          "midi": 80,
          "beat": 0,
          "dur": 0.25,
          "vel": 127,
          "clef": "treble",
          "pitch": "G#5"
        },
        {
          "midi": 81,
          "beat": 0.25,
          "dur": 0.25,
          "vel": 127,
          "clef": "treble",
          "pitch": "A5"
        },
        {
          "midi": 56,
          "beat": 0.33,
          "dur": 0.33,
          "vel": 127,
          "clef": "bass",
          "pitch": "G#3"
        },
        {
          "midi": 80,
          "beat": 0.5,
          "dur": 0.25,
          "vel": 127,
          "clef": "treble",
          "pitch": "G#5"
        },
        {
          "midi": 61,
          "beat": 0.67,
          "dur": 0.33,
          "vel": 127,
          "clef": "bass",
          "pitch": "C#4"
        },
        {
          "midi": 79,
          "beat": 0.75,
          "dur": 0.25,
          "vel": 127,
          "clef": "treble",
          "pitch": "G5"
        },
        {
          "midi": 64,
          "beat": 1,
          "dur": 0.33,
          "vel": 127,
          "clef": "bass",
          "pitch": "E4"
        },
        {
          "midi": 80,
          "beat": 1,
          "dur": 0.25,
          "vel": 127,
          "clef": "treble",
          "pitch": "G#5"
        },
        {
          "midi": 88,
          "beat": 1.25,
          "dur": 0.25,
          "vel": 127,
          "clef": "treble",
          "pitch": "E6"
        },
        {
          "midi": 61,
          "beat": 1.33,
          "dur": 0.33,
          "vel": 127,
          "clef": "bass",
          "pitch": "C#4"
        },
        {
          "midi": 87,
          "beat": 1.5,
          "dur": 0.25,
          "vel": 127,
          "clef": "treble",
          "pitch": "D#6"
        },
        {
          "midi": 56,
          "beat": 1.67,
          "dur": 0.33,
          "vel": 127,
          "clef": "bass",
          "pitch": "G#3"
        },
        {
          "midi": 86,
          "beat": 1.75,
          "dur": 0.25,
          "vel": 127,
          "clef": "treble",
          "pitch": "D6"
        },
        {
          "midi": 51,
          "beat": 2,
          "dur": 0.33,
          "vel": 127,
          "clef": "bass",
          "pitch": "D#3"
        },
        {
          "midi": 85,
          "beat": 2,
          "dur": 0.25,
          "vel": 127,
          "clef": "treble",
          "pitch": "C#6"
        },
        {
          "midi": 84,
          "beat": 2.25,
          "dur": 0.25,
          "vel": 127,
          "clef": "treble",
          "pitch": "C6"
        },
        {
          "midi": 56,
          "beat": 2.33,
          "dur": 0.33,
          "vel": 127,
          "clef": "bass",
          "pitch": "G#3"
        },
        {
          "midi": 83,
          "beat": 2.5,
          "dur": 0.25,
          "vel": 127,
          "clef": "treble",
          "pitch": "B5"
        },
        {
          "midi": 60,
          "beat": 2.67,
          "dur": 0.33,
          "vel": 127,
          "clef": "bass",
          "pitch": "C4"
        },
        {
          "midi": 82,
          "beat": 2.75,
          "dur": 0.25,
          "vel": 127,
          "clef": "treble",
          "acc": "#",
          "pitch": "A#5"
        },
        {
          "midi": 66,
          "beat": 3,
          "dur": 0.33,
          "vel": 127,
          "clef": "bass",
          "pitch": "F#4"
        },
        {
          "midi": 81,
          "beat": 3,
          "dur": 0.25,
          "vel": 127,
          "clef": "treble",
          "pitch": "A5"
        },
        {
          "midi": 80,
          "beat": 3.25,
          "dur": 0.25,
          "vel": 127,
          "clef": "treble",
          "pitch": "G#5"
        },
        {
          "midi": 60,
          "beat": 3.33,
          "dur": 0.33,
          "vel": 127,
          "clef": "bass",
          "pitch": "C4"
        },
        {
          "midi": 79,
          "beat": 3.5,
          "dur": 0.25,
          "vel": 127,
          "clef": "treble",
          "pitch": "G5"
        },
        {
          "midi": 56,
          "beat": 3.67,
          "dur": 0.33,
          "vel": 127,
          "clef": "bass",
          "pitch": "G#3"
        },
        {
          "midi": 78,
          "beat": 3.75,
          "dur": 0.25,
          "vel": 127,
          "clef": "treble",
          "pitch": "F#5"
        }
      ]
    },
    {
      "_": "Treble: 16 notes, Bass: 12 notes",
      "number": 111,
      "notes": [
        {
          "midi": 49,
          "beat": 0,
          "dur": 0.33,
          "vel": 127,
          "clef": "bass",
          "pitch": "C#3"
        },
        {
          "midi": 76,
          "beat": 0,
          "dur": 0.25,
          "vel": 127,
          "clef": "treble",
          "pitch": "E5"
        },
        {
          "midi": 78,
          "beat": 0.25,
          "dur": 0.25,
          "vel": 127,
          "clef": "treble",
          "pitch": "F#5"
        },
        {
          "midi": 56,
          "beat": 0.33,
          "dur": 0.33,
          "vel": 127,
          "clef": "bass",
          "pitch": "G#3"
        },
        {
          "midi": 76,
          "beat": 0.5,
          "dur": 0.25,
          "vel": 127,
          "clef": "treble",
          "pitch": "E5"
        },
        {
          "midi": 61,
          "beat": 0.67,
          "dur": 0.33,
          "vel": 127,
          "clef": "bass",
          "pitch": "C#4"
        },
        {
          "midi": 75,
          "beat": 0.75,
          "dur": 0.25,
          "vel": 127,
          "clef": "treble",
          "pitch": "D#5"
        },
        {
          "midi": 64,
          "beat": 1,
          "dur": 0.33,
          "vel": 127,
          "clef": "bass",
          "pitch": "E4"
        },
        {
          "midi": 76,
          "beat": 1,
          "dur": 0.25,
          "vel": 127,
          "clef": "treble",
          "pitch": "E5"
        },
        {
          "midi": 88,
          "beat": 1.25,
          "dur": 0.25,
          "vel": 127,
          "clef": "treble",
          "pitch": "E6"
        },
        {
          "midi": 61,
          "beat": 1.33,
          "dur": 0.33,
          "vel": 127,
          "clef": "bass",
          "pitch": "C#4"
        },
        {
          "midi": 87,
          "beat": 1.5,
          "dur": 0.25,
          "vel": 127,
          "clef": "treble",
          "pitch": "D#6"
        },
        {
          "midi": 56,
          "beat": 1.67,
          "dur": 0.33,
          "vel": 127,
          "clef": "bass",
          "pitch": "G#3"
        },
        {
          "midi": 86,
          "beat": 1.75,
          "dur": 0.25,
          "vel": 127,
          "clef": "treble",
          "pitch": "D6"
        },
        {
          "midi": 54,
          "beat": 2,
          "dur": 0.33,
          "vel": 127,
          "clef": "bass",
          "pitch": "F#3"
        },
        {
          "midi": 85,
          "beat": 2,
          "dur": 0.25,
          "vel": 127,
          "clef": "treble",
          "pitch": "C#6"
        },
        {
          "midi": 84,
          "beat": 2.25,
          "dur": 0.25,
          "vel": 127,
          "clef": "treble",
          "pitch": "C6"
        },
        {
          "midi": 61,
          "beat": 2.33,
          "dur": 0.33,
          "vel": 127,
          "clef": "bass",
          "pitch": "C#4"
        },
        {
          "midi": 83,
          "beat": 2.5,
          "dur": 0.25,
          "vel": 127,
          "clef": "treble",
          "pitch": "B5"
        },
        {
          "midi": 63,
          "beat": 2.67,
          "dur": 0.33,
          "vel": 127,
          "clef": "bass",
          "pitch": "D#4"
        },
        {
          "midi": 82,
          "beat": 2.75,
          "dur": 0.25,
          "vel": 127,
          "clef": "treble",
          "acc": "#",
          "pitch": "A#5"
        },
        {
          "midi": 69,
          "beat": 3,
          "dur": 0.33,
          "vel": 127,
          "clef": "bass",
          "pitch": "A4"
        },
        {
          "midi": 81,
          "beat": 3,
          "dur": 0.25,
          "vel": 127,
          "clef": "treble",
          "pitch": "A5"
        },
        {
          "midi": 80,
          "beat": 3.25,
          "dur": 0.25,
          "vel": 127,
          "clef": "treble",
          "pitch": "G#5"
        },
        {
          "midi": 63,
          "beat": 3.33,
          "dur": 0.33,
          "vel": 127,
          "clef": "bass",
          "pitch": "D#4"
        },
        {
          "midi": 79,
          "beat": 3.5,
          "dur": 0.25,
          "vel": 127,
          "clef": "treble",
          "pitch": "G5"
        },
        {
          "midi": 61,
          "beat": 3.67,
          "dur": 0.33,
          "vel": 127,
          "clef": "bass",
          "pitch": "C#4"
        },
        {
          "midi": 78,
          "beat": 3.75,
          "dur": 0.25,
          "vel": 127,
          "clef": "treble",
          "pitch": "F#5"
        }
      ]
    },
    {
      "_": "Treble: 15 notes, Bass: 8 notes",
      "number": 112,
      "notes": [
        {
          "midi": 56,
          "beat": 0,
          "dur": 0.5,
          "vel": 127,
          "clef": "bass",
          "pitch": "G#3"
        },
        {
          "midi": 61,
          "beat": 0,
          "dur": 0.5,
          "vel": 127,
          "clef": "bass",
          "pitch": "C#4"
        },
        {
          "midi": 64,
          "beat": 0,
          "dur": 0.5,
          "vel": 127,
          "clef": "bass",
          "pitch": "E4"
        },
        {
          "midi": 68,
          "beat": 0,
          "dur": 0.5,
          "vel": 127,
          "clef": "bass",
          "pitch": "G#4"
        },
        {
          "midi": 80,
          "beat": 0,
          "dur": 0.25,
          "vel": 127,
          "clef": "treble",
          "pitch": "G#5"
        },
        {
          "midi": 92,
          "beat": 0.5,
          "dur": 0.25,
          "vel": 127,
          "clef": "treble",
          "pitch": "G#6"
        },
        {
          "midi": 91,
          "beat": 0.75,
          "dur": 0.25,
          "vel": 127,
          "clef": "treble",
          "pitch": "G6"
        },
        {
          "midi": 90,
          "beat": 1,
          "dur": 0.25,
          "vel": 127,
          "clef": "treble",
          "pitch": "F#6"
        },
        {
          "midi": 89,
          "beat": 1.25,
          "dur": 0.25,
          "vel": 127,
          "clef": "treble",
          "pitch": "F6"
        },
        {
          "midi": 88,
          "beat": 1.5,
          "dur": 0.25,
          "vel": 127,
          "clef": "treble",
          "pitch": "E6"
        },
        {
          "midi": 87,
          "beat": 1.75,
          "dur": 0.25,
          "vel": 127,
          "clef": "treble",
          "pitch": "D#6"
        },
        {
          "midi": 55,
          "beat": 2,
          "dur": 1,
          "vel": 127,
          "clef": "bass",
          "pitch": "G3"
        },
        {
          "midi": 61,
          "beat": 2,
          "dur": 1,
          "vel": 127,
          "clef": "bass",
          "pitch": "C#4"
        },
        {
          "midi": 64,
          "beat": 2,
          "dur": 1,
          "vel": 127,
          "clef": "bass",
          "pitch": "E4"
        },
        {
          "midi": 69,
          "beat": 2,
          "dur": 1,
          "vel": 127,
          "clef": "bass",
          "pitch": "A4"
        },
        {
          "midi": 86,
          "beat": 2,
          "dur": 0.25,
          "vel": 127,
          "clef": "treble",
          "pitch": "D6"
        },
        {
          "midi": 85,
          "beat": 2.25,
          "dur": 0.25,
          "vel": 127,
          "clef": "treble",
          "pitch": "C#6"
        },
        {
          "midi": 84,
          "beat": 2.5,
          "dur": 0.25,
          "vel": 127,
          "clef": "treble",
          "pitch": "C6"
        },
        {
          "midi": 83,
          "beat": 2.75,
          "dur": 0.25,
          "vel": 127,
          "clef": "treble",
          "pitch": "B5"
        },
        {
          "midi": 82,
          "beat": 3,
          "dur": 0.25,
          "vel": 127,
          "clef": "treble",
          "acc": "#",
          "pitch": "A#5"
        },
        {
          "midi": 81,
          "beat": 3.25,
          "dur": 0.25,
          "vel": 127,
          "clef": "treble",
          "pitch": "A5"
        },
        {
          "midi": 80,
          "beat": 3.5,
          "dur": 0.25,
          "vel": 127,
          "clef": "treble",
          "pitch": "G#5"
        },
        {
          "midi": 79,
          "beat": 3.75,
          "dur": 0.25,
          "vel": 127,
          "clef": "treble",
          "pitch": "G5"
        }
      ]
    },
    {
      "_": "Treble: 16 notes, Bass: 0 notes",
      "number": 113,
      "notes": [
        {
          "midi": 78,
          "beat": 0,
          "dur": 0.25,
          "vel": 127,
          "clef": "treble",
          "pitch": "F#5"
        },
        {
          "midi": 77,
          "beat": 0.25,
          "dur": 0.25,
          "vel": 127,
          "clef": "treble",
          "pitch": "F5"
        },
        {
          "midi": 76,
          "beat": 0.5,
          "dur": 0.25,
          "vel": 127,
          "clef": "treble",
          "pitch": "E5"
        },
        {
          "midi": 75,
          "beat": 0.75,
          "dur": 0.25,
          "vel": 127,
          "clef": "treble",
          "pitch": "D#5"
        },
        {
          "midi": 74,
          "beat": 1,
          "dur": 0.25,
          "vel": 127,
          "clef": "treble",
          "pitch": "D5"
        },
        {
          "midi": 73,
          "beat": 1.25,
          "dur": 0.25,
          "vel": 127,
          "clef": "treble",
          "pitch": "C#5"
        },
        {
          "midi": 72,
          "beat": 1.5,
          "dur": 0.25,
          "vel": 127,
          "clef": "treble",
          "pitch": "C5"
        },
        {
          "midi": 71,
          "beat": 1.75,
          "dur": 0.25,
          "vel": 127,
          "clef": "treble",
          "pitch": "B4"
        },
        {
          "midi": 70,
          "beat": 2,
          "dur": 0.25,
          "vel": 127,
          "clef": "treble",
          "acc": "#",
          "pitch": "A#4"
        },
        {
          "midi": 69,
          "beat": 2.25,
          "dur": 0.25,
          "vel": 127,
          "clef": "treble",
          "pitch": "A4"
        },
        {
          "midi": 68,
          "beat": 2.5,
          "dur": 0.25,
          "vel": 127,
          "clef": "treble",
          "pitch": "G#4"
        },
        {
          "midi": 67,
          "beat": 2.75,
          "dur": 0.25,
          "vel": 127,
          "clef": "treble",
          "pitch": "G4"
        },
        {
          "midi": 66,
          "beat": 3,
          "dur": 0.25,
          "vel": 127,
          "clef": "treble",
          "pitch": "F#4"
        },
        {
          "midi": 64,
          "beat": 3.25,
          "dur": 0.25,
          "vel": 127,
          "clef": "treble",
          "pitch": "E4"
        },
        {
          "midi": 63,
          "beat": 3.5,
          "dur": 0.25,
          "vel": 127,
          "clef": "treble",
          "pitch": "D#4"
        },
        {
          "midi": 61,
          "beat": 3.75,
          "dur": 0.25,
          "vel": 127,
          "clef": "treble",
          "pitch": "C#4"
        }
      ]
    },
    {
      "_": "Treble: 13 notes, Bass: 8 notes",
      "number": 114,
      "notes": [
        {
          "midi": 32,
          "beat": 0,
          "dur": 0.5,
          "vel": 127,
          "clef": "bass",
          "pitch": "G#1"
        },
        {
          "midi": 44,
          "beat": 0,
          "dur": 0.5,
          "vel": 127,
          "clef": "bass",
          "pitch": "G#2"
        },
        {
          "midi": 56,
          "beat": 0,
          "dur": 0.5,
          "vel": 127,
          "clef": "treble",
          "pitch": "G#3"
        },
        {
          "midi": 64,
          "beat": 1,
          "dur": 1,
          "vel": 127,
          "clef": "bass",
          "pitch": "E4"
        },
        {
          "midi": 76,
          "beat": 1,
          "dur": 1,
          "vel": 127,
          "clef": "bass",
          "pitch": "E5"
        },
        {
          "midi": 93,
          "beat": 1,
          "dur": 0.25,
          "vel": 127,
          "clef": "treble",
          "pitch": "A6"
        },
        {
          "midi": 92,
          "beat": 1.25,
          "dur": 0.25,
          "vel": 127,
          "clef": "treble",
          "pitch": "G#6"
        },
        {
          "midi": 100,
          "beat": 1.5,
          "dur": 0.25,
          "vel": 127,
          "clef": "treble",
          "pitch": "E7"
        },
        {
          "midi": 88,
          "beat": 1.75,
          "dur": 0.25,
          "vel": 127,
          "clef": "treble",
          "pitch": "E6"
        },
        {
          "midi": 61,
          "beat": 2,
          "dur": 1,
          "vel": 127,
          "clef": "bass",
          "pitch": "C#4"
        },
        {
          "midi": 73,
          "beat": 2,
          "dur": 1,
          "vel": 127,
          "clef": "bass",
          "pitch": "C#5"
        },
        {
          "midi": 90,
          "beat": 2,
          "dur": 0.25,
          "vel": 127,
          "clef": "treble",
          "pitch": "F#6"
        },
        {
          "midi": 88,
          "beat": 2.25,
          "dur": 0.25,
          "vel": 127,
          "clef": "treble",
          "pitch": "E6"
        },
        {
          "midi": 97,
          "beat": 2.5,
          "dur": 0.25,
          "vel": 127,
          "clef": "treble",
          "pitch": "C#7"
        },
        {
          "midi": 85,
          "beat": 2.75,
          "dur": 0.25,
          "vel": 127,
          "clef": "treble",
          "pitch": "C#6"
        },
        {
          "midi": 56,
          "beat": 3,
          "dur": 1,
          "vel": 127,
          "clef": "bass",
          "pitch": "G#3"
        },
        {
          "midi": 68,
          "beat": 3,
          "dur": 1,
          "vel": 127,
          "clef": "bass",
          "pitch": "G#4"
        },
        {
          "midi": 87,
          "beat": 3,
          "dur": 0.25,
          "vel": 127,
          "clef": "treble",
          "pitch": "D#6"
        },
        {
          "midi": 85,
          "beat": 3.25,
          "dur": 0.25,
          "vel": 127,
          "clef": "treble",
          "pitch": "C#6"
        },
        {
          "midi": 92,
          "beat": 3.5,
          "dur": 0.25,
          "vel": 127,
          "clef": "treble",
          "pitch": "G#6"
        },
        {
          "midi": 80,
          "beat": 3.75,
          "dur": 0.25,
          "vel": 127,
          "clef": "treble",
          "pitch": "G#5"
        }
      ]
    },
    {
      "_": "Treble: 16 notes, Bass: 8 notes",
      "number": 115,
      "notes": [
        {
          "midi": 52,
          "beat": 0,
          "dur": 1,
          "vel": 127,
          "clef": "bass",
          "pitch": "E3"
        },
        {
          "midi": 64,
          "beat": 0,
          "dur": 1,
          "vel": 127,
          "clef": "bass",
          "pitch": "E4"
        },
        {
          "midi": 81,
          "beat": 0,
          "dur": 0.25,
          "vel": 127,
          "clef": "treble",
          "pitch": "A5"
        },
        {
          "midi": 80,
          "beat": 0.25,
          "dur": 0.25,
          "vel": 127,
          "clef": "treble",
          "pitch": "G#5"
        },
        {
          "midi": 88,
          "beat": 0.5,
          "dur": 0.25,
          "vel": 127,
          "clef": "treble",
          "pitch": "E6"
        },
        {
          "midi": 76,
          "beat": 0.75,
          "dur": 0.25,
          "vel": 127,
          "clef": "treble",
          "pitch": "E5"
        },
        {
          "midi": 49,
          "beat": 1,
          "dur": 1,
          "vel": 127,
          "clef": "bass",
          "pitch": "C#3"
        },
        {
          "midi": 61,
          "beat": 1,
          "dur": 1,
          "vel": 127,
          "clef": "bass",
          "pitch": "C#4"
        },
        {
          "midi": 78,
          "beat": 1,
          "dur": 0.25,
          "vel": 127,
          "clef": "treble",
          "pitch": "F#5"
        },
        {
          "midi": 76,
          "beat": 1.25,
          "dur": 0.25,
          "vel": 127,
          "clef": "treble",
          "pitch": "E5"
        },
        {
          "midi": 85,
          "beat": 1.5,
          "dur": 0.25,
          "vel": 127,
          "clef": "treble",
          "pitch": "C#6"
        },
        {
          "midi": 73,
          "beat": 1.75,
          "dur": 0.25,
          "vel": 127,
          "clef": "treble",
          "pitch": "C#5"
        },
        {
          "midi": 44,
          "beat": 2,
          "dur": 1,
          "vel": 127,
          "clef": "bass",
          "pitch": "G#2"
        },
        {
          "midi": 56,
          "beat": 2,
          "dur": 1,
          "vel": 127,
          "clef": "bass",
          "pitch": "G#3"
        },
        {
          "midi": 75,
          "beat": 2,
          "dur": 0.25,
          "vel": 127,
          "clef": "treble",
          "pitch": "D#5"
        },
        {
          "midi": 73,
          "beat": 2.25,
          "dur": 0.25,
          "vel": 127,
          "clef": "treble",
          "pitch": "C#5"
        },
        {
          "midi": 80,
          "beat": 2.5,
          "dur": 0.25,
          "vel": 127,
          "clef": "treble",
          "pitch": "G#5"
        },
        {
          "midi": 68,
          "beat": 2.75,
          "dur": 0.25,
          "vel": 127,
          "clef": "treble",
          "pitch": "G#4"
        },
        {
          "midi": 40,
          "beat": 3,
          "dur": 1,
          "vel": 127,
          "clef": "bass",
          "pitch": "E2"
        },
        {
          "midi": 52,
          "beat": 3,
          "dur": 1,
          "vel": 127,
          "clef": "bass",
          "pitch": "E3"
        },
        {
          "midi": 69,
          "beat": 3,
          "dur": 0.25,
          "vel": 127,
          "clef": "treble",
          "pitch": "A4"
        },
        {
          "midi": 68,
          "beat": 3.25,
          "dur": 0.25,
          "vel": 127,
          "clef": "treble",
          "pitch": "G#4"
        },
        {
          "midi": 76,
          "beat": 3.5,
          "dur": 0.25,
          "vel": 127,
          "clef": "treble",
          "pitch": "E5"
        },
        {
          "midi": 64,
          "beat": 3.75,
          "dur": 0.25,
          "vel": 127,
          "clef": "treble",
          "pitch": "E4"
        }
      ]
    },
    {
      "_": "Treble: 16 notes, Bass: 8 notes",
      "number": 116,
      "notes": [
        {
          "midi": 37,
          "beat": 0,
          "dur": 1,
          "vel": 127,
          "clef": "bass",
          "pitch": "C#2"
        },
        {
          "midi": 49,
          "beat": 0,
          "dur": 1,
          "vel": 127,
          "clef": "bass",
          "pitch": "C#3"
        },
        {
          "midi": 66,
          "beat": 0,
          "dur": 0.25,
          "vel": 127,
          "clef": "treble",
          "pitch": "F#4"
        },
        {
          "midi": 64,
          "beat": 0.25,
          "dur": 0.25,
          "vel": 127,
          "clef": "treble",
          "pitch": "E4"
        },
        {
          "midi": 73,
          "beat": 0.5,
          "dur": 0.25,
          "vel": 127,
          "clef": "treble",
          "pitch": "C#5"
        },
        {
          "midi": 61,
          "beat": 0.75,
          "dur": 0.25,
          "vel": 127,
          "clef": "treble",
          "pitch": "C#4"
        },
        {
          "midi": 32,
          "beat": 1,
          "dur": 1,
          "vel": 127,
          "clef": "bass",
          "pitch": "G#1"
        },
        {
          "midi": 44,
          "beat": 1,
          "dur": 1,
          "vel": 127,
          "clef": "bass",
          "pitch": "G#2"
        },
        {
          "midi": 63,
          "beat": 1,
          "dur": 0.25,
          "vel": 127,
          "clef": "treble",
          "pitch": "D#4"
        },
        {
          "midi": 61,
          "beat": 1.25,
          "dur": 0.25,
          "vel": 127,
          "clef": "treble",
          "pitch": "C#4"
        },
        {
          "midi": 68,
          "beat": 1.5,
          "dur": 0.25,
          "vel": 127,
          "clef": "treble",
          "pitch": "G#4"
        },
        {
          "midi": 56,
          "beat": 1.75,
          "dur": 0.25,
          "vel": 127,
          "clef": "treble",
          "pitch": "G#3"
        },
        {
          "midi": 32,
          "beat": 2,
          "dur": 1,
          "vel": 127,
          "clef": "bass",
          "pitch": "G#1"
        },
        {
          "midi": 44,
          "beat": 2,
          "dur": 1,
          "vel": 127,
          "clef": "bass",
          "pitch": "G#2"
        },
        {
          "midi": 63,
          "beat": 2,
          "dur": 0.25,
          "vel": 127,
          "clef": "treble",
          "pitch": "D#4"
        },
        {
          "midi": 61,
          "beat": 2.25,
          "dur": 0.25,
          "vel": 127,
          "clef": "treble",
          "pitch": "C#4"
        },
        {
          "midi": 68,
          "beat": 2.5,
          "dur": 0.25,
          "vel": 127,
          "clef": "treble",
          "pitch": "G#4"
        },
        {
          "midi": 56,
          "beat": 2.75,
          "dur": 0.25,
          "vel": 127,
          "clef": "treble",
          "pitch": "G#3"
        },
        {
          "midi": 33,
          "beat": 3,
          "dur": 1,
          "vel": 127,
          "clef": "bass",
          "pitch": "A1"
        },
        {
          "midi": 45,
          "beat": 3,
          "dur": 1,
          "vel": 127,
          "clef": "bass",
          "pitch": "A2"
        },
        {
          "midi": 63,
          "beat": 3,
          "dur": 0.25,
          "vel": 127,
          "clef": "treble",
          "pitch": "D#4"
        },
        {
          "midi": 61,
          "beat": 3.25,
          "dur": 0.25,
          "vel": 127,
          "clef": "treble",
          "pitch": "C#4"
        },
        {
          "midi": 69,
          "beat": 3.5,
          "dur": 0.25,
          "vel": 127,
          "clef": "treble",
          "pitch": "A4"
        },
        {
          "midi": 57,
          "beat": 3.75,
          "dur": 0.25,
          "vel": 127,
          "clef": "treble",
          "pitch": "A3"
        }
      ]
    },
    {
      "_": "Treble: 16 notes, Bass: 6 notes",
      "number": 117,
      "notes": [
        {
          "midi": 32,
          "beat": 0,
          "dur": 1,
          "vel": 127,
          "clef": "bass",
          "pitch": "G#1"
        },
        {
          "midi": 44,
          "beat": 0,
          "dur": 1,
          "vel": 127,
          "clef": "bass",
          "pitch": "G#2"
        },
        {
          "midi": 63,
          "beat": 0,
          "dur": 0.25,
          "vel": 127,
          "clef": "treble",
          "pitch": "D#4"
        },
        {
          "midi": 61,
          "beat": 0.25,
          "dur": 0.25,
          "vel": 127,
          "clef": "treble",
          "pitch": "C#4"
        },
        {
          "midi": 68,
          "beat": 0.5,
          "dur": 0.25,
          "vel": 127,
          "clef": "treble",
          "pitch": "G#4"
        },
        {
          "midi": 56,
          "beat": 0.75,
          "dur": 0.25,
          "vel": 127,
          "clef": "treble",
          "pitch": "G#3"
        },
        {
          "midi": 31,
          "beat": 1,
          "dur": 1,
          "vel": 127,
          "clef": "bass",
          "pitch": "G1"
        },
        {
          "midi": 43,
          "beat": 1,
          "dur": 1,
          "vel": 127,
          "clef": "bass",
          "pitch": "G2"
        },
        {
          "midi": 63,
          "beat": 1,
          "dur": 0.25,
          "vel": 127,
          "clef": "treble",
          "pitch": "D#4"
        },
        {
          "midi": 61,
          "beat": 1.25,
          "dur": 0.25,
          "vel": 127,
          "clef": "treble",
          "pitch": "C#4"
        },
        {
          "midi": 67,
          "beat": 1.5,
          "dur": 0.25,
          "vel": 127,
          "clef": "treble",
          "pitch": "G4"
        },
        {
          "midi": 55,
          "beat": 1.75,
          "dur": 0.25,
          "vel": 127,
          "clef": "treble",
          "pitch": "G3"
        },
        {
          "midi": 32,
          "beat": 2,
          "dur": 2,
          "vel": 127,
          "clef": "bass",
          "pitch": "G#1"
        },
        {
          "midi": 44,
          "beat": 2,
          "dur": 2,
          "vel": 127,
          "clef": "bass",
          "pitch": "G#2"
        },
        {
          "midi": 63,
          "beat": 2,
          "dur": 0.25,
          "vel": 127,
          "clef": "treble",
          "pitch": "D#4"
        },
        {
          "midi": 61,
          "beat": 2.25,
          "dur": 0.25,
          "vel": 127,
          "clef": "treble",
          "pitch": "C#4"
        },
        {
          "midi": 68,
          "beat": 2.5,
          "dur": 0.25,
          "vel": 127,
          "clef": "treble",
          "pitch": "G#4"
        },
        {
          "midi": 56,
          "beat": 2.75,
          "dur": 0.25,
          "vel": 127,
          "clef": "treble",
          "pitch": "G#3"
        },
        {
          "midi": 63,
          "beat": 3,
          "dur": 0.25,
          "vel": 127,
          "clef": "treble",
          "pitch": "D#4"
        },
        {
          "midi": 60,
          "beat": 3.25,
          "dur": 0.25,
          "vel": 127,
          "clef": "treble",
          "pitch": "C4"
        },
        {
          "midi": 68,
          "beat": 3.5,
          "dur": 0.25,
          "vel": 127,
          "clef": "treble",
          "pitch": "G#4"
        },
        {
          "midi": 56,
          "beat": 3.75,
          "dur": 0.25,
          "vel": 127,
          "clef": "treble",
          "pitch": "G#3"
        }
      ]
    },
    {
      "_": "Treble: 16 notes, Bass: 8 notes",
      "number": 118,
      "notes": [
        {
          "midi": 37,
          "beat": 0,
          "dur": 0.5,
          "vel": 127,
          "clef": "bass",
          "pitch": "C#2"
        },
        {
          "midi": 63,
          "beat": 0,
          "dur": 0.25,
          "vel": 127,
          "clef": "treble",
          "pitch": "D#4"
        },
        {
          "midi": 61,
          "beat": 0.25,
          "dur": 0.25,
          "vel": 127,
          "clef": "treble",
          "pitch": "C#4"
        },
        {
          "midi": 52,
          "beat": 0.5,
          "dur": 0.5,
          "vel": 127,
          "clef": "bass",
          "pitch": "E3"
        },
        {
          "midi": 68,
          "beat": 0.5,
          "dur": 0.25,
          "vel": 127,
          "clef": "treble",
          "pitch": "G#4"
        },
        {
          "midi": 56,
          "beat": 0.75,
          "dur": 0.25,
          "vel": 127,
          "clef": "treble",
          "pitch": "G#3"
        },
        {
          "midi": 49,
          "beat": 1,
          "dur": 0.5,
          "vel": 127,
          "clef": "bass",
          "pitch": "C#3"
        },
        {
          "midi": 69,
          "beat": 1,
          "dur": 0.25,
          "vel": 127,
          "clef": "treble",
          "pitch": "A4"
        },
        {
          "midi": 68,
          "beat": 1.25,
          "dur": 0.25,
          "vel": 127,
          "clef": "treble",
          "pitch": "G#4"
        },
        {
          "midi": 44,
          "beat": 1.5,
          "dur": 0.5,
          "vel": 127,
          "clef": "bass",
          "pitch": "G#2"
        },
        {
          "midi": 76,
          "beat": 1.5,
          "dur": 0.25,
          "vel": 127,
          "clef": "treble",
          "pitch": "E5"
        },
        {
          "midi": 64,
          "beat": 1.75,
          "dur": 0.25,
          "vel": 127,
          "clef": "treble",
          "pitch": "E4"
        },
        {
          "midi": 37,
          "beat": 2,
          "dur": 0.5,
          "vel": 127,
          "clef": "bass",
          "pitch": "C#2"
        },
        {
          "midi": 69,
          "beat": 2,
          "dur": 0.25,
          "vel": 127,
          "clef": "treble",
          "pitch": "A4"
        },
        {
          "midi": 68,
          "beat": 2.25,
          "dur": 0.25,
          "vel": 127,
          "clef": "treble",
          "pitch": "G#4"
        },
        {
          "midi": 54,
          "beat": 2.5,
          "dur": 0.5,
          "vel": 127,
          "clef": "bass",
          "pitch": "F#3"
        },
        {
          "midi": 76,
          "beat": 2.5,
          "dur": 0.25,
          "vel": 127,
          "clef": "treble",
          "pitch": "E5"
        },
        {
          "midi": 64,
          "beat": 2.75,
          "dur": 0.25,
          "vel": 127,
          "clef": "treble",
          "pitch": "E4"
        },
        {
          "midi": 48,
          "beat": 3,
          "dur": 0.5,
          "vel": 127,
          "clef": "bass",
          "pitch": "C3"
        },
        {
          "midi": 69,
          "beat": 3,
          "dur": 0.25,
          "vel": 127,
          "clef": "treble",
          "pitch": "A4"
        },
        {
          "midi": 68,
          "beat": 3.25,
          "dur": 0.25,
          "vel": 127,
          "clef": "treble",
          "pitch": "G#4"
        },
        {
          "midi": 44,
          "beat": 3.5,
          "dur": 0.5,
          "vel": 127,
          "clef": "bass",
          "pitch": "G#2"
        },
        {
          "midi": 75,
          "beat": 3.5,
          "dur": 0.25,
          "vel": 127,
          "clef": "treble",
          "pitch": "D#5"
        },
        {
          "midi": 63,
          "beat": 3.75,
          "dur": 0.25,
          "vel": 127,
          "clef": "treble",
          "pitch": "D#4"
        }
      ]
    },
    {
      "_": "Treble: 16 notes, Bass: 8 notes",
      "number": 119,
      "notes": [
        {
          "midi": 37,
          "beat": 0,
          "dur": 0.5,
          "vel": 127,
          "clef": "bass",
          "pitch": "C#2"
        },
        {
          "midi": 69,
          "beat": 0,
          "dur": 0.25,
          "vel": 127,
          "clef": "treble",
          "pitch": "A4"
        },
        {
          "midi": 68,
          "beat": 0.25,
          "dur": 0.25,
          "vel": 127,
          "clef": "treble",
          "pitch": "G#4"
        },
        {
          "midi": 52,
          "beat": 0.5,
          "dur": 0.5,
          "vel": 127,
          "clef": "bass",
          "pitch": "E3"
        },
        {
          "midi": 75,
          "beat": 0.5,
          "dur": 0.25,
          "vel": 127,
          "clef": "treble",
          "pitch": "D#5"
        },
        {
          "midi": 63,
          "beat": 0.75,
          "dur": 0.25,
          "vel": 127,
          "clef": "treble",
          "pitch": "D#4"
        },
        {
          "midi": 49,
          "beat": 1,
          "dur": 0.5,
          "vel": 127,
          "clef": "bass",
          "pitch": "C#3"
        },
        {
          "midi": 69,
          "beat": 1,
          "dur": 0.25,
          "vel": 127,
          "clef": "treble",
          "pitch": "A4"
        },
        {
          "midi": 68,
          "beat": 1.25,
          "dur": 0.25,
          "vel": 127,
          "clef": "treble",
          "pitch": "G#4"
        },
        {
          "midi": 44,
          "beat": 1.5,
          "dur": 0.5,
          "vel": 127,
          "clef": "bass",
          "pitch": "G#2"
        },
        {
          "midi": 73,
          "beat": 1.5,
          "dur": 0.25,
          "vel": 127,
          "clef": "treble",
          "pitch": "C#5"
        },
        {
          "midi": 61,
          "beat": 1.75,
          "dur": 0.25,
          "vel": 127,
          "clef": "treble",
          "pitch": "C#4"
        },
        {
          "midi": 37,
          "beat": 2,
          "dur": 0.5,
          "vel": 127,
          "clef": "bass",
          "pitch": "C#2"
        },
        {
          "midi": 64,
          "beat": 2,
          "dur": 0.25,
          "vel": 127,
          "clef": "treble",
          "pitch": "E4"
        },
        {
          "midi": 63,
          "beat": 2.25,
          "dur": 0.25,
          "vel": 127,
          "clef": "treble",
          "pitch": "D#4"
        },
        {
          "midi": 54,
          "beat": 2.5,
          "dur": 0.5,
          "vel": 127,
          "clef": "bass",
          "pitch": "F#3"
        },
        {
          "midi": 68,
          "beat": 2.5,
          "dur": 0.25,
          "vel": 127,
          "clef": "treble",
          "pitch": "G#4"
        },
        {
          "midi": 56,
          "beat": 2.75,
          "dur": 0.25,
          "vel": 127,
          "clef": "treble",
          "pitch": "G#3"
        },
        {
          "midi": 48,
          "beat": 3,
          "dur": 0.5,
          "vel": 127,
          "clef": "bass",
          "pitch": "C3"
        },
        {
          "midi": 64,
          "beat": 3,
          "dur": 0.25,
          "vel": 127,
          "clef": "treble",
          "pitch": "E4"
        },
        {
          "midi": 63,
          "beat": 3.25,
          "dur": 0.25,
          "vel": 127,
          "clef": "treble",
          "pitch": "D#4"
        },
        {
          "midi": 44,
          "beat": 3.5,
          "dur": 0.5,
          "vel": 127,
          "clef": "bass",
          "pitch": "G#2"
        },
        {
          "midi": 68,
          "beat": 3.5,
          "dur": 0.25,
          "vel": 127,
          "clef": "treble",
          "pitch": "G#4"
        },
        {
          "midi": 56,
          "beat": 3.75,
          "dur": 0.25,
          "vel": 127,
          "clef": "treble",
          "pitch": "G#3"
        }
      ]
    },
    {
      "_": "Treble: 16 notes, Bass: 8 notes",
      "number": 120,
      "notes": [
        {
          "midi": 37,
          "beat": 0,
          "dur": 0.5,
          "vel": 127,
          "clef": "bass",
          "pitch": "C#2"
        },
        {
          "midi": 63,
          "beat": 0,
          "dur": 0.25,
          "vel": 127,
          "clef": "treble",
          "pitch": "D#4"
        },
        {
          "midi": 61,
          "beat": 0.25,
          "dur": 0.25,
          "vel": 127,
          "clef": "treble",
          "pitch": "C#4"
        },
        {
          "midi": 52,
          "beat": 0.5,
          "dur": 0.5,
          "vel": 127,
          "clef": "bass",
          "pitch": "E3"
        },
        {
          "midi": 68,
          "beat": 0.5,
          "dur": 0.25,
          "vel": 127,
          "clef": "treble",
          "pitch": "G#4"
        },
        {
          "midi": 56,
          "beat": 0.75,
          "dur": 0.25,
          "vel": 127,
          "clef": "treble",
          "pitch": "G#3"
        },
        {
          "midi": 49,
          "beat": 1,
          "dur": 0.5,
          "vel": 127,
          "clef": "bass",
          "pitch": "C#3"
        },
        {
          "midi": 69,
          "beat": 1,
          "dur": 0.25,
          "vel": 127,
          "clef": "treble",
          "pitch": "A4"
        },
        {
          "midi": 68,
          "beat": 1.25,
          "dur": 0.25,
          "vel": 127,
          "clef": "treble",
          "pitch": "G#4"
        },
        {
          "midi": 44,
          "beat": 1.5,
          "dur": 0.5,
          "vel": 127,
          "clef": "bass",
          "pitch": "G#2"
        },
        {
          "midi": 76,
          "beat": 1.5,
          "dur": 0.25,
          "vel": 127,
          "clef": "treble",
          "pitch": "E5"
        },
        {
          "midi": 64,
          "beat": 1.75,
          "dur": 0.25,
          "vel": 127,
          "clef": "treble",
          "pitch": "E4"
        },
        {
          "midi": 37,
          "beat": 2,
          "dur": 0.5,
          "vel": 127,
          "clef": "bass",
          "pitch": "C#2"
        },
        {
          "midi": 69,
          "beat": 2,
          "dur": 0.25,
          "vel": 127,
          "clef": "treble",
          "pitch": "A4"
        },
        {
          "midi": 68,
          "beat": 2.25,
          "dur": 0.25,
          "vel": 127,
          "clef": "treble",
          "pitch": "G#4"
        },
        {
          "midi": 54,
          "beat": 2.5,
          "dur": 0.5,
          "vel": 127,
          "clef": "bass",
          "pitch": "F#3"
        },
        {
          "midi": 76,
          "beat": 2.5,
          "dur": 0.25,
          "vel": 127,
          "clef": "treble",
          "pitch": "E5"
        },
        {
          "midi": 64,
          "beat": 2.75,
          "dur": 0.25,
          "vel": 127,
          "clef": "treble",
          "pitch": "E4"
        },
        {
          "midi": 48,
          "beat": 3,
          "dur": 0.5,
          "vel": 127,
          "clef": "bass",
          "pitch": "C3"
        },
        {
          "midi": 69,
          "beat": 3,
          "dur": 0.25,
          "vel": 127,
          "clef": "treble",
          "pitch": "A4"
        },
        {
          "midi": 68,
          "beat": 3.25,
          "dur": 0.25,
          "vel": 127,
          "clef": "treble",
          "pitch": "G#4"
        },
        {
          "midi": 44,
          "beat": 3.5,
          "dur": 0.5,
          "vel": 127,
          "clef": "bass",
          "pitch": "G#2"
        },
        {
          "midi": 75,
          "beat": 3.5,
          "dur": 0.25,
          "vel": 127,
          "clef": "treble",
          "pitch": "D#5"
        },
        {
          "midi": 63,
          "beat": 3.75,
          "dur": 0.25,
          "vel": 127,
          "clef": "treble",
          "pitch": "D#4"
        }
      ]
    },
    {
      "_": "Treble: 16 notes, Bass: 8 notes",
      "number": 121,
      "notes": [
        {
          "midi": 37,
          "beat": 0,
          "dur": 0.5,
          "vel": 127,
          "clef": "bass",
          "pitch": "C#2"
        },
        {
          "midi": 69,
          "beat": 0,
          "dur": 0.25,
          "vel": 127,
          "clef": "treble",
          "pitch": "A4"
        },
        {
          "midi": 68,
          "beat": 0.25,
          "dur": 0.25,
          "vel": 127,
          "clef": "treble",
          "pitch": "G#4"
        },
        {
          "midi": 52,
          "beat": 0.5,
          "dur": 0.5,
          "vel": 127,
          "clef": "bass",
          "pitch": "E3"
        },
        {
          "midi": 75,
          "beat": 0.5,
          "dur": 0.25,
          "vel": 127,
          "clef": "treble",
          "pitch": "D#5"
        },
        {
          "midi": 63,
          "beat": 0.75,
          "dur": 0.25,
          "vel": 127,
          "clef": "treble",
          "pitch": "D#4"
        },
        {
          "midi": 49,
          "beat": 1,
          "dur": 0.5,
          "vel": 127,
          "clef": "bass",
          "pitch": "C#3"
        },
        {
          "midi": 69,
          "beat": 1,
          "dur": 0.25,
          "vel": 127,
          "clef": "treble",
          "pitch": "A4"
        },
        {
          "midi": 68,
          "beat": 1.25,
          "dur": 0.25,
          "vel": 127,
          "clef": "treble",
          "pitch": "G#4"
        },
        {
          "midi": 44,
          "beat": 1.5,
          "dur": 0.5,
          "vel": 127,
          "clef": "bass",
          "pitch": "G#2"
        },
        {
          "midi": 73,
          "beat": 1.5,
          "dur": 0.25,
          "vel": 127,
          "clef": "treble",
          "pitch": "C#5"
        },
        {
          "midi": 61,
          "beat": 1.75,
          "dur": 0.25,
          "vel": 127,
          "clef": "treble",
          "pitch": "C#4"
        },
        {
          "midi": 37,
          "beat": 2,
          "dur": 0.5,
          "vel": 127,
          "clef": "bass",
          "pitch": "C#2"
        },
        {
          "midi": 64,
          "beat": 2,
          "dur": 0.25,
          "vel": 127,
          "clef": "treble",
          "pitch": "E4"
        },
        {
          "midi": 63,
          "beat": 2.25,
          "dur": 0.25,
          "vel": 127,
          "clef": "treble",
          "pitch": "D#4"
        },
        {
          "midi": 54,
          "beat": 2.5,
          "dur": 0.5,
          "vel": 127,
          "clef": "bass",
          "pitch": "F#3"
        },
        {
          "midi": 68,
          "beat": 2.5,
          "dur": 0.25,
          "vel": 127,
          "clef": "treble",
          "pitch": "G#4"
        },
        {
          "midi": 56,
          "beat": 2.75,
          "dur": 0.25,
          "vel": 127,
          "clef": "treble",
          "pitch": "G#3"
        },
        {
          "midi": 48,
          "beat": 3,
          "dur": 0.5,
          "vel": 127,
          "clef": "bass",
          "pitch": "C3"
        },
        {
          "midi": 64,
          "beat": 3,
          "dur": 0.25,
          "vel": 127,
          "clef": "treble",
          "pitch": "E4"
        },
        {
          "midi": 63,
          "beat": 3.25,
          "dur": 0.25,
          "vel": 127,
          "clef": "treble",
          "pitch": "D#4"
        },
        {
          "midi": 44,
          "beat": 3.5,
          "dur": 0.5,
          "vel": 127,
          "clef": "bass",
          "pitch": "G#2"
        },
        {
          "midi": 68,
          "beat": 3.5,
          "dur": 0.25,
          "vel": 127,
          "clef": "treble",
          "pitch": "G#4"
        },
        {
          "midi": 56,
          "beat": 3.75,
          "dur": 0.25,
          "vel": 127,
          "clef": "treble",
          "pitch": "G#3"
        }
      ]
    },
    {
      "_": "Treble: 16 notes, Bass: 8 notes",
      "number": 122,
      "notes": [
        {
          "midi": 37,
          "beat": 0,
          "dur": 0.5,
          "vel": 127,
          "clef": "bass",
          "pitch": "C#2"
        },
        {
          "midi": 63,
          "beat": 0,
          "dur": 0.25,
          "vel": 127,
          "clef": "treble",
          "pitch": "D#4"
        },
        {
          "midi": 61,
          "beat": 0.25,
          "dur": 0.25,
          "vel": 127,
          "clef": "treble",
          "pitch": "C#4"
        },
        {
          "midi": 52,
          "beat": 0.5,
          "dur": 0.5,
          "vel": 127,
          "clef": "bass",
          "pitch": "E3"
        },
        {
          "midi": 68,
          "beat": 0.5,
          "dur": 0.25,
          "vel": 127,
          "clef": "treble",
          "pitch": "G#4"
        },
        {
          "midi": 56,
          "beat": 0.75,
          "dur": 0.25,
          "vel": 127,
          "clef": "treble",
          "pitch": "G#3"
        },
        {
          "midi": 49,
          "beat": 1,
          "dur": 0.5,
          "vel": 127,
          "clef": "bass",
          "pitch": "C#3"
        },
        {
          "midi": 69,
          "beat": 1,
          "dur": 0.25,
          "vel": 127,
          "clef": "treble",
          "pitch": "A4"
        },
        {
          "midi": 68,
          "beat": 1.25,
          "dur": 0.25,
          "vel": 127,
          "clef": "treble",
          "pitch": "G#4"
        },
        {
          "midi": 44,
          "beat": 1.5,
          "dur": 0.5,
          "vel": 127,
          "clef": "bass",
          "pitch": "G#2"
        },
        {
          "midi": 76,
          "beat": 1.5,
          "dur": 0.25,
          "vel": 127,
          "clef": "treble",
          "pitch": "E5"
        },
        {
          "midi": 64,
          "beat": 1.75,
          "dur": 0.25,
          "vel": 127,
          "clef": "treble",
          "pitch": "E4"
        },
        {
          "midi": 37,
          "beat": 2,
          "dur": 0.5,
          "vel": 127,
          "clef": "bass",
          "pitch": "C#2"
        },
        {
          "midi": 66,
          "beat": 2,
          "dur": 0.25,
          "vel": 127,
          "clef": "treble",
          "pitch": "F#4"
        },
        {
          "midi": 64,
          "beat": 2.25,
          "dur": 0.25,
          "vel": 127,
          "clef": "treble",
          "pitch": "E4"
        },
        {
          "midi": 56,
          "beat": 2.5,
          "dur": 0.5,
          "vel": 127,
          "clef": "bass",
          "pitch": "G#3"
        },
        {
          "midi": 73,
          "beat": 2.5,
          "dur": 0.25,
          "vel": 127,
          "clef": "treble",
          "pitch": "C#5"
        },
        {
          "midi": 61,
          "beat": 2.75,
          "dur": 0.25,
          "vel": 127,
          "clef": "treble",
          "pitch": "C#4"
        },
        {
          "midi": 49,
          "beat": 3,
          "dur": 0.5,
          "vel": 127,
          "clef": "bass",
          "pitch": "C#3"
        },
        {
          "midi": 69,
          "beat": 3,
          "dur": 0.25,
          "vel": 127,
          "clef": "treble",
          "pitch": "A4"
        },
        {
          "midi": 68,
          "beat": 3.25,
          "dur": 0.25,
          "vel": 127,
          "clef": "treble",
          "pitch": "G#4"
        },
        {
          "midi": 44,
          "beat": 3.5,
          "dur": 0.5,
          "vel": 127,
          "clef": "bass",
          "pitch": "G#2"
        },
        {
          "midi": 76,
          "beat": 3.5,
          "dur": 0.25,
          "vel": 127,
          "clef": "treble",
          "pitch": "E5"
        },
        {
          "midi": 64,
          "beat": 3.75,
          "dur": 0.25,
          "vel": 127,
          "clef": "treble",
          "pitch": "E4"
        }
      ]
    },
    {
      "_": "Treble: 16 notes, Bass: 8 notes",
      "number": 123,
      "notes": [
        {
          "midi": 37,
          "beat": 0,
          "dur": 0.5,
          "vel": 127,
          "clef": "bass",
          "pitch": "C#2"
        },
        {
          "midi": 63,
          "beat": 0,
          "dur": 0.25,
          "vel": 127,
          "clef": "treble",
          "pitch": "D#4"
        },
        {
          "midi": 61,
          "beat": 0.25,
          "dur": 0.25,
          "vel": 127,
          "clef": "treble",
          "pitch": "C#4"
        },
        {
          "midi": 52,
          "beat": 0.5,
          "dur": 0.5,
          "vel": 127,
          "clef": "bass",
          "pitch": "E3"
        },
        {
          "midi": 68,
          "beat": 0.5,
          "dur": 0.25,
          "vel": 127,
          "clef": "treble",
          "pitch": "G#4"
        },
        {
          "midi": 56,
          "beat": 0.75,
          "dur": 0.25,
          "vel": 127,
          "clef": "treble",
          "pitch": "G#3"
        },
        {
          "midi": 49,
          "beat": 1,
          "dur": 0.5,
          "vel": 127,
          "clef": "bass",
          "pitch": "C#3"
        },
        {
          "midi": 69,
          "beat": 1,
          "dur": 0.25,
          "vel": 127,
          "clef": "treble",
          "pitch": "A4"
        },
        {
          "midi": 68,
          "beat": 1.25,
          "dur": 0.25,
          "vel": 127,
          "clef": "treble",
          "pitch": "G#4"
        },
        {
          "midi": 44,
          "beat": 1.5,
          "dur": 0.5,
          "vel": 127,
          "clef": "bass",
          "pitch": "G#2"
        },
        {
          "midi": 76,
          "beat": 1.5,
          "dur": 0.25,
          "vel": 127,
          "clef": "treble",
          "pitch": "E5"
        },
        {
          "midi": 64,
          "beat": 1.75,
          "dur": 0.25,
          "vel": 127,
          "clef": "treble",
          "pitch": "E4"
        },
        {
          "midi": 37,
          "beat": 2,
          "dur": 0.5,
          "vel": 127,
          "clef": "bass",
          "pitch": "C#2"
        },
        {
          "midi": 66,
          "beat": 2,
          "dur": 0.25,
          "vel": 127,
          "clef": "treble",
          "pitch": "F#4"
        },
        {
          "midi": 64,
          "beat": 2.25,
          "dur": 0.25,
          "vel": 127,
          "clef": "treble",
          "pitch": "E4"
        },
        {
          "midi": 56,
          "beat": 2.5,
          "dur": 0.5,
          "vel": 127,
          "clef": "bass",
          "pitch": "G#3"
        },
        {
          "midi": 73,
          "beat": 2.5,
          "dur": 0.25,
          "vel": 127,
          "clef": "treble",
          "pitch": "C#5"
        },
        {
          "midi": 61,
          "beat": 2.75,
          "dur": 0.25,
          "vel": 127,
          "clef": "treble",
          "pitch": "C#4"
        },
        {
          "midi": 49,
          "beat": 3,
          "dur": 0.5,
          "vel": 127,
          "clef": "bass",
          "pitch": "C#3"
        },
        {
          "midi": 69,
          "beat": 3,
          "dur": 0.25,
          "vel": 127,
          "clef": "treble",
          "pitch": "A4"
        },
        {
          "midi": 68,
          "beat": 3.25,
          "dur": 0.25,
          "vel": 127,
          "clef": "treble",
          "pitch": "G#4"
        },
        {
          "midi": 44,
          "beat": 3.5,
          "dur": 0.5,
          "vel": 127,
          "clef": "bass",
          "pitch": "G#2"
        },
        {
          "midi": 76,
          "beat": 3.5,
          "dur": 0.25,
          "vel": 127,
          "clef": "treble",
          "pitch": "E5"
        },
        {
          "midi": 64,
          "beat": 3.75,
          "dur": 0.25,
          "vel": 127,
          "clef": "treble",
          "pitch": "E4"
        }
      ]
    },
    {
      "_": "Treble: 16 notes, Bass: 8 notes",
      "number": 124,
      "notes": [
        {
          "midi": 37,
          "beat": 0,
          "dur": 0.5,
          "vel": 127,
          "clef": "bass",
          "pitch": "C#2"
        },
        {
          "midi": 66,
          "beat": 0,
          "dur": 0.25,
          "vel": 127,
          "clef": "treble",
          "pitch": "F#4"
        },
        {
          "midi": 64,
          "beat": 0.25,
          "dur": 0.25,
          "vel": 127,
          "clef": "treble",
          "pitch": "E4"
        },
        {
          "midi": 52,
          "beat": 0.5,
          "dur": 0.5,
          "vel": 127,
          "clef": "bass",
          "pitch": "E3"
        },
        {
          "midi": 73,
          "beat": 0.5,
          "dur": 0.25,
          "vel": 127,
          "clef": "treble",
          "pitch": "C#5"
        },
        {
          "midi": 61,
          "beat": 0.75,
          "dur": 0.25,
          "vel": 127,
          "clef": "treble",
          "pitch": "C#4"
        },
        {
          "midi": 49,
          "beat": 1,
          "dur": 0.5,
          "vel": 127,
          "clef": "bass",
          "pitch": "C#3"
        },
        {
          "midi": 69,
          "beat": 1,
          "dur": 0.25,
          "vel": 127,
          "clef": "treble",
          "pitch": "A4"
        },
        {
          "midi": 68,
          "beat": 1.25,
          "dur": 0.25,
          "vel": 127,
          "clef": "treble",
          "pitch": "G#4"
        },
        {
          "midi": 44,
          "beat": 1.5,
          "dur": 0.5,
          "vel": 127,
          "clef": "bass",
          "pitch": "G#2"
        },
        {
          "midi": 73,
          "beat": 1.5,
          "dur": 0.25,
          "vel": 127,
          "clef": "treble",
          "pitch": "C#5"
        },
        {
          "midi": 61,
          "beat": 1.75,
          "dur": 0.25,
          "vel": 127,
          "clef": "treble",
          "pitch": "C#4"
        },
        {
          "midi": 37,
          "beat": 2,
          "dur": 0.5,
          "vel": 127,
          "clef": "bass",
          "pitch": "C#2"
        },
        {
          "midi": 66,
          "beat": 2,
          "dur": 0.25,
          "vel": 127,
          "clef": "treble",
          "pitch": "F#4"
        },
        {
          "midi": 64,
          "beat": 2.25,
          "dur": 0.25,
          "vel": 127,
          "clef": "treble",
          "pitch": "E4"
        },
        {
          "midi": 52,
          "beat": 2.5,
          "dur": 0.5,
          "vel": 127,
          "clef": "bass",
          "pitch": "E3"
        },
        {
          "midi": 73,
          "beat": 2.5,
          "dur": 0.25,
          "vel": 127,
          "clef": "treble",
          "pitch": "C#5"
        },
        {
          "midi": 61,
          "beat": 2.75,
          "dur": 0.25,
          "vel": 127,
          "clef": "treble",
          "pitch": "C#4"
        },
        {
          "midi": 49,
          "beat": 3,
          "dur": 0.5,
          "vel": 127,
          "clef": "bass",
          "pitch": "C#3"
        },
        {
          "midi": 69,
          "beat": 3,
          "dur": 0.25,
          "vel": 127,
          "clef": "treble",
          "pitch": "A4"
        },
        {
          "midi": 68,
          "beat": 3.25,
          "dur": 0.25,
          "vel": 127,
          "clef": "treble",
          "pitch": "G#4"
        },
        {
          "midi": 44,
          "beat": 3.5,
          "dur": 0.5,
          "vel": 127,
          "clef": "bass",
          "pitch": "G#2"
        },
        {
          "midi": 73,
          "beat": 3.5,
          "dur": 0.25,
          "vel": 127,
          "clef": "treble",
          "pitch": "C#5"
        },
        {
          "midi": 61,
          "beat": 3.75,
          "dur": 0.25,
          "vel": 127,
          "clef": "treble",
          "pitch": "C#4"
        }
      ]
    },
    {
      "_": "Treble: 16 notes, Bass: 8 notes",
      "number": 125,
      "notes": [
        {
          "midi": 37,
          "beat": 0,
          "dur": 0.5,
          "vel": 127,
          "clef": "bass",
          "pitch": "C#2"
        },
        {
          "midi": 66,
          "beat": 0,
          "dur": 0.25,
          "vel": 127,
          "clef": "treble",
          "pitch": "F#4"
        },
        {
          "midi": 64,
          "beat": 0.25,
          "dur": 0.25,
          "vel": 127,
          "clef": "treble",
          "pitch": "E4"
        },
        {
          "midi": 52,
          "beat": 0.5,
          "dur": 0.5,
          "vel": 127,
          "clef": "bass",
          "pitch": "E3"
        },
        {
          "midi": 73,
          "beat": 0.5,
          "dur": 0.25,
          "vel": 127,
          "clef": "treble",
          "pitch": "C#5"
        },
        {
          "midi": 61,
          "beat": 0.75,
          "dur": 0.25,
          "vel": 127,
          "clef": "treble",
          "pitch": "C#4"
        },
        {
          "midi": 49,
          "beat": 1,
          "dur": 0.5,
          "vel": 127,
          "clef": "bass",
          "pitch": "C#3"
        },
        {
          "midi": 69,
          "beat": 1,
          "dur": 0.25,
          "vel": 127,
          "clef": "treble",
          "pitch": "A4"
        },
        {
          "midi": 68,
          "beat": 1.25,
          "dur": 0.25,
          "vel": 127,
          "clef": "treble",
          "pitch": "G#4"
        },
        {
          "midi": 44,
          "beat": 1.5,
          "dur": 0.5,
          "vel": 127,
          "clef": "bass",
          "pitch": "G#2"
        },
        {
          "midi": 73,
          "beat": 1.5,
          "dur": 0.25,
          "vel": 127,
          "clef": "treble",
          "pitch": "C#5"
        },
        {
          "midi": 61,
          "beat": 1.75,
          "dur": 0.25,
          "vel": 127,
          "clef": "treble",
          "pitch": "C#4"
        },
        {
          "midi": 37,
          "beat": 2,
          "dur": 0.5,
          "vel": 127,
          "clef": "bass",
          "pitch": "C#2"
        },
        {
          "midi": 66,
          "beat": 2,
          "dur": 0.25,
          "vel": 127,
          "clef": "treble",
          "pitch": "F#4"
        },
        {
          "midi": 64,
          "beat": 2.25,
          "dur": 0.25,
          "vel": 127,
          "clef": "treble",
          "pitch": "E4"
        },
        {
          "midi": 52,
          "beat": 2.5,
          "dur": 0.5,
          "vel": 127,
          "clef": "bass",
          "pitch": "E3"
        },
        {
          "midi": 73,
          "beat": 2.5,
          "dur": 0.25,
          "vel": 127,
          "clef": "treble",
          "pitch": "C#5"
        },
        {
          "midi": 61,
          "beat": 2.75,
          "dur": 0.25,
          "vel": 127,
          "clef": "treble",
          "pitch": "C#4"
        },
        {
          "midi": 49,
          "beat": 3,
          "dur": 0.5,
          "vel": 127,
          "clef": "bass",
          "pitch": "C#3"
        },
        {
          "midi": 69,
          "beat": 3,
          "dur": 0.25,
          "vel": 127,
          "clef": "treble",
          "pitch": "A4"
        },
        {
          "midi": 68,
          "beat": 3.25,
          "dur": 0.25,
          "vel": 127,
          "clef": "treble",
          "pitch": "G#4"
        },
        {
          "midi": 44,
          "beat": 3.5,
          "dur": 0.5,
          "vel": 127,
          "clef": "bass",
          "pitch": "G#2"
        },
        {
          "midi": 73,
          "beat": 3.5,
          "dur": 0.25,
          "vel": 127,
          "clef": "treble",
          "pitch": "C#5"
        },
        {
          "midi": 61,
          "beat": 3.75,
          "dur": 0.25,
          "vel": 127,
          "clef": "treble",
          "pitch": "C#4"
        }
      ]
    },
    {
      "_": "Treble: 16 notes, Bass: 1 notes",
      "number": 126,
      "notes": [
        {
          "midi": 37,
          "beat": 0,
          "dur": 1,
          "vel": 127,
          "clef": "bass",
          "pitch": "C#2"
        },
        {
          "midi": 63,
          "beat": 0,
          "dur": 0.25,
          "vel": 127,
          "clef": "treble",
          "pitch": "D#4"
        },
        {
          "midi": 61,
          "beat": 0.25,
          "dur": 0.25,
          "vel": 127,
          "clef": "treble",
          "pitch": "C#4"
        },
        {
          "midi": 68,
          "beat": 0.5,
          "dur": 0.25,
          "vel": 127,
          "clef": "treble",
          "pitch": "G#4"
        },
        {
          "midi": 56,
          "beat": 0.75,
          "dur": 0.25,
          "vel": 127,
          "clef": "treble",
          "pitch": "G#3"
        },
        {
          "midi": 63,
          "beat": 1,
          "dur": 0.25,
          "vel": 127,
          "clef": "treble",
          "pitch": "D#4"
        },
        {
          "midi": 61,
          "beat": 1.25,
          "dur": 0.25,
          "vel": 127,
          "clef": "treble",
          "pitch": "C#4"
        },
        {
          "midi": 68,
          "beat": 1.5,
          "dur": 0.25,
          "vel": 127,
          "clef": "treble",
          "pitch": "G#4"
        },
        {
          "midi": 56,
          "beat": 1.75,
          "dur": 0.25,
          "vel": 127,
          "clef": "treble",
          "pitch": "G#3"
        },
        {
          "midi": 63,
          "beat": 2,
          "dur": 0.25,
          "vel": 127,
          "clef": "treble",
          "pitch": "D#4"
        },
        {
          "midi": 61,
          "beat": 2.25,
          "dur": 0.25,
          "vel": 127,
          "clef": "treble",
          "pitch": "C#4"
        },
        {
          "midi": 68,
          "beat": 2.5,
          "dur": 0.25,
          "vel": 127,
          "clef": "treble",
          "pitch": "G#4"
        },
        {
          "midi": 56,
          "beat": 2.75,
          "dur": 0.25,
          "vel": 127,
          "clef": "treble",
          "pitch": "G#3"
        },
        {
          "midi": 63,
          "beat": 3,
          "dur": 0.25,
          "vel": 127,
          "clef": "treble",
          "pitch": "D#4"
        },
        {
          "midi": 61,
          "beat": 3.25,
          "dur": 0.25,
          "vel": 127,
          "clef": "treble",
          "pitch": "C#4"
        },
        {
          "midi": 68,
          "beat": 3.5,
          "dur": 0.25,
          "vel": 127,
          "clef": "treble",
          "pitch": "G#4"
        },
        {
          "midi": 56,
          "beat": 3.75,
          "dur": 0.25,
          "vel": 127,
          "clef": "treble",
          "pitch": "G#3"
        }
      ]
    },
    {
      "_": "Treble: 16 notes, Bass: 0 notes",
      "number": 127,
      "notes": [
        {
          "midi": 63,
          "beat": 0,
          "dur": 0.25,
          "vel": 127,
          "clef": "treble",
          "pitch": "D#4"
        },
        {
          "midi": 61,
          "beat": 0.25,
          "dur": 0.25,
          "vel": 127,
          "clef": "treble",
          "pitch": "C#4"
        },
        {
          "midi": 68,
          "beat": 0.5,
          "dur": 0.25,
          "vel": 127,
          "clef": "treble",
          "pitch": "G#4"
        },
        {
          "midi": 56,
          "beat": 0.75,
          "dur": 0.25,
          "vel": 127,
          "clef": "treble",
          "pitch": "G#3"
        },
        {
          "midi": 63,
          "beat": 1,
          "dur": 0.25,
          "vel": 127,
          "clef": "treble",
          "pitch": "D#4"
        },
        {
          "midi": 61,
          "beat": 1.25,
          "dur": 0.25,
          "vel": 127,
          "clef": "treble",
          "pitch": "C#4"
        },
        {
          "midi": 68,
          "beat": 1.5,
          "dur": 0.25,
          "vel": 127,
          "clef": "treble",
          "pitch": "G#4"
        },
        {
          "midi": 56,
          "beat": 1.75,
          "dur": 0.25,
          "vel": 127,
          "clef": "treble",
          "pitch": "G#3"
        },
        {
          "midi": 63,
          "beat": 2,
          "dur": 0.25,
          "vel": 127,
          "clef": "treble",
          "pitch": "D#4"
        },
        {
          "midi": 61,
          "beat": 2.25,
          "dur": 0.25,
          "vel": 127,
          "clef": "treble",
          "pitch": "C#4"
        },
        {
          "midi": 68,
          "beat": 2.5,
          "dur": 0.25,
          "vel": 127,
          "clef": "treble",
          "pitch": "G#4"
        },
        {
          "midi": 56,
          "beat": 2.75,
          "dur": 0.25,
          "vel": 127,
          "clef": "treble",
          "pitch": "G#3"
        },
        {
          "midi": 63,
          "beat": 3,
          "dur": 0.25,
          "vel": 127,
          "clef": "treble",
          "pitch": "D#4"
        },
        {
          "midi": 61,
          "beat": 3.25,
          "dur": 0.25,
          "vel": 127,
          "clef": "treble",
          "pitch": "C#4"
        },
        {
          "midi": 68,
          "beat": 3.5,
          "dur": 0.25,
          "vel": 127,
          "clef": "treble",
          "pitch": "G#4"
        },
        {
          "midi": 56,
          "beat": 3.75,
          "dur": 0.25,
          "vel": 127,
          "clef": "treble",
          "pitch": "G#3"
        }
      ]
    },
    {
      "_": "Treble: 16 notes, Bass: 2 notes",
      "number": 128,
      "notes": [
        {
          "midi": 37,
          "beat": 0,
          "dur": 4,
          "vel": 127,
          "clef": "bass",
          "pitch": "C#2"
        },
        {
          "midi": 44,
          "beat": 0,
          "dur": 4,
          "vel": 127,
          "clef": "bass",
          "pitch": "G#2"
        },
        {
          "midi": 63,
          "beat": 0,
          "dur": 0.25,
          "vel": 127,
          "clef": "treble",
          "pitch": "D#4"
        },
        {
          "midi": 61,
          "beat": 0.25,
          "dur": 0.25,
          "vel": 127,
          "clef": "treble",
          "pitch": "C#4"
        },
        {
          "midi": 68,
          "beat": 0.5,
          "dur": 0.25,
          "vel": 127,
          "clef": "treble",
          "pitch": "G#4"
        },
        {
          "midi": 56,
          "beat": 0.75,
          "dur": 0.25,
          "vel": 127,
          "clef": "treble",
          "pitch": "G#3"
        },
        {
          "midi": 63,
          "beat": 1,
          "dur": 0.25,
          "vel": 127,
          "clef": "treble",
          "pitch": "D#4"
        },
        {
          "midi": 61,
          "beat": 1.25,
          "dur": 0.25,
          "vel": 127,
          "clef": "treble",
          "pitch": "C#4"
        },
        {
          "midi": 68,
          "beat": 1.5,
          "dur": 0.25,
          "vel": 127,
          "clef": "treble",
          "pitch": "G#4"
        },
        {
          "midi": 56,
          "beat": 1.75,
          "dur": 0.25,
          "vel": 127,
          "clef": "treble",
          "pitch": "G#3"
        },
        {
          "midi": 63,
          "beat": 2,
          "dur": 0.25,
          "vel": 127,
          "clef": "treble",
          "pitch": "D#4"
        },
        {
          "midi": 61,
          "beat": 2.25,
          "dur": 0.25,
          "vel": 127,
          "clef": "treble",
          "pitch": "C#4"
        },
        {
          "midi": 68,
          "beat": 2.5,
          "dur": 0.25,
          "vel": 127,
          "clef": "treble",
          "pitch": "G#4"
        },
        {
          "midi": 56,
          "beat": 2.75,
          "dur": 0.25,
          "vel": 127,
          "clef": "treble",
          "pitch": "G#3"
        },
        {
          "midi": 63,
          "beat": 3,
          "dur": 0.25,
          "vel": 127,
          "clef": "treble",
          "pitch": "D#4"
        },
        {
          "midi": 61,
          "beat": 3.25,
          "dur": 0.25,
          "vel": 127,
          "clef": "treble",
          "pitch": "C#4"
        },
        {
          "midi": 68,
          "beat": 3.5,
          "dur": 0.25,
          "vel": 127,
          "clef": "treble",
          "pitch": "G#4"
        },
        {
          "midi": 56,
          "beat": 3.75,
          "dur": 0.25,
          "vel": 127,
          "clef": "treble",
          "pitch": "G#3"
        }
      ]
    },
    {
      "_": "Treble: 16 notes, Bass: 4 notes",
      "number": 129,
      "notes": [
        {
          "midi": 46,
          "beat": 0,
          "dur": 1,
          "vel": 127,
          "clef": "bass",
          "acc": "#",
          "pitch": "A#2"
        },
        {
          "midi": 63,
          "beat": 0,
          "dur": 0.25,
          "vel": 127,
          "clef": "treble",
          "pitch": "D#4"
        },
        {
          "midi": 61,
          "beat": 0.25,
          "dur": 0.25,
          "vel": 127,
          "clef": "treble",
          "pitch": "C#4"
        },
        {
          "midi": 68,
          "beat": 0.5,
          "dur": 0.25,
          "vel": 127,
          "clef": "treble",
          "pitch": "G#4"
        },
        {
          "midi": 56,
          "beat": 0.75,
          "dur": 0.25,
          "vel": 127,
          "clef": "treble",
          "pitch": "G#3"
        },
        {
          "midi": 44,
          "beat": 1,
          "dur": 1,
          "vel": 127,
          "clef": "bass",
          "pitch": "G#2"
        },
        {
          "midi": 63,
          "beat": 1,
          "dur": 0.25,
          "vel": 127,
          "clef": "treble",
          "pitch": "D#4"
        },
        {
          "midi": 61,
          "beat": 1.25,
          "dur": 0.25,
          "vel": 127,
          "clef": "treble",
          "pitch": "C#4"
        },
        {
          "midi": 68,
          "beat": 1.5,
          "dur": 0.25,
          "vel": 127,
          "clef": "treble",
          "pitch": "G#4"
        },
        {
          "midi": 56,
          "beat": 1.75,
          "dur": 0.25,
          "vel": 127,
          "clef": "treble",
          "pitch": "G#3"
        },
        {
          "midi": 49,
          "beat": 2,
          "dur": 1,
          "vel": 127,
          "clef": "bass",
          "pitch": "C#3"
        },
        {
          "midi": 63,
          "beat": 2,
          "dur": 0.25,
          "vel": 127,
          "clef": "treble",
          "pitch": "D#4"
        },
        {
          "midi": 61,
          "beat": 2.25,
          "dur": 0.25,
          "vel": 127,
          "clef": "treble",
          "pitch": "C#4"
        },
        {
          "midi": 68,
          "beat": 2.5,
          "dur": 0.25,
          "vel": 127,
          "clef": "treble",
          "pitch": "G#4"
        },
        {
          "midi": 56,
          "beat": 2.75,
          "dur": 0.25,
          "vel": 127,
          "clef": "treble",
          "pitch": "G#3"
        },
        {
          "midi": 51,
          "beat": 3,
          "dur": 1,
          "vel": 127,
          "clef": "bass",
          "pitch": "D#3"
        },
        {
          "midi": 63,
          "beat": 3,
          "dur": 0.25,
          "vel": 127,
          "clef": "treble",
          "pitch": "D#4"
        },
        {
          "midi": 61,
          "beat": 3.25,
          "dur": 0.25,
          "vel": 127,
          "clef": "treble",
          "pitch": "C#4"
        },
        {
          "midi": 68,
          "beat": 3.5,
          "dur": 0.25,
          "vel": 127,
          "clef": "treble",
          "pitch": "G#4"
        },
        {
          "midi": 56,
          "beat": 3.75,
          "dur": 0.25,
          "vel": 127,
          "clef": "treble",
          "pitch": "G#3"
        }
      ]
    },
    {
      "_": "Treble: 16 notes, Bass: 1 notes",
      "number": 130,
      "notes": [
        {
          "midi": 53,
          "beat": 0,
          "dur": 4,
          "vel": 127,
          "clef": "bass",
          "pitch": "F3"
        },
        {
          "midi": 63,
          "beat": 0,
          "dur": 0.25,
          "vel": 127,
          "clef": "treble",
          "pitch": "D#4"
        },
        {
          "midi": 61,
          "beat": 0.25,
          "dur": 0.25,
          "vel": 127,
          "clef": "treble",
          "pitch": "C#4"
        },
        {
          "midi": 68,
          "beat": 0.5,
          "dur": 0.25,
          "vel": 127,
          "clef": "treble",
          "pitch": "G#4"
        },
        {
          "midi": 56,
          "beat": 0.75,
          "dur": 0.25,
          "vel": 127,
          "clef": "treble",
          "pitch": "G#3"
        },
        {
          "midi": 63,
          "beat": 1,
          "dur": 0.25,
          "vel": 127,
          "clef": "treble",
          "pitch": "D#4"
        },
        {
          "midi": 61,
          "beat": 1.25,
          "dur": 0.25,
          "vel": 127,
          "clef": "treble",
          "pitch": "C#4"
        },
        {
          "midi": 68,
          "beat": 1.5,
          "dur": 0.25,
          "vel": 127,
          "clef": "treble",
          "pitch": "G#4"
        },
        {
          "midi": 56,
          "beat": 1.75,
          "dur": 0.25,
          "vel": 127,
          "clef": "treble",
          "pitch": "G#3"
        },
        {
          "midi": 63,
          "beat": 2,
          "dur": 0.25,
          "vel": 127,
          "clef": "treble",
          "pitch": "D#4"
        },
        {
          "midi": 61,
          "beat": 2.25,
          "dur": 0.25,
          "vel": 127,
          "clef": "treble",
          "pitch": "C#4"
        },
        {
          "midi": 68,
          "beat": 2.5,
          "dur": 0.25,
          "vel": 127,
          "clef": "treble",
          "pitch": "G#4"
        },
        {
          "midi": 56,
          "beat": 2.75,
          "dur": 0.25,
          "vel": 127,
          "clef": "treble",
          "pitch": "G#3"
        },
        {
          "midi": 63,
          "beat": 3,
          "dur": 0.25,
          "vel": 127,
          "clef": "treble",
          "pitch": "D#4"
        },
        {
          "midi": 61,
          "beat": 3.25,
          "dur": 0.25,
          "vel": 127,
          "clef": "treble",
          "pitch": "C#4"
        },
        {
          "midi": 68,
          "beat": 3.5,
          "dur": 0.25,
          "vel": 127,
          "clef": "treble",
          "pitch": "G#4"
        },
        {
          "midi": 56,
          "beat": 3.75,
          "dur": 0.25,
          "vel": 127,
          "clef": "treble",
          "pitch": "G#3"
        }
      ]
    },
    {
      "_": "Treble: 16 notes, Bass: 1 notes",
      "number": 131,
      "notes": [
        {
          "midi": 56,
          "beat": 0,
          "dur": 4,
          "vel": 127,
          "clef": "bass",
          "pitch": "G#3"
        },
        {
          "midi": 63,
          "beat": 0,
          "dur": 0.25,
          "vel": 127,
          "clef": "treble",
          "pitch": "D#4"
        },
        {
          "midi": 61,
          "beat": 0.25,
          "dur": 0.25,
          "vel": 127,
          "clef": "treble",
          "pitch": "C#4"
        },
        {
          "midi": 68,
          "beat": 0.5,
          "dur": 0.25,
          "vel": 127,
          "clef": "treble",
          "pitch": "G#4"
        },
        {
          "midi": 56,
          "beat": 0.75,
          "dur": 0.25,
          "vel": 127,
          "clef": "treble",
          "pitch": "G#3"
        },
        {
          "midi": 63,
          "beat": 1,
          "dur": 0.25,
          "vel": 127,
          "clef": "treble",
          "pitch": "D#4"
        },
        {
          "midi": 61,
          "beat": 1.25,
          "dur": 0.25,
          "vel": 127,
          "clef": "treble",
          "pitch": "C#4"
        },
        {
          "midi": 68,
          "beat": 1.5,
          "dur": 0.25,
          "vel": 127,
          "clef": "treble",
          "pitch": "G#4"
        },
        {
          "midi": 56,
          "beat": 1.75,
          "dur": 0.25,
          "vel": 127,
          "clef": "treble",
          "pitch": "G#3"
        },
        {
          "midi": 63,
          "beat": 2,
          "dur": 0.25,
          "vel": 127,
          "clef": "treble",
          "pitch": "D#4"
        },
        {
          "midi": 61,
          "beat": 2.25,
          "dur": 0.25,
          "vel": 127,
          "clef": "treble",
          "pitch": "C#4"
        },
        {
          "midi": 68,
          "beat": 2.5,
          "dur": 0.25,
          "vel": 127,
          "clef": "treble",
          "pitch": "G#4"
        },
        {
          "midi": 56,
          "beat": 2.75,
          "dur": 0.25,
          "vel": 127,
          "clef": "treble",
          "pitch": "G#3"
        },
        {
          "midi": 63,
          "beat": 3,
          "dur": 0.25,
          "vel": 127,
          "clef": "treble",
          "pitch": "D#4"
        },
        {
          "midi": 61,
          "beat": 3.25,
          "dur": 0.25,
          "vel": 127,
          "clef": "treble",
          "pitch": "C#4"
        },
        {
          "midi": 68,
          "beat": 3.5,
          "dur": 0.25,
          "vel": 127,
          "clef": "treble",
          "pitch": "G#4"
        },
        {
          "midi": 56,
          "beat": 3.75,
          "dur": 0.25,
          "vel": 127,
          "clef": "treble",
          "pitch": "G#3"
        }
      ]
    },
    {
      "_": "Treble: 16 notes, Bass: 2 notes",
      "number": 132,
      "notes": [
        {
          "midi": 54,
          "beat": 0,
          "dur": 2,
          "vel": 127,
          "clef": "bass",
          "pitch": "F#3"
        },
        {
          "midi": 63,
          "beat": 0,
          "dur": 0.25,
          "vel": 127,
          "clef": "treble",
          "pitch": "D#4"
        },
        {
          "midi": 61,
          "beat": 0.25,
          "dur": 0.25,
          "vel": 127,
          "clef": "treble",
          "pitch": "C#4"
        },
        {
          "midi": 68,
          "beat": 0.5,
          "dur": 0.25,
          "vel": 127,
          "clef": "treble",
          "pitch": "G#4"
        },
        {
          "midi": 56,
          "beat": 0.75,
          "dur": 0.25,
          "vel": 127,
          "clef": "treble",
          "pitch": "G#3"
        },
        {
          "midi": 63,
          "beat": 1,
          "dur": 0.25,
          "vel": 127,
          "clef": "treble",
          "pitch": "D#4"
        },
        {
          "midi": 61,
          "beat": 1.25,
          "dur": 0.25,
          "vel": 127,
          "clef": "treble",
          "pitch": "C#4"
        },
        {
          "midi": 68,
          "beat": 1.5,
          "dur": 0.25,
          "vel": 127,
          "clef": "treble",
          "pitch": "G#4"
        },
        {
          "midi": 56,
          "beat": 1.75,
          "dur": 0.25,
          "vel": 127,
          "clef": "treble",
          "pitch": "G#3"
        },
        {
          "midi": 53,
          "beat": 2,
          "dur": 2,
          "vel": 127,
          "clef": "bass",
          "pitch": "F3"
        },
        {
          "midi": 63,
          "beat": 2,
          "dur": 0.25,
          "vel": 127,
          "clef": "treble",
          "pitch": "D#4"
        },
        {
          "midi": 61,
          "beat": 2.25,
          "dur": 0.25,
          "vel": 127,
          "clef": "treble",
          "pitch": "C#4"
        },
        {
          "midi": 68,
          "beat": 2.5,
          "dur": 0.25,
          "vel": 127,
          "clef": "treble",
          "pitch": "G#4"
        },
        {
          "midi": 56,
          "beat": 2.75,
          "dur": 0.25,
          "vel": 127,
          "clef": "treble",
          "pitch": "G#3"
        },
        {
          "midi": 63,
          "beat": 3,
          "dur": 0.25,
          "vel": 127,
          "clef": "treble",
          "pitch": "D#4"
        },
        {
          "midi": 61,
          "beat": 3.25,
          "dur": 0.25,
          "vel": 127,
          "clef": "treble",
          "pitch": "C#4"
        },
        {
          "midi": 68,
          "beat": 3.5,
          "dur": 0.25,
          "vel": 127,
          "clef": "treble",
          "pitch": "G#4"
        },
        {
          "midi": 56,
          "beat": 3.75,
          "dur": 0.25,
          "vel": 127,
          "clef": "treble",
          "pitch": "G#3"
        }
      ]
    },
    {
      "_": "Treble: 16 notes, Bass: 3 notes",
      "number": 133,
      "notes": [
        {
          "midi": 51,
          "beat": 0,
          "dur": 2,
          "vel": 127,
          "clef": "bass",
          "pitch": "D#3"
        },
        {
          "midi": 63,
          "beat": 0,
          "dur": 0.25,
          "vel": 127,
          "clef": "treble",
          "pitch": "D#4"
        },
        {
          "midi": 61,
          "beat": 0.25,
          "dur": 0.25,
          "vel": 127,
          "clef": "treble",
          "pitch": "C#4"
        },
        {
          "midi": 68,
          "beat": 0.5,
          "dur": 0.25,
          "vel": 127,
          "clef": "treble",
          "pitch": "G#4"
        },
        {
          "midi": 56,
          "beat": 0.75,
          "dur": 0.25,
          "vel": 127,
          "clef": "treble",
          "pitch": "G#3"
        },
        {
          "midi": 63,
          "beat": 1,
          "dur": 0.25,
          "vel": 127,
          "clef": "treble",
          "pitch": "D#4"
        },
        {
          "midi": 61,
          "beat": 1.25,
          "dur": 0.25,
          "vel": 127,
          "clef": "treble",
          "pitch": "C#4"
        },
        {
          "midi": 68,
          "beat": 1.5,
          "dur": 0.25,
          "vel": 127,
          "clef": "treble",
          "pitch": "G#4"
        },
        {
          "midi": 56,
          "beat": 1.75,
          "dur": 0.25,
          "vel": 127,
          "clef": "treble",
          "pitch": "G#3"
        },
        {
          "midi": 53,
          "beat": 2,
          "dur": 1,
          "vel": 127,
          "clef": "bass",
          "pitch": "F3"
        },
        {
          "midi": 63,
          "beat": 2,
          "dur": 0.25,
          "vel": 127,
          "clef": "treble",
          "pitch": "D#4"
        },
        {
          "midi": 61,
          "beat": 2.25,
          "dur": 0.25,
          "vel": 127,
          "clef": "treble",
          "pitch": "C#4"
        },
        {
          "midi": 68,
          "beat": 2.5,
          "dur": 0.25,
          "vel": 127,
          "clef": "treble",
          "pitch": "G#4"
        },
        {
          "midi": 56,
          "beat": 2.75,
          "dur": 0.25,
          "vel": 127,
          "clef": "treble",
          "pitch": "G#3"
        },
        {
          "midi": 49,
          "beat": 3,
          "dur": 1,
          "vel": 127,
          "clef": "bass",
          "pitch": "C#3"
        },
        {
          "midi": 63,
          "beat": 3,
          "dur": 0.25,
          "vel": 127,
          "clef": "treble",
          "pitch": "D#4"
        },
        {
          "midi": 61,
          "beat": 3.25,
          "dur": 0.25,
          "vel": 127,
          "clef": "treble",
          "pitch": "C#4"
        },
        {
          "midi": 68,
          "beat": 3.5,
          "dur": 0.25,
          "vel": 127,
          "clef": "treble",
          "pitch": "G#4"
        },
        {
          "midi": 56,
          "beat": 3.75,
          "dur": 0.25,
          "vel": 127,
          "clef": "treble",
          "pitch": "G#3"
        }
      ]
    },
    {
      "_": "Treble: 16 notes, Bass: 1 notes",
      "number": 134,
      "notes": [
        {
          "midi": 44,
          "beat": 0,
          "dur": 4,
          "vel": 127,
          "clef": "bass",
          "pitch": "G#2"
        },
        {
          "midi": 63,
          "beat": 0,
          "dur": 0.25,
          "vel": 127,
          "clef": "treble",
          "pitch": "D#4"
        },
        {
          "midi": 61,
          "beat": 0.25,
          "dur": 0.25,
          "vel": 127,
          "clef": "treble",
          "pitch": "C#4"
        },
        {
          "midi": 68,
          "beat": 0.5,
          "dur": 0.25,
          "vel": 127,
          "clef": "treble",
          "pitch": "G#4"
        },
        {
          "midi": 53,
          "beat": 0.75,
          "dur": 0.25,
          "vel": 127,
          "clef": "treble",
          "pitch": "F3"
        },
        {
          "midi": 63,
          "beat": 1,
          "dur": 0.25,
          "vel": 127,
          "clef": "treble",
          "pitch": "D#4"
        },
        {
          "midi": 61,
          "beat": 1.25,
          "dur": 0.25,
          "vel": 127,
          "clef": "treble",
          "pitch": "C#4"
        },
        {
          "midi": 68,
          "beat": 1.5,
          "dur": 0.25,
          "vel": 127,
          "clef": "treble",
          "pitch": "G#4"
        },
        {
          "midi": 53,
          "beat": 1.75,
          "dur": 0.25,
          "vel": 127,
          "clef": "treble",
          "pitch": "F3"
        },
        {
          "midi": 63,
          "beat": 2,
          "dur": 0.25,
          "vel": 127,
          "clef": "treble",
          "pitch": "D#4"
        },
        {
          "midi": 61,
          "beat": 2.25,
          "dur": 0.25,
          "vel": 127,
          "clef": "treble",
          "pitch": "C#4"
        },
        {
          "midi": 68,
          "beat": 2.5,
          "dur": 0.25,
          "vel": 127,
          "clef": "treble",
          "pitch": "G#4"
        },
        {
          "midi": 53,
          "beat": 2.75,
          "dur": 0.25,
          "vel": 127,
          "clef": "treble",
          "pitch": "F3"
        },
        {
          "midi": 63,
          "beat": 3,
          "dur": 0.25,
          "vel": 127,
          "clef": "treble",
          "pitch": "D#4"
        },
        {
          "midi": 61,
          "beat": 3.25,
          "dur": 0.25,
          "vel": 127,
          "clef": "treble",
          "pitch": "C#4"
        },
        {
          "midi": 68,
          "beat": 3.5,
          "dur": 0.25,
          "vel": 127,
          "clef": "treble",
          "pitch": "G#4"
        },
        {
          "midi": 53,
          "beat": 3.75,
          "dur": 0.25,
          "vel": 127,
          "clef": "treble",
          "pitch": "F3"
        }
      ]
    },
    {
      "_": "Treble: 16 notes, Bass: 2 notes",
      "number": 135,
      "notes": [
        {
          "midi": 32,
          "beat": 0,
          "dur": 4,
          "vel": 127,
          "clef": "bass",
          "pitch": "G#1"
        },
        {
          "midi": 44,
          "beat": 0,
          "dur": 4,
          "vel": 127,
          "clef": "bass",
          "pitch": "G#2"
        },
        {
          "midi": 65,
          "beat": 0,
          "dur": 0.35,
          "vel": 127,
          "clef": "treble",
          "pitch": "F4"
        },
        {
          "midi": 63,
          "beat": 0.25,
          "dur": 0.35,
          "vel": 127,
          "clef": "treble",
          "pitch": "D#4"
        },
        {
          "midi": 68,
          "beat": 0.5,
          "dur": 0.35,
          "vel": 127,
          "clef": "treble",
          "pitch": "G#4"
        },
        {
          "midi": 56,
          "beat": 0.75,
          "dur": 0.35,
          "vel": 127,
          "clef": "treble",
          "pitch": "G#3"
        },
        {
          "midi": 65,
          "beat": 1,
          "dur": 0.35,
          "vel": 127,
          "clef": "treble",
          "pitch": "F4"
        },
        {
          "midi": 63,
          "beat": 1.25,
          "dur": 0.35,
          "vel": 127,
          "clef": "treble",
          "pitch": "D#4"
        },
        {
          "midi": 68,
          "beat": 1.5,
          "dur": 0.35,
          "vel": 127,
          "clef": "treble",
          "pitch": "G#4"
        },
        {
          "midi": 56,
          "beat": 1.75,
          "dur": 0.35,
          "vel": 127,
          "clef": "treble",
          "pitch": "G#3"
        },
        {
          "midi": 65,
          "beat": 2,
          "dur": 0.35,
          "vel": 127,
          "clef": "treble",
          "pitch": "F4"
        },
        {
          "midi": 63,
          "beat": 2.25,
          "dur": 0.35,
          "vel": 127,
          "clef": "treble",
          "pitch": "D#4"
        },
        {
          "midi": 68,
          "beat": 2.5,
          "dur": 0.35,
          "vel": 127,
          "clef": "treble",
          "pitch": "G#4"
        },
        {
          "midi": 56,
          "beat": 2.75,
          "dur": 0.35,
          "vel": 127,
          "clef": "treble",
          "pitch": "G#3"
        },
        {
          "midi": 65,
          "beat": 3,
          "dur": 0.35,
          "vel": 127,
          "clef": "treble",
          "pitch": "F4"
        },
        {
          "midi": 63,
          "beat": 3.25,
          "dur": 0.35,
          "vel": 127,
          "clef": "treble",
          "pitch": "D#4"
        },
        {
          "midi": 68,
          "beat": 3.5,
          "dur": 0.35,
          "vel": 127,
          "clef": "treble",
          "pitch": "G#4"
        },
        {
          "midi": 56,
          "beat": 3.75,
          "dur": 0.25,
          "vel": 127,
          "clef": "treble",
          "pitch": "G#3"
        }
      ]
    },
    {
      "_": "Treble: 4 notes, Bass: 2 notes",
      "number": 136,
      "notes": [
        {
          "midi": 37,
          "beat": 0,
          "dur": 4,
          "vel": 127,
          "clef": "bass",
          "pitch": "C#2"
        },
        {
          "midi": 44,
          "beat": 0,
          "dur": 4,
          "vel": 127,
          "clef": "bass",
          "pitch": "G#2"
        },
        {
          "midi": 54,
          "beat": 0,
          "dur": 4,
          "vel": 127,
          "clef": "treble",
          "pitch": "F#3"
        },
        {
          "midi": 56,
          "beat": 0,
          "dur": 4,
          "vel": 127,
          "clef": "treble",
          "pitch": "G#3"
        },
        {
          "midi": 60,
          "beat": 0,
          "dur": 4,
          "vel": 127,
          "clef": "treble",
          "pitch": "C4"
        },
        {
          "midi": 63,
          "beat": 0,
          "dur": 4,
          "vel": 127,
          "clef": "treble",
          "pitch": "D#4"
        }
      ]
    },
    {
      "_": "Treble: 2 notes, Bass: 2 notes",
      "number": 137,
      "notes": [
        {
          "midi": 37,
          "beat": 0,
          "dur": 4,
          "vel": 127,
          "clef": "bass",
          "pitch": "C#2"
        },
        {
          "midi": 44,
          "beat": 0,
          "dur": 4,
          "vel": 127,
          "clef": "bass",
          "pitch": "G#2"
        },
        {
          "midi": 53,
          "beat": 0,
          "dur": 4,
          "vel": 127,
          "clef": "treble",
          "pitch": "F3"
        },
        {
          "midi": 61,
          "beat": 0,
          "dur": 4,
          "vel": 127,
          "clef": "treble",
          "pitch": "C#4"
        }
      ]
    }
  ],
  "_meta": {
    "source": "MIDI",
    "sourceFile": "fantaisie-impromptu.mid",
    "totalNotes": 3014,
    "totalMeasures": 138,
    "tracks": 2
  }
}