{
  "title": "Moonlight Sonata",
  "composer": "Ludwig van Beethoven",
  "key": "E minor",
  "tempo": 50,
  "timeSig": "4/4",
  "beatsPerMeasure": 4,
  "measures": [
    {
      "_": "Treble: 8 notes, Bass: 6 notes",
      "number": 0,
      "notes": [
        {
          "midi": 37,
          "beat": 0,
          "dur": 3.99,
          "vel": 37,
          "clef": "bass",
          "acc": "#",
          "pitch": "C#2"
        },
        {
          "midi": 49,
          "beat": 0,
          "dur": 3.99,
          "vel": 29,
          "clef": "bass",
          "acc": "#",
          "pitch": "C#3"
        },
        {
          "midi": 56,
          "beat": 0,
          "dur": 0.33,
          "vel": 46,
          "clef": "bass",
          "acc": "#",
          "pitch": "G#3"
        },
        {
          "midi": 61,
          "beat": 0.33,
          "dur": 0.33,
          "vel": 30,
          "clef": "treble",
          "acc": "#",
          "pitch": "C#4"
        },
        {
          "midi": 64,
          "beat": 0.67,
          "dur": 0.33,
          "vel": 43,
          "clef": "treble",
          "pitch": "E4"
        },
        {
          "midi": 56,
          "beat": 1,
          "dur": 0.33,
          "vel": 38,
          "clef": "bass",
          "acc": "#",
          "pitch": "G#3"
        },
        {
          "midi": 61,
          "beat": 1.33,
          "dur": 0.33,
          "vel": 29,
          "clef": "treble",
          "acc": "#",
          "pitch": "C#4"
        },
        {
          "midi": 64,
          "beat": 1.67,
          "dur": 0.33,
          "vel": 32,
          "clef": "treble",
          "pitch": "E4"
        },
        {
          "midi": 56,
          "beat": 2,
          "dur": 0.33,
          "vel": 32,
          "clef": "bass",
          "acc": "#",
          "pitch": "G#3"
        },
        {
          "midi": 61,
          "beat": 2.33,
          "dur": 0.33,
          "vel": 25,
          "clef": "treble",
          "acc": "#",
          "pitch": "C#4"
        },
        {
          "midi": 64,
          "beat": 2.67,
          "dur": 0.33,
          "vel": 25,
          "clef": "treble",
          "pitch": "E4"
        },
        {
          "midi": 56,
          "beat": 3,
          "dur": 0.33,
          "vel": 33,
          "clef": "bass",
          "acc": "#",
          "pitch": "G#3"
        },
        {
          "midi": 61,
          "beat": 3.33,
          "dur": 0.33,
          "vel": 29,
          "clef": "treble",
          "acc": "#",
          "pitch": "C#4"
        },
        {
          "midi": 64,
          "beat": 3.67,
          "dur": 0.33,
          "vel": 29,
          "clef": "treble",
          "pitch": "E4"
        }
      ]
    },
    {
      "_": "Treble: 8 notes, Bass: 6 notes",
      "number": 1,
      "notes": [
        {
          "midi": 35,
          "beat": 0,
          "dur": 3.99,
          "vel": 42,
          "clef": "bass",
          "pitch": "B1"
        },
        {
          "midi": 47,
          "beat": 0,
          "dur": 3.99,
          "vel": 38,
          "clef": "bass",
          "pitch": "B2"
        },
        {
          "midi": 56,
          "beat": 0,
          "dur": 0.33,
          "vel": 25,
          "clef": "bass",
          "acc": "#",
          "pitch": "G#3"
        },
        {
          "midi": 61,
          "beat": 0.33,
          "dur": 0.34,
          "vel": 27,
          "clef": "treble",
          "acc": "#",
          "pitch": "C#4"
        },
        {
          "midi": 64,
          "beat": 0.66,
          "dur": 0.33,
          "vel": 27,
          "clef": "treble",
          "pitch": "E4"
        },
        {
          "midi": 56,
          "beat": 1,
          "dur": 0.33,
          "vel": 30,
          "clef": "bass",
          "acc": "#",
          "pitch": "G#3"
        },
        {
          "midi": 61,
          "beat": 1.33,
          "dur": 0.33,
          "vel": 29,
          "clef": "treble",
          "acc": "#",
          "pitch": "C#4"
        },
        {
          "midi": 64,
          "beat": 1.67,
          "dur": 0.33,
          "vel": 27,
          "clef": "treble",
          "pitch": "E4"
        },
        {
          "midi": 56,
          "beat": 2,
          "dur": 0.33,
          "vel": 27,
          "clef": "bass",
          "acc": "#",
          "pitch": "G#3"
        },
        {
          "midi": 61,
          "beat": 2.33,
          "dur": 0.33,
          "vel": 25,
          "clef": "treble",
          "acc": "#",
          "pitch": "C#4"
        },
        {
          "midi": 64,
          "beat": 2.67,
          "dur": 0.33,
          "vel": 34,
          "clef": "treble",
          "pitch": "E4"
        },
        {
          "midi": 56,
          "beat": 3,
          "dur": 0.33,
          "vel": 37,
          "clef": "bass",
          "acc": "#",
          "pitch": "G#3"
        },
        {
          "midi": 61,
          "beat": 3.33,
          "dur": 0.33,
          "vel": 31,
          "clef": "treble",
          "acc": "#",
          "pitch": "C#4"
        },
        {
          "midi": 64,
          "beat": 3.67,
          "dur": 0.33,
          "vel": 37,
          "clef": "treble",
          "pitch": "E4"
        }
      ]
    },
    {
      "_": "Treble: 8 notes, Bass: 8 notes",
      "number": 2,
      "notes": [
        {
          "midi": 33,
          "beat": 0,
          "dur": 1.99,
          "vel": 37,
          "clef": "bass",
          "pitch": "A1"
        },
        {
          "midi": 45,
          "beat": 0,
          "dur": 1.99,
          "vel": 39,
          "clef": "bass",
          "pitch": "A2"
        },
        {
          "midi": 57,
          "beat": 0,
          "dur": 0.33,
          "vel": 41,
          "clef": "bass",
          "pitch": "A3"
        },
        {
          "midi": 61,
          "beat": 0.33,
          "dur": 0.33,
          "vel": 25,
          "clef": "treble",
          "acc": "#",
          "pitch": "C#4"
        },
        {
          "midi": 64,
          "beat": 0.67,
          "dur": 0.33,
          "vel": 33,
          "clef": "treble",
          "pitch": "E4"
        },
        {
          "midi": 57,
          "beat": 1,
          "dur": 0.33,
          "vel": 28,
          "clef": "bass",
          "pitch": "A3"
        },
        {
          "midi": 61,
          "beat": 1.33,
          "dur": 0.33,
          "vel": 33,
          "clef": "treble",
          "acc": "#",
          "pitch": "C#4"
        },
        {
          "midi": 64,
          "beat": 1.67,
          "dur": 0.33,
          "vel": 32,
          "clef": "treble",
          "pitch": "E4"
        },
        {
          "midi": 30,
          "beat": 2,
          "dur": 1.99,
          "vel": 27,
          "clef": "bass",
          "pitch": "F#1"
        },
        {
          "midi": 42,
          "beat": 2,
          "dur": 1.99,
          "vel": 29,
          "clef": "bass",
          "pitch": "F#2"
        },
        {
          "midi": 57,
          "beat": 2,
          "dur": 0.65,
          "vel": 36,
          "clef": "bass",
          "pitch": "A3"
        },
        {
          "midi": 62,
          "beat": 2.33,
          "dur": 0.33,
          "vel": 37,
          "clef": "treble",
          "pitch": "D4"
        },
        {
          "midi": 66,
          "beat": 2.67,
          "dur": 0.33,
          "vel": 42,
          "clef": "treble",
          "pitch": "F#4"
        },
        {
          "midi": 57,
          "beat": 3,
          "dur": 0.33,
          "vel": 33,
          "clef": "bass",
          "pitch": "A3"
        },
        {
          "midi": 62,
          "beat": 3.33,
          "dur": 0.33,
          "vel": 31,
          "clef": "treble",
          "pitch": "D4"
        },
        {
          "midi": 66,
          "beat": 3.67,
          "dur": 0.33,
          "vel": 34,
          "clef": "treble",
          "pitch": "F#4"
        }
      ]
    },
    {
      "_": "Treble: 8 notes, Bass: 8 notes",
      "number": 3,
      "notes": [
        {
          "midi": 32,
          "beat": 0,
          "dur": 1.99,
          "vel": 37,
          "clef": "bass",
          "acc": "#",
          "pitch": "G#1"
        },
        {
          "midi": 44,
          "beat": 0,
          "dur": 1.99,
          "vel": 31,
          "clef": "bass",
          "acc": "#",
          "pitch": "G#2"
        },
        {
          "midi": 56,
          "beat": 0,
          "dur": 0.33,
          "vel": 44,
          "clef": "bass",
          "acc": "#",
          "pitch": "G#3"
        },
        {
          "midi": 60,
          "beat": 0.33,
          "dur": 0.33,
          "vel": 26,
          "clef": "treble",
          "pitch": "C4"
        },
        {
          "midi": 66,
          "beat": 0.67,
          "dur": 0.33,
          "vel": 36,
          "clef": "treble",
          "pitch": "F#4"
        },
        {
          "midi": 56,
          "beat": 1,
          "dur": 0.33,
          "vel": 44,
          "clef": "bass",
          "acc": "#",
          "pitch": "G#3"
        },
        {
          "midi": 61,
          "beat": 1.33,
          "dur": 0.33,
          "vel": 28,
          "clef": "treble",
          "acc": "#",
          "pitch": "C#4"
        },
        {
          "midi": 64,
          "beat": 1.67,
          "dur": 0.33,
          "vel": 33,
          "clef": "treble",
          "pitch": "E4"
        },
        {
          "midi": 32,
          "beat": 2,
          "dur": 1.07,
          "vel": 39,
          "clef": "bass",
          "acc": "#",
          "pitch": "G#1"
        },
        {
          "midi": 44,
          "beat": 2,
          "dur": 1.07,
          "vel": 32,
          "clef": "bass",
          "acc": "#",
          "pitch": "G#2"
        },
        {
          "midi": 56,
          "beat": 2,
          "dur": 0.35,
          "vel": 37,
          "clef": "bass",
          "acc": "#",
          "pitch": "G#3"
        },
        {
          "midi": 61,
          "beat": 2.33,
          "dur": 0.37,
          "vel": 26,
          "clef": "treble",
          "acc": "#",
          "pitch": "C#4"
        },
        {
          "midi": 63,
          "beat": 2.67,
          "dur": 0.35,
          "vel": 46,
          "clef": "treble",
          "acc": "#",
          "pitch": "D#4"
        },
        {
          "midi": 54,
          "beat": 3,
          "dur": 0.35,
          "vel": 39,
          "clef": "bass",
          "pitch": "F#3"
        },
        {
          "midi": 60,
          "beat": 3.33,
          "dur": 0.35,
          "vel": 38,
          "clef": "treble",
          "pitch": "C4"
        },
        {
          "midi": 63,
          "beat": 3.67,
          "dur": 0.33,
          "vel": 25,
          "clef": "treble",
          "acc": "#",
          "pitch": "D#4"
        }
      ]
    },
    {
      "_": "Treble: 9 notes, Bass: 8 notes",
      "number": 4,
      "notes": [
        {
          "midi": 37,
          "beat": 0,
          "dur": 3.99,
          "vel": 25,
          "clef": "bass",
          "acc": "#",
          "pitch": "C#2"
        },
        {
          "midi": 44,
          "beat": 0,
          "dur": 3.99,
          "vel": 33,
          "clef": "bass",
          "acc": "#",
          "pitch": "G#2"
        },
        {
          "midi": 49,
          "beat": 0,
          "dur": 3.99,
          "vel": 23,
          "clef": "bass",
          "acc": "#",
          "pitch": "C#3"
        },
        {
          "midi": 52,
          "beat": 0,
          "dur": 0.33,
          "vel": 36,
          "clef": "bass",
          "pitch": "E3"
        },
        {
          "midi": 56,
          "beat": 0.33,
          "dur": 0.33,
          "vel": 27,
          "clef": "bass",
          "acc": "#",
          "pitch": "G#3"
        },
        {
          "midi": 61,
          "beat": 0.67,
          "dur": 0.33,
          "vel": 35,
          "clef": "treble",
          "acc": "#",
          "pitch": "C#4"
        },
        {
          "midi": 56,
          "beat": 1,
          "dur": 0.33,
          "vel": 36,
          "clef": "bass",
          "acc": "#",
          "pitch": "G#3"
        },
        {
          "midi": 61,
          "beat": 1.33,
          "dur": 0.33,
          "vel": 22,
          "clef": "treble",
          "acc": "#",
          "pitch": "C#4"
        },
        {
          "midi": 64,
          "beat": 1.67,
          "dur": 0.33,
          "vel": 21,
          "clef": "treble",
          "pitch": "E4"
        },
        {
          "midi": 56,
          "beat": 2,
          "dur": 0.33,
          "vel": 42,
          "clef": "bass",
          "acc": "#",
          "pitch": "G#3"
        },
        {
          "midi": 61,
          "beat": 2.33,
          "dur": 0.33,
          "vel": 27,
          "clef": "treble",
          "acc": "#",
          "pitch": "C#4"
        },
        {
          "midi": 64,
          "beat": 2.67,
          "dur": 0.33,
          "vel": 39,
          "clef": "treble",
          "pitch": "E4"
        },
        {
          "midi": 56,
          "beat": 3,
          "dur": 0.33,
          "vel": 46,
          "clef": "bass",
          "acc": "#",
          "pitch": "G#3"
        },
        {
          "midi": 68,
          "beat": 3,
          "dur": 0.75,
          "vel": 55,
          "clef": "treble",
          "acc": "#",
          "pitch": "G#4"
        },
        {
          "midi": 61,
          "beat": 3.33,
          "dur": 0.33,
          "vel": 28,
          "clef": "treble",
          "acc": "#",
          "pitch": "C#4"
        },
        {
          "midi": 64,
          "beat": 3.67,
          "dur": 0.33,
          "vel": 26,
          "clef": "treble",
          "pitch": "E4"
        },
        {
          "midi": 68,
          "beat": 3.75,
          "dur": 0.25,
          "vel": 48,
          "clef": "treble",
          "acc": "#",
          "pitch": "G#4"
        }
      ]
    },
    {
      "_": "Treble: 11 notes, Bass: 7 notes",
      "number": 5,
      "notes": [
        {
          "midi": 36,
          "beat": 0,
          "dur": 3.99,
          "vel": 40,
          "clef": "bass",
          "pitch": "C2"
        },
        {
          "midi": 44,
          "beat": 0,
          "dur": 3.99,
          "vel": 32,
          "clef": "bass",
          "acc": "#",
          "pitch": "G#2"
        },
        {
          "midi": 48,
          "beat": 0,
          "dur": 3.99,
          "vel": 28,
          "clef": "bass",
          "pitch": "C3"
        },
        {
          "midi": 56,
          "beat": 0,
          "dur": 0.33,
          "vel": 43,
          "clef": "bass",
          "acc": "#",
          "pitch": "G#3"
        },
        {
          "midi": 68,
          "beat": 0,
          "dur": 2.99,
          "vel": 55,
          "clef": "treble",
          "acc": "#",
          "pitch": "G#4"
        },
        {
          "midi": 63,
          "beat": 0.33,
          "dur": 0.33,
          "vel": 31,
          "clef": "treble",
          "acc": "#",
          "pitch": "D#4"
        },
        {
          "midi": 66,
          "beat": 0.67,
          "dur": 0.33,
          "vel": 33,
          "clef": "treble",
          "pitch": "F#4"
        },
        {
          "midi": 56,
          "beat": 1,
          "dur": 0.33,
          "vel": 32,
          "clef": "bass",
          "acc": "#",
          "pitch": "G#3"
        },
        {
          "midi": 63,
          "beat": 1.33,
          "dur": 0.33,
          "vel": 26,
          "clef": "treble",
          "acc": "#",
          "pitch": "D#4"
        },
        {
          "midi": 66,
          "beat": 1.67,
          "dur": 0.33,
          "vel": 27,
          "clef": "treble",
          "pitch": "F#4"
        },
        {
          "midi": 56,
          "beat": 2,
          "dur": 0.33,
          "vel": 27,
          "clef": "bass",
          "acc": "#",
          "pitch": "G#3"
        },
        {
          "midi": 63,
          "beat": 2.33,
          "dur": 0.33,
          "vel": 31,
          "clef": "treble",
          "acc": "#",
          "pitch": "D#4"
        },
        {
          "midi": 66,
          "beat": 2.67,
          "dur": 0.33,
          "vel": 33,
          "clef": "treble",
          "pitch": "F#4"
        },
        {
          "midi": 56,
          "beat": 3,
          "dur": 0.33,
          "vel": 32,
          "clef": "bass",
          "acc": "#",
          "pitch": "G#3"
        },
        {
          "midi": 68,
          "beat": 3,
          "dur": 0.75,
          "vel": 49,
          "clef": "treble",
          "acc": "#",
          "pitch": "G#4"
        },
        {
          "midi": 63,
          "beat": 3.33,
          "dur": 0.33,
          "vel": 32,
          "clef": "treble",
          "acc": "#",
          "pitch": "D#4"
        },
        {
          "midi": 66,
          "beat": 3.67,
          "dur": 0.33,
          "vel": 38,
          "clef": "treble",
          "pitch": "F#4"
        },
        {
          "midi": 68,
          "beat": 3.75,
          "dur": 0.25,
          "vel": 52,
          "clef": "treble",
          "acc": "#",
          "pitch": "G#4"
        }
      ]
    },
    {
      "_": "Treble: 10 notes, Bass: 8 notes",
      "number": 6,
      "notes": [
        {
          "midi": 37,
          "beat": 0,
          "dur": 1.99,
          "vel": 37,
          "clef": "bass",
          "acc": "#",
          "pitch": "C#2"
        },
        {
          "midi": 49,
          "beat": 0,
          "dur": 1.99,
          "vel": 34,
          "clef": "bass",
          "acc": "#",
          "pitch": "C#3"
        },
        {
          "midi": 56,
          "beat": 0,
          "dur": 0.33,
          "vel": 54,
          "clef": "bass",
          "acc": "#",
          "pitch": "G#3"
        },
        {
          "midi": 68,
          "beat": 0,
          "dur": 1.99,
          "vel": 61,
          "clef": "treble",
          "acc": "#",
          "pitch": "G#4"
        },
        {
          "midi": 61,
          "beat": 0.33,
          "dur": 0.33,
          "vel": 29,
          "clef": "treble",
          "acc": "#",
          "pitch": "C#4"
        },
        {
          "midi": 64,
          "beat": 0.67,
          "dur": 0.33,
          "vel": 30,
          "clef": "treble",
          "pitch": "E4"
        },
        {
          "midi": 56,
          "beat": 1,
          "dur": 0.33,
          "vel": 23,
          "clef": "bass",
          "acc": "#",
          "pitch": "G#3"
        },
        {
          "midi": 61,
          "beat": 1.33,
          "dur": 0.33,
          "vel": 23,
          "clef": "treble",
          "acc": "#",
          "pitch": "C#4"
        },
        {
          "midi": 64,
          "beat": 1.67,
          "dur": 0.33,
          "vel": 32,
          "clef": "treble",
          "pitch": "E4"
        },
        {
          "midi": 30,
          "beat": 2,
          "dur": 1.99,
          "vel": 33,
          "clef": "bass",
          "pitch": "F#1"
        },
        {
          "midi": 42,
          "beat": 2,
          "dur": 1.99,
          "vel": 28,
          "clef": "bass",
          "pitch": "F#2"
        },
        {
          "midi": 57,
          "beat": 2,
          "dur": 0.34,
          "vel": 38,
          "clef": "bass",
          "pitch": "A3"
        },
        {
          "midi": 69,
          "beat": 2,
          "dur": 1.99,
          "vel": 54,
          "clef": "treble",
          "pitch": "A4"
        },
        {
          "midi": 61,
          "beat": 2.33,
          "dur": 0.33,
          "vel": 26,
          "clef": "treble",
          "acc": "#",
          "pitch": "C#4"
        },
        {
          "midi": 66,
          "beat": 2.67,
          "dur": 0.33,
          "vel": 32,
          "clef": "treble",
          "pitch": "F#4"
        },
        {
          "midi": 57,
          "beat": 3,
          "dur": 0.33,
          "vel": 26,
          "clef": "bass",
          "pitch": "A3"
        },
        {
          "midi": 61,
          "beat": 3.33,
          "dur": 0.33,
          "vel": 27,
          "clef": "treble",
          "acc": "#",
          "pitch": "C#4"
        },
        {
          "midi": 66,
          "beat": 3.67,
          "dur": 0.33,
          "vel": 33,
          "clef": "treble",
          "pitch": "F#4"
        }
      ]
    },
    {
      "_": "Treble: 7 notes, Bass: 12 notes",
      "number": 7,
      "notes": [
        {
          "midi": 35,
          "beat": 0,
          "dur": 1.99,
          "vel": 37,
          "clef": "bass",
          "pitch": "B1"
        },
        {
          "midi": 47,
          "beat": 0,
          "dur": 1.99,
          "vel": 24,
          "clef": "bass",
          "pitch": "B2"
        },
        {
          "midi": 56,
          "beat": 0,
          "dur": 0.33,
          "vel": 25,
          "clef": "bass",
          "acc": "#",
          "pitch": "G#3"
        },
        {
          "midi": 68,
          "beat": 0,
          "dur": 1.99,
          "vel": 51,
          "clef": "treble",
          "acc": "#",
          "pitch": "G#4"
        },
        {
          "midi": 59,
          "beat": 0.33,
          "dur": 0.33,
          "vel": 51,
          "clef": "bass",
          "pitch": "B3"
        },
        {
          "midi": 64,
          "beat": 0.67,
          "dur": 0.33,
          "vel": 40,
          "clef": "treble",
          "pitch": "E4"
        },
        {
          "midi": 56,
          "beat": 1,
          "dur": 0.33,
          "vel": 25,
          "clef": "bass",
          "acc": "#",
          "pitch": "G#3"
        },
        {
          "midi": 59,
          "beat": 1.33,
          "dur": 0.33,
          "vel": 24,
          "clef": "bass",
          "pitch": "B3"
        },
        {
          "midi": 64,
          "beat": 1.67,
          "dur": 0.33,
          "vel": 34,
          "clef": "treble",
          "pitch": "E4"
        },
        {
          "midi": 66,
          "beat": 1.99,
          "dur": 0.43,
          "vel": 53,
          "clef": "treble",
          "pitch": "F#4"
        },
        {
          "midi": 35,
          "beat": 2,
          "dur": 1.99,
          "vel": 25,
          "clef": "bass",
          "pitch": "B1"
        },
        {
          "midi": 47,
          "beat": 2,
          "dur": 1.99,
          "vel": 24,
          "clef": "bass",
          "pitch": "B2"
        },
        {
          "midi": 57,
          "beat": 2,
          "dur": 0.33,
          "vel": 38,
          "clef": "bass",
          "pitch": "A3"
        },
        {
          "midi": 59,
          "beat": 2.33,
          "dur": 0.33,
          "vel": 29,
          "clef": "bass",
          "pitch": "B3"
        },
        {
          "midi": 63,
          "beat": 2.67,
          "dur": 0.33,
          "vel": 18,
          "clef": "treble",
          "acc": "#",
          "pitch": "D#4"
        },
        {
          "midi": 57,
          "beat": 2.92,
          "dur": 0.07,
          "vel": 40,
          "clef": "bass",
          "pitch": "A3"
        },
        {
          "midi": 71,
          "beat": 3,
          "dur": 0.99,
          "vel": 48,
          "clef": "treble",
          "pitch": "B4"
        },
        {
          "midi": 59,
          "beat": 3.33,
          "dur": 0.33,
          "vel": 34,
          "clef": "bass",
          "pitch": "B3"
        },
        {
          "midi": 63,
          "beat": 3.67,
          "dur": 0.33,
          "vel": 40,
          "clef": "treble",
          "acc": "#",
          "pitch": "D#4"
        }
      ]
    },
    {
      "_": "Treble: 5 notes, Bass: 10 notes",
      "number": 8,
      "notes": [
        {
          "midi": 40,
          "beat": 0,
          "dur": 3.99,
          "vel": 36,
          "clef": "bass",
          "pitch": "E2"
        },
        {
          "midi": 52,
          "beat": 0,
          "dur": 3.99,
          "vel": 21,
          "clef": "bass",
          "pitch": "E3"
        },
        {
          "midi": 56,
          "beat": 0,
          "dur": 0.33,
          "vel": 25,
          "clef": "bass",
          "acc": "#",
          "pitch": "G#3"
        },
        {
          "midi": 64,
          "beat": 0,
          "dur": 0.99,
          "vel": 51,
          "clef": "treble",
          "pitch": "E4"
        },
        {
          "midi": 59,
          "beat": 0.33,
          "dur": 0.33,
          "vel": 35,
          "clef": "bass",
          "pitch": "B3"
        },
        {
          "midi": 64,
          "beat": 0.67,
          "dur": 0.33,
          "vel": 25,
          "clef": "treble",
          "pitch": "E4"
        },
        {
          "midi": 56,
          "beat": 1,
          "dur": 0.33,
          "vel": 22,
          "clef": "bass",
          "acc": "#",
          "pitch": "G#3"
        },
        {
          "midi": 59,
          "beat": 1.33,
          "dur": 0.33,
          "vel": 24,
          "clef": "bass",
          "pitch": "B3"
        },
        {
          "midi": 64,
          "beat": 1.67,
          "dur": 0.33,
          "vel": 30,
          "clef": "treble",
          "pitch": "E4"
        },
        {
          "midi": 56,
          "beat": 2,
          "dur": 0.33,
          "vel": 25,
          "clef": "bass",
          "acc": "#",
          "pitch": "G#3"
        },
        {
          "midi": 59,
          "beat": 2.33,
          "dur": 0.33,
          "vel": 24,
          "clef": "bass",
          "pitch": "B3"
        },
        {
          "midi": 64,
          "beat": 2.67,
          "dur": 0.33,
          "vel": 36,
          "clef": "treble",
          "pitch": "E4"
        },
        {
          "midi": 56,
          "beat": 3,
          "dur": 0.33,
          "vel": 27,
          "clef": "bass",
          "acc": "#",
          "pitch": "G#3"
        },
        {
          "midi": 59,
          "beat": 3.33,
          "dur": 0.33,
          "vel": 26,
          "clef": "bass",
          "pitch": "B3"
        },
        {
          "midi": 64,
          "beat": 3.67,
          "dur": 0.33,
          "vel": 28,
          "clef": "treble",
          "pitch": "E4"
        }
      ]
    },
    {
      "_": "Treble: 6 notes, Bass: 10 notes",
      "number": 9,
      "notes": [
        {
          "midi": 40,
          "beat": 0,
          "dur": 3.99,
          "vel": 36,
          "clef": "bass",
          "pitch": "E2"
        },
        {
          "midi": 52,
          "beat": 0,
          "dur": 3.99,
          "vel": 33,
          "clef": "bass",
          "pitch": "E3"
        },
        {
          "midi": 55,
          "beat": 0,
          "dur": 0.33,
          "vel": 36,
          "clef": "bass",
          "pitch": "G3"
        },
        {
          "midi": 59,
          "beat": 0.33,
          "dur": 0.33,
          "vel": 35,
          "clef": "bass",
          "pitch": "B3"
        },
        {
          "midi": 64,
          "beat": 0.67,
          "dur": 0.33,
          "vel": 30,
          "clef": "treble",
          "pitch": "E4"
        },
        {
          "midi": 55,
          "beat": 1,
          "dur": 0.33,
          "vel": 34,
          "clef": "bass",
          "pitch": "G3"
        },
        {
          "midi": 59,
          "beat": 1.33,
          "dur": 0.33,
          "vel": 22,
          "clef": "bass",
          "pitch": "B3"
        },
        {
          "midi": 64,
          "beat": 1.67,
          "dur": 0.33,
          "vel": 27,
          "clef": "treble",
          "pitch": "E4"
        },
        {
          "midi": 55,
          "beat": 2,
          "dur": 0.33,
          "vel": 29,
          "clef": "bass",
          "pitch": "G3"
        },
        {
          "midi": 59,
          "beat": 2.33,
          "dur": 0.33,
          "vel": 24,
          "clef": "bass",
          "pitch": "B3"
        },
        {
          "midi": 64,
          "beat": 2.67,
          "dur": 0.33,
          "vel": 25,
          "clef": "treble",
          "pitch": "E4"
        },
        {
          "midi": 55,
          "beat": 3,
          "dur": 0.33,
          "vel": 41,
          "clef": "bass",
          "pitch": "G3"
        },
        {
          "midi": 67,
          "beat": 3,
          "dur": 0.75,
          "vel": 58,
          "clef": "treble",
          "pitch": "G4"
        },
        {
          "midi": 59,
          "beat": 3.33,
          "dur": 0.33,
          "vel": 33,
          "clef": "bass",
          "pitch": "B3"
        },
        {
          "midi": 64,
          "beat": 3.67,
          "dur": 0.33,
          "vel": 41,
          "clef": "treble",
          "pitch": "E4"
        },
        {
          "midi": 67,
          "beat": 3.75,
          "dur": 0.25,
          "vel": 37,
          "clef": "treble",
          "pitch": "G4"
        }
      ]
    },
    {
      "_": "Treble: 7 notes, Bass: 10 notes",
      "number": 10,
      "notes": [
        {
          "midi": 38,
          "beat": 0,
          "dur": 3.99,
          "vel": 25,
          "clef": "bass",
          "pitch": "D2"
        },
        {
          "midi": 50,
          "beat": 0,
          "dur": 3.99,
          "vel": 19,
          "clef": "bass",
          "pitch": "D3"
        },
        {
          "midi": 55,
          "beat": 0,
          "dur": 0.33,
          "vel": 26,
          "clef": "bass",
          "pitch": "G3"
        },
        {
          "midi": 67,
          "beat": 0,
          "dur": 2.99,
          "vel": 48,
          "clef": "treble",
          "pitch": "G4"
        },
        {
          "midi": 59,
          "beat": 0.33,
          "dur": 0.33,
          "vel": 36,
          "clef": "bass",
          "pitch": "B3"
        },
        {
          "midi": 65,
          "beat": 0.67,
          "dur": 0.33,
          "vel": 41,
          "clef": "treble",
          "pitch": "F4"
        },
        {
          "midi": 55,
          "beat": 1,
          "dur": 0.33,
          "vel": 25,
          "clef": "bass",
          "pitch": "G3"
        },
        {
          "midi": 59,
          "beat": 1.33,
          "dur": 0.33,
          "vel": 25,
          "clef": "bass",
          "pitch": "B3"
        },
        {
          "midi": 65,
          "beat": 1.67,
          "dur": 0.33,
          "vel": 30,
          "clef": "treble",
          "pitch": "F4"
        },
        {
          "midi": 55,
          "beat": 2,
          "dur": 0.33,
          "vel": 26,
          "clef": "bass",
          "pitch": "G3"
        },
        {
          "midi": 59,
          "beat": 2.33,
          "dur": 0.33,
          "vel": 24,
          "clef": "bass",
          "pitch": "B3"
        },
        {
          "midi": 65,
          "beat": 2.67,
          "dur": 0.33,
          "vel": 34,
          "clef": "treble",
          "pitch": "F4"
        },
        {
          "midi": 55,
          "beat": 3,
          "dur": 0.33,
          "vel": 34,
          "clef": "bass",
          "pitch": "G3"
        },
        {
          "midi": 67,
          "beat": 3,
          "dur": 0.75,
          "vel": 55,
          "clef": "treble",
          "pitch": "G4"
        },
        {
          "midi": 59,
          "beat": 3.33,
          "dur": 0.33,
          "vel": 35,
          "clef": "bass",
          "pitch": "B3"
        },
        {
          "midi": 65,
          "beat": 3.67,
          "dur": 0.33,
          "vel": 42,
          "clef": "treble",
          "pitch": "F4"
        },
        {
          "midi": 67,
          "beat": 3.75,
          "dur": 0.25,
          "vel": 56,
          "clef": "treble",
          "pitch": "G4"
        }
      ]
    },
    {
      "_": "Treble: 9 notes, Bass: 11 notes",
      "number": 11,
      "notes": [
        {
          "midi": 36,
          "beat": 0,
          "dur": 0.99,
          "vel": 32,
          "clef": "bass",
          "pitch": "C2"
        },
        {
          "midi": 48,
          "beat": 0,
          "dur": 0.99,
          "vel": 40,
          "clef": "bass",
          "pitch": "C3"
        },
        {
          "midi": 55,
          "beat": 0,
          "dur": 0.33,
          "vel": 40,
          "clef": "bass",
          "pitch": "G3"
        },
        {
          "midi": 67,
          "beat": 0,
          "dur": 2.99,
          "vel": 53,
          "clef": "treble",
          "pitch": "G4"
        },
        {
          "midi": 60,
          "beat": 0.33,
          "dur": 0.33,
          "vel": 37,
          "clef": "treble",
          "pitch": "C4"
        },
        {
          "midi": 64,
          "beat": 0.67,
          "dur": 0.33,
          "vel": 36,
          "clef": "treble",
          "pitch": "E4"
        },
        {
          "midi": 35,
          "beat": 1,
          "dur": 0.99,
          "vel": 46,
          "clef": "bass",
          "pitch": "B1"
        },
        {
          "midi": 47,
          "beat": 1,
          "dur": 0.99,
          "vel": 40,
          "clef": "bass",
          "pitch": "B2"
        },
        {
          "midi": 55,
          "beat": 1,
          "dur": 0.33,
          "vel": 40,
          "clef": "bass",
          "pitch": "G3"
        },
        {
          "midi": 59,
          "beat": 1.33,
          "dur": 0.33,
          "vel": 36,
          "clef": "bass",
          "pitch": "B3"
        },
        {
          "midi": 64,
          "beat": 1.67,
          "dur": 0.33,
          "vel": 29,
          "clef": "treble",
          "pitch": "E4"
        },
        {
          "midi": 34,
          "beat": 2,
          "dur": 1.99,
          "vel": 37,
          "clef": "bass",
          "acc": "#",
          "pitch": "A#1"
        },
        {
          "midi": 46,
          "beat": 2,
          "dur": 1.99,
          "vel": 38,
          "clef": "bass",
          "acc": "#",
          "pitch": "A#2"
        },
        {
          "midi": 55,
          "beat": 2,
          "dur": 0.33,
          "vel": 52,
          "clef": "bass",
          "pitch": "G3"
        },
        {
          "midi": 61,
          "beat": 2.33,
          "dur": 0.33,
          "vel": 38,
          "clef": "treble",
          "acc": "#",
          "pitch": "C#4"
        },
        {
          "midi": 64,
          "beat": 2.67,
          "dur": 0.33,
          "vel": 36,
          "clef": "treble",
          "pitch": "E4"
        },
        {
          "midi": 54,
          "beat": 3,
          "dur": 0.33,
          "vel": 47,
          "clef": "bass",
          "pitch": "F#3"
        },
        {
          "midi": 66,
          "beat": 3,
          "dur": 0.99,
          "vel": 60,
          "clef": "treble",
          "pitch": "F#4"
        },
        {
          "midi": 61,
          "beat": 3.33,
          "dur": 0.33,
          "vel": 43,
          "clef": "treble",
          "acc": "#",
          "pitch": "C#4"
        },
        {
          "midi": 64,
          "beat": 3.67,
          "dur": 0.33,
          "vel": 36,
          "clef": "treble",
          "pitch": "E4"
        }
      ]
    },
    {
      "_": "Treble: 7 notes, Bass: 12 notes",
      "number": 12,
      "notes": [
        {
          "midi": 35,
          "beat": 0,
          "dur": 1.99,
          "vel": 34,
          "clef": "bass",
          "pitch": "B1"
        },
        {
          "midi": 47,
          "beat": 0,
          "dur": 1.99,
          "vel": 40,
          "clef": "bass",
          "pitch": "B2"
        },
        {
          "midi": 54,
          "beat": 0,
          "dur": 0.33,
          "vel": 32,
          "clef": "bass",
          "pitch": "F#3"
        },
        {
          "midi": 66,
          "beat": 0,
          "dur": 1.99,
          "vel": 43,
          "clef": "treble",
          "pitch": "F#4"
        },
        {
          "midi": 59,
          "beat": 0.33,
          "dur": 0.33,
          "vel": 27,
          "clef": "bass",
          "pitch": "B3"
        },
        {
          "midi": 62,
          "beat": 0.67,
          "dur": 0.33,
          "vel": 25,
          "clef": "treble",
          "pitch": "D4"
        },
        {
          "midi": 54,
          "beat": 1,
          "dur": 0.33,
          "vel": 30,
          "clef": "bass",
          "pitch": "F#3"
        },
        {
          "midi": 59,
          "beat": 1.33,
          "dur": 0.33,
          "vel": 37,
          "clef": "bass",
          "pitch": "B3"
        },
        {
          "midi": 62,
          "beat": 1.67,
          "dur": 0.33,
          "vel": 33,
          "clef": "treble",
          "pitch": "D4"
        },
        {
          "midi": 40,
          "beat": 2,
          "dur": 0.99,
          "vel": 43,
          "clef": "bass",
          "pitch": "E2"
        },
        {
          "midi": 55,
          "beat": 2,
          "dur": 0.33,
          "vel": 48,
          "clef": "bass",
          "pitch": "G3"
        },
        {
          "midi": 67,
          "beat": 2,
          "dur": 0.99,
          "vel": 58,
          "clef": "treble",
          "pitch": "G4"
        },
        {
          "midi": 59,
          "beat": 2.33,
          "dur": 0.33,
          "vel": 42,
          "clef": "bass",
          "pitch": "B3"
        },
        {
          "midi": 61,
          "beat": 2.67,
          "dur": 0.33,
          "vel": 47,
          "clef": "treble",
          "acc": "#",
          "pitch": "C#4"
        },
        {
          "midi": 43,
          "beat": 3,
          "dur": 0.33,
          "vel": 44,
          "clef": "bass",
          "pitch": "G2"
        },
        {
          "midi": 52,
          "beat": 3,
          "dur": 0.99,
          "vel": 47,
          "clef": "bass",
          "pitch": "E3"
        },
        {
          "midi": 64,
          "beat": 3,
          "dur": 0.99,
          "vel": 54,
          "clef": "treble",
          "pitch": "E4"
        },
        {
          "midi": 59,
          "beat": 3.33,
          "dur": 0.33,
          "vel": 43,
          "clef": "bass",
          "pitch": "B3"
        },
        {
          "midi": 61,
          "beat": 3.67,
          "dur": 0.33,
          "vel": 54,
          "clef": "treble",
          "acc": "#",
          "pitch": "C#4"
        }
      ]
    },
    {
      "_": "Treble: 6 notes, Bass: 11 notes",
      "number": 13,
      "notes": [
        {
          "midi": 42,
          "beat": 0,
          "dur": 1.99,
          "vel": 34,
          "clef": "bass",
          "pitch": "F#2"
        },
        {
          "midi": 54,
          "beat": 0,
          "dur": 0.33,
          "vel": 39,
          "clef": "bass",
          "pitch": "F#3"
        },
        {
          "midi": 66,
          "beat": 0,
          "dur": 1.99,
          "vel": 54,
          "clef": "treble",
          "pitch": "F#4"
        },
        {
          "midi": 59,
          "beat": 0.33,
          "dur": 0.33,
          "vel": 31,
          "clef": "bass",
          "pitch": "B3"
        },
        {
          "midi": 62,
          "beat": 0.67,
          "dur": 0.33,
          "vel": 37,
          "clef": "treble",
          "pitch": "D4"
        },
        {
          "midi": 54,
          "beat": 1,
          "dur": 0.99,
          "vel": 30,
          "clef": "bass",
          "pitch": "F#3"
        },
        {
          "midi": 59,
          "beat": 1.33,
          "dur": 0.33,
          "vel": 27,
          "clef": "bass",
          "pitch": "B3"
        },
        {
          "midi": 62,
          "beat": 1.67,
          "dur": 0.33,
          "vel": 37,
          "clef": "treble",
          "pitch": "D4"
        },
        {
          "midi": 30,
          "beat": 2,
          "dur": 2,
          "vel": 34,
          "clef": "bass",
          "pitch": "F#1"
        },
        {
          "midi": 42,
          "beat": 2,
          "dur": 2,
          "vel": 34,
          "clef": "bass",
          "pitch": "F#2"
        },
        {
          "midi": 54,
          "beat": 2,
          "dur": 0.35,
          "vel": 31,
          "clef": "bass",
          "pitch": "F#3"
        },
        {
          "midi": 66,
          "beat": 2,
          "dur": 2,
          "vel": 48,
          "clef": "treble",
          "pitch": "F#4"
        },
        {
          "midi": 58,
          "beat": 2.33,
          "dur": 0.37,
          "vel": 30,
          "clef": "bass",
          "acc": "#",
          "pitch": "A#3"
        },
        {
          "midi": 61,
          "beat": 2.67,
          "dur": 0.35,
          "vel": 37,
          "clef": "treble",
          "acc": "#",
          "pitch": "C#4"
        },
        {
          "midi": 54,
          "beat": 3,
          "dur": 0.35,
          "vel": 27,
          "clef": "bass",
          "pitch": "F#3"
        },
        {
          "midi": 58,
          "beat": 3.33,
          "dur": 0.35,
          "vel": 32,
          "clef": "bass",
          "acc": "#",
          "pitch": "A#3"
        },
        {
          "midi": 61,
          "beat": 3.67,
          "dur": 0.33,
          "vel": 30,
          "clef": "treble",
          "acc": "#",
          "pitch": "C#4"
        }
      ]
    },
    {
      "_": "Treble: 9 notes, Bass: 7 notes",
      "number": 14,
      "notes": [
        {
          "midi": 35,
          "beat": 0,
          "dur": 4,
          "vel": 42,
          "clef": "bass",
          "pitch": "B1"
        },
        {
          "midi": 47,
          "beat": 0,
          "dur": 4,
          "vel": 40,
          "clef": "bass",
          "pitch": "B2"
        },
        {
          "midi": 59,
          "beat": 0,
          "dur": 0.33,
          "vel": 30,
          "clef": "bass",
          "pitch": "B3"
        },
        {
          "midi": 62,
          "beat": 0.33,
          "dur": 0.33,
          "vel": 24,
          "clef": "treble",
          "pitch": "D4"
        },
        {
          "midi": 66,
          "beat": 0.67,
          "dur": 0.33,
          "vel": 31,
          "clef": "treble",
          "pitch": "F#4"
        },
        {
          "midi": 59,
          "beat": 1,
          "dur": 0.33,
          "vel": 48,
          "clef": "bass",
          "pitch": "B3"
        },
        {
          "midi": 62,
          "beat": 1.33,
          "dur": 0.33,
          "vel": 39,
          "clef": "treble",
          "pitch": "D4"
        },
        {
          "midi": 66,
          "beat": 1.67,
          "dur": 0.33,
          "vel": 40,
          "clef": "treble",
          "pitch": "F#4"
        },
        {
          "midi": 59,
          "beat": 2,
          "dur": 0.33,
          "vel": 46,
          "clef": "bass",
          "pitch": "B3"
        },
        {
          "midi": 63,
          "beat": 2.33,
          "dur": 0.33,
          "vel": 49,
          "clef": "treble",
          "acc": "#",
          "pitch": "D#4"
        },
        {
          "midi": 66,
          "beat": 2.67,
          "dur": 0.33,
          "vel": 49,
          "clef": "treble",
          "pitch": "F#4"
        },
        {
          "midi": 59,
          "beat": 3,
          "dur": 0.33,
          "vel": 56,
          "clef": "bass",
          "pitch": "B3"
        },
        {
          "midi": 71,
          "beat": 3,
          "dur": 0.99,
          "vel": 66,
          "clef": "treble",
          "pitch": "B4"
        },
        {
          "midi": 63,
          "beat": 3.33,
          "dur": 0.33,
          "vel": 34,
          "clef": "treble",
          "acc": "#",
          "pitch": "D#4"
        },
        {
          "midi": 66,
          "beat": 3.67,
          "dur": 0.33,
          "vel": 40,
          "clef": "treble",
          "pitch": "F#4"
        },
        {
          "midi": 59,
          "beat": 3.92,
          "dur": 0.08,
          "vel": 49,
          "clef": "bass",
          "pitch": "B3"
        }
      ]
    },
    {
      "_": "Treble: 10 notes, Bass: 9 notes",
      "number": 15,
      "notes": [
        {
          "midi": 72,
          "beat": 0,
          "dur": 2.99,
          "vel": 82,
          "clef": "treble",
          "pitch": "C5"
        },
        {
          "midi": 64,
          "beat": 0.33,
          "dur": 0.33,
          "vel": 52,
          "clef": "treble",
          "pitch": "E4"
        },
        {
          "midi": 67,
          "beat": 0.67,
          "dur": 0.33,
          "vel": 33,
          "clef": "treble",
          "pitch": "G4"
        },
        {
          "midi": 40,
          "beat": 1,
          "dur": 0.99,
          "vel": 52,
          "clef": "bass",
          "pitch": "E2"
        },
        {
          "midi": 52,
          "beat": 1,
          "dur": 0.99,
          "vel": 53,
          "clef": "bass",
          "pitch": "E3"
        },
        {
          "midi": 59,
          "beat": 1,
          "dur": 0.78,
          "vel": 42,
          "clef": "bass",
          "pitch": "B3"
        },
        {
          "midi": 64,
          "beat": 1.32,
          "dur": 0.33,
          "vel": 40,
          "clef": "treble",
          "pitch": "E4"
        },
        {
          "midi": 67,
          "beat": 1.67,
          "dur": 0.33,
          "vel": 24,
          "clef": "treble",
          "pitch": "G4"
        },
        {
          "midi": 43,
          "beat": 2,
          "dur": 0.99,
          "vel": 77,
          "clef": "bass",
          "pitch": "G2"
        },
        {
          "midi": 55,
          "beat": 2,
          "dur": 0.99,
          "vel": 81,
          "clef": "bass",
          "pitch": "G3"
        },
        {
          "midi": 59,
          "beat": 2,
          "dur": 0.33,
          "vel": 57,
          "clef": "bass",
          "pitch": "B3"
        },
        {
          "midi": 64,
          "beat": 2.33,
          "dur": 0.33,
          "vel": 41,
          "clef": "treble",
          "pitch": "E4"
        },
        {
          "midi": 67,
          "beat": 2.67,
          "dur": 0.33,
          "vel": 55,
          "clef": "treble",
          "pitch": "G4"
        },
        {
          "midi": 40,
          "beat": 3,
          "dur": 0.99,
          "vel": 34,
          "clef": "bass",
          "pitch": "E2"
        },
        {
          "midi": 52,
          "beat": 3,
          "dur": 0.99,
          "vel": 51,
          "clef": "bass",
          "pitch": "E3"
        },
        {
          "midi": 59,
          "beat": 3,
          "dur": 0.33,
          "vel": 47,
          "clef": "bass",
          "pitch": "B3"
        },
        {
          "midi": 70,
          "beat": 3,
          "dur": 0.99,
          "vel": 54,
          "clef": "treble",
          "acc": "#",
          "pitch": "A#4"
        },
        {
          "midi": 64,
          "beat": 3.33,
          "dur": 0.33,
          "vel": 31,
          "clef": "treble",
          "pitch": "E4"
        },
        {
          "midi": 67,
          "beat": 3.67,
          "dur": 0.33,
          "vel": 34,
          "clef": "treble",
          "pitch": "G4"
        }
      ]
    },
    {
      "_": "Treble: 10 notes, Bass: 7 notes",
      "number": 16,
      "notes": [
        {
          "midi": 35,
          "beat": 0,
          "dur": 4,
          "vel": 33,
          "clef": "bass",
          "pitch": "B1"
        },
        {
          "midi": 47,
          "beat": 0,
          "dur": 4,
          "vel": 29,
          "clef": "bass",
          "pitch": "B2"
        },
        {
          "midi": 59,
          "beat": 0,
          "dur": 0.33,
          "vel": 24,
          "clef": "bass",
          "pitch": "B3"
        },
        {
          "midi": 71,
          "beat": 0,
          "dur": 2.99,
          "vel": 44,
          "clef": "treble",
          "pitch": "B4"
        },
        {
          "midi": 63,
          "beat": 0.33,
          "dur": 0.33,
          "vel": 32,
          "clef": "treble",
          "acc": "#",
          "pitch": "D#4"
        },
        {
          "midi": 66,
          "beat": 0.67,
          "dur": 0.33,
          "vel": 30,
          "clef": "treble",
          "pitch": "F#4"
        },
        {
          "midi": 59,
          "beat": 1,
          "dur": 0.33,
          "vel": 30,
          "clef": "bass",
          "pitch": "B3"
        },
        {
          "midi": 63,
          "beat": 1.33,
          "dur": 0.33,
          "vel": 25,
          "clef": "treble",
          "acc": "#",
          "pitch": "D#4"
        },
        {
          "midi": 66,
          "beat": 1.67,
          "dur": 0.33,
          "vel": 30,
          "clef": "treble",
          "pitch": "F#4"
        },
        {
          "midi": 59,
          "beat": 2,
          "dur": 0.33,
          "vel": 19,
          "clef": "bass",
          "pitch": "B3"
        },
        {
          "midi": 63,
          "beat": 2.33,
          "dur": 0.33,
          "vel": 34,
          "clef": "treble",
          "acc": "#",
          "pitch": "D#4"
        },
        {
          "midi": 66,
          "beat": 2.67,
          "dur": 0.33,
          "vel": 36,
          "clef": "treble",
          "pitch": "F#4"
        },
        {
          "midi": 59,
          "beat": 3,
          "dur": 0.33,
          "vel": 44,
          "clef": "bass",
          "pitch": "B3"
        },
        {
          "midi": 71,
          "beat": 3,
          "dur": 0.99,
          "vel": 62,
          "clef": "treble",
          "pitch": "B4"
        },
        {
          "midi": 63,
          "beat": 3.33,
          "dur": 0.4,
          "vel": 34,
          "clef": "treble",
          "acc": "#",
          "pitch": "D#4"
        },
        {
          "midi": 66,
          "beat": 3.67,
          "dur": 0.19,
          "vel": 33,
          "clef": "treble",
          "pitch": "F#4"
        },
        {
          "midi": 59,
          "beat": 3.92,
          "dur": 0.08,
          "vel": 34,
          "clef": "bass",
          "pitch": "B3"
        }
      ]
    },
    {
      "_": "Treble: 10 notes, Bass: 9 notes",
      "number": 17,
      "notes": [
        {
          "midi": 72,
          "beat": 0,
          "dur": 2.99,
          "vel": 76,
          "clef": "treble",
          "pitch": "C5"
        },
        {
          "midi": 64,
          "beat": 0.33,
          "dur": 0.33,
          "vel": 26,
          "clef": "treble",
          "pitch": "E4"
        },
        {
          "midi": 67,
          "beat": 0.67,
          "dur": 0.33,
          "vel": 28,
          "clef": "treble",
          "pitch": "G4"
        },
        {
          "midi": 40,
          "beat": 1,
          "dur": 0.99,
          "vel": 48,
          "clef": "bass",
          "pitch": "E2"
        },
        {
          "midi": 52,
          "beat": 1,
          "dur": 0.99,
          "vel": 46,
          "clef": "bass",
          "pitch": "E3"
        },
        {
          "midi": 59,
          "beat": 1,
          "dur": 0.33,
          "vel": 37,
          "clef": "bass",
          "pitch": "B3"
        },
        {
          "midi": 64,
          "beat": 1.33,
          "dur": 0.33,
          "vel": 31,
          "clef": "treble",
          "pitch": "E4"
        },
        {
          "midi": 67,
          "beat": 1.67,
          "dur": 0.33,
          "vel": 36,
          "clef": "treble",
          "pitch": "G4"
        },
        {
          "midi": 43,
          "beat": 2,
          "dur": 0.99,
          "vel": 68,
          "clef": "bass",
          "pitch": "G2"
        },
        {
          "midi": 55,
          "beat": 2,
          "dur": 0.99,
          "vel": 74,
          "clef": "bass",
          "pitch": "G3"
        },
        {
          "midi": 59,
          "beat": 2,
          "dur": 0.33,
          "vel": 62,
          "clef": "bass",
          "pitch": "B3"
        },
        {
          "midi": 64,
          "beat": 2.33,
          "dur": 0.33,
          "vel": 36,
          "clef": "treble",
          "pitch": "E4"
        },
        {
          "midi": 67,
          "beat": 2.67,
          "dur": 0.33,
          "vel": 39,
          "clef": "treble",
          "pitch": "G4"
        },
        {
          "midi": 40,
          "beat": 3,
          "dur": 0.99,
          "vel": 34,
          "clef": "bass",
          "pitch": "E2"
        },
        {
          "midi": 52,
          "beat": 3,
          "dur": 0.99,
          "vel": 47,
          "clef": "bass",
          "pitch": "E3"
        },
        {
          "midi": 59,
          "beat": 3,
          "dur": 0.33,
          "vel": 47,
          "clef": "bass",
          "pitch": "B3"
        },
        {
          "midi": 70,
          "beat": 3,
          "dur": 0.99,
          "vel": 58,
          "clef": "treble",
          "acc": "#",
          "pitch": "A#4"
        },
        {
          "midi": 64,
          "beat": 3.33,
          "dur": 0.33,
          "vel": 25,
          "clef": "treble",
          "pitch": "E4"
        },
        {
          "midi": 67,
          "beat": 3.67,
          "dur": 0.33,
          "vel": 22,
          "clef": "treble",
          "pitch": "G4"
        }
      ]
    },
    {
      "_": "Treble: 10 notes, Bass: 8 notes",
      "number": 18,
      "notes": [
        {
          "midi": 35,
          "beat": 0,
          "dur": 2.07,
          "vel": 53,
          "clef": "bass",
          "pitch": "B1"
        },
        {
          "midi": 47,
          "beat": 0,
          "dur": 2.07,
          "vel": 31,
          "clef": "bass",
          "pitch": "B2"
        },
        {
          "midi": 59,
          "beat": 0,
          "dur": 0.33,
          "vel": 33,
          "clef": "bass",
          "pitch": "B3"
        },
        {
          "midi": 71,
          "beat": 0,
          "dur": 2.07,
          "vel": 47,
          "clef": "treble",
          "pitch": "B4"
        },
        {
          "midi": 63,
          "beat": 0.33,
          "dur": 0.33,
          "vel": 27,
          "clef": "treble",
          "acc": "#",
          "pitch": "D#4"
        },
        {
          "midi": 66,
          "beat": 0.67,
          "dur": 0.33,
          "vel": 27,
          "clef": "treble",
          "pitch": "F#4"
        },
        {
          "midi": 59,
          "beat": 1,
          "dur": 0.35,
          "vel": 28,
          "clef": "bass",
          "pitch": "B3"
        },
        {
          "midi": 63,
          "beat": 1.33,
          "dur": 0.37,
          "vel": 31,
          "clef": "treble",
          "acc": "#",
          "pitch": "D#4"
        },
        {
          "midi": 66,
          "beat": 1.67,
          "dur": 0.35,
          "vel": 34,
          "clef": "treble",
          "pitch": "F#4"
        },
        {
          "midi": 32,
          "beat": 2,
          "dur": 2,
          "vel": 32,
          "clef": "bass",
          "acc": "#",
          "pitch": "G#1"
        },
        {
          "midi": 44,
          "beat": 2,
          "dur": 2,
          "vel": 36,
          "clef": "bass",
          "acc": "#",
          "pitch": "G#2"
        },
        {
          "midi": 59,
          "beat": 2,
          "dur": 0.35,
          "vel": 28,
          "clef": "bass",
          "pitch": "B3"
        },
        {
          "midi": 71,
          "beat": 2,
          "dur": 2,
          "vel": 41,
          "clef": "treble",
          "pitch": "B4"
        },
        {
          "midi": 62,
          "beat": 2.33,
          "dur": 0.35,
          "vel": 22,
          "clef": "treble",
          "pitch": "D4"
        },
        {
          "midi": 65,
          "beat": 2.67,
          "dur": 0.35,
          "vel": 33,
          "clef": "treble",
          "pitch": "F4"
        },
        {
          "midi": 59,
          "beat": 3,
          "dur": 0.33,
          "vel": 29,
          "clef": "bass",
          "pitch": "B3"
        },
        {
          "midi": 62,
          "beat": 3.33,
          "dur": 0.33,
          "vel": 31,
          "clef": "treble",
          "pitch": "D4"
        },
        {
          "midi": 65,
          "beat": 3.67,
          "dur": 0.33,
          "vel": 32,
          "clef": "treble",
          "pitch": "F4"
        }
      ]
    },
    {
      "_": "Treble: 10 notes, Bass: 8 notes",
      "number": 19,
      "notes": [
        {
          "midi": 29,
          "beat": 0,
          "dur": 1.99,
          "vel": 39,
          "clef": "bass",
          "pitch": "F1"
        },
        {
          "midi": 41,
          "beat": 0,
          "dur": 1.99,
          "vel": 34,
          "clef": "bass",
          "pitch": "F2"
        },
        {
          "midi": 59,
          "beat": 0,
          "dur": 0.33,
          "vel": 31,
          "clef": "bass",
          "pitch": "B3"
        },
        {
          "midi": 71,
          "beat": 0,
          "dur": 1.99,
          "vel": 45,
          "clef": "treble",
          "pitch": "B4"
        },
        {
          "midi": 61,
          "beat": 0.33,
          "dur": 0.33,
          "vel": 29,
          "clef": "treble",
          "acc": "#",
          "pitch": "C#4"
        },
        {
          "midi": 68,
          "beat": 0.67,
          "dur": 0.33,
          "vel": 32,
          "clef": "treble",
          "acc": "#",
          "pitch": "G#4"
        },
        {
          "midi": 59,
          "beat": 1,
          "dur": 0.33,
          "vel": 25,
          "clef": "bass",
          "pitch": "B3"
        },
        {
          "midi": 61,
          "beat": 1.33,
          "dur": 0.33,
          "vel": 29,
          "clef": "treble",
          "acc": "#",
          "pitch": "C#4"
        },
        {
          "midi": 68,
          "beat": 1.67,
          "dur": 0.33,
          "vel": 25,
          "clef": "treble",
          "acc": "#",
          "pitch": "G#4"
        },
        {
          "midi": 30,
          "beat": 2,
          "dur": 1.99,
          "vel": 28,
          "clef": "bass",
          "pitch": "F#1"
        },
        {
          "midi": 42,
          "beat": 2,
          "dur": 1.99,
          "vel": 38,
          "clef": "bass",
          "pitch": "F#2"
        },
        {
          "midi": 57,
          "beat": 2,
          "dur": 0.33,
          "vel": 26,
          "clef": "bass",
          "pitch": "A3"
        },
        {
          "midi": 69,
          "beat": 2,
          "dur": 1.99,
          "vel": 60,
          "clef": "treble",
          "pitch": "A4"
        },
        {
          "midi": 61,
          "beat": 2.33,
          "dur": 0.33,
          "vel": 25,
          "clef": "treble",
          "acc": "#",
          "pitch": "C#4"
        },
        {
          "midi": 66,
          "beat": 2.67,
          "dur": 0.33,
          "vel": 31,
          "clef": "treble",
          "pitch": "F#4"
        },
        {
          "midi": 57,
          "beat": 3,
          "dur": 0.33,
          "vel": 36,
          "clef": "bass",
          "pitch": "A3"
        },
        {
          "midi": 61,
          "beat": 3.33,
          "dur": 0.33,
          "vel": 23,
          "clef": "treble",
          "acc": "#",
          "pitch": "C#4"
        },
        {
          "midi": 66,
          "beat": 3.67,
          "dur": 0.33,
          "vel": 38,
          "clef": "treble",
          "pitch": "F#4"
        }
      ]
    },
    {
      "_": "Treble: 6 notes, Bass: 12 notes",
      "number": 20,
      "notes": [
        {
          "midi": 35,
          "beat": 0,
          "dur": 1.99,
          "vel": 38,
          "clef": "bass",
          "pitch": "B1"
        },
        {
          "midi": 47,
          "beat": 0,
          "dur": 1.99,
          "vel": 51,
          "clef": "bass",
          "pitch": "B2"
        },
        {
          "midi": 55,
          "beat": 0,
          "dur": 0.33,
          "vel": 48,
          "clef": "bass",
          "pitch": "G3"
        },
        {
          "midi": 67,
          "beat": 0,
          "dur": 1.99,
          "vel": 67,
          "clef": "treble",
          "pitch": "G4"
        },
        {
          "midi": 59,
          "beat": 0.33,
          "dur": 0.33,
          "vel": 31,
          "clef": "bass",
          "pitch": "B3"
        },
        {
          "midi": 62,
          "beat": 0.67,
          "dur": 0.33,
          "vel": 42,
          "clef": "treble",
          "pitch": "D4"
        },
        {
          "midi": 55,
          "beat": 1,
          "dur": 0.33,
          "vel": 48,
          "clef": "bass",
          "pitch": "G3"
        },
        {
          "midi": 59,
          "beat": 1.33,
          "dur": 0.33,
          "vel": 36,
          "clef": "bass",
          "pitch": "B3"
        },
        {
          "midi": 62,
          "beat": 1.67,
          "dur": 0.33,
          "vel": 58,
          "clef": "treble",
          "pitch": "D4"
        },
        {
          "midi": 36,
          "beat": 2,
          "dur": 1.99,
          "vel": 36,
          "clef": "bass",
          "pitch": "C2"
        },
        {
          "midi": 48,
          "beat": 2,
          "dur": 1.99,
          "vel": 49,
          "clef": "bass",
          "pitch": "C3"
        },
        {
          "midi": 54,
          "beat": 2,
          "dur": 0.33,
          "vel": 37,
          "clef": "bass",
          "pitch": "F#3"
        },
        {
          "midi": 66,
          "beat": 2,
          "dur": 1.99,
          "vel": 62,
          "clef": "treble",
          "pitch": "F#4"
        },
        {
          "midi": 57,
          "beat": 2.33,
          "dur": 0.33,
          "vel": 34,
          "clef": "bass",
          "pitch": "A3"
        },
        {
          "midi": 63,
          "beat": 2.67,
          "dur": 0.33,
          "vel": 55,
          "clef": "treble",
          "acc": "#",
          "pitch": "D#4"
        },
        {
          "midi": 54,
          "beat": 3,
          "dur": 0.33,
          "vel": 26,
          "clef": "bass",
          "pitch": "F#3"
        },
        {
          "midi": 57,
          "beat": 3.33,
          "dur": 0.33,
          "vel": 24,
          "clef": "bass",
          "pitch": "A3"
        },
        {
          "midi": 63,
          "beat": 3.67,
          "dur": 0.33,
          "vel": 37,
          "clef": "treble",
          "acc": "#",
          "pitch": "D#4"
        }
      ]
    },
    {
      "_": "Treble: 3 notes, Bass: 15 notes",
      "number": 21,
      "notes": [
        {
          "midi": 37,
          "beat": 0,
          "dur": 2.12,
          "vel": 29,
          "clef": "bass",
          "acc": "#",
          "pitch": "C#2"
        },
        {
          "midi": 49,
          "beat": 0,
          "dur": 0.35,
          "vel": 28,
          "clef": "bass",
          "acc": "#",
          "pitch": "C#3"
        },
        {
          "midi": 61,
          "beat": 0,
          "dur": 2.12,
          "vel": 32,
          "clef": "treble",
          "acc": "#",
          "pitch": "C#4"
        },
        {
          "midi": 54,
          "beat": 0.33,
          "dur": 0.35,
          "vel": 18,
          "clef": "bass",
          "pitch": "F#3"
        },
        {
          "midi": 57,
          "beat": 0.67,
          "dur": 0.35,
          "vel": 36,
          "clef": "bass",
          "pitch": "A3"
        },
        {
          "midi": 49,
          "beat": 1,
          "dur": 0.36,
          "vel": 34,
          "clef": "bass",
          "acc": "#",
          "pitch": "C#3"
        },
        {
          "midi": 54,
          "beat": 1.33,
          "dur": 0.36,
          "vel": 29,
          "clef": "bass",
          "pitch": "F#3"
        },
        {
          "midi": 57,
          "beat": 1.67,
          "dur": 0.36,
          "vel": 38,
          "clef": "bass",
          "pitch": "A3"
        },
        {
          "midi": 37,
          "beat": 2,
          "dur": 1.15,
          "vel": 37,
          "clef": "bass",
          "acc": "#",
          "pitch": "C#2"
        },
        {
          "midi": 49,
          "beat": 2,
          "dur": 0.39,
          "vel": 25,
          "clef": "bass",
          "acc": "#",
          "pitch": "C#3"
        },
        {
          "midi": 61,
          "beat": 2,
          "dur": 1.15,
          "vel": 46,
          "clef": "treble",
          "acc": "#",
          "pitch": "C#4"
        },
        {
          "midi": 54,
          "beat": 2.33,
          "dur": 0.39,
          "vel": 25,
          "clef": "bass",
          "pitch": "F#3"
        },
        {
          "midi": 56,
          "beat": 2.67,
          "dur": 0.39,
          "vel": 30,
          "clef": "bass",
          "acc": "#",
          "pitch": "G#3"
        },
        {
          "midi": 37,
          "beat": 3,
          "dur": 0.4,
          "vel": 29,
          "clef": "bass",
          "acc": "#",
          "pitch": "C#2"
        },
        {
          "midi": 49,
          "beat": 3,
          "dur": 0.4,
          "vel": 23,
          "clef": "bass",
          "acc": "#",
          "pitch": "C#3"
        },
        {
          "midi": 61,
          "beat": 3,
          "dur": 1,
          "vel": 34,
          "clef": "treble",
          "acc": "#",
          "pitch": "C#4"
        },
        {
          "midi": 53,
          "beat": 3.33,
          "dur": 0.41,
          "vel": 31,
          "clef": "bass",
          "pitch": "F3"
        },
        {
          "midi": 56,
          "beat": 3.67,
          "dur": 0.33,
          "vel": 40,
          "clef": "bass",
          "acc": "#",
          "pitch": "G#3"
        }
      ]
    },
    {
      "_": "Treble: 11 notes, Bass: 6 notes",
      "number": 22,
      "notes": [
        {
          "midi": 30,
          "beat": 0,
          "dur": 3.99,
          "vel": 39,
          "clef": "bass",
          "pitch": "F#1"
        },
        {
          "midi": 37,
          "beat": 0,
          "dur": 3.99,
          "vel": 23,
          "clef": "bass",
          "acc": "#",
          "pitch": "C#2"
        },
        {
          "midi": 42,
          "beat": 0,
          "dur": 3.99,
          "vel": 26,
          "clef": "bass",
          "pitch": "F#2"
        },
        {
          "midi": 54,
          "beat": 0,
          "dur": 0.33,
          "vel": 36,
          "clef": "bass",
          "pitch": "F#3"
        },
        {
          "midi": 57,
          "beat": 0.33,
          "dur": 0.33,
          "vel": 25,
          "clef": "bass",
          "pitch": "A3"
        },
        {
          "midi": 61,
          "beat": 0.67,
          "dur": 0.33,
          "vel": 40,
          "clef": "treble",
          "acc": "#",
          "pitch": "C#4"
        },
        {
          "midi": 57,
          "beat": 1,
          "dur": 0.33,
          "vel": 49,
          "clef": "bass",
          "pitch": "A3"
        },
        {
          "midi": 61,
          "beat": 1.33,
          "dur": 0.33,
          "vel": 27,
          "clef": "treble",
          "acc": "#",
          "pitch": "C#4"
        },
        {
          "midi": 66,
          "beat": 1.67,
          "dur": 0.33,
          "vel": 39,
          "clef": "treble",
          "pitch": "F#4"
        },
        {
          "midi": 61,
          "beat": 2,
          "dur": 0.33,
          "vel": 46,
          "clef": "treble",
          "acc": "#",
          "pitch": "C#4"
        },
        {
          "midi": 66,
          "beat": 2.33,
          "dur": 0.33,
          "vel": 28,
          "clef": "treble",
          "pitch": "F#4"
        },
        {
          "midi": 69,
          "beat": 2.67,
          "dur": 0.33,
          "vel": 39,
          "clef": "treble",
          "pitch": "A4"
        },
        {
          "midi": 61,
          "beat": 3,
          "dur": 0.33,
          "vel": 64,
          "clef": "treble",
          "acc": "#",
          "pitch": "C#4"
        },
        {
          "midi": 73,
          "beat": 3,
          "dur": 0.75,
          "vel": 71,
          "clef": "treble",
          "acc": "#",
          "pitch": "C#5"
        },
        {
          "midi": 66,
          "beat": 3.33,
          "dur": 0.33,
          "vel": 32,
          "clef": "treble",
          "pitch": "F#4"
        },
        {
          "midi": 69,
          "beat": 3.67,
          "dur": 0.33,
          "vel": 29,
          "clef": "treble",
          "pitch": "A4"
        },
        {
          "midi": 73,
          "beat": 3.75,
          "dur": 0.25,
          "vel": 54,
          "clef": "treble",
          "acc": "#",
          "pitch": "C#5"
        }
      ]
    },
    {
      "_": "Treble: 15 notes, Bass: 3 notes",
      "number": 23,
      "notes": [
        {
          "midi": 41,
          "beat": 0,
          "dur": 3.99,
          "vel": 29,
          "clef": "bass",
          "pitch": "F2"
        },
        {
          "midi": 49,
          "beat": 0,
          "dur": 3.99,
          "vel": 27,
          "clef": "bass",
          "acc": "#",
          "pitch": "C#3"
        },
        {
          "midi": 53,
          "beat": 0,
          "dur": 3.99,
          "vel": 34,
          "clef": "bass",
          "pitch": "F3"
        },
        {
          "midi": 61,
          "beat": 0,
          "dur": 0.34,
          "vel": 34,
          "clef": "treble",
          "acc": "#",
          "pitch": "C#4"
        },
        {
          "midi": 73,
          "beat": 0,
          "dur": 1.99,
          "vel": 61,
          "clef": "treble",
          "acc": "#",
          "pitch": "C#5"
        },
        {
          "midi": 68,
          "beat": 0.33,
          "dur": 0.33,
          "vel": 35,
          "clef": "treble",
          "acc": "#",
          "pitch": "G#4"
        },
        {
          "midi": 71,
          "beat": 0.67,
          "dur": 0.33,
          "vel": 37,
          "clef": "treble",
          "pitch": "B4"
        },
        {
          "midi": 61,
          "beat": 1,
          "dur": 0.33,
          "vel": 35,
          "clef": "treble",
          "acc": "#",
          "pitch": "C#4"
        },
        {
          "midi": 68,
          "beat": 1.33,
          "dur": 0.33,
          "vel": 26,
          "clef": "treble",
          "acc": "#",
          "pitch": "G#4"
        },
        {
          "midi": 71,
          "beat": 1.67,
          "dur": 0.33,
          "vel": 31,
          "clef": "treble",
          "pitch": "B4"
        },
        {
          "midi": 61,
          "beat": 2,
          "dur": 0.33,
          "vel": 34,
          "clef": "treble",
          "acc": "#",
          "pitch": "C#4"
        },
        {
          "midi": 68,
          "beat": 2.33,
          "dur": 0.33,
          "vel": 32,
          "clef": "treble",
          "acc": "#",
          "pitch": "G#4"
        },
        {
          "midi": 71,
          "beat": 2.67,
          "dur": 0.33,
          "vel": 24,
          "clef": "treble",
          "pitch": "B4"
        },
        {
          "midi": 61,
          "beat": 3,
          "dur": 0.33,
          "vel": 32,
          "clef": "treble",
          "acc": "#",
          "pitch": "C#4"
        },
        {
          "midi": 73,
          "beat": 3,
          "dur": 0.75,
          "vel": 57,
          "clef": "treble",
          "acc": "#",
          "pitch": "C#5"
        },
        {
          "midi": 68,
          "beat": 3.33,
          "dur": 0.33,
          "vel": 31,
          "clef": "treble",
          "acc": "#",
          "pitch": "G#4"
        },
        {
          "midi": 71,
          "beat": 3.67,
          "dur": 0.33,
          "vel": 34,
          "clef": "treble",
          "pitch": "B4"
        },
        {
          "midi": 73,
          "beat": 3.75,
          "dur": 0.25,
          "vel": 46,
          "clef": "treble",
          "acc": "#",
          "pitch": "C#5"
        }
      ]
    },
    {
      "_": "Treble: 15 notes, Bass: 6 notes",
      "number": 24,
      "notes": [
        {
          "midi": 42,
          "beat": 0,
          "dur": 1.99,
          "vel": 31,
          "clef": "bass",
          "pitch": "F#2"
        },
        {
          "midi": 54,
          "beat": 0,
          "dur": 1.99,
          "vel": 22,
          "clef": "bass",
          "pitch": "F#3"
        },
        {
          "midi": 61,
          "beat": 0,
          "dur": 0.33,
          "vel": 31,
          "clef": "treble",
          "acc": "#",
          "pitch": "C#4"
        },
        {
          "midi": 73,
          "beat": 0,
          "dur": 1.99,
          "vel": 61,
          "clef": "treble",
          "acc": "#",
          "pitch": "C#5"
        },
        {
          "midi": 66,
          "beat": 0.33,
          "dur": 0.33,
          "vel": 34,
          "clef": "treble",
          "pitch": "F#4"
        },
        {
          "midi": 69,
          "beat": 0.67,
          "dur": 0.33,
          "vel": 40,
          "clef": "treble",
          "pitch": "A4"
        },
        {
          "midi": 61,
          "beat": 1,
          "dur": 0.99,
          "vel": 46,
          "clef": "treble",
          "acc": "#",
          "pitch": "C#4"
        },
        {
          "midi": 66,
          "beat": 1.33,
          "dur": 0.33,
          "vel": 32,
          "clef": "treble",
          "pitch": "F#4"
        },
        {
          "midi": 69,
          "beat": 1.67,
          "dur": 0.33,
          "vel": 34,
          "clef": "treble",
          "pitch": "A4"
        },
        {
          "midi": 39,
          "beat": 2,
          "dur": 0.99,
          "vel": 56,
          "clef": "bass",
          "acc": "#",
          "pitch": "D#2"
        },
        {
          "midi": 51,
          "beat": 2,
          "dur": 0.99,
          "vel": 51,
          "clef": "bass",
          "acc": "#",
          "pitch": "D#3"
        },
        {
          "midi": 60,
          "beat": 2,
          "dur": 0.33,
          "vel": 63,
          "clef": "treble",
          "pitch": "C4"
        },
        {
          "midi": 72,
          "beat": 2,
          "dur": 0.99,
          "vel": 68,
          "clef": "treble",
          "pitch": "C5"
        },
        {
          "midi": 66,
          "beat": 2.33,
          "dur": 0.33,
          "vel": 33,
          "clef": "treble",
          "pitch": "F#4"
        },
        {
          "midi": 69,
          "beat": 2.67,
          "dur": 0.33,
          "vel": 40,
          "clef": "treble",
          "pitch": "A4"
        },
        {
          "midi": 37,
          "beat": 3,
          "dur": 0.99,
          "vel": 50,
          "clef": "bass",
          "acc": "#",
          "pitch": "C#2"
        },
        {
          "midi": 49,
          "beat": 3,
          "dur": 0.99,
          "vel": 62,
          "clef": "bass",
          "acc": "#",
          "pitch": "C#3"
        },
        {
          "midi": 61,
          "beat": 3,
          "dur": 0.33,
          "vel": 69,
          "clef": "treble",
          "acc": "#",
          "pitch": "C#4"
        },
        {
          "midi": 73,
          "beat": 3,
          "dur": 0.99,
          "vel": 81,
          "clef": "treble",
          "acc": "#",
          "pitch": "C#5"
        },
        {
          "midi": 66,
          "beat": 3.33,
          "dur": 0.33,
          "vel": 37,
          "clef": "treble",
          "pitch": "F#4"
        },
        {
          "midi": 69,
          "beat": 3.67,
          "dur": 0.33,
          "vel": 37,
          "clef": "treble",
          "pitch": "A4"
        }
      ]
    },
    {
      "_": "Treble: 14 notes, Bass: 6 notes",
      "number": 25,
      "notes": [
        {
          "midi": 36,
          "beat": 0,
          "dur": 2.99,
          "vel": 51,
          "clef": "bass",
          "pitch": "C2"
        },
        {
          "midi": 44,
          "beat": 0,
          "dur": 2.99,
          "vel": 45,
          "clef": "bass",
          "acc": "#",
          "pitch": "G#2"
        },
        {
          "midi": 48,
          "beat": 0,
          "dur": 2.99,
          "vel": 51,
          "clef": "bass",
          "pitch": "C3"
        },
        {
          "midi": 63,
          "beat": 0,
          "dur": 0.33,
          "vel": 64,
          "clef": "treble",
          "acc": "#",
          "pitch": "D#4"
        },
        {
          "midi": 75,
          "beat": 0,
          "dur": 2.99,
          "vel": 78,
          "clef": "treble",
          "acc": "#",
          "pitch": "D#5"
        },
        {
          "midi": 66,
          "beat": 0.33,
          "dur": 0.33,
          "vel": 35,
          "clef": "treble",
          "pitch": "F#4"
        },
        {
          "midi": 68,
          "beat": 0.67,
          "dur": 0.33,
          "vel": 36,
          "clef": "treble",
          "acc": "#",
          "pitch": "G#4"
        },
        {
          "midi": 63,
          "beat": 1,
          "dur": 0.33,
          "vel": 52,
          "clef": "treble",
          "acc": "#",
          "pitch": "D#4"
        },
        {
          "midi": 66,
          "beat": 1.33,
          "dur": 0.33,
          "vel": 25,
          "clef": "treble",
          "pitch": "F#4"
        },
        {
          "midi": 68,
          "beat": 1.67,
          "dur": 0.33,
          "vel": 46,
          "clef": "treble",
          "acc": "#",
          "pitch": "G#4"
        },
        {
          "midi": 63,
          "beat": 2,
          "dur": 0.33,
          "vel": 43,
          "clef": "treble",
          "acc": "#",
          "pitch": "D#4"
        },
        {
          "midi": 66,
          "beat": 2.33,
          "dur": 0.33,
          "vel": 33,
          "clef": "treble",
          "pitch": "F#4"
        },
        {
          "midi": 68,
          "beat": 2.67,
          "dur": 0.33,
          "vel": 34,
          "clef": "treble",
          "acc": "#",
          "pitch": "G#4"
        },
        {
          "midi": 36,
          "beat": 3,
          "dur": 0.99,
          "vel": 57,
          "clef": "bass",
          "pitch": "C2"
        },
        {
          "midi": 44,
          "beat": 3,
          "dur": 0.99,
          "vel": 37,
          "clef": "bass",
          "acc": "#",
          "pitch": "G#2"
        },
        {
          "midi": 48,
          "beat": 3,
          "dur": 0.99,
          "vel": 56,
          "clef": "bass",
          "pitch": "C3"
        },
        {
          "midi": 63,
          "beat": 3,
          "dur": 0.33,
          "vel": 69,
          "clef": "treble",
          "acc": "#",
          "pitch": "D#4"
        },
        {
          "midi": 75,
          "beat": 3,
          "dur": 0.99,
          "vel": 71,
          "clef": "treble",
          "acc": "#",
          "pitch": "D#5"
        },
        {
          "midi": 66,
          "beat": 3.33,
          "dur": 0.33,
          "vel": 34,
          "clef": "treble",
          "pitch": "F#4"
        },
        {
          "midi": 68,
          "beat": 3.67,
          "dur": 0.33,
          "vel": 36,
          "clef": "treble",
          "acc": "#",
          "pitch": "G#4"
        }
      ]
    },
    {
      "_": "Treble: 15 notes, Bass: 7 notes",
      "number": 26,
      "notes": [
        {
          "midi": 37,
          "beat": 0,
          "dur": 1.99,
          "vel": 28,
          "clef": "bass",
          "acc": "#",
          "pitch": "C#2"
        },
        {
          "midi": 44,
          "beat": 0,
          "dur": 1.99,
          "vel": 46,
          "clef": "bass",
          "acc": "#",
          "pitch": "G#2"
        },
        {
          "midi": 49,
          "beat": 0,
          "dur": 1.99,
          "vel": 43,
          "clef": "bass",
          "acc": "#",
          "pitch": "C#3"
        },
        {
          "midi": 64,
          "beat": 0,
          "dur": 0.33,
          "vel": 56,
          "clef": "treble",
          "pitch": "E4"
        },
        {
          "midi": 76,
          "beat": 0,
          "dur": 2.99,
          "vel": 71,
          "clef": "treble",
          "pitch": "E5"
        },
        {
          "midi": 68,
          "beat": 0.33,
          "dur": 0.33,
          "vel": 36,
          "clef": "treble",
          "acc": "#",
          "pitch": "G#4"
        },
        {
          "midi": 73,
          "beat": 0.67,
          "dur": 0.33,
          "vel": 37,
          "clef": "treble",
          "acc": "#",
          "pitch": "C#5"
        },
        {
          "midi": 64,
          "beat": 1,
          "dur": 0.33,
          "vel": 30,
          "clef": "treble",
          "pitch": "E4"
        },
        {
          "midi": 68,
          "beat": 1.33,
          "dur": 0.33,
          "vel": 25,
          "clef": "treble",
          "acc": "#",
          "pitch": "G#4"
        },
        {
          "midi": 73,
          "beat": 1.67,
          "dur": 0.33,
          "vel": 32,
          "clef": "treble",
          "acc": "#",
          "pitch": "C#5"
        },
        {
          "midi": 30,
          "beat": 2,
          "dur": 0.99,
          "vel": 33,
          "clef": "bass",
          "pitch": "F#1"
        },
        {
          "midi": 42,
          "beat": 2,
          "dur": 0.99,
          "vel": 27,
          "clef": "bass",
          "pitch": "F#2"
        },
        {
          "midi": 63,
          "beat": 2,
          "dur": 0.33,
          "vel": 45,
          "clef": "treble",
          "acc": "#",
          "pitch": "D#4"
        },
        {
          "midi": 75,
          "beat": 2,
          "dur": 0.99,
          "vel": 56,
          "clef": "treble",
          "acc": "#",
          "pitch": "D#5"
        },
        {
          "midi": 66,
          "beat": 2.33,
          "dur": 0.33,
          "vel": 44,
          "clef": "treble",
          "pitch": "F#4"
        },
        {
          "midi": 69,
          "beat": 2.67,
          "dur": 0.33,
          "vel": 46,
          "clef": "treble",
          "pitch": "A4"
        },
        {
          "midi": 31,
          "beat": 3,
          "dur": 0.99,
          "vel": 34,
          "clef": "bass",
          "pitch": "G1"
        },
        {
          "midi": 43,
          "beat": 3,
          "dur": 0.99,
          "vel": 46,
          "clef": "bass",
          "pitch": "G2"
        },
        {
          "midi": 61,
          "beat": 3,
          "dur": 0.33,
          "vel": 38,
          "clef": "treble",
          "acc": "#",
          "pitch": "C#4"
        },
        {
          "midi": 73,
          "beat": 3,
          "dur": 0.99,
          "vel": 71,
          "clef": "treble",
          "acc": "#",
          "pitch": "C#5"
        },
        {
          "midi": 64,
          "beat": 3.33,
          "dur": 0.33,
          "vel": 56,
          "clef": "treble",
          "pitch": "E4"
        },
        {
          "midi": 70,
          "beat": 3.67,
          "dur": 0.33,
          "vel": 51,
          "clef": "treble",
          "acc": "#",
          "pitch": "A#4"
        }
      ]
    },
    {
      "_": "Treble: 12 notes, Bass: 2 notes",
      "number": 27,
      "notes": [
        {
          "midi": 32,
          "beat": 0,
          "dur": 3.99,
          "vel": 38,
          "clef": "bass",
          "acc": "#",
          "pitch": "G#1"
        },
        {
          "midi": 44,
          "beat": 0,
          "dur": 3.99,
          "vel": 27,
          "clef": "bass",
          "acc": "#",
          "pitch": "G#2"
        },
        {
          "midi": 72,
          "beat": 0,
          "dur": 0.99,
          "vel": 41,
          "clef": "treble",
          "pitch": "C5"
        },
        {
          "midi": 60,
          "beat": 0.33,
          "dur": 0.33,
          "vel": 24,
          "clef": "treble",
          "pitch": "C4"
        },
        {
          "midi": 63,
          "beat": 0.67,
          "dur": 0.33,
          "vel": 33,
          "clef": "treble",
          "acc": "#",
          "pitch": "D#4"
        },
        {
          "midi": 68,
          "beat": 1,
          "dur": 0.99,
          "vel": 58,
          "clef": "treble",
          "acc": "#",
          "pitch": "G#4"
        },
        {
          "midi": 60,
          "beat": 1.33,
          "dur": 0.33,
          "vel": 33,
          "clef": "treble",
          "pitch": "C4"
        },
        {
          "midi": 63,
          "beat": 1.67,
          "dur": 0.33,
          "vel": 47,
          "clef": "treble",
          "acc": "#",
          "pitch": "D#4"
        },
        {
          "midi": 69,
          "beat": 2,
          "dur": 0.99,
          "vel": 66,
          "clef": "treble",
          "pitch": "A4"
        },
        {
          "midi": 60,
          "beat": 2.32,
          "dur": 0.33,
          "vel": 29,
          "clef": "treble",
          "pitch": "C4"
        },
        {
          "midi": 63,
          "beat": 2.67,
          "dur": 0.33,
          "vel": 31,
          "clef": "treble",
          "acc": "#",
          "pitch": "D#4"
        },
        {
          "midi": 66,
          "beat": 3,
          "dur": 0.99,
          "vel": 43,
          "clef": "treble",
          "pitch": "F#4"
        },
        {
          "midi": 60,
          "beat": 3.32,
          "dur": 0.33,
          "vel": 29,
          "clef": "treble",
          "pitch": "C4"
        },
        {
          "midi": 63,
          "beat": 3.67,
          "dur": 0.33,
          "vel": 37,
          "clef": "treble",
          "acc": "#",
          "pitch": "D#4"
        }
      ]
    },
    {
      "_": "Treble: 0 notes, Bass: 13 notes",
      "number": 28,
      "notes": [
        {
          "midi": 32,
          "beat": 0,
          "dur": 3.99,
          "vel": 39,
          "clef": "bass",
          "acc": "#",
          "pitch": "G#1"
        },
        {
          "midi": 44,
          "beat": 0,
          "dur": 3.99,
          "vel": 32,
          "clef": "bass",
          "acc": "#",
          "pitch": "G#2"
        },
        {
          "midi": 48,
          "beat": 0.33,
          "dur": 0.33,
          "vel": 42,
          "clef": "bass",
          "pitch": "C3"
        },
        {
          "midi": 51,
          "beat": 0.67,
          "dur": 0.33,
          "vel": 38,
          "clef": "bass",
          "acc": "#",
          "pitch": "D#3"
        },
        {
          "midi": 56,
          "beat": 1,
          "dur": 0.99,
          "vel": 65,
          "clef": "bass",
          "acc": "#",
          "pitch": "G#3"
        },
        {
          "midi": 48,
          "beat": 1.33,
          "dur": 0.33,
          "vel": 46,
          "clef": "bass",
          "pitch": "C3"
        },
        {
          "midi": 51,
          "beat": 1.67,
          "dur": 0.33,
          "vel": 56,
          "clef": "bass",
          "acc": "#",
          "pitch": "D#3"
        },
        {
          "midi": 57,
          "beat": 2,
          "dur": 0.99,
          "vel": 74,
          "clef": "bass",
          "pitch": "A3"
        },
        {
          "midi": 48,
          "beat": 2.32,
          "dur": 0.33,
          "vel": 58,
          "clef": "bass",
          "pitch": "C3"
        },
        {
          "midi": 51,
          "beat": 2.67,
          "dur": 0.33,
          "vel": 43,
          "clef": "bass",
          "acc": "#",
          "pitch": "D#3"
        },
        {
          "midi": 54,
          "beat": 3,
          "dur": 0.99,
          "vel": 50,
          "clef": "bass",
          "pitch": "F#3"
        },
        {
          "midi": 48,
          "beat": 3.33,
          "dur": 0.33,
          "vel": 48,
          "clef": "bass",
          "pitch": "C3"
        },
        {
          "midi": 51,
          "beat": 3.67,
          "dur": 0.33,
          "vel": 35,
          "clef": "bass",
          "acc": "#",
          "pitch": "D#3"
        }
      ]
    },
    {
      "_": "Treble: 11 notes, Bass: 3 notes",
      "number": 29,
      "notes": [
        {
          "midi": 32,
          "beat": 0,
          "dur": 3.99,
          "vel": 39,
          "clef": "bass",
          "acc": "#",
          "pitch": "G#1"
        },
        {
          "midi": 44,
          "beat": 0,
          "dur": 3.99,
          "vel": 37,
          "clef": "bass",
          "acc": "#",
          "pitch": "G#2"
        },
        {
          "midi": 52,
          "beat": 0,
          "dur": 0.33,
          "vel": 54,
          "clef": "bass",
          "pitch": "E3"
        },
        {
          "midi": 64,
          "beat": 0.33,
          "dur": 0.33,
          "vel": 40,
          "clef": "treble",
          "pitch": "E4"
        },
        {
          "midi": 68,
          "beat": 0.66,
          "dur": 0.33,
          "vel": 27,
          "clef": "treble",
          "acc": "#",
          "pitch": "G#4"
        },
        {
          "midi": 73,
          "beat": 1,
          "dur": 0.99,
          "vel": 64,
          "clef": "treble",
          "acc": "#",
          "pitch": "C#5"
        },
        {
          "midi": 64,
          "beat": 1.33,
          "dur": 0.33,
          "vel": 31,
          "clef": "treble",
          "pitch": "E4"
        },
        {
          "midi": 68,
          "beat": 1.67,
          "dur": 0.33,
          "vel": 27,
          "clef": "treble",
          "acc": "#",
          "pitch": "G#4"
        },
        {
          "midi": 76,
          "beat": 2,
          "dur": 0.99,
          "vel": 70,
          "clef": "treble",
          "pitch": "E5"
        },
        {
          "midi": 64,
          "beat": 2.33,
          "dur": 0.33,
          "vel": 25,
          "clef": "treble",
          "pitch": "E4"
        },
        {
          "midi": 68,
          "beat": 2.67,
          "dur": 0.33,
          "vel": 29,
          "clef": "treble",
          "acc": "#",
          "pitch": "G#4"
        },
        {
          "midi": 73,
          "beat": 3,
          "dur": 0.99,
          "vel": 51,
          "clef": "treble",
          "acc": "#",
          "pitch": "C#5"
        },
        {
          "midi": 64,
          "beat": 3.32,
          "dur": 0.33,
          "vel": 28,
          "clef": "treble",
          "pitch": "E4"
        },
        {
          "midi": 68,
          "beat": 3.67,
          "dur": 0.33,
          "vel": 30,
          "clef": "treble",
          "acc": "#",
          "pitch": "G#4"
        }
      ]
    },
    {
      "_": "Treble: 3 notes, Bass: 10 notes",
      "number": 30,
      "notes": [
        {
          "midi": 32,
          "beat": 0,
          "dur": 3.99,
          "vel": 42,
          "clef": "bass",
          "acc": "#",
          "pitch": "G#1"
        },
        {
          "midi": 44,
          "beat": 0,
          "dur": 3.99,
          "vel": 38,
          "clef": "bass",
          "acc": "#",
          "pitch": "G#2"
        },
        {
          "midi": 52,
          "beat": 0.33,
          "dur": 0.33,
          "vel": 34,
          "clef": "bass",
          "pitch": "E3"
        },
        {
          "midi": 56,
          "beat": 0.67,
          "dur": 0.33,
          "vel": 30,
          "clef": "bass",
          "acc": "#",
          "pitch": "G#3"
        },
        {
          "midi": 61,
          "beat": 1,
          "dur": 0.99,
          "vel": 59,
          "clef": "treble",
          "acc": "#",
          "pitch": "C#4"
        },
        {
          "midi": 52,
          "beat": 1.33,
          "dur": 0.33,
          "vel": 44,
          "clef": "bass",
          "pitch": "E3"
        },
        {
          "midi": 56,
          "beat": 1.67,
          "dur": 0.33,
          "vel": 58,
          "clef": "bass",
          "acc": "#",
          "pitch": "G#3"
        },
        {
          "midi": 64,
          "beat": 2,
          "dur": 0.99,
          "vel": 68,
          "clef": "treble",
          "pitch": "E4"
        },
        {
          "midi": 52,
          "beat": 2.33,
          "dur": 0.33,
          "vel": 37,
          "clef": "bass",
          "pitch": "E3"
        },
        {
          "midi": 56,
          "beat": 2.67,
          "dur": 0.33,
          "vel": 39,
          "clef": "bass",
          "acc": "#",
          "pitch": "G#3"
        },
        {
          "midi": 61,
          "beat": 3,
          "dur": 0.99,
          "vel": 47,
          "clef": "treble",
          "acc": "#",
          "pitch": "C#4"
        },
        {
          "midi": 52,
          "beat": 3.33,
          "dur": 0.33,
          "vel": 29,
          "clef": "bass",
          "pitch": "E3"
        },
        {
          "midi": 56,
          "beat": 3.67,
          "dur": 0.33,
          "vel": 32,
          "clef": "bass",
          "acc": "#",
          "pitch": "G#3"
        }
      ]
    },
    {
      "_": "Treble: 8 notes, Bass: 6 notes",
      "number": 31,
      "notes": [
        {
          "midi": 32,
          "beat": 0,
          "dur": 3.99,
          "vel": 29,
          "clef": "bass",
          "acc": "#",
          "pitch": "G#1"
        },
        {
          "midi": 44,
          "beat": 0,
          "dur": 3.99,
          "vel": 25,
          "clef": "bass",
          "acc": "#",
          "pitch": "G#2"
        },
        {
          "midi": 51,
          "beat": 0,
          "dur": 0.33,
          "vel": 45,
          "clef": "bass",
          "acc": "#",
          "pitch": "D#3"
        },
        {
          "midi": 57,
          "beat": 0.33,
          "dur": 0.33,
          "vel": 31,
          "clef": "bass",
          "pitch": "A3"
        },
        {
          "midi": 54,
          "beat": 0.67,
          "dur": 0.33,
          "vel": 49,
          "clef": "bass",
          "pitch": "F#3"
        },
        {
          "midi": 60,
          "beat": 1,
          "dur": 0.33,
          "vel": 51,
          "clef": "treble",
          "pitch": "C4"
        },
        {
          "midi": 57,
          "beat": 1.33,
          "dur": 0.33,
          "vel": 44,
          "clef": "bass",
          "pitch": "A3"
        },
        {
          "midi": 63,
          "beat": 1.67,
          "dur": 0.33,
          "vel": 58,
          "clef": "treble",
          "acc": "#",
          "pitch": "D#4"
        },
        {
          "midi": 60,
          "beat": 2,
          "dur": 0.33,
          "vel": 57,
          "clef": "treble",
          "pitch": "C4"
        },
        {
          "midi": 66,
          "beat": 2.33,
          "dur": 0.33,
          "vel": 50,
          "clef": "treble",
          "pitch": "F#4"
        },
        {
          "midi": 63,
          "beat": 2.67,
          "dur": 0.33,
          "vel": 48,
          "clef": "treble",
          "acc": "#",
          "pitch": "D#4"
        },
        {
          "midi": 69,
          "beat": 3,
          "dur": 0.33,
          "vel": 56,
          "clef": "treble",
          "pitch": "A4"
        },
        {
          "midi": 66,
          "beat": 3.33,
          "dur": 0.33,
          "vel": 50,
          "clef": "treble",
          "pitch": "F#4"
        },
        {
          "midi": 72,
          "beat": 3.67,
          "dur": 0.33,
          "vel": 57,
          "clef": "treble",
          "pitch": "C5"
        }
      ]
    },
    {
      "_": "Treble: 10 notes, Bass: 4 notes",
      "number": 32,
      "notes": [
        {
          "midi": 32,
          "beat": 0,
          "dur": 3.99,
          "vel": 36,
          "clef": "bass",
          "acc": "#",
          "pitch": "G#1"
        },
        {
          "midi": 44,
          "beat": 0,
          "dur": 3.99,
          "vel": 33,
          "clef": "bass",
          "acc": "#",
          "pitch": "G#2"
        },
        {
          "midi": 52,
          "beat": 0,
          "dur": 0.33,
          "vel": 48,
          "clef": "bass",
          "pitch": "E3"
        },
        {
          "midi": 61,
          "beat": 0.33,
          "dur": 0.33,
          "vel": 34,
          "clef": "treble",
          "acc": "#",
          "pitch": "C#4"
        },
        {
          "midi": 56,
          "beat": 0.67,
          "dur": 0.33,
          "vel": 40,
          "clef": "bass",
          "acc": "#",
          "pitch": "G#3"
        },
        {
          "midi": 64,
          "beat": 1,
          "dur": 0.33,
          "vel": 56,
          "clef": "treble",
          "pitch": "E4"
        },
        {
          "midi": 61,
          "beat": 1.33,
          "dur": 0.33,
          "vel": 39,
          "clef": "treble",
          "acc": "#",
          "pitch": "C#4"
        },
        {
          "midi": 68,
          "beat": 1.67,
          "dur": 0.33,
          "vel": 62,
          "clef": "treble",
          "acc": "#",
          "pitch": "G#4"
        },
        {
          "midi": 64,
          "beat": 2,
          "dur": 0.33,
          "vel": 46,
          "clef": "treble",
          "pitch": "E4"
        },
        {
          "midi": 73,
          "beat": 2.33,
          "dur": 0.33,
          "vel": 63,
          "clef": "treble",
          "acc": "#",
          "pitch": "C#5"
        },
        {
          "midi": 68,
          "beat": 2.67,
          "dur": 0.33,
          "vel": 46,
          "clef": "treble",
          "acc": "#",
          "pitch": "G#4"
        },
        {
          "midi": 76,
          "beat": 3,
          "dur": 0.33,
          "vel": 57,
          "clef": "treble",
          "pitch": "E5"
        },
        {
          "midi": 73,
          "beat": 3.33,
          "dur": 0.33,
          "vel": 26,
          "clef": "treble",
          "acc": "#",
          "pitch": "C#5"
        },
        {
          "midi": 68,
          "beat": 3.67,
          "dur": 0.33,
          "vel": 33,
          "clef": "treble",
          "acc": "#",
          "pitch": "G#4"
        }
      ]
    },
    {
      "_": "Treble: 12 notes, Bass: 2 notes",
      "number": 33,
      "notes": [
        {
          "midi": 32,
          "beat": 0,
          "dur": 3.99,
          "vel": 40,
          "clef": "bass",
          "acc": "#",
          "pitch": "G#1"
        },
        {
          "midi": 44,
          "beat": 0,
          "dur": 3.99,
          "vel": 27,
          "clef": "bass",
          "acc": "#",
          "pitch": "G#2"
        },
        {
          "midi": 61,
          "beat": 0,
          "dur": 0.33,
          "vel": 45,
          "clef": "treble",
          "acc": "#",
          "pitch": "C#4"
        },
        {
          "midi": 67,
          "beat": 0.33,
          "dur": 0.33,
          "vel": 52,
          "clef": "treble",
          "pitch": "G4"
        },
        {
          "midi": 64,
          "beat": 0.67,
          "dur": 0.33,
          "vel": 53,
          "clef": "treble",
          "pitch": "E4"
        },
        {
          "midi": 70,
          "beat": 1,
          "dur": 0.33,
          "vel": 56,
          "clef": "treble",
          "acc": "#",
          "pitch": "A#4"
        },
        {
          "midi": 67,
          "beat": 1.33,
          "dur": 0.33,
          "vel": 35,
          "clef": "treble",
          "pitch": "G4"
        },
        {
          "midi": 73,
          "beat": 1.67,
          "dur": 0.33,
          "vel": 56,
          "clef": "treble",
          "acc": "#",
          "pitch": "C#5"
        },
        {
          "midi": 70,
          "beat": 2,
          "dur": 0.33,
          "vel": 44,
          "clef": "treble",
          "acc": "#",
          "pitch": "A#4"
        },
        {
          "midi": 76,
          "beat": 2.33,
          "dur": 0.33,
          "vel": 66,
          "clef": "treble",
          "pitch": "E5"
        },
        {
          "midi": 73,
          "beat": 2.67,
          "dur": 0.33,
          "vel": 42,
          "clef": "treble",
          "acc": "#",
          "pitch": "C#5"
        },
        {
          "midi": 79,
          "beat": 3,
          "dur": 0.33,
          "vel": 63,
          "clef": "treble",
          "pitch": "G5"
        },
        {
          "midi": 76,
          "beat": 3.33,
          "dur": 0.33,
          "vel": 40,
          "clef": "treble",
          "pitch": "E5"
        },
        {
          "midi": 82,
          "beat": 3.67,
          "dur": 0.33,
          "vel": 33,
          "clef": "treble",
          "acc": "#",
          "pitch": "A#5"
        }
      ]
    },
    {
      "_": "Treble: 12 notes, Bass: 2 notes",
      "number": 34,
      "notes": [
        {
          "midi": 32,
          "beat": 0,
          "dur": 4,
          "vel": 32,
          "clef": "bass",
          "acc": "#",
          "pitch": "G#1"
        },
        {
          "midi": 44,
          "beat": 0,
          "dur": 4,
          "vel": 34,
          "clef": "bass",
          "acc": "#",
          "pitch": "G#2"
        },
        {
          "midi": 66,
          "beat": 0,
          "dur": 0.33,
          "vel": 29,
          "clef": "treble",
          "pitch": "F#4"
        },
        {
          "midi": 72,
          "beat": 0.33,
          "dur": 0.33,
          "vel": 41,
          "clef": "treble",
          "pitch": "C5"
        },
        {
          "midi": 69,
          "beat": 0.67,
          "dur": 0.33,
          "vel": 45,
          "clef": "treble",
          "pitch": "A4"
        },
        {
          "midi": 75,
          "beat": 1,
          "dur": 0.33,
          "vel": 54,
          "clef": "treble",
          "acc": "#",
          "pitch": "D#5"
        },
        {
          "midi": 72,
          "beat": 1.33,
          "dur": 0.33,
          "vel": 33,
          "clef": "treble",
          "pitch": "C5"
        },
        {
          "midi": 78,
          "beat": 1.67,
          "dur": 0.33,
          "vel": 48,
          "clef": "treble",
          "pitch": "F#5"
        },
        {
          "midi": 75,
          "beat": 2,
          "dur": 0.33,
          "vel": 48,
          "clef": "treble",
          "acc": "#",
          "pitch": "D#5"
        },
        {
          "midi": 81,
          "beat": 2.33,
          "dur": 0.33,
          "vel": 43,
          "clef": "treble",
          "pitch": "A5"
        },
        {
          "midi": 78,
          "beat": 2.67,
          "dur": 0.33,
          "vel": 45,
          "clef": "treble",
          "pitch": "F#5"
        },
        {
          "midi": 84,
          "beat": 3,
          "dur": 0.33,
          "vel": 68,
          "clef": "treble",
          "pitch": "C6"
        },
        {
          "midi": 81,
          "beat": 3.33,
          "dur": 0.33,
          "vel": 40,
          "clef": "treble",
          "pitch": "A5"
        },
        {
          "midi": 87,
          "beat": 3.67,
          "dur": 0.33,
          "vel": 48,
          "clef": "treble",
          "acc": "#",
          "pitch": "D#6"
        }
      ]
    },
    {
      "_": "Treble: 12 notes, Bass: 0 notes",
      "number": 35,
      "notes": [
        {
          "midi": 84,
          "beat": 0,
          "dur": 0.33,
          "vel": 57,
          "clef": "treble",
          "pitch": "C6"
        },
        {
          "midi": 78,
          "beat": 0.33,
          "dur": 0.33,
          "vel": 32,
          "clef": "treble",
          "pitch": "F#5"
        },
        {
          "midi": 81,
          "beat": 0.67,
          "dur": 0.33,
          "vel": 28,
          "clef": "treble",
          "pitch": "A5"
        },
        {
          "midi": 75,
          "beat": 1,
          "dur": 0.33,
          "vel": 47,
          "clef": "treble",
          "acc": "#",
          "pitch": "D#5"
        },
        {
          "midi": 78,
          "beat": 1.33,
          "dur": 0.33,
          "vel": 39,
          "clef": "treble",
          "pitch": "F#5"
        },
        {
          "midi": 72,
          "beat": 1.67,
          "dur": 0.33,
          "vel": 36,
          "clef": "treble",
          "pitch": "C5"
        },
        {
          "midi": 75,
          "beat": 2,
          "dur": 0.33,
          "vel": 55,
          "clef": "treble",
          "acc": "#",
          "pitch": "D#5"
        },
        {
          "midi": 69,
          "beat": 2.33,
          "dur": 0.33,
          "vel": 34,
          "clef": "treble",
          "pitch": "A4"
        },
        {
          "midi": 72,
          "beat": 2.67,
          "dur": 0.33,
          "vel": 33,
          "clef": "treble",
          "pitch": "C5"
        },
        {
          "midi": 66,
          "beat": 3,
          "dur": 0.33,
          "vel": 44,
          "clef": "treble",
          "pitch": "F#4"
        },
        {
          "midi": 69,
          "beat": 3.33,
          "dur": 0.33,
          "vel": 26,
          "clef": "treble",
          "pitch": "A4"
        },
        {
          "midi": 63,
          "beat": 3.67,
          "dur": 0.33,
          "vel": 31,
          "clef": "treble",
          "acc": "#",
          "pitch": "D#4"
        }
      ]
    },
    {
      "_": "Treble: 4 notes, Bass: 8 notes",
      "number": 36,
      "notes": [
        {
          "midi": 66,
          "beat": 0,
          "dur": 0.33,
          "vel": 49,
          "clef": "treble",
          "pitch": "F#4"
        },
        {
          "midi": 60,
          "beat": 0.33,
          "dur": 0.33,
          "vel": 39,
          "clef": "treble",
          "pitch": "C4"
        },
        {
          "midi": 63,
          "beat": 0.67,
          "dur": 0.33,
          "vel": 25,
          "clef": "treble",
          "acc": "#",
          "pitch": "D#4"
        },
        {
          "midi": 57,
          "beat": 1,
          "dur": 0.33,
          "vel": 48,
          "clef": "bass",
          "pitch": "A3"
        },
        {
          "midi": 60,
          "beat": 1.33,
          "dur": 0.33,
          "vel": 33,
          "clef": "treble",
          "pitch": "C4"
        },
        {
          "midi": 54,
          "beat": 1.67,
          "dur": 0.33,
          "vel": 43,
          "clef": "bass",
          "pitch": "F#3"
        },
        {
          "midi": 57,
          "beat": 2,
          "dur": 0.35,
          "vel": 30,
          "clef": "bass",
          "pitch": "A3"
        },
        {
          "midi": 51,
          "beat": 2.33,
          "dur": 0.72,
          "vel": 69,
          "clef": "bass",
          "acc": "#",
          "pitch": "D#3"
        },
        {
          "midi": 54,
          "beat": 2.67,
          "dur": 0.35,
          "vel": 46,
          "clef": "bass",
          "pitch": "F#3"
        },
        {
          "midi": 49,
          "beat": 3,
          "dur": 0.71,
          "vel": 61,
          "clef": "bass",
          "acc": "#",
          "pitch": "C#3"
        },
        {
          "midi": 54,
          "beat": 3.33,
          "dur": 0.35,
          "vel": 40,
          "clef": "bass",
          "pitch": "F#3"
        },
        {
          "midi": 57,
          "beat": 3.67,
          "dur": 0.33,
          "vel": 35,
          "clef": "bass",
          "pitch": "A3"
        }
      ]
    },
    {
      "_": "Treble: 0 notes, Bass: 14 notes",
      "number": 37,
      "notes": [
        {
          "midi": 32,
          "beat": 0,
          "dur": 3.99,
          "vel": 35,
          "clef": "bass",
          "acc": "#",
          "pitch": "G#1"
        },
        {
          "midi": 44,
          "beat": 0,
          "dur": 3.99,
          "vel": 32,
          "clef": "bass",
          "acc": "#",
          "pitch": "G#2"
        },
        {
          "midi": 48,
          "beat": 0,
          "dur": 1.99,
          "vel": 44,
          "clef": "bass",
          "pitch": "C3"
        },
        {
          "midi": 54,
          "beat": 0.33,
          "dur": 0.33,
          "vel": 35,
          "clef": "bass",
          "pitch": "F#3"
        },
        {
          "midi": 56,
          "beat": 0.67,
          "dur": 0.33,
          "vel": 44,
          "clef": "bass",
          "acc": "#",
          "pitch": "G#3"
        },
        {
          "midi": 57,
          "beat": 1,
          "dur": 0.33,
          "vel": 62,
          "clef": "bass",
          "pitch": "A3"
        },
        {
          "midi": 56,
          "beat": 1.33,
          "dur": 0.33,
          "vel": 38,
          "clef": "bass",
          "acc": "#",
          "pitch": "G#3"
        },
        {
          "midi": 54,
          "beat": 1.67,
          "dur": 0.33,
          "vel": 48,
          "clef": "bass",
          "pitch": "F#3"
        },
        {
          "midi": 51,
          "beat": 2,
          "dur": 0.99,
          "vel": 71,
          "clef": "bass",
          "acc": "#",
          "pitch": "D#3"
        },
        {
          "midi": 54,
          "beat": 2.33,
          "dur": 0.33,
          "vel": 38,
          "clef": "bass",
          "pitch": "F#3"
        },
        {
          "midi": 57,
          "beat": 2.67,
          "dur": 0.33,
          "vel": 40,
          "clef": "bass",
          "pitch": "A3"
        },
        {
          "midi": 49,
          "beat": 3,
          "dur": 0.99,
          "vel": 68,
          "clef": "bass",
          "acc": "#",
          "pitch": "C#3"
        },
        {
          "midi": 54,
          "beat": 3.33,
          "dur": 0.33,
          "vel": 36,
          "clef": "bass",
          "pitch": "F#3"
        },
        {
          "midi": 57,
          "beat": 3.67,
          "dur": 0.33,
          "vel": 32,
          "clef": "bass",
          "pitch": "A3"
        }
      ]
    },
    {
      "_": "Treble: 0 notes, Bass: 14 notes",
      "number": 38,
      "notes": [
        {
          "midi": 32,
          "beat": 0,
          "dur": 4,
          "vel": 37,
          "clef": "bass",
          "acc": "#",
          "pitch": "G#1"
        },
        {
          "midi": 44,
          "beat": 0,
          "dur": 4,
          "vel": 32,
          "clef": "bass",
          "acc": "#",
          "pitch": "G#2"
        },
        {
          "midi": 48,
          "beat": 0,
          "dur": 2.07,
          "vel": 52,
          "clef": "bass",
          "pitch": "C3"
        },
        {
          "midi": 54,
          "beat": 0.33,
          "dur": 0.33,
          "vel": 34,
          "clef": "bass",
          "pitch": "F#3"
        },
        {
          "midi": 56,
          "beat": 0.67,
          "dur": 0.35,
          "vel": 63,
          "clef": "bass",
          "acc": "#",
          "pitch": "G#3"
        },
        {
          "midi": 57,
          "beat": 1,
          "dur": 0.37,
          "vel": 82,
          "clef": "bass",
          "pitch": "A3"
        },
        {
          "midi": 56,
          "beat": 1.33,
          "dur": 0.35,
          "vel": 56,
          "clef": "bass",
          "acc": "#",
          "pitch": "G#3"
        },
        {
          "midi": 54,
          "beat": 1.67,
          "dur": 0.33,
          "vel": 53,
          "clef": "bass",
          "pitch": "F#3"
        },
        {
          "midi": 50,
          "beat": 2,
          "dur": 0.99,
          "vel": 72,
          "clef": "bass",
          "pitch": "D3"
        },
        {
          "midi": 54,
          "beat": 2.33,
          "dur": 0.33,
          "vel": 45,
          "clef": "bass",
          "pitch": "F#3"
        },
        {
          "midi": 57,
          "beat": 2.67,
          "dur": 0.33,
          "vel": 36,
          "clef": "bass",
          "pitch": "A3"
        },
        {
          "midi": 49,
          "beat": 3,
          "dur": 0.99,
          "vel": 64,
          "clef": "bass",
          "acc": "#",
          "pitch": "C#3"
        },
        {
          "midi": 54,
          "beat": 3.33,
          "dur": 0.33,
          "vel": 39,
          "clef": "bass",
          "pitch": "F#3"
        },
        {
          "midi": 57,
          "beat": 3.67,
          "dur": 0.33,
          "vel": 41,
          "clef": "bass",
          "pitch": "A3"
        }
      ]
    },
    {
      "_": "Treble: 2 notes, Bass: 14 notes",
      "number": 39,
      "notes": [
        {
          "midi": 32,
          "beat": 0,
          "dur": 1.99,
          "vel": 39,
          "clef": "bass",
          "acc": "#",
          "pitch": "G#1"
        },
        {
          "midi": 44,
          "beat": 0,
          "dur": 1.99,
          "vel": 31,
          "clef": "bass",
          "acc": "#",
          "pitch": "G#2"
        },
        {
          "midi": 48,
          "beat": 0,
          "dur": 1.99,
          "vel": 57,
          "clef": "bass",
          "pitch": "C3"
        },
        {
          "midi": 54,
          "beat": 0.33,
          "dur": 0.33,
          "vel": 25,
          "clef": "bass",
          "pitch": "F#3"
        },
        {
          "midi": 56,
          "beat": 0.67,
          "dur": 0.33,
          "vel": 53,
          "clef": "bass",
          "acc": "#",
          "pitch": "G#3"
        },
        {
          "midi": 57,
          "beat": 1,
          "dur": 0.33,
          "vel": 54,
          "clef": "bass",
          "pitch": "A3"
        },
        {
          "midi": 56,
          "beat": 1.33,
          "dur": 0.33,
          "vel": 46,
          "clef": "bass",
          "acc": "#",
          "pitch": "G#3"
        },
        {
          "midi": 54,
          "beat": 1.67,
          "dur": 0.33,
          "vel": 50,
          "clef": "bass",
          "pitch": "F#3"
        },
        {
          "midi": 33,
          "beat": 2,
          "dur": 1.99,
          "vel": 38,
          "clef": "bass",
          "pitch": "A1"
        },
        {
          "midi": 45,
          "beat": 2,
          "dur": 1.99,
          "vel": 38,
          "clef": "bass",
          "pitch": "A2"
        },
        {
          "midi": 49,
          "beat": 2,
          "dur": 0.99,
          "vel": 37,
          "clef": "bass",
          "acc": "#",
          "pitch": "C#3"
        },
        {
          "midi": 52,
          "beat": 2.33,
          "dur": 0.33,
          "vel": 24,
          "clef": "bass",
          "pitch": "E3"
        },
        {
          "midi": 61,
          "beat": 2.67,
          "dur": 0.33,
          "vel": 44,
          "clef": "treble",
          "acc": "#",
          "pitch": "C#4"
        },
        {
          "midi": 49,
          "beat": 3,
          "dur": 0.33,
          "vel": 32,
          "clef": "bass",
          "acc": "#",
          "pitch": "C#3"
        },
        {
          "midi": 52,
          "beat": 3.33,
          "dur": 0.33,
          "vel": 34,
          "clef": "bass",
          "pitch": "E3"
        },
        {
          "midi": 61,
          "beat": 3.67,
          "dur": 0.33,
          "vel": 37,
          "clef": "treble",
          "acc": "#",
          "pitch": "C#4"
        }
      ]
    },
    {
      "_": "Treble: 4 notes, Bass: 12 notes",
      "number": 40,
      "notes": [
        {
          "midi": 30,
          "beat": 0,
          "dur": 2.14,
          "vel": 25,
          "clef": "bass",
          "pitch": "F#1"
        },
        {
          "midi": 42,
          "beat": 0,
          "dur": 2.14,
          "vel": 27,
          "clef": "bass",
          "pitch": "F#2"
        },
        {
          "midi": 51,
          "beat": 0,
          "dur": 0.35,
          "vel": 40,
          "clef": "bass",
          "acc": "#",
          "pitch": "D#3"
        },
        {
          "midi": 57,
          "beat": 0.33,
          "dur": 0.35,
          "vel": 36,
          "clef": "bass",
          "pitch": "A3"
        },
        {
          "midi": 61,
          "beat": 0.67,
          "dur": 0.35,
          "vel": 43,
          "clef": "treble",
          "acc": "#",
          "pitch": "C#4"
        },
        {
          "midi": 51,
          "beat": 1,
          "dur": 0.37,
          "vel": 43,
          "clef": "bass",
          "acc": "#",
          "pitch": "D#3"
        },
        {
          "midi": 57,
          "beat": 1.32,
          "dur": 0.37,
          "vel": 28,
          "clef": "bass",
          "pitch": "A3"
        },
        {
          "midi": 61,
          "beat": 1.67,
          "dur": 0.37,
          "vel": 25,
          "clef": "treble",
          "acc": "#",
          "pitch": "C#4"
        },
        {
          "midi": 32,
          "beat": 2,
          "dur": 2,
          "vel": 33,
          "clef": "bass",
          "acc": "#",
          "pitch": "G#1"
        },
        {
          "midi": 44,
          "beat": 2,
          "dur": 2,
          "vel": 33,
          "clef": "bass",
          "acc": "#",
          "pitch": "G#2"
        },
        {
          "midi": 51,
          "beat": 2,
          "dur": 0.42,
          "vel": 45,
          "clef": "bass",
          "acc": "#",
          "pitch": "D#3"
        },
        {
          "midi": 56,
          "beat": 2.33,
          "dur": 0.42,
          "vel": 45,
          "clef": "bass",
          "acc": "#",
          "pitch": "G#3"
        },
        {
          "midi": 60,
          "beat": 2.67,
          "dur": 0.42,
          "vel": 34,
          "clef": "treble",
          "pitch": "C4"
        },
        {
          "midi": 51,
          "beat": 3,
          "dur": 0.44,
          "vel": 34,
          "clef": "bass",
          "acc": "#",
          "pitch": "D#3"
        },
        {
          "midi": 54,
          "beat": 3.33,
          "dur": 0.44,
          "vel": 38,
          "clef": "bass",
          "pitch": "F#3"
        },
        {
          "midi": 60,
          "beat": 3.67,
          "dur": 0.33,
          "vel": 33,
          "clef": "treble",
          "pitch": "C4"
        }
      ]
    },
    {
      "_": "Treble: 9 notes, Bass: 8 notes",
      "number": 41,
      "notes": [
        {
          "midi": 37,
          "beat": 0,
          "dur": 4,
          "vel": 35,
          "clef": "bass",
          "acc": "#",
          "pitch": "C#2"
        },
        {
          "midi": 44,
          "beat": 0,
          "dur": 4,
          "vel": 37,
          "clef": "bass",
          "acc": "#",
          "pitch": "G#2"
        },
        {
          "midi": 49,
          "beat": 0,
          "dur": 4,
          "vel": 34,
          "clef": "bass",
          "acc": "#",
          "pitch": "C#3"
        },
        {
          "midi": 52,
          "beat": 0,
          "dur": 0.37,
          "vel": 45,
          "clef": "bass",
          "pitch": "E3"
        },
        {
          "midi": 56,
          "beat": 0.33,
          "dur": 0.37,
          "vel": 27,
          "clef": "bass",
          "acc": "#",
          "pitch": "G#3"
        },
        {
          "midi": 61,
          "beat": 0.67,
          "dur": 0.37,
          "vel": 25,
          "clef": "treble",
          "acc": "#",
          "pitch": "C#4"
        },
        {
          "midi": 56,
          "beat": 1,
          "dur": 0.37,
          "vel": 45,
          "clef": "bass",
          "acc": "#",
          "pitch": "G#3"
        },
        {
          "midi": 61,
          "beat": 1.33,
          "dur": 0.37,
          "vel": 33,
          "clef": "treble",
          "acc": "#",
          "pitch": "C#4"
        },
        {
          "midi": 64,
          "beat": 1.67,
          "dur": 0.36,
          "vel": 26,
          "clef": "treble",
          "pitch": "E4"
        },
        {
          "midi": 56,
          "beat": 2,
          "dur": 0.35,
          "vel": 30,
          "clef": "bass",
          "acc": "#",
          "pitch": "G#3"
        },
        {
          "midi": 61,
          "beat": 2.33,
          "dur": 0.35,
          "vel": 32,
          "clef": "treble",
          "acc": "#",
          "pitch": "C#4"
        },
        {
          "midi": 64,
          "beat": 2.67,
          "dur": 0.34,
          "vel": 27,
          "clef": "treble",
          "pitch": "E4"
        },
        {
          "midi": 56,
          "beat": 3,
          "dur": 0.33,
          "vel": 25,
          "clef": "bass",
          "acc": "#",
          "pitch": "G#3"
        },
        {
          "midi": 68,
          "beat": 3,
          "dur": 0.75,
          "vel": 44,
          "clef": "treble",
          "acc": "#",
          "pitch": "G#4"
        },
        {
          "midi": 61,
          "beat": 3.33,
          "dur": 0.33,
          "vel": 29,
          "clef": "treble",
          "acc": "#",
          "pitch": "C#4"
        },
        {
          "midi": 64,
          "beat": 3.67,
          "dur": 0.33,
          "vel": 27,
          "clef": "treble",
          "pitch": "E4"
        },
        {
          "midi": 68,
          "beat": 3.74,
          "dur": 0.25,
          "vel": 60,
          "clef": "treble",
          "acc": "#",
          "pitch": "G#4"
        }
      ]
    },
    {
      "_": "Treble: 11 notes, Bass: 7 notes",
      "number": 42,
      "notes": [
        {
          "midi": 36,
          "beat": 0,
          "dur": 3.99,
          "vel": 26,
          "clef": "bass",
          "pitch": "C2"
        },
        {
          "midi": 44,
          "beat": 0,
          "dur": 3.99,
          "vel": 20,
          "clef": "bass",
          "acc": "#",
          "pitch": "G#2"
        },
        {
          "midi": 48,
          "beat": 0,
          "dur": 3.99,
          "vel": 24,
          "clef": "bass",
          "pitch": "C3"
        },
        {
          "midi": 56,
          "beat": 0,
          "dur": 0.33,
          "vel": 46,
          "clef": "bass",
          "acc": "#",
          "pitch": "G#3"
        },
        {
          "midi": 68,
          "beat": 0,
          "dur": 2.99,
          "vel": 58,
          "clef": "treble",
          "acc": "#",
          "pitch": "G#4"
        },
        {
          "midi": 63,
          "beat": 0.33,
          "dur": 0.33,
          "vel": 35,
          "clef": "treble",
          "acc": "#",
          "pitch": "D#4"
        },
        {
          "midi": 66,
          "beat": 0.67,
          "dur": 0.33,
          "vel": 35,
          "clef": "treble",
          "pitch": "F#4"
        },
        {
          "midi": 56,
          "beat": 1,
          "dur": 0.33,
          "vel": 27,
          "clef": "bass",
          "acc": "#",
          "pitch": "G#3"
        },
        {
          "midi": 63,
          "beat": 1.33,
          "dur": 0.33,
          "vel": 23,
          "clef": "treble",
          "acc": "#",
          "pitch": "D#4"
        },
        {
          "midi": 66,
          "beat": 1.67,
          "dur": 0.33,
          "vel": 30,
          "clef": "treble",
          "pitch": "F#4"
        },
        {
          "midi": 56,
          "beat": 2,
          "dur": 0.33,
          "vel": 25,
          "clef": "bass",
          "acc": "#",
          "pitch": "G#3"
        },
        {
          "midi": 63,
          "beat": 2.33,
          "dur": 0.33,
          "vel": 17,
          "clef": "treble",
          "acc": "#",
          "pitch": "D#4"
        },
        {
          "midi": 66,
          "beat": 2.67,
          "dur": 0.33,
          "vel": 40,
          "clef": "treble",
          "pitch": "F#4"
        },
        {
          "midi": 56,
          "beat": 3,
          "dur": 0.33,
          "vel": 40,
          "clef": "bass",
          "acc": "#",
          "pitch": "G#3"
        },
        {
          "midi": 68,
          "beat": 3,
          "dur": 0.75,
          "vel": 53,
          "clef": "treble",
          "acc": "#",
          "pitch": "G#4"
        },
        {
          "midi": 63,
          "beat": 3.33,
          "dur": 0.33,
          "vel": 32,
          "clef": "treble",
          "acc": "#",
          "pitch": "D#4"
        },
        {
          "midi": 66,
          "beat": 3.67,
          "dur": 0.33,
          "vel": 38,
          "clef": "treble",
          "pitch": "F#4"
        },
        {
          "midi": 68,
          "beat": 3.75,
          "dur": 0.25,
          "vel": 49,
          "clef": "treble",
          "acc": "#",
          "pitch": "G#4"
        }
      ]
    },
    {
      "_": "Treble: 10 notes, Bass: 8 notes",
      "number": 43,
      "notes": [
        {
          "midi": 37,
          "beat": 0,
          "dur": 1.99,
          "vel": 20,
          "clef": "bass",
          "acc": "#",
          "pitch": "C#2"
        },
        {
          "midi": 49,
          "beat": 0,
          "dur": 1.99,
          "vel": 25,
          "clef": "bass",
          "acc": "#",
          "pitch": "C#3"
        },
        {
          "midi": 56,
          "beat": 0,
          "dur": 0.33,
          "vel": 27,
          "clef": "bass",
          "acc": "#",
          "pitch": "G#3"
        },
        {
          "midi": 68,
          "beat": 0,
          "dur": 1.99,
          "vel": 54,
          "clef": "treble",
          "acc": "#",
          "pitch": "G#4"
        },
        {
          "midi": 61,
          "beat": 0.33,
          "dur": 0.33,
          "vel": 30,
          "clef": "treble",
          "acc": "#",
          "pitch": "C#4"
        },
        {
          "midi": 64,
          "beat": 0.67,
          "dur": 0.33,
          "vel": 37,
          "clef": "treble",
          "pitch": "E4"
        },
        {
          "midi": 56,
          "beat": 1,
          "dur": 0.33,
          "vel": 46,
          "clef": "bass",
          "acc": "#",
          "pitch": "G#3"
        },
        {
          "midi": 61,
          "beat": 1.33,
          "dur": 0.33,
          "vel": 26,
          "clef": "treble",
          "acc": "#",
          "pitch": "C#4"
        },
        {
          "midi": 64,
          "beat": 1.67,
          "dur": 0.33,
          "vel": 46,
          "clef": "treble",
          "pitch": "E4"
        },
        {
          "midi": 30,
          "beat": 2,
          "dur": 1.99,
          "vel": 35,
          "clef": "bass",
          "pitch": "F#1"
        },
        {
          "midi": 42,
          "beat": 2,
          "dur": 1.99,
          "vel": 30,
          "clef": "bass",
          "pitch": "F#2"
        },
        {
          "midi": 57,
          "beat": 2,
          "dur": 0.33,
          "vel": 39,
          "clef": "bass",
          "pitch": "A3"
        },
        {
          "midi": 69,
          "beat": 2,
          "dur": 1.99,
          "vel": 59,
          "clef": "treble",
          "pitch": "A4"
        },
        {
          "midi": 61,
          "beat": 2.33,
          "dur": 0.33,
          "vel": 37,
          "clef": "treble",
          "acc": "#",
          "pitch": "C#4"
        },
        {
          "midi": 66,
          "beat": 2.67,
          "dur": 0.33,
          "vel": 35,
          "clef": "treble",
          "pitch": "F#4"
        },
        {
          "midi": 57,
          "beat": 3,
          "dur": 0.33,
          "vel": 31,
          "clef": "bass",
          "pitch": "A3"
        },
        {
          "midi": 61,
          "beat": 3.33,
          "dur": 0.33,
          "vel": 29,
          "clef": "treble",
          "acc": "#",
          "pitch": "C#4"
        },
        {
          "midi": 66,
          "beat": 3.67,
          "dur": 0.33,
          "vel": 33,
          "clef": "treble",
          "pitch": "F#4"
        }
      ]
    },
    {
      "_": "Treble: 7 notes, Bass: 12 notes",
      "number": 44,
      "notes": [
        {
          "midi": 35,
          "beat": 0,
          "dur": 1.99,
          "vel": 37,
          "clef": "bass",
          "pitch": "B1"
        },
        {
          "midi": 47,
          "beat": 0,
          "dur": 1.99,
          "vel": 35,
          "clef": "bass",
          "pitch": "B2"
        },
        {
          "midi": 56,
          "beat": 0,
          "dur": 0.33,
          "vel": 31,
          "clef": "bass",
          "acc": "#",
          "pitch": "G#3"
        },
        {
          "midi": 68,
          "beat": 0,
          "dur": 1.99,
          "vel": 54,
          "clef": "treble",
          "acc": "#",
          "pitch": "G#4"
        },
        {
          "midi": 59,
          "beat": 0.33,
          "dur": 0.33,
          "vel": 42,
          "clef": "bass",
          "pitch": "B3"
        },
        {
          "midi": 64,
          "beat": 0.67,
          "dur": 0.33,
          "vel": 44,
          "clef": "treble",
          "pitch": "E4"
        },
        {
          "midi": 56,
          "beat": 1,
          "dur": 0.33,
          "vel": 34,
          "clef": "bass",
          "acc": "#",
          "pitch": "G#3"
        },
        {
          "midi": 59,
          "beat": 1.33,
          "dur": 0.33,
          "vel": 38,
          "clef": "bass",
          "pitch": "B3"
        },
        {
          "midi": 64,
          "beat": 1.67,
          "dur": 0.33,
          "vel": 38,
          "clef": "treble",
          "pitch": "E4"
        },
        {
          "midi": 35,
          "beat": 2,
          "dur": 1.99,
          "vel": 35,
          "clef": "bass",
          "pitch": "B1"
        },
        {
          "midi": 47,
          "beat": 2,
          "dur": 1.99,
          "vel": 22,
          "clef": "bass",
          "pitch": "B2"
        },
        {
          "midi": 57,
          "beat": 2,
          "dur": 0.33,
          "vel": 48,
          "clef": "bass",
          "pitch": "A3"
        },
        {
          "midi": 66,
          "beat": 2,
          "dur": 0.99,
          "vel": 61,
          "clef": "treble",
          "pitch": "F#4"
        },
        {
          "midi": 59,
          "beat": 2.33,
          "dur": 0.33,
          "vel": 32,
          "clef": "bass",
          "pitch": "B3"
        },
        {
          "midi": 63,
          "beat": 2.67,
          "dur": 0.33,
          "vel": 30,
          "clef": "treble",
          "acc": "#",
          "pitch": "D#4"
        },
        {
          "midi": 57,
          "beat": 2.93,
          "dur": 0.41,
          "vel": 35,
          "clef": "bass",
          "pitch": "A3"
        },
        {
          "midi": 71,
          "beat": 3,
          "dur": 0.99,
          "vel": 56,
          "clef": "treble",
          "pitch": "B4"
        },
        {
          "midi": 59,
          "beat": 3.33,
          "dur": 0.33,
          "vel": 26,
          "clef": "bass",
          "pitch": "B3"
        },
        {
          "midi": 63,
          "beat": 3.67,
          "dur": 0.33,
          "vel": 50,
          "clef": "treble",
          "acc": "#",
          "pitch": "D#4"
        }
      ]
    },
    {
      "_": "Treble: 10 notes, Bass: 7 notes",
      "number": 45,
      "notes": [
        {
          "midi": 40,
          "beat": 0,
          "dur": 3.99,
          "vel": 41,
          "clef": "bass",
          "pitch": "E2"
        },
        {
          "midi": 52,
          "beat": 0,
          "dur": 3.99,
          "vel": 32,
          "clef": "bass",
          "pitch": "E3"
        },
        {
          "midi": 56,
          "beat": 0,
          "dur": 0.33,
          "vel": 20,
          "clef": "bass",
          "acc": "#",
          "pitch": "G#3"
        },
        {
          "midi": 64,
          "beat": 0,
          "dur": 0.67,
          "vel": 40,
          "clef": "treble",
          "pitch": "E4"
        },
        {
          "midi": 59,
          "beat": 0.33,
          "dur": 0.33,
          "vel": 52,
          "clef": "bass",
          "pitch": "B3"
        },
        {
          "midi": 64,
          "beat": 0.67,
          "dur": 0.33,
          "vel": 42,
          "clef": "treble",
          "pitch": "E4"
        },
        {
          "midi": 59,
          "beat": 1,
          "dur": 0.33,
          "vel": 52,
          "clef": "bass",
          "pitch": "B3"
        },
        {
          "midi": 64,
          "beat": 1.33,
          "dur": 0.33,
          "vel": 35,
          "clef": "treble",
          "pitch": "E4"
        },
        {
          "midi": 68,
          "beat": 1.67,
          "dur": 0.33,
          "vel": 35,
          "clef": "treble",
          "acc": "#",
          "pitch": "G#4"
        },
        {
          "midi": 59,
          "beat": 2,
          "dur": 0.33,
          "vel": 52,
          "clef": "bass",
          "pitch": "B3"
        },
        {
          "midi": 64,
          "beat": 2.33,
          "dur": 0.33,
          "vel": 32,
          "clef": "treble",
          "pitch": "E4"
        },
        {
          "midi": 68,
          "beat": 2.67,
          "dur": 0.33,
          "vel": 32,
          "clef": "treble",
          "acc": "#",
          "pitch": "G#4"
        },
        {
          "midi": 59,
          "beat": 3,
          "dur": 0.33,
          "vel": 53,
          "clef": "bass",
          "pitch": "B3"
        },
        {
          "midi": 71,
          "beat": 3,
          "dur": 0.75,
          "vel": 63,
          "clef": "treble",
          "pitch": "B4"
        },
        {
          "midi": 64,
          "beat": 3.33,
          "dur": 0.33,
          "vel": 34,
          "clef": "treble",
          "pitch": "E4"
        },
        {
          "midi": 68,
          "beat": 3.67,
          "dur": 0.33,
          "vel": 39,
          "clef": "treble",
          "acc": "#",
          "pitch": "G#4"
        },
        {
          "midi": 71,
          "beat": 3.75,
          "dur": 0.25,
          "vel": 36,
          "clef": "treble",
          "pitch": "B4"
        }
      ]
    },
    {
      "_": "Treble: 11 notes, Bass: 6 notes",
      "number": 46,
      "notes": [
        {
          "midi": 39,
          "beat": 0,
          "dur": 3.99,
          "vel": 33,
          "clef": "bass",
          "acc": "#",
          "pitch": "D#2"
        },
        {
          "midi": 51,
          "beat": 0,
          "dur": 3.99,
          "vel": 40,
          "clef": "bass",
          "acc": "#",
          "pitch": "D#3"
        },
        {
          "midi": 59,
          "beat": 0,
          "dur": 0.33,
          "vel": 40,
          "clef": "bass",
          "pitch": "B3"
        },
        {
          "midi": 71,
          "beat": 0,
          "dur": 2.99,
          "vel": 57,
          "clef": "treble",
          "pitch": "B4"
        },
        {
          "midi": 66,
          "beat": 0.33,
          "dur": 0.33,
          "vel": 27,
          "clef": "treble",
          "pitch": "F#4"
        },
        {
          "midi": 69,
          "beat": 0.67,
          "dur": 0.33,
          "vel": 21,
          "clef": "treble",
          "pitch": "A4"
        },
        {
          "midi": 59,
          "beat": 1,
          "dur": 0.33,
          "vel": 42,
          "clef": "bass",
          "pitch": "B3"
        },
        {
          "midi": 66,
          "beat": 1.33,
          "dur": 0.33,
          "vel": 22,
          "clef": "treble",
          "pitch": "F#4"
        },
        {
          "midi": 69,
          "beat": 1.67,
          "dur": 0.33,
          "vel": 26,
          "clef": "treble",
          "pitch": "A4"
        },
        {
          "midi": 59,
          "beat": 2,
          "dur": 0.33,
          "vel": 33,
          "clef": "bass",
          "pitch": "B3"
        },
        {
          "midi": 66,
          "beat": 2.33,
          "dur": 0.33,
          "vel": 25,
          "clef": "treble",
          "pitch": "F#4"
        },
        {
          "midi": 69,
          "beat": 2.67,
          "dur": 0.33,
          "vel": 32,
          "clef": "treble",
          "pitch": "A4"
        },
        {
          "midi": 59,
          "beat": 3,
          "dur": 0.33,
          "vel": 44,
          "clef": "bass",
          "pitch": "B3"
        },
        {
          "midi": 71,
          "beat": 3,
          "dur": 0.75,
          "vel": 68,
          "clef": "treble",
          "pitch": "B4"
        },
        {
          "midi": 66,
          "beat": 3.33,
          "dur": 0.33,
          "vel": 28,
          "clef": "treble",
          "pitch": "F#4"
        },
        {
          "midi": 69,
          "beat": 3.67,
          "dur": 0.33,
          "vel": 33,
          "clef": "treble",
          "pitch": "A4"
        },
        {
          "midi": 71,
          "beat": 3.75,
          "dur": 0.25,
          "vel": 49,
          "clef": "treble",
          "pitch": "B4"
        }
      ]
    },
    {
      "_": "Treble: 13 notes, Bass: 8 notes",
      "number": 47,
      "notes": [
        {
          "midi": 40,
          "beat": 0,
          "dur": 1.99,
          "vel": 42,
          "clef": "bass",
          "pitch": "E2"
        },
        {
          "midi": 52,
          "beat": 0,
          "dur": 1.99,
          "vel": 36,
          "clef": "bass",
          "pitch": "E3"
        },
        {
          "midi": 59,
          "beat": 0,
          "dur": 0.33,
          "vel": 39,
          "clef": "bass",
          "pitch": "B3"
        },
        {
          "midi": 71,
          "beat": 0,
          "dur": 1.99,
          "vel": 56,
          "clef": "treble",
          "pitch": "B4"
        },
        {
          "midi": 64,
          "beat": 0.32,
          "dur": 0.33,
          "vel": 34,
          "clef": "treble",
          "pitch": "E4"
        },
        {
          "midi": 68,
          "beat": 0.67,
          "dur": 0.33,
          "vel": 36,
          "clef": "treble",
          "acc": "#",
          "pitch": "G#4"
        },
        {
          "midi": 59,
          "beat": 1,
          "dur": 0.33,
          "vel": 47,
          "clef": "bass",
          "pitch": "B3"
        },
        {
          "midi": 64,
          "beat": 1.32,
          "dur": 0.33,
          "vel": 40,
          "clef": "treble",
          "pitch": "E4"
        },
        {
          "midi": 68,
          "beat": 1.67,
          "dur": 0.33,
          "vel": 27,
          "clef": "treble",
          "acc": "#",
          "pitch": "G#4"
        },
        {
          "midi": 39,
          "beat": 2,
          "dur": 0.99,
          "vel": 58,
          "clef": "bass",
          "acc": "#",
          "pitch": "D#2"
        },
        {
          "midi": 51,
          "beat": 2,
          "dur": 0.99,
          "vel": 57,
          "clef": "bass",
          "acc": "#",
          "pitch": "D#3"
        },
        {
          "midi": 60,
          "beat": 2,
          "dur": 0.33,
          "vel": 70,
          "clef": "treble",
          "pitch": "C4"
        },
        {
          "midi": 72,
          "beat": 2,
          "dur": 0.99,
          "vel": 75,
          "clef": "treble",
          "pitch": "C5"
        },
        {
          "midi": 66,
          "beat": 2.33,
          "dur": 0.33,
          "vel": 33,
          "clef": "treble",
          "pitch": "F#4"
        },
        {
          "midi": 68,
          "beat": 2.67,
          "dur": 0.33,
          "vel": 51,
          "clef": "treble",
          "acc": "#",
          "pitch": "G#4"
        },
        {
          "midi": 37,
          "beat": 3,
          "dur": 0.99,
          "vel": 57,
          "clef": "bass",
          "acc": "#",
          "pitch": "C#2"
        },
        {
          "midi": 49,
          "beat": 3,
          "dur": 0.99,
          "vel": 65,
          "clef": "bass",
          "acc": "#",
          "pitch": "C#3"
        },
        {
          "midi": 61,
          "beat": 3,
          "dur": 0.34,
          "vel": 49,
          "clef": "treble",
          "acc": "#",
          "pitch": "C#4"
        },
        {
          "midi": 73,
          "beat": 3,
          "dur": 0.99,
          "vel": 78,
          "clef": "treble",
          "acc": "#",
          "pitch": "C#5"
        },
        {
          "midi": 64,
          "beat": 3.33,
          "dur": 0.33,
          "vel": 52,
          "clef": "treble",
          "pitch": "E4"
        },
        {
          "midi": 68,
          "beat": 3.67,
          "dur": 0.33,
          "vel": 55,
          "clef": "treble",
          "acc": "#",
          "pitch": "G#4"
        }
      ]
    },
    {
      "_": "Treble: 14 notes, Bass: 6 notes",
      "number": 48,
      "notes": [
        {
          "midi": 36,
          "beat": 0,
          "dur": 1.99,
          "vel": 51,
          "clef": "bass",
          "pitch": "C2"
        },
        {
          "midi": 44,
          "beat": 0,
          "dur": 1.99,
          "vel": 40,
          "clef": "bass",
          "acc": "#",
          "pitch": "G#2"
        },
        {
          "midi": 48,
          "beat": 0,
          "dur": 1.99,
          "vel": 60,
          "clef": "bass",
          "pitch": "C3"
        },
        {
          "midi": 63,
          "beat": 0,
          "dur": 0.33,
          "vel": 65,
          "clef": "treble",
          "acc": "#",
          "pitch": "D#4"
        },
        {
          "midi": 75,
          "beat": 0,
          "dur": 1.99,
          "vel": 78,
          "clef": "treble",
          "acc": "#",
          "pitch": "D#5"
        },
        {
          "midi": 66,
          "beat": 0.33,
          "dur": 0.33,
          "vel": 42,
          "clef": "treble",
          "pitch": "F#4"
        },
        {
          "midi": 68,
          "beat": 0.67,
          "dur": 0.33,
          "vel": 42,
          "clef": "treble",
          "acc": "#",
          "pitch": "G#4"
        },
        {
          "midi": 63,
          "beat": 1,
          "dur": 0.33,
          "vel": 49,
          "clef": "treble",
          "acc": "#",
          "pitch": "D#4"
        },
        {
          "midi": 66,
          "beat": 1.33,
          "dur": 0.33,
          "vel": 39,
          "clef": "treble",
          "pitch": "F#4"
        },
        {
          "midi": 68,
          "beat": 1.67,
          "dur": 0.33,
          "vel": 46,
          "clef": "treble",
          "acc": "#",
          "pitch": "G#4"
        },
        {
          "midi": 37,
          "beat": 2,
          "dur": 0.99,
          "vel": 38,
          "clef": "bass",
          "acc": "#",
          "pitch": "C#2"
        },
        {
          "midi": 44,
          "beat": 2,
          "dur": 0.99,
          "vel": 43,
          "clef": "bass",
          "acc": "#",
          "pitch": "G#2"
        },
        {
          "midi": 49,
          "beat": 2,
          "dur": 0.99,
          "vel": 36,
          "clef": "bass",
          "acc": "#",
          "pitch": "C#3"
        },
        {
          "midi": 64,
          "beat": 2,
          "dur": 0.33,
          "vel": 59,
          "clef": "treble",
          "pitch": "E4"
        },
        {
          "midi": 76,
          "beat": 2,
          "dur": 1.99,
          "vel": 80,
          "clef": "treble",
          "pitch": "E5"
        },
        {
          "midi": 68,
          "beat": 2.33,
          "dur": 0.33,
          "vel": 34,
          "clef": "treble",
          "acc": "#",
          "pitch": "G#4"
        },
        {
          "midi": 73,
          "beat": 2.67,
          "dur": 0.33,
          "vel": 36,
          "clef": "treble",
          "acc": "#",
          "pitch": "C#5"
        },
        {
          "midi": 64,
          "beat": 3,
          "dur": 0.33,
          "vel": 36,
          "clef": "treble",
          "pitch": "E4"
        },
        {
          "midi": 68,
          "beat": 3.33,
          "dur": 0.33,
          "vel": 27,
          "clef": "treble",
          "acc": "#",
          "pitch": "G#4"
        },
        {
          "midi": 73,
          "beat": 3.67,
          "dur": 0.33,
          "vel": 31,
          "clef": "treble",
          "acc": "#",
          "pitch": "C#5"
        }
      ]
    },
    {
      "_": "Treble: 14 notes, Bass: 4 notes",
      "number": 49,
      "notes": [
        {
          "midi": 30,
          "beat": 0,
          "dur": 1.99,
          "vel": 34,
          "clef": "bass",
          "pitch": "F#1"
        },
        {
          "midi": 42,
          "beat": 0,
          "dur": 1.99,
          "vel": 17,
          "clef": "bass",
          "pitch": "F#2"
        },
        {
          "midi": 62,
          "beat": 0,
          "dur": 0.33,
          "vel": 37,
          "clef": "treble",
          "pitch": "D4"
        },
        {
          "midi": 74,
          "beat": 0,
          "dur": 1.99,
          "vel": 54,
          "clef": "treble",
          "pitch": "D5"
        },
        {
          "midi": 66,
          "beat": 0.33,
          "dur": 0.33,
          "vel": 18,
          "clef": "treble",
          "pitch": "F#4"
        },
        {
          "midi": 69,
          "beat": 0.67,
          "dur": 0.33,
          "vel": 19,
          "clef": "treble",
          "pitch": "A4"
        },
        {
          "midi": 62,
          "beat": 1,
          "dur": 0.33,
          "vel": 29,
          "clef": "treble",
          "pitch": "D4"
        },
        {
          "midi": 66,
          "beat": 1.33,
          "dur": 0.33,
          "vel": 36,
          "clef": "treble",
          "pitch": "F#4"
        },
        {
          "midi": 69,
          "beat": 1.67,
          "dur": 0.33,
          "vel": 25,
          "clef": "treble",
          "pitch": "A4"
        },
        {
          "midi": 32,
          "beat": 2,
          "dur": 1.99,
          "vel": 26,
          "clef": "bass",
          "acc": "#",
          "pitch": "G#1"
        },
        {
          "midi": 44,
          "beat": 2,
          "dur": 1.99,
          "vel": 30,
          "clef": "bass",
          "acc": "#",
          "pitch": "G#2"
        },
        {
          "midi": 60,
          "beat": 2,
          "dur": 0.33,
          "vel": 32,
          "clef": "treble",
          "pitch": "C4"
        },
        {
          "midi": 72,
          "beat": 2,
          "dur": 1.99,
          "vel": 49,
          "clef": "treble",
          "pitch": "C5"
        },
        {
          "midi": 66,
          "beat": 2.33,
          "dur": 0.33,
          "vel": 25,
          "clef": "treble",
          "pitch": "F#4"
        },
        {
          "midi": 68,
          "beat": 2.67,
          "dur": 0.33,
          "vel": 30,
          "clef": "treble",
          "acc": "#",
          "pitch": "G#4"
        },
        {
          "midi": 60,
          "beat": 3,
          "dur": 0.33,
          "vel": 33,
          "clef": "treble",
          "pitch": "C4"
        },
        {
          "midi": 66,
          "beat": 3.33,
          "dur": 0.33,
          "vel": 26,
          "clef": "treble",
          "pitch": "F#4"
        },
        {
          "midi": 68,
          "beat": 3.67,
          "dur": 0.33,
          "vel": 34,
          "clef": "treble",
          "acc": "#",
          "pitch": "G#4"
        }
      ]
    },
    {
      "_": "Treble: 15 notes, Bass: 2 notes",
      "number": 50,
      "notes": [
        {
          "midi": 37,
          "beat": 0,
          "dur": 4,
          "vel": 29,
          "clef": "bass",
          "acc": "#",
          "pitch": "C#2"
        },
        {
          "midi": 49,
          "beat": 0,
          "dur": 4,
          "vel": 25,
          "clef": "bass",
          "acc": "#",
          "pitch": "C#3"
        },
        {
          "midi": 61,
          "beat": 0,
          "dur": 0.33,
          "vel": 33,
          "clef": "treble",
          "acc": "#",
          "pitch": "C#4"
        },
        {
          "midi": 73,
          "beat": 0,
          "dur": 2.99,
          "vel": 58,
          "clef": "treble",
          "acc": "#",
          "pitch": "C#5"
        },
        {
          "midi": 64,
          "beat": 0.33,
          "dur": 0.33,
          "vel": 28,
          "clef": "treble",
          "pitch": "E4"
        },
        {
          "midi": 68,
          "beat": 0.67,
          "dur": 0.33,
          "vel": 29,
          "clef": "treble",
          "acc": "#",
          "pitch": "G#4"
        },
        {
          "midi": 61,
          "beat": 1,
          "dur": 0.33,
          "vel": 28,
          "clef": "treble",
          "acc": "#",
          "pitch": "C#4"
        },
        {
          "midi": 64,
          "beat": 1.33,
          "dur": 0.33,
          "vel": 32,
          "clef": "treble",
          "pitch": "E4"
        },
        {
          "midi": 68,
          "beat": 1.67,
          "dur": 0.33,
          "vel": 31,
          "clef": "treble",
          "acc": "#",
          "pitch": "G#4"
        },
        {
          "midi": 61,
          "beat": 2,
          "dur": 0.33,
          "vel": 31,
          "clef": "treble",
          "acc": "#",
          "pitch": "C#4"
        },
        {
          "midi": 65,
          "beat": 2.33,
          "dur": 0.33,
          "vel": 25,
          "clef": "treble",
          "pitch": "F4"
        },
        {
          "midi": 68,
          "beat": 2.67,
          "dur": 0.33,
          "vel": 34,
          "clef": "treble",
          "acc": "#",
          "pitch": "G#4"
        },
        {
          "midi": 61,
          "beat": 3,
          "dur": 0.33,
          "vel": 45,
          "clef": "treble",
          "acc": "#",
          "pitch": "C#4"
        },
        {
          "midi": 73,
          "beat": 3,
          "dur": 0.99,
          "vel": 71,
          "clef": "treble",
          "acc": "#",
          "pitch": "C#5"
        },
        {
          "midi": 65,
          "beat": 3.33,
          "dur": 0.33,
          "vel": 28,
          "clef": "treble",
          "pitch": "F4"
        },
        {
          "midi": 68,
          "beat": 3.67,
          "dur": 0.33,
          "vel": 43,
          "clef": "treble",
          "acc": "#",
          "pitch": "G#4"
        },
        {
          "midi": 61,
          "beat": 3.92,
          "dur": 0.08,
          "vel": 38,
          "clef": "treble",
          "acc": "#",
          "pitch": "C#4"
        }
      ]
    },
    {
      "_": "Treble: 13 notes, Bass: 6 notes",
      "number": 51,
      "notes": [
        {
          "midi": 74,
          "beat": 0,
          "dur": 2.99,
          "vel": 64,
          "clef": "treble",
          "pitch": "D5"
        },
        {
          "midi": 66,
          "beat": 0.33,
          "dur": 0.33,
          "vel": 39,
          "clef": "treble",
          "pitch": "F#4"
        },
        {
          "midi": 69,
          "beat": 0.67,
          "dur": 0.33,
          "vel": 31,
          "clef": "treble",
          "pitch": "A4"
        },
        {
          "midi": 42,
          "beat": 1,
          "dur": 0.99,
          "vel": 49,
          "clef": "bass",
          "pitch": "F#2"
        },
        {
          "midi": 54,
          "beat": 1,
          "dur": 0.99,
          "vel": 48,
          "clef": "bass",
          "pitch": "F#3"
        },
        {
          "midi": 61,
          "beat": 1,
          "dur": 0.33,
          "vel": 49,
          "clef": "treble",
          "acc": "#",
          "pitch": "C#4"
        },
        {
          "midi": 66,
          "beat": 1.33,
          "dur": 0.33,
          "vel": 42,
          "clef": "treble",
          "pitch": "F#4"
        },
        {
          "midi": 69,
          "beat": 1.67,
          "dur": 0.33,
          "vel": 25,
          "clef": "treble",
          "pitch": "A4"
        },
        {
          "midi": 45,
          "beat": 2,
          "dur": 0.99,
          "vel": 79,
          "clef": "bass",
          "pitch": "A2"
        },
        {
          "midi": 57,
          "beat": 2,
          "dur": 0.99,
          "vel": 70,
          "clef": "bass",
          "pitch": "A3"
        },
        {
          "midi": 61,
          "beat": 2,
          "dur": 0.33,
          "vel": 57,
          "clef": "treble",
          "acc": "#",
          "pitch": "C#4"
        },
        {
          "midi": 66,
          "beat": 2.33,
          "dur": 0.33,
          "vel": 28,
          "clef": "treble",
          "pitch": "F#4"
        },
        {
          "midi": 69,
          "beat": 2.67,
          "dur": 0.33,
          "vel": 41,
          "clef": "treble",
          "pitch": "A4"
        },
        {
          "midi": 42,
          "beat": 3,
          "dur": 0.99,
          "vel": 31,
          "clef": "bass",
          "pitch": "F#2"
        },
        {
          "midi": 54,
          "beat": 3,
          "dur": 0.99,
          "vel": 31,
          "clef": "bass",
          "pitch": "F#3"
        },
        {
          "midi": 61,
          "beat": 3,
          "dur": 0.33,
          "vel": 44,
          "clef": "treble",
          "acc": "#",
          "pitch": "C#4"
        },
        {
          "midi": 72,
          "beat": 3,
          "dur": 0.99,
          "vel": 60,
          "clef": "treble",
          "pitch": "C5"
        },
        {
          "midi": 66,
          "beat": 3.33,
          "dur": 0.33,
          "vel": 29,
          "clef": "treble",
          "pitch": "F#4"
        },
        {
          "midi": 69,
          "beat": 3.67,
          "dur": 0.33,
          "vel": 35,
          "clef": "treble",
          "pitch": "A4"
        }
      ]
    },
    {
      "_": "Treble: 15 notes, Bass: 2 notes",
      "number": 52,
      "notes": [
        {
          "midi": 37,
          "beat": 0,
          "dur": 4,
          "vel": 27,
          "clef": "bass",
          "acc": "#",
          "pitch": "C#2"
        },
        {
          "midi": 49,
          "beat": 0,
          "dur": 4,
          "vel": 34,
          "clef": "bass",
          "acc": "#",
          "pitch": "C#3"
        },
        {
          "midi": 61,
          "beat": 0,
          "dur": 0.33,
          "vel": 33,
          "clef": "treble",
          "acc": "#",
          "pitch": "C#4"
        },
        {
          "midi": 73,
          "beat": 0,
          "dur": 2.99,
          "vel": 46,
          "clef": "treble",
          "acc": "#",
          "pitch": "C#5"
        },
        {
          "midi": 65,
          "beat": 0.33,
          "dur": 0.33,
          "vel": 27,
          "clef": "treble",
          "pitch": "F4"
        },
        {
          "midi": 68,
          "beat": 0.67,
          "dur": 0.33,
          "vel": 34,
          "clef": "treble",
          "acc": "#",
          "pitch": "G#4"
        },
        {
          "midi": 61,
          "beat": 1,
          "dur": 0.33,
          "vel": 30,
          "clef": "treble",
          "acc": "#",
          "pitch": "C#4"
        },
        {
          "midi": 65,
          "beat": 1.33,
          "dur": 0.33,
          "vel": 27,
          "clef": "treble",
          "pitch": "F4"
        },
        {
          "midi": 68,
          "beat": 1.67,
          "dur": 0.33,
          "vel": 35,
          "clef": "treble",
          "acc": "#",
          "pitch": "G#4"
        },
        {
          "midi": 61,
          "beat": 2,
          "dur": 0.33,
          "vel": 30,
          "clef": "treble",
          "acc": "#",
          "pitch": "C#4"
        },
        {
          "midi": 65,
          "beat": 2.33,
          "dur": 0.33,
          "vel": 26,
          "clef": "treble",
          "pitch": "F4"
        },
        {
          "midi": 68,
          "beat": 2.67,
          "dur": 0.33,
          "vel": 37,
          "clef": "treble",
          "acc": "#",
          "pitch": "G#4"
        },
        {
          "midi": 61,
          "beat": 3,
          "dur": 0.33,
          "vel": 49,
          "clef": "treble",
          "acc": "#",
          "pitch": "C#4"
        },
        {
          "midi": 73,
          "beat": 3,
          "dur": 0.99,
          "vel": 65,
          "clef": "treble",
          "acc": "#",
          "pitch": "C#5"
        },
        {
          "midi": 65,
          "beat": 3.33,
          "dur": 0.33,
          "vel": 34,
          "clef": "treble",
          "pitch": "F4"
        },
        {
          "midi": 68,
          "beat": 3.67,
          "dur": 0.33,
          "vel": 37,
          "clef": "treble",
          "acc": "#",
          "pitch": "G#4"
        },
        {
          "midi": 61,
          "beat": 3.92,
          "dur": 0.08,
          "vel": 44,
          "clef": "treble",
          "acc": "#",
          "pitch": "C#4"
        }
      ]
    },
    {
      "_": "Treble: 13 notes, Bass: 6 notes",
      "number": 53,
      "notes": [
        {
          "midi": 74,
          "beat": 0,
          "dur": 2.99,
          "vel": 88,
          "clef": "treble",
          "pitch": "D5"
        },
        {
          "midi": 66,
          "beat": 0.33,
          "dur": 0.33,
          "vel": 38,
          "clef": "treble",
          "pitch": "F#4"
        },
        {
          "midi": 69,
          "beat": 0.67,
          "dur": 0.33,
          "vel": 26,
          "clef": "treble",
          "pitch": "A4"
        },
        {
          "midi": 42,
          "beat": 1,
          "dur": 0.99,
          "vel": 50,
          "clef": "bass",
          "pitch": "F#2"
        },
        {
          "midi": 54,
          "beat": 1,
          "dur": 0.99,
          "vel": 44,
          "clef": "bass",
          "pitch": "F#3"
        },
        {
          "midi": 61,
          "beat": 1,
          "dur": 0.33,
          "vel": 45,
          "clef": "treble",
          "acc": "#",
          "pitch": "C#4"
        },
        {
          "midi": 66,
          "beat": 1.33,
          "dur": 0.33,
          "vel": 23,
          "clef": "treble",
          "pitch": "F#4"
        },
        {
          "midi": 69,
          "beat": 1.67,
          "dur": 0.33,
          "vel": 36,
          "clef": "treble",
          "pitch": "A4"
        },
        {
          "midi": 45,
          "beat": 2,
          "dur": 0.99,
          "vel": 72,
          "clef": "bass",
          "pitch": "A2"
        },
        {
          "midi": 57,
          "beat": 2,
          "dur": 0.99,
          "vel": 60,
          "clef": "bass",
          "pitch": "A3"
        },
        {
          "midi": 61,
          "beat": 2,
          "dur": 0.33,
          "vel": 59,
          "clef": "treble",
          "acc": "#",
          "pitch": "C#4"
        },
        {
          "midi": 66,
          "beat": 2.33,
          "dur": 0.33,
          "vel": 35,
          "clef": "treble",
          "pitch": "F#4"
        },
        {
          "midi": 69,
          "beat": 2.67,
          "dur": 0.33,
          "vel": 46,
          "clef": "treble",
          "pitch": "A4"
        },
        {
          "midi": 42,
          "beat": 3,
          "dur": 0.99,
          "vel": 39,
          "clef": "bass",
          "pitch": "F#2"
        },
        {
          "midi": 54,
          "beat": 3,
          "dur": 0.99,
          "vel": 30,
          "clef": "bass",
          "pitch": "F#3"
        },
        {
          "midi": 61,
          "beat": 3,
          "dur": 0.33,
          "vel": 36,
          "clef": "treble",
          "acc": "#",
          "pitch": "C#4"
        },
        {
          "midi": 72,
          "beat": 3,
          "dur": 0.99,
          "vel": 58,
          "clef": "treble",
          "pitch": "C5"
        },
        {
          "midi": 66,
          "beat": 3.33,
          "dur": 0.33,
          "vel": 31,
          "clef": "treble",
          "pitch": "F#4"
        },
        {
          "midi": 69,
          "beat": 3.67,
          "dur": 0.33,
          "vel": 33,
          "clef": "treble",
          "pitch": "A4"
        }
      ]
    },
    {
      "_": "Treble: 14 notes, Bass: 4 notes",
      "number": 54,
      "notes": [
        {
          "midi": 37,
          "beat": 0,
          "dur": 1.99,
          "vel": 35,
          "clef": "bass",
          "acc": "#",
          "pitch": "C#2"
        },
        {
          "midi": 49,
          "beat": 0,
          "dur": 1.99,
          "vel": 25,
          "clef": "bass",
          "acc": "#",
          "pitch": "C#3"
        },
        {
          "midi": 61,
          "beat": 0,
          "dur": 0.33,
          "vel": 31,
          "clef": "treble",
          "acc": "#",
          "pitch": "C#4"
        },
        {
          "midi": 73,
          "beat": 0,
          "dur": 1.99,
          "vel": 46,
          "clef": "treble",
          "acc": "#",
          "pitch": "C#5"
        },
        {
          "midi": 65,
          "beat": 0.33,
          "dur": 0.33,
          "vel": 31,
          "clef": "treble",
          "pitch": "F4"
        },
        {
          "midi": 68,
          "beat": 0.67,
          "dur": 0.33,
          "vel": 27,
          "clef": "treble",
          "acc": "#",
          "pitch": "G#4"
        },
        {
          "midi": 61,
          "beat": 1,
          "dur": 0.33,
          "vel": 34,
          "clef": "treble",
          "acc": "#",
          "pitch": "C#4"
        },
        {
          "midi": 65,
          "beat": 1.33,
          "dur": 0.33,
          "vel": 26,
          "clef": "treble",
          "pitch": "F4"
        },
        {
          "midi": 68,
          "beat": 1.67,
          "dur": 0.33,
          "vel": 37,
          "clef": "treble",
          "acc": "#",
          "pitch": "G#4"
        },
        {
          "midi": 30,
          "beat": 2,
          "dur": 1.99,
          "vel": 28,
          "clef": "bass",
          "pitch": "F#1"
        },
        {
          "midi": 42,
          "beat": 2,
          "dur": 1.99,
          "vel": 26,
          "clef": "bass",
          "pitch": "F#2"
        },
        {
          "midi": 61,
          "beat": 2,
          "dur": 0.33,
          "vel": 18,
          "clef": "treble",
          "acc": "#",
          "pitch": "C#4"
        },
        {
          "midi": 73,
          "beat": 2,
          "dur": 1.99,
          "vel": 57,
          "clef": "treble",
          "acc": "#",
          "pitch": "C#5"
        },
        {
          "midi": 66,
          "beat": 2.33,
          "dur": 0.33,
          "vel": 28,
          "clef": "treble",
          "pitch": "F#4"
        },
        {
          "midi": 69,
          "beat": 2.67,
          "dur": 0.33,
          "vel": 29,
          "clef": "treble",
          "pitch": "A4"
        },
        {
          "midi": 61,
          "beat": 3,
          "dur": 0.33,
          "vel": 25,
          "clef": "treble",
          "acc": "#",
          "pitch": "C#4"
        },
        {
          "midi": 66,
          "beat": 3.33,
          "dur": 0.33,
          "vel": 26,
          "clef": "treble",
          "pitch": "F#4"
        },
        {
          "midi": 69,
          "beat": 3.67,
          "dur": 0.33,
          "vel": 27,
          "clef": "treble",
          "pitch": "A4"
        }
      ]
    },
    {
      "_": "Treble: 10 notes, Bass: 8 notes",
      "number": 55,
      "notes": [
        {
          "midi": 39,
          "beat": 0,
          "dur": 2.99,
          "vel": 38,
          "clef": "bass",
          "acc": "#",
          "pitch": "D#2"
        },
        {
          "midi": 51,
          "beat": 0,
          "dur": 2.99,
          "vel": 29,
          "clef": "bass",
          "acc": "#",
          "pitch": "D#3"
        },
        {
          "midi": 59,
          "beat": 0,
          "dur": 0.33,
          "vel": 32,
          "clef": "bass",
          "pitch": "B3"
        },
        {
          "midi": 71,
          "beat": 0,
          "dur": 2.99,
          "vel": 60,
          "clef": "treble",
          "pitch": "B4"
        },
        {
          "midi": 66,
          "beat": 0.33,
          "dur": 0.33,
          "vel": 25,
          "clef": "treble",
          "pitch": "F#4"
        },
        {
          "midi": 69,
          "beat": 0.67,
          "dur": 0.33,
          "vel": 24,
          "clef": "treble",
          "pitch": "A4"
        },
        {
          "midi": 59,
          "beat": 1,
          "dur": 0.33,
          "vel": 45,
          "clef": "bass",
          "pitch": "B3"
        },
        {
          "midi": 66,
          "beat": 1.33,
          "dur": 0.33,
          "vel": 22,
          "clef": "treble",
          "pitch": "F#4"
        },
        {
          "midi": 69,
          "beat": 1.67,
          "dur": 0.33,
          "vel": 33,
          "clef": "treble",
          "pitch": "A4"
        },
        {
          "midi": 59,
          "beat": 2,
          "dur": 0.33,
          "vel": 32,
          "clef": "bass",
          "pitch": "B3"
        },
        {
          "midi": 66,
          "beat": 2.33,
          "dur": 0.33,
          "vel": 23,
          "clef": "treble",
          "pitch": "F#4"
        },
        {
          "midi": 69,
          "beat": 2.67,
          "dur": 0.33,
          "vel": 39,
          "clef": "treble",
          "pitch": "A4"
        },
        {
          "midi": 40,
          "beat": 3,
          "dur": 0.99,
          "vel": 32,
          "clef": "bass",
          "pitch": "E2"
        },
        {
          "midi": 52,
          "beat": 3,
          "dur": 0.99,
          "vel": 24,
          "clef": "bass",
          "pitch": "E3"
        },
        {
          "midi": 59,
          "beat": 3,
          "dur": 0.33,
          "vel": 37,
          "clef": "bass",
          "pitch": "B3"
        },
        {
          "midi": 71,
          "beat": 3,
          "dur": 0.99,
          "vel": 55,
          "clef": "treble",
          "pitch": "B4"
        },
        {
          "midi": 64,
          "beat": 3.33,
          "dur": 0.33,
          "vel": 42,
          "clef": "treble",
          "pitch": "E4"
        },
        {
          "midi": 68,
          "beat": 3.67,
          "dur": 0.33,
          "vel": 44,
          "clef": "treble",
          "acc": "#",
          "pitch": "G#4"
        }
      ]
    },
    {
      "_": "Treble: 12 notes, Bass: 12 notes",
      "number": 56,
      "notes": [
        {
          "midi": 37,
          "beat": 0,
          "dur": 0.99,
          "vel": 37,
          "clef": "bass",
          "acc": "#",
          "pitch": "C#2"
        },
        {
          "midi": 49,
          "beat": 0,
          "dur": 0.99,
          "vel": 39,
          "clef": "bass",
          "acc": "#",
          "pitch": "C#3"
        },
        {
          "midi": 57,
          "beat": 0,
          "dur": 0.33,
          "vel": 51,
          "clef": "bass",
          "pitch": "A3"
        },
        {
          "midi": 69,
          "beat": 0,
          "dur": 0.99,
          "vel": 60,
          "clef": "treble",
          "pitch": "A4"
        },
        {
          "midi": 64,
          "beat": 0.33,
          "dur": 0.33,
          "vel": 33,
          "clef": "treble",
          "pitch": "E4"
        },
        {
          "midi": 68,
          "beat": 0.67,
          "dur": 0.33,
          "vel": 33,
          "clef": "treble",
          "acc": "#",
          "pitch": "G#4"
        },
        {
          "midi": 39,
          "beat": 1,
          "dur": 0.99,
          "vel": 39,
          "clef": "bass",
          "acc": "#",
          "pitch": "D#2"
        },
        {
          "midi": 51,
          "beat": 1,
          "dur": 0.99,
          "vel": 38,
          "clef": "bass",
          "acc": "#",
          "pitch": "D#3"
        },
        {
          "midi": 57,
          "beat": 1,
          "dur": 0.33,
          "vel": 40,
          "clef": "bass",
          "pitch": "A3"
        },
        {
          "midi": 69,
          "beat": 1,
          "dur": 0.99,
          "vel": 57,
          "clef": "treble",
          "pitch": "A4"
        },
        {
          "midi": 63,
          "beat": 1.33,
          "dur": 0.33,
          "vel": 44,
          "clef": "treble",
          "acc": "#",
          "pitch": "D#4"
        },
        {
          "midi": 66,
          "beat": 1.67,
          "dur": 0.33,
          "vel": 40,
          "clef": "treble",
          "pitch": "F#4"
        },
        {
          "midi": 36,
          "beat": 2,
          "dur": 0.99,
          "vel": 39,
          "clef": "bass",
          "pitch": "C2"
        },
        {
          "midi": 48,
          "beat": 2,
          "dur": 0.99,
          "vel": 35,
          "clef": "bass",
          "pitch": "C3"
        },
        {
          "midi": 56,
          "beat": 2,
          "dur": 0.33,
          "vel": 38,
          "clef": "bass",
          "acc": "#",
          "pitch": "G#3"
        },
        {
          "midi": 68,
          "beat": 2,
          "dur": 0.99,
          "vel": 68,
          "clef": "treble",
          "acc": "#",
          "pitch": "G#4"
        },
        {
          "midi": 63,
          "beat": 2.33,
          "dur": 0.33,
          "vel": 34,
          "clef": "treble",
          "acc": "#",
          "pitch": "D#4"
        },
        {
          "midi": 66,
          "beat": 2.67,
          "dur": 0.33,
          "vel": 37,
          "clef": "treble",
          "pitch": "F#4"
        },
        {
          "midi": 37,
          "beat": 3,
          "dur": 0.99,
          "vel": 36,
          "clef": "bass",
          "acc": "#",
          "pitch": "C#2"
        },
        {
          "midi": 49,
          "beat": 3,
          "dur": 0.99,
          "vel": 33,
          "clef": "bass",
          "acc": "#",
          "pitch": "C#3"
        },
        {
          "midi": 56,
          "beat": 3,
          "dur": 0.33,
          "vel": 38,
          "clef": "bass",
          "acc": "#",
          "pitch": "G#3"
        },
        {
          "midi": 68,
          "beat": 3,
          "dur": 0.99,
          "vel": 57,
          "clef": "treble",
          "acc": "#",
          "pitch": "G#4"
        },
        {
          "midi": 61,
          "beat": 3.33,
          "dur": 0.33,
          "vel": 38,
          "clef": "treble",
          "acc": "#",
          "pitch": "C#4"
        },
        {
          "midi": 64,
          "beat": 3.67,
          "dur": 0.33,
          "vel": 39,
          "clef": "treble",
          "pitch": "E4"
        }
      ]
    },
    {
      "_": "Treble: 11 notes, Bass: 10 notes",
      "number": 57,
      "notes": [
        {
          "midi": 33,
          "beat": 0,
          "dur": 1.99,
          "vel": 29,
          "clef": "bass",
          "pitch": "A1"
        },
        {
          "midi": 45,
          "beat": 0,
          "dur": 1.99,
          "vel": 34,
          "clef": "bass",
          "pitch": "A2"
        },
        {
          "midi": 54,
          "beat": 0,
          "dur": 0.33,
          "vel": 48,
          "clef": "bass",
          "pitch": "F#3"
        },
        {
          "midi": 66,
          "beat": 0,
          "dur": 1.99,
          "vel": 56,
          "clef": "treble",
          "pitch": "F#4"
        },
        {
          "midi": 61,
          "beat": 0.33,
          "dur": 0.33,
          "vel": 33,
          "clef": "treble",
          "acc": "#",
          "pitch": "C#4"
        },
        {
          "midi": 63,
          "beat": 0.67,
          "dur": 0.33,
          "vel": 34,
          "clef": "treble",
          "acc": "#",
          "pitch": "D#4"
        },
        {
          "midi": 54,
          "beat": 1,
          "dur": 0.33,
          "vel": 46,
          "clef": "bass",
          "pitch": "F#3"
        },
        {
          "midi": 61,
          "beat": 1.33,
          "dur": 0.33,
          "vel": 37,
          "clef": "treble",
          "acc": "#",
          "pitch": "C#4"
        },
        {
          "midi": 63,
          "beat": 1.67,
          "dur": 0.33,
          "vel": 36,
          "clef": "treble",
          "acc": "#",
          "pitch": "D#4"
        },
        {
          "midi": 32,
          "beat": 2,
          "dur": 1.07,
          "vel": 44,
          "clef": "bass",
          "acc": "#",
          "pitch": "G#1"
        },
        {
          "midi": 44,
          "beat": 2,
          "dur": 1.07,
          "vel": 40,
          "clef": "bass",
          "acc": "#",
          "pitch": "G#2"
        },
        {
          "midi": 56,
          "beat": 2,
          "dur": 0.35,
          "vel": 54,
          "clef": "bass",
          "acc": "#",
          "pitch": "G#3"
        },
        {
          "midi": 68,
          "beat": 2,
          "dur": 1.07,
          "vel": 67,
          "clef": "treble",
          "acc": "#",
          "pitch": "G#4"
        },
        {
          "midi": 61,
          "beat": 2.33,
          "dur": 0.37,
          "vel": 34,
          "clef": "treble",
          "acc": "#",
          "pitch": "C#4"
        },
        {
          "midi": 63,
          "beat": 2.67,
          "dur": 0.35,
          "vel": 33,
          "clef": "treble",
          "acc": "#",
          "pitch": "D#4"
        },
        {
          "midi": 30,
          "beat": 3,
          "dur": 0.99,
          "vel": 45,
          "clef": "bass",
          "pitch": "F#1"
        },
        {
          "midi": 42,
          "beat": 3,
          "dur": 0.99,
          "vel": 44,
          "clef": "bass",
          "pitch": "F#2"
        },
        {
          "midi": 57,
          "beat": 3,
          "dur": 0.33,
          "vel": 56,
          "clef": "bass",
          "pitch": "A3"
        },
        {
          "midi": 69,
          "beat": 3,
          "dur": 0.99,
          "vel": 70,
          "clef": "treble",
          "pitch": "A4"
        },
        {
          "midi": 61,
          "beat": 3.33,
          "dur": 0.33,
          "vel": 35,
          "clef": "treble",
          "acc": "#",
          "pitch": "C#4"
        },
        {
          "midi": 63,
          "beat": 3.67,
          "dur": 0.33,
          "vel": 39,
          "clef": "treble",
          "acc": "#",
          "pitch": "D#4"
        }
      ]
    },
    {
      "_": "Treble: 10 notes, Bass: 8 notes",
      "number": 58,
      "notes": [
        {
          "midi": 32,
          "beat": 0,
          "dur": 1.99,
          "vel": 43,
          "clef": "bass",
          "acc": "#",
          "pitch": "G#1"
        },
        {
          "midi": 44,
          "beat": 0,
          "dur": 1.99,
          "vel": 31,
          "clef": "bass",
          "acc": "#",
          "pitch": "G#2"
        },
        {
          "midi": 56,
          "beat": 0,
          "dur": 0.33,
          "vel": 45,
          "clef": "bass",
          "acc": "#",
          "pitch": "G#3"
        },
        {
          "midi": 68,
          "beat": 0,
          "dur": 1.99,
          "vel": 61,
          "clef": "treble",
          "acc": "#",
          "pitch": "G#4"
        },
        {
          "midi": 61,
          "beat": 0.33,
          "dur": 0.33,
          "vel": 31,
          "clef": "treble",
          "acc": "#",
          "pitch": "C#4"
        },
        {
          "midi": 64,
          "beat": 0.67,
          "dur": 0.33,
          "vel": 31,
          "clef": "treble",
          "pitch": "E4"
        },
        {
          "midi": 56,
          "beat": 1,
          "dur": 0.33,
          "vel": 32,
          "clef": "bass",
          "acc": "#",
          "pitch": "G#3"
        },
        {
          "midi": 61,
          "beat": 1.33,
          "dur": 0.33,
          "vel": 26,
          "clef": "treble",
          "acc": "#",
          "pitch": "C#4"
        },
        {
          "midi": 64,
          "beat": 1.67,
          "dur": 0.33,
          "vel": 36,
          "clef": "treble",
          "pitch": "E4"
        },
        {
          "midi": 32,
          "beat": 2,
          "dur": 2,
          "vel": 35,
          "clef": "bass",
          "acc": "#",
          "pitch": "G#1"
        },
        {
          "midi": 44,
          "beat": 2,
          "dur": 2,
          "vel": 30,
          "clef": "bass",
          "acc": "#",
          "pitch": "G#2"
        },
        {
          "midi": 54,
          "beat": 2,
          "dur": 0.33,
          "vel": 13,
          "clef": "bass",
          "pitch": "F#3"
        },
        {
          "midi": 68,
          "beat": 2,
          "dur": 0.99,
          "vel": 44,
          "clef": "treble",
          "acc": "#",
          "pitch": "G#4"
        },
        {
          "midi": 60,
          "beat": 2.33,
          "dur": 0.33,
          "vel": 22,
          "clef": "treble",
          "pitch": "C4"
        },
        {
          "midi": 63,
          "beat": 2.67,
          "dur": 0.33,
          "vel": 33,
          "clef": "treble",
          "acc": "#",
          "pitch": "D#4"
        },
        {
          "midi": 54,
          "beat": 3,
          "dur": 0.35,
          "vel": 42,
          "clef": "bass",
          "pitch": "F#3"
        },
        {
          "midi": 60,
          "beat": 3.33,
          "dur": 0.37,
          "vel": 27,
          "clef": "treble",
          "pitch": "C4"
        },
        {
          "midi": 63,
          "beat": 3.67,
          "dur": 0.33,
          "vel": 43,
          "clef": "treble",
          "acc": "#",
          "pitch": "D#4"
        }
      ]
    },
    {
      "_": "Treble: 8 notes, Bass: 9 notes",
      "number": 59,
      "notes": [
        {
          "midi": 37,
          "beat": 0,
          "dur": 4,
          "vel": 33,
          "clef": "bass",
          "acc": "#",
          "pitch": "C#2"
        },
        {
          "midi": 44,
          "beat": 0,
          "dur": 3.18,
          "vel": 27,
          "clef": "bass",
          "acc": "#",
          "pitch": "G#2"
        },
        {
          "midi": 52,
          "beat": 0,
          "dur": 0.35,
          "vel": 39,
          "clef": "bass",
          "pitch": "E3"
        },
        {
          "midi": 61,
          "beat": 0,
          "dur": 1.05,
          "vel": 40,
          "clef": "treble",
          "acc": "#",
          "pitch": "C#4"
        },
        {
          "midi": 56,
          "beat": 0.33,
          "dur": 0.35,
          "vel": 34,
          "clef": "bass",
          "acc": "#",
          "pitch": "G#3"
        },
        {
          "midi": 61,
          "beat": 0.67,
          "dur": 0.35,
          "vel": 42,
          "clef": "treble",
          "acc": "#",
          "pitch": "C#4"
        },
        {
          "midi": 56,
          "beat": 1,
          "dur": 0.35,
          "vel": 44,
          "clef": "bass",
          "acc": "#",
          "pitch": "G#3"
        },
        {
          "midi": 61,
          "beat": 1.33,
          "dur": 0.35,
          "vel": 28,
          "clef": "treble",
          "acc": "#",
          "pitch": "C#4"
        },
        {
          "midi": 64,
          "beat": 1.67,
          "dur": 0.35,
          "vel": 38,
          "clef": "treble",
          "pitch": "E4"
        },
        {
          "midi": 56,
          "beat": 2,
          "dur": 0.35,
          "vel": 36,
          "clef": "bass",
          "acc": "#",
          "pitch": "G#3"
        },
        {
          "midi": 61,
          "beat": 2.33,
          "dur": 0.35,
          "vel": 32,
          "clef": "treble",
          "acc": "#",
          "pitch": "C#4"
        },
        {
          "midi": 64,
          "beat": 2.67,
          "dur": 0.35,
          "vel": 38,
          "clef": "treble",
          "pitch": "E4"
        },
        {
          "midi": 44,
          "beat": 3,
          "dur": 0.8,
          "vel": 61,
          "clef": "bass",
          "acc": "#",
          "pitch": "G#2"
        },
        {
          "midi": 56,
          "beat": 3,
          "dur": 0.35,
          "vel": 43,
          "clef": "bass",
          "acc": "#",
          "pitch": "G#3"
        },
        {
          "midi": 61,
          "beat": 3.33,
          "dur": 0.35,
          "vel": 37,
          "clef": "treble",
          "acc": "#",
          "pitch": "C#4"
        },
        {
          "midi": 64,
          "beat": 3.67,
          "dur": 0.33,
          "vel": 36,
          "clef": "treble",
          "pitch": "E4"
        },
        {
          "midi": 44,
          "beat": 3.75,
          "dur": 0.25,
          "vel": 61,
          "clef": "bass",
          "acc": "#",
          "pitch": "G#2"
        }
      ]
    },
    {
      "_": "Treble: 8 notes, Bass: 8 notes",
      "number": 60,
      "notes": [
        {
          "midi": 36,
          "beat": 0,
          "dur": 4,
          "vel": 52,
          "clef": "bass",
          "pitch": "C2"
        },
        {
          "midi": 44,
          "beat": 0,
          "dur": 3.18,
          "vel": 46,
          "clef": "bass",
          "acc": "#",
          "pitch": "G#2"
        },
        {
          "midi": 56,
          "beat": 0,
          "dur": 0.35,
          "vel": 51,
          "clef": "bass",
          "acc": "#",
          "pitch": "G#3"
        },
        {
          "midi": 63,
          "beat": 0.33,
          "dur": 0.35,
          "vel": 38,
          "clef": "treble",
          "acc": "#",
          "pitch": "D#4"
        },
        {
          "midi": 66,
          "beat": 0.67,
          "dur": 0.35,
          "vel": 36,
          "clef": "treble",
          "pitch": "F#4"
        },
        {
          "midi": 56,
          "beat": 1,
          "dur": 0.35,
          "vel": 46,
          "clef": "bass",
          "acc": "#",
          "pitch": "G#3"
        },
        {
          "midi": 63,
          "beat": 1.33,
          "dur": 0.35,
          "vel": 28,
          "clef": "treble",
          "acc": "#",
          "pitch": "D#4"
        },
        {
          "midi": 66,
          "beat": 1.67,
          "dur": 0.35,
          "vel": 30,
          "clef": "treble",
          "pitch": "F#4"
        },
        {
          "midi": 56,
          "beat": 2,
          "dur": 0.35,
          "vel": 44,
          "clef": "bass",
          "acc": "#",
          "pitch": "G#3"
        },
        {
          "midi": 63,
          "beat": 2.33,
          "dur": 0.35,
          "vel": 34,
          "clef": "treble",
          "acc": "#",
          "pitch": "D#4"
        },
        {
          "midi": 66,
          "beat": 2.67,
          "dur": 0.35,
          "vel": 30,
          "clef": "treble",
          "pitch": "F#4"
        },
        {
          "midi": 44,
          "beat": 3,
          "dur": 0.8,
          "vel": 64,
          "clef": "bass",
          "acc": "#",
          "pitch": "G#2"
        },
        {
          "midi": 56,
          "beat": 3,
          "dur": 0.35,
          "vel": 56,
          "clef": "bass",
          "acc": "#",
          "pitch": "G#3"
        },
        {
          "midi": 63,
          "beat": 3.33,
          "dur": 0.35,
          "vel": 34,
          "clef": "treble",
          "acc": "#",
          "pitch": "D#4"
        },
        {
          "midi": 66,
          "beat": 3.67,
          "dur": 0.33,
          "vel": 39,
          "clef": "treble",
          "pitch": "F#4"
        },
        {
          "midi": 44,
          "beat": 3.75,
          "dur": 0.25,
          "vel": 48,
          "clef": "bass",
          "acc": "#",
          "pitch": "G#2"
        }
      ]
    },
    {
      "_": "Treble: 11 notes, Bass: 5 notes",
      "number": 61,
      "notes": [
        {
          "midi": 37,
          "beat": 0,
          "dur": 3.99,
          "vel": 43,
          "clef": "bass",
          "acc": "#",
          "pitch": "C#2"
        },
        {
          "midi": 44,
          "beat": 0,
          "dur": 2.99,
          "vel": 55,
          "clef": "bass",
          "acc": "#",
          "pitch": "G#2"
        },
        {
          "midi": 56,
          "beat": 0,
          "dur": 0.33,
          "vel": 45,
          "clef": "bass",
          "acc": "#",
          "pitch": "G#3"
        },
        {
          "midi": 64,
          "beat": 0.33,
          "dur": 0.33,
          "vel": 51,
          "clef": "treble",
          "pitch": "E4"
        },
        {
          "midi": 61,
          "beat": 0.67,
          "dur": 0.33,
          "vel": 33,
          "clef": "treble",
          "acc": "#",
          "pitch": "C#4"
        },
        {
          "midi": 68,
          "beat": 1,
          "dur": 0.33,
          "vel": 65,
          "clef": "treble",
          "acc": "#",
          "pitch": "G#4"
        },
        {
          "midi": 64,
          "beat": 1.33,
          "dur": 0.33,
          "vel": 42,
          "clef": "treble",
          "pitch": "E4"
        },
        {
          "midi": 73,
          "beat": 1.67,
          "dur": 0.33,
          "vel": 61,
          "clef": "treble",
          "acc": "#",
          "pitch": "C#5"
        },
        {
          "midi": 68,
          "beat": 2,
          "dur": 0.33,
          "vel": 53,
          "clef": "treble",
          "acc": "#",
          "pitch": "G#4"
        },
        {
          "midi": 76,
          "beat": 2.33,
          "dur": 0.33,
          "vel": 74,
          "clef": "treble",
          "pitch": "E5"
        },
        {
          "midi": 73,
          "beat": 2.67,
          "dur": 0.33,
          "vel": 55,
          "clef": "treble",
          "acc": "#",
          "pitch": "C#5"
        },
        {
          "midi": 44,
          "beat": 3,
          "dur": 0.75,
          "vel": 69,
          "clef": "bass",
          "acc": "#",
          "pitch": "G#2"
        },
        {
          "midi": 80,
          "beat": 3,
          "dur": 0.33,
          "vel": 73,
          "clef": "treble",
          "acc": "#",
          "pitch": "G#5"
        },
        {
          "midi": 76,
          "beat": 3.33,
          "dur": 0.33,
          "vel": 52,
          "clef": "treble",
          "pitch": "E5"
        },
        {
          "midi": 73,
          "beat": 3.67,
          "dur": 0.33,
          "vel": 56,
          "clef": "treble",
          "acc": "#",
          "pitch": "C#5"
        },
        {
          "midi": 44,
          "beat": 3.75,
          "dur": 0.25,
          "vel": 62,
          "clef": "bass",
          "acc": "#",
          "pitch": "G#2"
        }
      ]
    },
    {
      "_": "Treble: 9 notes, Bass: 7 notes",
      "number": 62,
      "notes": [
        {
          "midi": 32,
          "beat": 0,
          "dur": 2.99,
          "vel": 60,
          "clef": "bass",
          "acc": "#",
          "pitch": "G#1"
        },
        {
          "midi": 44,
          "beat": 0,
          "dur": 2.99,
          "vel": 60,
          "clef": "bass",
          "acc": "#",
          "pitch": "G#2"
        },
        {
          "midi": 72,
          "beat": 0,
          "dur": 0.33,
          "vel": 66,
          "clef": "treble",
          "pitch": "C5"
        },
        {
          "midi": 75,
          "beat": 0.33,
          "dur": 0.33,
          "vel": 52,
          "clef": "treble",
          "acc": "#",
          "pitch": "D#5"
        },
        {
          "midi": 69,
          "beat": 0.67,
          "dur": 0.33,
          "vel": 46,
          "clef": "treble",
          "pitch": "A4"
        },
        {
          "midi": 72,
          "beat": 1,
          "dur": 0.33,
          "vel": 64,
          "clef": "treble",
          "pitch": "C5"
        },
        {
          "midi": 66,
          "beat": 1.33,
          "dur": 0.33,
          "vel": 40,
          "clef": "treble",
          "pitch": "F#4"
        },
        {
          "midi": 69,
          "beat": 1.67,
          "dur": 0.33,
          "vel": 39,
          "clef": "treble",
          "pitch": "A4"
        },
        {
          "midi": 63,
          "beat": 2,
          "dur": 0.33,
          "vel": 57,
          "clef": "treble",
          "acc": "#",
          "pitch": "D#4"
        },
        {
          "midi": 66,
          "beat": 2.33,
          "dur": 0.33,
          "vel": 45,
          "clef": "treble",
          "pitch": "F#4"
        },
        {
          "midi": 57,
          "beat": 2.67,
          "dur": 0.33,
          "vel": 52,
          "clef": "bass",
          "pitch": "A3"
        },
        {
          "midi": 44,
          "beat": 3,
          "dur": 0.91,
          "vel": 49,
          "clef": "bass",
          "acc": "#",
          "pitch": "G#2"
        },
        {
          "midi": 60,
          "beat": 3,
          "dur": 0.37,
          "vel": 67,
          "clef": "treble",
          "pitch": "C4"
        },
        {
          "midi": 56,
          "beat": 3.33,
          "dur": 0.42,
          "vel": 36,
          "clef": "bass",
          "acc": "#",
          "pitch": "G#3"
        },
        {
          "midi": 54,
          "beat": 3.67,
          "dur": 0.33,
          "vel": 56,
          "clef": "bass",
          "pitch": "F#3"
        },
        {
          "midi": 44,
          "beat": 3.75,
          "dur": 0.25,
          "vel": 51,
          "clef": "bass",
          "acc": "#",
          "pitch": "G#2"
        }
      ]
    },
    {
      "_": "Treble: 12 notes, Bass: 5 notes",
      "number": 63,
      "notes": [
        {
          "midi": 37,
          "beat": 0,
          "dur": 2.99,
          "vel": 44,
          "clef": "bass",
          "acc": "#",
          "pitch": "C#2"
        },
        {
          "midi": 44,
          "beat": 0,
          "dur": 2.99,
          "vel": 52,
          "clef": "bass",
          "acc": "#",
          "pitch": "G#2"
        },
        {
          "midi": 52,
          "beat": 0,
          "dur": 0.33,
          "vel": 51,
          "clef": "bass",
          "pitch": "E3"
        },
        {
          "midi": 61,
          "beat": 0,
          "dur": 0.33,
          "vel": 58,
          "clef": "treble",
          "acc": "#",
          "pitch": "C#4"
        },
        {
          "midi": 64,
          "beat": 0.33,
          "dur": 0.33,
          "vel": 61,
          "clef": "treble",
          "pitch": "E4"
        },
        {
          "midi": 61,
          "beat": 0.67,
          "dur": 0.33,
          "vel": 45,
          "clef": "treble",
          "acc": "#",
          "pitch": "C#4"
        },
        {
          "midi": 68,
          "beat": 1,
          "dur": 0.33,
          "vel": 62,
          "clef": "treble",
          "acc": "#",
          "pitch": "G#4"
        },
        {
          "midi": 64,
          "beat": 1.33,
          "dur": 0.33,
          "vel": 53,
          "clef": "treble",
          "pitch": "E4"
        },
        {
          "midi": 73,
          "beat": 1.67,
          "dur": 0.33,
          "vel": 67,
          "clef": "treble",
          "acc": "#",
          "pitch": "C#5"
        },
        {
          "midi": 68,
          "beat": 2,
          "dur": 0.33,
          "vel": 42,
          "clef": "treble",
          "acc": "#",
          "pitch": "G#4"
        },
        {
          "midi": 76,
          "beat": 2.33,
          "dur": 0.33,
          "vel": 74,
          "clef": "treble",
          "pitch": "E5"
        },
        {
          "midi": 73,
          "beat": 2.67,
          "dur": 0.33,
          "vel": 48,
          "clef": "treble",
          "acc": "#",
          "pitch": "C#5"
        },
        {
          "midi": 44,
          "beat": 3,
          "dur": 0.75,
          "vel": 61,
          "clef": "bass",
          "acc": "#",
          "pitch": "G#2"
        },
        {
          "midi": 80,
          "beat": 3,
          "dur": 0.33,
          "vel": 72,
          "clef": "treble",
          "acc": "#",
          "pitch": "G#5"
        },
        {
          "midi": 76,
          "beat": 3.33,
          "dur": 0.33,
          "vel": 62,
          "clef": "treble",
          "pitch": "E5"
        },
        {
          "midi": 73,
          "beat": 3.67,
          "dur": 0.33,
          "vel": 56,
          "clef": "treble",
          "acc": "#",
          "pitch": "C#5"
        },
        {
          "midi": 44,
          "beat": 3.75,
          "dur": 0.25,
          "vel": 64,
          "clef": "bass",
          "acc": "#",
          "pitch": "G#2"
        }
      ]
    },
    {
      "_": "Treble: 9 notes, Bass: 7 notes",
      "number": 64,
      "notes": [
        {
          "midi": 32,
          "beat": 0,
          "dur": 2.99,
          "vel": 54,
          "clef": "bass",
          "acc": "#",
          "pitch": "G#1"
        },
        {
          "midi": 44,
          "beat": 0,
          "dur": 2.99,
          "vel": 61,
          "clef": "bass",
          "acc": "#",
          "pitch": "G#2"
        },
        {
          "midi": 72,
          "beat": 0,
          "dur": 0.33,
          "vel": 64,
          "clef": "treble",
          "pitch": "C5"
        },
        {
          "midi": 75,
          "beat": 0.33,
          "dur": 0.33,
          "vel": 46,
          "clef": "treble",
          "acc": "#",
          "pitch": "D#5"
        },
        {
          "midi": 69,
          "beat": 0.67,
          "dur": 0.33,
          "vel": 44,
          "clef": "treble",
          "pitch": "A4"
        },
        {
          "midi": 72,
          "beat": 1,
          "dur": 0.33,
          "vel": 55,
          "clef": "treble",
          "pitch": "C5"
        },
        {
          "midi": 66,
          "beat": 1.33,
          "dur": 0.33,
          "vel": 50,
          "clef": "treble",
          "pitch": "F#4"
        },
        {
          "midi": 69,
          "beat": 1.67,
          "dur": 0.33,
          "vel": 49,
          "clef": "treble",
          "pitch": "A4"
        },
        {
          "midi": 63,
          "beat": 2,
          "dur": 0.33,
          "vel": 62,
          "clef": "treble",
          "acc": "#",
          "pitch": "D#4"
        },
        {
          "midi": 66,
          "beat": 2.33,
          "dur": 0.33,
          "vel": 49,
          "clef": "treble",
          "pitch": "F#4"
        },
        {
          "midi": 57,
          "beat": 2.67,
          "dur": 0.33,
          "vel": 62,
          "clef": "bass",
          "pitch": "A3"
        },
        {
          "midi": 44,
          "beat": 3,
          "dur": 0.91,
          "vel": 56,
          "clef": "bass",
          "acc": "#",
          "pitch": "G#2"
        },
        {
          "midi": 60,
          "beat": 3,
          "dur": 0.37,
          "vel": 63,
          "clef": "treble",
          "pitch": "C4"
        },
        {
          "midi": 56,
          "beat": 3.33,
          "dur": 0.42,
          "vel": 52,
          "clef": "bass",
          "acc": "#",
          "pitch": "G#3"
        },
        {
          "midi": 54,
          "beat": 3.67,
          "dur": 0.33,
          "vel": 47,
          "clef": "bass",
          "pitch": "F#3"
        },
        {
          "midi": 44,
          "beat": 3.75,
          "dur": 0.25,
          "vel": 51,
          "clef": "bass",
          "acc": "#",
          "pitch": "G#2"
        }
      ]
    },
    {
      "_": "Treble: 5 notes, Bass: 10 notes",
      "number": 65,
      "notes": [
        {
          "midi": 37,
          "beat": 0,
          "dur": 4,
          "vel": 47,
          "clef": "bass",
          "acc": "#",
          "pitch": "C#2"
        },
        {
          "midi": 44,
          "beat": 0,
          "dur": 2.21,
          "vel": 46,
          "clef": "bass",
          "acc": "#",
          "pitch": "G#2"
        },
        {
          "midi": 52,
          "beat": 0,
          "dur": 0.37,
          "vel": 49,
          "clef": "bass",
          "pitch": "E3"
        },
        {
          "midi": 61,
          "beat": 0,
          "dur": 1.1,
          "vel": 57,
          "clef": "treble",
          "acc": "#",
          "pitch": "C#4"
        },
        {
          "midi": 56,
          "beat": 0.33,
          "dur": 0.37,
          "vel": 45,
          "clef": "bass",
          "acc": "#",
          "pitch": "G#3"
        },
        {
          "midi": 61,
          "beat": 0.67,
          "dur": 0.37,
          "vel": 51,
          "clef": "treble",
          "acc": "#",
          "pitch": "C#4"
        },
        {
          "midi": 64,
          "beat": 1,
          "dur": 0.37,
          "vel": 49,
          "clef": "treble",
          "pitch": "E4"
        },
        {
          "midi": 61,
          "beat": 1.33,
          "dur": 0.37,
          "vel": 37,
          "clef": "treble",
          "acc": "#",
          "pitch": "C#4"
        },
        {
          "midi": 56,
          "beat": 1.67,
          "dur": 0.37,
          "vel": 30,
          "clef": "bass",
          "acc": "#",
          "pitch": "G#3"
        },
        {
          "midi": 49,
          "beat": 2,
          "dur": 2,
          "vel": 54,
          "clef": "bass",
          "acc": "#",
          "pitch": "C#3"
        },
        {
          "midi": 52,
          "beat": 2.33,
          "dur": 0.4,
          "vel": 29,
          "clef": "bass",
          "pitch": "E3"
        },
        {
          "midi": 56,
          "beat": 2.67,
          "dur": 0.4,
          "vel": 33,
          "clef": "bass",
          "acc": "#",
          "pitch": "G#3"
        },
        {
          "midi": 61,
          "beat": 3,
          "dur": 0.4,
          "vel": 49,
          "clef": "treble",
          "acc": "#",
          "pitch": "C#4"
        },
        {
          "midi": 56,
          "beat": 3.33,
          "dur": 0.4,
          "vel": 40,
          "clef": "bass",
          "acc": "#",
          "pitch": "G#3"
        },
        {
          "midi": 52,
          "beat": 3.67,
          "dur": 0.33,
          "vel": 34,
          "clef": "bass",
          "pitch": "E3"
        }
      ]
    },
    {
      "_": "Treble: 0 notes, Bass: 12 notes",
      "number": 66,
      "notes": [
        {
          "midi": 44,
          "beat": 0,
          "dur": 1.24,
          "vel": 38,
          "clef": "bass",
          "acc": "#",
          "pitch": "G#2"
        },
        {
          "midi": 49,
          "beat": 0.33,
          "dur": 0.42,
          "vel": 38,
          "clef": "bass",
          "acc": "#",
          "pitch": "C#3"
        },
        {
          "midi": 52,
          "beat": 0.67,
          "dur": 0.42,
          "vel": 35,
          "clef": "bass",
          "pitch": "E3"
        },
        {
          "midi": 56,
          "beat": 1,
          "dur": 0.42,
          "vel": 51,
          "clef": "bass",
          "acc": "#",
          "pitch": "G#3"
        },
        {
          "midi": 52,
          "beat": 1.33,
          "dur": 0.42,
          "vel": 37,
          "clef": "bass",
          "pitch": "E3"
        },
        {
          "midi": 49,
          "beat": 1.67,
          "dur": 0.42,
          "vel": 36,
          "clef": "bass",
          "acc": "#",
          "pitch": "C#3"
        },
        {
          "midi": 44,
          "beat": 2,
          "dur": 0.42,
          "vel": 33,
          "clef": "bass",
          "acc": "#",
          "pitch": "G#2"
        },
        {
          "midi": 49,
          "beat": 2.33,
          "dur": 0.42,
          "vel": 36,
          "clef": "bass",
          "acc": "#",
          "pitch": "C#3"
        },
        {
          "midi": 44,
          "beat": 2.67,
          "dur": 0.42,
          "vel": 40,
          "clef": "bass",
          "acc": "#",
          "pitch": "G#2"
        },
        {
          "midi": 40,
          "beat": 3,
          "dur": 0.48,
          "vel": 44,
          "clef": "bass",
          "pitch": "E2"
        },
        {
          "midi": 44,
          "beat": 3.33,
          "dur": 0.52,
          "vel": 39,
          "clef": "bass",
          "acc": "#",
          "pitch": "G#2"
        },
        {
          "midi": 40,
          "beat": 3.67,
          "dur": 0.33,
          "vel": 41,
          "clef": "bass",
          "pitch": "E2"
        }
      ]
    },
    {
      "_": "Treble: 1 notes, Bass: 6 notes",
      "number": 67,
      "notes": [
        {
          "midi": 37,
          "beat": 0,
          "dur": 3.98,
          "vel": 43,
          "clef": "bass",
          "acc": "#",
          "pitch": "C#2"
        },
        {
          "midi": 37,
          "beat": 2,
          "dur": 2,
          "vel": 33,
          "clef": "bass",
          "acc": "#",
          "pitch": "C#2"
        },
        {
          "midi": 44,
          "beat": 2,
          "dur": 2,
          "vel": 33,
          "clef": "bass",
          "acc": "#",
          "pitch": "G#2"
        },
        {
          "midi": 49,
          "beat": 2,
          "dur": 2,
          "vel": 27,
          "clef": "bass",
          "acc": "#",
          "pitch": "C#3"
        },
        {
          "midi": 52,
          "beat": 2,
          "dur": 2,
          "vel": 34,
          "clef": "bass",
          "pitch": "E3"
        },
        {
          "midi": 56,
          "beat": 2,
          "dur": 2,
          "vel": 51,
          "clef": "bass",
          "acc": "#",
          "pitch": "G#3"
        },
        {
          "midi": 61,
          "beat": 2,
          "dur": 2,
          "vel": 49,
          "clef": "treble",
          "acc": "#",
          "pitch": "C#4"
        }
      ]
    },
    {
      "_": "Treble: 1 notes, Bass: 5 notes",
      "number": 68,
      "notes": [
        {
          "midi": 37,
          "beat": 0,
          "dur": 4,
          "vel": 22,
          "clef": "bass",
          "acc": "#",
          "pitch": "C#2"
        },
        {
          "midi": 44,
          "beat": 0,
          "dur": 4,
          "vel": 29,
          "clef": "bass",
          "acc": "#",
          "pitch": "G#2"
        },
        {
          "midi": 49,
          "beat": 0,
          "dur": 4,
          "vel": 23,
          "clef": "bass",
          "acc": "#",
          "pitch": "C#3"
        },
        {
          "midi": 52,
          "beat": 0,
          "dur": 4,
          "vel": 18,
          "clef": "bass",
          "pitch": "E3"
        },
        {
          "midi": 56,
          "beat": 0,
          "dur": 4,
          "vel": 38,
          "clef": "bass",
          "acc": "#",
          "pitch": "G#3"
        },
        {
          "midi": 61,
          "beat": 0,
          "dur": 4,
          "vel": 33,
          "clef": "treble",
          "acc": "#",
          "pitch": "C#4"
        }
      ]
    }
  ],
  "_meta": {
    "source": "MIDI",
    "sourceFile": "moonlight-sonata.mid",
    "totalNotes": 1145,
    "totalMeasures": 69,
    "tracks": 16
  }
}